 0
SECTION
 2
HEADER
 9
$ACADVER
 1
AC1006
 9
$LTSCALE
 40
1000.0
 0
ENDSEC
 0
SECTION
 2
TABLES
 0
TABLE
 2
LTYPE
 70
1
 0
LTYPE
 2
SKEMA_SOLID
 70
64
 3
Sketchup - Skema Ltype
 72
65
 73
0
 40
0.000000
 0
LTYPE
 2
SKEMA_DASHED
 70
64
 3
Sketchup - Skema Ltype
 72
65
 73
2
 40
0.1
 49
0.05
 49
-0.05
 0
LTYPE
 2
SKEMA_DOTTED
 70
64
 3
Sketchup - Skema Ltype
 72
65
 73
2
 40
00.1
 49
0.0
 49
-00.1
 0
ENDTAB
 0
TABLE
 2
LAYER
 70
6
 0
LAYER
 2
Layer0_S_
 70
64
 62
20
 6
SKEMA_SOLID
 0
ENDTAB
 0
TABLE
 2
STYLE
 70
0
 0
ENDTAB
 0
ENDSEC
 0
SECTION
 2
BLOCKS
 0
ENDSEC
 0
SECTION
 2
ENTITIES
 0
LINE
 8
Layer0_S_
10
2005.9754065556333
20
139.81107288852084
30
1.1631430026892443e-14
11
2005.9586581200444
21
132.57522958413546
31
1.1631430026892443e-14
 62
256
 0
LINE
 8
Layer0_S_
10
2009.9754065556335
20
139.99999999999991
30
1.1631430026892443e-14
11
2009.9921549912226
21
132.57522958413546
31
1.1631430026892443e-14
 62
256
 0
LINE
 8
Layer0_S_
10
2166.975406555633
20
139.99999999999991
30
1.1631430026892443e-14
11
2009.9754065556335
21
139.99999999999991
31
1.1631430026892443e-14
 62
256
 0
LINE
 8
Layer0_S_
10
2166.975406555633
20
139.99999999999991
30
1.1631430026892443e-14
11
2166.958658120044
21
132.57522958413546
31
1.1631430026892443e-14
 62
256
 0
LINE
 8
Layer0_S_
10
2170.9754065556335
20
139.81107288852084
30
1.1631430026892443e-14
11
2170.9921549912224
21
132.57522958413546
31
1.1631430026892443e-14
 62
256
 0
LINE
 8
Layer0_S_
10
2180.975406555633
20
12.0
30
1.1631430026892443e-14
11
2180.975406555633
21
127.99999999999993
31
1.1631430026892443e-14
 62
256
 0
LINE
 8
Layer0_S_
10
2007.9754065556333
20
0.0
30
1.1631430026892443e-14
11
2168.9754065556335
21
0.0
31
1.1631430026892443e-14
 62
256
 0
LINE
 8
Layer0_S_
10
1995.9754065556335
20
127.99999999999993
30
1.1631430026892443e-14
11
1995.9754065556335
21
12.0
31
1.1631430026892443e-14
 62
256
 0
LINE
 8
Layer0_S_
10
2005.9754065556333
20
139.81107288852084
30
1.1631430026892443e-14
11
2004.483177008612
21
139.48060681283482
31
1.1631430026892443e-14
 62
256
 0
LINE
 8
Layer0_S_
10
2004.483177008612
20
139.48060681283482
30
1.1631430026892443e-14
11
2003.051157179836
21
138.94311509968514
31
1.1631430026892443e-14
 62
256
 0
LINE
 8
Layer0_S_
10
2003.051157179836
20
138.94311509968514
30
1.1631430026892443e-14
11
2001.699141977134
21
138.22782982556296
31
1.1631430026892443e-14
 62
256
 0
LINE
 8
Layer0_S_
10
2001.699141977134
20
138.22782982556296
30
1.1631430026892443e-14
11
2000.4490976866318
21
137.34637228064383
31
1.1631430026892443e-14
 62
256
 0
LINE
 8
Layer0_S_
10
2000.4490976866318
20
137.34637228064383
30
1.1631430026892443e-14
11
1999.3213338658686
21
136.3130635676786
31
1.1631430026892443e-14
 62
256
 0
LINE
 8
Layer0_S_
10
1999.3213338658686
20
136.3130635676786
30
1.1631430026892443e-14
11
1998.334173372989
21
135.1446919260295
31
1.1631430026892443e-14
 62
256
 0
LINE
 8
Layer0_S_
10
1998.334173372989
20
135.1446919260295
30
1.1631430026892443e-14
11
1997.503654673976
21
133.86023997196398
31
1.1631430026892443e-14
 62
256
 0
LINE
 8
Layer0_S_
10
1997.503654673976
20
133.86023997196398
30
1.1631430026892443e-14
11
1996.8432712645679
21
132.48057628675267
31
1.1631430026892443e-14
 62
256
 0
LINE
 8
Layer0_S_
10
1996.8432712645679
20
132.48057628675267
30
1.1631430026892443e-14
11
1996.3637524404805
21
131.0281163633611
31
1.1631430026892443e-14
 62
256
 0
LINE
 8
Layer0_S_
10
1996.3637524404805
20
131.0281163633611
30
1.1631430026892443e-14
11
1996.0728889777881
21
129.52645842035844
31
1.1631430026892443e-14
 62
256
 0
LINE
 8
Layer0_S_
10
1996.0728889777881
20
129.52645842035844
30
1.1631430026892443e-14
11
1995.9754065556335
21
127.99999999999993
31
1.1631430026892443e-14
 62
256
 0
LINE
 8
Layer0_S_
10
2005.9586581200444
20
132.57522958413546
30
1.1631430026892443e-14
11
2004.897864968428
21
131.9406519484749
31
1.1631430026892443e-14
 62
256
 0
LINE
 8
Layer0_S_
10
2004.897864968428
20
131.9406519484749
30
1.1631430026892443e-14
11
2004.0251675746638
21
131.0652262548181
31
1.1631430026892443e-14
 62
256
 0
LINE
 8
Layer0_S_
10
2004.0251675746638
20
131.0652262548181
30
1.1631430026892443e-14
11
2003.3939041871572
21
130.00245750208254
31
1.1631430026892443e-14
 62
256
 0
LINE
 8
Layer0_S_
10
2003.3939041871572
20
130.00245750208254
30
1.1631430026892443e-14
11
2003.0426568890139
21
128.81730087878577
31
1.1631430026892443e-14
 62
256
 0
LINE
 8
Layer0_S_
10
2003.0426568890139
20
128.81730087878577
30
1.1631430026892443e-14
11
2002.99289350605
21
127.58219177756709
31
1.1631430026892443e-14
 62
256
 0
LINE
 8
Layer0_S_
10
2002.99289350605
20
127.58219177756709
30
1.1631430026892443e-14
11
2003.2476555182811
21
126.37261862834406
31
1.1631430026892443e-14
 62
256
 0
LINE
 8
Layer0_S_
10
2003.2476555182811
20
126.37261862834406
30
1.1631430026892443e-14
11
2003.791372168202
21
125.2625091333862
31
1.1631430026892443e-14
 62
256
 0
LINE
 8
Layer0_S_
10
2003.791372168202
20
125.2625091333862
30
1.1631430026892443e-14
11
2004.5908121273574
21
124.31971189224502
31
1.1631430026892443e-14
 62
256
 0
LINE
 8
Layer0_S_
10
2004.5908121273574
20
124.31971189224502
30
1.1631430026892443e-14
11
2005.597114556432
21
123.60184957436256
31
1.1631430026892443e-14
 62
256
 0
LINE
 8
Layer0_S_
10
2005.597114556432
20
123.60184957436256
30
1.1631430026892443e-14
11
2006.748775422853
21
123.15279708861965
31
1.1631430026892443e-14
 62
256
 0
LINE
 8
Layer0_S_
10
2006.748775422853
20
123.15279708861965
30
1.1631430026892443e-14
11
2007.9754065556333
21
122.99999999999993
31
1.1631430026892443e-14
 62
256
 0
LINE
 8
Layer0_S_
10
2007.9754065556333
20
122.99999999999993
30
1.1631430026892443e-14
11
2009.2020376884138
21
123.15279708861965
31
1.1631430026892443e-14
 62
256
 0
LINE
 8
Layer0_S_
10
2009.2020376884138
20
123.15279708861965
30
1.1631430026892443e-14
11
2010.3536985548349
21
123.60184957436256
31
1.1631430026892443e-14
 62
256
 0
LINE
 8
Layer0_S_
10
2010.3536985548349
20
123.60184957436256
30
1.1631430026892443e-14
11
2011.3600009839095
21
124.31971189224502
31
1.1631430026892443e-14
 62
256
 0
LINE
 8
Layer0_S_
10
2011.3600009839095
20
124.31971189224502
30
1.1631430026892443e-14
11
2012.1594409430645
21
125.2625091333862
31
1.1631430026892443e-14
 62
256
 0
LINE
 8
Layer0_S_
10
2012.1594409430645
20
125.2625091333862
30
1.1631430026892443e-14
11
2012.703157592986
21
126.37261862834406
31
1.1631430026892443e-14
 62
256
 0
LINE
 8
Layer0_S_
10
2012.703157592986
20
126.37261862834406
30
1.1631430026892443e-14
11
2012.9579196052164
21
127.58219177756709
31
1.1631430026892443e-14
 62
256
 0
LINE
 8
Layer0_S_
10
2012.9579196052164
20
127.58219177756709
30
1.1631430026892443e-14
11
2012.908156222253
21
128.81730087878577
31
1.1631430026892443e-14
 62
256
 0
LINE
 8
Layer0_S_
10
2012.908156222253
20
128.81730087878577
30
1.1631430026892443e-14
11
2012.5569089241094
21
130.00245750208254
31
1.1631430026892443e-14
 62
256
 0
LINE
 8
Layer0_S_
10
2012.5569089241094
20
130.00245750208254
30
1.1631430026892443e-14
11
2011.9256455366033
21
131.0652262548181
31
1.1631430026892443e-14
 62
256
 0
LINE
 8
Layer0_S_
10
2011.9256455366033
20
131.0652262548181
30
1.1631430026892443e-14
11
2011.052948142839
21
131.9406519484749
31
1.1631430026892443e-14
 62
256
 0
LINE
 8
Layer0_S_
10
2011.052948142839
20
131.9406519484749
30
1.1631430026892443e-14
11
2009.9921549912226
21
132.57522958413546
31
1.1631430026892443e-14
 62
256
 0
LINE
 8
Layer0_S_
10
2166.958658120044
20
132.57522958413546
30
1.1631430026892443e-14
11
2165.8978649684277
21
131.9406519484749
31
1.1631430026892443e-14
 62
256
 0
LINE
 8
Layer0_S_
10
2165.8978649684277
20
131.9406519484749
30
1.1631430026892443e-14
11
2165.0251675746636
21
131.0652262548181
31
1.1631430026892443e-14
 62
256
 0
LINE
 8
Layer0_S_
10
2165.0251675746636
20
131.0652262548181
30
1.1631430026892443e-14
11
2164.393904187157
21
130.00245750208254
31
1.1631430026892443e-14
 62
256
 0
LINE
 8
Layer0_S_
10
2164.393904187157
20
130.00245750208254
30
1.1631430026892443e-14
11
2164.042656889014
21
128.81730087878577
31
1.1631430026892443e-14
 62
256
 0
LINE
 8
Layer0_S_
10
2164.042656889014
20
128.81730087878577
30
1.1631430026892443e-14
11
2163.99289350605
21
127.58219177756709
31
1.1631430026892443e-14
 62
256
 0
LINE
 8
Layer0_S_
10
2163.99289350605
20
127.58219177756709
30
1.1631430026892443e-14
11
2164.2476555182807
21
126.37261862834406
31
1.1631430026892443e-14
 62
256
 0
LINE
 8
Layer0_S_
10
2164.2476555182807
20
126.37261862834406
30
1.1631430026892443e-14
11
2164.791372168202
21
125.2625091333862
31
1.1631430026892443e-14
 62
256
 0
LINE
 8
Layer0_S_
10
2164.791372168202
20
125.2625091333862
30
1.1631430026892443e-14
11
2165.5908121273574
21
124.31971189224502
31
1.1631430026892443e-14
 62
256
 0
LINE
 8
Layer0_S_
10
2165.5908121273574
20
124.31971189224502
30
1.1631430026892443e-14
11
2166.5971145564317
21
123.60184957436256
31
1.1631430026892443e-14
 62
256
 0
LINE
 8
Layer0_S_
10
2166.5971145564317
20
123.60184957436256
30
1.1631430026892443e-14
11
2167.7487754228528
21
123.15279708861964
31
1.1631430026892443e-14
 62
256
 0
LINE
 8
Layer0_S_
10
2167.7487754228528
20
123.15279708861964
30
1.1631430026892443e-14
11
2168.9754065556335
21
122.99999999999993
31
1.1631430026892443e-14
 62
256
 0
LINE
 8
Layer0_S_
10
2168.9754065556335
20
122.99999999999993
30
1.1631430026892443e-14
11
2170.202037688414
21
123.15279708861964
31
1.1631430026892443e-14
 62
256
 0
LINE
 8
Layer0_S_
10
2170.202037688414
20
123.15279708861964
30
1.1631430026892443e-14
11
2171.353698554835
21
123.60184957436253
31
1.1631430026892443e-14
 62
256
 0
LINE
 8
Layer0_S_
10
2171.353698554835
20
123.60184957436253
30
1.1631430026892443e-14
11
2172.3600009839092
21
124.31971189224502
31
1.1631430026892443e-14
 62
256
 0
LINE
 8
Layer0_S_
10
2172.3600009839092
20
124.31971189224502
30
1.1631430026892443e-14
11
2173.1594409430645
21
125.2625091333862
31
1.1631430026892443e-14
 62
256
 0
LINE
 8
Layer0_S_
10
2173.1594409430645
20
125.2625091333862
30
1.1631430026892443e-14
11
2173.7031575929855
21
126.37261862834404
31
1.1631430026892443e-14
 62
256
 0
LINE
 8
Layer0_S_
10
2173.7031575929855
20
126.37261862834404
30
1.1631430026892443e-14
11
2173.957919605217
21
127.58219177756709
31
1.1631430026892443e-14
 62
256
 0
LINE
 8
Layer0_S_
10
2173.957919605217
20
127.58219177756709
30
1.1631430026892443e-14
11
2173.9081562222527
21
128.81730087878577
31
1.1631430026892443e-14
 62
256
 0
LINE
 8
Layer0_S_
10
2173.9081562222527
20
128.81730087878577
30
1.1631430026892443e-14
11
2173.55690892411
21
130.00245750208254
31
1.1631430026892443e-14
 62
256
 0
LINE
 8
Layer0_S_
10
2173.55690892411
20
130.00245750208254
30
1.1631430026892443e-14
11
2172.925645536603
21
131.0652262548181
31
1.1631430026892443e-14
 62
256
 0
LINE
 8
Layer0_S_
10
2172.925645536603
20
131.0652262548181
30
1.1631430026892443e-14
11
2172.052948142839
21
131.9406519484749
31
1.1631430026892443e-14
 62
256
 0
LINE
 8
Layer0_S_
10
2172.052948142839
20
131.9406519484749
30
1.1631430026892443e-14
11
2170.9921549912224
21
132.57522958413546
31
1.1631430026892443e-14
 62
256
 0
LINE
 8
Layer0_S_
10
2170.9754065556335
20
139.81107288852084
30
1.1631430026892443e-14
11
2172.4676361026545
21
139.48060681283482
31
1.1631430026892443e-14
 62
256
 0
LINE
 8
Layer0_S_
10
2172.4676361026545
20
139.48060681283482
30
1.1631430026892443e-14
11
2173.8996559314305
21
138.94311509968514
31
1.1631430026892443e-14
 62
256
 0
LINE
 8
Layer0_S_
10
2173.8996559314305
20
138.94311509968514
30
1.1631430026892443e-14
11
2175.2516711341327
21
138.22782982556296
31
1.1631430026892443e-14
 62
256
 0
LINE
 8
Layer0_S_
10
2175.2516711341327
20
138.22782982556296
30
1.1631430026892443e-14
11
2176.5017154246348
21
137.34637228064383
31
1.1631430026892443e-14
 62
256
 0
LINE
 8
Layer0_S_
10
2176.5017154246348
20
137.34637228064383
30
1.1631430026892443e-14
11
2177.629479245398
21
136.3130635676786
31
1.1631430026892443e-14
 62
256
 0
LINE
 8
Layer0_S_
10
2177.629479245398
20
136.3130635676786
30
1.1631430026892443e-14
11
2178.616639738278
21
135.1446919260295
31
1.1631430026892443e-14
 62
256
 0
LINE
 8
Layer0_S_
10
2178.616639738278
20
135.1446919260295
30
1.1631430026892443e-14
11
2179.447158437291
21
133.86023997196395
31
1.1631430026892443e-14
 62
256
 0
LINE
 8
Layer0_S_
10
2179.447158437291
20
133.86023997196395
30
1.1631430026892443e-14
11
2180.107541846699
21
132.48057628675267
31
1.1631430026892443e-14
 62
256
 0
LINE
 8
Layer0_S_
10
2180.107541846699
20
132.48057628675267
30
1.1631430026892443e-14
11
2180.5870606707863
21
131.0281163633611
31
1.1631430026892443e-14
 62
256
 0
LINE
 8
Layer0_S_
10
2180.5870606707863
20
131.0281163633611
30
1.1631430026892443e-14
11
2180.8779241334787
21
129.52645842035844
31
1.1631430026892443e-14
 62
256
 0
LINE
 8
Layer0_S_
10
2180.8779241334787
20
129.52645842035844
30
1.1631430026892443e-14
11
2180.975406555633
21
127.99999999999993
31
1.1631430026892443e-14
 62
256
 0
LINE
 8
Layer0_S_
10
2168.9754065556335
20
0.0
30
1.1631430026892443e-14
11
2170.5417208622744
21
0.10266166351427745
31
1.1631430026892443e-14
 62
256
 0
LINE
 8
Layer0_S_
10
2170.5417208622744
20
0.10266166351427745
30
1.1631430026892443e-14
11
2172.0812350968636
21
0.40889008453118103
31
1.1631430026892443e-14
 62
256
 0
LINE
 8
Layer0_S_
10
2172.0812350968636
20
0.40889008453118103
30
1.1631430026892443e-14
11
2173.5676077440144
21
0.9134456098645543
31
1.1631430026892443e-14
 62
256
 0
LINE
 8
Layer0_S_
10
2173.5676077440144
20
0.9134456098645543
30
1.1631430026892443e-14
11
2174.975406555633
21
1.6076951545867417
31
1.1631430026892443e-14
 62
256
 0
LINE
 8
Layer0_S_
10
2174.975406555633
20
1.6076951545867417
30
1.1631430026892443e-14
11
2176.2805437037377
21
2.4797599165051807
31
1.1631430026892443e-14
 62
256
 0
LINE
 8
Layer0_S_
10
2176.2805437037377
20
2.4797599165051807
30
1.1631430026892443e-14
11
2177.4606879298717
21
3.514718625761432
31
1.1631430026892443e-14
 62
256
 0
LINE
 8
Layer0_S_
10
2177.4606879298717
20
3.514718625761432
30
1.1631430026892443e-14
11
2178.495646639128
21
4.694862851895357
31
1.1631430026892443e-14
 62
256
 0
LINE
 8
Layer0_S_
10
2178.495646639128
20
4.694862851895357
30
1.1631430026892443e-14
11
2179.3677114010466
21
6.0
31
1.1631430026892443e-14
 62
256
 0
LINE
 8
Layer0_S_
10
2179.3677114010466
20
6.0
30
1.1631430026892443e-14
11
2180.061960945769
21
7.407798811618921
31
1.1631430026892443e-14
 62
256
 0
LINE
 8
Layer0_S_
10
2180.061960945769
20
7.407798811618921
30
1.1631430026892443e-14
11
2180.566516471102
21
8.89417145876975
31
1.1631430026892443e-14
 62
256
 0
LINE
 8
Layer0_S_
10
2180.566516471102
20
8.89417145876975
30
1.1631430026892443e-14
11
2180.872744892119
21
10.433685693359385
31
1.1631430026892443e-14
 62
256
 0
LINE
 8
Layer0_S_
10
2180.872744892119
20
10.433685693359385
30
1.1631430026892443e-14
11
2180.975406555633
21
12.0
31
1.1631430026892443e-14
 62
256
 0
LINE
 8
Layer0_S_
10
2007.9754065556333
20
0.0
30
1.1631430026892443e-14
11
2006.4090922489927
21
0.10266166351427745
31
1.1631430026892443e-14
 62
256
 0
LINE
 8
Layer0_S_
10
2006.4090922489927
20
0.10266166351427745
30
1.1631430026892443e-14
11
2004.8695780144033
21
0.40889008453118103
31
1.1631430026892443e-14
 62
256
 0
LINE
 8
Layer0_S_
10
2004.8695780144033
20
0.40889008453118103
30
1.1631430026892443e-14
11
2003.3832053672522
21
0.9134456098645543
31
1.1631430026892443e-14
 62
256
 0
LINE
 8
Layer0_S_
10
2003.3832053672522
20
0.9134456098645543
30
1.1631430026892443e-14
11
2001.9754065556335
21
1.6076951545867417
31
1.1631430026892443e-14
 62
256
 0
LINE
 8
Layer0_S_
10
2001.9754065556335
20
1.6076951545867417
30
1.1631430026892443e-14
11
2000.6702694075288
21
2.4797599165051807
31
1.1631430026892443e-14
 62
256
 0
LINE
 8
Layer0_S_
10
2000.6702694075288
20
2.4797599165051807
30
1.1631430026892443e-14
11
1999.490125181395
21
3.514718625761432
31
1.1631430026892443e-14
 62
256
 0
LINE
 8
Layer0_S_
10
1999.490125181395
20
3.514718625761432
30
1.1631430026892443e-14
11
1998.4551664721384
21
4.694862851895357
31
1.1631430026892443e-14
 62
256
 0
LINE
 8
Layer0_S_
10
1998.4551664721384
20
4.694862851895357
30
1.1631430026892443e-14
11
1997.5831017102203
21
6.0
31
1.1631430026892443e-14
 62
256
 0
LINE
 8
Layer0_S_
10
1997.5831017102203
20
6.0
30
1.1631430026892443e-14
11
1996.8888521654978
21
7.407798811618921
31
1.1631430026892443e-14
 62
256
 0
LINE
 8
Layer0_S_
10
1996.8888521654978
20
7.407798811618921
30
1.1631430026892443e-14
11
1996.3842966401644
21
8.89417145876975
31
1.1631430026892443e-14
 62
256
 0
LINE
 8
Layer0_S_
10
1996.3842966401644
20
8.89417145876975
30
1.1631430026892443e-14
11
1996.0780682191478
21
10.433685693359385
31
1.1631430026892443e-14
 62
256
 0
LINE
 8
Layer0_S_
10
1996.0780682191478
20
10.433685693359385
30
1.1631430026892443e-14
11
1995.9754065556335
21
12.0
31
1.1631430026892443e-14
 62
256
 0
LINE
 8
Layer0_S_
10
2129.9217064594345
20
121.99999999999991
30
5.9914970617966474e-15
11
2156.9754065556335
21
121.99999999999991
31
1.1631430026892443e-14
 62
256
 0
LINE
 8
Layer0_S_
10
2123.921706459435
20
115.99999999999993
30
1.1631430026892443e-14
11
2123.921706459435
21
105.0000000000001
31
1.1631430026892443e-14
 62
256
 0
LINE
 8
Layer0_S_
10
2129.9217064594345
20
99.0000000000001
30
1.1631430026892443e-14
11
2156.9754065556335
21
99.00000000000014
31
5.9914970617966474e-15
 62
256
 0
LINE
 8
Layer0_S_
10
2162.9754065556335
20
105.00000000000014
30
3.515640967008528e-16
11
2162.9754065556335
21
115.99999999999993
31
1.1631430026892443e-14
 62
256
 0
LINE
 8
Layer0_S_
10
2123.921706459435
20
115.99999999999993
30
1.1631430026892443e-14
11
2123.973037291192
21
116.78315715332023
31
1.1423356660999055e-14
 62
256
 0
LINE
 8
Layer0_S_
10
2123.973037291192
20
116.78315715332023
30
1.1423356660999055e-14
11
2124.1261515017
21
117.55291427061503
31
1.1218843488084936e-14
 62
256
 0
LINE
 8
Layer0_S_
10
2124.1261515017
20
117.55291427061503
30
1.1218843488084936e-14
11
2124.3784292643672
21
118.29610059419046
31
1.1021389785240413e-14
 62
256
 0
LINE
 8
Layer0_S_
10
2124.3784292643672
20
118.29610059419046
30
1.1021389785240413e-14
11
2124.725554036728
21
118.99999999999991
31
1.0834374040065664e-14
 62
256
 0
LINE
 8
Layer0_S_
10
2124.725554036728
20
118.99999999999991
30
1.0834374040065664e-14
11
2125.161586417687
21
119.65256857405225
31
1.0660996143811192e-14
 62
256
 0
LINE
 8
Layer0_S_
10
2125.161586417687
20
119.65256857405225
30
1.0660996143811192e-14
11
2125.6790657723154
21
120.24264068711922
31
1.0504222640351343e-14
 62
256
 0
LINE
 8
Layer0_S_
10
2125.6790657723154
20
120.24264068711922
30
1.0504222640351343e-14
11
2126.2691378853824
21
120.76012004174733
31
1.036673596779614e-14
 62
256
 0
LINE
 8
Layer0_S_
10
2126.2691378853824
20
120.76012004174733
30
1.036673596779614e-14
11
2126.9217064594345
21
121.19615242270655
31
1.0250888561231513e-14
 62
256
 0
LINE
 8
Layer0_S_
10
2126.9217064594345
20
121.19615242270655
30
1.0250888561231513e-14
11
2127.625605865244
21
121.54327719506765
31
1.015866260190275e-14
 62
256
 0
LINE
 8
Layer0_S_
10
2127.625605865244
20
121.54327719506765
30
1.015866260190275e-14
11
2128.3687921888195
21
121.79555495773434
31
1.0091636101543834e-14
 62
256
 0
LINE
 8
Layer0_S_
10
2128.3687921888195
20
121.79555495773434
30
1.0091636101543834e-14
11
2129.1385493061143
21
121.94866916824279
31
1.005095590215916e-14
 62
256
 0
LINE
 8
Layer0_S_
10
2129.1385493061143
20
121.94866916824279
30
1.005095590215916e-14
11
2129.9217064594345
21
121.99999999999991
31
5.9914970617966474e-15
 62
256
 0
LINE
 8
Layer0_S_
10
2123.921706459435
20
105.0000000000001
30
1.1631430026892443e-14
11
2123.973037291192
21
104.21684284667978
31
1.1835678065659814e-14
 62
256
 0
LINE
 8
Layer0_S_
10
2123.973037291192
20
104.21684284667978
30
1.1835678065659814e-14
11
2124.1261515017
21
103.44708572938497
31
1.2036431363855621e-14
 62
256
 0
LINE
 8
Layer0_S_
10
2124.1261515017
20
103.44708572938497
30
1.2036431363855621e-14
11
2124.3784292643672
21
102.70389940580957
31
1.2230254976888403e-14
 62
256
 0
LINE
 8
Layer0_S_
10
2124.3784292643672
20
102.70389940580957
30
1.2230254976888403e-14
11
2124.725554036728
21
102.0000000000001
31
1.2413832529001113e-14
 62
256
 0
LINE
 8
Layer0_S_
10
2124.725554036728
20
102.0000000000001
30
1.2413832529001113e-14
11
2125.161586417687
21
101.34743142594778
31
1.2584022957379787e-14
 62
256
 0
LINE
 8
Layer0_S_
10
2125.161586417687
20
101.34743142594778
30
1.2584022957379787e-14
11
2125.6790657723154
21
100.75735931288082
31
1.273791425660917e-14
 62
256
 0
LINE
 8
Layer0_S_
10
2125.6790657723154
20
100.75735931288082
30
1.273791425660917e-14
11
2126.2691378853824
21
100.2398799582527
31
1.2872873303892708e-14
 62
256
 0
LINE
 8
Layer0_S_
10
2126.2691378853824
20
100.2398799582527
30
1.2872873303892708e-14
11
2126.9217064594345
21
99.80384757729348
31
1.2986590912513674e-14
 62
256
 0
LINE
 8
Layer0_S_
10
2126.9217064594345
20
99.80384757729348
30
1.2986590912513674e-14
11
2127.625605865244
21
99.45672280493238
31
1.307712134266008e-14
 62
256
 0
LINE
 8
Layer0_S_
10
2127.625605865244
20
99.45672280493238
30
1.307712134266008e-14
11
2128.3687921888195
21
99.20444504226569
31
1.3142915593572344e-14
 62
256
 0
LINE
 8
Layer0_S_
10
2128.3687921888195
20
99.20444504226569
30
1.3142915593572344e-14
11
2129.1385493061143
21
99.05133083175724
31
1.3182847907375749e-14
 62
256
 0
LINE
 8
Layer0_S_
10
2129.1385493061143
20
99.05133083175724
30
1.3182847907375749e-14
11
2129.9217064594345
21
99.0000000000001
31
1.1631430026892443e-14
 62
256
 0
LINE
 8
Layer0_S_
10
2162.9754065556335
20
105.00000000000014
30
3.515640967008528e-16
11
2162.9240757238763
21
104.21684284667984
31
7.853524677933489e-16
 62
256
 0
LINE
 8
Layer0_S_
10
2162.9240757238763
20
104.21684284667984
30
7.853524677933489e-16
11
2162.7709615133676
21
103.44708572938501
31
1.211718599587593e-15
 62
256
 0
LINE
 8
Layer0_S_
10
2162.7709615133676
20
103.44708572938501
30
1.211718599587593e-15
11
2162.5186837507013
21
102.70389940580961
31
1.6233672493575662e-15
 62
256
 0
LINE
 8
Layer0_S_
10
2162.5186837507013
20
102.70389940580961
30
1.6233672493575662e-15
11
2162.17155897834
21
102.00000000000016
31
2.01325499457513e-15
 62
256
 0
LINE
 8
Layer0_S_
10
2162.17155897834
20
102.00000000000016
30
2.01325499457513e-15
11
2161.7355265973806
21
101.34743142594782
31
2.3747107478223106e-15
 62
256
 0
LINE
 8
Layer0_S_
10
2161.7355265973806
20
101.34743142594782
30
2.3747107478223106e-15
11
2161.2180472427526
21
100.75735931288087
31
2.701549900946581e-15
 62
256
 0
LINE
 8
Layer0_S_
10
2161.2180472427526
20
100.75735931288087
30
2.701549900946581e-15
11
2160.6279751296856
21
100.23987995825274
31
2.9881801454210505e-15
 62
256
 0
LINE
 8
Layer0_S_
10
2160.6279751296856
20
100.23987995825274
30
2.9881801454210505e-15
11
2159.9754065556335
21
99.80384757729352
31
3.2296971582938474e-15
 62
256
 0
LINE
 8
Layer0_S_
10
2159.9754065556335
20
99.80384757729352
30
3.2296971582938474e-15
11
2159.2715071498237
21
99.45672280493243
31
3.4219685165135465e-15
 62
256
 0
LINE
 8
Layer0_S_
10
2159.2715071498237
20
99.45672280493243
30
3.4219685165135465e-15
11
2158.5283208262485
21
99.20444504226573
31
3.561704403833323e-15
 62
256
 0
LINE
 8
Layer0_S_
10
2158.5283208262485
20
99.20444504226573
30
3.561704403833323e-15
11
2157.7585637089537
21
99.05133083175728
31
3.6465139004790234e-15
 62
256
 0
LINE
 8
Layer0_S_
10
2157.7585637089537
20
99.05133083175728
30
3.6465139004790234e-15
11
2156.9754065556335
21
99.00000000000014
31
5.9914970617966474e-15
 62
256
 0
LINE
 8
Layer0_S_
10
2156.9754065556335
20
121.99999999999991
30
1.1631430026892443e-14
11
2157.7585637089537
21
121.94866916824276
31
1.1631430026892443e-14
 62
256
 0
LINE
 8
Layer0_S_
10
2157.7585637089537
20
121.94866916824276
30
1.1631430026892443e-14
11
2158.5283208262485
21
121.79555495773431
31
1.1631430026892443e-14
 62
256
 0
LINE
 8
Layer0_S_
10
2158.5283208262485
20
121.79555495773431
30
1.1631430026892443e-14
11
2159.2715071498237
21
121.54327719506765
31
1.1631430026892443e-14
 62
256
 0
LINE
 8
Layer0_S_
10
2159.2715071498237
20
121.54327719506765
30
1.1631430026892443e-14
11
2159.9754065556335
21
121.19615242270655
31
1.1631430026892443e-14
 62
256
 0
LINE
 8
Layer0_S_
10
2159.9754065556335
20
121.19615242270655
30
1.1631430026892443e-14
11
2160.6279751296856
21
120.76012004174733
31
1.1631430026892443e-14
 62
256
 0
LINE
 8
Layer0_S_
10
2160.6279751296856
20
120.76012004174733
30
1.1631430026892443e-14
11
2161.2180472427526
21
120.24264068711919
31
1.1631430026892443e-14
 62
256
 0
LINE
 8
Layer0_S_
10
2161.2180472427526
20
120.24264068711919
30
1.1631430026892443e-14
11
2161.7355265973806
21
119.65256857405222
31
1.1631430026892443e-14
 62
256
 0
LINE
 8
Layer0_S_
10
2161.7355265973806
20
119.65256857405222
30
1.1631430026892443e-14
11
2162.17155897834
21
118.99999999999991
31
1.1631430026892443e-14
 62
256
 0
LINE
 8
Layer0_S_
10
2162.17155897834
20
118.99999999999991
30
1.1631430026892443e-14
11
2162.5186837507013
21
118.29610059419046
31
1.1631430026892443e-14
 62
256
 0
LINE
 8
Layer0_S_
10
2162.5186837507013
20
118.29610059419046
30
1.1631430026892443e-14
11
2162.7709615133676
21
117.55291427061503
31
1.1631430026892443e-14
 62
256
 0
LINE
 8
Layer0_S_
10
2162.7709615133676
20
117.55291427061503
30
1.1631430026892443e-14
11
2162.9240757238763
21
116.78315715332023
31
1.1631430026892443e-14
 62
256
 0
LINE
 8
Layer0_S_
10
2162.9240757238763
20
116.78315715332023
30
1.1631430026892443e-14
11
2162.9754065556335
21
115.99999999999993
31
1.1631430026892443e-14
 62
256
 0
LINE
 8
Layer0_S_
10
2111.9754065556335
20
24.0
30
1.1631430026892443e-14
11
2111.9754065556335
21
83.0
31
1.7271362991988236e-14
 62
256
 0
LINE
 8
Layer0_S_
10
2117.9754065556335
20
18.0
30
1.1631430026892443e-14
11
2156.9754065556335
21
18.0
31
1.1631430026892443e-14
 62
256
 0
LINE
 8
Layer0_S_
10
2162.9754065556335
20
24.0
30
1.1631430026892443e-14
11
2162.9754065556335
21
82.99999999999993
31
3.515640967008528e-16
 62
256
 0
LINE
 8
Layer0_S_
10
2156.9754065556335
20
88.99999999999993
30
3.515640967008528e-16
11
2117.9754065556335
21
89.0
31
1.7271362991988236e-14
 62
256
 0
LINE
 8
Layer0_S_
10
2117.9754065556335
20
18.0
30
1.1631430026892443e-14
11
2117.1922494023133
21
18.051330831757138
31
1.1631430026892443e-14
 62
256
 0
LINE
 8
Layer0_S_
10
2117.1922494023133
20
18.051330831757138
30
1.1631430026892443e-14
11
2116.4224922850185
21
18.20444504226559
31
1.1631430026892443e-14
 62
256
 0
LINE
 8
Layer0_S_
10
2116.4224922850185
20
18.20444504226559
30
1.1631430026892443e-14
11
2115.679305961443
21
18.456722804932284
31
1.1631430026892443e-14
 62
256
 0
LINE
 8
Layer0_S_
10
2115.679305961443
20
18.456722804932284
30
1.1631430026892443e-14
11
2114.9754065556335
21
18.80384757729338
31
1.1631430026892443e-14
 62
256
 0
LINE
 8
Layer0_S_
10
2114.9754065556335
20
18.80384757729338
30
1.1631430026892443e-14
11
2114.322837981581
21
19.239879958252597
31
1.1631430026892443e-14
 62
256
 0
LINE
 8
Layer0_S_
10
2114.322837981581
20
19.239879958252597
30
1.1631430026892443e-14
11
2113.7327658685144
21
19.757359312880716
31
1.1631430026892443e-14
 62
256
 0
LINE
 8
Layer0_S_
10
2113.7327658685144
20
19.757359312880716
30
1.1631430026892443e-14
11
2113.215286513886
21
20.347431425947686
31
1.1631430026892443e-14
 62
256
 0
LINE
 8
Layer0_S_
10
2113.215286513886
20
20.347431425947686
30
1.1631430026892443e-14
11
2112.779254132927
21
21.000000000000007
31
1.1631430026892443e-14
 62
256
 0
LINE
 8
Layer0_S_
10
2112.779254132927
20
21.000000000000007
30
1.1631430026892443e-14
11
2112.432129360566
21
21.703899405809466
31
1.1631430026892443e-14
 62
256
 0
LINE
 8
Layer0_S_
10
2112.432129360566
20
21.703899405809466
30
1.1631430026892443e-14
11
2112.179851597899
21
22.44708572938488
31
1.1631430026892443e-14
 62
256
 0
LINE
 8
Layer0_S_
10
2112.179851597899
20
22.44708572938488
30
1.1631430026892443e-14
11
2112.0267373873908
21
23.216842846679693
31
1.1631430026892443e-14
 62
256
 0
LINE
 8
Layer0_S_
10
2112.0267373873908
20
23.216842846679693
30
1.1631430026892443e-14
11
2111.9754065556335
21
24.0
31
1.1631430026892443e-14
 62
256
 0
LINE
 8
Layer0_S_
10
2162.9754065556335
20
24.0
30
1.1631430026892443e-14
11
2162.9240757238763
21
23.216842846679693
31
1.1631430026892443e-14
 62
256
 0
LINE
 8
Layer0_S_
10
2162.9240757238763
20
23.216842846679693
30
1.1631430026892443e-14
11
2162.7709615133676
21
22.447085729384877
31
1.1631430026892443e-14
 62
256
 0
LINE
 8
Layer0_S_
10
2162.7709615133676
20
22.447085729384877
30
1.1631430026892443e-14
11
2162.5186837507013
21
21.703899405809462
31
1.1631430026892443e-14
 62
256
 0
LINE
 8
Layer0_S_
10
2162.5186837507013
20
21.703899405809462
30
1.1631430026892443e-14
11
2162.17155897834
21
21.000000000000007
31
1.1631430026892443e-14
 62
256
 0
LINE
 8
Layer0_S_
10
2162.17155897834
20
21.000000000000007
30
1.1631430026892443e-14
11
2161.7355265973806
21
20.347431425947672
31
1.1631430026892443e-14
 62
256
 0
LINE
 8
Layer0_S_
10
2161.7355265973806
20
20.347431425947672
30
1.1631430026892443e-14
11
2161.2180472427526
21
19.757359312880716
31
1.1631430026892443e-14
 62
256
 0
LINE
 8
Layer0_S_
10
2161.2180472427526
20
19.757359312880716
30
1.1631430026892443e-14
11
2160.6279751296856
21
19.239879958252597
31
1.1631430026892443e-14
 62
256
 0
LINE
 8
Layer0_S_
10
2160.6279751296856
20
19.239879958252597
30
1.1631430026892443e-14
11
2159.9754065556335
21
18.80384757729338
31
1.1631430026892443e-14
 62
256
 0
LINE
 8
Layer0_S_
10
2159.9754065556335
20
18.80384757729338
30
1.1631430026892443e-14
11
2159.2715071498237
21
18.456722804932284
31
1.1631430026892443e-14
 62
256
 0
LINE
 8
Layer0_S_
10
2159.2715071498237
20
18.456722804932284
30
1.1631430026892443e-14
11
2158.5283208262485
21
18.20444504226559
31
1.1631430026892443e-14
 62
256
 0
LINE
 8
Layer0_S_
10
2158.5283208262485
20
18.20444504226559
30
1.1631430026892443e-14
11
2157.7585637089537
21
18.051330831757138
31
1.1631430026892443e-14
 62
256
 0
LINE
 8
Layer0_S_
10
2157.7585637089537
20
18.051330831757138
30
1.1631430026892443e-14
11
2156.9754065556335
21
18.0
31
1.1631430026892443e-14
 62
256
 0
LINE
 8
Layer0_S_
10
2162.9754065556335
20
82.99999999999993
30
3.515640967008528e-16
11
2162.9240757238763
21
83.78315715332025
31
3.052798053081288e-16
 62
256
 0
LINE
 8
Layer0_S_
10
2162.9240757238763
20
83.78315715332025
30
3.052798053081288e-16
11
2162.7709615133676
21
84.55291427061505
31
2.5978745097356533e-16
 62
256
 0
LINE
 8
Layer0_S_
10
2162.7709615133676
20
84.55291427061505
30
2.5978745097356533e-16
11
2162.5186837507013
21
85.29610059419046
31
2.1586542049268646e-16
 62
256
 0
LINE
 8
Layer0_S_
10
2162.5186837507013
20
85.29610059419046
30
2.1586542049268646e-16
11
2162.17155897834
21
85.99999999999993
31
1.7426523198451264e-16
 62
256
 0
LINE
 8
Layer0_S_
10
2162.17155897834
20
85.99999999999993
30
1.7426523198451264e-16
11
2161.7355265973806
21
86.65256857405225
31
1.356986762081663e-16
 62
256
 0
LINE
 8
Layer0_S_
10
2161.7355265973806
20
86.65256857405225
30
1.356986762081663e-16
11
2161.2180472427526
21
87.2426406871192
31
1.0082563762565168e-16
 62
256
 0
LINE
 8
Layer0_S_
10
2161.2180472427526
20
87.2426406871192
30
1.0082563762565168e-16
11
2160.6279751296856
21
87.76012004174734
31
7.0242803595747e-17
 62
256
 0
LINE
 8
Layer0_S_
10
2160.6279751296856
20
87.76012004174734
30
7.0242803595747e-17
11
2159.9754065556335
21
88.19615242270656
31
4.447345488787097e-17
 62
256
 0
LINE
 8
Layer0_S_
10
2159.9754065556335
20
88.19615242270656
30
4.447345488787097e-17
11
2159.2715071498237
21
88.54327719506765
31
2.3958512203023028e-17
 62
256
 0
LINE
 8
Layer0_S_
10
2159.2715071498237
20
88.54327719506765
30
2.3958512203023028e-17
11
2158.5283208262485
21
88.79555495773434
31
9.048991898361743e-18
 62
256
 0
LINE
 8
Layer0_S_
10
2158.5283208262485
20
88.79555495773434
30
9.048991898361743e-18
11
2157.7585637089533
21
88.94866916824279
31
0.0
 62
256
 0
LINE
 8
Layer0_S_
10
2157.7585637089533
20
88.94866916824279
30
0.0
11
2156.9754065556335
21
88.99999999999993
31
3.515640967008528e-16
 62
256
 0
LINE
 8
Layer0_S_
10
2117.9754065556335
20
89.0
30
1.7271362991988236e-14
11
2117.192249402313
21
88.94866916824286
31
1.7271362991988236e-14
 62
256
 0
LINE
 8
Layer0_S_
10
2117.192249402313
20
88.94866916824286
30
1.7271362991988236e-14
11
2116.4224922850185
21
88.79555495773441
31
1.7271362991988236e-14
 62
256
 0
LINE
 8
Layer0_S_
10
2116.4224922850185
20
88.79555495773441
30
1.7271362991988236e-14
11
2115.679305961443
21
88.54327719506772
31
1.7271362991988236e-14
 62
256
 0
LINE
 8
Layer0_S_
10
2115.679305961443
20
88.54327719506772
30
1.7271362991988236e-14
11
2114.9754065556335
21
88.19615242270663
31
1.7271362991988236e-14
 62
256
 0
LINE
 8
Layer0_S_
10
2114.9754065556335
20
88.19615242270663
30
1.7271362991988236e-14
11
2114.322837981581
21
87.7601200417474
31
1.7271362991988236e-14
 62
256
 0
LINE
 8
Layer0_S_
10
2114.322837981581
20
87.7601200417474
30
1.7271362991988236e-14
11
2113.732765868514
21
87.24264068711928
31
1.7271362991988236e-14
 62
256
 0
LINE
 8
Layer0_S_
10
2113.732765868514
20
87.24264068711928
30
1.7271362991988236e-14
11
2113.215286513886
21
86.65256857405231
31
1.7271362991988236e-14
 62
256
 0
LINE
 8
Layer0_S_
10
2113.215286513886
20
86.65256857405231
30
1.7271362991988236e-14
11
2112.779254132927
21
86.0
31
1.7271362991988236e-14
 62
256
 0
LINE
 8
Layer0_S_
10
2112.779254132927
20
86.0
30
1.7271362991988236e-14
11
2112.432129360566
21
85.29610059419053
31
1.7271362991988236e-14
 62
256
 0
LINE
 8
Layer0_S_
10
2112.432129360566
20
85.29610059419053
30
1.7271362991988236e-14
11
2112.179851597899
21
84.55291427061512
31
1.7271362991988236e-14
 62
256
 0
LINE
 8
Layer0_S_
10
2112.179851597899
20
84.55291427061512
30
1.7271362991988236e-14
11
2112.0267373873908
21
83.7831571533203
31
1.7271362991988236e-14
 62
256
 0
LINE
 8
Layer0_S_
10
2112.0267373873908
20
83.7831571533203
30
1.7271362991988236e-14
11
2111.9754065556335
21
83.0
31
1.7271362991988236e-14
 62
256
 0
LINE
 8
Layer0_S_
10
2095.9754065556335
20
40.50000000000001
30
1.7271362991988236e-14
11
2019.9754065556335
21
40.49999999999999
31
1.7271362991988236e-14
 62
256
 0
LINE
 8
Layer0_S_
10
2013.9754065556333
20
34.5
30
2.2911295957084036e-14
11
2013.9754065556333
21
24.0
31
1.1631430026892443e-14
 62
256
 0
LINE
 8
Layer0_S_
10
2019.9754065556335
20
18.0
30
1.1631430026892443e-14
11
2095.9754065556335
21
18.0
31
2.2911295957084036e-14
 62
256
 0
LINE
 8
Layer0_S_
10
2101.9754065556335
20
34.50000000000001
30
1.7271362991988236e-14
11
2101.9754065556335
21
24.0
31
2.2911295957084036e-14
 62
256
 0
LINE
 8
Layer0_S_
10
2013.9754065556333
20
34.5
30
2.2911295957084036e-14
11
2014.0267373873905
21
35.2831571533203
31
2.2863045548725216e-14
 62
256
 0
LINE
 8
Layer0_S_
10
2014.0267373873905
20
35.2831571533203
30
2.2863045548725216e-14
11
2014.179851597899
21
36.05291427061512
31
2.2719119901513348e-14
 62
256
 0
LINE
 8
Layer0_S_
10
2014.179851597899
20
36.05291427061512
30
2.2719119901513348e-14
11
2014.4321293605656
21
36.796100594190534
31
2.2481981623175934e-14
 62
256
 0
LINE
 8
Layer0_S_
10
2014.4321293605656
20
36.796100594190534
30
2.2481981623175934e-14
11
2014.7792541329268
21
37.49999999999999
31
2.2155688215402484e-14
 62
256
 0
LINE
 8
Layer0_S_
10
2014.7792541329268
20
37.49999999999999
30
2.2155688215402484e-14
11
2015.215286513886
21
38.15256857405232
31
2.1745822648865632e-14
 62
256
 0
LINE
 8
Layer0_S_
10
2015.215286513886
20
38.15256857405232
30
2.1745822648865632e-14
11
2015.7327658685142
21
38.74264068711928
31
2.1259397837045022e-14
 62
256
 0
LINE
 8
Layer0_S_
10
2015.7327658685142
20
38.74264068711928
30
2.1259397837045022e-14
11
2016.322837981581
21
39.260120041747406
31
2.070473664333334e-14
 62
256
 0
LINE
 8
Layer0_S_
10
2016.322837981581
20
39.260120041747406
30
2.070473664333334e-14
11
2016.9754065556333
21
39.696152422706625
31
2.009132947453613e-14
 62
256
 0
LINE
 8
Layer0_S_
10
2016.9754065556333
20
39.696152422706625
30
2.009132947453613e-14
11
2017.6793059614429
21
40.04327719506771
31
1.9429671897380112e-14
 62
256
 0
LINE
 8
Layer0_S_
10
2017.6793059614429
20
40.04327719506771
30
1.9429671897380112e-14
11
2018.4224922850183
21
40.295554957734396
31
1.8731085056456553e-14
 62
256
 0
LINE
 8
Layer0_S_
10
2018.4224922850183
20
40.295554957734396
30
1.8731085056456553e-14
11
2019.1922494023129
21
40.44866916824285
31
1.8007521966298532e-14
 62
256
 0
LINE
 8
Layer0_S_
10
2019.1922494023129
20
40.44866916824285
30
1.8007521966298532e-14
11
2019.9754065556335
21
40.49999999999999
31
1.7271362991988236e-14
 62
256
 0
LINE
 8
Layer0_S_
10
2019.9754065556335
20
18.0
30
1.1631430026892443e-14
11
2019.1922494023129
21
18.051330831757138
31
1.1631430026892443e-14
 62
256
 0
LINE
 8
Layer0_S_
10
2019.1922494023129
20
18.051330831757138
30
1.1631430026892443e-14
11
2018.4224922850183
21
18.20444504226559
31
1.1631430026892443e-14
 62
256
 0
LINE
 8
Layer0_S_
10
2018.4224922850183
20
18.20444504226559
30
1.1631430026892443e-14
11
2017.6793059614429
21
18.456722804932284
31
1.1631430026892443e-14
 62
256
 0
LINE
 8
Layer0_S_
10
2017.6793059614429
20
18.456722804932284
30
1.1631430026892443e-14
11
2016.9754065556333
21
18.80384757729338
31
1.1631430026892443e-14
 62
256
 0
LINE
 8
Layer0_S_
10
2016.9754065556333
20
18.80384757729338
30
1.1631430026892443e-14
11
2016.322837981581
21
19.239879958252597
31
1.1631430026892443e-14
 62
256
 0
LINE
 8
Layer0_S_
10
2016.322837981581
20
19.239879958252597
30
1.1631430026892443e-14
11
2015.7327658685142
21
19.757359312880716
31
1.1631430026892443e-14
 62
256
 0
LINE
 8
Layer0_S_
10
2015.7327658685142
20
19.757359312880716
30
1.1631430026892443e-14
11
2015.215286513886
21
20.347431425947686
31
1.1631430026892443e-14
 62
256
 0
LINE
 8
Layer0_S_
10
2015.215286513886
20
20.347431425947686
30
1.1631430026892443e-14
11
2014.7792541329268
21
21.000000000000007
31
1.1631430026892443e-14
 62
256
 0
LINE
 8
Layer0_S_
10
2014.7792541329268
20
21.000000000000007
30
1.1631430026892443e-14
11
2014.4321293605656
21
21.703899405809462
31
1.1631430026892443e-14
 62
256
 0
LINE
 8
Layer0_S_
10
2014.4321293605656
20
21.703899405809462
30
1.1631430026892443e-14
11
2014.179851597899
21
22.447085729384877
31
1.1631430026892443e-14
 62
256
 0
LINE
 8
Layer0_S_
10
2014.179851597899
20
22.447085729384877
30
1.1631430026892443e-14
11
2014.0267373873905
21
23.216842846679693
31
1.1631430026892443e-14
 62
256
 0
LINE
 8
Layer0_S_
10
2014.0267373873905
20
23.216842846679693
30
1.1631430026892443e-14
11
2013.9754065556333
21
24.0
31
1.1631430026892443e-14
 62
256
 0
LINE
 8
Layer0_S_
10
2101.9754065556335
20
24.0
30
2.2911295957084036e-14
11
2101.9240757238763
21
23.216842846679693
31
2.2911295957084036e-14
 62
256
 0
LINE
 8
Layer0_S_
10
2101.9240757238763
20
23.216842846679693
30
2.2911295957084036e-14
11
2101.770961513368
21
22.447085729384877
31
2.2911295957084036e-14
 62
256
 0
LINE
 8
Layer0_S_
10
2101.770961513368
20
22.447085729384877
30
2.2911295957084036e-14
11
2101.5186837507013
21
21.703899405809462
31
2.2911295957084036e-14
 62
256
 0
LINE
 8
Layer0_S_
10
2101.5186837507013
20
21.703899405809462
30
2.2911295957084036e-14
11
2101.1715589783403
21
21.000000000000007
31
2.2911295957084036e-14
 62
256
 0
LINE
 8
Layer0_S_
10
2101.1715589783403
20
21.000000000000007
30
2.2911295957084036e-14
11
2100.735526597381
21
20.347431425947686
31
2.2911295957084036e-14
 62
256
 0
LINE
 8
Layer0_S_
10
2100.735526597381
20
20.347431425947686
30
2.2911295957084036e-14
11
2100.2180472427526
21
19.757359312880716
31
2.2911295957084036e-14
 62
256
 0
LINE
 8
Layer0_S_
10
2100.2180472427526
20
19.757359312880716
30
2.2911295957084036e-14
11
2099.6279751296856
21
19.239879958252597
31
2.2911295957084036e-14
 62
256
 0
LINE
 8
Layer0_S_
10
2099.6279751296856
20
19.239879958252597
30
2.2911295957084036e-14
11
2098.9754065556335
21
18.80384757729338
31
2.2911295957084036e-14
 62
256
 0
LINE
 8
Layer0_S_
10
2098.9754065556335
20
18.80384757729338
30
2.2911295957084036e-14
11
2098.271507149824
21
18.456722804932284
31
2.2911295957084036e-14
 62
256
 0
LINE
 8
Layer0_S_
10
2098.271507149824
20
18.456722804932284
30
2.2911295957084036e-14
11
2097.5283208262485
21
18.20444504226559
31
2.2911295957084036e-14
 62
256
 0
LINE
 8
Layer0_S_
10
2097.5283208262485
20
18.20444504226559
30
2.2911295957084036e-14
11
2096.7585637089537
21
18.051330831757138
31
2.2911295957084036e-14
 62
256
 0
LINE
 8
Layer0_S_
10
2096.7585637089537
20
18.051330831757138
30
2.2911295957084036e-14
11
2095.9754065556335
21
18.0
31
2.2911295957084036e-14
 62
256
 0
LINE
 8
Layer0_S_
10
2101.9754065556335
20
34.50000000000001
30
1.7271362991988236e-14
11
2101.9240757238763
21
35.28315715332031
31
1.7271362991988236e-14
 62
256
 0
LINE
 8
Layer0_S_
10
2101.9240757238763
20
35.28315715332031
30
1.7271362991988236e-14
11
2101.770961513368
21
36.05291427061513
31
1.7271362991988236e-14
 62
256
 0
LINE
 8
Layer0_S_
10
2101.770961513368
20
36.05291427061513
30
1.7271362991988236e-14
11
2101.518683750701
21
36.79610059419054
31
1.7271362991988236e-14
 62
256
 0
LINE
 8
Layer0_S_
10
2101.518683750701
20
36.79610059419054
30
1.7271362991988236e-14
11
2101.1715589783403
21
37.50000000000001
31
1.7271362991988236e-14
 62
256
 0
LINE
 8
Layer0_S_
10
2101.1715589783403
20
37.50000000000001
30
1.7271362991988236e-14
11
2100.735526597381
21
38.152568574052324
31
1.7271362991988236e-14
 62
256
 0
LINE
 8
Layer0_S_
10
2100.735526597381
20
38.152568574052324
30
1.7271362991988236e-14
11
2100.2180472427526
21
38.74264068711929
31
1.7271362991988236e-14
 62
256
 0
LINE
 8
Layer0_S_
10
2100.2180472427526
20
38.74264068711929
30
1.7271362991988236e-14
11
2099.6279751296856
21
39.260120041747406
31
1.7271362991988236e-14
 62
256
 0
LINE
 8
Layer0_S_
10
2099.6279751296856
20
39.260120041747406
30
1.7271362991988236e-14
11
2098.9754065556335
21
39.69615242270663
31
1.7271362991988236e-14
 62
256
 0
LINE
 8
Layer0_S_
10
2098.9754065556335
20
39.69615242270663
30
1.7271362991988236e-14
11
2098.271507149824
21
40.04327719506772
31
1.7271362991988236e-14
 62
256
 0
LINE
 8
Layer0_S_
10
2098.271507149824
20
40.04327719506772
30
1.7271362991988236e-14
11
2097.5283208262485
21
40.29555495773441
31
1.7271362991988236e-14
 62
256
 0
LINE
 8
Layer0_S_
10
2097.5283208262485
20
40.29555495773441
30
1.7271362991988236e-14
11
2096.7585637089537
21
40.44866916824286
31
1.7271362991988236e-14
 62
256
 0
LINE
 8
Layer0_S_
10
2096.7585637089537
20
40.44866916824286
30
1.7271362991988236e-14
11
2095.9754065556335
21
40.50000000000001
31
1.7271362991988236e-14
 62
256
 0
LINE
 8
Layer0_S_
10
2071.9754065556335
20
50.5
30
5.67508937476588e-14
11
2095.9754065556335
21
50.5
31
1.7271362991988236e-14
 62
256
 0
LINE
 8
Layer0_S_
10
2101.9754065556335
20
82.99999999999993
30
1.7271362991988236e-14
11
2101.9754065556335
21
56.50000000000001
31
1.7271362991988236e-14
 62
256
 0
LINE
 8
Layer0_S_
10
2071.9754065556335
20
88.99999999999994
30
4.5471027817467216e-14
11
2095.9754065556335
21
88.99999999999993
31
1.7271362991988236e-14
 62
256
 0
LINE
 8
Layer0_S_
10
2065.9754065556335
20
82.99999999999993
30
4.5471027817467216e-14
11
2065.9754065556335
21
56.5
31
5.67508937476588e-14
 62
256
 0
LINE
 8
Layer0_S_
10
2095.9754065556335
20
50.5
30
1.7271362991988236e-14
11
2096.7585637089537
21
50.55133083175714
31
1.7271362991988236e-14
 62
256
 0
LINE
 8
Layer0_S_
10
2096.7585637089537
20
50.55133083175714
30
1.7271362991988236e-14
11
2097.5283208262485
21
50.7044450422656
31
1.7271362991988236e-14
 62
256
 0
LINE
 8
Layer0_S_
10
2097.5283208262485
20
50.7044450422656
30
1.7271362991988236e-14
11
2098.271507149824
21
50.956722804932284
31
1.7271362991988236e-14
 62
256
 0
LINE
 8
Layer0_S_
10
2098.271507149824
20
50.956722804932284
30
1.7271362991988236e-14
11
2098.9754065556335
21
51.303847577293375
31
1.7271362991988236e-14
 62
256
 0
LINE
 8
Layer0_S_
10
2098.9754065556335
20
51.303847577293375
30
1.7271362991988236e-14
11
2099.6279751296856
21
51.739879958252594
31
1.7271362991988236e-14
 62
256
 0
LINE
 8
Layer0_S_
10
2099.6279751296856
20
51.739879958252594
30
1.7271362991988236e-14
11
2100.2180472427526
21
52.257359312880716
31
1.7271362991988236e-14
 62
256
 0
LINE
 8
Layer0_S_
10
2100.2180472427526
20
52.257359312880716
30
1.7271362991988236e-14
11
2100.735526597381
21
52.84743142594768
31
1.7271362991988236e-14
 62
256
 0
LINE
 8
Layer0_S_
10
2100.735526597381
20
52.84743142594768
30
1.7271362991988236e-14
11
2101.1715589783403
21
53.5
31
1.7271362991988236e-14
 62
256
 0
LINE
 8
Layer0_S_
10
2101.1715589783403
20
53.5
30
1.7271362991988236e-14
11
2101.5186837507013
21
54.203899405809466
31
1.7271362991988236e-14
 62
256
 0
LINE
 8
Layer0_S_
10
2101.5186837507013
20
54.203899405809466
30
1.7271362991988236e-14
11
2101.770961513368
21
54.94708572938488
31
1.7271362991988236e-14
 62
256
 0
LINE
 8
Layer0_S_
10
2101.770961513368
20
54.94708572938488
30
1.7271362991988236e-14
11
2101.9240757238763
21
55.7168428466797
31
1.7271362991988236e-14
 62
256
 0
LINE
 8
Layer0_S_
10
2101.9240757238763
20
55.7168428466797
30
1.7271362991988236e-14
11
2101.9754065556335
21
56.50000000000001
31
1.7271362991988236e-14
 62
256
 0
LINE
 8
Layer0_S_
10
2095.9754065556335
20
88.99999999999993
30
1.7271362991988236e-14
11
2096.7585637089537
21
88.94866916824279
31
1.7271362991988236e-14
 62
256
 0
LINE
 8
Layer0_S_
10
2096.7585637089537
20
88.94866916824279
30
1.7271362991988236e-14
11
2097.5283208262485
21
88.79555495773434
31
1.7271362991988236e-14
 62
256
 0
LINE
 8
Layer0_S_
10
2097.5283208262485
20
88.79555495773434
30
1.7271362991988236e-14
11
2098.271507149824
21
88.54327719506765
31
1.7271362991988236e-14
 62
256
 0
LINE
 8
Layer0_S_
10
2098.271507149824
20
88.54327719506765
30
1.7271362991988236e-14
11
2098.9754065556335
21
88.19615242270656
31
1.7271362991988236e-14
 62
256
 0
LINE
 8
Layer0_S_
10
2098.9754065556335
20
88.19615242270656
30
1.7271362991988236e-14
11
2099.6279751296856
21
87.76012004174733
31
1.7271362991988236e-14
 62
256
 0
LINE
 8
Layer0_S_
10
2099.6279751296856
20
87.76012004174733
30
1.7271362991988236e-14
11
2100.2180472427526
21
87.2426406871192
31
1.7271362991988236e-14
 62
256
 0
LINE
 8
Layer0_S_
10
2100.2180472427526
20
87.2426406871192
30
1.7271362991988236e-14
11
2100.735526597381
21
86.65256857405224
31
1.7271362991988236e-14
 62
256
 0
LINE
 8
Layer0_S_
10
2100.735526597381
20
86.65256857405224
30
1.7271362991988236e-14
11
2101.1715589783403
21
85.99999999999993
31
1.7271362991988236e-14
 62
256
 0
LINE
 8
Layer0_S_
10
2101.1715589783403
20
85.99999999999993
30
1.7271362991988236e-14
11
2101.518683750701
21
85.29610059419046
31
1.7271362991988236e-14
 62
256
 0
LINE
 8
Layer0_S_
10
2101.518683750701
20
85.29610059419046
30
1.7271362991988236e-14
11
2101.770961513368
21
84.55291427061505
31
1.7271362991988236e-14
 62
256
 0
LINE
 8
Layer0_S_
10
2101.770961513368
20
84.55291427061505
30
1.7271362991988236e-14
11
2101.9240757238763
21
83.78315715332025
31
1.7271362991988236e-14
 62
256
 0
LINE
 8
Layer0_S_
10
2101.9240757238763
20
83.78315715332025
30
1.7271362991988236e-14
11
2101.9754065556335
21
82.99999999999993
31
1.7271362991988236e-14
 62
256
 0
LINE
 8
Layer0_S_
10
2065.9754065556335
20
82.99999999999993
30
4.5471027817467216e-14
11
2066.0267373873908
21
83.78315715332025
31
4.5471027817467216e-14
 62
256
 0
LINE
 8
Layer0_S_
10
2066.0267373873908
20
83.78315715332025
30
4.5471027817467216e-14
11
2066.179851597899
21
84.55291427061505
31
4.5471027817467216e-14
 62
256
 0
LINE
 8
Layer0_S_
10
2066.179851597899
20
84.55291427061505
30
4.5471027817467216e-14
11
2066.432129360566
21
85.29610059419048
31
4.5471027817467216e-14
 62
256
 0
LINE
 8
Layer0_S_
10
2066.432129360566
20
85.29610059419048
30
4.5471027817467216e-14
11
2066.779254132927
21
85.99999999999993
31
4.5471027817467216e-14
 62
256
 0
LINE
 8
Layer0_S_
10
2066.779254132927
20
85.99999999999993
30
4.5471027817467216e-14
11
2067.215286513886
21
86.65256857405225
31
4.5471027817467216e-14
 62
256
 0
LINE
 8
Layer0_S_
10
2067.215286513886
20
86.65256857405225
30
4.5471027817467216e-14
11
2067.7327658685144
21
87.2426406871192
31
4.5471027817467216e-14
 62
256
 0
LINE
 8
Layer0_S_
10
2067.7327658685144
20
87.2426406871192
30
4.5471027817467216e-14
11
2068.322837981581
21
87.76012004174734
31
4.5471027817467216e-14
 62
256
 0
LINE
 8
Layer0_S_
10
2068.322837981581
20
87.76012004174734
30
4.5471027817467216e-14
11
2068.9754065556335
21
88.19615242270656
31
4.5471027817467216e-14
 62
256
 0
LINE
 8
Layer0_S_
10
2068.9754065556335
20
88.19615242270656
30
4.5471027817467216e-14
11
2069.679305961443
21
88.54327719506766
31
4.5471027817467216e-14
 62
256
 0
LINE
 8
Layer0_S_
10
2069.679305961443
20
88.54327719506766
30
4.5471027817467216e-14
11
2070.4224922850185
21
88.79555495773435
31
4.5471027817467216e-14
 62
256
 0
LINE
 8
Layer0_S_
10
2070.4224922850185
20
88.79555495773435
30
4.5471027817467216e-14
11
2071.192249402313
21
88.9486691682428
31
4.5471027817467216e-14
 62
256
 0
LINE
 8
Layer0_S_
10
2071.192249402313
20
88.9486691682428
30
4.5471027817467216e-14
11
2071.9754065556335
21
88.99999999999994
31
4.5471027817467216e-14
 62
256
 0
LINE
 8
Layer0_S_
10
2071.9754065556335
20
50.5
30
5.67508937476588e-14
11
2071.192249402313
21
50.551330831757134
31
5.67508937476588e-14
 62
256
 0
LINE
 8
Layer0_S_
10
2071.192249402313
20
50.551330831757134
30
5.67508937476588e-14
11
2070.4224922850185
21
50.70444504226559
31
5.67508937476588e-14
 62
256
 0
LINE
 8
Layer0_S_
10
2070.4224922850185
20
50.70444504226559
30
5.67508937476588e-14
11
2069.679305961443
21
50.956722804932284
31
5.67508937476588e-14
 62
256
 0
LINE
 8
Layer0_S_
10
2069.679305961443
20
50.956722804932284
30
5.67508937476588e-14
11
2068.9754065556335
21
51.30384757729336
31
5.67508937476588e-14
 62
256
 0
LINE
 8
Layer0_S_
10
2068.9754065556335
20
51.30384757729336
30
5.67508937476588e-14
11
2068.322837981581
21
51.739879958252594
31
5.67508937476588e-14
 62
256
 0
LINE
 8
Layer0_S_
10
2068.322837981581
20
51.739879958252594
30
5.67508937476588e-14
11
2067.732765868514
21
52.257359312880716
31
5.67508937476588e-14
 62
256
 0
LINE
 8
Layer0_S_
10
2067.732765868514
20
52.257359312880716
30
5.67508937476588e-14
11
2067.215286513886
21
52.84743142594768
31
5.67508937476588e-14
 62
256
 0
LINE
 8
Layer0_S_
10
2067.215286513886
20
52.84743142594768
30
5.67508937476588e-14
11
2066.779254132927
21
53.49999999999999
31
5.67508937476588e-14
 62
256
 0
LINE
 8
Layer0_S_
10
2066.779254132927
20
53.49999999999999
30
5.67508937476588e-14
11
2066.432129360566
21
54.203899405809466
31
5.67508937476588e-14
 62
256
 0
LINE
 8
Layer0_S_
10
2066.432129360566
20
54.203899405809466
30
5.67508937476588e-14
11
2066.179851597899
21
54.947085729384874
31
5.67508937476588e-14
 62
256
 0
LINE
 8
Layer0_S_
10
2066.179851597899
20
54.947085729384874
30
5.67508937476588e-14
11
2066.0267373873908
21
55.71684284667968
31
5.67508937476588e-14
 62
256
 0
LINE
 8
Layer0_S_
10
2066.0267373873908
20
55.71684284667968
30
5.67508937476588e-14
11
2065.9754065556335
21
56.5
31
5.67508937476588e-14
 62
256
 0
LINE
 8
Layer0_S_
10
2013.9754065556333
20
56.5
30
1.7271362991988236e-14
11
2013.9754065556333
21
82.99999999999993
31
2.855122892217983e-14
 62
256
 0
LINE
 8
Layer0_S_
10
2049.9754065556335
20
50.5
30
1.7271362991988236e-14
11
2019.9754065556335
21
50.5
31
1.7271362991988236e-14
 62
256
 0
LINE
 8
Layer0_S_
10
2055.9754065556335
20
82.99999999999993
30
4.5471027817467216e-14
11
2055.9754065556335
21
56.50000000000001
31
1.7271362991988236e-14
 62
256
 0
LINE
 8
Layer0_S_
10
2019.9754065556335
20
88.99999999999993
30
2.855122892217983e-14
11
2049.9754065556335
21
88.99999999999993
31
4.5471027817467216e-14
 62
256
 0
LINE
 8
Layer0_S_
10
2019.9754065556335
20
50.5
30
1.7271362991988236e-14
11
2019.1922494023129
21
50.551330831757134
31
1.7271362991988236e-14
 62
256
 0
LINE
 8
Layer0_S_
10
2019.1922494023129
20
50.551330831757134
30
1.7271362991988236e-14
11
2018.4224922850183
21
50.70444504226559
31
1.7271362991988236e-14
 62
256
 0
LINE
 8
Layer0_S_
10
2018.4224922850183
20
50.70444504226559
30
1.7271362991988236e-14
11
2017.6793059614429
21
50.956722804932284
31
1.7271362991988236e-14
 62
256
 0
LINE
 8
Layer0_S_
10
2017.6793059614429
20
50.956722804932284
30
1.7271362991988236e-14
11
2016.9754065556333
21
51.30384757729336
31
1.7271362991988236e-14
 62
256
 0
LINE
 8
Layer0_S_
10
2016.9754065556333
20
51.30384757729336
30
1.7271362991988236e-14
11
2016.322837981581
21
51.739879958252594
31
1.7271362991988236e-14
 62
256
 0
LINE
 8
Layer0_S_
10
2016.322837981581
20
51.739879958252594
30
1.7271362991988236e-14
11
2015.7327658685142
21
52.257359312880716
31
1.7271362991988236e-14
 62
256
 0
LINE
 8
Layer0_S_
10
2015.7327658685142
20
52.257359312880716
30
1.7271362991988236e-14
11
2015.215286513886
21
52.84743142594768
31
1.7271362991988236e-14
 62
256
 0
LINE
 8
Layer0_S_
10
2015.215286513886
20
52.84743142594768
30
1.7271362991988236e-14
11
2014.7792541329268
21
53.49999999999999
31
1.7271362991988236e-14
 62
256
 0
LINE
 8
Layer0_S_
10
2014.7792541329268
20
53.49999999999999
30
1.7271362991988236e-14
11
2014.4321293605656
21
54.203899405809466
31
1.7271362991988236e-14
 62
256
 0
LINE
 8
Layer0_S_
10
2014.4321293605656
20
54.203899405809466
30
1.7271362991988236e-14
11
2014.179851597899
21
54.947085729384874
31
1.7271362991988236e-14
 62
256
 0
LINE
 8
Layer0_S_
10
2014.179851597899
20
54.947085729384874
30
1.7271362991988236e-14
11
2014.0267373873905
21
55.71684284667968
31
1.7271362991988236e-14
 62
256
 0
LINE
 8
Layer0_S_
10
2014.0267373873905
20
55.71684284667968
30
1.7271362991988236e-14
11
2013.9754065556333
21
56.5
31
1.7271362991988236e-14
 62
256
 0
LINE
 8
Layer0_S_
10
2049.9754065556335
20
50.5
30
1.7271362991988236e-14
11
2050.7585637089537
21
50.55133083175714
31
1.7271362991988236e-14
 62
256
 0
LINE
 8
Layer0_S_
10
2050.7585637089537
20
50.55133083175714
30
1.7271362991988236e-14
11
2051.5283208262485
21
50.7044450422656
31
1.7271362991988236e-14
 62
256
 0
LINE
 8
Layer0_S_
10
2051.5283208262485
20
50.7044450422656
30
1.7271362991988236e-14
11
2052.271507149824
21
50.956722804932284
31
1.7271362991988236e-14
 62
256
 0
LINE
 8
Layer0_S_
10
2052.271507149824
20
50.956722804932284
30
1.7271362991988236e-14
11
2052.9754065556335
21
51.303847577293375
31
1.7271362991988236e-14
 62
256
 0
LINE
 8
Layer0_S_
10
2052.9754065556335
20
51.303847577293375
30
1.7271362991988236e-14
11
2053.6279751296856
21
51.739879958252594
31
1.7271362991988236e-14
 62
256
 0
LINE
 8
Layer0_S_
10
2053.6279751296856
20
51.739879958252594
30
1.7271362991988236e-14
11
2054.2180472427526
21
52.257359312880716
31
1.7271362991988236e-14
 62
256
 0
LINE
 8
Layer0_S_
10
2054.2180472427526
20
52.257359312880716
30
1.7271362991988236e-14
11
2054.735526597381
21
52.84743142594768
31
1.7271362991988236e-14
 62
256
 0
LINE
 8
Layer0_S_
10
2054.735526597381
20
52.84743142594768
30
1.7271362991988236e-14
11
2055.1715589783403
21
53.5
31
1.7271362991988236e-14
 62
256
 0
LINE
 8
Layer0_S_
10
2055.1715589783403
20
53.5
30
1.7271362991988236e-14
11
2055.518683750701
21
54.203899405809466
31
1.7271362991988236e-14
 62
256
 0
LINE
 8
Layer0_S_
10
2055.518683750701
20
54.203899405809466
30
1.7271362991988236e-14
11
2055.770961513368
21
54.94708572938488
31
1.7271362991988236e-14
 62
256
 0
LINE
 8
Layer0_S_
10
2055.770961513368
20
54.94708572938488
30
1.7271362991988236e-14
11
2055.9240757238763
21
55.7168428466797
31
1.7271362991988236e-14
 62
256
 0
LINE
 8
Layer0_S_
10
2055.9240757238763
20
55.7168428466797
30
1.7271362991988236e-14
11
2055.9754065556335
21
56.50000000000001
31
1.7271362991988236e-14
 62
256
 0
LINE
 8
Layer0_S_
10
2049.9754065556335
20
88.99999999999993
30
4.5471027817467216e-14
11
2050.7585637089537
21
88.94866916824279
31
4.5471027817467216e-14
 62
256
 0
LINE
 8
Layer0_S_
10
2050.7585637089537
20
88.94866916824279
30
4.5471027817467216e-14
11
2051.5283208262485
21
88.79555495773434
31
4.5471027817467216e-14
 62
256
 0
LINE
 8
Layer0_S_
10
2051.5283208262485
20
88.79555495773434
30
4.5471027817467216e-14
11
2052.271507149824
21
88.54327719506765
31
4.5471027817467216e-14
 62
256
 0
LINE
 8
Layer0_S_
10
2052.271507149824
20
88.54327719506765
30
4.5471027817467216e-14
11
2052.9754065556335
21
88.19615242270656
31
4.5471027817467216e-14
 62
256
 0
LINE
 8
Layer0_S_
10
2052.9754065556335
20
88.19615242270656
30
4.5471027817467216e-14
11
2053.6279751296856
21
87.76012004174733
31
4.5471027817467216e-14
 62
256
 0
LINE
 8
Layer0_S_
10
2053.6279751296856
20
87.76012004174733
30
4.5471027817467216e-14
11
2054.2180472427526
21
87.2426406871192
31
4.5471027817467216e-14
 62
256
 0
LINE
 8
Layer0_S_
10
2054.2180472427526
20
87.2426406871192
30
4.5471027817467216e-14
11
2054.735526597381
21
86.65256857405224
31
4.5471027817467216e-14
 62
256
 0
LINE
 8
Layer0_S_
10
2054.735526597381
20
86.65256857405224
30
4.5471027817467216e-14
11
2055.1715589783403
21
85.99999999999993
31
4.5471027817467216e-14
 62
256
 0
LINE
 8
Layer0_S_
10
2055.1715589783403
20
85.99999999999993
30
4.5471027817467216e-14
11
2055.518683750701
21
85.29610059419046
31
4.5471027817467216e-14
 62
256
 0
LINE
 8
Layer0_S_
10
2055.518683750701
20
85.29610059419046
30
4.5471027817467216e-14
11
2055.770961513368
21
84.55291427061505
31
4.5471027817467216e-14
 62
256
 0
LINE
 8
Layer0_S_
10
2055.770961513368
20
84.55291427061505
30
4.5471027817467216e-14
11
2055.9240757238763
21
83.78315715332025
31
4.5471027817467216e-14
 62
256
 0
LINE
 8
Layer0_S_
10
2055.9240757238763
20
83.78315715332025
30
4.5471027817467216e-14
11
2055.9754065556335
21
82.99999999999993
31
4.5471027817467216e-14
 62
256
 0
LINE
 8
Layer0_S_
10
2019.9754065556335
20
88.99999999999993
30
2.855122892217983e-14
11
2019.1922494023129
21
88.94866916824279
31
2.855122892217983e-14
 62
256
 0
LINE
 8
Layer0_S_
10
2019.1922494023129
20
88.94866916824279
30
2.855122892217983e-14
11
2018.4224922850183
21
88.79555495773434
31
2.855122892217983e-14
 62
256
 0
LINE
 8
Layer0_S_
10
2018.4224922850183
20
88.79555495773434
30
2.855122892217983e-14
11
2017.6793059614429
21
88.54327719506765
31
2.855122892217983e-14
 62
256
 0
LINE
 8
Layer0_S_
10
2017.6793059614429
20
88.54327719506765
30
2.855122892217983e-14
11
2016.9754065556333
21
88.19615242270656
31
2.855122892217983e-14
 62
256
 0
LINE
 8
Layer0_S_
10
2016.9754065556333
20
88.19615242270656
30
2.855122892217983e-14
11
2016.322837981581
21
87.76012004174733
31
2.855122892217983e-14
 62
256
 0
LINE
 8
Layer0_S_
10
2016.322837981581
20
87.76012004174733
30
2.855122892217983e-14
11
2015.7327658685142
21
87.2426406871192
31
2.855122892217983e-14
 62
256
 0
LINE
 8
Layer0_S_
10
2015.7327658685142
20
87.2426406871192
30
2.855122892217983e-14
11
2015.215286513886
21
86.65256857405224
31
2.855122892217983e-14
 62
256
 0
LINE
 8
Layer0_S_
10
2015.215286513886
20
86.65256857405224
30
2.855122892217983e-14
11
2014.7792541329268
21
85.99999999999993
31
2.855122892217983e-14
 62
256
 0
LINE
 8
Layer0_S_
10
2014.7792541329268
20
85.99999999999993
30
2.855122892217983e-14
11
2014.4321293605656
21
85.29610059419046
31
2.855122892217983e-14
 62
256
 0
LINE
 8
Layer0_S_
10
2014.4321293605656
20
85.29610059419046
30
2.855122892217983e-14
11
2014.179851597899
21
84.55291427061505
31
2.855122892217983e-14
 62
256
 0
LINE
 8
Layer0_S_
10
2014.179851597899
20
84.55291427061505
30
2.855122892217983e-14
11
2014.0267373873905
21
83.78315715332025
31
2.855122892217983e-14
 62
256
 0
LINE
 8
Layer0_S_
10
2014.0267373873905
20
83.78315715332025
30
2.855122892217983e-14
11
2013.9754065556333
21
82.99999999999993
31
2.855122892217983e-14
 62
256
 0
LINE
 8
Layer0_S_
10
2019.9754065556335
20
98.99999999999993
30
2.855122892217983e-14
11
2107.921706459435
21
99.00000000000007
31
1.1631430026892443e-14
 62
256
 0
LINE
 8
Layer0_S_
10
2113.9217064594345
20
115.99999999999993
30
1.1631430026892443e-14
11
2113.9217064594345
21
105.00000000000009
31
1.1631430026892443e-14
 62
256
 0
LINE
 8
Layer0_S_
10
2019.9754065556335
20
121.99999999999991
30
1.1631430026892443e-14
11
2107.921706459435
21
121.99999999999991
31
5.9914970617966474e-15
 62
256
 0
LINE
 8
Layer0_S_
10
2013.9754065556333
20
115.99999999999993
30
1.1631430026892443e-14
11
2013.9754065556333
21
104.99999999999994
31
2.855122892217983e-14
 62
256
 0
LINE
 8
Layer0_S_
10
2113.9217064594345
20
105.00000000000009
30
1.1631430026892443e-14
11
2113.8703756276773
21
104.21684284667977
31
1.1837597160768048e-14
 62
256
 0
LINE
 8
Layer0_S_
10
2113.8703756276773
20
104.21684284667977
30
1.1837597160768048e-14
11
2113.717261417169
21
103.44708572938497
31
1.2040236717822712e-14
 62
256
 0
LINE
 8
Layer0_S_
10
2113.717261417169
20
103.44708572938497
30
1.2040236717822712e-14
11
2113.4649836545022
21
102.70389940580955
31
1.223588147905293e-14
 62
256
 0
LINE
 8
Layer0_S_
10
2113.4649836545022
20
102.70389940580955
30
1.223588147905293e-14
11
2113.1178588821413
21
102.00000000000009
31
1.2421183908351078e-14
 62
256
 0
LINE
 8
Layer0_S_
10
2113.1178588821413
20
102.00000000000009
30
1.2421183908351078e-14
11
2112.681826501182
21
101.34743142594775
31
1.2592973429776329e-14
 62
256
 0
LINE
 8
Layer0_S_
10
2112.681826501182
20
101.34743142594775
30
1.2592973429776329e-14
11
2112.164347146554
21
100.7573593128808
31
1.2748310676988041e-14
 62
256
 0
LINE
 8
Layer0_S_
10
2112.164347146554
20
100.7573593128808
30
1.2748310676988041e-14
11
2111.574275033487
21
100.23987995825267
31
1.2884537786618798e-14
 62
256
 0
LINE
 8
Layer0_S_
10
2111.574275033487
20
100.23987995825267
30
1.2884537786618798e-14
11
2110.9217064594345
21
99.80384757729345
31
1.299932387505353e-14
 62
256
 0
LINE
 8
Layer0_S_
10
2110.9217064594345
20
99.80384757729345
30
1.299932387505353e-14
11
2110.2178070536256
21
99.45672280493235
31
1.30907049204944e-14
 62
256
 0
LINE
 8
Layer0_S_
10
2110.2178070536256
20
99.45672280493235
30
1.30907049204944e-14
11
2109.4746207300495
21
99.20444504226568
31
1.3157117367918307e-14
 62
256
 0
LINE
 8
Layer0_S_
10
2109.4746207300495
20
99.20444504226568
30
1.3157117367918307e-14
11
2108.704863612755
21
99.05133083175721
31
1.3197424881936816e-14
 62
256
 0
LINE
 8
Layer0_S_
10
2108.704863612755
20
99.05133083175721
30
1.3197424881936816e-14
11
2107.921706459435
21
99.00000000000007
31
1.1631430026892443e-14
 62
256
 0
LINE
 8
Layer0_S_
10
2113.9217064594345
20
115.99999999999993
30
1.1631430026892443e-14
11
2113.8703756276773
21
116.78315715332023
31
1.1424659863836004e-14
 62
256
 0
LINE
 8
Layer0_S_
10
2113.8703756276773
20
116.78315715332023
30
1.1424659863836004e-14
11
2113.717261417169
21
117.55291427061503
31
1.1221427595596978e-14
 62
256
 0
LINE
 8
Layer0_S_
10
2113.717261417169
20
117.55291427061503
30
1.1221427595596978e-14
11
2113.4649836545022
21
118.29610059419046
31
1.1025210582631568e-14
 62
256
 0
LINE
 8
Layer0_S_
10
2113.4649836545022
20
118.29610059419046
30
1.1025210582631568e-14
11
2113.1178588821413
21
118.99999999999991
31
1.0839366152433245e-14
 62
256
 0
LINE
 8
Layer0_S_
10
2113.1178588821413
20
118.99999999999991
30
1.0839366152433245e-14
11
2112.681826501182
21
119.65256857405225
31
1.0667074154728513e-14
 62
256
 0
LINE
 8
Layer0_S_
10
2112.681826501182
20
119.65256857405225
30
1.0667074154728513e-14
11
2112.164347146554
21
120.24264068711922
31
1.0511282553366466e-14
 62
256
 0
LINE
 8
Layer0_S_
10
2112.164347146554
20
120.24264068711922
30
1.0511282553366466e-14
11
2111.574275033487
21
120.76012004174733
31
1.0374656985839999e-14
 62
256
 0
LINE
 8
Layer0_S_
10
2111.574275033487
20
120.76012004174733
30
1.0374656985839999e-14
11
2110.9217064594345
21
121.19615242270655
31
1.0259535153489255e-14
 62
256
 0
LINE
 8
Layer0_S_
10
2110.9217064594345
20
121.19615242270655
30
1.0259535153489255e-14
11
2110.2178070536256
21
121.54327719506765
31
1.0167886822783558e-14
 62
256
 0
LINE
 8
Layer0_S_
10
2110.2178070536256
20
121.54327719506765
30
1.0167886822783558e-14
11
2109.4746207300495
21
121.79555495773434
31
1.0101280122070999e-14
 62
256
 0
LINE
 8
Layer0_S_
10
2109.4746207300495
20
121.79555495773434
30
1.0101280122070999e-14
11
2108.704863612755
21
121.94866916824279
31
1.0060854710467638e-14
 62
256
 0
LINE
 8
Layer0_S_
10
2108.704863612755
20
121.94866916824279
30
1.0060854710467638e-14
11
2107.921706459435
21
121.99999999999991
31
5.9914970617966474e-15
 62
256
 0
LINE
 8
Layer0_S_
10
2013.9754065556333
20
115.99999999999993
30
1.1631430026892443e-14
11
2014.0267373873905
21
116.78315715332023
31
1.1631430026892443e-14
 62
256
 0
LINE
 8
Layer0_S_
10
2014.0267373873905
20
116.78315715332023
30
1.1631430026892443e-14
11
2014.179851597899
21
117.55291427061503
31
1.1631430026892443e-14
 62
256
 0
LINE
 8
Layer0_S_
10
2014.179851597899
20
117.55291427061503
30
1.1631430026892443e-14
11
2014.4321293605656
21
118.29610059419046
31
1.1631430026892443e-14
 62
256
 0
LINE
 8
Layer0_S_
10
2014.4321293605656
20
118.29610059419046
30
1.1631430026892443e-14
11
2014.7792541329268
21
118.99999999999991
31
1.1631430026892443e-14
 62
256
 0
LINE
 8
Layer0_S_
10
2014.7792541329268
20
118.99999999999991
30
1.1631430026892443e-14
11
2015.215286513886
21
119.65256857405222
31
1.1631430026892443e-14
 62
256
 0
LINE
 8
Layer0_S_
10
2015.215286513886
20
119.65256857405222
30
1.1631430026892443e-14
11
2015.7327658685142
21
120.24264068711919
31
1.1631430026892443e-14
 62
256
 0
LINE
 8
Layer0_S_
10
2015.7327658685142
20
120.24264068711919
30
1.1631430026892443e-14
11
2016.322837981581
21
120.76012004174733
31
1.1631430026892443e-14
 62
256
 0
LINE
 8
Layer0_S_
10
2016.322837981581
20
120.76012004174733
30
1.1631430026892443e-14
11
2016.9754065556333
21
121.19615242270655
31
1.1631430026892443e-14
 62
256
 0
LINE
 8
Layer0_S_
10
2016.9754065556333
20
121.19615242270655
30
1.1631430026892443e-14
11
2017.6793059614429
21
121.54327719506765
31
1.1631430026892443e-14
 62
256
 0
LINE
 8
Layer0_S_
10
2017.6793059614429
20
121.54327719506765
30
1.1631430026892443e-14
11
2018.4224922850183
21
121.79555495773431
31
1.1631430026892443e-14
 62
256
 0
LINE
 8
Layer0_S_
10
2018.4224922850183
20
121.79555495773431
30
1.1631430026892443e-14
11
2019.1922494023129
21
121.94866916824276
31
1.1631430026892443e-14
 62
256
 0
LINE
 8
Layer0_S_
10
2019.1922494023129
20
121.94866916824276
30
1.1631430026892443e-14
11
2019.9754065556335
21
121.99999999999991
31
1.1631430026892443e-14
 62
256
 0
LINE
 8
Layer0_S_
10
2019.9754065556335
20
98.99999999999993
30
2.855122892217983e-14
11
2019.1922494023129
21
99.05133083175708
31
2.855801880365815e-14
 62
256
 0
LINE
 8
Layer0_S_
10
2019.1922494023129
20
99.05133083175708
30
2.855801880365815e-14
11
2018.4224922850183
21
99.20444504226553
31
2.856469250838187e-14
 62
256
 0
LINE
 8
Layer0_S_
10
2018.4224922850183
20
99.20444504226553
30
2.856469250838187e-14
11
2017.6793059614429
21
99.45672280493221
31
2.857113584741286e-14
 62
256
 0
LINE
 8
Layer0_S_
10
2017.6793059614429
20
99.45672280493221
30
2.857113584741286e-14
11
2016.9754065556333
21
99.8038475772933
31
2.857723857343387e-14
 62
256
 0
LINE
 8
Layer0_S_
10
2016.9754065556333
20
99.8038475772933
30
2.857723857343387e-14
11
2016.322837981581
21
100.23987995825253
31
2.858289626711068e-14
 62
256
 0
LINE
 8
Layer0_S_
10
2016.322837981581
20
100.23987995825253
30
2.858289626711068e-14
11
2015.7327658685142
21
100.75735931288065
31
2.858801212373588e-14
 62
256
 0
LINE
 8
Layer0_S_
10
2015.7327658685142
20
100.75735931288065
30
2.858801212373588e-14
11
2015.215286513886
21
101.34743142594762
31
2.859249860958423e-14
 62
256
 0
LINE
 8
Layer0_S_
10
2015.215286513886
20
101.34743142594762
30
2.859249860958423e-14
11
2014.7792541329268
21
101.99999999999994
31
2.8596278959638973e-14
 62
256
 0
LINE
 8
Layer0_S_
10
2014.7792541329268
20
101.99999999999994
30
2.8596278959638973e-14
11
2014.4321293605656
21
102.70389940580941
31
2.859928849106256e-14
 62
256
 0
LINE
 8
Layer0_S_
10
2014.4321293605656
20
102.70389940580941
30
2.859928849106256e-14
11
2014.179851597899
21
103.44708572938482
31
2.860147570993792e-14
 62
256
 0
LINE
 8
Layer0_S_
10
2014.179851597899
20
103.44708572938482
30
2.860147570993792e-14
11
2014.0267373873905
21
104.21684284667963
31
2.860280319234371e-14
 62
256
 0
LINE
 8
Layer0_S_
10
2014.0267373873905
20
104.21684284667963
30
2.860280319234371e-14
11
2013.9754065556333
21
104.99999999999994
31
2.855122892217983e-14
 62
256
 0
LINE
 8
Layer0_S_
10
2168.9754065556335
20
14.999999999999995
30
1.1631430026892443e-14
11
2168.198949420326
21
14.897777478867205
31
1.1631430026892443e-14
 62
256
 0
LINE
 8
Layer0_S_
10
2168.198949420326
20
14.897777478867205
30
1.1631430026892443e-14
11
2167.4754065556335
21
14.598076211353312
31
1.1631430026892443e-14
 62
256
 0
LINE
 8
Layer0_S_
10
2167.4754065556335
20
14.598076211353312
30
1.1631430026892443e-14
11
2166.854086212074
21
14.121320343559637
31
1.1631430026892443e-14
 62
256
 0
LINE
 8
Layer0_S_
10
2166.854086212074
20
14.121320343559637
30
1.1631430026892443e-14
11
2166.37733034428
21
13.499999999999998
31
1.1631430026892443e-14
 62
256
 0
LINE
 8
Layer0_S_
10
2166.37733034428
20
13.499999999999998
30
1.1631430026892443e-14
11
2166.0776290767662
21
12.776457135307558
31
1.1631430026892443e-14
 62
256
 0
LINE
 8
Layer0_S_
10
2166.0776290767662
20
12.776457135307558
30
1.1631430026892443e-14
11
2165.9754065556335
21
12.0
31
1.1631430026892443e-14
 62
256
 0
LINE
 8
Layer0_S_
10
2165.9754065556335
20
12.0
30
1.1631430026892443e-14
11
2166.0776290767662
21
11.223542864692444
31
1.1631430026892443e-14
 62
256
 0
LINE
 8
Layer0_S_
10
2166.0776290767662
20
11.223542864692444
30
1.1631430026892443e-14
11
2166.37733034428
21
10.500000000000004
31
1.1631430026892443e-14
 62
256
 0
LINE
 8
Layer0_S_
10
2166.37733034428
20
10.500000000000004
30
1.1631430026892443e-14
11
2166.854086212074
21
9.878679656440363
31
1.1631430026892443e-14
 62
256
 0
LINE
 8
Layer0_S_
10
2166.854086212074
20
9.878679656440363
30
1.1631430026892443e-14
11
2167.4754065556335
21
9.40192378864669
31
1.1631430026892443e-14
 62
256
 0
LINE
 8
Layer0_S_
10
2167.4754065556335
20
9.40192378864669
30
1.1631430026892443e-14
11
2168.198949420326
21
9.102222521132795
31
1.1631430026892443e-14
 62
256
 0
LINE
 8
Layer0_S_
10
2168.198949420326
20
9.102222521132795
30
1.1631430026892443e-14
11
2168.9754065556335
21
9.000000000000005
31
1.1631430026892443e-14
 62
256
 0
LINE
 8
Layer0_S_
10
2168.9754065556335
20
9.000000000000005
30
1.1631430026892443e-14
11
2169.751863690941
21
9.102222521132795
31
1.1631430026892443e-14
 62
256
 0
LINE
 8
Layer0_S_
10
2169.751863690941
20
9.102222521132795
30
1.1631430026892443e-14
11
2170.4754065556335
21
9.40192378864669
31
1.1631430026892443e-14
 62
256
 0
LINE
 8
Layer0_S_
10
2170.4754065556335
20
9.40192378864669
30
1.1631430026892443e-14
11
2171.096726899193
21
9.878679656440353
31
1.1631430026892443e-14
 62
256
 0
LINE
 8
Layer0_S_
10
2171.096726899193
20
9.878679656440353
30
1.1631430026892443e-14
11
2171.5734827669867
21
10.500000000000004
31
1.1631430026892443e-14
 62
256
 0
LINE
 8
Layer0_S_
10
2171.5734827669867
20
10.500000000000004
30
1.1631430026892443e-14
11
2171.8731840345004
21
11.223542864692432
31
1.1631430026892443e-14
 62
256
 0
LINE
 8
Layer0_S_
10
2171.8731840345004
20
11.223542864692432
30
1.1631430026892443e-14
11
2171.9754065556335
21
12.0
31
1.1631430026892443e-14
 62
256
 0
LINE
 8
Layer0_S_
10
2171.9754065556335
20
12.0
30
1.1631430026892443e-14
11
2171.8731840345004
21
12.776457135307558
31
1.1631430026892443e-14
 62
256
 0
LINE
 8
Layer0_S_
10
2171.8731840345004
20
12.776457135307558
30
1.1631430026892443e-14
11
2171.5734827669867
21
13.499999999999998
31
1.1631430026892443e-14
 62
256
 0
LINE
 8
Layer0_S_
10
2171.5734827669867
20
13.499999999999998
30
1.1631430026892443e-14
11
2171.096726899193
21
14.121320343559637
31
1.1631430026892443e-14
 62
256
 0
LINE
 8
Layer0_S_
10
2171.096726899193
20
14.121320343559637
30
1.1631430026892443e-14
11
2170.4754065556335
21
14.598076211353312
31
1.1631430026892443e-14
 62
256
 0
LINE
 8
Layer0_S_
10
2170.4754065556335
20
14.598076211353312
30
1.1631430026892443e-14
11
2169.751863690941
21
14.897777478867205
31
1.1631430026892443e-14
 62
256
 0
LINE
 8
Layer0_S_
10
2169.751863690941
20
14.897777478867205
30
1.1631430026892443e-14
11
2168.9754065556335
21
14.999999999999995
31
1.1631430026892443e-14
 62
256
 0
LINE
 8
Layer0_S_
10
2005.0776290767662
20
11.223542864692444
30
1.1631430026892443e-14
11
2005.3773303442802
21
10.500000000000004
31
1.1631430026892443e-14
 62
256
 0
LINE
 8
Layer0_S_
10
2005.3773303442802
20
10.500000000000004
30
1.1631430026892443e-14
11
2005.8540862120738
21
9.878679656440363
31
1.1631430026892443e-14
 62
256
 0
LINE
 8
Layer0_S_
10
2005.8540862120738
20
9.878679656440363
30
1.1631430026892443e-14
11
2006.4754065556333
21
9.40192378864669
31
1.1631430026892443e-14
 62
256
 0
LINE
 8
Layer0_S_
10
2006.4754065556333
20
9.40192378864669
30
1.1631430026892443e-14
11
2007.1989494203258
21
9.102222521132807
31
1.1631430026892443e-14
 62
256
 0
LINE
 8
Layer0_S_
10
2007.1989494203258
20
9.102222521132807
30
1.1631430026892443e-14
11
2007.9754065556333
21
9.000000000000005
31
1.1631430026892443e-14
 62
256
 0
LINE
 8
Layer0_S_
10
2007.9754065556333
20
9.000000000000005
30
1.1631430026892443e-14
11
2008.751863690941
21
9.102222521132807
31
1.1631430026892443e-14
 62
256
 0
LINE
 8
Layer0_S_
10
2008.751863690941
20
9.102222521132807
30
1.1631430026892443e-14
11
2009.4754065556333
21
9.40192378864669
31
1.1631430026892443e-14
 62
256
 0
LINE
 8
Layer0_S_
10
2009.4754065556333
20
9.40192378864669
30
1.1631430026892443e-14
11
2010.0967268991928
21
9.878679656440363
31
1.1631430026892443e-14
 62
256
 0
LINE
 8
Layer0_S_
10
2010.0967268991928
20
9.878679656440363
30
1.1631430026892443e-14
11
2010.573482766987
21
10.500000000000004
31
1.1631430026892443e-14
 62
256
 0
LINE
 8
Layer0_S_
10
2010.573482766987
20
10.500000000000004
30
1.1631430026892443e-14
11
2010.8731840345006
21
11.223542864692432
31
1.1631430026892443e-14
 62
256
 0
LINE
 8
Layer0_S_
10
2010.8731840345006
20
11.223542864692432
30
1.1631430026892443e-14
11
2010.9754065556333
21
12.0
31
1.1631430026892443e-14
 62
256
 0
LINE
 8
Layer0_S_
10
2010.9754065556333
20
12.0
30
1.1631430026892443e-14
11
2010.8731840345006
21
12.776457135307558
31
1.1631430026892443e-14
 62
256
 0
LINE
 8
Layer0_S_
10
2010.8731840345006
20
12.776457135307558
30
1.1631430026892443e-14
11
2010.573482766987
21
13.499999999999998
31
1.1631430026892443e-14
 62
256
 0
LINE
 8
Layer0_S_
10
2010.573482766987
20
13.499999999999998
30
1.1631430026892443e-14
11
2010.0967268991928
21
14.121320343559637
31
1.1631430026892443e-14
 62
256
 0
LINE
 8
Layer0_S_
10
2010.0967268991928
20
14.121320343559637
30
1.1631430026892443e-14
11
2009.4754065556333
21
14.598076211353312
31
1.1631430026892443e-14
 62
256
 0
LINE
 8
Layer0_S_
10
2009.4754065556333
20
14.598076211353312
30
1.1631430026892443e-14
11
2008.751863690941
21
14.897777478867194
31
1.1631430026892443e-14
 62
256
 0
LINE
 8
Layer0_S_
10
2008.751863690941
20
14.897777478867194
30
1.1631430026892443e-14
11
2007.9754065556333
21
14.999999999999995
31
1.1631430026892443e-14
 62
256
 0
LINE
 8
Layer0_S_
10
2007.9754065556333
20
14.999999999999995
30
1.1631430026892443e-14
11
2007.1989494203258
21
14.897777478867194
31
1.1631430026892443e-14
 62
256
 0
LINE
 8
Layer0_S_
10
2007.1989494203258
20
14.897777478867194
30
1.1631430026892443e-14
11
2006.4754065556333
21
14.598076211353312
31
1.1631430026892443e-14
 62
256
 0
LINE
 8
Layer0_S_
10
2006.4754065556333
20
14.598076211353312
30
1.1631430026892443e-14
11
2005.8540862120738
21
14.121320343559637
31
1.1631430026892443e-14
 62
256
 0
LINE
 8
Layer0_S_
10
2005.8540862120738
20
14.121320343559637
30
1.1631430026892443e-14
11
2005.3773303442802
21
13.499999999999998
31
1.1631430026892443e-14
 62
256
 0
LINE
 8
Layer0_S_
10
2005.3773303442802
20
13.499999999999998
30
1.1631430026892443e-14
11
2005.0776290767662
21
12.776457135307568
31
1.1631430026892443e-14
 62
256
 0
LINE
 8
Layer0_S_
10
2005.0776290767662
20
12.776457135307568
30
1.1631430026892443e-14
11
2004.9754065556333
21
12.0
31
1.1631430026892443e-14
 62
256
 0
LINE
 8
Layer0_S_
10
2004.9754065556333
20
12.0
30
1.1631430026892443e-14
11
2005.0776290767662
21
11.223542864692444
31
1.1631430026892443e-14
 62
256
 0
ENDSEC
 0
EOF
