 0
SECTION
 2
HEADER
 9
$ACADVER
 1
AC1006
 9
$LTSCALE
 40
1000.0
 0
ENDSEC
 0
SECTION
 2
TABLES
 0
TABLE
 2
LTYPE
 70
1
 0
LTYPE
 2
SKEMA_SOLID
 70
64
 3
Sketchup - Skema Ltype
 72
65
 73
0
 40
0.000000
 0
LTYPE
 2
SKEMA_DASHED
 70
64
 3
Sketchup - Skema Ltype
 72
65
 73
2
 40
0.1
 49
0.05
 49
-0.05
 0
LTYPE
 2
SKEMA_DOTTED
 70
64
 3
Sketchup - Skema Ltype
 72
65
 73
2
 40
00.1
 49
0.0
 49
-00.1
 0
ENDTAB
 0
TABLE
 2
LAYER
 70
6
 0
LAYER
 2
Layer0_S_
 70
64
 62
20
 6
SKEMA_SOLID
 0
ENDTAB
 0
TABLE
 2
STYLE
 70
0
 0
ENDTAB
 0
ENDSEC
 0
SECTION
 2
BLOCKS
 0
ENDSEC
 0
SECTION
 2
ENTITIES
 0
LINE
 8
Layer0_S_
10
1152.5573751746479
20
0.0
30
5.639932965095795e-15
11
1313.5573751746476
21
0.0
31
5.639932965095795e-15
 62
256
 0
LINE
 8
Layer0_S_
10
1140.5573751746476
20
127.99999999999993
30
5.639932965095797e-15
11
1140.5573751746476
21
12.0
31
5.639932965095795e-15
 62
256
 0
LINE
 8
Layer0_S_
10
1150.5573751746476
20
139.81107288852084
30
5.639932965095797e-15
11
1150.5406267390588
21
132.57522958413546
31
5.639932965095797e-15
 62
256
 0
LINE
 8
Layer0_S_
10
1154.5573751746476
20
139.99999999999991
30
5.639932965095797e-15
11
1154.5741236102367
21
132.57522958413546
31
5.639932965095797e-15
 62
256
 0
LINE
 8
Layer0_S_
10
1311.5573751746476
20
139.99999999999991
30
5.639932965095797e-15
11
1154.5573751746476
21
139.99999999999991
31
5.639932965095797e-15
 62
256
 0
LINE
 8
Layer0_S_
10
1311.5573751746476
20
139.99999999999991
30
5.639932965095797e-15
11
1311.5406267390586
21
132.57522958413549
31
5.639932965095797e-15
 62
256
 0
LINE
 8
Layer0_S_
10
1315.5573751746476
20
139.81107288852084
30
5.639932965095797e-15
11
1315.5741236102367
21
132.57522958413549
31
5.639932965095797e-15
 62
256
 0
LINE
 8
Layer0_S_
10
1325.5573751746476
20
12.0
30
5.639932965095795e-15
11
1325.5573751746476
21
127.99999999999993
31
5.639932965095797e-15
 62
256
 0
LINE
 8
Layer0_S_
10
1152.5573751746479
20
0.0
30
5.639932965095795e-15
11
1150.991060868007
21
0.10266166351427745
31
5.639932965095795e-15
 62
256
 0
LINE
 8
Layer0_S_
10
1150.991060868007
20
0.10266166351427745
30
5.639932965095795e-15
11
1149.4515466334174
21
0.40889008453118103
31
5.639932965095795e-15
 62
256
 0
LINE
 8
Layer0_S_
10
1149.4515466334174
20
0.40889008453118103
30
5.639932965095795e-15
11
1147.9651739862666
21
0.9134456098645598
31
5.639932965095795e-15
 62
256
 0
LINE
 8
Layer0_S_
10
1147.9651739862666
20
0.9134456098645598
30
5.639932965095795e-15
11
1146.5573751746476
21
1.6076951545867362
31
5.639932965095795e-15
 62
256
 0
LINE
 8
Layer0_S_
10
1146.5573751746476
20
1.6076951545867362
30
5.639932965095795e-15
11
1145.252238026543
21
2.4797599165051807
31
5.639932965095795e-15
 62
256
 0
LINE
 8
Layer0_S_
10
1145.252238026543
20
2.4797599165051807
30
5.639932965095795e-15
11
1144.0720938004092
21
3.514718625761432
31
5.639932965095795e-15
 62
256
 0
LINE
 8
Layer0_S_
10
1144.0720938004092
20
3.514718625761432
30
5.639932965095795e-15
11
1143.0371350911528
21
4.694862851895351
31
5.639932965095795e-15
 62
256
 0
LINE
 8
Layer0_S_
10
1143.0371350911528
20
4.694862851895351
30
5.639932965095795e-15
11
1142.1650703292344
21
6.0
31
5.639932965095795e-15
 62
256
 0
LINE
 8
Layer0_S_
10
1142.1650703292344
20
6.0
30
5.639932965095795e-15
11
1141.4708207845124
21
7.407798811618927
31
5.639932965095795e-15
 62
256
 0
LINE
 8
Layer0_S_
10
1141.4708207845124
20
7.407798811618927
30
5.639932965095795e-15
11
1140.966265259179
21
8.894171458769755
31
5.639932965095795e-15
 62
256
 0
LINE
 8
Layer0_S_
10
1140.966265259179
20
8.894171458769755
30
5.639932965095795e-15
11
1140.660036838162
21
10.433685693359383
31
5.639932965095795e-15
 62
256
 0
LINE
 8
Layer0_S_
10
1140.660036838162
20
10.433685693359383
30
5.639932965095795e-15
11
1140.5573751746476
21
12.0
31
5.639932965095795e-15
 62
256
 0
LINE
 8
Layer0_S_
10
1150.5573751746476
20
139.81107288852084
30
5.639932965095797e-15
11
1149.0651456276264
21
139.48060681283482
31
5.639932965095797e-15
 62
256
 0
LINE
 8
Layer0_S_
10
1149.0651456276264
20
139.48060681283482
30
5.639932965095797e-15
11
1147.6331257988502
21
138.94311509968514
31
5.639932965095797e-15
 62
256
 0
LINE
 8
Layer0_S_
10
1147.6331257988502
20
138.94311509968514
30
5.639932965095797e-15
11
1146.2811105961484
21
138.22782982556296
31
5.639932965095797e-15
 62
256
 0
LINE
 8
Layer0_S_
10
1146.2811105961484
20
138.22782982556296
30
5.639932965095797e-15
11
1145.0310663056462
21
137.34637228064383
31
5.639932965095797e-15
 62
256
 0
LINE
 8
Layer0_S_
10
1145.0310663056462
20
137.34637228064383
30
5.639932965095797e-15
11
1143.903302484883
21
136.3130635676786
31
5.639932965095797e-15
 62
256
 0
LINE
 8
Layer0_S_
10
1143.903302484883
20
136.3130635676786
30
5.639932965095797e-15
11
1142.916141992003
21
135.14469192602948
31
5.639932965095797e-15
 62
256
 0
LINE
 8
Layer0_S_
10
1142.916141992003
20
135.14469192602948
30
5.639932965095797e-15
11
1142.0856232929905
21
133.86023997196398
31
5.639932965095797e-15
 62
256
 0
LINE
 8
Layer0_S_
10
1142.0856232929905
20
133.86023997196398
30
5.639932965095797e-15
11
1141.425239883582
21
132.48057628675267
31
5.639932965095797e-15
 62
256
 0
LINE
 8
Layer0_S_
10
1141.425239883582
20
132.48057628675267
30
5.639932965095797e-15
11
1140.945721059495
21
131.0281163633611
31
5.639932965095797e-15
 62
256
 0
LINE
 8
Layer0_S_
10
1140.945721059495
20
131.0281163633611
30
5.639932965095797e-15
11
1140.6548575968025
21
129.52645842035844
31
5.639932965095797e-15
 62
256
 0
LINE
 8
Layer0_S_
10
1140.6548575968025
20
129.52645842035844
30
5.639932965095797e-15
11
1140.5573751746476
21
127.99999999999993
31
5.639932965095797e-15
 62
256
 0
LINE
 8
Layer0_S_
10
1150.5406267390588
20
132.57522958413546
30
5.639932965095797e-15
11
1149.479833587442
21
131.9406519484749
31
5.639932965095797e-15
 62
256
 0
LINE
 8
Layer0_S_
10
1149.479833587442
20
131.9406519484749
30
5.639932965095797e-15
11
1148.607136193678
21
131.0652262548181
31
5.639932965095797e-15
 62
256
 0
LINE
 8
Layer0_S_
10
1148.607136193678
20
131.0652262548181
30
5.639932965095797e-15
11
1147.9758728061715
21
130.00245750208254
31
5.639932965095797e-15
 62
256
 0
LINE
 8
Layer0_S_
10
1147.9758728061715
20
130.00245750208254
30
5.639932965095797e-15
11
1147.624625508028
21
128.8173008787858
31
5.639932965095797e-15
 62
256
 0
LINE
 8
Layer0_S_
10
1147.624625508028
20
128.8173008787858
30
5.639932965095797e-15
11
1147.5748621250643
21
127.58219177756709
31
5.639932965095797e-15
 62
256
 0
LINE
 8
Layer0_S_
10
1147.5748621250643
20
127.58219177756709
30
5.639932965095797e-15
11
1147.8296241372952
21
126.37261862834406
31
5.639932965095797e-15
 62
256
 0
LINE
 8
Layer0_S_
10
1147.8296241372952
20
126.37261862834406
30
5.639932965095797e-15
11
1148.3733407872166
21
125.26250913338623
31
5.639932965095797e-15
 62
256
 0
LINE
 8
Layer0_S_
10
1148.3733407872166
20
125.26250913338623
30
5.639932965095797e-15
11
1149.1727807463715
21
124.31971189224505
31
5.639932965095797e-15
 62
256
 0
LINE
 8
Layer0_S_
10
1149.1727807463715
20
124.31971189224505
30
5.639932965095797e-15
11
1150.1790831754463
21
123.60184957436256
31
5.639932965095797e-15
 62
256
 0
LINE
 8
Layer0_S_
10
1150.1790831754463
20
123.60184957436256
30
5.639932965095797e-15
11
1151.330744041867
21
123.15279708861965
31
5.639932965095797e-15
 62
256
 0
LINE
 8
Layer0_S_
10
1151.330744041867
20
123.15279708861965
30
5.639932965095797e-15
11
1152.5573751746479
21
122.99999999999993
31
5.639932965095797e-15
 62
256
 0
LINE
 8
Layer0_S_
10
1152.5573751746479
20
122.99999999999993
30
5.639932965095797e-15
11
1153.7840063074284
21
123.15279708861965
31
5.639932965095797e-15
 62
256
 0
LINE
 8
Layer0_S_
10
1153.7840063074284
20
123.15279708861965
30
5.639932965095797e-15
11
1154.9356671738492
21
123.60184957436256
31
5.639932965095797e-15
 62
256
 0
LINE
 8
Layer0_S_
10
1154.9356671738492
20
123.60184957436256
30
5.639932965095797e-15
11
1155.9419696029238
21
124.31971189224505
31
5.639932965095797e-15
 62
256
 0
LINE
 8
Layer0_S_
10
1155.9419696029238
20
124.31971189224505
30
5.639932965095797e-15
11
1156.7414095620788
21
125.26250913338623
31
5.639932965095797e-15
 62
256
 0
LINE
 8
Layer0_S_
10
1156.7414095620788
20
125.26250913338623
30
5.639932965095797e-15
11
1157.2851262120003
21
126.37261862834406
31
5.639932965095797e-15
 62
256
 0
LINE
 8
Layer0_S_
10
1157.2851262120003
20
126.37261862834406
30
5.639932965095797e-15
11
1157.539888224231
21
127.58219177756709
31
5.639932965095797e-15
 62
256
 0
LINE
 8
Layer0_S_
10
1157.539888224231
20
127.58219177756709
30
5.639932965095797e-15
11
1157.4901248412673
21
128.8173008787858
31
5.639932965095797e-15
 62
256
 0
LINE
 8
Layer0_S_
10
1157.4901248412673
20
128.8173008787858
30
5.639932965095797e-15
11
1157.138877543124
21
130.00245750208254
31
5.639932965095797e-15
 62
256
 0
LINE
 8
Layer0_S_
10
1157.138877543124
20
130.00245750208254
30
5.639932965095797e-15
11
1156.5076141556176
21
131.06522625481813
31
5.639932965095797e-15
 62
256
 0
LINE
 8
Layer0_S_
10
1156.5076141556176
20
131.06522625481813
30
5.639932965095797e-15
11
1155.6349167618534
21
131.9406519484749
31
5.639932965095797e-15
 62
256
 0
LINE
 8
Layer0_S_
10
1155.6349167618534
20
131.9406519484749
30
5.639932965095797e-15
11
1154.5741236102367
21
132.57522958413546
31
5.639932965095797e-15
 62
256
 0
LINE
 8
Layer0_S_
10
1311.5406267390586
20
132.57522958413549
30
5.639932965095797e-15
11
1310.479833587442
21
131.9406519484749
31
5.639932965095797e-15
 62
256
 0
LINE
 8
Layer0_S_
10
1310.479833587442
20
131.9406519484749
30
5.639932965095797e-15
11
1309.607136193678
21
131.0652262548181
31
5.639932965095797e-15
 62
256
 0
LINE
 8
Layer0_S_
10
1309.607136193678
20
131.0652262548181
30
5.639932965095797e-15
11
1308.9758728061715
21
130.00245750208254
31
5.639932965095797e-15
 62
256
 0
LINE
 8
Layer0_S_
10
1308.9758728061715
20
130.00245750208254
30
5.639932965095797e-15
11
1308.624625508028
21
128.8173008787858
31
5.639932965095797e-15
 62
256
 0
LINE
 8
Layer0_S_
10
1308.624625508028
20
128.8173008787858
30
5.639932965095797e-15
11
1308.5748621250643
21
127.58219177756709
31
5.639932965095797e-15
 62
256
 0
LINE
 8
Layer0_S_
10
1308.5748621250643
20
127.58219177756709
30
5.639932965095797e-15
11
1308.8296241372952
21
126.37261862834406
31
5.639932965095797e-15
 62
256
 0
LINE
 8
Layer0_S_
10
1308.8296241372952
20
126.37261862834406
30
5.639932965095797e-15
11
1309.3733407872164
21
125.26250913338623
31
5.639932965095797e-15
 62
256
 0
LINE
 8
Layer0_S_
10
1309.3733407872164
20
125.26250913338623
30
5.639932965095797e-15
11
1310.1727807463717
21
124.31971189224505
31
5.639932965095797e-15
 62
256
 0
LINE
 8
Layer0_S_
10
1310.1727807463717
20
124.31971189224505
30
5.639932965095797e-15
11
1311.1790831754463
21
123.60184957436253
31
5.639932965095797e-15
 62
256
 0
LINE
 8
Layer0_S_
10
1311.1790831754463
20
123.60184957436253
30
5.639932965095797e-15
11
1312.330744041867
21
123.15279708861965
31
5.639932965095797e-15
 62
256
 0
LINE
 8
Layer0_S_
10
1312.330744041867
20
123.15279708861965
30
5.639932965095797e-15
11
1313.5573751746476
21
122.99999999999993
31
5.639932965095797e-15
 62
256
 0
LINE
 8
Layer0_S_
10
1313.5573751746476
20
122.99999999999993
30
5.639932965095797e-15
11
1314.7840063074284
21
123.15279708861965
31
5.639932965095797e-15
 62
256
 0
LINE
 8
Layer0_S_
10
1314.7840063074284
20
123.15279708861965
30
5.639932965095797e-15
11
1315.9356671738492
21
123.60184957436253
31
5.639932965095797e-15
 62
256
 0
LINE
 8
Layer0_S_
10
1315.9356671738492
20
123.60184957436253
30
5.639932965095797e-15
11
1316.9419696029238
21
124.31971189224505
31
5.639932965095797e-15
 62
256
 0
LINE
 8
Layer0_S_
10
1316.9419696029238
20
124.31971189224505
30
5.639932965095797e-15
11
1317.7414095620788
21
125.26250913338623
31
5.639932965095797e-15
 62
256
 0
LINE
 8
Layer0_S_
10
1317.7414095620788
20
125.26250913338623
30
5.639932965095797e-15
11
1318.2851262120003
21
126.37261862834406
31
5.639932965095797e-15
 62
256
 0
LINE
 8
Layer0_S_
10
1318.2851262120003
20
126.37261862834406
30
5.639932965095797e-15
11
1318.539888224231
21
127.58219177756709
31
5.639932965095797e-15
 62
256
 0
LINE
 8
Layer0_S_
10
1318.539888224231
20
127.58219177756709
30
5.639932965095797e-15
11
1318.4901248412673
21
128.81730087878577
31
5.639932965095797e-15
 62
256
 0
LINE
 8
Layer0_S_
10
1318.4901248412673
20
128.81730087878577
30
5.639932965095797e-15
11
1318.1388775431237
21
130.00245750208254
31
5.639932965095797e-15
 62
256
 0
LINE
 8
Layer0_S_
10
1318.1388775431237
20
130.00245750208254
30
5.639932965095797e-15
11
1317.5076141556174
21
131.0652262548181
31
5.639932965095797e-15
 62
256
 0
LINE
 8
Layer0_S_
10
1317.5076141556174
20
131.0652262548181
30
5.639932965095797e-15
11
1316.6349167618534
21
131.9406519484749
31
5.639932965095797e-15
 62
256
 0
LINE
 8
Layer0_S_
10
1316.6349167618534
20
131.9406519484749
30
5.639932965095797e-15
11
1315.5741236102367
21
132.57522958413549
31
5.639932965095797e-15
 62
256
 0
LINE
 8
Layer0_S_
10
1315.5573751746476
20
139.81107288852084
30
5.639932965095797e-15
11
1317.0496047216689
21
139.48060681283482
31
5.639932965095797e-15
 62
256
 0
LINE
 8
Layer0_S_
10
1317.0496047216689
20
139.48060681283482
30
5.639932965095797e-15
11
1318.4816245504453
21
138.94311509968514
31
5.639932965095797e-15
 62
256
 0
LINE
 8
Layer0_S_
10
1318.4816245504453
20
138.94311509968514
30
5.639932965095797e-15
11
1319.8336397531468
21
138.22782982556296
31
5.639932965095797e-15
 62
256
 0
LINE
 8
Layer0_S_
10
1319.8336397531468
20
138.22782982556296
30
5.639932965095797e-15
11
1321.083684043649
21
137.34637228064383
31
5.639932965095797e-15
 62
256
 0
LINE
 8
Layer0_S_
10
1321.083684043649
20
137.34637228064383
30
5.639932965095797e-15
11
1322.2114478644125
21
136.31306356767857
31
5.639932965095797e-15
 62
256
 0
LINE
 8
Layer0_S_
10
1322.2114478644125
20
136.31306356767857
30
5.639932965095797e-15
11
1323.1986083572924
21
135.14469192602948
31
5.639932965095797e-15
 62
256
 0
LINE
 8
Layer0_S_
10
1323.1986083572924
20
135.14469192602948
30
5.639932965095797e-15
11
1324.029127056305
21
133.86023997196398
31
5.639932965095797e-15
 62
256
 0
LINE
 8
Layer0_S_
10
1324.029127056305
20
133.86023997196398
30
5.639932965095797e-15
11
1324.6895104657135
21
132.48057628675267
31
5.639932965095797e-15
 62
256
 0
LINE
 8
Layer0_S_
10
1324.6895104657135
20
132.48057628675267
30
5.639932965095797e-15
11
1325.1690292898004
21
131.0281163633611
31
5.639932965095797e-15
 62
256
 0
LINE
 8
Layer0_S_
10
1325.1690292898004
20
131.0281163633611
30
5.639932965095797e-15
11
1325.459892752493
21
129.52645842035844
31
5.639932965095797e-15
 62
256
 0
LINE
 8
Layer0_S_
10
1325.459892752493
20
129.52645842035844
30
5.639932965095797e-15
11
1325.5573751746476
21
127.99999999999993
31
5.639932965095797e-15
 62
256
 0
LINE
 8
Layer0_S_
10
1313.5573751746476
20
0.0
30
5.639932965095795e-15
11
1315.1236894812882
21
0.10266166351427745
31
5.639932965095795e-15
 62
256
 0
LINE
 8
Layer0_S_
10
1315.1236894812882
20
0.10266166351427745
30
5.639932965095795e-15
11
1316.663203715878
21
0.40889008453118103
31
5.639932965095795e-15
 62
256
 0
LINE
 8
Layer0_S_
10
1316.663203715878
20
0.40889008453118103
30
5.639932965095795e-15
11
1318.1495763630287
21
0.9134456098645598
31
5.639932965095795e-15
 62
256
 0
LINE
 8
Layer0_S_
10
1318.1495763630287
20
0.9134456098645598
30
5.639932965095795e-15
11
1319.5573751746476
21
1.6076951545867362
31
5.639932965095795e-15
 62
256
 0
LINE
 8
Layer0_S_
10
1319.5573751746476
20
1.6076951545867362
30
5.639932965095795e-15
11
1320.8625123227523
21
2.4797599165051807
31
5.639932965095795e-15
 62
256
 0
LINE
 8
Layer0_S_
10
1320.8625123227523
20
2.4797599165051807
30
5.639932965095795e-15
11
1322.0426565488863
21
3.514718625761432
31
5.639932965095795e-15
 62
256
 0
LINE
 8
Layer0_S_
10
1322.0426565488863
20
3.514718625761432
30
5.639932965095795e-15
11
1323.0776152581425
21
4.694862851895351
31
5.639932965095795e-15
 62
256
 0
LINE
 8
Layer0_S_
10
1323.0776152581425
20
4.694862851895351
30
5.639932965095795e-15
11
1323.9496800200611
21
6.0
31
5.639932965095795e-15
 62
256
 0
LINE
 8
Layer0_S_
10
1323.9496800200611
20
6.0
30
5.639932965095795e-15
11
1324.643929564783
21
7.407798811618927
31
5.639932965095795e-15
 62
256
 0
LINE
 8
Layer0_S_
10
1324.643929564783
20
7.407798811618927
30
5.639932965095795e-15
11
1325.1484850901165
21
8.894171458769755
31
5.639932965095795e-15
 62
256
 0
LINE
 8
Layer0_S_
10
1325.1484850901165
20
8.894171458769755
30
5.639932965095795e-15
11
1325.4547135111336
21
10.433685693359383
31
5.639932965095795e-15
 62
256
 0
LINE
 8
Layer0_S_
10
1325.4547135111336
20
10.433685693359383
30
5.639932965095795e-15
11
1325.5573751746476
21
12.0
31
5.639932965095795e-15
 62
256
 0
LINE
 8
Layer0_S_
10
1294.0573751746479
20
3.499999999999999
30
5.639932965095795e-15
11
1293.7985561295452
21
3.4659258262890673
31
5.639932965095795e-15
 62
256
 0
LINE
 8
Layer0_S_
10
1293.7985561295452
20
3.4659258262890673
30
5.639932965095795e-15
11
1293.5573751746476
21
3.36602540378444
31
5.639932965095795e-15
 62
256
 0
LINE
 8
Layer0_S_
10
1293.5573751746476
20
3.36602540378444
30
5.639932965095795e-15
11
1293.3502683934612
21
3.207106781186545
31
5.639932965095795e-15
 62
256
 0
LINE
 8
Layer0_S_
10
1293.3502683934612
20
3.207106781186545
30
5.639932965095795e-15
11
1293.191349770863
21
3.0
31
5.639932965095795e-15
 62
256
 0
LINE
 8
Layer0_S_
10
1293.191349770863
20
3.0
30
5.639932965095795e-15
11
1293.0914493483585
21
2.758819045102524
31
5.639932965095795e-15
 62
256
 0
LINE
 8
Layer0_S_
10
1293.0914493483585
20
2.758819045102524
30
5.639932965095795e-15
11
1293.0573751746476
21
2.500000000000001
31
5.639932965095795e-15
 62
256
 0
LINE
 8
Layer0_S_
10
1293.0573751746476
20
2.500000000000001
30
5.639932965095795e-15
11
1293.0914493483585
21
2.2411809548974784
31
5.639932965095795e-15
 62
256
 0
LINE
 8
Layer0_S_
10
1293.0914493483585
20
2.2411809548974784
30
5.639932965095795e-15
11
1293.191349770863
21
2.0000000000000018
31
5.639932965095795e-15
 62
256
 0
LINE
 8
Layer0_S_
10
1293.191349770863
20
2.0000000000000018
30
5.639932965095795e-15
11
1293.3502683934612
21
1.7928932188134574
31
5.639932965095795e-15
 62
256
 0
LINE
 8
Layer0_S_
10
1293.3502683934612
20
1.7928932188134574
30
5.639932965095795e-15
11
1293.5573751746476
21
1.6339745962155618
31
5.639932965095795e-15
 62
256
 0
LINE
 8
Layer0_S_
10
1293.5573751746476
20
1.6339745962155618
30
5.639932965095795e-15
11
1293.7985561295452
21
1.5340741737109347
31
5.639932965095795e-15
 62
256
 0
LINE
 8
Layer0_S_
10
1293.7985561295452
20
1.5340741737109347
30
5.639932965095795e-15
11
1294.0573751746479
21
1.5000000000000029
31
5.639932965095795e-15
 62
256
 0
LINE
 8
Layer0_S_
10
1294.0573751746479
20
1.5000000000000029
30
5.639932965095795e-15
11
1294.3161942197503
21
1.5340741737109347
31
5.639932965095795e-15
 62
256
 0
LINE
 8
Layer0_S_
10
1294.3161942197503
20
1.5340741737109347
30
5.639932965095795e-15
11
1294.5573751746476
21
1.6339745962155618
31
5.639932965095795e-15
 62
256
 0
LINE
 8
Layer0_S_
10
1294.5573751746476
20
1.6339745962155618
30
5.639932965095795e-15
11
1294.764481955834
21
1.7928932188134519
31
5.639932965095795e-15
 62
256
 0
LINE
 8
Layer0_S_
10
1294.764481955834
20
1.7928932188134519
30
5.639932965095795e-15
11
1294.9234005784322
21
2.0000000000000018
31
5.639932965095795e-15
 62
256
 0
LINE
 8
Layer0_S_
10
1294.9234005784322
20
2.0000000000000018
30
5.639932965095795e-15
11
1295.0233010009367
21
2.2411809548974784
31
5.639932965095795e-15
 62
256
 0
LINE
 8
Layer0_S_
10
1295.0233010009367
20
2.2411809548974784
30
5.639932965095795e-15
11
1295.0573751746476
21
2.500000000000001
31
5.639932965095795e-15
 62
256
 0
LINE
 8
Layer0_S_
10
1295.0573751746476
20
2.500000000000001
30
5.639932965095795e-15
11
1295.0233010009367
21
2.758819045102518
31
5.639932965095795e-15
 62
256
 0
LINE
 8
Layer0_S_
10
1295.0233010009367
20
2.758819045102518
30
5.639932965095795e-15
11
1294.9234005784322
21
3.0
31
5.639932965095795e-15
 62
256
 0
LINE
 8
Layer0_S_
10
1294.9234005784322
20
3.0
30
5.639932965095795e-15
11
1294.764481955834
21
3.207106781186545
31
5.639932965095795e-15
 62
256
 0
LINE
 8
Layer0_S_
10
1294.764481955834
20
3.207106781186545
30
5.639932965095795e-15
11
1294.5573751746476
21
3.36602540378444
31
5.639932965095795e-15
 62
256
 0
LINE
 8
Layer0_S_
10
1294.5573751746476
20
3.36602540378444
30
5.639932965095795e-15
11
1294.3161942197503
21
3.4659258262890673
31
5.639932965095795e-15
 62
256
 0
LINE
 8
Layer0_S_
10
1294.3161942197503
20
3.4659258262890673
30
5.639932965095795e-15
11
1294.0573751746479
21
3.499999999999999
31
5.639932965095795e-15
 62
256
 0
LINE
 8
Layer0_S_
10
1287.5573751746476
20
1.6339745962155618
30
5.639932965095795e-15
11
1287.7644819558343
21
1.7928932188134574
31
5.639932965095795e-15
 62
256
 0
LINE
 8
Layer0_S_
10
1287.7644819558343
20
1.7928932188134574
30
5.639932965095795e-15
11
1287.9234005784322
21
2.0000000000000018
31
5.639932965095795e-15
 62
256
 0
LINE
 8
Layer0_S_
10
1287.9234005784322
20
2.0000000000000018
30
5.639932965095795e-15
11
1288.0233010009367
21
2.2411809548974784
31
5.639932965095795e-15
 62
256
 0
LINE
 8
Layer0_S_
10
1288.0233010009367
20
2.2411809548974784
30
5.639932965095795e-15
11
1288.0573751746476
21
2.500000000000001
31
5.639932965095795e-15
 62
256
 0
LINE
 8
Layer0_S_
10
1288.0573751746476
20
2.500000000000001
30
5.639932965095795e-15
11
1288.0233010009367
21
2.758819045102524
31
5.639932965095795e-15
 62
256
 0
LINE
 8
Layer0_S_
10
1288.0233010009367
20
2.758819045102524
30
5.639932965095795e-15
11
1287.9234005784322
21
3.0
31
5.639932965095795e-15
 62
256
 0
LINE
 8
Layer0_S_
10
1287.9234005784322
20
3.0
30
5.639932965095795e-15
11
1287.7644819558343
21
3.207106781186545
31
5.639932965095795e-15
 62
256
 0
LINE
 8
Layer0_S_
10
1287.7644819558343
20
3.207106781186545
30
5.639932965095795e-15
11
1287.5573751746476
21
3.36602540378444
31
5.639932965095795e-15
 62
256
 0
LINE
 8
Layer0_S_
10
1287.5573751746476
20
3.36602540378444
30
5.639932965095795e-15
11
1287.3161942197503
21
3.4659258262890673
31
5.639932965095795e-15
 62
256
 0
LINE
 8
Layer0_S_
10
1287.3161942197503
20
3.4659258262890673
30
5.639932965095795e-15
11
1287.0573751746476
21
3.499999999999999
31
5.639932965095795e-15
 62
256
 0
LINE
 8
Layer0_S_
10
1287.0573751746476
20
3.499999999999999
30
5.639932965095795e-15
11
1286.7985561295452
21
3.4659258262890673
31
5.639932965095795e-15
 62
256
 0
LINE
 8
Layer0_S_
10
1286.7985561295452
20
3.4659258262890673
30
5.639932965095795e-15
11
1286.5573751746476
21
3.36602540378444
31
5.639932965095795e-15
 62
256
 0
LINE
 8
Layer0_S_
10
1286.5573751746476
20
3.36602540378444
30
5.639932965095795e-15
11
1286.3502683934612
21
3.20710678118655
31
5.639932965095795e-15
 62
256
 0
LINE
 8
Layer0_S_
10
1286.3502683934612
20
3.20710678118655
30
5.639932965095795e-15
11
1286.1913497708633
21
3.0
31
5.639932965095795e-15
 62
256
 0
LINE
 8
Layer0_S_
10
1286.1913497708633
20
3.0
30
5.639932965095795e-15
11
1286.0914493483585
21
2.758819045102524
31
5.639932965095795e-15
 62
256
 0
LINE
 8
Layer0_S_
10
1286.0914493483585
20
2.758819045102524
30
5.639932965095795e-15
11
1286.0573751746479
21
2.500000000000001
31
5.639932965095795e-15
 62
256
 0
LINE
 8
Layer0_S_
10
1286.0573751746479
20
2.500000000000001
30
5.639932965095795e-15
11
1286.0914493483585
21
2.241180954897484
31
5.639932965095795e-15
 62
256
 0
LINE
 8
Layer0_S_
10
1286.0914493483585
20
2.241180954897484
30
5.639932965095795e-15
11
1286.1913497708633
21
2.0000000000000018
31
5.639932965095795e-15
 62
256
 0
LINE
 8
Layer0_S_
10
1286.1913497708633
20
2.0000000000000018
30
5.639932965095795e-15
11
1286.3502683934612
21
1.7928932188134574
31
5.639932965095795e-15
 62
256
 0
LINE
 8
Layer0_S_
10
1286.3502683934612
20
1.7928932188134574
30
5.639932965095795e-15
11
1286.5573751746476
21
1.6339745962155618
31
5.639932965095795e-15
 62
256
 0
LINE
 8
Layer0_S_
10
1286.5573751746476
20
1.6339745962155618
30
5.639932965095795e-15
11
1286.7985561295452
21
1.5340741737109347
31
5.639932965095795e-15
 62
256
 0
LINE
 8
Layer0_S_
10
1286.7985561295452
20
1.5340741737109347
30
5.639932965095795e-15
11
1287.0573751746476
21
1.5000000000000029
31
5.639932965095795e-15
 62
256
 0
LINE
 8
Layer0_S_
10
1287.0573751746476
20
1.5000000000000029
30
5.639932965095795e-15
11
1287.3161942197503
21
1.5340741737109347
31
5.639932965095795e-15
 62
256
 0
LINE
 8
Layer0_S_
10
1287.3161942197503
20
1.5340741737109347
30
5.639932965095795e-15
11
1287.5573751746476
21
1.6339745962155618
31
5.639932965095795e-15
 62
256
 0
LINE
 8
Layer0_S_
10
1280.9234005784322
20
2.0000000000000018
30
5.639932965095795e-15
11
1281.0233010009367
21
2.241180954897484
31
5.639932965095795e-15
 62
256
 0
LINE
 8
Layer0_S_
10
1281.0233010009367
20
2.241180954897484
30
5.639932965095795e-15
11
1281.0573751746476
21
2.500000000000001
31
5.639932965095795e-15
 62
256
 0
LINE
 8
Layer0_S_
10
1281.0573751746476
20
2.500000000000001
30
5.639932965095795e-15
11
1281.0233010009367
21
2.758819045102524
31
5.639932965095795e-15
 62
256
 0
LINE
 8
Layer0_S_
10
1281.0233010009367
20
2.758819045102524
30
5.639932965095795e-15
11
1280.9234005784322
21
3.0
31
5.639932965095795e-15
 62
256
 0
LINE
 8
Layer0_S_
10
1280.9234005784322
20
3.0
30
5.639932965095795e-15
11
1280.7644819558343
21
3.20710678118655
31
5.639932965095795e-15
 62
256
 0
LINE
 8
Layer0_S_
10
1280.7644819558343
20
3.20710678118655
30
5.639932965095795e-15
11
1280.5573751746479
21
3.36602540378444
31
5.639932965095795e-15
 62
256
 0
LINE
 8
Layer0_S_
10
1280.5573751746479
20
3.36602540378444
30
5.639932965095795e-15
11
1280.3161942197503
21
3.4659258262890673
31
5.639932965095795e-15
 62
256
 0
LINE
 8
Layer0_S_
10
1280.3161942197503
20
3.4659258262890673
30
5.639932965095795e-15
11
1280.0573751746476
21
3.499999999999999
31
5.639932965095795e-15
 62
256
 0
LINE
 8
Layer0_S_
10
1280.0573751746476
20
3.499999999999999
30
5.639932965095795e-15
11
1279.7985561295452
21
3.4659258262890673
31
5.639932965095795e-15
 62
256
 0
LINE
 8
Layer0_S_
10
1279.7985561295452
20
3.4659258262890673
30
5.639932965095795e-15
11
1279.5573751746476
21
3.3660254037844344
31
5.639932965095795e-15
 62
256
 0
LINE
 8
Layer0_S_
10
1279.5573751746476
20
3.3660254037844344
30
5.639932965095795e-15
11
1279.3502683934612
21
3.207106781186545
31
5.639932965095795e-15
 62
256
 0
LINE
 8
Layer0_S_
10
1279.3502683934612
20
3.207106781186545
30
5.639932965095795e-15
11
1279.1913497708633
21
3.0
31
5.639932965095795e-15
 62
256
 0
LINE
 8
Layer0_S_
10
1279.1913497708633
20
3.0
30
5.639932965095795e-15
11
1279.0914493483585
21
2.758819045102518
31
5.639932965095795e-15
 62
256
 0
LINE
 8
Layer0_S_
10
1279.0914493483585
20
2.758819045102518
30
5.639932965095795e-15
11
1279.0573751746476
21
2.500000000000001
31
5.639932965095795e-15
 62
256
 0
LINE
 8
Layer0_S_
10
1279.0573751746476
20
2.500000000000001
30
5.639932965095795e-15
11
1279.0914493483585
21
2.2411809548974784
31
5.639932965095795e-15
 62
256
 0
LINE
 8
Layer0_S_
10
1279.0914493483585
20
2.2411809548974784
30
5.639932965095795e-15
11
1279.1913497708633
21
2.0000000000000018
31
5.639932965095795e-15
 62
256
 0
LINE
 8
Layer0_S_
10
1279.1913497708633
20
2.0000000000000018
30
5.639932965095795e-15
11
1279.3502683934612
21
1.7928932188134574
31
5.639932965095795e-15
 62
256
 0
LINE
 8
Layer0_S_
10
1279.3502683934612
20
1.7928932188134574
30
5.639932965095795e-15
11
1279.5573751746476
21
1.6339745962155618
31
5.639932965095795e-15
 62
256
 0
LINE
 8
Layer0_S_
10
1279.5573751746476
20
1.6339745962155618
30
5.639932965095795e-15
11
1279.7985561295452
21
1.5340741737109347
31
5.639932965095795e-15
 62
256
 0
LINE
 8
Layer0_S_
10
1279.7985561295452
20
1.5340741737109347
30
5.639932965095795e-15
11
1280.0573751746476
21
1.5000000000000029
31
5.639932965095795e-15
 62
256
 0
LINE
 8
Layer0_S_
10
1280.0573751746476
20
1.5000000000000029
30
5.639932965095795e-15
11
1280.3161942197503
21
1.5340741737109347
31
5.639932965095795e-15
 62
256
 0
LINE
 8
Layer0_S_
10
1280.3161942197503
20
1.5340741737109347
30
5.639932965095795e-15
11
1280.5573751746479
21
1.6339745962155676
31
5.639932965095795e-15
 62
256
 0
LINE
 8
Layer0_S_
10
1280.5573751746479
20
1.6339745962155676
30
5.639932965095795e-15
11
1280.7644819558343
21
1.7928932188134574
31
5.639932965095795e-15
 62
256
 0
LINE
 8
Layer0_S_
10
1280.7644819558343
20
1.7928932188134574
30
5.639932965095795e-15
11
1280.9234005784322
21
2.0000000000000018
31
5.639932965095795e-15
 62
256
 0
LINE
 8
Layer0_S_
10
1272.1913497708633
20
2.0000000000000018
30
5.639932965095795e-15
11
1272.350268393461
21
1.7928932188134519
31
5.639932965095795e-15
 62
256
 0
LINE
 8
Layer0_S_
10
1272.350268393461
20
1.7928932188134519
30
5.639932965095795e-15
11
1272.5573751746479
21
1.6339745962155618
31
5.639932965095795e-15
 62
256
 0
LINE
 8
Layer0_S_
10
1272.5573751746479
20
1.6339745962155618
30
5.639932965095795e-15
11
1272.7985561295452
21
1.5340741737109347
31
5.639932965095795e-15
 62
256
 0
LINE
 8
Layer0_S_
10
1272.7985561295452
20
1.5340741737109347
30
5.639932965095795e-15
11
1273.0573751746476
21
1.5000000000000029
31
5.639932965095795e-15
 62
256
 0
LINE
 8
Layer0_S_
10
1273.0573751746476
20
1.5000000000000029
30
5.639932965095795e-15
11
1273.3161942197503
21
1.5340741737109347
31
5.639932965095795e-15
 62
256
 0
LINE
 8
Layer0_S_
10
1273.3161942197503
20
1.5340741737109347
30
5.639932965095795e-15
11
1273.5573751746476
21
1.6339745962155676
31
5.639932965095795e-15
 62
256
 0
LINE
 8
Layer0_S_
10
1273.5573751746476
20
1.6339745962155676
30
5.639932965095795e-15
11
1273.7644819558343
21
1.7928932188134574
31
5.639932965095795e-15
 62
256
 0
LINE
 8
Layer0_S_
10
1273.7644819558343
20
1.7928932188134574
30
5.639932965095795e-15
11
1273.923400578432
21
2.0000000000000018
31
5.639932965095795e-15
 62
256
 0
LINE
 8
Layer0_S_
10
1273.923400578432
20
2.0000000000000018
30
5.639932965095795e-15
11
1274.0233010009367
21
2.241180954897484
31
5.639932965095795e-15
 62
256
 0
LINE
 8
Layer0_S_
10
1274.0233010009367
20
2.241180954897484
30
5.639932965095795e-15
11
1274.0573751746476
21
2.500000000000001
31
5.639932965095795e-15
 62
256
 0
LINE
 8
Layer0_S_
10
1274.0573751746476
20
2.500000000000001
30
5.639932965095795e-15
11
1274.0233010009367
21
2.758819045102524
31
5.639932965095795e-15
 62
256
 0
LINE
 8
Layer0_S_
10
1274.0233010009367
20
2.758819045102524
30
5.639932965095795e-15
11
1273.923400578432
21
3.0
31
5.639932965095795e-15
 62
256
 0
LINE
 8
Layer0_S_
10
1273.923400578432
20
3.0
30
5.639932965095795e-15
11
1273.7644819558343
21
3.20710678118655
31
5.639932965095795e-15
 62
256
 0
LINE
 8
Layer0_S_
10
1273.7644819558343
20
3.20710678118655
30
5.639932965095795e-15
11
1273.5573751746476
21
3.36602540378444
31
5.639932965095795e-15
 62
256
 0
LINE
 8
Layer0_S_
10
1273.5573751746476
20
3.36602540378444
30
5.639932965095795e-15
11
1273.3161942197503
21
3.4659258262890673
31
5.639932965095795e-15
 62
256
 0
LINE
 8
Layer0_S_
10
1273.3161942197503
20
3.4659258262890673
30
5.639932965095795e-15
11
1273.0573751746476
21
3.499999999999999
31
5.639932965095795e-15
 62
256
 0
LINE
 8
Layer0_S_
10
1273.0573751746476
20
3.499999999999999
30
5.639932965095795e-15
11
1272.7985561295452
21
3.4659258262890673
31
5.639932965095795e-15
 62
256
 0
LINE
 8
Layer0_S_
10
1272.7985561295452
20
3.4659258262890673
30
5.639932965095795e-15
11
1272.5573751746479
21
3.3660254037844344
31
5.639932965095795e-15
 62
256
 0
LINE
 8
Layer0_S_
10
1272.5573751746479
20
3.3660254037844344
30
5.639932965095795e-15
11
1272.350268393461
21
3.207106781186545
31
5.639932965095795e-15
 62
256
 0
LINE
 8
Layer0_S_
10
1272.350268393461
20
3.207106781186545
30
5.639932965095795e-15
11
1272.1913497708633
21
3.0
31
5.639932965095795e-15
 62
256
 0
LINE
 8
Layer0_S_
10
1272.1913497708633
20
3.0
30
5.639932965095795e-15
11
1272.0914493483588
21
2.758819045102518
31
5.639932965095795e-15
 62
256
 0
LINE
 8
Layer0_S_
10
1272.0914493483588
20
2.758819045102518
30
5.639932965095795e-15
11
1272.0573751746476
21
2.500000000000001
31
5.639932965095795e-15
 62
256
 0
LINE
 8
Layer0_S_
10
1272.0573751746476
20
2.500000000000001
30
5.639932965095795e-15
11
1272.0914493483588
21
2.2411809548974784
31
5.639932965095795e-15
 62
256
 0
LINE
 8
Layer0_S_
10
1272.0914493483588
20
2.2411809548974784
30
5.639932965095795e-15
11
1272.1913497708633
21
2.0000000000000018
31
5.639932965095795e-15
 62
256
 0
LINE
 8
Layer0_S_
10
1266.31619421975
20
3.4659258262890673
30
5.639932965095795e-15
11
1266.0573751746476
21
3.499999999999999
31
5.639932965095795e-15
 62
256
 0
LINE
 8
Layer0_S_
10
1266.0573751746476
20
3.499999999999999
30
5.639932965095795e-15
11
1265.798556129545
21
3.4659258262890673
31
5.639932965095795e-15
 62
256
 0
LINE
 8
Layer0_S_
10
1265.798556129545
20
3.4659258262890673
30
5.639932965095795e-15
11
1265.5573751746476
21
3.36602540378444
31
5.639932965095795e-15
 62
256
 0
LINE
 8
Layer0_S_
10
1265.5573751746476
20
3.36602540378444
30
5.639932965095795e-15
11
1265.3502683934612
21
3.20710678118655
31
5.639932965095795e-15
 62
256
 0
LINE
 8
Layer0_S_
10
1265.3502683934612
20
3.20710678118655
30
5.639932965095795e-15
11
1265.1913497708633
21
3.0
31
5.639932965095795e-15
 62
256
 0
LINE
 8
Layer0_S_
10
1265.1913497708633
20
3.0
30
5.639932965095795e-15
11
1265.0914493483588
21
2.758819045102524
31
5.639932965095795e-15
 62
256
 0
LINE
 8
Layer0_S_
10
1265.0914493483588
20
2.758819045102524
30
5.639932965095795e-15
11
1265.0573751746476
21
2.500000000000001
31
5.639932965095795e-15
 62
256
 0
LINE
 8
Layer0_S_
10
1265.0573751746476
20
2.500000000000001
30
5.639932965095795e-15
11
1265.0914493483588
21
2.241180954897484
31
5.639932965095795e-15
 62
256
 0
LINE
 8
Layer0_S_
10
1265.0914493483588
20
2.241180954897484
30
5.639932965095795e-15
11
1265.1913497708633
21
2.0000000000000018
31
5.639932965095795e-15
 62
256
 0
LINE
 8
Layer0_S_
10
1265.1913497708633
20
2.0000000000000018
30
5.639932965095795e-15
11
1265.3502683934612
21
1.7928932188134574
31
5.639932965095795e-15
 62
256
 0
LINE
 8
Layer0_S_
10
1265.3502683934612
20
1.7928932188134574
30
5.639932965095795e-15
11
1265.5573751746476
21
1.6339745962155676
31
5.639932965095795e-15
 62
256
 0
LINE
 8
Layer0_S_
10
1265.5573751746476
20
1.6339745962155676
30
5.639932965095795e-15
11
1265.798556129545
21
1.5340741737109347
31
5.639932965095795e-15
 62
256
 0
LINE
 8
Layer0_S_
10
1265.798556129545
20
1.5340741737109347
30
5.639932965095795e-15
11
1266.0573751746476
21
1.5000000000000029
31
5.639932965095795e-15
 62
256
 0
LINE
 8
Layer0_S_
10
1266.0573751746476
20
1.5000000000000029
30
5.639932965095795e-15
11
1266.31619421975
21
1.5340741737109347
31
5.639932965095795e-15
 62
256
 0
LINE
 8
Layer0_S_
10
1266.31619421975
20
1.5340741737109347
30
5.639932965095795e-15
11
1266.5573751746476
21
1.6339745962155618
31
5.639932965095795e-15
 62
256
 0
LINE
 8
Layer0_S_
10
1266.5573751746476
20
1.6339745962155618
30
5.639932965095795e-15
11
1266.7644819558343
21
1.7928932188134519
31
5.639932965095795e-15
 62
256
 0
LINE
 8
Layer0_S_
10
1266.7644819558343
20
1.7928932188134519
30
5.639932965095795e-15
11
1266.9234005784322
21
2.0000000000000018
31
5.639932965095795e-15
 62
256
 0
LINE
 8
Layer0_S_
10
1266.9234005784322
20
2.0000000000000018
30
5.639932965095795e-15
11
1267.0233010009367
21
2.2411809548974784
31
5.639932965095795e-15
 62
256
 0
LINE
 8
Layer0_S_
10
1267.0233010009367
20
2.2411809548974784
30
5.639932965095795e-15
11
1267.0573751746479
21
2.4999999999999956
31
5.639932965095795e-15
 62
256
 0
LINE
 8
Layer0_S_
10
1267.0573751746479
20
2.4999999999999956
30
5.639932965095795e-15
11
1267.0233010009367
21
2.758819045102518
31
5.639932965095795e-15
 62
256
 0
LINE
 8
Layer0_S_
10
1267.0233010009367
20
2.758819045102518
30
5.639932965095795e-15
11
1266.9234005784322
21
3.0
31
5.639932965095795e-15
 62
256
 0
LINE
 8
Layer0_S_
10
1266.9234005784322
20
3.0
30
5.639932965095795e-15
11
1266.7644819558343
21
3.207106781186545
31
5.639932965095795e-15
 62
256
 0
LINE
 8
Layer0_S_
10
1266.7644819558343
20
3.207106781186545
30
5.639932965095795e-15
11
1266.5573751746476
21
3.3660254037844344
31
5.639932965095795e-15
 62
256
 0
LINE
 8
Layer0_S_
10
1266.5573751746476
20
3.3660254037844344
30
5.639932965095795e-15
11
1266.31619421975
21
3.4659258262890673
31
5.639932965095795e-15
 62
256
 0
LINE
 8
Layer0_S_
10
1258.191349770863
20
2.0000000000000018
30
5.639932965095795e-15
11
1258.3502683934612
21
1.7928932188134519
31
5.639932965095795e-15
 62
256
 0
LINE
 8
Layer0_S_
10
1258.3502683934612
20
1.7928932188134519
30
5.639932965095795e-15
11
1258.5573751746476
21
1.6339745962155618
31
5.639932965095795e-15
 62
256
 0
LINE
 8
Layer0_S_
10
1258.5573751746476
20
1.6339745962155618
30
5.639932965095795e-15
11
1258.7985561295452
21
1.5340741737109347
31
5.639932965095795e-15
 62
256
 0
LINE
 8
Layer0_S_
10
1258.7985561295452
20
1.5340741737109347
30
5.639932965095795e-15
11
1259.0573751746479
21
1.5000000000000029
31
5.639932965095795e-15
 62
256
 0
LINE
 8
Layer0_S_
10
1259.0573751746479
20
1.5000000000000029
30
5.639932965095795e-15
11
1259.31619421975
21
1.5340741737109347
31
5.639932965095795e-15
 62
256
 0
LINE
 8
Layer0_S_
10
1259.31619421975
20
1.5340741737109347
30
5.639932965095795e-15
11
1259.5573751746476
21
1.6339745962155676
31
5.639932965095795e-15
 62
256
 0
LINE
 8
Layer0_S_
10
1259.5573751746476
20
1.6339745962155676
30
5.639932965095795e-15
11
1259.764481955834
21
1.7928932188134574
31
5.639932965095795e-15
 62
256
 0
LINE
 8
Layer0_S_
10
1259.764481955834
20
1.7928932188134574
30
5.639932965095795e-15
11
1259.9234005784322
21
2.0000000000000018
31
5.639932965095795e-15
 62
256
 0
LINE
 8
Layer0_S_
10
1259.9234005784322
20
2.0000000000000018
30
5.639932965095795e-15
11
1260.0233010009367
21
2.241180954897484
31
5.639932965095795e-15
 62
256
 0
LINE
 8
Layer0_S_
10
1260.0233010009367
20
2.241180954897484
30
5.639932965095795e-15
11
1260.0573751746476
21
2.500000000000001
31
5.639932965095795e-15
 62
256
 0
LINE
 8
Layer0_S_
10
1260.0573751746476
20
2.500000000000001
30
5.639932965095795e-15
11
1260.0233010009367
21
2.758819045102524
31
5.639932965095795e-15
 62
256
 0
LINE
 8
Layer0_S_
10
1260.0233010009367
20
2.758819045102524
30
5.639932965095795e-15
11
1259.9234005784322
21
3.0
31
5.639932965095795e-15
 62
256
 0
LINE
 8
Layer0_S_
10
1259.9234005784322
20
3.0
30
5.639932965095795e-15
11
1259.764481955834
21
3.20710678118655
31
5.639932965095795e-15
 62
256
 0
LINE
 8
Layer0_S_
10
1259.764481955834
20
3.20710678118655
30
5.639932965095795e-15
11
1259.5573751746476
21
3.36602540378444
31
5.639932965095795e-15
 62
256
 0
LINE
 8
Layer0_S_
10
1259.5573751746476
20
3.36602540378444
30
5.639932965095795e-15
11
1259.31619421975
21
3.4659258262890673
31
5.639932965095795e-15
 62
256
 0
LINE
 8
Layer0_S_
10
1259.31619421975
20
3.4659258262890673
30
5.639932965095795e-15
11
1259.0573751746479
21
3.499999999999999
31
5.639932965095795e-15
 62
256
 0
LINE
 8
Layer0_S_
10
1259.0573751746479
20
3.499999999999999
30
5.639932965095795e-15
11
1258.7985561295452
21
3.4659258262890673
31
5.639932965095795e-15
 62
256
 0
LINE
 8
Layer0_S_
10
1258.7985561295452
20
3.4659258262890673
30
5.639932965095795e-15
11
1258.5573751746476
21
3.36602540378444
31
5.639932965095795e-15
 62
256
 0
LINE
 8
Layer0_S_
10
1258.5573751746476
20
3.36602540378444
30
5.639932965095795e-15
11
1258.3502683934612
21
3.207106781186545
31
5.639932965095795e-15
 62
256
 0
LINE
 8
Layer0_S_
10
1258.3502683934612
20
3.207106781186545
30
5.639932965095795e-15
11
1258.191349770863
21
3.0
31
5.639932965095795e-15
 62
256
 0
LINE
 8
Layer0_S_
10
1258.191349770863
20
3.0
30
5.639932965095795e-15
11
1258.0914493483585
21
2.758819045102518
31
5.639932965095795e-15
 62
256
 0
LINE
 8
Layer0_S_
10
1258.0914493483585
20
2.758819045102518
30
5.639932965095795e-15
11
1258.0573751746476
21
2.500000000000001
31
5.639932965095795e-15
 62
256
 0
LINE
 8
Layer0_S_
10
1258.0573751746476
20
2.500000000000001
30
5.639932965095795e-15
11
1258.0914493483585
21
2.2411809548974784
31
5.639932965095795e-15
 62
256
 0
LINE
 8
Layer0_S_
10
1258.0914493483585
20
2.2411809548974784
30
5.639932965095795e-15
11
1258.191349770863
21
2.0000000000000018
31
5.639932965095795e-15
 62
256
 0
LINE
 8
Layer0_S_
10
1251.0573751746479
20
2.500000000000001
30
5.639932965095795e-15
11
1251.0914493483585
21
2.2411809548974784
31
5.639932965095795e-15
 62
256
 0
LINE
 8
Layer0_S_
10
1251.0914493483585
20
2.2411809548974784
30
5.639932965095795e-15
11
1251.191349770863
21
2.0000000000000018
31
5.639932965095795e-15
 62
256
 0
LINE
 8
Layer0_S_
10
1251.191349770863
20
2.0000000000000018
30
5.639932965095795e-15
11
1251.3502683934612
21
1.7928932188134519
31
5.639932965095795e-15
 62
256
 0
LINE
 8
Layer0_S_
10
1251.3502683934612
20
1.7928932188134519
30
5.639932965095795e-15
11
1251.5573751746476
21
1.6339745962155618
31
5.639932965095795e-15
 62
256
 0
LINE
 8
Layer0_S_
10
1251.5573751746476
20
1.6339745962155618
30
5.639932965095795e-15
11
1251.7985561295452
21
1.5340741737109347
31
5.639932965095795e-15
 62
256
 0
LINE
 8
Layer0_S_
10
1251.7985561295452
20
1.5340741737109347
30
5.639932965095795e-15
11
1252.0573751746476
21
1.5000000000000029
31
5.639932965095795e-15
 62
256
 0
LINE
 8
Layer0_S_
10
1252.0573751746476
20
1.5000000000000029
30
5.639932965095795e-15
11
1252.3161942197503
21
1.5340741737109347
31
5.639932965095795e-15
 62
256
 0
LINE
 8
Layer0_S_
10
1252.3161942197503
20
1.5340741737109347
30
5.639932965095795e-15
11
1252.5573751746476
21
1.6339745962155618
31
5.639932965095795e-15
 62
256
 0
LINE
 8
Layer0_S_
10
1252.5573751746476
20
1.6339745962155618
30
5.639932965095795e-15
11
1252.764481955834
21
1.7928932188134574
31
5.639932965095795e-15
 62
256
 0
LINE
 8
Layer0_S_
10
1252.764481955834
20
1.7928932188134574
30
5.639932965095795e-15
11
1252.9234005784322
21
2.0000000000000018
31
5.639932965095795e-15
 62
256
 0
LINE
 8
Layer0_S_
10
1252.9234005784322
20
2.0000000000000018
30
5.639932965095795e-15
11
1253.0233010009367
21
2.2411809548974784
31
5.639932965095795e-15
 62
256
 0
LINE
 8
Layer0_S_
10
1253.0233010009367
20
2.2411809548974784
30
5.639932965095795e-15
11
1253.0573751746476
21
2.500000000000001
31
5.639932965095795e-15
 62
256
 0
LINE
 8
Layer0_S_
10
1253.0573751746476
20
2.500000000000001
30
5.639932965095795e-15
11
1253.0233010009367
21
2.758819045102524
31
5.639932965095795e-15
 62
256
 0
LINE
 8
Layer0_S_
10
1253.0233010009367
20
2.758819045102524
30
5.639932965095795e-15
11
1252.9234005784322
21
3.0
31
5.639932965095795e-15
 62
256
 0
LINE
 8
Layer0_S_
10
1252.9234005784322
20
3.0
30
5.639932965095795e-15
11
1252.764481955834
21
3.207106781186545
31
5.639932965095795e-15
 62
256
 0
LINE
 8
Layer0_S_
10
1252.764481955834
20
3.207106781186545
30
5.639932965095795e-15
11
1252.5573751746476
21
3.36602540378444
31
5.639932965095795e-15
 62
256
 0
LINE
 8
Layer0_S_
10
1252.5573751746476
20
3.36602540378444
30
5.639932965095795e-15
11
1252.3161942197503
21
3.4659258262890673
31
5.639932965095795e-15
 62
256
 0
LINE
 8
Layer0_S_
10
1252.3161942197503
20
3.4659258262890673
30
5.639932965095795e-15
11
1252.0573751746476
21
3.499999999999999
31
5.639932965095795e-15
 62
256
 0
LINE
 8
Layer0_S_
10
1252.0573751746476
20
3.499999999999999
30
5.639932965095795e-15
11
1251.7985561295452
21
3.4659258262890673
31
5.639932965095795e-15
 62
256
 0
LINE
 8
Layer0_S_
10
1251.7985561295452
20
3.4659258262890673
30
5.639932965095795e-15
11
1251.5573751746476
21
3.36602540378444
31
5.639932965095795e-15
 62
256
 0
LINE
 8
Layer0_S_
10
1251.5573751746476
20
3.36602540378444
30
5.639932965095795e-15
11
1251.3502683934612
21
3.207106781186545
31
5.639932965095795e-15
 62
256
 0
LINE
 8
Layer0_S_
10
1251.3502683934612
20
3.207106781186545
30
5.639932965095795e-15
11
1251.191349770863
21
3.0
31
5.639932965095795e-15
 62
256
 0
LINE
 8
Layer0_S_
10
1251.191349770863
20
3.0
30
5.639932965095795e-15
11
1251.0914493483585
21
2.758819045102524
31
5.639932965095795e-15
 62
256
 0
LINE
 8
Layer0_S_
10
1251.0914493483585
20
2.758819045102524
30
5.639932965095795e-15
11
1251.0573751746479
21
2.500000000000001
31
5.639932965095795e-15
 62
256
 0
LINE
 8
Layer0_S_
10
1244.5573751746476
20
3.36602540378444
30
5.639932965095795e-15
11
1244.3502683934612
21
3.20710678118655
31
5.639932965095795e-15
 62
256
 0
LINE
 8
Layer0_S_
10
1244.3502683934612
20
3.20710678118655
30
5.639932965095795e-15
11
1244.1913497708633
21
3.0
31
5.639932965095795e-15
 62
256
 0
LINE
 8
Layer0_S_
10
1244.1913497708633
20
3.0
30
5.639932965095795e-15
11
1244.0914493483585
21
2.758819045102524
31
5.639932965095795e-15
 62
256
 0
LINE
 8
Layer0_S_
10
1244.0914493483585
20
2.758819045102524
30
5.639932965095795e-15
11
1244.0573751746479
21
2.500000000000001
31
5.639932965095795e-15
 62
256
 0
LINE
 8
Layer0_S_
10
1244.0573751746479
20
2.500000000000001
30
5.639932965095795e-15
11
1244.0914493483585
21
2.241180954897484
31
5.639932965095795e-15
 62
256
 0
LINE
 8
Layer0_S_
10
1244.0914493483585
20
2.241180954897484
30
5.639932965095795e-15
11
1244.1913497708633
21
2.0000000000000018
31
5.639932965095795e-15
 62
256
 0
LINE
 8
Layer0_S_
10
1244.1913497708633
20
2.0000000000000018
30
5.639932965095795e-15
11
1244.3502683934612
21
1.7928932188134574
31
5.639932965095795e-15
 62
256
 0
LINE
 8
Layer0_S_
10
1244.3502683934612
20
1.7928932188134574
30
5.639932965095795e-15
11
1244.5573751746476
21
1.6339745962155618
31
5.639932965095795e-15
 62
256
 0
LINE
 8
Layer0_S_
10
1244.5573751746476
20
1.6339745962155618
30
5.639932965095795e-15
11
1244.7985561295452
21
1.5340741737109347
31
5.639932965095795e-15
 62
256
 0
LINE
 8
Layer0_S_
10
1244.7985561295452
20
1.5340741737109347
30
5.639932965095795e-15
11
1245.0573751746476
21
1.5000000000000029
31
5.639932965095795e-15
 62
256
 0
LINE
 8
Layer0_S_
10
1245.0573751746476
20
1.5000000000000029
30
5.639932965095795e-15
11
1245.3161942197503
21
1.5340741737109347
31
5.639932965095795e-15
 62
256
 0
LINE
 8
Layer0_S_
10
1245.3161942197503
20
1.5340741737109347
30
5.639932965095795e-15
11
1245.5573751746479
21
1.6339745962155618
31
5.639932965095795e-15
 62
256
 0
LINE
 8
Layer0_S_
10
1245.5573751746479
20
1.6339745962155618
30
5.639932965095795e-15
11
1245.7644819558343
21
1.7928932188134519
31
5.639932965095795e-15
 62
256
 0
LINE
 8
Layer0_S_
10
1245.7644819558343
20
1.7928932188134519
30
5.639932965095795e-15
11
1245.9234005784322
21
2.0000000000000018
31
5.639932965095795e-15
 62
256
 0
LINE
 8
Layer0_S_
10
1245.9234005784322
20
2.0000000000000018
30
5.639932965095795e-15
11
1246.0233010009367
21
2.2411809548974784
31
5.639932965095795e-15
 62
256
 0
LINE
 8
Layer0_S_
10
1246.0233010009367
20
2.2411809548974784
30
5.639932965095795e-15
11
1246.0573751746476
21
2.500000000000001
31
5.639932965095795e-15
 62
256
 0
LINE
 8
Layer0_S_
10
1246.0573751746476
20
2.500000000000001
30
5.639932965095795e-15
11
1246.0233010009367
21
2.758819045102518
31
5.639932965095795e-15
 62
256
 0
LINE
 8
Layer0_S_
10
1246.0233010009367
20
2.758819045102518
30
5.639932965095795e-15
11
1245.9234005784322
21
3.0
31
5.639932965095795e-15
 62
256
 0
LINE
 8
Layer0_S_
10
1245.9234005784322
20
3.0
30
5.639932965095795e-15
11
1245.7644819558343
21
3.207106781186545
31
5.639932965095795e-15
 62
256
 0
LINE
 8
Layer0_S_
10
1245.7644819558343
20
3.207106781186545
30
5.639932965095795e-15
11
1245.5573751746479
21
3.3660254037844344
31
5.639932965095795e-15
 62
256
 0
LINE
 8
Layer0_S_
10
1245.5573751746479
20
3.3660254037844344
30
5.639932965095795e-15
11
1245.3161942197503
21
3.4659258262890673
31
5.639932965095795e-15
 62
256
 0
LINE
 8
Layer0_S_
10
1245.3161942197503
20
3.4659258262890673
30
5.639932965095795e-15
11
1245.0573751746476
21
3.499999999999999
31
5.639932965095795e-15
 62
256
 0
LINE
 8
Layer0_S_
10
1245.0573751746476
20
3.499999999999999
30
5.639932965095795e-15
11
1244.7985561295452
21
3.4659258262890673
31
5.639932965095795e-15
 62
256
 0
LINE
 8
Layer0_S_
10
1244.7985561295452
20
3.4659258262890673
30
5.639932965095795e-15
11
1244.5573751746476
21
3.36602540378444
31
5.639932965095795e-15
 62
256
 0
LINE
 8
Layer0_S_
10
1238.3161942197503
20
1.5340741737109347
30
5.639932965095795e-15
11
1238.5573751746476
21
1.6339745962155676
31
5.639932965095795e-15
 62
256
 0
LINE
 8
Layer0_S_
10
1238.5573751746476
20
1.6339745962155676
30
5.639932965095795e-15
11
1238.7644819558343
21
1.7928932188134574
31
5.639932965095795e-15
 62
256
 0
LINE
 8
Layer0_S_
10
1238.7644819558343
20
1.7928932188134574
30
5.639932965095795e-15
11
1238.9234005784322
21
2.0000000000000018
31
5.639932965095795e-15
 62
256
 0
LINE
 8
Layer0_S_
10
1238.9234005784322
20
2.0000000000000018
30
5.639932965095795e-15
11
1239.0233010009367
21
2.241180954897484
31
5.639932965095795e-15
 62
256
 0
LINE
 8
Layer0_S_
10
1239.0233010009367
20
2.241180954897484
30
5.639932965095795e-15
11
1239.0573751746476
21
2.500000000000001
31
5.639932965095795e-15
 62
256
 0
LINE
 8
Layer0_S_
10
1239.0573751746476
20
2.500000000000001
30
5.639932965095795e-15
11
1239.0233010009367
21
2.758819045102524
31
5.639932965095795e-15
 62
256
 0
LINE
 8
Layer0_S_
10
1239.0233010009367
20
2.758819045102524
30
5.639932965095795e-15
11
1238.9234005784322
21
3.0
31
5.639932965095795e-15
 62
256
 0
LINE
 8
Layer0_S_
10
1238.9234005784322
20
3.0
30
5.639932965095795e-15
11
1238.7644819558343
21
3.20710678118655
31
5.639932965095795e-15
 62
256
 0
LINE
 8
Layer0_S_
10
1238.7644819558343
20
3.20710678118655
30
5.639932965095795e-15
11
1238.5573751746476
21
3.36602540378444
31
5.639932965095795e-15
 62
256
 0
LINE
 8
Layer0_S_
10
1238.5573751746476
20
3.36602540378444
30
5.639932965095795e-15
11
1238.3161942197503
21
3.4659258262890673
31
5.639932965095795e-15
 62
256
 0
LINE
 8
Layer0_S_
10
1238.3161942197503
20
3.4659258262890673
30
5.639932965095795e-15
11
1238.0573751746476
21
3.499999999999999
31
5.639932965095795e-15
 62
256
 0
LINE
 8
Layer0_S_
10
1238.0573751746476
20
3.499999999999999
30
5.639932965095795e-15
11
1237.7985561295452
21
3.4659258262890673
31
5.639932965095795e-15
 62
256
 0
LINE
 8
Layer0_S_
10
1237.7985561295452
20
3.4659258262890673
30
5.639932965095795e-15
11
1237.5573751746476
21
3.3660254037844344
31
5.639932965095795e-15
 62
256
 0
LINE
 8
Layer0_S_
10
1237.5573751746476
20
3.3660254037844344
30
5.639932965095795e-15
11
1237.350268393461
21
3.207106781186545
31
5.639932965095795e-15
 62
256
 0
LINE
 8
Layer0_S_
10
1237.350268393461
20
3.207106781186545
30
5.639932965095795e-15
11
1237.1913497708633
21
3.0
31
5.639932965095795e-15
 62
256
 0
LINE
 8
Layer0_S_
10
1237.1913497708633
20
3.0
30
5.639932965095795e-15
11
1237.0914493483585
21
2.758819045102518
31
5.639932965095795e-15
 62
256
 0
LINE
 8
Layer0_S_
10
1237.0914493483585
20
2.758819045102518
30
5.639932965095795e-15
11
1237.0573751746476
21
2.500000000000001
31
5.639932965095795e-15
 62
256
 0
LINE
 8
Layer0_S_
10
1237.0573751746476
20
2.500000000000001
30
5.639932965095795e-15
11
1237.0914493483585
21
2.2411809548974784
31
5.639932965095795e-15
 62
256
 0
LINE
 8
Layer0_S_
10
1237.0914493483585
20
2.2411809548974784
30
5.639932965095795e-15
11
1237.1913497708633
21
2.0000000000000018
31
5.639932965095795e-15
 62
256
 0
LINE
 8
Layer0_S_
10
1237.1913497708633
20
2.0000000000000018
30
5.639932965095795e-15
11
1237.350268393461
21
1.7928932188134519
31
5.639932965095795e-15
 62
256
 0
LINE
 8
Layer0_S_
10
1237.350268393461
20
1.7928932188134519
30
5.639932965095795e-15
11
1237.5573751746479
21
1.6339745962155618
31
5.639932965095795e-15
 62
256
 0
LINE
 8
Layer0_S_
10
1237.5573751746479
20
1.6339745962155618
30
5.639932965095795e-15
11
1237.7985561295452
21
1.5340741737109347
31
5.639932965095795e-15
 62
256
 0
LINE
 8
Layer0_S_
10
1237.7985561295452
20
1.5340741737109347
30
5.639932965095795e-15
11
1238.0573751746476
21
1.5000000000000029
31
5.639932965095795e-15
 62
256
 0
LINE
 8
Layer0_S_
10
1238.0573751746476
20
1.5000000000000029
30
5.639932965095795e-15
11
1238.3161942197503
21
1.5340741737109347
31
5.639932965095795e-15
 62
256
 0
LINE
 8
Layer0_S_
10
1231.31619421975
20
3.4659258262890673
30
5.639932965095795e-15
11
1231.0573751746476
21
3.499999999999999
31
5.639932965095795e-15
 62
256
 0
LINE
 8
Layer0_S_
10
1231.0573751746476
20
3.499999999999999
30
5.639932965095795e-15
11
1230.7985561295452
21
3.4659258262890673
31
5.639932965095795e-15
 62
256
 0
LINE
 8
Layer0_S_
10
1230.7985561295452
20
3.4659258262890673
30
5.639932965095795e-15
11
1230.5573751746479
21
3.36602540378444
31
5.639932965095795e-15
 62
256
 0
LINE
 8
Layer0_S_
10
1230.5573751746479
20
3.36602540378444
30
5.639932965095795e-15
11
1230.3502683934612
21
3.20710678118655
31
5.639932965095795e-15
 62
256
 0
LINE
 8
Layer0_S_
10
1230.3502683934612
20
3.20710678118655
30
5.639932965095795e-15
11
1230.1913497708633
21
3.0
31
5.639932965095795e-15
 62
256
 0
LINE
 8
Layer0_S_
10
1230.1913497708633
20
3.0
30
5.639932965095795e-15
11
1230.0914493483588
21
2.758819045102524
31
5.639932965095795e-15
 62
256
 0
LINE
 8
Layer0_S_
10
1230.0914493483588
20
2.758819045102524
30
5.639932965095795e-15
11
1230.0573751746476
21
2.500000000000001
31
5.639932965095795e-15
 62
256
 0
LINE
 8
Layer0_S_
10
1230.0573751746476
20
2.500000000000001
30
5.639932965095795e-15
11
1230.0914493483588
21
2.241180954897484
31
5.639932965095795e-15
 62
256
 0
LINE
 8
Layer0_S_
10
1230.0914493483588
20
2.241180954897484
30
5.639932965095795e-15
11
1230.1913497708633
21
2.0000000000000018
31
5.639932965095795e-15
 62
256
 0
LINE
 8
Layer0_S_
10
1230.1913497708633
20
2.0000000000000018
30
5.639932965095795e-15
11
1230.3502683934612
21
1.7928932188134574
31
5.639932965095795e-15
 62
256
 0
LINE
 8
Layer0_S_
10
1230.3502683934612
20
1.7928932188134574
30
5.639932965095795e-15
11
1230.5573751746479
21
1.6339745962155676
31
5.639932965095795e-15
 62
256
 0
LINE
 8
Layer0_S_
10
1230.5573751746479
20
1.6339745962155676
30
5.639932965095795e-15
11
1230.7985561295452
21
1.5340741737109347
31
5.639932965095795e-15
 62
256
 0
LINE
 8
Layer0_S_
10
1230.7985561295452
20
1.5340741737109347
30
5.639932965095795e-15
11
1231.0573751746476
21
1.5000000000000029
31
5.639932965095795e-15
 62
256
 0
LINE
 8
Layer0_S_
10
1231.0573751746476
20
1.5000000000000029
30
5.639932965095795e-15
11
1231.31619421975
21
1.5340741737109347
31
5.639932965095795e-15
 62
256
 0
LINE
 8
Layer0_S_
10
1231.31619421975
20
1.5340741737109347
30
5.639932965095795e-15
11
1231.5573751746476
21
1.6339745962155618
31
5.639932965095795e-15
 62
256
 0
LINE
 8
Layer0_S_
10
1231.5573751746476
20
1.6339745962155618
30
5.639932965095795e-15
11
1231.7644819558343
21
1.7928932188134519
31
5.639932965095795e-15
 62
256
 0
LINE
 8
Layer0_S_
10
1231.7644819558343
20
1.7928932188134519
30
5.639932965095795e-15
11
1231.9234005784322
21
2.0000000000000018
31
5.639932965095795e-15
 62
256
 0
LINE
 8
Layer0_S_
10
1231.9234005784322
20
2.0000000000000018
30
5.639932965095795e-15
11
1232.0233010009367
21
2.2411809548974784
31
5.639932965095795e-15
 62
256
 0
LINE
 8
Layer0_S_
10
1232.0233010009367
20
2.2411809548974784
30
5.639932965095795e-15
11
1232.0573751746479
21
2.4999999999999956
31
5.639932965095795e-15
 62
256
 0
LINE
 8
Layer0_S_
10
1232.0573751746479
20
2.4999999999999956
30
5.639932965095795e-15
11
1232.0233010009367
21
2.758819045102518
31
5.639932965095795e-15
 62
256
 0
LINE
 8
Layer0_S_
10
1232.0233010009367
20
2.758819045102518
30
5.639932965095795e-15
11
1231.9234005784322
21
3.0
31
5.639932965095795e-15
 62
256
 0
LINE
 8
Layer0_S_
10
1231.9234005784322
20
3.0
30
5.639932965095795e-15
11
1231.7644819558343
21
3.207106781186545
31
5.639932965095795e-15
 62
256
 0
LINE
 8
Layer0_S_
10
1231.7644819558343
20
3.207106781186545
30
5.639932965095795e-15
11
1231.5573751746476
21
3.3660254037844344
31
5.639932965095795e-15
 62
256
 0
LINE
 8
Layer0_S_
10
1231.5573751746476
20
3.3660254037844344
30
5.639932965095795e-15
11
1231.31619421975
21
3.4659258262890673
31
5.639932965095795e-15
 62
256
 0
LINE
 8
Layer0_S_
10
1223.0914493483588
20
2.758819045102524
30
5.639932965095795e-15
11
1223.0573751746476
21
2.500000000000001
31
5.639932965095795e-15
 62
256
 0
LINE
 8
Layer0_S_
10
1223.0573751746476
20
2.500000000000001
30
5.639932965095795e-15
11
1223.0914493483588
21
2.241180954897484
31
5.639932965095795e-15
 62
256
 0
LINE
 8
Layer0_S_
10
1223.0914493483588
20
2.241180954897484
30
5.639932965095795e-15
11
1223.1913497708633
21
2.0000000000000018
31
5.639932965095795e-15
 62
256
 0
LINE
 8
Layer0_S_
10
1223.1913497708633
20
2.0000000000000018
30
5.639932965095795e-15
11
1223.3502683934612
21
1.7928932188134574
31
5.639932965095795e-15
 62
256
 0
LINE
 8
Layer0_S_
10
1223.3502683934612
20
1.7928932188134574
30
5.639932965095795e-15
11
1223.5573751746476
21
1.6339745962155676
31
5.639932965095795e-15
 62
256
 0
LINE
 8
Layer0_S_
10
1223.5573751746476
20
1.6339745962155676
30
5.639932965095795e-15
11
1223.7985561295452
21
1.5340741737109347
31
5.639932965095795e-15
 62
256
 0
LINE
 8
Layer0_S_
10
1223.7985561295452
20
1.5340741737109347
30
5.639932965095795e-15
11
1224.0573751746476
21
1.5000000000000029
31
5.639932965095795e-15
 62
256
 0
LINE
 8
Layer0_S_
10
1224.0573751746476
20
1.5000000000000029
30
5.639932965095795e-15
11
1224.31619421975
21
1.5340741737109347
31
5.639932965095795e-15
 62
256
 0
LINE
 8
Layer0_S_
10
1224.31619421975
20
1.5340741737109347
30
5.639932965095795e-15
11
1224.5573751746476
21
1.6339745962155618
31
5.639932965095795e-15
 62
256
 0
LINE
 8
Layer0_S_
10
1224.5573751746476
20
1.6339745962155618
30
5.639932965095795e-15
11
1224.7644819558343
21
1.7928932188134519
31
5.639932965095795e-15
 62
256
 0
LINE
 8
Layer0_S_
10
1224.7644819558343
20
1.7928932188134519
30
5.639932965095795e-15
11
1224.9234005784322
21
2.0000000000000018
31
5.639932965095795e-15
 62
256
 0
LINE
 8
Layer0_S_
10
1224.9234005784322
20
2.0000000000000018
30
5.639932965095795e-15
11
1225.0233010009367
21
2.2411809548974784
31
5.639932965095795e-15
 62
256
 0
LINE
 8
Layer0_S_
10
1225.0233010009367
20
2.2411809548974784
30
5.639932965095795e-15
11
1225.0573751746476
21
2.500000000000001
31
5.639932965095795e-15
 62
256
 0
LINE
 8
Layer0_S_
10
1225.0573751746476
20
2.500000000000001
30
5.639932965095795e-15
11
1225.0233010009367
21
2.758819045102518
31
5.639932965095795e-15
 62
256
 0
LINE
 8
Layer0_S_
10
1225.0233010009367
20
2.758819045102518
30
5.639932965095795e-15
11
1224.9234005784322
21
3.0
31
5.639932965095795e-15
 62
256
 0
LINE
 8
Layer0_S_
10
1224.9234005784322
20
3.0
30
5.639932965095795e-15
11
1224.7644819558343
21
3.207106781186545
31
5.639932965095795e-15
 62
256
 0
LINE
 8
Layer0_S_
10
1224.7644819558343
20
3.207106781186545
30
5.639932965095795e-15
11
1224.5573751746476
21
3.3660254037844344
31
5.639932965095795e-15
 62
256
 0
LINE
 8
Layer0_S_
10
1224.5573751746476
20
3.3660254037844344
30
5.639932965095795e-15
11
1224.31619421975
21
3.4659258262890673
31
5.639932965095795e-15
 62
256
 0
LINE
 8
Layer0_S_
10
1224.31619421975
20
3.4659258262890673
30
5.639932965095795e-15
11
1224.0573751746479
21
3.499999999999999
31
5.639932965095795e-15
 62
256
 0
LINE
 8
Layer0_S_
10
1224.0573751746479
20
3.499999999999999
30
5.639932965095795e-15
11
1223.7985561295452
21
3.4659258262890673
31
5.639932965095795e-15
 62
256
 0
LINE
 8
Layer0_S_
10
1223.7985561295452
20
3.4659258262890673
30
5.639932965095795e-15
11
1223.5573751746476
21
3.36602540378444
31
5.639932965095795e-15
 62
256
 0
LINE
 8
Layer0_S_
10
1223.5573751746476
20
3.36602540378444
30
5.639932965095795e-15
11
1223.3502683934612
21
3.20710678118655
31
5.639932965095795e-15
 62
256
 0
LINE
 8
Layer0_S_
10
1223.3502683934612
20
3.20710678118655
30
5.639932965095795e-15
11
1223.1913497708633
21
3.0
31
5.639932965095795e-15
 62
256
 0
LINE
 8
Layer0_S_
10
1223.1913497708633
20
3.0
30
5.639932965095795e-15
11
1223.0914493483588
21
2.758819045102524
31
5.639932965095795e-15
 62
256
 0
LINE
 8
Layer0_S_
10
1216.3502683934612
20
1.7928932188134574
30
5.639932965095795e-15
11
1216.5573751746476
21
1.6339745962155676
31
5.639932965095795e-15
 62
256
 0
LINE
 8
Layer0_S_
10
1216.5573751746476
20
1.6339745962155676
30
5.639932965095795e-15
11
1216.7985561295452
21
1.5340741737109347
31
5.639932965095795e-15
 62
256
 0
LINE
 8
Layer0_S_
10
1216.7985561295452
20
1.5340741737109347
30
5.639932965095795e-15
11
1217.0573751746479
21
1.5000000000000029
31
5.639932965095795e-15
 62
256
 0
LINE
 8
Layer0_S_
10
1217.0573751746479
20
1.5000000000000029
30
5.639932965095795e-15
11
1217.3161942197503
21
1.5340741737109347
31
5.639932965095795e-15
 62
256
 0
LINE
 8
Layer0_S_
10
1217.3161942197503
20
1.5340741737109347
30
5.639932965095795e-15
11
1217.5573751746476
21
1.6339745962155618
31
5.639932965095795e-15
 62
256
 0
LINE
 8
Layer0_S_
10
1217.5573751746476
20
1.6339745962155618
30
5.639932965095795e-15
11
1217.764481955834
21
1.7928932188134519
31
5.639932965095795e-15
 62
256
 0
LINE
 8
Layer0_S_
10
1217.764481955834
20
1.7928932188134519
30
5.639932965095795e-15
11
1217.9234005784322
21
2.0000000000000018
31
5.639932965095795e-15
 62
256
 0
LINE
 8
Layer0_S_
10
1217.9234005784322
20
2.0000000000000018
30
5.639932965095795e-15
11
1218.0233010009367
21
2.2411809548974784
31
5.639932965095795e-15
 62
256
 0
LINE
 8
Layer0_S_
10
1218.0233010009367
20
2.2411809548974784
30
5.639932965095795e-15
11
1218.0573751746476
21
2.500000000000001
31
5.639932965095795e-15
 62
256
 0
LINE
 8
Layer0_S_
10
1218.0573751746476
20
2.500000000000001
30
5.639932965095795e-15
11
1218.0233010009367
21
2.758819045102518
31
5.639932965095795e-15
 62
256
 0
LINE
 8
Layer0_S_
10
1218.0233010009367
20
2.758819045102518
30
5.639932965095795e-15
11
1217.9234005784322
21
3.0
31
5.639932965095795e-15
 62
256
 0
LINE
 8
Layer0_S_
10
1217.9234005784322
20
3.0
30
5.639932965095795e-15
11
1217.764481955834
21
3.207106781186545
31
5.639932965095795e-15
 62
256
 0
LINE
 8
Layer0_S_
10
1217.764481955834
20
3.207106781186545
30
5.639932965095795e-15
11
1217.5573751746476
21
3.3660254037844344
31
5.639932965095795e-15
 62
256
 0
LINE
 8
Layer0_S_
10
1217.5573751746476
20
3.3660254037844344
30
5.639932965095795e-15
11
1217.3161942197503
21
3.4659258262890673
31
5.639932965095795e-15
 62
256
 0
LINE
 8
Layer0_S_
10
1217.3161942197503
20
3.4659258262890673
30
5.639932965095795e-15
11
1217.0573751746479
21
3.499999999999999
31
5.639932965095795e-15
 62
256
 0
LINE
 8
Layer0_S_
10
1217.0573751746479
20
3.499999999999999
30
5.639932965095795e-15
11
1216.7985561295452
21
3.4659258262890673
31
5.639932965095795e-15
 62
256
 0
LINE
 8
Layer0_S_
10
1216.7985561295452
20
3.4659258262890673
30
5.639932965095795e-15
11
1216.5573751746476
21
3.36602540378444
31
5.639932965095795e-15
 62
256
 0
LINE
 8
Layer0_S_
10
1216.5573751746476
20
3.36602540378444
30
5.639932965095795e-15
11
1216.3502683934612
21
3.20710678118655
31
5.639932965095795e-15
 62
256
 0
LINE
 8
Layer0_S_
10
1216.3502683934612
20
3.20710678118655
30
5.639932965095795e-15
11
1216.191349770863
21
3.0
31
5.639932965095795e-15
 62
256
 0
LINE
 8
Layer0_S_
10
1216.191349770863
20
3.0
30
5.639932965095795e-15
11
1216.0914493483585
21
2.758819045102524
31
5.639932965095795e-15
 62
256
 0
LINE
 8
Layer0_S_
10
1216.0914493483585
20
2.758819045102524
30
5.639932965095795e-15
11
1216.0573751746476
21
2.500000000000001
31
5.639932965095795e-15
 62
256
 0
LINE
 8
Layer0_S_
10
1216.0573751746476
20
2.500000000000001
30
5.639932965095795e-15
11
1216.0914493483585
21
2.241180954897484
31
5.639932965095795e-15
 62
256
 0
LINE
 8
Layer0_S_
10
1216.0914493483585
20
2.241180954897484
30
5.639932965095795e-15
11
1216.191349770863
21
2.0000000000000018
31
5.639932965095795e-15
 62
256
 0
LINE
 8
Layer0_S_
10
1216.191349770863
20
2.0000000000000018
30
5.639932965095795e-15
11
1216.3502683934612
21
1.7928932188134574
31
5.639932965095795e-15
 62
256
 0
LINE
 8
Layer0_S_
10
1149.5573751746479
20
12.0
30
5.639932965095795e-15
11
1149.6595976957806
21
12.77645713530756
31
5.639932965095795e-15
 62
256
 0
LINE
 8
Layer0_S_
10
1149.6595976957806
20
12.77645713530756
30
5.639932965095795e-15
11
1149.9592989632945
21
13.499999999999998
31
5.639932965095795e-15
 62
256
 0
LINE
 8
Layer0_S_
10
1149.9592989632945
20
13.499999999999998
30
5.639932965095795e-15
11
1150.436054831088
21
14.121320343559637
31
5.639932965095795e-15
 62
256
 0
LINE
 8
Layer0_S_
10
1150.436054831088
20
14.121320343559637
30
5.639932965095795e-15
11
1151.0573751746479
21
14.598076211353309
31
5.639932965095795e-15
 62
256
 0
LINE
 8
Layer0_S_
10
1151.0573751746479
20
14.598076211353309
30
5.639932965095795e-15
11
1151.7809180393401
21
14.897777478867196
31
5.639932965095795e-15
 62
256
 0
LINE
 8
Layer0_S_
10
1151.7809180393401
20
14.897777478867196
30
5.639932965095795e-15
11
1152.5573751746479
21
14.999999999999993
31
5.639932965095795e-15
 62
256
 0
LINE
 8
Layer0_S_
10
1152.5573751746479
20
14.999999999999993
30
5.639932965095795e-15
11
1153.3338323099551
21
14.897777478867196
31
5.639932965095795e-15
 62
256
 0
LINE
 8
Layer0_S_
10
1153.3338323099551
20
14.897777478867196
30
5.639932965095795e-15
11
1154.0573751746476
21
14.598076211353309
31
5.639932965095795e-15
 62
256
 0
LINE
 8
Layer0_S_
10
1154.0573751746476
20
14.598076211353309
30
5.639932965095795e-15
11
1154.6786955182074
21
14.121320343559637
31
5.639932965095795e-15
 62
256
 0
LINE
 8
Layer0_S_
10
1154.6786955182074
20
14.121320343559637
30
5.639932965095795e-15
11
1155.155451386001
21
13.499999999999998
31
5.639932965095795e-15
 62
256
 0
LINE
 8
Layer0_S_
10
1155.155451386001
20
13.499999999999998
30
5.639932965095795e-15
11
1155.455152653515
21
12.77645713530756
31
5.639932965095795e-15
 62
256
 0
LINE
 8
Layer0_S_
10
1155.455152653515
20
12.77645713530756
30
5.639932965095795e-15
11
1155.5573751746476
21
12.0
31
5.639932965095795e-15
 62
256
 0
LINE
 8
Layer0_S_
10
1155.5573751746476
20
12.0
30
5.639932965095795e-15
11
1155.455152653515
21
11.22354286469244
31
5.639932965095795e-15
 62
256
 0
LINE
 8
Layer0_S_
10
1155.455152653515
20
11.22354286469244
30
5.639932965095795e-15
11
1155.155451386001
21
10.500000000000005
31
5.639932965095795e-15
 62
256
 0
LINE
 8
Layer0_S_
10
1155.155451386001
20
10.500000000000005
30
5.639932965095795e-15
11
1154.6786955182074
21
9.878679656440363
31
5.639932965095795e-15
 62
256
 0
LINE
 8
Layer0_S_
10
1154.6786955182074
20
9.878679656440363
30
5.639932965095795e-15
11
1154.0573751746476
21
9.401923788646691
31
5.639932965095795e-15
 62
256
 0
LINE
 8
Layer0_S_
10
1154.0573751746476
20
9.401923788646691
30
5.639932965095795e-15
11
1153.3338323099551
21
9.102222521132804
31
5.639932965095795e-15
 62
256
 0
LINE
 8
Layer0_S_
10
1153.3338323099551
20
9.102222521132804
30
5.639932965095795e-15
11
1152.5573751746479
21
9.000000000000009
31
5.639932965095795e-15
 62
256
 0
LINE
 8
Layer0_S_
10
1152.5573751746479
20
9.000000000000009
30
5.639932965095795e-15
11
1151.7809180393401
21
9.102222521132804
31
5.639932965095795e-15
 62
256
 0
LINE
 8
Layer0_S_
10
1151.7809180393401
20
9.102222521132804
30
5.639932965095795e-15
11
1151.0573751746479
21
9.401923788646691
31
5.639932965095795e-15
 62
256
 0
LINE
 8
Layer0_S_
10
1151.0573751746479
20
9.401923788646691
30
5.639932965095795e-15
11
1150.436054831088
21
9.878679656440363
31
5.639932965095795e-15
 62
256
 0
LINE
 8
Layer0_S_
10
1150.436054831088
20
9.878679656440363
30
5.639932965095795e-15
11
1149.9592989632945
21
10.500000000000004
31
5.639932965095795e-15
 62
256
 0
LINE
 8
Layer0_S_
10
1149.9592989632945
20
10.500000000000004
30
5.639932965095795e-15
11
1149.6595976957806
21
11.223542864692439
31
5.639932965095795e-15
 62
256
 0
LINE
 8
Layer0_S_
10
1149.6595976957806
20
11.223542864692439
30
5.639932965095795e-15
11
1149.5573751746479
21
12.0
31
5.639932965095795e-15
 62
256
 0
LINE
 8
Layer0_S_
10
1310.5573751746476
20
12.0
30
5.639932965095795e-15
11
1310.6595976957803
21
12.776457135307563
31
5.639932965095795e-15
 62
256
 0
LINE
 8
Layer0_S_
10
1310.6595976957803
20
12.776457135307563
30
5.639932965095795e-15
11
1310.9592989632943
21
13.499999999999998
31
5.639932965095795e-15
 62
256
 0
LINE
 8
Layer0_S_
10
1310.9592989632943
20
13.499999999999998
30
5.639932965095795e-15
11
1311.436054831088
21
14.121320343559642
31
5.639932965095795e-15
 62
256
 0
LINE
 8
Layer0_S_
10
1311.436054831088
20
14.121320343559642
30
5.639932965095795e-15
11
1312.0573751746476
21
14.598076211353316
31
5.639932965095795e-15
 62
256
 0
LINE
 8
Layer0_S_
10
1312.0573751746476
20
14.598076211353316
30
5.639932965095795e-15
11
1312.7809180393401
21
14.897777478867203
31
5.639932965095795e-15
 62
256
 0
LINE
 8
Layer0_S_
10
1312.7809180393401
20
14.897777478867203
30
5.639932965095795e-15
11
1313.5573751746476
21
14.999999999999998
31
5.639932965095795e-15
 62
256
 0
LINE
 8
Layer0_S_
10
1313.5573751746476
20
14.999999999999998
30
5.639932965095795e-15
11
1314.3338323099551
21
14.897777478867203
31
5.639932965095795e-15
 62
256
 0
LINE
 8
Layer0_S_
10
1314.3338323099551
20
14.897777478867203
30
5.639932965095795e-15
11
1315.0573751746476
21
14.598076211353316
31
5.639932965095795e-15
 62
256
 0
LINE
 8
Layer0_S_
10
1315.0573751746476
20
14.598076211353316
30
5.639932965095795e-15
11
1315.6786955182072
21
14.121320343559642
31
5.639932965095795e-15
 62
256
 0
LINE
 8
Layer0_S_
10
1315.6786955182072
20
14.121320343559642
30
5.639932965095795e-15
11
1316.155451386001
21
13.5
31
5.639932965095795e-15
 62
256
 0
LINE
 8
Layer0_S_
10
1316.155451386001
20
13.5
30
5.639932965095795e-15
11
1316.455152653515
21
12.776457135307563
31
5.639932965095795e-15
 62
256
 0
LINE
 8
Layer0_S_
10
1316.455152653515
20
12.776457135307563
30
5.639932965095795e-15
11
1316.5573751746476
21
12.0
31
5.639932965095795e-15
 62
256
 0
LINE
 8
Layer0_S_
10
1316.5573751746476
20
12.0
30
5.639932965095795e-15
11
1316.455152653515
21
11.22354286469244
31
5.639932965095795e-15
 62
256
 0
LINE
 8
Layer0_S_
10
1316.455152653515
20
11.22354286469244
30
5.639932965095795e-15
11
1316.155451386001
21
10.500000000000004
31
5.639932965095795e-15
 62
256
 0
LINE
 8
Layer0_S_
10
1316.155451386001
20
10.500000000000004
30
5.639932965095795e-15
11
1315.6786955182072
21
9.878679656440362
31
5.639932965095795e-15
 62
256
 0
LINE
 8
Layer0_S_
10
1315.6786955182072
20
9.878679656440362
30
5.639932965095795e-15
11
1315.0573751746476
21
9.40192378864669
31
5.639932965095795e-15
 62
256
 0
LINE
 8
Layer0_S_
10
1315.0573751746476
20
9.40192378864669
30
5.639932965095795e-15
11
1314.3338323099551
21
9.102222521132799
31
5.639932965095795e-15
 62
256
 0
LINE
 8
Layer0_S_
10
1314.3338323099551
20
9.102222521132799
30
5.639932965095795e-15
11
1313.5573751746476
21
9.000000000000004
31
5.639932965095795e-15
 62
256
 0
LINE
 8
Layer0_S_
10
1313.5573751746476
20
9.000000000000004
30
5.639932965095795e-15
11
1312.7809180393401
21
9.102222521132799
31
5.639932965095795e-15
 62
256
 0
LINE
 8
Layer0_S_
10
1312.7809180393401
20
9.102222521132799
30
5.639932965095795e-15
11
1312.0573751746476
21
9.401923788646686
31
5.639932965095795e-15
 62
256
 0
LINE
 8
Layer0_S_
10
1312.0573751746476
20
9.401923788646686
30
5.639932965095795e-15
11
1311.436054831088
21
9.878679656440358
31
5.639932965095795e-15
 62
256
 0
LINE
 8
Layer0_S_
10
1311.436054831088
20
9.878679656440358
30
5.639932965095795e-15
11
1310.9592989632943
21
10.5
31
5.639932965095795e-15
 62
256
 0
LINE
 8
Layer0_S_
10
1310.9592989632943
20
10.5
30
5.639932965095795e-15
11
1310.6595976957803
21
11.223542864692439
31
5.639932965095795e-15
 62
256
 0
LINE
 8
Layer0_S_
10
1310.6595976957803
20
11.223542864692439
30
5.639932965095795e-15
11
1310.5573751746476
21
12.0
31
5.639932965095795e-15
 62
256
 0
LINE
 8
Layer0_S_
10
1202.5573751746479
20
28.0
30
5.6399329650957965e-15
11
1202.5573751746479
21
18.00000000000001
31
5.639932965095795e-15
 62
256
 0
LINE
 8
Layer0_S_
10
1252.5573751746479
20
18.000000000000053
30
0.0
11
1202.5573751746479
21
18.00000000000001
31
5.639932965095795e-15
 62
256
 0
LINE
 8
Layer0_S_
10
1252.5573751746474
20
50.5
30
2.8199664825478986e-15
11
1252.5573751746479
21
18.000000000000053
31
0.0
 62
256
 0
LINE
 8
Layer0_S_
10
1256.5573751746479
20
50.5
30
5.6399329650957965e-15
11
1252.5573751746474
21
50.5
31
2.8199664825478986e-15
 62
256
 0
LINE
 8
Layer0_S_
10
1256.5573751746479
20
24.000000000000004
30
5.639932965095795e-15
11
1256.5573751746479
21
50.5
31
5.6399329650957965e-15
 62
256
 0
LINE
 8
Layer0_S_
10
1301.5573751746476
20
18.0
30
5.639932965095795e-15
11
1262.5573751746479
21
18.0
31
5.639932965095795e-15
 62
256
 0
LINE
 8
Layer0_S_
10
1307.5573751746476
20
115.99999999999993
30
5.639932965095797e-15
11
1307.5573751746476
21
24.000000000000004
31
5.639932965095795e-15
 62
256
 0
LINE
 8
Layer0_S_
10
1301.5573751746476
20
121.99999999999991
30
5.639932965095797e-15
11
1164.5573751746479
21
121.99999999999993
31
5.639932965095797e-15
 62
256
 0
LINE
 8
Layer0_S_
10
1158.5573751746476
20
115.99999999999993
30
5.639932965095797e-15
11
1158.5573751746476
21
34.000000000000014
31
5.6399329650957965e-15
 62
256
 0
LINE
 8
Layer0_S_
10
1202.5573751746479
20
28.0
30
5.6399329650957965e-15
11
1164.5573751746479
21
28.0
31
5.6399329650957965e-15
 62
256
 0
LINE
 8
Layer0_S_
10
1262.5573751746479
20
18.0
30
5.639932965095795e-15
11
1261.7742180213274
21
18.05133083175714
31
5.639932965095795e-15
 62
256
 0
LINE
 8
Layer0_S_
10
1261.7742180213274
20
18.05133083175714
30
5.639932965095795e-15
11
1261.0044609040326
21
18.204445042265593
31
5.639932965095795e-15
 62
256
 0
LINE
 8
Layer0_S_
10
1261.0044609040326
20
18.204445042265593
30
5.639932965095795e-15
11
1260.2612745804574
21
18.456722804932284
31
5.639932965095795e-15
 62
256
 0
LINE
 8
Layer0_S_
10
1260.2612745804574
20
18.456722804932284
30
5.639932965095795e-15
11
1259.5573751746479
21
18.80384757729337
31
5.639932965095795e-15
 62
256
 0
LINE
 8
Layer0_S_
10
1259.5573751746479
20
18.80384757729337
30
5.639932965095795e-15
11
1258.9048066005955
21
19.239879958252594
31
5.639932965095795e-15
 62
256
 0
LINE
 8
Layer0_S_
10
1258.9048066005955
20
19.239879958252594
30
5.639932965095795e-15
11
1258.3147344875285
21
19.757359312880716
31
5.639932965095795e-15
 62
256
 0
LINE
 8
Layer0_S_
10
1258.3147344875285
20
19.757359312880716
30
5.639932965095795e-15
11
1257.7972551329005
21
20.34743142594768
31
5.639932965095795e-15
 62
256
 0
LINE
 8
Layer0_S_
10
1257.7972551329005
20
20.34743142594768
30
5.639932965095795e-15
11
1257.361222751941
21
21.000000000000004
31
5.639932965095795e-15
 62
256
 0
LINE
 8
Layer0_S_
10
1257.361222751941
20
21.000000000000004
30
5.639932965095795e-15
11
1257.0140979795801
21
21.703899405809466
31
5.639932965095795e-15
 62
256
 0
LINE
 8
Layer0_S_
10
1257.0140979795801
20
21.703899405809466
30
5.639932965095795e-15
11
1256.7618202169135
21
22.44708572938488
31
5.639932965095795e-15
 62
256
 0
LINE
 8
Layer0_S_
10
1256.7618202169135
20
22.44708572938488
30
5.639932965095795e-15
11
1256.6087060064049
21
23.216842846679693
31
5.639932965095795e-15
 62
256
 0
LINE
 8
Layer0_S_
10
1256.6087060064049
20
23.216842846679693
30
5.639932965095795e-15
11
1256.5573751746479
21
24.000000000000004
31
5.639932965095795e-15
 62
256
 0
LINE
 8
Layer0_S_
10
1301.5573751746476
20
18.0
30
5.639932965095795e-15
11
1302.340532327968
21
18.05133083175714
31
5.639932965095795e-15
 62
256
 0
LINE
 8
Layer0_S_
10
1302.340532327968
20
18.05133083175714
30
5.639932965095795e-15
11
1303.1102894452629
21
18.204445042265593
31
5.639932965095795e-15
 62
256
 0
LINE
 8
Layer0_S_
10
1303.1102894452629
20
18.204445042265593
30
5.639932965095795e-15
11
1303.8534757688383
21
18.456722804932284
31
5.639932965095795e-15
 62
256
 0
LINE
 8
Layer0_S_
10
1303.8534757688383
20
18.456722804932284
30
5.639932965095795e-15
11
1304.5573751746476
21
18.80384757729337
31
5.639932965095795e-15
 62
256
 0
LINE
 8
Layer0_S_
10
1304.5573751746476
20
18.80384757729337
30
5.639932965095795e-15
11
1305.2099437487
21
19.239879958252594
31
5.639932965095795e-15
 62
256
 0
LINE
 8
Layer0_S_
10
1305.2099437487
20
19.239879958252594
30
5.639932965095795e-15
11
1305.800015861767
21
19.75735931288072
31
5.6399329650957965e-15
 62
256
 0
LINE
 8
Layer0_S_
10
1305.800015861767
20
19.75735931288072
30
5.6399329650957965e-15
11
1306.317495216395
21
20.34743142594768
31
5.6399329650957965e-15
 62
256
 0
LINE
 8
Layer0_S_
10
1306.317495216395
20
20.34743142594768
30
5.6399329650957965e-15
11
1306.7535275973544
21
21.000000000000004
31
5.6399329650957965e-15
 62
256
 0
LINE
 8
Layer0_S_
10
1306.7535275973544
20
21.000000000000004
30
5.6399329650957965e-15
11
1307.1006523697154
21
21.703899405809466
31
5.6399329650957965e-15
 62
256
 0
LINE
 8
Layer0_S_
10
1307.1006523697154
20
21.703899405809466
30
5.6399329650957965e-15
11
1307.352930132382
21
22.44708572938488
31
5.6399329650957965e-15
 62
256
 0
LINE
 8
Layer0_S_
10
1307.352930132382
20
22.44708572938488
30
5.6399329650957965e-15
11
1307.5060443428906
21
23.216842846679693
31
5.6399329650957965e-15
 62
256
 0
LINE
 8
Layer0_S_
10
1307.5060443428906
20
23.216842846679693
30
5.6399329650957965e-15
11
1307.5573751746476
21
24.000000000000004
31
5.639932965095795e-15
 62
256
 0
LINE
 8
Layer0_S_
10
1307.5573751746476
20
115.99999999999993
30
5.639932965095797e-15
11
1307.5060443428906
21
116.78315715332023
31
5.639932965095797e-15
 62
256
 0
LINE
 8
Layer0_S_
10
1307.5060443428906
20
116.78315715332023
30
5.639932965095797e-15
11
1307.352930132382
21
117.55291427061506
31
5.639932965095797e-15
 62
256
 0
LINE
 8
Layer0_S_
10
1307.352930132382
20
117.55291427061506
30
5.639932965095797e-15
11
1307.1006523697154
21
118.29610059419046
31
5.639932965095797e-15
 62
256
 0
LINE
 8
Layer0_S_
10
1307.1006523697154
20
118.29610059419046
30
5.639932965095797e-15
11
1306.7535275973544
21
118.99999999999991
31
5.639932965095797e-15
 62
256
 0
LINE
 8
Layer0_S_
10
1306.7535275973544
20
118.99999999999991
30
5.639932965095797e-15
11
1306.317495216395
21
119.65256857405225
31
5.639932965095797e-15
 62
256
 0
LINE
 8
Layer0_S_
10
1306.317495216395
20
119.65256857405225
30
5.639932965095797e-15
11
1305.800015861767
21
120.24264068711922
31
5.639932965095797e-15
 62
256
 0
LINE
 8
Layer0_S_
10
1305.800015861767
20
120.24264068711922
30
5.639932965095797e-15
11
1305.2099437487
21
120.76012004174733
31
5.639932965095797e-15
 62
256
 0
LINE
 8
Layer0_S_
10
1305.2099437487
20
120.76012004174733
30
5.639932965095797e-15
11
1304.5573751746476
21
121.19615242270655
31
5.639932965095797e-15
 62
256
 0
LINE
 8
Layer0_S_
10
1304.5573751746476
20
121.19615242270655
30
5.639932965095797e-15
11
1303.8534757688383
21
121.54327719506765
31
5.639932965095797e-15
 62
256
 0
LINE
 8
Layer0_S_
10
1303.8534757688383
20
121.54327719506765
30
5.639932965095797e-15
11
1303.1102894452629
21
121.79555495773434
31
5.639932965095797e-15
 62
256
 0
LINE
 8
Layer0_S_
10
1303.1102894452629
20
121.79555495773434
30
5.639932965095797e-15
11
1302.340532327968
21
121.94866916824279
31
5.639932965095797e-15
 62
256
 0
LINE
 8
Layer0_S_
10
1302.340532327968
20
121.94866916824279
30
5.639932965095797e-15
11
1301.5573751746476
21
121.99999999999991
31
5.639932965095797e-15
 62
256
 0
LINE
 8
Layer0_S_
10
1158.5573751746476
20
115.99999999999993
30
5.639932965095797e-15
11
1158.6087060064049
21
116.78315715332023
31
5.639932965095797e-15
 62
256
 0
LINE
 8
Layer0_S_
10
1158.6087060064049
20
116.78315715332023
30
5.639932965095797e-15
11
1158.7618202169133
21
117.55291427061506
31
5.639932965095797e-15
 62
256
 0
LINE
 8
Layer0_S_
10
1158.7618202169133
20
117.55291427061506
30
5.639932965095797e-15
11
1159.0140979795801
21
118.29610059419048
31
5.639932965095797e-15
 62
256
 0
LINE
 8
Layer0_S_
10
1159.0140979795801
20
118.29610059419048
30
5.639932965095797e-15
11
1159.361222751941
21
118.99999999999994
31
5.639932965095797e-15
 62
256
 0
LINE
 8
Layer0_S_
10
1159.361222751941
20
118.99999999999994
30
5.639932965095797e-15
11
1159.7972551329003
21
119.65256857405225
31
5.639932965095797e-15
 62
256
 0
LINE
 8
Layer0_S_
10
1159.7972551329003
20
119.65256857405225
30
5.639932965095797e-15
11
1160.3147344875283
21
120.24264068711922
31
5.639932965095797e-15
 62
256
 0
LINE
 8
Layer0_S_
10
1160.3147344875283
20
120.24264068711922
30
5.639932965095797e-15
11
1160.9048066005953
21
120.76012004174736
31
5.639932965095797e-15
 62
256
 0
LINE
 8
Layer0_S_
10
1160.9048066005953
20
120.76012004174736
30
5.639932965095797e-15
11
1161.5573751746476
21
121.19615242270658
31
5.639932965095797e-15
 62
256
 0
LINE
 8
Layer0_S_
10
1161.5573751746476
20
121.19615242270658
30
5.639932965095797e-15
11
1162.2612745804572
21
121.54327719506766
31
5.639932965095797e-15
 62
256
 0
LINE
 8
Layer0_S_
10
1162.2612745804572
20
121.54327719506766
30
5.639932965095797e-15
11
1163.0044609040326
21
121.79555495773434
31
5.639932965095797e-15
 62
256
 0
LINE
 8
Layer0_S_
10
1163.0044609040326
20
121.79555495773434
30
5.639932965095797e-15
11
1163.7742180213274
21
121.9486691682428
31
5.639932965095797e-15
 62
256
 0
LINE
 8
Layer0_S_
10
1163.7742180213274
20
121.9486691682428
30
5.639932965095797e-15
11
1164.5573751746479
21
121.99999999999993
31
5.639932965095797e-15
 62
256
 0
LINE
 8
Layer0_S_
10
1164.5573751746479
20
28.0
30
5.6399329650957965e-15
11
1163.7742180213274
21
28.051330831757138
31
5.6399329650957965e-15
 62
256
 0
LINE
 8
Layer0_S_
10
1163.7742180213274
20
28.051330831757138
30
5.6399329650957965e-15
11
1163.0044609040326
21
28.204445042265597
31
5.6399329650957965e-15
 62
256
 0
LINE
 8
Layer0_S_
10
1163.0044609040326
20
28.204445042265597
30
5.6399329650957965e-15
11
1162.2612745804572
21
28.456722804932284
31
5.6399329650957965e-15
 62
256
 0
LINE
 8
Layer0_S_
10
1162.2612745804572
20
28.456722804932284
30
5.6399329650957965e-15
11
1161.5573751746476
21
28.80384757729337
31
5.6399329650957965e-15
 62
256
 0
LINE
 8
Layer0_S_
10
1161.5573751746476
20
28.80384757729337
30
5.6399329650957965e-15
11
1160.9048066005953
21
29.239879958252594
31
5.6399329650957965e-15
 62
256
 0
LINE
 8
Layer0_S_
10
1160.9048066005953
20
29.239879958252594
30
5.6399329650957965e-15
11
1160.3147344875283
21
29.75735931288072
31
5.6399329650957965e-15
 62
256
 0
LINE
 8
Layer0_S_
10
1160.3147344875283
20
29.75735931288072
30
5.6399329650957965e-15
11
1159.7972551329003
21
30.347431425947683
31
5.6399329650957965e-15
 62
256
 0
LINE
 8
Layer0_S_
10
1159.7972551329003
20
30.347431425947683
30
5.6399329650957965e-15
11
1159.361222751941
21
31.000000000000004
31
5.6399329650957965e-15
 62
256
 0
LINE
 8
Layer0_S_
10
1159.361222751941
20
31.000000000000004
30
5.6399329650957965e-15
11
1159.0140979795801
21
31.703899405809473
31
5.6399329650957965e-15
 62
256
 0
LINE
 8
Layer0_S_
10
1159.0140979795801
20
31.703899405809473
30
5.6399329650957965e-15
11
1158.7618202169133
21
32.44708572938488
31
5.6399329650957965e-15
 62
256
 0
LINE
 8
Layer0_S_
10
1158.7618202169133
20
32.44708572938488
30
5.6399329650957965e-15
11
1158.6087060064049
21
33.2168428466797
31
5.6399329650957965e-15
 62
256
 0
LINE
 8
Layer0_S_
10
1158.6087060064049
20
33.2168428466797
30
5.6399329650957965e-15
11
1158.5573751746476
21
34.000000000000014
31
5.6399329650957965e-15
 62
256
 0
ENDSEC
 0
EOF
