 0
SECTION
 2
HEADER
 9
$ACADVER
 1
AC1006
 9
$LTSCALE
 40
1000.0
 0
ENDSEC
 0
SECTION
 2
TABLES
 0
TABLE
 2
LTYPE
 70
1
 0
LTYPE
 2
SKEMA_SOLID
 70
64
 3
Sketchup - Skema Ltype
 72
65
 73
0
 40
0.000000
 0
LTYPE
 2
SKEMA_DASHED
 70
64
 3
Sketchup - Skema Ltype
 72
65
 73
2
 40
0.1
 49
0.05
 49
-0.05
 0
LTYPE
 2
SKEMA_DOTTED
 70
64
 3
Sketchup - Skema Ltype
 72
65
 73
2
 40
00.1
 49
0.0
 49
-00.1
 0
ENDTAB
 0
TABLE
 2
LAYER
 70
6
 0
LAYER
 2
Layer0_S_
 70
64
 62
20
 6
SKEMA_SOLID
 0
ENDTAB
 0
TABLE
 2
STYLE
 70
0
 0
ENDTAB
 0
ENDSEC
 0
SECTION
 2
BLOCKS
 0
ENDSEC
 0
SECTION
 2
ENTITIES
 0
LINE
 8
Layer0_S_
10
3148.532781730281
20
0.0
30
0.0
11
3309.532781730281
21
0.0
31
0.0
 62
256
 0
LINE
 8
Layer0_S_
10
3136.532781730281
20
127.99999999999993
30
0.0
11
3136.532781730281
21
12.0
31
0.0
 62
256
 0
LINE
 8
Layer0_S_
10
3309.532781730281
20
139.99999999999991
30
0.0
11
3148.532781730281
21
139.99999999999991
31
0.0
 62
256
 0
LINE
 8
Layer0_S_
10
3321.532781730281
20
12.0
30
0.0
11
3321.532781730281
21
127.99999999999993
31
0.0
 62
256
 0
LINE
 8
Layer0_S_
10
3148.532781730281
20
0.0
30
0.0
11
3146.96646742364
21
0.10266166351427745
31
0.0
 62
256
 0
LINE
 8
Layer0_S_
10
3146.96646742364
20
0.10266166351427745
30
0.0
11
3145.426953189051
21
0.40889008453118103
31
0.0
 62
256
 0
LINE
 8
Layer0_S_
10
3145.426953189051
20
0.40889008453118103
30
0.0
11
3143.9405805418996
21
0.9134456098645543
31
0.0
 62
256
 0
LINE
 8
Layer0_S_
10
3143.9405805418996
20
0.9134456098645543
30
0.0
11
3142.532781730281
21
1.6076951545867417
31
0.0
 62
256
 0
LINE
 8
Layer0_S_
10
3142.532781730281
20
1.6076951545867417
30
0.0
11
3141.2276445821767
21
2.4797599165051807
31
0.0
 62
256
 0
LINE
 8
Layer0_S_
10
3141.2276445821767
20
2.4797599165051807
30
0.0
11
3140.0475003560423
21
3.514718625761432
31
0.0
 62
256
 0
LINE
 8
Layer0_S_
10
3140.0475003560423
20
3.514718625761432
30
0.0
11
3139.0125416467863
21
4.694862851895357
31
0.0
 62
256
 0
LINE
 8
Layer0_S_
10
3139.0125416467863
20
4.694862851895357
30
0.0
11
3138.140476884868
21
6.0
31
0.0
 62
256
 0
LINE
 8
Layer0_S_
10
3138.140476884868
20
6.0
30
0.0
11
3137.4462273401455
21
7.407798811618921
31
0.0
 62
256
 0
LINE
 8
Layer0_S_
10
3137.4462273401455
20
7.407798811618921
30
0.0
11
3136.9416718148123
21
8.89417145876975
31
0.0
 62
256
 0
LINE
 8
Layer0_S_
10
3136.9416718148123
20
8.89417145876975
30
0.0
11
3136.6354433937954
21
10.433685693359385
31
0.0
 62
256
 0
LINE
 8
Layer0_S_
10
3136.6354433937954
20
10.433685693359385
30
0.0
11
3136.532781730281
21
12.0
31
0.0
 62
256
 0
LINE
 8
Layer0_S_
10
3148.532781730281
20
139.99999999999991
30
0.0
11
3146.96646742364
21
139.89733833648563
31
0.0
 62
256
 0
LINE
 8
Layer0_S_
10
3146.96646742364
20
139.89733833648563
30
0.0
11
3145.426953189051
21
139.5911099154687
31
0.0
 62
256
 0
LINE
 8
Layer0_S_
10
3145.426953189051
20
139.5911099154687
30
0.0
11
3143.9405805418996
21
139.08655439013535
31
0.0
 62
256
 0
LINE
 8
Layer0_S_
10
3143.9405805418996
20
139.08655439013535
30
0.0
11
3142.532781730281
21
138.3923048454132
31
0.0
 62
256
 0
LINE
 8
Layer0_S_
10
3142.532781730281
20
138.3923048454132
30
0.0
11
3141.2276445821767
21
137.52024008349474
31
0.0
 62
256
 0
LINE
 8
Layer0_S_
10
3141.2276445821767
20
137.52024008349474
30
0.0
11
3140.0475003560423
21
136.4852813742385
31
0.0
 62
256
 0
LINE
 8
Layer0_S_
10
3140.0475003560423
20
136.4852813742385
30
0.0
11
3139.0125416467863
21
135.30513714810456
31
0.0
 62
256
 0
LINE
 8
Layer0_S_
10
3139.0125416467863
20
135.30513714810456
30
0.0
11
3138.140476884868
21
133.99999999999994
31
0.0
 62
256
 0
LINE
 8
Layer0_S_
10
3138.140476884868
20
133.99999999999994
30
0.0
11
3137.4462273401455
21
132.592201188381
31
0.0
 62
256
 0
LINE
 8
Layer0_S_
10
3137.4462273401455
20
132.592201188381
30
0.0
11
3136.9416718148123
21
131.10582854123018
31
0.0
 62
256
 0
LINE
 8
Layer0_S_
10
3136.9416718148123
20
131.10582854123018
30
0.0
11
3136.6354433937954
21
129.56631430664052
31
0.0
 62
256
 0
LINE
 8
Layer0_S_
10
3136.6354433937954
20
129.56631430664052
30
0.0
11
3136.532781730281
21
127.99999999999993
31
0.0
 62
256
 0
LINE
 8
Layer0_S_
10
3309.532781730281
20
139.99999999999991
30
0.0
11
3311.0990960369218
21
139.89733833648563
31
0.0
 62
256
 0
LINE
 8
Layer0_S_
10
3311.0990960369218
20
139.89733833648563
30
0.0
11
3312.638610271511
21
139.5911099154687
31
0.0
 62
256
 0
LINE
 8
Layer0_S_
10
3312.638610271511
20
139.5911099154687
30
0.0
11
3314.1249829186618
21
139.08655439013535
31
0.0
 62
256
 0
LINE
 8
Layer0_S_
10
3314.1249829186618
20
139.08655439013535
30
0.0
11
3315.532781730281
21
138.3923048454132
31
0.0
 62
256
 0
LINE
 8
Layer0_S_
10
3315.532781730281
20
138.3923048454132
30
0.0
11
3316.8379188783856
21
137.52024008349474
31
0.0
 62
256
 0
LINE
 8
Layer0_S_
10
3316.8379188783856
20
137.52024008349474
30
0.0
11
3318.01806310452
21
136.4852813742385
31
0.0
 62
256
 0
LINE
 8
Layer0_S_
10
3318.01806310452
20
136.4852813742385
30
0.0
11
3319.0530218137756
21
135.30513714810456
31
0.0
 62
256
 0
LINE
 8
Layer0_S_
10
3319.0530218137756
20
135.30513714810456
30
0.0
11
3319.925086575694
21
133.99999999999994
31
0.0
 62
256
 0
LINE
 8
Layer0_S_
10
3319.925086575694
20
133.99999999999994
30
0.0
11
3320.6193361204164
21
132.592201188381
31
0.0
 62
256
 0
LINE
 8
Layer0_S_
10
3320.6193361204164
20
132.592201188381
30
0.0
11
3321.1238916457496
21
131.10582854123018
31
0.0
 62
256
 0
LINE
 8
Layer0_S_
10
3321.1238916457496
20
131.10582854123018
30
0.0
11
3321.4301200667664
21
129.56631430664052
31
0.0
 62
256
 0
LINE
 8
Layer0_S_
10
3321.4301200667664
20
129.56631430664052
30
0.0
11
3321.532781730281
21
127.99999999999993
31
0.0
 62
256
 0
LINE
 8
Layer0_S_
10
3309.532781730281
20
0.0
30
0.0
11
3311.0990960369218
21
0.10266166351427745
31
0.0
 62
256
 0
LINE
 8
Layer0_S_
10
3311.0990960369218
20
0.10266166351427745
30
0.0
11
3312.638610271511
21
0.40889008453118103
31
0.0
 62
256
 0
LINE
 8
Layer0_S_
10
3312.638610271511
20
0.40889008453118103
30
0.0
11
3314.1249829186618
21
0.9134456098645543
31
0.0
 62
256
 0
LINE
 8
Layer0_S_
10
3314.1249829186618
20
0.9134456098645543
30
0.0
11
3315.532781730281
21
1.6076951545867417
31
0.0
 62
256
 0
LINE
 8
Layer0_S_
10
3315.532781730281
20
1.6076951545867417
30
0.0
11
3316.8379188783856
21
2.4797599165051807
31
0.0
 62
256
 0
LINE
 8
Layer0_S_
10
3316.8379188783856
20
2.4797599165051807
30
0.0
11
3318.01806310452
21
3.514718625761432
31
0.0
 62
256
 0
LINE
 8
Layer0_S_
10
3318.01806310452
20
3.514718625761432
30
0.0
11
3319.0530218137756
21
4.694862851895357
31
0.0
 62
256
 0
LINE
 8
Layer0_S_
10
3319.0530218137756
20
4.694862851895357
30
0.0
11
3319.925086575694
21
6.0
31
0.0
 62
256
 0
LINE
 8
Layer0_S_
10
3319.925086575694
20
6.0
30
0.0
11
3320.6193361204164
21
7.407798811618921
31
0.0
 62
256
 0
LINE
 8
Layer0_S_
10
3320.6193361204164
20
7.407798811618921
30
0.0
11
3321.1238916457496
21
8.89417145876975
31
0.0
 62
256
 0
LINE
 8
Layer0_S_
10
3321.1238916457496
20
8.89417145876975
30
0.0
11
3321.4301200667664
21
10.433685693359385
31
0.0
 62
256
 0
LINE
 8
Layer0_S_
10
3321.4301200667664
20
10.433685693359385
30
0.0
11
3321.532781730281
21
12.0
31
0.0
 62
256
 0
LINE
 8
Layer0_S_
10
3309.532781730281
20
130.99999999999991
30
0.0
11
3310.3092388655887
21
130.89777747886714
31
0.0
 62
256
 0
LINE
 8
Layer0_S_
10
3310.3092388655887
20
130.89777747886714
30
0.0
11
3311.032781730281
21
130.59807621135326
31
0.0
 62
256
 0
LINE
 8
Layer0_S_
10
3311.032781730281
20
130.59807621135326
30
0.0
11
3311.6541020738405
21
130.12132034355955
31
0.0
 62
256
 0
LINE
 8
Layer0_S_
10
3311.6541020738405
20
130.12132034355955
30
0.0
11
3312.130857941634
21
129.49999999999991
31
0.0
 62
256
 0
LINE
 8
Layer0_S_
10
3312.130857941634
20
129.49999999999991
30
0.0
11
3312.430559209148
21
128.77645713530748
31
0.0
 62
256
 0
LINE
 8
Layer0_S_
10
3312.430559209148
20
128.77645713530748
30
0.0
11
3312.532781730281
21
127.99999999999993
31
0.0
 62
256
 0
LINE
 8
Layer0_S_
10
3312.532781730281
20
127.99999999999993
30
0.0
11
3312.430559209148
21
127.22354286469236
31
0.0
 62
256
 0
LINE
 8
Layer0_S_
10
3312.430559209148
20
127.22354286469236
30
0.0
11
3312.130857941634
21
126.49999999999993
31
0.0
 62
256
 0
LINE
 8
Layer0_S_
10
3312.130857941634
20
126.49999999999993
30
0.0
11
3311.6541020738405
21
125.8786796564403
31
0.0
 62
256
 0
LINE
 8
Layer0_S_
10
3311.6541020738405
20
125.8786796564403
30
0.0
11
3311.032781730281
21
125.4019237886466
31
0.0
 62
256
 0
LINE
 8
Layer0_S_
10
3311.032781730281
20
125.4019237886466
30
0.0
11
3310.3092388655887
21
125.10222252113272
31
0.0
 62
256
 0
LINE
 8
Layer0_S_
10
3310.3092388655887
20
125.10222252113272
30
0.0
11
3309.532781730281
21
124.99999999999993
31
0.0
 62
256
 0
LINE
 8
Layer0_S_
10
3309.532781730281
20
124.99999999999993
30
0.0
11
3308.7563245949736
21
125.10222252113272
31
0.0
 62
256
 0
LINE
 8
Layer0_S_
10
3308.7563245949736
20
125.10222252113272
30
0.0
11
3308.032781730281
21
125.4019237886466
31
0.0
 62
256
 0
LINE
 8
Layer0_S_
10
3308.032781730281
20
125.4019237886466
30
0.0
11
3307.411461386721
21
125.8786796564403
31
0.0
 62
256
 0
LINE
 8
Layer0_S_
10
3307.411461386721
20
125.8786796564403
30
0.0
11
3306.934705518928
21
126.49999999999993
31
0.0
 62
256
 0
LINE
 8
Layer0_S_
10
3306.934705518928
20
126.49999999999993
30
0.0
11
3306.635004251414
21
127.22354286469235
31
0.0
 62
256
 0
LINE
 8
Layer0_S_
10
3306.635004251414
20
127.22354286469235
30
0.0
11
3306.532781730281
21
127.99999999999993
31
0.0
 62
256
 0
LINE
 8
Layer0_S_
10
3306.532781730281
20
127.99999999999993
30
0.0
11
3306.635004251414
21
128.77645713530748
31
0.0
 62
256
 0
LINE
 8
Layer0_S_
10
3306.635004251414
20
128.77645713530748
30
0.0
11
3306.934705518928
21
129.49999999999991
31
0.0
 62
256
 0
LINE
 8
Layer0_S_
10
3306.934705518928
20
129.49999999999991
30
0.0
11
3307.411461386721
21
130.12132034355955
31
0.0
 62
256
 0
LINE
 8
Layer0_S_
10
3307.411461386721
20
130.12132034355955
30
0.0
11
3308.032781730281
21
130.59807621135326
31
0.0
 62
256
 0
LINE
 8
Layer0_S_
10
3308.032781730281
20
130.59807621135326
30
0.0
11
3308.7563245949736
21
130.89777747886714
31
0.0
 62
256
 0
LINE
 8
Layer0_S_
10
3308.7563245949736
20
130.89777747886714
30
0.0
11
3309.532781730281
21
130.99999999999991
31
0.0
 62
256
 0
LINE
 8
Layer0_S_
10
3308.032781730281
20
14.598076211353312
30
0.0
11
3308.7563245949736
21
14.897777478867205
31
0.0
 62
256
 0
LINE
 8
Layer0_S_
10
3308.7563245949736
20
14.897777478867205
30
0.0
11
3309.532781730281
21
14.999999999999995
31
0.0
 62
256
 0
LINE
 8
Layer0_S_
10
3309.532781730281
20
14.999999999999995
30
0.0
11
3310.3092388655887
21
14.897777478867205
31
0.0
 62
256
 0
LINE
 8
Layer0_S_
10
3310.3092388655887
20
14.897777478867205
30
0.0
11
3311.032781730281
21
14.598076211353312
31
0.0
 62
256
 0
LINE
 8
Layer0_S_
10
3311.032781730281
20
14.598076211353312
30
0.0
11
3311.6541020738405
21
14.121320343559649
31
0.0
 62
256
 0
LINE
 8
Layer0_S_
10
3311.6541020738405
20
14.121320343559649
30
0.0
11
3312.130857941634
21
13.499999999999998
31
0.0
 62
256
 0
LINE
 8
Layer0_S_
10
3312.130857941634
20
13.499999999999998
30
0.0
11
3312.430559209148
21
12.776457135307568
31
0.0
 62
256
 0
LINE
 8
Layer0_S_
10
3312.430559209148
20
12.776457135307568
30
0.0
11
3312.532781730281
21
12.0
31
0.0
 62
256
 0
LINE
 8
Layer0_S_
10
3312.532781730281
20
12.0
30
0.0
11
3312.430559209148
21
11.223542864692444
31
0.0
 62
256
 0
LINE
 8
Layer0_S_
10
3312.430559209148
20
11.223542864692444
30
0.0
11
3312.130857941634
21
10.500000000000004
31
0.0
 62
256
 0
LINE
 8
Layer0_S_
10
3312.130857941634
20
10.500000000000004
30
0.0
11
3311.6541020738405
21
9.878679656440363
31
0.0
 62
256
 0
LINE
 8
Layer0_S_
10
3311.6541020738405
20
9.878679656440363
30
0.0
11
3311.032781730281
21
9.40192378864669
31
0.0
 62
256
 0
LINE
 8
Layer0_S_
10
3311.032781730281
20
9.40192378864669
30
0.0
11
3310.3092388655887
21
9.102222521132795
31
0.0
 62
256
 0
LINE
 8
Layer0_S_
10
3310.3092388655887
20
9.102222521132795
30
0.0
11
3309.532781730281
21
9.000000000000005
31
0.0
 62
256
 0
LINE
 8
Layer0_S_
10
3309.532781730281
20
9.000000000000005
30
0.0
11
3308.7563245949736
21
9.102222521132795
31
0.0
 62
256
 0
LINE
 8
Layer0_S_
10
3308.7563245949736
20
9.102222521132795
30
0.0
11
3308.032781730281
21
9.40192378864669
31
0.0
 62
256
 0
LINE
 8
Layer0_S_
10
3308.032781730281
20
9.40192378864669
30
0.0
11
3307.411461386721
21
9.878679656440353
31
0.0
 62
256
 0
LINE
 8
Layer0_S_
10
3307.411461386721
20
9.878679656440353
30
0.0
11
3306.934705518928
21
10.500000000000004
31
0.0
 62
256
 0
LINE
 8
Layer0_S_
10
3306.934705518928
20
10.500000000000004
30
0.0
11
3306.635004251414
21
11.223542864692432
31
0.0
 62
256
 0
LINE
 8
Layer0_S_
10
3306.635004251414
20
11.223542864692432
30
0.0
11
3306.532781730281
21
12.0
31
0.0
 62
256
 0
LINE
 8
Layer0_S_
10
3306.532781730281
20
12.0
30
0.0
11
3306.635004251414
21
12.776457135307558
31
0.0
 62
256
 0
LINE
 8
Layer0_S_
10
3306.635004251414
20
12.776457135307558
30
0.0
11
3306.934705518928
21
13.499999999999998
31
0.0
 62
256
 0
LINE
 8
Layer0_S_
10
3306.934705518928
20
13.499999999999998
30
0.0
11
3307.411461386721
21
14.121320343559637
31
0.0
 62
256
 0
LINE
 8
Layer0_S_
10
3307.411461386721
20
14.121320343559637
30
0.0
11
3308.032781730281
21
14.598076211353312
31
0.0
 62
256
 0
LINE
 8
Layer0_S_
10
3145.532781730281
20
12.0
30
0.0
11
3145.635004251414
21
12.776457135307558
31
0.0
 62
256
 0
LINE
 8
Layer0_S_
10
3145.635004251414
20
12.776457135307558
30
0.0
11
3145.934705518928
21
13.499999999999998
31
0.0
 62
256
 0
LINE
 8
Layer0_S_
10
3145.934705518928
20
13.499999999999998
30
0.0
11
3146.4114613867214
21
14.121320343559637
31
0.0
 62
256
 0
LINE
 8
Layer0_S_
10
3146.4114613867214
20
14.121320343559637
30
0.0
11
3147.032781730281
21
14.598076211353312
31
0.0
 62
256
 0
LINE
 8
Layer0_S_
10
3147.032781730281
20
14.598076211353312
30
0.0
11
3147.7563245949736
21
14.897777478867194
31
0.0
 62
256
 0
LINE
 8
Layer0_S_
10
3147.7563245949736
20
14.897777478867194
30
0.0
11
3148.532781730281
21
14.999999999999995
31
0.0
 62
256
 0
LINE
 8
Layer0_S_
10
3148.532781730281
20
14.999999999999995
30
0.0
11
3149.3092388655887
21
14.897777478867194
31
0.0
 62
256
 0
LINE
 8
Layer0_S_
10
3149.3092388655887
20
14.897777478867194
30
0.0
11
3150.032781730281
21
14.598076211353312
31
0.0
 62
256
 0
LINE
 8
Layer0_S_
10
3150.032781730281
20
14.598076211353312
30
0.0
11
3150.6541020738405
21
14.121320343559637
31
0.0
 62
256
 0
LINE
 8
Layer0_S_
10
3150.6541020738405
20
14.121320343559637
30
0.0
11
3151.1308579416345
21
13.499999999999998
31
0.0
 62
256
 0
LINE
 8
Layer0_S_
10
3151.1308579416345
20
13.499999999999998
30
0.0
11
3151.430559209148
21
12.776457135307558
31
0.0
 62
256
 0
LINE
 8
Layer0_S_
10
3151.430559209148
20
12.776457135307558
30
0.0
11
3151.532781730281
21
12.0
31
0.0
 62
256
 0
LINE
 8
Layer0_S_
10
3151.532781730281
20
12.0
30
0.0
11
3151.430559209148
21
11.223542864692444
31
0.0
 62
256
 0
LINE
 8
Layer0_S_
10
3151.430559209148
20
11.223542864692444
30
0.0
11
3151.1308579416345
21
10.500000000000004
31
0.0
 62
256
 0
LINE
 8
Layer0_S_
10
3151.1308579416345
20
10.500000000000004
30
0.0
11
3150.6541020738405
21
9.878679656440363
31
0.0
 62
256
 0
LINE
 8
Layer0_S_
10
3150.6541020738405
20
9.878679656440363
30
0.0
11
3150.032781730281
21
9.40192378864669
31
0.0
 62
256
 0
LINE
 8
Layer0_S_
10
3150.032781730281
20
9.40192378864669
30
0.0
11
3149.3092388655887
21
9.102222521132807
31
0.0
 62
256
 0
LINE
 8
Layer0_S_
10
3149.3092388655887
20
9.102222521132807
30
0.0
11
3148.532781730281
21
9.000000000000005
31
0.0
 62
256
 0
LINE
 8
Layer0_S_
10
3148.532781730281
20
9.000000000000005
30
0.0
11
3147.7563245949736
21
9.102222521132807
31
0.0
 62
256
 0
LINE
 8
Layer0_S_
10
3147.7563245949736
20
9.102222521132807
30
0.0
11
3147.032781730281
21
9.40192378864669
31
0.0
 62
256
 0
LINE
 8
Layer0_S_
10
3147.032781730281
20
9.40192378864669
30
0.0
11
3146.4114613867214
21
9.878679656440363
31
0.0
 62
256
 0
LINE
 8
Layer0_S_
10
3146.4114613867214
20
9.878679656440363
30
0.0
11
3145.934705518928
21
10.500000000000004
31
0.0
 62
256
 0
LINE
 8
Layer0_S_
10
3145.934705518928
20
10.500000000000004
30
0.0
11
3145.635004251414
21
11.223542864692444
31
0.0
 62
256
 0
LINE
 8
Layer0_S_
10
3145.635004251414
20
11.223542864692444
30
0.0
11
3145.532781730281
21
12.0
31
0.0
 62
256
 0
LINE
 8
Layer0_S_
10
3151.430559209148
20
127.22354286469236
30
0.0
11
3151.1308579416345
21
126.49999999999993
31
0.0
 62
256
 0
LINE
 8
Layer0_S_
10
3151.1308579416345
20
126.49999999999993
30
0.0
11
3150.6541020738405
21
125.8786796564403
31
0.0
 62
256
 0
LINE
 8
Layer0_S_
10
3150.6541020738405
20
125.8786796564403
30
0.0
11
3150.032781730281
21
125.4019237886466
31
0.0
 62
256
 0
LINE
 8
Layer0_S_
10
3150.032781730281
20
125.4019237886466
30
0.0
11
3149.3092388655887
21
125.10222252113275
31
0.0
 62
256
 0
LINE
 8
Layer0_S_
10
3149.3092388655887
20
125.10222252113275
30
0.0
11
3148.532781730281
21
124.99999999999993
31
0.0
 62
256
 0
LINE
 8
Layer0_S_
10
3148.532781730281
20
124.99999999999993
30
0.0
11
3147.7563245949736
21
125.10222252113272
31
0.0
 62
256
 0
LINE
 8
Layer0_S_
10
3147.7563245949736
20
125.10222252113272
30
0.0
11
3147.032781730281
21
125.4019237886466
31
0.0
 62
256
 0
LINE
 8
Layer0_S_
10
3147.032781730281
20
125.4019237886466
30
0.0
11
3146.4114613867214
21
125.87867965644027
31
0.0
 62
256
 0
LINE
 8
Layer0_S_
10
3146.4114613867214
20
125.87867965644027
30
0.0
11
3145.934705518928
21
126.49999999999993
31
0.0
 62
256
 0
LINE
 8
Layer0_S_
10
3145.934705518928
20
126.49999999999993
30
0.0
11
3145.635004251414
21
127.22354286469235
31
0.0
 62
256
 0
LINE
 8
Layer0_S_
10
3145.635004251414
20
127.22354286469235
30
0.0
11
3145.532781730281
21
127.9999999999999
31
0.0
 62
256
 0
LINE
 8
Layer0_S_
10
3145.532781730281
20
127.9999999999999
30
0.0
11
3145.635004251414
21
128.77645713530748
31
0.0
 62
256
 0
LINE
 8
Layer0_S_
10
3145.635004251414
20
128.77645713530748
30
0.0
11
3145.934705518928
21
129.49999999999991
31
0.0
 62
256
 0
LINE
 8
Layer0_S_
10
3145.934705518928
20
129.49999999999991
30
0.0
11
3146.4114613867214
21
130.12132034355955
31
0.0
 62
256
 0
LINE
 8
Layer0_S_
10
3146.4114613867214
20
130.12132034355955
30
0.0
11
3147.032781730281
21
130.59807621135326
31
0.0
 62
256
 0
LINE
 8
Layer0_S_
10
3147.032781730281
20
130.59807621135326
30
0.0
11
3147.7563245949736
21
130.8977774788671
31
0.0
 62
256
 0
LINE
 8
Layer0_S_
10
3147.7563245949736
20
130.8977774788671
30
0.0
11
3148.532781730281
21
130.99999999999991
31
0.0
 62
256
 0
LINE
 8
Layer0_S_
10
3148.532781730281
20
130.99999999999991
30
0.0
11
3149.3092388655887
21
130.89777747886714
31
0.0
 62
256
 0
LINE
 8
Layer0_S_
10
3149.3092388655887
20
130.89777747886714
30
0.0
11
3150.032781730281
21
130.59807621135326
31
0.0
 62
256
 0
LINE
 8
Layer0_S_
10
3150.032781730281
20
130.59807621135326
30
0.0
11
3150.6541020738405
21
130.12132034355957
31
0.0
 62
256
 0
LINE
 8
Layer0_S_
10
3150.6541020738405
20
130.12132034355957
30
0.0
11
3151.1308579416345
21
129.49999999999991
31
0.0
 62
256
 0
LINE
 8
Layer0_S_
10
3151.1308579416345
20
129.49999999999991
30
0.0
11
3151.430559209148
21
128.7764571353075
31
0.0
 62
256
 0
LINE
 8
Layer0_S_
10
3151.430559209148
20
128.7764571353075
30
0.0
11
3151.532781730281
21
127.99999999999994
31
0.0
 62
256
 0
LINE
 8
Layer0_S_
10
3151.532781730281
20
127.99999999999994
30
0.0
11
3151.430559209148
21
127.22354286469236
31
0.0
 62
256
 0
ENDSEC
 0
EOF
