 0
SECTION
 2
HEADER
 9
$ACADVER
 1
AC1006
 9
$LTSCALE
 40
1000.0
 0
ENDSEC
 0
SECTION
 2
TABLES
 0
TABLE
 2
LTYPE
 70
1
 0
LTYPE
 2
SKEMA_SOLID
 70
64
 3
Sketchup - Skema Ltype
 72
65
 73
0
 40
0.000000
 0
LTYPE
 2
SKEMA_DASHED
 70
64
 3
Sketchup - Skema Ltype
 72
65
 73
2
 40
0.1
 49
0.05
 49
-0.05
 0
LTYPE
 2
SKEMA_DOTTED
 70
64
 3
Sketchup - Skema Ltype
 72
65
 73
2
 40
00.1
 49
0.0
 49
-00.1
 0
ENDTAB
 0
TABLE
 2
LAYER
 70
6
 0
LAYER
 2
Layer0_S_
 70
64
 62
20
 6
SKEMA_SOLID
 0
ENDTAB
 0
TABLE
 2
STYLE
 70
0
 0
ENDTAB
 0
ENDSEC
 0
SECTION
 2
BLOCKS
 0
ENDSEC
 0
SECTION
 2
ENTITIES
 0
LINE
 8
Layer0_S_
10
2452.114750349295
20
139.99999999999991
30
0.0
11
2295.1147503492953
21
139.99999999999991
31
1.6919798895287383e-14
 62
256
 0
LINE
 8
Layer0_S_
10
2452.114750349295
20
139.99999999999991
30
0.0
11
2452.098001913706
21
132.57522958413549
31
1.7229830227516978e-14
 62
256
 0
LINE
 8
Layer0_S_
10
2456.1147503492953
20
139.81107288852087
30
1.6928889594778566e-14
11
2456.131498784884
21
132.57522958413549
31
1.598144942110863e-14
 62
256
 0
LINE
 8
Layer0_S_
10
2466.1147503492953
20
12.000000000000012
30
6.159039461098713e-15
11
2466.1147503492953
21
127.99999999999994
31
5.774099494780062e-16
 62
256
 0
LINE
 8
Layer0_S_
10
2293.1147503492953
20
0.0
30
6.736449410576719e-15
11
2454.1147503492953
21
1.127986593019159e-14
31
6.736449410576719e-15
 62
256
 0
LINE
 8
Layer0_S_
10
2281.1147503492953
20
127.99999999999994
30
5.774099494780062e-16
11
2281.1147503492953
21
12.0
31
6.159039461098713e-15
 62
256
 0
LINE
 8
Layer0_S_
10
2291.1147503492953
20
139.81107288852087
30
9.090699491179398e-18
11
2291.0980019137064
21
132.57522958413549
31
1.1589897262421188e-14
 62
256
 0
LINE
 8
Layer0_S_
10
2295.1147503492953
20
139.99999999999991
30
1.6919798895287383e-14
11
2295.131498784884
21
132.57522958413549
31
1.0341516456012838e-14
 62
256
 0
LINE
 8
Layer0_S_
10
2452.098001913706
20
132.57522958413549
30
1.7229830227516978e-14
11
2451.0372087620894
21
131.94065194847494
31
1.846405901458562e-14
 62
256
 0
LINE
 8
Layer0_S_
10
2451.0372087620894
20
131.94065194847494
30
1.846405901458562e-14
11
2450.1645113683253
21
131.0652262548181
31
1.998390118005307e-14
 62
256
 0
LINE
 8
Layer0_S_
10
2450.1645113683253
20
131.0652262548181
30
1.998390118005307e-14
11
2449.533247980819
21
130.00245750208254
31
2.1696465740701358e-14
 62
256
 0
LINE
 8
Layer0_S_
10
2449.533247980819
20
130.00245750208254
30
2.1696465740701358e-14
11
2449.1820006826756
21
128.8173008787858
31
2.349708274495433e-14
 62
256
 0
LINE
 8
Layer0_S_
10
2449.1820006826756
20
128.8173008787858
30
2.349708274495433e-14
11
2449.132237299712
21
127.58219177756712
31
2.5275700578424394e-14
 62
256
 0
LINE
 8
Layer0_S_
10
2449.132237299712
20
127.58219177756712
30
2.5275700578424394e-14
11
2449.386999311943
21
126.37261862834409
31
2.6923612190423005e-14
 62
256
 0
LINE
 8
Layer0_S_
10
2449.386999311943
20
126.37261862834409
30
2.6923612190423005e-14
11
2449.9307159618643
21
125.26250913338623
31
2.8340099142303742e-14
 62
256
 0
LINE
 8
Layer0_S_
10
2449.9307159618643
20
125.26250913338623
30
2.8340099142303742e-14
11
2450.730155921019
21
124.31971189224505
31
2.943858740114054e-14
 62
256
 0
LINE
 8
Layer0_S_
10
2450.730155921019
20
124.31971189224505
30
2.943858740114054e-14
11
2451.7364583500935
21
123.60184957436256
31
3.015193864380013e-14
 62
256
 0
LINE
 8
Layer0_S_
10
2451.7364583500935
20
123.60184957436256
30
3.015193864380013e-14
11
2452.8881192165145
21
123.15279708861965
31
3.043655367306582e-14
 62
256
 0
LINE
 8
Layer0_S_
10
2452.8881192165145
20
123.15279708861965
30
3.043655367306582e-14
11
2454.1147503492953
21
122.99999999999993
31
3.027503714979795e-14
 62
256
 0
LINE
 8
Layer0_S_
10
2454.1147503492953
20
122.99999999999993
30
3.027503714979795e-14
11
2455.3413814820756
21
123.15279708861965
31
2.967726077580423e-14
 62
256
 0
LINE
 8
Layer0_S_
10
2455.3413814820756
20
123.15279708861965
30
2.967726077580423e-14
11
2456.4930423484966
21
123.60184957436256
31
2.867975994692142e-14
 62
256
 0
LINE
 8
Layer0_S_
10
2456.4930423484966
20
123.60184957436256
30
2.867975994692142e-14
11
2457.499344777571
21
124.31971189224505
31
2.734350075216915e-14
 62
256
 0
LINE
 8
Layer0_S_
10
2457.499344777571
20
124.31971189224505
30
2.734350075216915e-14
11
2458.2987847367267
21
125.26250913338623
31
2.5750153797387206e-14
 62
256
 0
LINE
 8
Layer0_S_
10
2458.2987847367267
20
125.26250913338623
30
2.5750153797387206e-14
11
2458.8425013866477
21
126.37261862834406
31
2.3997102592916297e-14
 62
256
 0
LINE
 8
Layer0_S_
10
2458.8425013866477
20
126.37261862834406
30
2.3997102592916297e-14
11
2459.0972633988786
21
127.58219177756712
31
2.2191491586854202e-14
 62
256
 0
LINE
 8
Layer0_S_
10
2459.0972633988786
20
127.58219177756712
30
2.2191491586854202e-14
11
2459.0475000159145
21
128.81730087878577
31
2.0443677621163333e-14
 62
256
 0
LINE
 8
Layer0_S_
10
2459.0475000159145
20
128.81730087878577
30
2.0443677621163333e-14
11
2458.6962527177716
21
130.00245750208254
31
1.886048505000627e-14
 62
256
 0
LINE
 8
Layer0_S_
10
2458.6962527177716
20
130.00245750208254
30
1.886048505000627e-14
11
2458.064989330265
21
131.0652262548181
31
1.7538676759621876e-14
 62
256
 0
LINE
 8
Layer0_S_
10
2458.064989330265
20
131.0652262548181
30
1.7538676759621876e-14
11
2457.1922919365006
21
131.94065194847494
31
1.6559040133403813e-14
 62
256
 0
LINE
 8
Layer0_S_
10
2457.1922919365006
20
131.94065194847494
30
1.6559040133403813e-14
11
2456.131498784884
21
132.57522958413549
31
1.598144942110863e-14
 62
256
 0
LINE
 8
Layer0_S_
10
2456.1147503492953
20
139.81107288852087
30
1.6928889594778566e-14
11
2457.6069798963163
21
139.48060681283482
31
1.694479079478407e-14
 62
256
 0
LINE
 8
Layer0_S_
10
2457.6069798963163
20
139.48060681283482
30
1.694479079478407e-14
11
2459.0389997250927
21
138.94311509968514
31
1.697065355002862e-14
 62
256
 0
LINE
 8
Layer0_S_
10
2459.0389997250927
20
138.94311509968514
30
1.697065355002862e-14
11
2460.3910149277945
21
138.22782982556296
31
1.7005071286194725e-14
 62
256
 0
LINE
 8
Layer0_S_
10
2460.3910149277945
20
138.22782982556296
30
1.7005071286194725e-14
11
2461.6410592182965
21
137.34637228064383
31
1.704748481590129e-14
 62
256
 0
LINE
 8
Layer0_S_
10
2461.6410592182965
20
137.34637228064383
30
1.704748481590129e-14
11
2462.76882303906
21
136.3130635676786
31
1.7097205043546992e-14
 62
256
 0
LINE
 8
Layer0_S_
10
2462.76882303906
20
136.3130635676786
30
1.7097205043546992e-14
11
2463.75598353194
21
135.1446919260295
31
1.7153424161095005e-14
 62
256
 0
LINE
 8
Layer0_S_
10
2463.75598353194
20
135.1446919260295
30
1.7153424161095005e-14
11
2464.5865022309526
21
133.860239971964
31
1.7215228772586994e-14
 62
256
 0
LINE
 8
Layer0_S_
10
2464.5865022309526
20
133.860239971964
30
1.7215228772586994e-14
11
2465.2468856403607
21
132.48057628675267
31
1.7281614734151536e-14
 62
256
 0
LINE
 8
Layer0_S_
10
2465.2468856403607
20
132.48057628675267
30
1.7281614734151536e-14
11
2465.726404464448
21
131.0281163633611
31
1.735150346840023e-14
 62
256
 0
LINE
 8
Layer0_S_
10
2465.726404464448
20
131.0281163633611
30
1.735150346840023e-14
11
2466.0172679271404
21
129.52645842035844
31
1.7423759488150433e-14
 62
256
 0
LINE
 8
Layer0_S_
10
2466.0172679271404
20
129.52645842035844
30
1.7423759488150433e-14
11
2466.1147503492953
21
127.99999999999994
31
5.774099494780062e-16
 62
256
 0
LINE
 8
Layer0_S_
10
2454.1147503492953
20
1.127986593019159e-14
30
6.736449410576719e-15
11
2455.681064655936
21
0.10266166351428874
31
6.876260813491229e-15
 62
256
 0
LINE
 8
Layer0_S_
10
2455.681064655936
20
0.10266166351428874
30
6.876260813491229e-15
11
2457.2205788905253
21
0.4088900845311923
31
7.293302810367836e-15
 62
256
 0
LINE
 8
Layer0_S_
10
2457.2205788905253
20
0.4088900845311923
30
7.293302810367836e-15
11
2458.7069515376766
21
0.9134456098645768
31
7.980439697014107e-15
 62
256
 0
LINE
 8
Layer0_S_
10
2458.7069515376766
20
0.9134456098645768
30
7.980439697014107e-15
11
2460.114750349295
21
1.607695154586753
31
8.925914370789184e-15
 62
256
 0
LINE
 8
Layer0_S_
10
2460.114750349295
20
1.607695154586753
30
8.925914370789184e-15
11
2461.4198874974
21
2.4797599165051922
31
1.0113549497889673e-14
 62
256
 0
LINE
 8
Layer0_S_
10
2461.4198874974
20
2.4797599165051922
30
1.0113549497889673e-14
11
2462.600031723534
21
3.514718625761443
31
1.1523024312016214e-14
 62
256
 0
LINE
 8
Layer0_S_
10
2462.600031723534
20
3.514718625761443
30
1.1523024312016214e-14
11
2463.63499043279
21
4.694862851895368
31
1.3130222308318858e-14
 62
256
 0
LINE
 8
Layer0_S_
10
2463.63499043279
20
4.694862851895368
30
1.3130222308318858e-14
11
2464.5070551947083
21
6.0000000000000115
31
1.490764388348141e-14
 62
256
 0
LINE
 8
Layer0_S_
10
2464.5070551947083
20
6.0000000000000115
30
1.490764388348141e-14
11
2465.2013047394307
21
7.407798811618933
31
1.6824876861558468e-14
 62
256
 0
LINE
 8
Layer0_S_
10
2465.2013047394307
20
7.407798811618933
30
1.6824876861558468e-14
11
2465.705860264764
21
8.894171458769762
31
1.8849116854737728e-14
 62
256
 0
LINE
 8
Layer0_S_
10
2465.705860264764
20
8.894171458769762
30
1.8849116854737728e-14
11
2466.012088685781
21
10.433685693359397
31
2.094572855551054e-14
 62
256
 0
LINE
 8
Layer0_S_
10
2466.012088685781
20
10.433685693359397
30
2.094572855551054e-14
11
2466.1147503492953
21
12.000000000000012
31
6.159039461098713e-15
 62
256
 0
LINE
 8
Layer0_S_
10
2293.1147503492953
20
0.0
30
6.736449410576719e-15
11
2291.5484360426544
21
0.10266166351427745
31
6.876260813491229e-15
 62
256
 0
LINE
 8
Layer0_S_
10
2291.5484360426544
20
0.10266166351427745
30
6.876260813491229e-15
11
2290.008921808065
21
0.40889008453118103
31
7.293302810367836e-15
 62
256
 0
LINE
 8
Layer0_S_
10
2290.008921808065
20
0.40889008453118103
30
7.293302810367836e-15
11
2288.522549160914
21
0.9134456098645543
31
7.980439697014107e-15
 62
256
 0
LINE
 8
Layer0_S_
10
2288.522549160914
20
0.9134456098645543
30
7.980439697014107e-15
11
2287.1147503492953
21
1.6076951545867417
31
8.925914370789184e-15
 62
256
 0
LINE
 8
Layer0_S_
10
2287.1147503492953
20
1.6076951545867417
30
8.925914370789184e-15
11
2285.8096132011906
21
2.4797599165051807
31
1.0113549497889673e-14
 62
256
 0
LINE
 8
Layer0_S_
10
2285.8096132011906
20
2.4797599165051807
30
1.0113549497889673e-14
11
2284.6294689750566
21
3.514718625761432
31
1.1523024312016214e-14
 62
256
 0
LINE
 8
Layer0_S_
10
2284.6294689750566
20
3.514718625761432
30
1.1523024312016214e-14
11
2283.5945102658
21
4.694862851895357
31
1.3130222308318858e-14
 62
256
 0
LINE
 8
Layer0_S_
10
2283.5945102658
20
4.694862851895357
30
1.3130222308318858e-14
11
2282.722445503882
21
6.0
31
1.490764388348141e-14
 62
256
 0
LINE
 8
Layer0_S_
10
2282.722445503882
20
6.0
30
1.490764388348141e-14
11
2282.02819595916
21
7.407798811618921
31
1.6824876861558468e-14
 62
256
 0
LINE
 8
Layer0_S_
10
2282.02819595916
20
7.407798811618921
30
1.6824876861558468e-14
11
2281.523640433826
21
8.89417145876975
31
1.8849116854737728e-14
 62
256
 0
LINE
 8
Layer0_S_
10
2281.523640433826
20
8.89417145876975
30
1.8849116854737728e-14
11
2281.2174120128097
21
10.433685693359385
31
2.094572855551054e-14
 62
256
 0
LINE
 8
Layer0_S_
10
2281.2174120128097
20
10.433685693359385
30
2.094572855551054e-14
11
2281.1147503492953
21
12.0
31
6.159039461098713e-15
 62
256
 0
LINE
 8
Layer0_S_
10
2291.1147503492953
20
139.81107288852087
30
9.090699491179398e-18
11
2289.622520802274
21
139.48060681283482
31
1.3331287370673085e-16
 62
256
 0
LINE
 8
Layer0_S_
10
2289.622520802274
20
139.48060681283482
30
1.3331287370673085e-16
11
2288.190500973498
21
138.94311509968514
31
5.700000322023609e-16
 62
256
 0
LINE
 8
Layer0_S_
10
2288.190500973498
20
138.94311509968514
30
5.700000322023609e-16
11
2286.838485770796
21
138.22782982556296
31
1.2817047432591256e-15
 62
256
 0
LINE
 8
Layer0_S_
10
2286.838485770796
20
138.22782982556296
30
1.2817047432591256e-15
11
2285.5884414802936
21
137.34637228064383
31
2.2568638903615786e-15
 62
256
 0
LINE
 8
Layer0_S_
10
2285.5884414802936
20
137.34637228064383
30
2.2568638903615786e-15
11
2284.46067765953
21
136.3130635676786
31
3.4796339942354078e-15
 62
256
 0
LINE
 8
Layer0_S_
10
2284.46067765953
20
136.3130635676786
30
3.4796339942354078e-15
11
2283.4735171666507
21
135.1446919260295
31
4.930148622969955e-15
 62
256
 0
LINE
 8
Layer0_S_
10
2283.4735171666507
20
135.1446919260295
30
4.930148622969955e-15
11
2282.642998467638
21
133.860239971964
31
6.584841163335242e-15
 62
256
 0
LINE
 8
Layer0_S_
10
2282.642998467638
20
133.860239971964
30
6.584841163335242e-15
11
2281.98261505823
21
132.48057628675267
31
8.41682770920526e-15
 62
256
 0
LINE
 8
Layer0_S_
10
2281.98261505823
20
132.48057628675267
30
8.41682770920526e-15
11
2281.5030962341425
21
131.0281163633611
31
1.0396343846272298e-14
 62
256
 0
LINE
 8
Layer0_S_
10
2281.5030962341425
20
131.0281163633611
30
1.0396343846272298e-14
11
2281.2122327714496
21
129.52645842035844
31
1.2491228236580429e-14
 62
256
 0
LINE
 8
Layer0_S_
10
2281.2122327714496
20
129.52645842035844
30
1.2491228236580429e-14
11
2281.1147503492953
21
127.99999999999994
31
5.774099494780062e-16
 62
256
 0
LINE
 8
Layer0_S_
10
2291.0980019137064
20
132.57522958413549
30
1.1589897262421188e-14
11
2290.03720876209
21
131.94065194847494
31
1.282412604948983e-14
 62
256
 0
LINE
 8
Layer0_S_
10
2290.03720876209
20
131.94065194847494
30
1.282412604948983e-14
11
2289.1645113683253
21
131.0652262548181
31
1.4343968214957277e-14
 62
256
 0
LINE
 8
Layer0_S_
10
2289.1645113683253
20
131.0652262548181
30
1.4343968214957277e-14
11
2288.533247980819
21
130.00245750208254
31
1.605653277560556e-14
 62
256
 0
LINE
 8
Layer0_S_
10
2288.533247980819
20
130.00245750208254
30
1.605653277560556e-14
11
2288.1820006826756
21
128.8173008787858
31
1.785714977985854e-14
 62
256
 0
LINE
 8
Layer0_S_
10
2288.1820006826756
20
128.8173008787858
30
1.785714977985854e-14
11
2288.132237299712
21
127.58219177756712
31
1.9635767613328597e-14
 62
256
 0
LINE
 8
Layer0_S_
10
2288.132237299712
20
127.58219177756712
30
1.9635767613328597e-14
11
2288.386999311943
21
126.37261862834409
31
2.1283679225327202e-14
 62
256
 0
LINE
 8
Layer0_S_
10
2288.386999311943
20
126.37261862834409
30
2.1283679225327202e-14
11
2288.930715961864
21
125.26250913338623
31
2.270016617720795e-14
 62
256
 0
LINE
 8
Layer0_S_
10
2288.930715961864
20
125.26250913338623
30
2.270016617720795e-14
11
2289.730155921019
21
124.31971189224505
31
2.379865443604475e-14
 62
256
 0
LINE
 8
Layer0_S_
10
2289.730155921019
20
124.31971189224505
30
2.379865443604475e-14
11
2290.736458350094
21
123.60184957436256
31
2.4512005678704327e-14
 62
256
 0
LINE
 8
Layer0_S_
10
2290.736458350094
20
123.60184957436256
30
2.4512005678704327e-14
11
2291.888119216515
21
123.15279708861968
31
2.4796620707970018e-14
 62
256
 0
LINE
 8
Layer0_S_
10
2291.888119216515
20
123.15279708861968
30
2.4796620707970018e-14
11
2293.1147503492953
21
122.99999999999996
31
2.4635104184702145e-14
 62
256
 0
LINE
 8
Layer0_S_
10
2293.1147503492953
20
122.99999999999996
30
2.4635104184702145e-14
11
2294.3413814820756
21
123.15279708861968
31
2.4037327810708426e-14
 62
256
 0
LINE
 8
Layer0_S_
10
2294.3413814820756
20
123.15279708861968
30
2.4037327810708426e-14
11
2295.4930423484966
21
123.60184957436256
31
2.303982698182562e-14
 62
256
 0
LINE
 8
Layer0_S_
10
2295.4930423484966
20
123.60184957436256
30
2.303982698182562e-14
11
2296.4993447775714
21
124.31971189224505
31
2.170356778707335e-14
 62
256
 0
LINE
 8
Layer0_S_
10
2296.4993447775714
20
124.31971189224505
30
2.170356778707335e-14
11
2297.2987847367262
21
125.26250913338623
31
2.0110220832291403e-14
 62
256
 0
LINE
 8
Layer0_S_
10
2297.2987847367262
20
125.26250913338623
30
2.0110220832291403e-14
11
2297.8425013866477
21
126.37261862834409
31
1.8357169627820494e-14
 62
256
 0
LINE
 8
Layer0_S_
10
2297.8425013866477
20
126.37261862834409
30
1.8357169627820494e-14
11
2298.097263398878
21
127.58219177756712
31
1.6551558621758405e-14
 62
256
 0
LINE
 8
Layer0_S_
10
2298.097263398878
20
127.58219177756712
30
1.6551558621758405e-14
11
2298.047500015915
21
128.8173008787858
31
1.4803744656067533e-14
 62
256
 0
LINE
 8
Layer0_S_
10
2298.047500015915
20
128.8173008787858
30
1.4803744656067533e-14
11
2297.696252717771
21
130.00245750208254
31
1.3220552084910471e-14
 62
256
 0
LINE
 8
Layer0_S_
10
2297.696252717771
20
130.00245750208254
30
1.3220552084910471e-14
11
2297.0649893302652
21
131.06522625481813
31
1.1898743794526077e-14
 62
256
 0
LINE
 8
Layer0_S_
10
2297.0649893302652
20
131.06522625481813
30
1.1898743794526077e-14
11
2296.1922919365006
21
131.94065194847494
31
1.091910716830802e-14
 62
256
 0
LINE
 8
Layer0_S_
10
2296.1922919365006
20
131.94065194847494
30
1.091910716830802e-14
11
2295.131498784884
21
132.57522958413549
31
1.0341516456012838e-14
 62
256
 0
LINE
 8
Layer0_S_
10
2451.1147503492953
20
12.000000000000012
30
6.159039461098713e-15
11
2451.216972870428
21
12.776457135307568
31
6.1216782881595654e-15
 62
256
 0
LINE
 8
Layer0_S_
10
2451.216972870428
20
12.776457135307568
30
6.1216782881595654e-15
11
2451.5166741379417
21
13.500000000000009
31
6.086863217413963e-15
 62
256
 0
LINE
 8
Layer0_S_
10
2451.5166741379417
20
13.500000000000009
30
6.086863217413963e-15
11
2451.9934300057357
21
14.121320343559649
31
6.056966838398594e-15
 62
256
 0
LINE
 8
Layer0_S_
10
2451.9934300057357
20
14.121320343559649
30
6.056966838398594e-15
11
2452.6147503492953
21
14.598076211353323
31
6.034026539937253e-15
 62
256
 0
LINE
 8
Layer0_S_
10
2452.6147503492953
20
14.598076211353323
30
6.034026539937253e-15
11
2453.3382932139875
21
14.897777478867217
31
6.019605665459447e-15
 62
256
 0
LINE
 8
Layer0_S_
10
2453.3382932139875
20
14.897777478867217
30
6.019605665459447e-15
11
2454.1147503492953
21
15.000000000000007
31
6.014686973729212e-15
 62
256
 0
LINE
 8
Layer0_S_
10
2454.1147503492953
20
15.000000000000007
30
6.014686973729212e-15
11
2454.8912074846025
21
14.897777478867217
31
6.019605665459445e-15
 62
256
 0
LINE
 8
Layer0_S_
10
2454.8912074846025
20
14.897777478867217
30
6.019605665459445e-15
11
2455.6147503492953
21
14.598076211353323
31
6.034026539937253e-15
 62
256
 0
LINE
 8
Layer0_S_
10
2455.6147503492953
20
14.598076211353323
30
6.034026539937253e-15
11
2456.236070692855
21
14.121320343559649
31
6.056966838398594e-15
 62
256
 0
LINE
 8
Layer0_S_
10
2456.236070692855
20
14.121320343559649
30
6.056966838398594e-15
11
2456.7128265606484
21
13.500000000000009
31
6.086863217413963e-15
 62
256
 0
LINE
 8
Layer0_S_
10
2456.7128265606484
20
13.500000000000009
30
6.086863217413963e-15
11
2457.012527828162
21
12.776457135307568
31
6.1216782881595654e-15
 62
256
 0
LINE
 8
Layer0_S_
10
2457.012527828162
20
12.776457135307568
30
6.1216782881595654e-15
11
2457.1147503492953
21
12.000000000000012
31
6.159039461098713e-15
 62
256
 0
LINE
 8
Layer0_S_
10
2457.1147503492953
20
12.000000000000012
30
6.159039461098713e-15
11
2457.012527828162
21
11.223542864692455
31
6.196400634037861e-15
 62
256
 0
LINE
 8
Layer0_S_
10
2457.012527828162
20
11.223542864692455
30
6.196400634037861e-15
11
2456.7128265606484
21
10.500000000000014
31
6.231215704783464e-15
 62
256
 0
LINE
 8
Layer0_S_
10
2456.7128265606484
20
10.500000000000014
30
6.231215704783464e-15
11
2456.236070692855
21
9.878679656440376
31
6.261112083798833e-15
 62
256
 0
LINE
 8
Layer0_S_
10
2456.236070692855
20
9.878679656440376
30
6.261112083798833e-15
11
2455.6147503492953
21
9.4019237886467
31
6.284052382260174e-15
 62
256
 0
LINE
 8
Layer0_S_
10
2455.6147503492953
20
9.4019237886467
30
6.284052382260174e-15
11
2454.8912074846025
21
9.102222521132807
31
6.2984732567379814e-15
 62
256
 0
LINE
 8
Layer0_S_
10
2454.8912074846025
20
9.102222521132807
30
6.2984732567379814e-15
11
2454.1147503492953
21
9.000000000000018
31
6.303391948468215e-15
 62
256
 0
LINE
 8
Layer0_S_
10
2454.1147503492953
20
9.000000000000018
30
6.303391948468215e-15
11
2453.3382932139875
21
9.102222521132807
31
6.2984732567379814e-15
 62
256
 0
LINE
 8
Layer0_S_
10
2453.3382932139875
20
9.102222521132807
30
6.2984732567379814e-15
11
2452.6147503492953
21
9.4019237886467
31
6.284052382260174e-15
 62
256
 0
LINE
 8
Layer0_S_
10
2452.6147503492953
20
9.4019237886467
30
6.284052382260174e-15
11
2451.9934300057357
21
9.878679656440376
31
6.261112083798833e-15
 62
256
 0
LINE
 8
Layer0_S_
10
2451.9934300057357
20
9.878679656440376
30
6.261112083798833e-15
11
2451.5166741379417
21
10.500000000000014
31
6.231215704783464e-15
 62
256
 0
LINE
 8
Layer0_S_
10
2451.5166741379417
20
10.500000000000014
30
6.231215704783464e-15
11
2451.216972870428
21
11.223542864692444
31
6.196400634037861e-15
 62
256
 0
LINE
 8
Layer0_S_
10
2451.216972870428
20
11.223542864692444
30
6.196400634037861e-15
11
2451.1147503492953
21
12.000000000000012
31
6.159039461098713e-15
 62
256
 0
LINE
 8
Layer0_S_
10
2290.1147503492953
20
12.0
30
6.159039461098714e-15
11
2290.216972870428
21
12.776457135307558
31
6.121678288159567e-15
 62
256
 0
LINE
 8
Layer0_S_
10
2290.216972870428
20
12.776457135307558
30
6.121678288159567e-15
11
2290.516674137942
21
13.499999999999998
31
6.086863217413963e-15
 62
256
 0
LINE
 8
Layer0_S_
10
2290.516674137942
20
13.499999999999998
30
6.086863217413963e-15
11
2290.9934300057353
21
14.121320343559637
31
6.056966838398594e-15
 62
256
 0
LINE
 8
Layer0_S_
10
2290.9934300057353
20
14.121320343559637
30
6.056966838398594e-15
11
2291.6147503492953
21
14.598076211353312
31
6.0340265399372546e-15
 62
256
 0
LINE
 8
Layer0_S_
10
2291.6147503492953
20
14.598076211353312
30
6.0340265399372546e-15
11
2292.3382932139875
21
14.897777478867194
31
6.019605665459447e-15
 62
256
 0
LINE
 8
Layer0_S_
10
2292.3382932139875
20
14.897777478867194
30
6.019605665459447e-15
11
2293.1147503492953
21
14.999999999999995
31
6.014686973729213e-15
 62
256
 0
LINE
 8
Layer0_S_
10
2293.1147503492953
20
14.999999999999995
30
6.014686973729213e-15
11
2293.891207484603
21
14.897777478867194
31
6.019605665459447e-15
 62
256
 0
LINE
 8
Layer0_S_
10
2293.891207484603
20
14.897777478867194
30
6.019605665459447e-15
11
2294.6147503492953
21
14.598076211353312
31
6.034026539937253e-15
 62
256
 0
LINE
 8
Layer0_S_
10
2294.6147503492953
20
14.598076211353312
30
6.034026539937253e-15
11
2295.236070692855
21
14.121320343559637
31
6.056966838398594e-15
 62
256
 0
LINE
 8
Layer0_S_
10
2295.236070692855
20
14.121320343559637
30
6.056966838398594e-15
11
2295.7128265606484
21
13.499999999999998
31
6.086863217413963e-15
 62
256
 0
LINE
 8
Layer0_S_
10
2295.7128265606484
20
13.499999999999998
30
6.086863217413963e-15
11
2296.0125278281625
21
12.776457135307558
31
6.1216782881595654e-15
 62
256
 0
LINE
 8
Layer0_S_
10
2296.0125278281625
20
12.776457135307558
30
6.1216782881595654e-15
11
2296.1147503492953
21
12.0
31
6.159039461098714e-15
 62
256
 0
LINE
 8
Layer0_S_
10
2296.1147503492953
20
12.0
30
6.159039461098714e-15
11
2296.0125278281625
21
11.223542864692444
31
6.196400634037861e-15
 62
256
 0
LINE
 8
Layer0_S_
10
2296.0125278281625
20
11.223542864692444
30
6.196400634037861e-15
11
2295.7128265606484
21
10.500000000000004
31
6.231215704783464e-15
 62
256
 0
LINE
 8
Layer0_S_
10
2295.7128265606484
20
10.500000000000004
30
6.231215704783464e-15
11
2295.236070692855
21
9.878679656440363
31
6.261112083798833e-15
 62
256
 0
LINE
 8
Layer0_S_
10
2295.236070692855
20
9.878679656440363
30
6.261112083798833e-15
11
2294.6147503492953
21
9.40192378864669
31
6.284052382260174e-15
 62
256
 0
LINE
 8
Layer0_S_
10
2294.6147503492953
20
9.40192378864669
30
6.284052382260174e-15
11
2293.891207484603
21
9.102222521132807
31
6.2984732567379814e-15
 62
256
 0
LINE
 8
Layer0_S_
10
2293.891207484603
20
9.102222521132807
30
6.2984732567379814e-15
11
2293.1147503492953
21
9.000000000000005
31
6.303391948468215e-15
 62
256
 0
LINE
 8
Layer0_S_
10
2293.1147503492953
20
9.000000000000005
30
6.303391948468215e-15
11
2292.3382932139875
21
9.102222521132807
31
6.2984732567379814e-15
 62
256
 0
LINE
 8
Layer0_S_
10
2292.3382932139875
20
9.102222521132807
30
6.2984732567379814e-15
11
2291.6147503492953
21
9.40192378864669
31
6.284052382260174e-15
 62
256
 0
LINE
 8
Layer0_S_
10
2291.6147503492953
20
9.40192378864669
30
6.284052382260174e-15
11
2290.9934300057353
21
9.878679656440363
31
6.261112083798833e-15
 62
256
 0
LINE
 8
Layer0_S_
10
2290.9934300057353
20
9.878679656440363
30
6.261112083798833e-15
11
2290.516674137942
21
10.500000000000004
31
6.231215704783464e-15
 62
256
 0
LINE
 8
Layer0_S_
10
2290.516674137942
20
10.500000000000004
30
6.231215704783464e-15
11
2290.216972870428
21
11.223542864692444
31
6.196400634037861e-15
 62
256
 0
LINE
 8
Layer0_S_
10
2290.216972870428
20
11.223542864692444
30
6.196400634037861e-15
11
2290.1147503492953
21
12.0
31
6.159039461098714e-15
 62
256
 0
LINE
 8
Layer0_S_
10
2442.1147503492953
20
18.00000000000001
30
5.870334486359711e-15
11
2305.1147503492953
21
18.000000000000025
31
5.870334486359711e-15
 62
256
 0
LINE
 8
Layer0_S_
10
2448.1147503492953
20
115.99999999999993
30
1.1548198989560098e-15
11
2448.1147503492953
21
24.00000000000001
31
5.581629511620709e-15
 62
256
 0
LINE
 8
Layer0_S_
10
2442.1147503492953
20
121.99999999999991
30
8.661149242170079e-16
11
2305.1147503492953
21
121.99999999999996
31
8.661149242170079e-16
 62
256
 0
LINE
 8
Layer0_S_
10
2299.1147503492953
20
115.99999999999993
30
1.1548198989560098e-15
11
2299.1147503492953
21
24.000000000000007
31
5.581629511620709e-15
 62
256
 0
LINE
 8
Layer0_S_
10
2305.1147503492953
20
18.000000000000025
30
5.870334486359711e-15
11
2304.3315931959746
21
18.051330831757163
31
6.012615800355201e-15
 62
256
 0
LINE
 8
Layer0_S_
10
2304.3315931959746
20
18.051330831757163
30
6.012615800355201e-15
11
2303.5618360786802
21
18.204445042265615
31
6.437025269611316e-15
 62
256
 0
LINE
 8
Layer0_S_
10
2303.5618360786802
20
18.204445042265615
30
6.437025269611316e-15
11
2302.8186497551046
21
18.456722804932305
31
7.136301130440565e-15
 62
256
 0
LINE
 8
Layer0_S_
10
2302.8186497551046
20
18.456722804932305
30
7.136301130440565e-15
11
2302.1147503492953
21
18.80384757729339
31
8.09847857898827e-15
 62
256
 0
LINE
 8
Layer0_S_
10
2302.1147503492953
20
18.80384757729339
30
8.09847857898827e-15
11
2301.4621817752427
21
19.239879958252608
31
9.307094492343789e-15
 62
256
 0
LINE
 8
Layer0_S_
10
2301.4621817752427
20
19.239879958252608
30
9.307094492343789e-15
11
2300.872109662176
21
19.757359312880734
31
1.0741469117137972e-14
 62
256
 0
LINE
 8
Layer0_S_
10
2300.872109662176
20
19.757359312880734
30
1.0741469117137972e-14
11
2300.3546303075477
21
20.34743142594769
31
1.2377059905856809e-14
 62
256
 0
LINE
 8
Layer0_S_
10
2300.3546303075477
20
20.34743142594769
30
1.2377059905856809e-14
11
2299.9185979265885
21
21.00000000000001
31
1.4185881446633893e-14
 62
256
 0
LINE
 8
Layer0_S_
10
2299.9185979265885
20
21.00000000000001
30
1.4185881446633893e-14
11
2299.5714731542275
21
21.703899405809473
31
1.613698430140645e-14
 62
256
 0
LINE
 8
Layer0_S_
10
2299.5714731542275
20
21.703899405809473
30
1.613698430140645e-14
11
2299.3191953915607
21
22.447085729384888
31
1.81969845593814e-14
 62
256
 0
LINE
 8
Layer0_S_
10
2299.3191953915607
20
22.447085729384888
30
1.81969845593814e-14
11
2299.1660811810525
21
23.2168428466797
31
2.033063504500484e-14
 62
256
 0
LINE
 8
Layer0_S_
10
2299.1660811810525
20
23.2168428466797
30
2.033063504500484e-14
11
2299.1147503492953
21
24.000000000000007
31
5.581629511620709e-15
 62
256
 0
LINE
 8
Layer0_S_
10
2448.1147503492953
20
24.00000000000001
30
5.581629511620709e-15
11
2448.063419517538
21
23.216842846679704
31
5.764064297724823e-15
 62
256
 0
LINE
 8
Layer0_S_
10
2448.063419517538
20
23.216842846679704
30
5.764064297724823e-15
11
2447.9103053070294
21
22.447085729384888
31
6.232880024211071e-15
 62
256
 0
LINE
 8
Layer0_S_
10
2447.9103053070294
20
22.447085729384888
30
6.232880024211071e-15
11
2447.658027544363
21
21.70389940580948
31
6.980055124019012e-15
 62
256
 0
LINE
 8
Layer0_S_
10
2447.658027544363
20
21.70389940580948
30
6.980055124019012e-15
11
2447.310902772002
21
21.00000000000001
31
7.992805224034852e-15
 62
256
 0
LINE
 8
Layer0_S_
10
2447.310902772002
20
21.00000000000001
30
7.992805224034852e-15
11
2446.8748703910424
21
20.34743142594769
31
9.253801889259954e-15
 62
256
 0
LINE
 8
Layer0_S_
10
2446.8748703910424
20
20.34743142594769
30
9.253801889259954e-15
11
2446.3573910364144
21
19.757359312880727
31
1.074146911713798e-14
 62
256
 0
LINE
 8
Layer0_S_
10
2446.3573910364144
20
19.757359312880727
30
1.074146911713798e-14
11
2445.7673189233474
21
19.239879958252608
31
1.2430352508940669e-14
 62
256
 0
LINE
 8
Layer0_S_
10
2445.7673189233474
20
19.239879958252608
30
1.2430352508940669e-14
11
2445.1147503492953
21
18.803847577293382
31
1.4291554801587333e-14
 62
256
 0
LINE
 8
Layer0_S_
10
2445.1147503492953
20
18.803847577293382
30
1.4291554801587333e-14
11
2444.4108509434855
21
18.456722804932294
31
1.629323030782803e-14
 62
256
 0
LINE
 8
Layer0_S_
10
2444.4108509434855
20
18.456722804932294
30
1.629323030782803e-14
11
2443.6676646199103
21
18.204445042265604
31
1.8401129804781672e-14
 62
256
 0
LINE
 8
Layer0_S_
10
2443.6676646199103
20
18.204445042265604
30
1.8401129804781672e-14
11
2442.8979075026155
21
18.051330831757152
31
2.0579186547635246e-14
 62
256
 0
LINE
 8
Layer0_S_
10
2442.8979075026155
20
18.051330831757152
30
2.0579186547635246e-14
11
2442.1147503492953
21
18.00000000000001
31
5.870334486359711e-15
 62
256
 0
LINE
 8
Layer0_S_
10
2448.1147503492953
20
115.99999999999993
30
1.1548198989560098e-15
11
2448.063419517538
21
116.78315715332023
31
1.2618875630047893e-15
 62
256
 0
LINE
 8
Layer0_S_
10
2448.063419517538
20
116.78315715332023
30
1.2618875630047893e-15
11
2447.9103053070294
21
117.55291427061506
31
1.6566257197897818e-15
 62
256
 0
LINE
 8
Layer0_S_
10
2447.9103053070294
20
117.55291427061506
30
1.6566257197897818e-15
11
2447.658027544363
21
118.29610059419048
31
2.3322802900063145e-15
 62
256
 0
LINE
 8
Layer0_S_
10
2447.658027544363
20
118.29610059419048
30
2.3322802900063145e-15
11
2447.310902772002
21
118.99999999999994
31
3.277290636631148e-15
 62
256
 0
LINE
 8
Layer0_S_
10
2447.310902772002
20
118.99999999999994
30
3.277290636631148e-15
11
2446.8748703910424
21
119.65256857405225
31
4.475487370627173e-15
 62
256
 0
LINE
 8
Layer0_S_
10
2446.8748703910424
20
119.65256857405225
30
4.475487370627173e-15
11
2446.3573910364144
21
120.24264068711922
31
5.9063690136728e-15
 62
256
 0
LINE
 8
Layer0_S_
10
2446.3573910364144
20
120.24264068711922
30
5.9063690136728e-15
11
2445.7673189233474
21
120.76012004174736
31
7.545452784140202e-15
 62
256
 0
LINE
 8
Layer0_S_
10
2445.7673189233474
20
120.76012004174736
30
7.545452784140202e-15
11
2445.1147503492953
21
121.19615242270658
31
9.364693504276793e-15
 62
256
 0
LINE
 8
Layer0_S_
10
2445.1147503492953
20
121.19615242270658
30
9.364693504276793e-15
11
2444.4108509434855
21
121.54327719506765
31
1.1332963460972224e-14
 62
256
 0
LINE
 8
Layer0_S_
10
2444.4108509434855
20
121.54327719506765
30
1.1332963460972224e-14
11
2443.6676646199103
21
121.79555495773434
31
1.3416585009559903e-14
 62
256
 0
LINE
 8
Layer0_S_
10
2443.6676646199103
20
121.79555495773434
30
1.3416585009559903e-14
11
2442.8979075026155
21
121.9486691682428
31
1.5579906807654468e-14
 62
256
 0
LINE
 8
Layer0_S_
10
2442.8979075026155
20
121.9486691682428
30
1.5579906807654468e-14
11
2442.1147503492953
21
121.99999999999991
31
8.661149242170079e-16
 62
256
 0
LINE
 8
Layer0_S_
10
2299.1147503492953
20
115.99999999999993
30
1.1548198989560098e-15
11
2299.1660811810525
21
116.78315715332023
31
1.2618875630047918e-15
 62
256
 0
LINE
 8
Layer0_S_
10
2299.1660811810525
20
116.78315715332023
30
1.2618875630047918e-15
11
2299.3191953915607
21
117.55291427061506
31
1.6566257197897818e-15
 62
256
 0
LINE
 8
Layer0_S_
10
2299.3191953915607
20
117.55291427061506
30
1.6566257197897818e-15
11
2299.5714731542275
21
118.29610059419048
31
2.3322802900063145e-15
 62
256
 0
LINE
 8
Layer0_S_
10
2299.5714731542275
20
118.29610059419048
30
2.3322802900063145e-15
11
2299.9185979265885
21
118.99999999999994
31
3.277290636631148e-15
 62
256
 0
LINE
 8
Layer0_S_
10
2299.9185979265885
20
118.99999999999994
30
3.277290636631148e-15
11
2300.3546303075477
21
119.65256857405227
31
4.475487370627165e-15
 62
256
 0
LINE
 8
Layer0_S_
10
2300.3546303075477
20
119.65256857405227
30
4.475487370627165e-15
11
2300.872109662176
21
120.24264068711922
31
5.9063690136727975e-15
 62
256
 0
LINE
 8
Layer0_S_
10
2300.872109662176
20
120.24264068711922
30
5.9063690136727975e-15
11
2301.4621817752427
21
120.76012004174736
31
7.545452784140194e-15
 62
256
 0
LINE
 8
Layer0_S_
10
2301.4621817752427
20
120.76012004174736
30
7.545452784140194e-15
11
2302.1147503492953
21
121.19615242270658
31
9.364693504276785e-15
 62
256
 0
LINE
 8
Layer0_S_
10
2302.1147503492953
20
121.19615242270658
30
9.364693504276785e-15
11
2302.8186497551046
21
121.54327719506766
31
1.1332963460972215e-14
 62
256
 0
LINE
 8
Layer0_S_
10
2302.8186497551046
20
121.54327719506766
30
1.1332963460972215e-14
11
2303.5618360786802
21
121.79555495773434
31
1.3416585009559894e-14
 62
256
 0
LINE
 8
Layer0_S_
10
2303.5618360786802
20
121.79555495773434
30
1.3416585009559894e-14
11
2304.3315931959746
21
121.9486691682428
31
1.557990680765446e-14
 62
256
 0
LINE
 8
Layer0_S_
10
2304.3315931959746
20
121.9486691682428
30
1.557990680765446e-14
11
2305.1147503492953
21
121.99999999999996
31
8.661149242170079e-16
 62
256
 0
ENDSEC
 0
EOF
