 0
SECTION
 2
HEADER
 9
$ACADVER
 1
AC1006
 9
$LTSCALE
 40
1000.0
 0
ENDSEC
 0
SECTION
 2
TABLES
 0
TABLE
 2
LTYPE
 70
1
 0
LTYPE
 2
SKEMA_SOLID
 70
64
 3
Sketchup - Skema Ltype
 72
65
 73
0
 40
0.000000
 0
LTYPE
 2
SKEMA_DASHED
 70
64
 3
Sketchup - Skema Ltype
 72
65
 73
2
 40
0.1
 49
0.05
 49
-0.05
 0
LTYPE
 2
SKEMA_DOTTED
 70
64
 3
Sketchup - Skema Ltype
 72
65
 73
2
 40
00.1
 49
0.0
 49
-00.1
 0
ENDTAB
 0
TABLE
 2
LAYER
 70
6
 0
LAYER
 2
Layer0_S_
 70
64
 62
20
 6
SKEMA_SOLID
 0
ENDTAB
 0
TABLE
 2
STYLE
 70
0
 0
ENDTAB
 0
ENDSEC
 0
SECTION
 2
BLOCKS
 0
ENDSEC
 0
SECTION
 2
ENTITIES
 0
LINE
 8
Layer0_S_
10
2851.3934379366187
20
127.99999999999993
30
1.2639543480852398e-32
11
2851.3934379366187
21
12.0
31
1.2639543480852398e-32
 62
256
 0
LINE
 8
Layer0_S_
10
3024.3934379366187
20
139.99999999999991
30
1.2639543480852398e-32
11
2863.393437936619
21
139.99999999999991
31
1.2639543480852398e-32
 62
256
 0
LINE
 8
Layer0_S_
10
3036.393437936619
20
12.0
30
1.2639543480852398e-32
11
3036.393437936619
21
127.99999999999993
31
1.2639543480852398e-32
 62
256
 0
LINE
 8
Layer0_S_
10
2863.393437936619
20
0.0
30
1.2639543480852398e-32
11
3024.3934379366187
21
0.0
31
1.2639543480852398e-32
 62
256
 0
LINE
 8
Layer0_S_
10
2863.393437936619
20
139.99999999999991
30
1.2639543480852398e-32
11
2861.8271236299784
21
139.89733833648563
31
7.423562665014457e-32
 62
256
 0
LINE
 8
Layer0_S_
10
2861.8271236299784
20
139.89733833648563
30
7.423562665014457e-32
11
2860.2876093953887
21
139.5911099154687
31
1.3477778375874955e-31
 62
256
 0
LINE
 8
Layer0_S_
10
2860.2876093953887
20
139.5911099154687
30
1.3477778375874955e-31
11
2858.801236748238
21
139.08655439013535
31
1.9323012171308203e-31
 62
256
 0
LINE
 8
Layer0_S_
10
2858.801236748238
20
139.08655439013535
30
1.9323012171308203e-31
11
2857.393437936619
21
138.3923048454132
31
2.485925048046935e-31
 62
256
 0
LINE
 8
Layer0_S_
10
2857.393437936619
20
138.3923048454132
30
2.485925048046935e-31
11
2856.0883007885145
21
137.52024008349474
31
2.9991766730953424e-31
 62
256
 0
LINE
 8
Layer0_S_
10
2856.0883007885145
20
137.52024008349474
30
2.9991766730953424e-31
11
2854.9081565623806
21
136.4852813742385
31
3.4632742146712295e-31
 62
256
 0
LINE
 8
Layer0_S_
10
2854.9081565623806
20
136.4852813742385
30
3.4632742146712295e-31
11
2853.873197853124
21
135.30513714810456
31
3.870276835166084e-31
 62
256
 0
LINE
 8
Layer0_S_
10
2853.873197853124
20
135.30513714810456
30
3.870276835166084e-31
11
2853.0011330912057
21
133.99999999999994
31
4.213220606900796e-31
 62
256
 0
LINE
 8
Layer0_S_
10
2853.0011330912057
20
133.99999999999994
30
4.213220606900796e-31
11
2852.3068835464837
21
132.592201188381
31
4.486237666859006e-31
 62
256
 0
LINE
 8
Layer0_S_
10
2852.3068835464837
20
132.592201188381
30
4.486237666859006e-31
11
2851.80232802115
21
131.10582854123018
31
4.6846566174502e-31
 62
256
 0
LINE
 8
Layer0_S_
10
2851.80232802115
20
131.10582854123018
30
4.6846566174502e-31
11
2851.496099600133
21
129.56631430664052
31
4.805082455417639e-31
 62
256
 0
LINE
 8
Layer0_S_
10
2851.496099600133
20
129.56631430664052
30
4.805082455417639e-31
11
2851.3934379366187
21
127.99999999999993
31
1.2639543480852398e-32
 62
256
 0
LINE
 8
Layer0_S_
10
3024.3934379366187
20
139.99999999999991
30
1.2639543480852398e-32
11
3025.8398780996827
21
139.91250648917656
31
1.2639543480852398e-32
 62
256
 0
LINE
 8
Layer0_S_
10
3025.8398780996827
20
139.91250648917656
30
1.2639543480852398e-32
11
3027.2652259080696
21
139.65130180911257
31
1.2639543480852398e-32
 62
256
 0
LINE
 8
Layer0_S_
10
3027.2652259080696
20
139.65130180911257
30
1.2639543480852398e-32
11
3028.6486965811296
21
139.22019491222488
31
1.2639543480852398e-32
 62
256
 0
LINE
 8
Layer0_S_
10
3028.6486965811296
20
139.22019491222488
30
1.2639543480852398e-32
11
3029.9701160011446
21
138.62547230783844
31
1.2639543480852398e-32
 62
256
 0
LINE
 8
Layer0_S_
10
3029.9701160011446
20
138.62547230783844
30
1.2639543480852398e-32
11
3031.210214897393
21
137.8758063907238
31
1.2639543480852398e-32
 62
256
 0
LINE
 8
Layer0_S_
10
3031.210214897393
20
137.8758063907238
30
1.2639543480852398e-32
11
3032.3509098355084
21
136.98212897805314
31
1.2639543480852398e-32
 62
256
 0
LINE
 8
Layer0_S_
10
3032.3509098355084
20
136.98212897805314
30
1.2639543480852398e-32
11
3033.375566914672
21
135.95747189888945
31
1.2639543480852398e-32
 62
256
 0
LINE
 8
Layer0_S_
10
3033.375566914672
20
135.95747189888945
30
1.2639543480852398e-32
11
3034.2692443273427
21
134.8167769607738
31
1.2639543480852398e-32
 62
256
 0
LINE
 8
Layer0_S_
10
3034.2692443273427
20
134.8167769607738
30
1.2639543480852398e-32
11
3035.018910244458
21
133.57667806452514
31
1.2639543480852398e-32
 62
256
 0
LINE
 8
Layer0_S_
10
3035.018910244458
20
133.57667806452514
30
1.2639543480852398e-32
11
3035.613632848844
21
132.25525864451035
31
1.2639543480852398e-32
 62
256
 0
LINE
 8
Layer0_S_
10
3035.613632848844
20
132.25525864451035
30
1.2639543480852398e-32
11
3036.044739745732
21
130.8717879714506
31
1.2639543480852398e-32
 62
256
 0
LINE
 8
Layer0_S_
10
3036.044739745732
20
130.8717879714506
30
1.2639543480852398e-32
11
3036.3059444257956
21
129.44644016306378
31
1.2639543480852398e-32
 62
256
 0
LINE
 8
Layer0_S_
10
3036.3059444257956
20
129.44644016306378
30
1.2639543480852398e-32
11
3036.393437936619
21
127.99999999999993
31
1.2639543480852398e-32
 62
256
 0
LINE
 8
Layer0_S_
10
3024.3934379366187
20
0.0
30
1.2639543480852398e-32
11
3025.9597522432596
21
0.10266166351427745
31
1.2639543480852398e-32
 62
256
 0
LINE
 8
Layer0_S_
10
3025.9597522432596
20
0.10266166351427745
30
1.2639543480852398e-32
11
3027.4992664778492
21
0.40889008453118103
31
1.2639543480852398e-32
 62
256
 0
LINE
 8
Layer0_S_
10
3027.4992664778492
20
0.40889008453118103
30
1.2639543480852398e-32
11
3028.985639125
21
0.9134456098645543
31
1.2639543480852398e-32
 62
256
 0
LINE
 8
Layer0_S_
10
3028.985639125
20
0.9134456098645543
30
1.2639543480852398e-32
11
3030.393437936619
21
1.6076951545867417
31
1.2639543480852398e-32
 62
256
 0
LINE
 8
Layer0_S_
10
3030.393437936619
20
1.6076951545867417
30
1.2639543480852398e-32
11
3031.698575084724
21
2.4797599165051807
31
1.2639543480852398e-32
 62
256
 0
LINE
 8
Layer0_S_
10
3031.698575084724
20
2.4797599165051807
30
1.2639543480852398e-32
11
3032.878719310858
21
3.514718625761432
31
1.2639543480852398e-32
 62
256
 0
LINE
 8
Layer0_S_
10
3032.878719310858
20
3.514718625761432
30
1.2639543480852398e-32
11
3033.9136780201143
21
4.694862851895357
31
1.2639543480852398e-32
 62
256
 0
LINE
 8
Layer0_S_
10
3033.9136780201143
20
4.694862851895357
30
1.2639543480852398e-32
11
3034.7857427820322
21
6.0
31
1.2639543480852398e-32
 62
256
 0
LINE
 8
Layer0_S_
10
3034.7857427820322
20
6.0
30
1.2639543480852398e-32
11
3035.479992326754
21
7.407798811618921
31
1.2639543480852398e-32
 62
256
 0
LINE
 8
Layer0_S_
10
3035.479992326754
20
7.407798811618921
30
1.2639543480852398e-32
11
3035.984547852088
21
8.89417145876975
31
1.2639543480852398e-32
 62
256
 0
LINE
 8
Layer0_S_
10
3035.984547852088
20
8.89417145876975
30
1.2639543480852398e-32
11
3036.2907762731047
21
10.433685693359385
31
1.2639543480852398e-32
 62
256
 0
LINE
 8
Layer0_S_
10
3036.2907762731047
20
10.433685693359385
30
1.2639543480852398e-32
11
3036.393437936619
21
12.0
31
1.2639543480852398e-32
 62
256
 0
LINE
 8
Layer0_S_
10
2863.393437936619
20
0.0
30
1.2639543480852398e-32
11
2861.8271236299784
21
0.10266166351427745
31
1.2639543480852398e-32
 62
256
 0
LINE
 8
Layer0_S_
10
2861.8271236299784
20
0.10266166351427745
30
1.2639543480852398e-32
11
2860.2876093953887
21
0.40889008453118103
31
1.2639543480852398e-32
 62
256
 0
LINE
 8
Layer0_S_
10
2860.2876093953887
20
0.40889008453118103
30
1.2639543480852398e-32
11
2858.801236748238
21
0.9134456098645543
31
1.2639543480852398e-32
 62
256
 0
LINE
 8
Layer0_S_
10
2858.801236748238
20
0.9134456098645543
30
1.2639543480852398e-32
11
2857.393437936619
21
1.6076951545867417
31
1.2639543480852398e-32
 62
256
 0
LINE
 8
Layer0_S_
10
2857.393437936619
20
1.6076951545867417
30
1.2639543480852398e-32
11
2856.0883007885145
21
2.4797599165051807
31
1.2639543480852398e-32
 62
256
 0
LINE
 8
Layer0_S_
10
2856.0883007885145
20
2.4797599165051807
30
1.2639543480852398e-32
11
2854.9081565623806
21
3.514718625761432
31
1.2639543480852398e-32
 62
256
 0
LINE
 8
Layer0_S_
10
2854.9081565623806
20
3.514718625761432
30
1.2639543480852398e-32
11
2853.873197853124
21
4.694862851895357
31
1.2639543480852398e-32
 62
256
 0
LINE
 8
Layer0_S_
10
2853.873197853124
20
4.694862851895357
30
1.2639543480852398e-32
11
2853.0011330912057
21
6.0
31
1.2639543480852398e-32
 62
256
 0
LINE
 8
Layer0_S_
10
2853.0011330912057
20
6.0
30
1.2639543480852398e-32
11
2852.3068835464837
21
7.407798811618921
31
1.2639543480852398e-32
 62
256
 0
LINE
 8
Layer0_S_
10
2852.3068835464837
20
7.407798811618921
30
1.2639543480852398e-32
11
2851.80232802115
21
8.89417145876975
31
1.2639543480852398e-32
 62
256
 0
LINE
 8
Layer0_S_
10
2851.80232802115
20
8.89417145876975
30
1.2639543480852398e-32
11
2851.496099600133
21
10.433685693359385
31
1.2639543480852398e-32
 62
256
 0
LINE
 8
Layer0_S_
10
2851.496099600133
20
10.433685693359385
30
1.2639543480852398e-32
11
2851.3934379366187
21
12.0
31
1.2639543480852398e-32
 62
256
 0
LINE
 8
Layer0_S_
10
2869.393437936619
20
115.99999999999993
30
1.2639543480852398e-32
11
2869.393437936619
21
24.0
31
1.2639543480852398e-32
 62
256
 0
LINE
 8
Layer0_S_
10
3012.393437936619
20
18.0
30
1.2639543480852398e-32
11
2875.3934379366187
21
18.00000000000001
31
1.2639543480852398e-32
 62
256
 0
LINE
 8
Layer0_S_
10
3018.393437936619
20
115.99999999999993
30
1.2639543480852398e-32
11
3018.393437936619
21
24.0
31
1.2639543480852398e-32
 62
256
 0
LINE
 8
Layer0_S_
10
3012.393437936619
20
121.99999999999991
30
1.2639543480852398e-32
11
2875.393437936619
21
121.99999999999993
31
1.2639543480852398e-32
 62
256
 0
LINE
 8
Layer0_S_
10
2869.393437936619
20
24.0
30
1.2639543480852398e-32
11
2869.4447687683764
21
23.216842846679693
31
1.43035709484711e-32
 62
256
 0
LINE
 8
Layer0_S_
10
2869.4447687683764
20
23.216842846679693
30
1.43035709484711e-32
11
2869.5978829788846
21
22.44708572938488
31
1.593912644476327e-32
 62
256
 0
LINE
 8
Layer0_S_
10
2869.5978829788846
20
22.44708572938488
30
1.593912644476327e-32
11
2869.8501607415515
21
21.703899405809466
31
1.7518225161725694e-32
 62
256
 0
LINE
 8
Layer0_S_
10
2869.8501607415515
20
21.703899405809466
30
1.7518225161725694e-32
11
2870.1972855139124
21
21.000000000000007
31
1.9013848282502276e-32
 62
256
 0
LINE
 8
Layer0_S_
10
2870.1972855139124
20
21.000000000000007
30
1.9013848282502276e-32
11
2870.6333178948717
21
20.347431425947686
31
2.0400405280831456e-32
 62
256
 0
LINE
 8
Layer0_S_
10
2870.6333178948717
20
20.347431425947686
30
2.0400405280831456e-32
11
2871.1507972494996
21
19.757359312880727
31
2.1654171782045594e-32
 62
256
 0
LINE
 8
Layer0_S_
10
2871.1507972494996
20
19.757359312880727
30
2.1654171782045594e-32
11
2871.7408693625666
21
19.239879958252608
31
2.2753695493699175e-32
 62
256
 0
LINE
 8
Layer0_S_
10
2871.7408693625666
20
19.239879958252608
30
2.2753695493699175e-32
11
2872.393437936619
21
18.80384757729339
31
2.368016326024024e-32
 62
256
 0
LINE
 8
Layer0_S_
10
2872.393437936619
20
18.80384757729339
30
2.368016326024024e-32
11
2873.0973373424285
21
18.456722804932294
31
2.4417722961317877e-32
 62
256
 0
LINE
 8
Layer0_S_
10
2873.0973373424285
20
18.456722804932294
30
2.4417722961317877e-32
11
2873.840523666004
21
18.204445042265604
31
2.4953754745956463e-32
 62
256
 0
LINE
 8
Layer0_S_
10
2873.840523666004
20
18.204445042265604
30
2.4953754745956463e-32
11
2874.6102807832985
21
18.051330831757152
31
2.5279086961704747e-32
 62
256
 0
LINE
 8
Layer0_S_
10
2874.6102807832985
20
18.051330831757152
30
2.5279086961704747e-32
11
2875.3934379366187
21
18.00000000000001
31
1.2639543480852398e-32
 62
256
 0
LINE
 8
Layer0_S_
10
3018.393437936619
20
24.0
30
1.2639543480852398e-32
11
3018.342107104862
21
23.216842846679693
31
1.4303570948471102e-32
 62
256
 0
LINE
 8
Layer0_S_
10
3018.342107104862
20
23.216842846679693
30
1.4303570948471102e-32
11
3018.1889928943538
21
22.447085729384877
31
1.5939126444763275e-32
 62
256
 0
LINE
 8
Layer0_S_
10
3018.1889928943538
20
22.447085729384877
30
1.5939126444763275e-32
11
3017.9367151316865
21
21.703899405809462
31
1.7518225161725703e-32
 62
256
 0
LINE
 8
Layer0_S_
10
3017.9367151316865
20
21.703899405809462
30
1.7518225161725703e-32
11
3017.589590359326
21
21.0
31
1.901384828250229e-32
 62
256
 0
LINE
 8
Layer0_S_
10
3017.589590359326
20
21.0
30
1.901384828250229e-32
11
3017.1535579783667
21
20.347431425947672
31
2.0400405280831473e-32
 62
256
 0
LINE
 8
Layer0_S_
10
3017.1535579783667
20
20.347431425947672
30
2.0400405280831473e-32
11
3016.6360786237383
21
19.757359312880716
31
2.1654171782045614e-32
 62
256
 0
LINE
 8
Layer0_S_
10
3016.6360786237383
20
19.757359312880716
30
2.1654171782045614e-32
11
3016.0460065106713
21
19.239879958252597
31
2.2753695493699197e-32
 62
256
 0
LINE
 8
Layer0_S_
10
3016.0460065106713
20
19.239879958252597
30
2.2753695493699197e-32
11
3015.393437936619
21
18.80384757729338
31
2.3680163260240263e-32
 62
256
 0
LINE
 8
Layer0_S_
10
3015.393437936619
20
18.80384757729338
30
2.3680163260240263e-32
11
3014.68953853081
21
18.456722804932284
31
2.44177229613179e-32
 62
256
 0
LINE
 8
Layer0_S_
10
3014.68953853081
20
18.456722804932284
30
2.44177229613179e-32
11
3013.946352207234
21
18.20444504226559
31
2.495375474595649e-32
 62
256
 0
LINE
 8
Layer0_S_
10
3013.946352207234
20
18.20444504226559
30
2.495375474595649e-32
11
3013.1765950899394
21
18.051330831757138
31
2.5279086961704775e-32
 62
256
 0
LINE
 8
Layer0_S_
10
3013.1765950899394
20
18.051330831757138
30
2.5279086961704775e-32
11
3012.393437936619
21
18.0
31
1.2639543480852398e-32
 62
256
 0
LINE
 8
Layer0_S_
10
3018.393437936619
20
115.99999999999993
30
1.2639543480852398e-32
11
3018.342107104862
21
116.78315715332023
31
1.0975516013233697e-32
 62
256
 0
LINE
 8
Layer0_S_
10
3018.342107104862
20
116.78315715332023
30
1.0975516013233697e-32
11
3018.1889928943538
21
117.55291427061503
31
9.339960516941523e-33
 62
256
 0
LINE
 8
Layer0_S_
10
3018.1889928943538
20
117.55291427061503
30
9.339960516941523e-33
11
3017.9367151316865
21
118.29610059419046
31
7.760861799979094e-33
 62
256
 0
LINE
 8
Layer0_S_
10
3017.9367151316865
20
118.29610059419046
30
7.760861799979094e-33
11
3017.589590359326
21
118.99999999999991
31
6.265238679202509e-33
 62
256
 0
LINE
 8
Layer0_S_
10
3017.589590359326
20
118.99999999999991
30
6.265238679202509e-33
11
3017.1535579783667
21
119.65256857405225
31
4.8786816808733236e-33
 62
256
 0
LINE
 8
Layer0_S_
10
3017.1535579783667
20
119.65256857405225
30
4.8786816808733236e-33
11
3016.6360786237383
21
120.24264068711922
31
3.6249151796591816e-33
 62
256
 0
LINE
 8
Layer0_S_
10
3016.6360786237383
20
120.24264068711922
30
3.6249151796591816e-33
11
3016.0460065106713
21
120.76012004174733
31
2.5253914680056007e-33
 62
256
 0
LINE
 8
Layer0_S_
10
3016.0460065106713
20
120.76012004174733
30
2.5253914680056007e-33
11
3015.393437936619
21
121.19615242270655
31
1.598923701464535e-33
 62
256
 0
LINE
 8
Layer0_S_
10
3015.393437936619
20
121.19615242270655
30
1.598923701464535e-33
11
3014.68953853081
21
121.54327719506765
31
8.613640003868963e-34
 62
256
 0
LINE
 8
Layer0_S_
10
3014.68953853081
20
121.54327719506765
30
8.613640003868963e-34
11
3013.946352207234
21
121.79555495773434
31
3.25332215748307e-34
 62
256
 0
LINE
 8
Layer0_S_
10
3013.946352207234
20
121.79555495773434
30
3.25332215748307e-34
11
3013.1765950899394
21
121.94866916824279
31
2.1724231563629366e-47
 62
256
 0
LINE
 8
Layer0_S_
10
3013.1765950899394
20
121.94866916824279
30
2.1724231563629366e-47
11
3012.393437936619
21
121.99999999999991
31
1.2639543480852398e-32
 62
256
 0
LINE
 8
Layer0_S_
10
2869.393437936619
20
115.99999999999993
30
1.2639543480852398e-32
11
2869.4447687683764
21
116.78315715332023
31
1.0975516013233694e-32
 62
256
 0
LINE
 8
Layer0_S_
10
2869.4447687683764
20
116.78315715332023
30
1.0975516013233694e-32
11
2869.5978829788846
21
117.55291427061503
31
9.339960516941519e-33
 62
256
 0
LINE
 8
Layer0_S_
10
2869.5978829788846
20
117.55291427061503
30
9.339960516941519e-33
11
2869.8501607415515
21
118.29610059419046
31
7.760861799979086e-33
 62
256
 0
LINE
 8
Layer0_S_
10
2869.8501607415515
20
118.29610059419046
30
7.760861799979086e-33
11
2870.1972855139124
21
118.99999999999991
31
6.265238679202499e-33
 62
256
 0
LINE
 8
Layer0_S_
10
2870.1972855139124
20
118.99999999999991
30
6.265238679202499e-33
11
2870.6333178948717
21
119.65256857405225
31
4.878681680873314e-33
 62
256
 0
LINE
 8
Layer0_S_
10
2870.6333178948717
20
119.65256857405225
30
4.878681680873314e-33
11
2871.1507972494996
21
120.24264068711922
31
3.6249151796591686e-33
 62
256
 0
LINE
 8
Layer0_S_
10
2871.1507972494996
20
120.24264068711922
30
3.6249151796591686e-33
11
2871.7408693625666
21
120.76012004174736
31
2.5253914680055833e-33
 62
256
 0
LINE
 8
Layer0_S_
10
2871.7408693625666
20
120.76012004174736
30
2.5253914680055833e-33
11
2872.393437936619
21
121.19615242270658
31
1.5989237014645174e-33
 62
256
 0
LINE
 8
Layer0_S_
10
2872.393437936619
20
121.19615242270658
30
1.5989237014645174e-33
11
2873.0973373424285
21
121.54327719506765
31
8.613640003868768e-34
 62
256
 0
LINE
 8
Layer0_S_
10
2873.0973373424285
20
121.54327719506765
30
8.613640003868768e-34
11
2873.840523666004
21
121.79555495773434
31
3.253322157482896e-34
 62
256
 0
LINE
 8
Layer0_S_
10
2873.840523666004
20
121.79555495773434
30
3.253322157482896e-34
11
2874.6102807832985
21
121.94866916824279
31
0.0
 62
256
 0
LINE
 8
Layer0_S_
10
2874.6102807832985
20
121.94866916824279
30
0.0
11
2875.393437936619
21
121.99999999999993
31
1.2639543480852398e-32
 62
256
 0
LINE
 8
Layer0_S_
10
2860.393437936619
20
12.0
30
1.2639543480852398e-32
11
2860.495660457752
21
12.776457135307558
31
1.2639543480852398e-32
 62
256
 0
LINE
 8
Layer0_S_
10
2860.495660457752
20
12.776457135307558
30
1.2639543480852398e-32
11
2860.795361725266
21
13.499999999999998
31
1.2639543480852398e-32
 62
256
 0
LINE
 8
Layer0_S_
10
2860.795361725266
20
13.499999999999998
30
1.2639543480852398e-32
11
2861.2721175930596
21
14.121320343559637
31
1.2639543480852398e-32
 62
256
 0
LINE
 8
Layer0_S_
10
2861.2721175930596
20
14.121320343559637
30
1.2639543480852398e-32
11
2861.893437936619
21
14.598076211353312
31
1.2639543480852398e-32
 62
256
 0
LINE
 8
Layer0_S_
10
2861.893437936619
20
14.598076211353312
30
1.2639543480852398e-32
11
2862.6169808013115
21
14.897777478867194
31
1.2639543480852398e-32
 62
256
 0
LINE
 8
Layer0_S_
10
2862.6169808013115
20
14.897777478867194
30
1.2639543480852398e-32
11
2863.393437936619
21
14.999999999999995
31
1.2639543480852398e-32
 62
256
 0
LINE
 8
Layer0_S_
10
2863.393437936619
20
14.999999999999995
30
1.2639543480852398e-32
11
2864.1698950719265
21
14.897777478867194
31
1.2639543480852398e-32
 62
256
 0
LINE
 8
Layer0_S_
10
2864.1698950719265
20
14.897777478867194
30
1.2639543480852398e-32
11
2864.893437936619
21
14.598076211353312
31
1.2639543480852398e-32
 62
256
 0
LINE
 8
Layer0_S_
10
2864.893437936619
20
14.598076211353312
30
1.2639543480852398e-32
11
2865.5147582801787
21
14.121320343559637
31
1.2639543480852398e-32
 62
256
 0
LINE
 8
Layer0_S_
10
2865.5147582801787
20
14.121320343559637
30
1.2639543480852398e-32
11
2865.9915141479723
21
13.499999999999998
31
1.2639543480852398e-32
 62
256
 0
LINE
 8
Layer0_S_
10
2865.9915141479723
20
13.499999999999998
30
1.2639543480852398e-32
11
2866.291215415486
21
12.776457135307558
31
1.2639543480852398e-32
 62
256
 0
LINE
 8
Layer0_S_
10
2866.291215415486
20
12.776457135307558
30
1.2639543480852398e-32
11
2866.393437936619
21
12.0
31
1.2639543480852398e-32
 62
256
 0
LINE
 8
Layer0_S_
10
2866.393437936619
20
12.0
30
1.2639543480852398e-32
11
2866.291215415486
21
11.223542864692444
31
1.2639543480852398e-32
 62
256
 0
LINE
 8
Layer0_S_
10
2866.291215415486
20
11.223542864692444
30
1.2639543480852398e-32
11
2865.9915141479723
21
10.500000000000004
31
1.2639543480852398e-32
 62
256
 0
LINE
 8
Layer0_S_
10
2865.9915141479723
20
10.500000000000004
30
1.2639543480852398e-32
11
2865.5147582801787
21
9.878679656440363
31
1.2639543480852398e-32
 62
256
 0
LINE
 8
Layer0_S_
10
2865.5147582801787
20
9.878679656440363
30
1.2639543480852398e-32
11
2864.893437936619
21
9.40192378864669
31
1.2639543480852398e-32
 62
256
 0
LINE
 8
Layer0_S_
10
2864.893437936619
20
9.40192378864669
30
1.2639543480852398e-32
11
2864.1698950719265
21
9.102222521132807
31
1.2639543480852398e-32
 62
256
 0
LINE
 8
Layer0_S_
10
2864.1698950719265
20
9.102222521132807
30
1.2639543480852398e-32
11
2863.393437936619
21
9.000000000000005
31
1.2639543480852398e-32
 62
256
 0
LINE
 8
Layer0_S_
10
2863.393437936619
20
9.000000000000005
30
1.2639543480852398e-32
11
2862.6169808013115
21
9.102222521132807
31
1.2639543480852398e-32
 62
256
 0
LINE
 8
Layer0_S_
10
2862.6169808013115
20
9.102222521132807
30
1.2639543480852398e-32
11
2861.893437936619
21
9.40192378864669
31
1.2639543480852398e-32
 62
256
 0
LINE
 8
Layer0_S_
10
2861.893437936619
20
9.40192378864669
30
1.2639543480852398e-32
11
2861.2721175930596
21
9.878679656440363
31
1.2639543480852398e-32
 62
256
 0
LINE
 8
Layer0_S_
10
2861.2721175930596
20
9.878679656440363
30
1.2639543480852398e-32
11
2860.795361725266
21
10.500000000000004
31
1.2639543480852398e-32
 62
256
 0
LINE
 8
Layer0_S_
10
2860.795361725266
20
10.500000000000004
30
1.2639543480852398e-32
11
2860.495660457752
21
11.223542864692444
31
1.2639543480852398e-32
 62
256
 0
LINE
 8
Layer0_S_
10
2860.495660457752
20
11.223542864692444
30
1.2639543480852398e-32
11
2860.393437936619
21
12.0
31
1.2639543480852398e-32
 62
256
 0
LINE
 8
Layer0_S_
10
3021.3934379366187
20
12.0
30
1.2639543480852398e-32
11
3021.495660457752
21
12.776457135307558
31
1.2639543480852398e-32
 62
256
 0
LINE
 8
Layer0_S_
10
3021.495660457752
20
12.776457135307558
30
1.2639543480852398e-32
11
3021.7953617252656
21
13.499999999999998
31
1.2639543480852398e-32
 62
256
 0
LINE
 8
Layer0_S_
10
3021.7953617252656
20
13.499999999999998
30
1.2639543480852398e-32
11
3022.272117593059
21
14.121320343559637
31
1.2639543480852398e-32
 62
256
 0
LINE
 8
Layer0_S_
10
3022.272117593059
20
14.121320343559637
30
1.2639543480852398e-32
11
3022.8934379366187
21
14.598076211353312
31
1.2639543480852398e-32
 62
256
 0
LINE
 8
Layer0_S_
10
3022.8934379366187
20
14.598076211353312
30
1.2639543480852398e-32
11
3023.6169808013115
21
14.897777478867205
31
1.2639543480852398e-32
 62
256
 0
LINE
 8
Layer0_S_
10
3023.6169808013115
20
14.897777478867205
30
1.2639543480852398e-32
11
3024.3934379366187
21
14.999999999999995
31
1.2639543480852398e-32
 62
256
 0
LINE
 8
Layer0_S_
10
3024.3934379366187
20
14.999999999999995
30
1.2639543480852398e-32
11
3025.169895071927
21
14.897777478867205
31
1.2639543480852398e-32
 62
256
 0
LINE
 8
Layer0_S_
10
3025.169895071927
20
14.897777478867205
30
1.2639543480852398e-32
11
3025.8934379366187
21
14.598076211353312
31
1.2639543480852398e-32
 62
256
 0
LINE
 8
Layer0_S_
10
3025.8934379366187
20
14.598076211353312
30
1.2639543480852398e-32
11
3026.5147582801787
21
14.121320343559637
31
1.2639543480852398e-32
 62
256
 0
LINE
 8
Layer0_S_
10
3026.5147582801787
20
14.121320343559637
30
1.2639543480852398e-32
11
3026.9915141479723
21
13.499999999999998
31
1.2639543480852398e-32
 62
256
 0
LINE
 8
Layer0_S_
10
3026.9915141479723
20
13.499999999999998
30
1.2639543480852398e-32
11
3027.2912154154865
21
12.776457135307558
31
1.2639543480852398e-32
 62
256
 0
LINE
 8
Layer0_S_
10
3027.2912154154865
20
12.776457135307558
30
1.2639543480852398e-32
11
3027.393437936619
21
12.0
31
1.2639543480852398e-32
 62
256
 0
LINE
 8
Layer0_S_
10
3027.393437936619
20
12.0
30
1.2639543480852398e-32
11
3027.2912154154865
21
11.223542864692444
31
1.2639543480852398e-32
 62
256
 0
LINE
 8
Layer0_S_
10
3027.2912154154865
20
11.223542864692444
30
1.2639543480852398e-32
11
3026.9915141479723
21
10.500000000000004
31
1.2639543480852398e-32
 62
256
 0
LINE
 8
Layer0_S_
10
3026.9915141479723
20
10.500000000000004
30
1.2639543480852398e-32
11
3026.5147582801787
21
9.878679656440363
31
1.2639543480852398e-32
 62
256
 0
LINE
 8
Layer0_S_
10
3026.5147582801787
20
9.878679656440363
30
1.2639543480852398e-32
11
3025.8934379366187
21
9.40192378864669
31
1.2639543480852398e-32
 62
256
 0
LINE
 8
Layer0_S_
10
3025.8934379366187
20
9.40192378864669
30
1.2639543480852398e-32
11
3025.169895071927
21
9.102222521132795
31
1.2639543480852398e-32
 62
256
 0
LINE
 8
Layer0_S_
10
3025.169895071927
20
9.102222521132795
30
1.2639543480852398e-32
11
3024.3934379366187
21
9.000000000000005
31
1.2639543480852398e-32
 62
256
 0
LINE
 8
Layer0_S_
10
3024.3934379366187
20
9.000000000000005
30
1.2639543480852398e-32
11
3023.6169808013115
21
9.102222521132795
31
1.2639543480852398e-32
 62
256
 0
LINE
 8
Layer0_S_
10
3023.6169808013115
20
9.102222521132795
30
1.2639543480852398e-32
11
3022.8934379366187
21
9.40192378864669
31
1.2639543480852398e-32
 62
256
 0
LINE
 8
Layer0_S_
10
3022.8934379366187
20
9.40192378864669
30
1.2639543480852398e-32
11
3022.272117593059
21
9.878679656440363
31
1.2639543480852398e-32
 62
256
 0
LINE
 8
Layer0_S_
10
3022.272117593059
20
9.878679656440363
30
1.2639543480852398e-32
11
3021.7953617252656
21
10.500000000000004
31
1.2639543480852398e-32
 62
256
 0
LINE
 8
Layer0_S_
10
3021.7953617252656
20
10.500000000000004
30
1.2639543480852398e-32
11
3021.495660457752
21
11.223542864692432
31
1.2639543480852398e-32
 62
256
 0
LINE
 8
Layer0_S_
10
3021.495660457752
20
11.223542864692432
30
1.2639543480852398e-32
11
3021.3934379366187
21
12.0
31
1.2639543480852398e-32
 62
256
 0
LINE
 8
Layer0_S_
10
3026.404233194693
20
130.22636529574697
30
1.2639543480852398e-32
11
3025.804549553643
21
130.6474070341184
31
1.2639543480852398e-32
 62
256
 0
LINE
 8
Layer0_S_
10
3025.804549553643
20
130.6474070341184
30
1.2639543480852398e-32
11
3025.1206857958955
21
130.91051723086758
31
1.2639543480852398e-32
 62
256
 0
LINE
 8
Layer0_S_
10
3025.1206857958955
20
130.91051723086758
30
1.2639543480852398e-32
11
3024.3934379366187
21
130.99999999999991
31
1.2639543480852398e-32
 62
256
 0
LINE
 8
Layer0_S_
10
3024.3934379366187
20
130.99999999999991
30
1.2639543480852398e-32
11
3023.6661900773424
21
130.91051723086758
31
1.2639543480852398e-32
 62
256
 0
LINE
 8
Layer0_S_
10
3023.6661900773424
20
130.91051723086758
30
1.2639543480852398e-32
11
3022.9823263195954
21
130.6474070341184
31
1.2639543480852398e-32
 62
256
 0
LINE
 8
Layer0_S_
10
3022.9823263195954
20
130.6474070341184
30
1.2639543480852398e-32
11
3022.382642678545
21
130.22636529574697
31
1.2639543480852398e-32
 62
256
 0
LINE
 8
Layer0_S_
10
3026.404233194693
20
130.22636529574697
30
1.2639543480852398e-32
11
3026.8769957047843
21
129.68283713180628
31
1.2639543480852398e-32
 62
256
 0
LINE
 8
Layer0_S_
10
3026.8769957047843
20
129.68283713180628
30
1.2639543480852398e-32
11
3027.206559790696
21
129.04227896175342
31
1.2639543480852398e-32
 62
256
 0
LINE
 8
Layer0_S_
10
3027.206559790696
20
129.04227896175342
30
1.2639543480852398e-32
11
3027.3739232538996
21
128.34162446263932
31
1.2639543480852398e-32
 62
256
 0
LINE
 8
Layer0_S_
10
3027.3739232538996
20
128.34162446263932
30
1.2639543480852398e-32
11
3027.3694361540947
21
127.62127238075176
31
1.2639543480852398e-32
 62
256
 0
LINE
 8
Layer0_S_
10
3027.3694361540947
20
127.62127238075176
30
1.2639543480852398e-32
11
3027.193357211102
21
126.9227571971094
31
1.2639543480852398e-32
 62
256
 0
LINE
 8
Layer0_S_
10
3027.193357211102
20
126.9227571971094
30
1.2639543480852398e-32
11
3026.8558388874453
21
126.28635430809926
31
1.2639543480852398e-32
 62
256
 0
LINE
 8
Layer0_S_
10
3026.8558388874453
20
126.28635430809926
30
1.2639543480852398e-32
11
3026.3763420117393
21
125.7487578031512
31
1.2639543480852398e-32
 62
256
 0
LINE
 8
Layer0_S_
10
3026.3763420117393
20
125.7487578031512
30
1.2639543480852398e-32
11
3025.782513694866
21
125.34096473550059
31
1.2639543480852398e-32
 62
256
 0
LINE
 8
Layer0_S_
10
3025.782513694866
20
125.34096473550059
30
1.2639543480852398e-32
11
3025.108593236712
21
125.08648787599066
31
1.2639543480852398e-32
 62
256
 0
LINE
 8
Layer0_S_
10
3025.108593236712
20
125.08648787599066
30
1.2639543480852398e-32
11
3024.3934379366187
21
124.99999999999993
31
1.2639543480852398e-32
 62
256
 0
LINE
 8
Layer0_S_
10
3024.3934379366187
20
124.99999999999993
30
1.2639543480852398e-32
11
3023.678282636526
21
125.08648787599066
31
1.2639543480852398e-32
 62
256
 0
LINE
 8
Layer0_S_
10
3023.678282636526
20
125.08648787599066
30
1.2639543480852398e-32
11
3023.004362178372
21
125.34096473550059
31
1.2639543480852398e-32
 62
256
 0
LINE
 8
Layer0_S_
10
3023.004362178372
20
125.34096473550059
30
1.2639543480852398e-32
11
3022.410533861499
21
125.7487578031512
31
1.2639543480852398e-32
 62
256
 0
LINE
 8
Layer0_S_
10
3022.410533861499
20
125.7487578031512
30
1.2639543480852398e-32
11
3021.931036985793
21
126.28635430809926
31
1.2639543480852398e-32
 62
256
 0
LINE
 8
Layer0_S_
10
3021.931036985793
20
126.28635430809926
30
1.2639543480852398e-32
11
3021.5935186621364
21
126.9227571971094
31
1.2639543480852398e-32
 62
256
 0
LINE
 8
Layer0_S_
10
3021.5935186621364
20
126.9227571971094
30
1.2639543480852398e-32
11
3021.4174397191437
21
127.62127238075176
31
1.2639543480852398e-32
 62
256
 0
LINE
 8
Layer0_S_
10
3021.4174397191437
20
127.62127238075176
30
1.2639543480852398e-32
11
3021.4129526193383
21
128.34162446263932
31
1.2639543480852398e-32
 62
256
 0
LINE
 8
Layer0_S_
10
3021.4129526193383
20
128.34162446263932
30
1.2639543480852398e-32
11
3021.5803160825417
21
129.04227896175342
31
1.2639543480852398e-32
 62
256
 0
LINE
 8
Layer0_S_
10
3021.5803160825417
20
129.04227896175342
30
1.2639543480852398e-32
11
3021.909880168454
21
129.68283713180628
31
1.2639543480852398e-32
 62
256
 0
LINE
 8
Layer0_S_
10
3021.909880168454
20
129.68283713180628
30
1.2639543480852398e-32
11
3022.382642678545
21
130.22636529574697
31
1.2639543480852398e-32
 62
256
 0
LINE
 8
Layer0_S_
10
2865.404233194693
20
130.226365295747
30
1.2639543480852398e-32
11
2865.8947348982542
21
129.65635549013962
31
1.2639543480852398e-32
 62
256
 0
LINE
 8
Layer0_S_
10
2865.8947348982542
20
129.65635549013962
30
1.2639543480852398e-32
11
2866.228070914589
21
128.9822707774374
31
1.2639543480852398e-32
 62
256
 0
LINE
 8
Layer0_S_
10
2866.228070914589
20
128.9822707774374
30
1.2639543480852398e-32
11
2866.3832965158663
21
128.2464663792496
31
1.2639543480852398e-32
 62
256
 0
LINE
 8
Layer0_S_
10
2866.3832965158663
20
128.2464663792496
30
1.2639543480852398e-32
11
2866.3506583066796
21
127.49517559201358
31
1.2639543480852398e-32
 62
256
 0
LINE
 8
Layer0_S_
10
2866.3506583066796
20
127.49517559201358
30
1.2639543480852398e-32
11
2866.132207065746
21
126.77560477894563
31
1.2639543480852398e-32
 62
256
 0
LINE
 8
Layer0_S_
10
2866.132207065746
20
126.77560477894563
30
1.2639543480852398e-32
11
2865.741668887941
21
126.1329672206272
31
1.2639543480852398e-32
 62
256
 0
LINE
 8
Layer0_S_
10
2865.741668887941
20
126.1329672206272
30
1.2639543480852398e-32
11
2865.2035827232753
21
125.60764219830295
31
1.2639543480852398e-32
 62
256
 0
LINE
 8
Layer0_S_
10
2865.2035827232753
20
125.60764219830295
30
1.2639543480852398e-32
11
2864.5517585044176
21
125.23263781513587
31
1.2639543480852398e-32
 62
256
 0
LINE
 8
Layer0_S_
10
2864.5517585044176
20
125.23263781513587
30
1.2639543480852398e-32
11
2863.8271527442794
21
125.03151697568998
31
1.2639543480852398e-32
 62
256
 0
LINE
 8
Layer0_S_
10
2863.8271527442794
20
125.03151697568998
30
1.2639543480852398e-32
11
2863.0752950876845
21
125.01691684197837
31
1.2639543480852398e-32
 62
256
 0
LINE
 8
Layer0_S_
10
2863.0752950876845
20
125.01691684197837
30
1.2639543480852398e-32
11
2862.343427516336
21
125.18975479409768
31
1.2639543480852398e-32
 62
256
 0
LINE
 8
Layer0_S_
10
2862.343427516336
20
125.18975479409768
30
1.2639543480852398e-32
11
2861.6775359613616
21
125.53917078786272
31
1.2639543480852398e-32
 62
256
 0
LINE
 8
Layer0_S_
10
2861.6775359613616
20
125.53917078786272
30
1.2639543480852398e-32
11
2861.119460838139
21
126.0432097313231
31
1.2639543480852398e-32
 62
256
 0
LINE
 8
Layer0_S_
10
2861.119460838139
20
126.0432097313231
30
1.2639543480852398e-32
11
2860.7042680591167
21
126.67020100393567
31
1.2639543480852398e-32
 62
256
 0
LINE
 8
Layer0_S_
10
2860.7042680591167
20
126.67020100393567
30
1.2639543480852398e-32
11
2860.4580457135726
21
127.38074843812953
31
1.2639543480852398e-32
 62
256
 0
LINE
 8
Layer0_S_
10
2860.4580457135726
20
127.38074843812953
30
1.2639543480852398e-32
11
2860.39626485702
21
128.13020572540364
31
1.2639543480852398e-32
 62
256
 0
LINE
 8
Layer0_S_
10
2860.39626485702
20
128.13020572540364
30
1.2639543480852398e-32
11
2860.5228074078905
21
128.8714817080875
31
1.2639543480852398e-32
 62
256
 0
LINE
 8
Layer0_S_
10
2860.5228074078905
20
128.8714817080875
30
1.2639543480852398e-32
11
2860.8297222323213
21
129.55799928996666
31
1.2639543480852398e-32
 62
256
 0
LINE
 8
Layer0_S_
10
2860.8297222323213
20
129.55799928996666
30
1.2639543480852398e-32
11
2861.29772474314
21
130.14662204653666
31
1.2639543480852398e-32
 62
256
 0
LINE
 8
Layer0_S_
10
2861.29772474314
20
130.14662204653666
30
1.2639543480852398e-32
11
2861.897408621399
21
130.6003646451991
31
1.2639543480852398e-32
 62
256
 0
LINE
 8
Layer0_S_
10
2861.897408621399
20
130.6003646451991
30
1.2639543480852398e-32
11
2862.5910935235443
21
130.8907167697315
31
1.2639543480852398e-32
 62
256
 0
LINE
 8
Layer0_S_
10
2862.5910935235443
20
130.8907167697315
30
1.2639543480852398e-32
11
2863.335192675979
21
130.99943452830905
31
1.2639543480852398e-32
 62
256
 0
LINE
 8
Layer0_S_
10
2863.335192675979
20
130.99943452830905
30
1.2639543480852398e-32
11
2864.082951592351
21
130.9196867843244
31
1.2639543480852398e-32
 62
256
 0
LINE
 8
Layer0_S_
10
2864.082951592351
20
130.9196867843244
30
1.2639543480852398e-32
11
2864.78738582988
21
130.65648438182373
31
1.2639543480852398e-32
 62
256
 0
LINE
 8
Layer0_S_
10
2864.78738582988
20
130.65648438182373
30
1.2639543480852398e-32
11
2865.404233194693
21
130.226365295747
31
1.2639543480852398e-32
 62
256
 0
ENDSEC
 0
EOF
