 0
SECTION
 2
HEADER
 9
$ACADVER
 1
AC1006
 9
$LTSCALE
 40
1000.0
 0
ENDSEC
 0
SECTION
 2
TABLES
 0
TABLE
 2
LTYPE
 70
1
 0
LTYPE
 2
SKEMA_SOLID
 70
64
 3
Sketchup - Skema Ltype
 72
65
 73
0
 40
0.000000
 0
LTYPE
 2
SKEMA_DASHED
 70
64
 3
Sketchup - Skema Ltype
 72
65
 73
2
 40
0.1
 49
0.05
 49
-0.05
 0
LTYPE
 2
SKEMA_DOTTED
 70
64
 3
Sketchup - Skema Ltype
 72
65
 73
2
 40
00.1
 49
0.0
 49
-00.1
 0
ENDTAB
 0
TABLE
 2
LAYER
 70
6
 0
LAYER
 2
Layer0_S_
 70
64
 62
20
 6
SKEMA_SOLID
 0
ENDTAB
 0
TABLE
 2
STYLE
 70
0
 0
ENDTAB
 0
ENDSEC
 0
SECTION
 2
BLOCKS
 0
ENDSEC
 0
SECTION
 2
ENTITIES
 0
LINE
 8
Layer0_S_
10
1881.8360627619713
20
139.99999999999991
30
0.0
11
1881.8193143263825
21
132.57522958413549
31
1.5653958587979452e-31
 62
256
 0
LINE
 8
Layer0_S_
10
1885.8360627619716
20
139.81107288852084
30
0.0
11
1885.8528111975606
21
132.57522958413549
31
1.5653958587979452e-31
 62
256
 0
LINE
 8
Layer0_S_
10
1895.8360627619713
20
12.0
30
2.974252131716096e-30
11
1895.8360627619713
21
127.99999999999993
31
3.1307917175958904e-31
 62
256
 0
LINE
 8
Layer0_S_
10
1722.8360627619713
20
0.0
30
3.287331303475685e-30
11
1883.8360627619716
21
0.0
31
3.287331303475685e-30
 62
256
 0
LINE
 8
Layer0_S_
10
1710.8360627619716
20
127.99999999999993
30
3.1307917175958904e-31
11
1710.8360627619716
21
12.0
31
2.974252131716096e-30
 62
256
 0
LINE
 8
Layer0_S_
10
1720.8360627619716
20
139.81107288852084
30
0.0
11
1720.8193143263825
21
132.57522958413549
31
1.5653958587979452e-31
 62
256
 0
LINE
 8
Layer0_S_
10
1724.8360627619718
20
139.99999999999991
30
0.0
11
1724.8528111975606
21
132.57522958413549
31
1.5653958587979452e-31
 62
256
 0
LINE
 8
Layer0_S_
10
1881.8360627619713
20
139.99999999999991
30
0.0
11
1724.8360627619718
21
139.99999999999991
31
0.0
 62
256
 0
LINE
 8
Layer0_S_
10
1881.8193143263825
20
132.57522958413549
30
1.5653958587979452e-31
11
1880.758521174766
21
131.9406519484749
31
1.5653958587979452e-31
 62
256
 0
LINE
 8
Layer0_S_
10
1880.758521174766
20
131.9406519484749
30
1.5653958587979452e-31
11
1879.8858237810016
21
131.0652262548181
31
3.1307917175958904e-31
 62
256
 0
LINE
 8
Layer0_S_
10
1879.8858237810016
20
131.0652262548181
30
3.1307917175958904e-31
11
1879.2545603934955
21
130.00245750208254
31
3.1307917175958904e-31
 62
256
 0
LINE
 8
Layer0_S_
10
1879.2545603934955
20
130.00245750208254
30
3.1307917175958904e-31
11
1878.903313095352
21
128.8173008787858
31
3.1307917175958904e-31
 62
256
 0
LINE
 8
Layer0_S_
10
1878.903313095352
20
128.8173008787858
30
3.1307917175958904e-31
11
1878.853549712388
21
127.58219177756709
31
3.1307917175958904e-31
 62
256
 0
LINE
 8
Layer0_S_
10
1878.853549712388
20
127.58219177756709
30
3.1307917175958904e-31
11
1879.1083117246192
21
126.37261862834406
31
3.1307917175958904e-31
 62
256
 0
LINE
 8
Layer0_S_
10
1879.1083117246192
20
126.37261862834406
30
3.1307917175958904e-31
11
1879.6520283745404
21
125.26250913338623
31
3.1307917175958904e-31
 62
256
 0
LINE
 8
Layer0_S_
10
1879.6520283745404
20
125.26250913338623
30
3.1307917175958904e-31
11
1880.4514683336954
21
124.31971189224505
31
4.696187576393835e-31
 62
256
 0
LINE
 8
Layer0_S_
10
1880.4514683336954
20
124.31971189224505
30
4.696187576393835e-31
11
1881.45777076277
21
123.60184957436253
31
4.696187576393835e-31
 62
256
 0
LINE
 8
Layer0_S_
10
1881.45777076277
20
123.60184957436253
30
4.696187576393835e-31
11
1882.609431629191
21
123.15279708861965
31
4.696187576393835e-31
 62
256
 0
LINE
 8
Layer0_S_
10
1882.609431629191
20
123.15279708861965
30
4.696187576393835e-31
11
1883.8360627619716
21
122.99999999999993
31
4.696187576393835e-31
 62
256
 0
LINE
 8
Layer0_S_
10
1883.8360627619716
20
122.99999999999993
30
4.696187576393835e-31
11
1885.0626938947519
21
123.15279708861965
31
4.696187576393835e-31
 62
256
 0
LINE
 8
Layer0_S_
10
1885.0626938947519
20
123.15279708861965
30
4.696187576393835e-31
11
1886.214354761173
21
123.60184957436253
31
4.696187576393835e-31
 62
256
 0
LINE
 8
Layer0_S_
10
1886.214354761173
20
123.60184957436253
30
4.696187576393835e-31
11
1887.2206571902475
21
124.31971189224505
31
4.696187576393835e-31
 62
256
 0
LINE
 8
Layer0_S_
10
1887.2206571902475
20
124.31971189224505
30
4.696187576393835e-31
11
1888.0200971494028
21
125.26250913338623
31
3.1307917175958904e-31
 62
256
 0
LINE
 8
Layer0_S_
10
1888.0200971494028
20
125.26250913338623
30
3.1307917175958904e-31
11
1888.563813799324
21
126.37261862834406
31
3.1307917175958904e-31
 62
256
 0
LINE
 8
Layer0_S_
10
1888.563813799324
20
126.37261862834406
30
3.1307917175958904e-31
11
1888.8185758115549
21
127.58219177756709
31
3.1307917175958904e-31
 62
256
 0
LINE
 8
Layer0_S_
10
1888.8185758115549
20
127.58219177756709
30
3.1307917175958904e-31
11
1888.768812428591
21
128.81730087878577
31
3.1307917175958904e-31
 62
256
 0
LINE
 8
Layer0_S_
10
1888.768812428591
20
128.81730087878577
30
3.1307917175958904e-31
11
1888.4175651304479
21
130.00245750208254
31
3.1307917175958904e-31
 62
256
 0
LINE
 8
Layer0_S_
10
1888.4175651304479
20
130.00245750208254
30
3.1307917175958904e-31
11
1887.7863017429413
21
131.0652262548181
31
3.1307917175958904e-31
 62
256
 0
LINE
 8
Layer0_S_
10
1887.7863017429413
20
131.0652262548181
30
3.1307917175958904e-31
11
1886.913604349177
21
131.9406519484749
31
1.5653958587979452e-31
 62
256
 0
LINE
 8
Layer0_S_
10
1886.913604349177
20
131.9406519484749
30
1.5653958587979452e-31
11
1885.8528111975606
21
132.57522958413549
31
1.5653958587979452e-31
 62
256
 0
LINE
 8
Layer0_S_
10
1885.8360627619716
20
139.81107288852084
30
0.0
11
1887.3282923089928
21
139.48060681283482
31
0.0
 62
256
 0
LINE
 8
Layer0_S_
10
1887.3282923089928
20
139.48060681283482
30
0.0
11
1888.7603121377688
21
138.94311509968514
31
0.0
 62
256
 0
LINE
 8
Layer0_S_
10
1888.7603121377688
20
138.94311509968514
30
0.0
11
1890.1123273404708
21
138.22782982556296
31
0.0
 62
256
 0
LINE
 8
Layer0_S_
10
1890.1123273404708
20
138.22782982556296
30
0.0
11
1891.362371630973
21
137.34637228064383
31
1.5653958587979452e-31
 62
256
 0
LINE
 8
Layer0_S_
10
1891.362371630973
20
137.34637228064383
30
1.5653958587979452e-31
11
1892.4901354517365
21
136.3130635676786
31
1.5653958587979452e-31
 62
256
 0
LINE
 8
Layer0_S_
10
1892.4901354517365
20
136.3130635676786
30
1.5653958587979452e-31
11
1893.4772959446161
21
135.14469192602948
31
1.5653958587979452e-31
 62
256
 0
LINE
 8
Layer0_S_
10
1893.4772959446161
20
135.14469192602948
30
1.5653958587979452e-31
11
1894.307814643629
21
133.86023997196398
31
1.5653958587979452e-31
 62
256
 0
LINE
 8
Layer0_S_
10
1894.307814643629
20
133.86023997196398
30
1.5653958587979452e-31
11
1894.968198053037
21
132.48057628675267
31
1.5653958587979452e-31
 62
256
 0
LINE
 8
Layer0_S_
10
1894.968198053037
20
132.48057628675267
30
1.5653958587979452e-31
11
1895.4477168771245
21
131.0281163633611
31
3.1307917175958904e-31
 62
256
 0
LINE
 8
Layer0_S_
10
1895.4477168771245
20
131.0281163633611
30
3.1307917175958904e-31
11
1895.738580339817
21
129.52645842035844
31
3.1307917175958904e-31
 62
256
 0
LINE
 8
Layer0_S_
10
1895.738580339817
20
129.52645842035844
30
3.1307917175958904e-31
11
1895.8360627619713
21
127.99999999999993
31
3.1307917175958904e-31
 62
256
 0
LINE
 8
Layer0_S_
10
1883.8360627619716
20
0.0
30
3.287331303475685e-30
11
1885.4023770686124
21
0.10266166351427745
31
3.287331303475685e-30
 62
256
 0
LINE
 8
Layer0_S_
10
1885.4023770686124
20
0.10266166351427745
30
3.287331303475685e-30
11
1886.9418913032016
21
0.40889008453118103
31
3.287331303475685e-30
 62
256
 0
LINE
 8
Layer0_S_
10
1886.9418913032016
20
0.40889008453118103
30
3.287331303475685e-30
11
1888.4282639503526
21
0.9134456098645598
31
3.287331303475685e-30
 62
256
 0
LINE
 8
Layer0_S_
10
1888.4282639503526
20
0.9134456098645598
30
3.287331303475685e-30
11
1889.8360627619713
21
1.6076951545867362
31
3.287331303475685e-30
 62
256
 0
LINE
 8
Layer0_S_
10
1889.8360627619713
20
1.6076951545867362
30
3.287331303475685e-30
11
1891.141199910076
21
2.4797599165051807
31
3.1307917175958906e-30
 62
256
 0
LINE
 8
Layer0_S_
10
1891.141199910076
20
2.4797599165051807
30
3.1307917175958906e-30
11
1892.32134413621
21
3.514718625761432
31
3.1307917175958906e-30
 62
256
 0
LINE
 8
Layer0_S_
10
1892.32134413621
20
3.514718625761432
30
3.1307917175958906e-30
11
1893.3563028454664
21
4.694862851895351
31
3.1307917175958906e-30
 62
256
 0
LINE
 8
Layer0_S_
10
1893.3563028454664
20
4.694862851895351
30
3.1307917175958906e-30
11
1894.2283676073846
21
6.0
31
3.1307917175958906e-30
 62
256
 0
LINE
 8
Layer0_S_
10
1894.2283676073846
20
6.0
30
3.1307917175958906e-30
11
1894.922617152107
21
7.407798811618927
31
3.1307917175958906e-30
 62
256
 0
LINE
 8
Layer0_S_
10
1894.922617152107
20
7.407798811618927
30
3.1307917175958906e-30
11
1895.4271726774405
21
8.894171458769755
31
2.974252131716096e-30
 62
256
 0
LINE
 8
Layer0_S_
10
1895.4271726774405
20
8.894171458769755
30
2.974252131716096e-30
11
1895.733401098457
21
10.433685693359385
31
2.974252131716096e-30
 62
256
 0
LINE
 8
Layer0_S_
10
1895.733401098457
20
10.433685693359385
30
2.974252131716096e-30
11
1895.8360627619713
21
12.0
31
2.974252131716096e-30
 62
256
 0
LINE
 8
Layer0_S_
10
1722.8360627619713
20
0.0
30
3.287331303475685e-30
11
1721.2697484553307
21
0.10266166351427745
31
3.287331303475685e-30
 62
256
 0
LINE
 8
Layer0_S_
10
1721.2697484553307
20
0.10266166351427745
30
3.287331303475685e-30
11
1719.7302342207413
21
0.40889008453118103
31
3.287331303475685e-30
 62
256
 0
LINE
 8
Layer0_S_
10
1719.7302342207413
20
0.40889008453118103
30
3.287331303475685e-30
11
1718.2438615735903
21
0.9134456098645598
31
3.287331303475685e-30
 62
256
 0
LINE
 8
Layer0_S_
10
1718.2438615735903
20
0.9134456098645598
30
3.287331303475685e-30
11
1716.8360627619718
21
1.6076951545867362
31
3.287331303475685e-30
 62
256
 0
LINE
 8
Layer0_S_
10
1716.8360627619718
20
1.6076951545867362
30
3.287331303475685e-30
11
1715.530925613867
21
2.4797599165051807
31
3.1307917175958906e-30
 62
256
 0
LINE
 8
Layer0_S_
10
1715.530925613867
20
2.4797599165051807
30
3.1307917175958906e-30
11
1714.350781387733
21
3.514718625761432
31
3.1307917175958906e-30
 62
256
 0
LINE
 8
Layer0_S_
10
1714.350781387733
20
3.514718625761432
30
3.1307917175958906e-30
11
1713.3158226784767
21
4.694862851895351
31
3.1307917175958906e-30
 62
256
 0
LINE
 8
Layer0_S_
10
1713.3158226784767
20
4.694862851895351
30
3.1307917175958906e-30
11
1712.4437579165585
21
6.0
31
3.1307917175958906e-30
 62
256
 0
LINE
 8
Layer0_S_
10
1712.4437579165585
20
6.0
30
3.1307917175958906e-30
11
1711.749508371836
21
7.407798811618927
31
3.1307917175958906e-30
 62
256
 0
LINE
 8
Layer0_S_
10
1711.749508371836
20
7.407798811618927
30
3.1307917175958906e-30
11
1711.2449528465027
21
8.894171458769755
31
2.974252131716096e-30
 62
256
 0
LINE
 8
Layer0_S_
10
1711.2449528465027
20
8.894171458769755
30
2.974252131716096e-30
11
1710.938724425486
21
10.433685693359385
31
2.974252131716096e-30
 62
256
 0
LINE
 8
Layer0_S_
10
1710.938724425486
20
10.433685693359385
30
2.974252131716096e-30
11
1710.8360627619716
21
12.0
31
2.974252131716096e-30
 62
256
 0
LINE
 8
Layer0_S_
10
1720.8360627619716
20
139.81107288852084
30
0.0
11
1719.3438332149503
21
139.48060681283482
31
0.0
 62
256
 0
LINE
 8
Layer0_S_
10
1719.3438332149503
20
139.48060681283482
30
0.0
11
1717.9118133861743
21
138.94311509968514
31
0.0
 62
256
 0
LINE
 8
Layer0_S_
10
1717.9118133861743
20
138.94311509968514
30
0.0
11
1716.5597981834724
21
138.22782982556296
31
0.0
 62
256
 0
LINE
 8
Layer0_S_
10
1716.5597981834724
20
138.22782982556296
30
0.0
11
1715.30975389297
21
137.34637228064383
31
1.5653958587979452e-31
 62
256
 0
LINE
 8
Layer0_S_
10
1715.30975389297
20
137.34637228064383
30
1.5653958587979452e-31
11
1714.1819900722066
21
136.3130635676786
31
1.5653958587979452e-31
 62
256
 0
LINE
 8
Layer0_S_
10
1714.1819900722066
20
136.3130635676786
30
1.5653958587979452e-31
11
1713.194829579327
21
135.14469192602948
31
1.5653958587979452e-31
 62
256
 0
LINE
 8
Layer0_S_
10
1713.194829579327
20
135.14469192602948
30
1.5653958587979452e-31
11
1712.3643108803142
21
133.86023997196398
31
1.5653958587979452e-31
 62
256
 0
LINE
 8
Layer0_S_
10
1712.3643108803142
20
133.86023997196398
30
1.5653958587979452e-31
11
1711.7039274709061
21
132.48057628675267
31
1.5653958587979452e-31
 62
256
 0
LINE
 8
Layer0_S_
10
1711.7039274709061
20
132.48057628675267
30
1.5653958587979452e-31
11
1711.2244086468186
21
131.0281163633611
31
3.1307917175958904e-31
 62
256
 0
LINE
 8
Layer0_S_
10
1711.2244086468186
20
131.0281163633611
30
3.1307917175958904e-31
11
1710.9335451841262
21
129.52645842035844
31
3.1307917175958904e-31
 62
256
 0
LINE
 8
Layer0_S_
10
1710.9335451841262
20
129.52645842035844
30
3.1307917175958904e-31
11
1710.8360627619716
21
127.99999999999993
31
3.1307917175958904e-31
 62
256
 0
LINE
 8
Layer0_S_
10
1720.8193143263825
20
132.57522958413549
30
1.5653958587979452e-31
11
1719.758521174766
21
131.9406519484749
31
1.5653958587979452e-31
 62
256
 0
LINE
 8
Layer0_S_
10
1719.758521174766
20
131.9406519484749
30
1.5653958587979452e-31
11
1718.8858237810018
21
131.0652262548181
31
3.1307917175958904e-31
 62
256
 0
LINE
 8
Layer0_S_
10
1718.8858237810018
20
131.0652262548181
30
3.1307917175958904e-31
11
1718.2545603934952
21
130.00245750208254
31
3.1307917175958904e-31
 62
256
 0
LINE
 8
Layer0_S_
10
1718.2545603934952
20
130.00245750208254
30
3.1307917175958904e-31
11
1717.9033130953521
21
128.8173008787858
31
3.1307917175958904e-31
 62
256
 0
LINE
 8
Layer0_S_
10
1717.9033130953521
20
128.8173008787858
30
3.1307917175958904e-31
11
1717.8535497123883
21
127.58219177756709
31
3.1307917175958904e-31
 62
256
 0
LINE
 8
Layer0_S_
10
1717.8535497123883
20
127.58219177756709
30
3.1307917175958904e-31
11
1718.1083117246192
21
126.37261862834406
31
3.1307917175958904e-31
 62
256
 0
LINE
 8
Layer0_S_
10
1718.1083117246192
20
126.37261862834406
30
3.1307917175958904e-31
11
1718.6520283745404
21
125.26250913338623
31
3.1307917175958904e-31
 62
256
 0
LINE
 8
Layer0_S_
10
1718.6520283745404
20
125.26250913338623
30
3.1307917175958904e-31
11
1719.4514683336956
21
124.31971189224505
31
4.696187576393835e-31
 62
256
 0
LINE
 8
Layer0_S_
10
1719.4514683336956
20
124.31971189224505
30
4.696187576393835e-31
11
1720.45777076277
21
123.60184957436256
31
4.696187576393835e-31
 62
256
 0
LINE
 8
Layer0_S_
10
1720.45777076277
20
123.60184957436256
30
4.696187576393835e-31
11
1721.609431629191
21
123.15279708861965
31
4.696187576393835e-31
 62
256
 0
LINE
 8
Layer0_S_
10
1721.609431629191
20
123.15279708861965
30
4.696187576393835e-31
11
1722.8360627619713
21
122.99999999999993
31
4.696187576393835e-31
 62
256
 0
LINE
 8
Layer0_S_
10
1722.8360627619713
20
122.99999999999993
30
4.696187576393835e-31
11
1724.062693894752
21
123.15279708861965
31
4.696187576393835e-31
 62
256
 0
LINE
 8
Layer0_S_
10
1724.062693894752
20
123.15279708861965
30
4.696187576393835e-31
11
1725.2143547611731
21
123.60184957436256
31
4.696187576393835e-31
 62
256
 0
LINE
 8
Layer0_S_
10
1725.2143547611731
20
123.60184957436256
30
4.696187576393835e-31
11
1726.2206571902477
21
124.31971189224505
31
4.696187576393835e-31
 62
256
 0
LINE
 8
Layer0_S_
10
1726.2206571902477
20
124.31971189224505
30
4.696187576393835e-31
11
1727.0200971494025
21
125.26250913338623
31
3.1307917175958904e-31
 62
256
 0
LINE
 8
Layer0_S_
10
1727.0200971494025
20
125.26250913338623
30
3.1307917175958904e-31
11
1727.563813799324
21
126.37261862834406
31
3.1307917175958904e-31
 62
256
 0
LINE
 8
Layer0_S_
10
1727.563813799324
20
126.37261862834406
30
3.1307917175958904e-31
11
1727.8185758115546
21
127.58219177756709
31
3.1307917175958904e-31
 62
256
 0
LINE
 8
Layer0_S_
10
1727.8185758115546
20
127.58219177756709
30
3.1307917175958904e-31
11
1727.7688124285912
21
128.8173008787858
31
3.1307917175958904e-31
 62
256
 0
LINE
 8
Layer0_S_
10
1727.7688124285912
20
128.8173008787858
30
3.1307917175958904e-31
11
1727.4175651304477
21
130.00245750208254
31
3.1307917175958904e-31
 62
256
 0
LINE
 8
Layer0_S_
10
1727.4175651304477
20
130.00245750208254
30
3.1307917175958904e-31
11
1726.7863017429413
21
131.06522625481813
31
3.1307917175958904e-31
 62
256
 0
LINE
 8
Layer0_S_
10
1726.7863017429413
20
131.06522625481813
30
3.1307917175958904e-31
11
1725.9136043491771
21
131.9406519484749
31
1.5653958587979452e-31
 62
256
 0
LINE
 8
Layer0_S_
10
1725.9136043491771
20
131.9406519484749
30
1.5653958587979452e-31
11
1724.8528111975606
21
132.57522958413549
31
1.5653958587979452e-31
 62
256
 0
LINE
 8
Layer0_S_
10
1786.3360627619713
20
18.000000000000004
30
5.639932965095797e-15
11
1734.8360627619716
21
18.00000000000001
31
2.8177125458363015e-30
 62
256
 0
LINE
 8
Layer0_S_
10
1786.3360627619713
20
2.500000000000001
30
3.287331303475685e-30
11
1786.3360627619713
21
18.000000000000004
31
5.639932965095797e-15
 62
256
 0
LINE
 8
Layer0_S_
10
1793.3360627619716
20
2.500000000000001
30
3.287331303475685e-30
11
1788.3360627619713
21
2.500000000000001
31
3.287331303475685e-30
 62
256
 0
LINE
 8
Layer0_S_
10
1800.3360627619716
20
2.500000000000001
30
3.287331303475685e-30
11
1795.3360627619716
21
2.500000000000001
31
3.287331303475685e-30
 62
256
 0
LINE
 8
Layer0_S_
10
1807.3360627619713
20
2.500000000000001
30
3.287331303475685e-30
11
1802.3360627619713
21
2.500000000000001
31
3.287331303475685e-30
 62
256
 0
LINE
 8
Layer0_S_
10
1814.3360627619716
20
2.500000000000001
30
3.287331303475685e-30
11
1809.3360627619716
21
2.500000000000001
31
3.287331303475685e-30
 62
256
 0
LINE
 8
Layer0_S_
10
1821.3360627619713
20
2.500000000000001
30
3.287331303475685e-30
11
1816.3360627619716
21
2.500000000000001
31
3.287331303475685e-30
 62
256
 0
LINE
 8
Layer0_S_
10
1828.3360627619716
20
2.500000000000001
30
3.287331303475685e-30
11
1823.3360627619718
21
2.500000000000001
31
3.287331303475685e-30
 62
256
 0
LINE
 8
Layer0_S_
10
1835.3360627619716
20
2.500000000000001
30
3.287331303475685e-30
11
1830.3360627619716
21
2.500000000000001
31
3.287331303475685e-30
 62
256
 0
LINE
 8
Layer0_S_
10
1842.3360627619713
20
2.500000000000001
30
3.287331303475685e-30
11
1837.3360627619713
21
2.500000000000001
31
3.287331303475685e-30
 62
256
 0
LINE
 8
Layer0_S_
10
1849.3360627619716
20
2.500000000000001
30
3.287331303475685e-30
11
1844.3360627619716
21
2.500000000000001
31
3.287331303475685e-30
 62
256
 0
LINE
 8
Layer0_S_
10
1856.3360627619713
20
2.500000000000001
30
3.287331303475685e-30
11
1851.3360627619716
21
2.500000000000001
31
3.287331303475685e-30
 62
256
 0
LINE
 8
Layer0_S_
10
1863.3360627619716
20
2.500000000000001
30
3.287331303475685e-30
11
1858.3360627619716
21
2.500000000000001
31
3.287331303475685e-30
 62
256
 0
LINE
 8
Layer0_S_
10
1865.3360627619716
20
2.500000000000001
30
3.287331303475685e-30
11
1865.3360627619716
21
7.5000000000000036
31
3.1307917175958906e-30
 62
256
 0
LINE
 8
Layer0_S_
10
1865.3360627619716
20
7.5000000000000036
30
3.1307917175958906e-30
11
1810.8360627619716
21
7.5000000000000036
31
3.1307917175958906e-30
 62
256
 0
LINE
 8
Layer0_S_
10
1810.8360627619716
20
7.5000000000000036
30
3.1307917175958906e-30
11
1810.8360627619716
21
17.999999999999996
31
1.1279865930191593e-14
 62
256
 0
LINE
 8
Layer0_S_
10
1816.8360627619718
20
34.50000000000001
30
5.639932965095797e-15
11
1816.8360627619718
21
24.0
31
1.1279865930191593e-14
 62
256
 0
LINE
 8
Layer0_S_
10
1810.8360627619716
20
40.50000000000001
30
5.639932965095797e-15
11
1734.8360627619716
21
40.49999999999999
31
5.639932965095797e-15
 62
256
 0
LINE
 8
Layer0_S_
10
1728.8360627619716
20
34.5
30
5.639932965095797e-15
11
1728.8360627619716
21
24.0
31
2.6611729599565067e-30
 62
256
 0
LINE
 8
Layer0_S_
10
1786.3360627619713
20
2.500000000000001
30
3.287331303475685e-30
11
1786.3701369356825
21
2.241180954897484
31
3.287331303475685e-30
 62
256
 0
LINE
 8
Layer0_S_
10
1786.3701369356825
20
2.241180954897484
30
3.287331303475685e-30
11
1786.4700373581873
21
2.0000000000000018
31
3.287331303475685e-30
 62
256
 0
LINE
 8
Layer0_S_
10
1786.4700373581873
20
2.0000000000000018
30
3.287331303475685e-30
11
1786.628955980785
21
1.7928932188134574
31
3.287331303475685e-30
 62
256
 0
LINE
 8
Layer0_S_
10
1786.628955980785
20
1.7928932188134574
30
3.287331303475685e-30
11
1786.8360627619718
21
1.6339745962155676
31
3.287331303475685e-30
 62
256
 0
LINE
 8
Layer0_S_
10
1786.8360627619718
20
1.6339745962155676
30
3.287331303475685e-30
11
1787.077243716869
21
1.5340741737109347
31
3.287331303475685e-30
 62
256
 0
LINE
 8
Layer0_S_
10
1787.077243716869
20
1.5340741737109347
30
3.287331303475685e-30
11
1787.3360627619716
21
1.5000000000000029
31
3.287331303475685e-30
 62
256
 0
LINE
 8
Layer0_S_
10
1787.3360627619716
20
1.5000000000000029
30
3.287331303475685e-30
11
1787.594881807074
21
1.5340741737109347
31
3.287331303475685e-30
 62
256
 0
LINE
 8
Layer0_S_
10
1787.594881807074
20
1.5340741737109347
30
3.287331303475685e-30
11
1787.8360627619716
21
1.6339745962155618
31
3.287331303475685e-30
 62
256
 0
LINE
 8
Layer0_S_
10
1787.8360627619716
20
1.6339745962155618
30
3.287331303475685e-30
11
1788.043169543158
21
1.7928932188134519
31
3.287331303475685e-30
 62
256
 0
LINE
 8
Layer0_S_
10
1788.043169543158
20
1.7928932188134519
30
3.287331303475685e-30
11
1788.2020881657559
21
2.0000000000000018
31
3.287331303475685e-30
 62
256
 0
LINE
 8
Layer0_S_
10
1788.2020881657559
20
2.0000000000000018
30
3.287331303475685e-30
11
1788.3019885882607
21
2.2411809548974784
31
3.287331303475685e-30
 62
256
 0
LINE
 8
Layer0_S_
10
1788.3019885882607
20
2.2411809548974784
30
3.287331303475685e-30
11
1788.3360627619713
21
2.500000000000001
31
3.287331303475685e-30
 62
256
 0
LINE
 8
Layer0_S_
10
1793.3360627619716
20
2.500000000000001
30
3.287331303475685e-30
11
1793.3701369356822
21
2.2411809548974784
31
3.287331303475685e-30
 62
256
 0
LINE
 8
Layer0_S_
10
1793.3701369356822
20
2.2411809548974784
30
3.287331303475685e-30
11
1793.470037358187
21
2.0000000000000018
31
3.287331303475685e-30
 62
256
 0
LINE
 8
Layer0_S_
10
1793.470037358187
20
2.0000000000000018
30
3.287331303475685e-30
11
1793.6289559807851
21
1.7928932188134519
31
3.287331303475685e-30
 62
256
 0
LINE
 8
Layer0_S_
10
1793.6289559807851
20
1.7928932188134519
30
3.287331303475685e-30
11
1793.8360627619716
21
1.6339745962155618
31
3.287331303475685e-30
 62
256
 0
LINE
 8
Layer0_S_
10
1793.8360627619716
20
1.6339745962155618
30
3.287331303475685e-30
11
1794.0772437168691
21
1.5340741737109347
31
3.287331303475685e-30
 62
256
 0
LINE
 8
Layer0_S_
10
1794.0772437168691
20
1.5340741737109347
30
3.287331303475685e-30
11
1794.3360627619713
21
1.5000000000000029
31
3.287331303475685e-30
 62
256
 0
LINE
 8
Layer0_S_
10
1794.3360627619713
20
1.5000000000000029
30
3.287331303475685e-30
11
1794.5948818070742
21
1.5340741737109347
31
3.287331303475685e-30
 62
256
 0
LINE
 8
Layer0_S_
10
1794.5948818070742
20
1.5340741737109347
30
3.287331303475685e-30
11
1794.8360627619716
21
1.6339745962155618
31
3.287331303475685e-30
 62
256
 0
LINE
 8
Layer0_S_
10
1794.8360627619716
20
1.6339745962155618
30
3.287331303475685e-30
11
1795.0431695431582
21
1.7928932188134574
31
3.287331303475685e-30
 62
256
 0
LINE
 8
Layer0_S_
10
1795.0431695431582
20
1.7928932188134574
30
3.287331303475685e-30
11
1795.2020881657559
21
2.0000000000000018
31
3.287331303475685e-30
 62
256
 0
LINE
 8
Layer0_S_
10
1795.2020881657559
20
2.0000000000000018
30
3.287331303475685e-30
11
1795.3019885882607
21
2.2411809548974784
31
3.287331303475685e-30
 62
256
 0
LINE
 8
Layer0_S_
10
1795.3019885882607
20
2.2411809548974784
30
3.287331303475685e-30
11
1795.3360627619716
21
2.500000000000001
31
3.287331303475685e-30
 62
256
 0
LINE
 8
Layer0_S_
10
1800.3360627619716
20
2.500000000000001
30
3.287331303475685e-30
11
1800.3701369356825
21
2.2411809548974784
31
3.287331303475685e-30
 62
256
 0
LINE
 8
Layer0_S_
10
1800.3701369356825
20
2.2411809548974784
30
3.287331303475685e-30
11
1800.4700373581873
21
2.0000000000000018
31
3.287331303475685e-30
 62
256
 0
LINE
 8
Layer0_S_
10
1800.4700373581873
20
2.0000000000000018
30
3.287331303475685e-30
11
1800.628955980785
21
1.7928932188134574
31
3.287331303475685e-30
 62
256
 0
LINE
 8
Layer0_S_
10
1800.628955980785
20
1.7928932188134574
30
3.287331303475685e-30
11
1800.8360627619713
21
1.6339745962155618
31
3.287331303475685e-30
 62
256
 0
LINE
 8
Layer0_S_
10
1800.8360627619713
20
1.6339745962155618
30
3.287331303475685e-30
11
1801.077243716869
21
1.5340741737109347
31
3.287331303475685e-30
 62
256
 0
LINE
 8
Layer0_S_
10
1801.077243716869
20
1.5340741737109347
30
3.287331303475685e-30
11
1801.3360627619716
21
1.5000000000000029
31
3.287331303475685e-30
 62
256
 0
LINE
 8
Layer0_S_
10
1801.3360627619716
20
1.5000000000000029
30
3.287331303475685e-30
11
1801.594881807074
21
1.5340741737109347
31
3.287331303475685e-30
 62
256
 0
LINE
 8
Layer0_S_
10
1801.594881807074
20
1.5340741737109347
30
3.287331303475685e-30
11
1801.8360627619716
21
1.6339745962155618
31
3.287331303475685e-30
 62
256
 0
LINE
 8
Layer0_S_
10
1801.8360627619716
20
1.6339745962155618
30
3.287331303475685e-30
11
1802.043169543158
21
1.7928932188134574
31
3.287331303475685e-30
 62
256
 0
LINE
 8
Layer0_S_
10
1802.043169543158
20
1.7928932188134574
30
3.287331303475685e-30
11
1802.202088165756
21
2.0000000000000018
31
3.287331303475685e-30
 62
256
 0
LINE
 8
Layer0_S_
10
1802.202088165756
20
2.0000000000000018
30
3.287331303475685e-30
11
1802.3019885882607
21
2.2411809548974784
31
3.287331303475685e-30
 62
256
 0
LINE
 8
Layer0_S_
10
1802.3019885882607
20
2.2411809548974784
30
3.287331303475685e-30
11
1802.3360627619713
21
2.500000000000001
31
3.287331303475685e-30
 62
256
 0
LINE
 8
Layer0_S_
10
1807.3360627619713
20
2.500000000000001
30
3.287331303475685e-30
11
1807.3701369356825
21
2.2411809548974784
31
3.287331303475685e-30
 62
256
 0
LINE
 8
Layer0_S_
10
1807.3701369356825
20
2.2411809548974784
30
3.287331303475685e-30
11
1807.470037358187
21
2.0000000000000018
31
3.287331303475685e-30
 62
256
 0
LINE
 8
Layer0_S_
10
1807.470037358187
20
2.0000000000000018
30
3.287331303475685e-30
11
1807.6289559807851
21
1.7928932188134519
31
3.287331303475685e-30
 62
256
 0
LINE
 8
Layer0_S_
10
1807.6289559807851
20
1.7928932188134519
30
3.287331303475685e-30
11
1807.8360627619716
21
1.6339745962155618
31
3.287331303475685e-30
 62
256
 0
LINE
 8
Layer0_S_
10
1807.8360627619716
20
1.6339745962155618
30
3.287331303475685e-30
11
1808.0772437168691
21
1.5340741737109347
31
3.287331303475685e-30
 62
256
 0
LINE
 8
Layer0_S_
10
1808.0772437168691
20
1.5340741737109347
30
3.287331303475685e-30
11
1808.3360627619716
21
1.5000000000000029
31
3.287331303475685e-30
 62
256
 0
LINE
 8
Layer0_S_
10
1808.3360627619716
20
1.5000000000000029
30
3.287331303475685e-30
11
1808.5948818070742
21
1.5340741737109347
31
3.287331303475685e-30
 62
256
 0
LINE
 8
Layer0_S_
10
1808.5948818070742
20
1.5340741737109347
30
3.287331303475685e-30
11
1808.8360627619713
21
1.6339745962155676
31
3.287331303475685e-30
 62
256
 0
LINE
 8
Layer0_S_
10
1808.8360627619713
20
1.6339745962155676
30
3.287331303475685e-30
11
1809.043169543158
21
1.7928932188134574
31
3.287331303475685e-30
 62
256
 0
LINE
 8
Layer0_S_
10
1809.043169543158
20
1.7928932188134574
30
3.287331303475685e-30
11
1809.2020881657559
21
2.0000000000000018
31
3.287331303475685e-30
 62
256
 0
LINE
 8
Layer0_S_
10
1809.2020881657559
20
2.0000000000000018
30
3.287331303475685e-30
11
1809.3019885882607
21
2.241180954897484
31
3.287331303475685e-30
 62
256
 0
LINE
 8
Layer0_S_
10
1809.3019885882607
20
2.241180954897484
30
3.287331303475685e-30
11
1809.3360627619716
21
2.500000000000001
31
3.287331303475685e-30
 62
256
 0
LINE
 8
Layer0_S_
10
1814.3360627619716
20
2.500000000000001
30
3.287331303475685e-30
11
1814.3701369356825
21
2.241180954897484
31
3.287331303475685e-30
 62
256
 0
LINE
 8
Layer0_S_
10
1814.3701369356825
20
2.241180954897484
30
3.287331303475685e-30
11
1814.470037358187
21
2.0000000000000018
31
3.287331303475685e-30
 62
256
 0
LINE
 8
Layer0_S_
10
1814.470037358187
20
2.0000000000000018
30
3.287331303475685e-30
11
1814.628955980785
21
1.7928932188134574
31
3.287331303475685e-30
 62
256
 0
LINE
 8
Layer0_S_
10
1814.628955980785
20
1.7928932188134574
30
3.287331303475685e-30
11
1814.8360627619716
21
1.6339745962155618
31
3.287331303475685e-30
 62
256
 0
LINE
 8
Layer0_S_
10
1814.8360627619716
20
1.6339745962155618
30
3.287331303475685e-30
11
1815.077243716869
21
1.5340741737109347
31
3.287331303475685e-30
 62
256
 0
LINE
 8
Layer0_S_
10
1815.077243716869
20
1.5340741737109347
30
3.287331303475685e-30
11
1815.3360627619713
21
1.5000000000000029
31
3.287331303475685e-30
 62
256
 0
LINE
 8
Layer0_S_
10
1815.3360627619713
20
1.5000000000000029
30
3.287331303475685e-30
11
1815.594881807074
21
1.5340741737109347
31
3.287331303475685e-30
 62
256
 0
LINE
 8
Layer0_S_
10
1815.594881807074
20
1.5340741737109347
30
3.287331303475685e-30
11
1815.8360627619716
21
1.6339745962155618
31
3.287331303475685e-30
 62
256
 0
LINE
 8
Layer0_S_
10
1815.8360627619716
20
1.6339745962155618
30
3.287331303475685e-30
11
1816.0431695431582
21
1.7928932188134519
31
3.287331303475685e-30
 62
256
 0
LINE
 8
Layer0_S_
10
1816.0431695431582
20
1.7928932188134519
30
3.287331303475685e-30
11
1816.202088165756
21
2.0000000000000018
31
3.287331303475685e-30
 62
256
 0
LINE
 8
Layer0_S_
10
1816.202088165756
20
2.0000000000000018
30
3.287331303475685e-30
11
1816.3019885882604
21
2.2411809548974784
31
3.287331303475685e-30
 62
256
 0
LINE
 8
Layer0_S_
10
1816.3019885882604
20
2.2411809548974784
30
3.287331303475685e-30
11
1816.3360627619716
21
2.500000000000001
31
3.287331303475685e-30
 62
256
 0
LINE
 8
Layer0_S_
10
1821.3360627619713
20
2.500000000000001
30
3.287331303475685e-30
11
1821.3701369356825
21
2.2411809548974784
31
3.287331303475685e-30
 62
256
 0
LINE
 8
Layer0_S_
10
1821.3701369356825
20
2.2411809548974784
30
3.287331303475685e-30
11
1821.4700373581873
21
2.0000000000000018
31
3.287331303475685e-30
 62
256
 0
LINE
 8
Layer0_S_
10
1821.4700373581873
20
2.0000000000000018
30
3.287331303475685e-30
11
1821.6289559807851
21
1.7928932188134519
31
3.287331303475685e-30
 62
256
 0
LINE
 8
Layer0_S_
10
1821.6289559807851
20
1.7928932188134519
30
3.287331303475685e-30
11
1821.8360627619716
21
1.6339745962155618
31
3.287331303475685e-30
 62
256
 0
LINE
 8
Layer0_S_
10
1821.8360627619716
20
1.6339745962155618
30
3.287331303475685e-30
11
1822.077243716869
21
1.5340741737109347
31
3.287331303475685e-30
 62
256
 0
LINE
 8
Layer0_S_
10
1822.077243716869
20
1.5340741737109347
30
3.287331303475685e-30
11
1822.3360627619716
21
1.5000000000000029
31
3.287331303475685e-30
 62
256
 0
LINE
 8
Layer0_S_
10
1822.3360627619716
20
1.5000000000000029
30
3.287331303475685e-30
11
1822.594881807074
21
1.5340741737109347
31
3.287331303475685e-30
 62
256
 0
LINE
 8
Layer0_S_
10
1822.594881807074
20
1.5340741737109347
30
3.287331303475685e-30
11
1822.8360627619713
21
1.6339745962155618
31
3.287331303475685e-30
 62
256
 0
LINE
 8
Layer0_S_
10
1822.8360627619713
20
1.6339745962155618
30
3.287331303475685e-30
11
1823.043169543158
21
1.7928932188134574
31
3.287331303475685e-30
 62
256
 0
LINE
 8
Layer0_S_
10
1823.043169543158
20
1.7928932188134574
30
3.287331303475685e-30
11
1823.2020881657559
21
2.0000000000000018
31
3.287331303475685e-30
 62
256
 0
LINE
 8
Layer0_S_
10
1823.2020881657559
20
2.0000000000000018
30
3.287331303475685e-30
11
1823.3019885882607
21
2.2411809548974784
31
3.287331303475685e-30
 62
256
 0
LINE
 8
Layer0_S_
10
1823.3019885882607
20
2.2411809548974784
30
3.287331303475685e-30
11
1823.3360627619718
21
2.500000000000001
31
3.287331303475685e-30
 62
256
 0
LINE
 8
Layer0_S_
10
1828.3360627619716
20
2.500000000000001
30
3.287331303475685e-30
11
1828.3701369356822
21
2.2411809548974784
31
3.287331303475685e-30
 62
256
 0
LINE
 8
Layer0_S_
10
1828.3701369356822
20
2.2411809548974784
30
3.287331303475685e-30
11
1828.470037358187
21
2.0000000000000018
31
3.287331303475685e-30
 62
256
 0
LINE
 8
Layer0_S_
10
1828.470037358187
20
2.0000000000000018
30
3.287331303475685e-30
11
1828.628955980785
21
1.7928932188134519
31
3.287331303475685e-30
 62
256
 0
LINE
 8
Layer0_S_
10
1828.628955980785
20
1.7928932188134519
30
3.287331303475685e-30
11
1828.8360627619716
21
1.6339745962155618
31
3.287331303475685e-30
 62
256
 0
LINE
 8
Layer0_S_
10
1828.8360627619716
20
1.6339745962155618
30
3.287331303475685e-30
11
1829.0772437168691
21
1.5340741737109347
31
3.287331303475685e-30
 62
256
 0
LINE
 8
Layer0_S_
10
1829.0772437168691
20
1.5340741737109347
30
3.287331303475685e-30
11
1829.3360627619713
21
1.5000000000000029
31
3.287331303475685e-30
 62
256
 0
LINE
 8
Layer0_S_
10
1829.3360627619713
20
1.5000000000000029
30
3.287331303475685e-30
11
1829.5948818070742
21
1.5340741737109347
31
3.287331303475685e-30
 62
256
 0
LINE
 8
Layer0_S_
10
1829.5948818070742
20
1.5340741737109347
30
3.287331303475685e-30
11
1829.8360627619716
21
1.6339745962155618
31
3.287331303475685e-30
 62
256
 0
LINE
 8
Layer0_S_
10
1829.8360627619716
20
1.6339745962155618
30
3.287331303475685e-30
11
1830.0431695431582
21
1.7928932188134574
31
3.287331303475685e-30
 62
256
 0
LINE
 8
Layer0_S_
10
1830.0431695431582
20
1.7928932188134574
30
3.287331303475685e-30
11
1830.2020881657559
21
2.0000000000000018
31
3.287331303475685e-30
 62
256
 0
LINE
 8
Layer0_S_
10
1830.2020881657559
20
2.0000000000000018
30
3.287331303475685e-30
11
1830.3019885882604
21
2.2411809548974784
31
3.287331303475685e-30
 62
256
 0
LINE
 8
Layer0_S_
10
1830.3019885882604
20
2.2411809548974784
30
3.287331303475685e-30
11
1830.3360627619716
21
2.500000000000001
31
3.287331303475685e-30
 62
256
 0
LINE
 8
Layer0_S_
10
1835.3360627619716
20
2.500000000000001
30
3.287331303475685e-30
11
1835.3701369356825
21
2.2411809548974784
31
3.287331303475685e-30
 62
256
 0
LINE
 8
Layer0_S_
10
1835.3701369356825
20
2.2411809548974784
30
3.287331303475685e-30
11
1835.4700373581873
21
2.0000000000000018
31
3.287331303475685e-30
 62
256
 0
LINE
 8
Layer0_S_
10
1835.4700373581873
20
2.0000000000000018
30
3.287331303475685e-30
11
1835.628955980785
21
1.7928932188134574
31
3.287331303475685e-30
 62
256
 0
LINE
 8
Layer0_S_
10
1835.628955980785
20
1.7928932188134574
30
3.287331303475685e-30
11
1835.8360627619713
21
1.6339745962155618
31
3.287331303475685e-30
 62
256
 0
LINE
 8
Layer0_S_
10
1835.8360627619713
20
1.6339745962155618
30
3.287331303475685e-30
11
1836.077243716869
21
1.5340741737109347
31
3.287331303475685e-30
 62
256
 0
LINE
 8
Layer0_S_
10
1836.077243716869
20
1.5340741737109347
30
3.287331303475685e-30
11
1836.3360627619716
21
1.5000000000000029
31
3.287331303475685e-30
 62
256
 0
LINE
 8
Layer0_S_
10
1836.3360627619716
20
1.5000000000000029
30
3.287331303475685e-30
11
1836.594881807074
21
1.5340741737109347
31
3.287331303475685e-30
 62
256
 0
LINE
 8
Layer0_S_
10
1836.594881807074
20
1.5340741737109347
30
3.287331303475685e-30
11
1836.8360627619716
21
1.6339745962155618
31
3.287331303475685e-30
 62
256
 0
LINE
 8
Layer0_S_
10
1836.8360627619716
20
1.6339745962155618
30
3.287331303475685e-30
11
1837.043169543158
21
1.7928932188134574
31
3.287331303475685e-30
 62
256
 0
LINE
 8
Layer0_S_
10
1837.043169543158
20
1.7928932188134574
30
3.287331303475685e-30
11
1837.202088165756
21
2.0000000000000018
31
3.287331303475685e-30
 62
256
 0
LINE
 8
Layer0_S_
10
1837.202088165756
20
2.0000000000000018
30
3.287331303475685e-30
11
1837.3019885882607
21
2.2411809548974784
31
3.287331303475685e-30
 62
256
 0
LINE
 8
Layer0_S_
10
1837.3019885882607
20
2.2411809548974784
30
3.287331303475685e-30
11
1837.3360627619713
21
2.500000000000001
31
3.287331303475685e-30
 62
256
 0
LINE
 8
Layer0_S_
10
1842.3360627619713
20
2.500000000000001
30
3.287331303475685e-30
11
1842.3701369356822
21
2.2411809548974784
31
3.287331303475685e-30
 62
256
 0
LINE
 8
Layer0_S_
10
1842.3701369356822
20
2.2411809548974784
30
3.287331303475685e-30
11
1842.470037358187
21
2.0000000000000018
31
3.287331303475685e-30
 62
256
 0
LINE
 8
Layer0_S_
10
1842.470037358187
20
2.0000000000000018
30
3.287331303475685e-30
11
1842.6289559807851
21
1.7928932188134519
31
3.287331303475685e-30
 62
256
 0
LINE
 8
Layer0_S_
10
1842.6289559807851
20
1.7928932188134519
30
3.287331303475685e-30
11
1842.8360627619716
21
1.6339745962155618
31
3.287331303475685e-30
 62
256
 0
LINE
 8
Layer0_S_
10
1842.8360627619716
20
1.6339745962155618
30
3.287331303475685e-30
11
1843.0772437168691
21
1.5340741737109347
31
3.287331303475685e-30
 62
256
 0
LINE
 8
Layer0_S_
10
1843.0772437168691
20
1.5340741737109347
30
3.287331303475685e-30
11
1843.3360627619716
21
1.5000000000000029
31
3.287331303475685e-30
 62
256
 0
LINE
 8
Layer0_S_
10
1843.3360627619716
20
1.5000000000000029
30
3.287331303475685e-30
11
1843.5948818070742
21
1.5340741737109347
31
3.287331303475685e-30
 62
256
 0
LINE
 8
Layer0_S_
10
1843.5948818070742
20
1.5340741737109347
30
3.287331303475685e-30
11
1843.8360627619713
21
1.6339745962155618
31
3.287331303475685e-30
 62
256
 0
LINE
 8
Layer0_S_
10
1843.8360627619713
20
1.6339745962155618
30
3.287331303475685e-30
11
1844.0431695431578
21
1.7928932188134574
31
3.287331303475685e-30
 62
256
 0
LINE
 8
Layer0_S_
10
1844.0431695431578
20
1.7928932188134574
30
3.287331303475685e-30
11
1844.2020881657559
21
2.0000000000000018
31
3.287331303475685e-30
 62
256
 0
LINE
 8
Layer0_S_
10
1844.2020881657559
20
2.0000000000000018
30
3.287331303475685e-30
11
1844.3019885882607
21
2.2411809548974784
31
3.287331303475685e-30
 62
256
 0
LINE
 8
Layer0_S_
10
1844.3019885882607
20
2.2411809548974784
30
3.287331303475685e-30
11
1844.3360627619716
21
2.500000000000001
31
3.287331303475685e-30
 62
256
 0
LINE
 8
Layer0_S_
10
1849.3360627619716
20
2.500000000000001
30
3.287331303475685e-30
11
1849.3701369356825
21
2.2411809548974784
31
3.287331303475685e-30
 62
256
 0
LINE
 8
Layer0_S_
10
1849.3701369356825
20
2.2411809548974784
30
3.287331303475685e-30
11
1849.470037358187
21
2.0000000000000018
31
3.287331303475685e-30
 62
256
 0
LINE
 8
Layer0_S_
10
1849.470037358187
20
2.0000000000000018
30
3.287331303475685e-30
11
1849.628955980785
21
1.7928932188134574
31
3.287331303475685e-30
 62
256
 0
LINE
 8
Layer0_S_
10
1849.628955980785
20
1.7928932188134574
30
3.287331303475685e-30
11
1849.8360627619713
21
1.6339745962155618
31
3.287331303475685e-30
 62
256
 0
LINE
 8
Layer0_S_
10
1849.8360627619713
20
1.6339745962155618
30
3.287331303475685e-30
11
1850.077243716869
21
1.5340741737109347
31
3.287331303475685e-30
 62
256
 0
LINE
 8
Layer0_S_
10
1850.077243716869
20
1.5340741737109347
30
3.287331303475685e-30
11
1850.3360627619718
21
1.5000000000000029
31
3.287331303475685e-30
 62
256
 0
LINE
 8
Layer0_S_
10
1850.3360627619718
20
1.5000000000000029
30
3.287331303475685e-30
11
1850.594881807074
21
1.5340741737109347
31
3.287331303475685e-30
 62
256
 0
LINE
 8
Layer0_S_
10
1850.594881807074
20
1.5340741737109347
30
3.287331303475685e-30
11
1850.8360627619716
21
1.6339745962155676
31
3.287331303475685e-30
 62
256
 0
LINE
 8
Layer0_S_
10
1850.8360627619716
20
1.6339745962155676
30
3.287331303475685e-30
11
1851.043169543158
21
1.7928932188134574
31
3.287331303475685e-30
 62
256
 0
LINE
 8
Layer0_S_
10
1851.043169543158
20
1.7928932188134574
30
3.287331303475685e-30
11
1851.202088165756
21
2.0000000000000018
31
3.287331303475685e-30
 62
256
 0
LINE
 8
Layer0_S_
10
1851.202088165756
20
2.0000000000000018
30
3.287331303475685e-30
11
1851.3019885882604
21
2.241180954897484
31
3.287331303475685e-30
 62
256
 0
LINE
 8
Layer0_S_
10
1851.3019885882604
20
2.241180954897484
30
3.287331303475685e-30
11
1851.3360627619716
21
2.500000000000001
31
3.287331303475685e-30
 62
256
 0
LINE
 8
Layer0_S_
10
1856.3360627619713
20
2.500000000000001
30
3.287331303475685e-30
11
1856.3701369356825
21
2.2411809548974784
31
3.287331303475685e-30
 62
256
 0
LINE
 8
Layer0_S_
10
1856.3701369356825
20
2.2411809548974784
30
3.287331303475685e-30
11
1856.4700373581873
21
2.0000000000000018
31
3.287331303475685e-30
 62
256
 0
LINE
 8
Layer0_S_
10
1856.4700373581873
20
2.0000000000000018
30
3.287331303475685e-30
11
1856.6289559807851
21
1.7928932188134574
31
3.287331303475685e-30
 62
256
 0
LINE
 8
Layer0_S_
10
1856.6289559807851
20
1.7928932188134574
30
3.287331303475685e-30
11
1856.8360627619716
21
1.6339745962155618
31
3.287331303475685e-30
 62
256
 0
LINE
 8
Layer0_S_
10
1856.8360627619716
20
1.6339745962155618
30
3.287331303475685e-30
11
1857.077243716869
21
1.5340741737109347
31
3.287331303475685e-30
 62
256
 0
LINE
 8
Layer0_S_
10
1857.077243716869
20
1.5340741737109347
30
3.287331303475685e-30
11
1857.3360627619716
21
1.5000000000000029
31
3.287331303475685e-30
 62
256
 0
LINE
 8
Layer0_S_
10
1857.3360627619716
20
1.5000000000000029
30
3.287331303475685e-30
11
1857.594881807074
21
1.5340741737109347
31
3.287331303475685e-30
 62
256
 0
LINE
 8
Layer0_S_
10
1857.594881807074
20
1.5340741737109347
30
3.287331303475685e-30
11
1857.8360627619713
21
1.6339745962155618
31
3.287331303475685e-30
 62
256
 0
LINE
 8
Layer0_S_
10
1857.8360627619713
20
1.6339745962155618
30
3.287331303475685e-30
11
1858.043169543158
21
1.7928932188134574
31
3.287331303475685e-30
 62
256
 0
LINE
 8
Layer0_S_
10
1858.043169543158
20
1.7928932188134574
30
3.287331303475685e-30
11
1858.2020881657559
21
2.0000000000000018
31
3.287331303475685e-30
 62
256
 0
LINE
 8
Layer0_S_
10
1858.2020881657559
20
2.0000000000000018
30
3.287331303475685e-30
11
1858.3019885882607
21
2.2411809548974784
31
3.287331303475685e-30
 62
256
 0
LINE
 8
Layer0_S_
10
1858.3019885882607
20
2.2411809548974784
30
3.287331303475685e-30
11
1858.3360627619716
21
2.500000000000001
31
3.287331303475685e-30
 62
256
 0
LINE
 8
Layer0_S_
10
1863.3360627619716
20
2.500000000000001
30
3.287331303475685e-30
11
1863.3701369356827
21
2.2411809548974784
31
3.287331303475685e-30
 62
256
 0
LINE
 8
Layer0_S_
10
1863.3701369356827
20
2.2411809548974784
30
3.287331303475685e-30
11
1863.470037358187
21
2.0000000000000018
31
3.287331303475685e-30
 62
256
 0
LINE
 8
Layer0_S_
10
1863.470037358187
20
2.0000000000000018
30
3.287331303475685e-30
11
1863.628955980785
21
1.7928932188134574
31
3.287331303475685e-30
 62
256
 0
LINE
 8
Layer0_S_
10
1863.628955980785
20
1.7928932188134574
30
3.287331303475685e-30
11
1863.8360627619716
21
1.6339745962155618
31
3.287331303475685e-30
 62
256
 0
LINE
 8
Layer0_S_
10
1863.8360627619716
20
1.6339745962155618
30
3.287331303475685e-30
11
1864.0772437168691
21
1.5340741737109347
31
3.287331303475685e-30
 62
256
 0
LINE
 8
Layer0_S_
10
1864.0772437168691
20
1.5340741737109347
30
3.287331303475685e-30
11
1864.3360627619713
21
1.5000000000000029
31
3.287331303475685e-30
 62
256
 0
LINE
 8
Layer0_S_
10
1864.3360627619713
20
1.5000000000000029
30
3.287331303475685e-30
11
1864.5948818070742
21
1.5340741737109347
31
3.287331303475685e-30
 62
256
 0
LINE
 8
Layer0_S_
10
1864.5948818070742
20
1.5340741737109347
30
3.287331303475685e-30
11
1864.8360627619716
21
1.6339745962155618
31
3.287331303475685e-30
 62
256
 0
LINE
 8
Layer0_S_
10
1864.8360627619716
20
1.6339745962155618
30
3.287331303475685e-30
11
1865.0431695431582
21
1.7928932188134574
31
3.287331303475685e-30
 62
256
 0
LINE
 8
Layer0_S_
10
1865.0431695431582
20
1.7928932188134574
30
3.287331303475685e-30
11
1865.202088165756
21
2.0000000000000018
31
3.287331303475685e-30
 62
256
 0
LINE
 8
Layer0_S_
10
1865.202088165756
20
2.0000000000000018
30
3.287331303475685e-30
11
1865.3019885882604
21
2.2411809548974784
31
3.287331303475685e-30
 62
256
 0
LINE
 8
Layer0_S_
10
1865.3019885882604
20
2.2411809548974784
30
3.287331303475685e-30
11
1865.3360627619716
21
2.500000000000001
31
3.287331303475685e-30
 62
256
 0
LINE
 8
Layer0_S_
10
1816.8360627619718
20
24.0
30
1.1279865930191593e-14
11
1816.7847319302145
21
23.21684284667969
31
1.1279865930191593e-14
 62
256
 0
LINE
 8
Layer0_S_
10
1816.7847319302145
20
23.21684284667969
30
1.1279865930191593e-14
11
1816.6316177197061
21
22.447085729384877
31
1.1279865930191593e-14
 62
256
 0
LINE
 8
Layer0_S_
10
1816.6316177197061
20
22.447085729384877
30
1.1279865930191593e-14
11
1816.3793399570395
21
21.703899405809462
31
1.1279865930191593e-14
 62
256
 0
LINE
 8
Layer0_S_
10
1816.3793399570395
20
21.703899405809462
30
1.1279865930191593e-14
11
1816.0322151846783
21
21.0
31
1.1279865930191593e-14
 62
256
 0
LINE
 8
Layer0_S_
10
1816.0322151846783
20
21.0
30
1.1279865930191593e-14
11
1815.596182803719
21
20.347431425947676
31
1.1279865930191593e-14
 62
256
 0
LINE
 8
Layer0_S_
10
1815.596182803719
20
20.347431425947676
30
1.1279865930191593e-14
11
1815.0787034490909
21
19.757359312880716
31
1.1279865930191593e-14
 62
256
 0
LINE
 8
Layer0_S_
10
1815.0787034490909
20
19.757359312880716
30
1.1279865930191593e-14
11
1814.4886313360241
21
19.23987995825259
31
1.1279865930191593e-14
 62
256
 0
LINE
 8
Layer0_S_
10
1814.4886313360241
20
19.23987995825259
30
1.1279865930191593e-14
11
1813.8360627619718
21
18.80384757729337
31
1.1279865930191593e-14
 62
256
 0
LINE
 8
Layer0_S_
10
1813.8360627619718
20
18.80384757729337
30
1.1279865930191593e-14
11
1813.1321633561622
21
18.45672280493228
31
1.1279865930191593e-14
 62
256
 0
LINE
 8
Layer0_S_
10
1813.1321633561622
20
18.45672280493228
30
1.1279865930191593e-14
11
1812.3889770325868
21
18.20444504226559
31
1.1279865930191593e-14
 62
256
 0
LINE
 8
Layer0_S_
10
1812.3889770325868
20
18.20444504226559
30
1.1279865930191593e-14
11
1811.6192199152918
21
18.051330831757138
31
1.1279865930191593e-14
 62
256
 0
LINE
 8
Layer0_S_
10
1811.6192199152918
20
18.051330831757138
30
1.1279865930191593e-14
11
1810.8360627619716
21
17.999999999999996
31
1.1279865930191593e-14
 62
256
 0
LINE
 8
Layer0_S_
10
1810.8360627619716
20
40.50000000000001
30
5.639932965095797e-15
11
1811.6192199152918
21
40.448669168242866
31
5.6436930908051196e-15
 62
256
 0
LINE
 8
Layer0_S_
10
1811.6192199152918
20
40.448669168242866
30
5.6436930908051196e-15
11
1812.3889770325868
21
40.29555495773442
31
5.6473888797210515e-15
 62
256
 0
LINE
 8
Layer0_S_
10
1812.3889770325868
20
40.29555495773442
30
5.6473888797210515e-15
11
1813.1321633561622
21
40.04327719506772
31
5.6509570958705754e-15
 62
256
 0
LINE
 8
Layer0_S_
10
1813.1321633561622
20
40.04327719506772
30
5.6509570958705754e-15
11
1813.8360627619718
21
39.69615242270664
31
5.654336686086077e-15
 62
256
 0
LINE
 8
Layer0_S_
10
1813.8360627619718
20
39.69615242270664
30
5.654336686086077e-15
11
1814.4886313360241
21
39.26012004174741
31
5.6574698246419684e-15
 62
256
 0
LINE
 8
Layer0_S_
10
1814.4886313360241
20
39.26012004174741
30
5.6574698246419684e-15
11
1815.0787034490909
21
38.74264068711929
31
5.660302902668889e-15
 62
256
 0
LINE
 8
Layer0_S_
10
1815.0787034490909
20
38.74264068711929
30
5.660302902668889e-15
11
1815.596182803719
21
38.15256857405233
31
5.662787445416319e-15
 62
256
 0
LINE
 8
Layer0_S_
10
1815.596182803719
20
38.15256857405233
30
5.662787445416319e-15
11
1816.0322151846783
21
37.50000000000001
31
5.664880941669007e-15
 62
256
 0
LINE
 8
Layer0_S_
10
1816.0322151846783
20
37.50000000000001
30
5.664880941669007e-15
11
1816.3793399570393
21
36.79610059419054
31
5.6665475711256416e-15
 62
256
 0
LINE
 8
Layer0_S_
10
1816.3793399570393
20
36.79610059419054
30
5.6665475711256416e-15
11
1816.6316177197061
21
36.05291427061513
31
5.667758817294143e-15
 62
256
 0
LINE
 8
Layer0_S_
10
1816.6316177197061
20
36.05291427061513
30
5.667758817294143e-15
11
1816.7847319302145
21
35.28315715332032
31
5.6684939554167466e-15
 62
256
 0
LINE
 8
Layer0_S_
10
1816.7847319302145
20
35.28315715332032
30
5.6684939554167466e-15
11
1816.8360627619718
21
34.50000000000001
31
5.639932965095797e-15
 62
256
 0
LINE
 8
Layer0_S_
10
1734.8360627619716
20
40.49999999999999
30
5.639932965095797e-15
11
1734.0529056086511
21
40.44866916824285
31
5.636172839386475e-15
 62
256
 0
LINE
 8
Layer0_S_
10
1734.0529056086511
20
40.44866916824285
30
5.636172839386475e-15
11
1733.2831484913563
21
40.295554957734396
31
5.632477050470543e-15
 62
256
 0
LINE
 8
Layer0_S_
10
1733.2831484913563
20
40.295554957734396
30
5.632477050470543e-15
11
1732.5399621677811
21
40.04327719506771
31
5.628908834321019e-15
 62
256
 0
LINE
 8
Layer0_S_
10
1732.5399621677811
20
40.04327719506771
30
5.628908834321019e-15
11
1731.8360627619716
21
39.696152422706625
31
5.625529244105518e-15
 62
256
 0
LINE
 8
Layer0_S_
10
1731.8360627619716
20
39.696152422706625
30
5.625529244105518e-15
11
1731.1834941879192
21
39.260120041747406
31
5.622396105549627e-15
 62
256
 0
LINE
 8
Layer0_S_
10
1731.1834941879192
20
39.260120041747406
30
5.622396105549627e-15
11
1730.5934220748525
21
38.74264068711928
31
5.6195630275227066e-15
 62
256
 0
LINE
 8
Layer0_S_
10
1730.5934220748525
20
38.74264068711928
30
5.6195630275227066e-15
11
1730.0759427202242
21
38.15256857405232
31
5.617078484775275e-15
 62
256
 0
LINE
 8
Layer0_S_
10
1730.0759427202242
20
38.15256857405232
30
5.617078484775275e-15
11
1729.6399103392648
21
37.49999999999999
31
5.614984988522588e-15
 62
256
 0
LINE
 8
Layer0_S_
10
1729.6399103392648
20
37.49999999999999
30
5.614984988522588e-15
11
1729.2927855669036
21
36.796100594190534
31
5.613318359065953e-15
 62
256
 0
LINE
 8
Layer0_S_
10
1729.2927855669036
20
36.796100594190534
30
5.613318359065953e-15
11
1729.0405078042372
21
36.05291427061512
31
5.6121071128974515e-15
 62
256
 0
LINE
 8
Layer0_S_
10
1729.0405078042372
20
36.05291427061512
30
5.6121071128974515e-15
11
1728.8873935937286
21
35.2831571533203
31
5.611371974774848e-15
 62
256
 0
LINE
 8
Layer0_S_
10
1728.8873935937286
20
35.2831571533203
30
5.611371974774848e-15
11
1728.8360627619716
21
34.5
31
5.639932965095797e-15
 62
256
 0
LINE
 8
Layer0_S_
10
1728.8360627619716
20
24.0
30
2.6611729599565067e-30
11
1728.8873935937286
21
23.216842846679693
31
2.6611729599565067e-30
 62
256
 0
LINE
 8
Layer0_S_
10
1728.8873935937286
20
23.216842846679693
30
2.6611729599565067e-30
11
1729.0405078042372
21
22.44708572938488
31
2.6611729599565067e-30
 62
256
 0
LINE
 8
Layer0_S_
10
1729.0405078042372
20
22.44708572938488
30
2.6611729599565067e-30
11
1729.2927855669036
21
21.703899405809466
31
2.6611729599565067e-30
 62
256
 0
LINE
 8
Layer0_S_
10
1729.2927855669036
20
21.703899405809466
30
2.6611729599565067e-30
11
1729.6399103392648
21
21.00000000000001
31
2.6611729599565067e-30
 62
256
 0
LINE
 8
Layer0_S_
10
1729.6399103392648
20
21.00000000000001
30
2.6611729599565067e-30
11
1730.0759427202242
21
20.347431425947686
31
2.8177125458363015e-30
 62
256
 0
LINE
 8
Layer0_S_
10
1730.0759427202242
20
20.347431425947686
30
2.8177125458363015e-30
11
1730.5934220748525
21
19.757359312880727
31
2.8177125458363015e-30
 62
256
 0
LINE
 8
Layer0_S_
10
1730.5934220748525
20
19.757359312880727
30
2.8177125458363015e-30
11
1731.1834941879192
21
19.2398799582526
31
2.8177125458363015e-30
 62
256
 0
LINE
 8
Layer0_S_
10
1731.1834941879192
20
19.2398799582526
30
2.8177125458363015e-30
11
1731.8360627619716
21
18.803847577293382
31
2.8177125458363015e-30
 62
256
 0
LINE
 8
Layer0_S_
10
1731.8360627619716
20
18.803847577293382
30
2.8177125458363015e-30
11
1732.5399621677811
21
18.456722804932294
31
2.8177125458363015e-30
 62
256
 0
LINE
 8
Layer0_S_
10
1732.5399621677811
20
18.456722804932294
30
2.8177125458363015e-30
11
1733.2831484913563
21
18.204445042265608
31
2.8177125458363015e-30
 62
256
 0
LINE
 8
Layer0_S_
10
1733.2831484913563
20
18.204445042265608
30
2.8177125458363015e-30
11
1734.0529056086511
21
18.051330831757152
31
2.8177125458363015e-30
 62
256
 0
LINE
 8
Layer0_S_
10
1734.0529056086511
20
18.051330831757152
30
2.8177125458363015e-30
11
1734.8360627619716
21
18.00000000000001
31
2.8177125458363015e-30
 62
256
 0
LINE
 8
Layer0_S_
10
1728.8360627619716
20
115.99999999999993
30
6.261583435191781e-31
11
1728.8360627619716
21
50.5
31
2.1915542023171232e-30
 62
256
 0
LINE
 8
Layer0_S_
10
1728.8360627619716
20
50.5
30
2.1915542023171232e-30
11
1826.8360627619716
21
50.5
31
2.1915542023171232e-30
 62
256
 0
LINE
 8
Layer0_S_
10
1826.8360627619716
20
50.5
30
2.1915542023171232e-30
11
1826.8360627619716
21
24.0
31
2.6611729599565067e-30
 62
256
 0
LINE
 8
Layer0_S_
10
1871.8360627619716
20
18.0
30
2.8177125458363015e-30
11
1832.8360627619718
21
17.999999999999996
31
2.8177125458363015e-30
 62
256
 0
LINE
 8
Layer0_S_
10
1877.8360627619716
20
115.99999999999993
30
6.261583435191781e-31
11
1877.8360627619716
21
24.0
31
2.6611729599565067e-30
 62
256
 0
LINE
 8
Layer0_S_
10
1871.8360627619716
20
121.99999999999991
30
4.696187576393835e-31
11
1734.8360627619716
21
121.99999999999993
31
4.696187576393835e-31
 62
256
 0
LINE
 8
Layer0_S_
10
1826.8360627619716
20
24.0
30
2.6611729599565067e-30
11
1826.8873935937288
21
23.21684284667969
31
2.6611729599565067e-30
 62
256
 0
LINE
 8
Layer0_S_
10
1826.8873935937288
20
23.21684284667969
30
2.6611729599565067e-30
11
1827.0405078042372
21
22.447085729384877
31
2.6611729599565067e-30
 62
256
 0
LINE
 8
Layer0_S_
10
1827.0405078042372
20
22.447085729384877
30
2.6611729599565067e-30
11
1827.2927855669038
21
21.703899405809466
31
2.6611729599565067e-30
 62
256
 0
LINE
 8
Layer0_S_
10
1827.2927855669038
20
21.703899405809466
30
2.6611729599565067e-30
11
1827.639910339265
21
21.0
31
2.6611729599565067e-30
 62
256
 0
LINE
 8
Layer0_S_
10
1827.639910339265
20
21.0
30
2.6611729599565067e-30
11
1828.0759427202242
21
20.34743142594768
31
2.8177125458363015e-30
 62
256
 0
LINE
 8
Layer0_S_
10
1828.0759427202242
20
20.34743142594768
30
2.8177125458363015e-30
11
1828.5934220748525
21
19.757359312880716
31
2.8177125458363015e-30
 62
256
 0
LINE
 8
Layer0_S_
10
1828.5934220748525
20
19.757359312880716
30
2.8177125458363015e-30
11
1829.1834941879192
21
19.23987995825259
31
2.8177125458363015e-30
 62
256
 0
LINE
 8
Layer0_S_
10
1829.1834941879192
20
19.23987995825259
30
2.8177125458363015e-30
11
1829.8360627619716
21
18.80384757729337
31
2.8177125458363015e-30
 62
256
 0
LINE
 8
Layer0_S_
10
1829.8360627619716
20
18.80384757729337
30
2.8177125458363015e-30
11
1830.5399621677811
21
18.45672280493228
31
2.8177125458363015e-30
 62
256
 0
LINE
 8
Layer0_S_
10
1830.5399621677811
20
18.45672280493228
30
2.8177125458363015e-30
11
1831.2831484913565
21
18.20444504226559
31
2.8177125458363015e-30
 62
256
 0
LINE
 8
Layer0_S_
10
1831.2831484913565
20
18.20444504226559
30
2.8177125458363015e-30
11
1832.0529056086511
21
18.051330831757138
31
2.8177125458363015e-30
 62
256
 0
LINE
 8
Layer0_S_
10
1832.0529056086511
20
18.051330831757138
30
2.8177125458363015e-30
11
1832.8360627619718
21
17.999999999999996
31
2.8177125458363015e-30
 62
256
 0
LINE
 8
Layer0_S_
10
1877.8360627619716
20
24.0
30
2.6611729599565067e-30
11
1877.7847319302143
21
23.21684284667969
31
2.6611729599565067e-30
 62
256
 0
LINE
 8
Layer0_S_
10
1877.7847319302143
20
23.21684284667969
30
2.6611729599565067e-30
11
1877.631617719706
21
22.447085729384877
31
2.6611729599565067e-30
 62
256
 0
LINE
 8
Layer0_S_
10
1877.631617719706
20
22.447085729384877
30
2.6611729599565067e-30
11
1877.3793399570393
21
21.703899405809466
31
2.6611729599565067e-30
 62
256
 0
LINE
 8
Layer0_S_
10
1877.3793399570393
20
21.703899405809466
30
2.6611729599565067e-30
11
1877.032215184678
21
21.000000000000004
31
2.6611729599565067e-30
 62
256
 0
LINE
 8
Layer0_S_
10
1877.032215184678
20
21.000000000000004
30
2.6611729599565067e-30
11
1876.5961828037189
21
20.34743142594768
31
2.8177125458363015e-30
 62
256
 0
LINE
 8
Layer0_S_
10
1876.5961828037189
20
20.34743142594768
30
2.8177125458363015e-30
11
1876.0787034490907
21
19.757359312880716
31
2.8177125458363015e-30
 62
256
 0
LINE
 8
Layer0_S_
10
1876.0787034490907
20
19.757359312880716
30
2.8177125458363015e-30
11
1875.488631336024
21
19.239879958252594
31
2.8177125458363015e-30
 62
256
 0
LINE
 8
Layer0_S_
10
1875.488631336024
20
19.239879958252594
30
2.8177125458363015e-30
11
1874.8360627619716
21
18.80384757729337
31
2.8177125458363015e-30
 62
256
 0
LINE
 8
Layer0_S_
10
1874.8360627619716
20
18.80384757729337
30
2.8177125458363015e-30
11
1874.132163356162
21
18.456722804932284
31
2.8177125458363015e-30
 62
256
 0
LINE
 8
Layer0_S_
10
1874.132163356162
20
18.456722804932284
30
2.8177125458363015e-30
11
1873.3889770325866
21
18.204445042265593
31
2.8177125458363015e-30
 62
256
 0
LINE
 8
Layer0_S_
10
1873.3889770325866
20
18.204445042265593
30
2.8177125458363015e-30
11
1872.619219915292
21
18.05133083175714
31
2.8177125458363015e-30
 62
256
 0
LINE
 8
Layer0_S_
10
1872.619219915292
20
18.05133083175714
30
2.8177125458363015e-30
11
1871.8360627619716
21
18.0
31
2.8177125458363015e-30
 62
256
 0
LINE
 8
Layer0_S_
10
1877.8360627619716
20
115.99999999999993
30
6.261583435191781e-31
11
1877.7847319302143
21
116.78315715332023
31
6.261583435191781e-31
 62
256
 0
LINE
 8
Layer0_S_
10
1877.7847319302143
20
116.78315715332023
30
6.261583435191781e-31
11
1877.631617719706
21
117.55291427061506
31
6.261583435191781e-31
 62
256
 0
LINE
 8
Layer0_S_
10
1877.631617719706
20
117.55291427061506
30
6.261583435191781e-31
11
1877.3793399570393
21
118.29610059419046
31
6.261583435191781e-31
 62
256
 0
LINE
 8
Layer0_S_
10
1877.3793399570393
20
118.29610059419046
30
6.261583435191781e-31
11
1877.032215184678
21
118.99999999999991
31
6.261583435191781e-31
 62
256
 0
LINE
 8
Layer0_S_
10
1877.032215184678
20
118.99999999999991
30
6.261583435191781e-31
11
1876.5961828037189
21
119.65256857405225
31
4.696187576393835e-31
 62
256
 0
LINE
 8
Layer0_S_
10
1876.5961828037189
20
119.65256857405225
30
4.696187576393835e-31
11
1876.0787034490907
21
120.24264068711922
31
4.696187576393835e-31
 62
256
 0
LINE
 8
Layer0_S_
10
1876.0787034490907
20
120.24264068711922
30
4.696187576393835e-31
11
1875.488631336024
21
120.76012004174733
31
4.696187576393835e-31
 62
256
 0
LINE
 8
Layer0_S_
10
1875.488631336024
20
120.76012004174733
30
4.696187576393835e-31
11
1874.8360627619716
21
121.19615242270655
31
4.696187576393835e-31
 62
256
 0
LINE
 8
Layer0_S_
10
1874.8360627619716
20
121.19615242270655
30
4.696187576393835e-31
11
1874.132163356162
21
121.54327719506765
31
4.696187576393835e-31
 62
256
 0
LINE
 8
Layer0_S_
10
1874.132163356162
20
121.54327719506765
30
4.696187576393835e-31
11
1873.3889770325866
21
121.79555495773434
31
4.696187576393835e-31
 62
256
 0
LINE
 8
Layer0_S_
10
1873.3889770325866
20
121.79555495773434
30
4.696187576393835e-31
11
1872.619219915292
21
121.94866916824279
31
4.696187576393835e-31
 62
256
 0
LINE
 8
Layer0_S_
10
1872.619219915292
20
121.94866916824279
30
4.696187576393835e-31
11
1871.8360627619716
21
121.99999999999991
31
4.696187576393835e-31
 62
256
 0
LINE
 8
Layer0_S_
10
1728.8360627619716
20
115.99999999999993
30
6.261583435191781e-31
11
1728.8873935937286
21
116.78315715332023
31
6.261583435191781e-31
 62
256
 0
LINE
 8
Layer0_S_
10
1728.8873935937286
20
116.78315715332023
30
6.261583435191781e-31
11
1729.0405078042372
21
117.55291427061506
31
6.261583435191781e-31
 62
256
 0
LINE
 8
Layer0_S_
10
1729.0405078042372
20
117.55291427061506
30
6.261583435191781e-31
11
1729.2927855669036
21
118.29610059419048
31
6.261583435191781e-31
 62
256
 0
LINE
 8
Layer0_S_
10
1729.2927855669036
20
118.29610059419048
30
6.261583435191781e-31
11
1729.6399103392648
21
118.99999999999994
31
6.261583435191781e-31
 62
256
 0
LINE
 8
Layer0_S_
10
1729.6399103392648
20
118.99999999999994
30
6.261583435191781e-31
11
1730.0759427202242
21
119.65256857405225
31
4.696187576393835e-31
 62
256
 0
LINE
 8
Layer0_S_
10
1730.0759427202242
20
119.65256857405225
30
4.696187576393835e-31
11
1730.5934220748525
21
120.24264068711922
31
4.696187576393835e-31
 62
256
 0
LINE
 8
Layer0_S_
10
1730.5934220748525
20
120.24264068711922
30
4.696187576393835e-31
11
1731.1834941879192
21
120.76012004174736
31
4.696187576393835e-31
 62
256
 0
LINE
 8
Layer0_S_
10
1731.1834941879192
20
120.76012004174736
30
4.696187576393835e-31
11
1731.8360627619716
21
121.19615242270658
31
4.696187576393835e-31
 62
256
 0
LINE
 8
Layer0_S_
10
1731.8360627619716
20
121.19615242270658
30
4.696187576393835e-31
11
1732.5399621677811
21
121.54327719506766
31
4.696187576393835e-31
 62
256
 0
LINE
 8
Layer0_S_
10
1732.5399621677811
20
121.54327719506766
30
4.696187576393835e-31
11
1733.2831484913563
21
121.79555495773434
31
4.696187576393835e-31
 62
256
 0
LINE
 8
Layer0_S_
10
1733.2831484913563
20
121.79555495773434
30
4.696187576393835e-31
11
1734.0529056086511
21
121.9486691682428
31
4.696187576393835e-31
 62
256
 0
LINE
 8
Layer0_S_
10
1734.0529056086511
20
121.9486691682428
30
4.696187576393835e-31
11
1734.8360627619716
21
121.99999999999993
31
4.696187576393835e-31
 62
256
 0
LINE
 8
Layer0_S_
10
1719.8360627619713
20
12.0
30
2.974252131716096e-30
11
1719.9382852831045
21
12.77645713530756
31
2.974252131716096e-30
 62
256
 0
LINE
 8
Layer0_S_
10
1719.9382852831045
20
12.77645713530756
30
2.974252131716096e-30
11
1720.2379865506182
21
13.499999999999998
31
2.974252131716096e-30
 62
256
 0
LINE
 8
Layer0_S_
10
1720.2379865506182
20
13.499999999999998
30
2.974252131716096e-30
11
1720.7147424184118
21
14.121320343559637
31
2.974252131716096e-30
 62
256
 0
LINE
 8
Layer0_S_
10
1720.7147424184118
20
14.121320343559637
30
2.974252131716096e-30
11
1721.3360627619713
21
14.598076211353309
31
2.974252131716096e-30
 62
256
 0
LINE
 8
Layer0_S_
10
1721.3360627619713
20
14.598076211353309
30
2.974252131716096e-30
11
1722.059605626664
21
14.897777478867196
31
2.974252131716096e-30
 62
256
 0
LINE
 8
Layer0_S_
10
1722.059605626664
20
14.897777478867196
30
2.974252131716096e-30
11
1722.8360627619713
21
14.999999999999993
31
2.974252131716096e-30
 62
256
 0
LINE
 8
Layer0_S_
10
1722.8360627619713
20
14.999999999999993
30
2.974252131716096e-30
11
1723.6125198972793
21
14.897777478867196
31
2.974252131716096e-30
 62
256
 0
LINE
 8
Layer0_S_
10
1723.6125198972793
20
14.897777478867196
30
2.974252131716096e-30
11
1724.3360627619716
21
14.598076211353309
31
2.974252131716096e-30
 62
256
 0
LINE
 8
Layer0_S_
10
1724.3360627619716
20
14.598076211353309
30
2.974252131716096e-30
11
1724.957383105531
21
14.121320343559637
31
2.974252131716096e-30
 62
256
 0
LINE
 8
Layer0_S_
10
1724.957383105531
20
14.121320343559637
30
2.974252131716096e-30
11
1725.434138973325
21
13.499999999999998
31
2.974252131716096e-30
 62
256
 0
LINE
 8
Layer0_S_
10
1725.434138973325
20
13.499999999999998
30
2.974252131716096e-30
11
1725.7338402408388
21
12.77645713530756
31
2.974252131716096e-30
 62
256
 0
LINE
 8
Layer0_S_
10
1725.7338402408388
20
12.77645713530756
30
2.974252131716096e-30
11
1725.8360627619716
21
12.0
31
2.974252131716096e-30
 62
256
 0
LINE
 8
Layer0_S_
10
1725.8360627619716
20
12.0
30
2.974252131716096e-30
11
1725.7338402408388
21
11.223542864692444
31
2.974252131716096e-30
 62
256
 0
LINE
 8
Layer0_S_
10
1725.7338402408388
20
11.223542864692444
30
2.974252131716096e-30
11
1725.434138973325
21
10.500000000000004
31
2.974252131716096e-30
 62
256
 0
LINE
 8
Layer0_S_
10
1725.434138973325
20
10.500000000000004
30
2.974252131716096e-30
11
1724.957383105531
21
9.878679656440363
31
2.974252131716096e-30
 62
256
 0
LINE
 8
Layer0_S_
10
1724.957383105531
20
9.878679656440363
30
2.974252131716096e-30
11
1724.3360627619716
21
9.401923788646695
31
2.974252131716096e-30
 62
256
 0
LINE
 8
Layer0_S_
10
1724.3360627619716
20
9.401923788646695
30
2.974252131716096e-30
11
1723.6125198972793
21
9.102222521132802
31
2.974252131716096e-30
 62
256
 0
LINE
 8
Layer0_S_
10
1723.6125198972793
20
9.102222521132802
30
2.974252131716096e-30
11
1722.8360627619713
21
9.000000000000005
31
2.974252131716096e-30
 62
256
 0
LINE
 8
Layer0_S_
10
1722.8360627619713
20
9.000000000000005
30
2.974252131716096e-30
11
1722.059605626664
21
9.102222521132802
31
2.974252131716096e-30
 62
256
 0
LINE
 8
Layer0_S_
10
1722.059605626664
20
9.102222521132802
30
2.974252131716096e-30
11
1721.3360627619713
21
9.40192378864669
31
2.974252131716096e-30
 62
256
 0
LINE
 8
Layer0_S_
10
1721.3360627619713
20
9.40192378864669
30
2.974252131716096e-30
11
1720.7147424184118
21
9.878679656440363
31
2.974252131716096e-30
 62
256
 0
LINE
 8
Layer0_S_
10
1720.7147424184118
20
9.878679656440363
30
2.974252131716096e-30
11
1720.2379865506182
21
10.500000000000004
31
2.974252131716096e-30
 62
256
 0
LINE
 8
Layer0_S_
10
1720.2379865506182
20
10.500000000000004
30
2.974252131716096e-30
11
1719.9382852831045
21
11.223542864692439
31
2.974252131716096e-30
 62
256
 0
LINE
 8
Layer0_S_
10
1719.9382852831045
20
11.223542864692439
30
2.974252131716096e-30
11
1719.8360627619713
21
12.0
31
2.974252131716096e-30
 62
256
 0
LINE
 8
Layer0_S_
10
1880.8360627619716
20
12.0
30
2.974252131716096e-30
11
1880.9382852831043
21
12.776457135307563
31
2.974252131716096e-30
 62
256
 0
LINE
 8
Layer0_S_
10
1880.9382852831043
20
12.776457135307563
30
2.974252131716096e-30
11
1881.2379865506182
21
13.5
31
2.974252131716096e-30
 62
256
 0
LINE
 8
Layer0_S_
10
1881.2379865506182
20
13.5
30
2.974252131716096e-30
11
1881.714742418412
21
14.121320343559642
31
2.974252131716096e-30
 62
256
 0
LINE
 8
Layer0_S_
10
1881.714742418412
20
14.121320343559642
30
2.974252131716096e-30
11
1882.3360627619716
21
14.598076211353316
31
2.974252131716096e-30
 62
256
 0
LINE
 8
Layer0_S_
10
1882.3360627619716
20
14.598076211353316
30
2.974252131716096e-30
11
1883.0596056266638
21
14.897777478867203
31
2.974252131716096e-30
 62
256
 0
LINE
 8
Layer0_S_
10
1883.0596056266638
20
14.897777478867203
30
2.974252131716096e-30
11
1883.8360627619716
21
14.999999999999998
31
2.974252131716096e-30
 62
256
 0
LINE
 8
Layer0_S_
10
1883.8360627619716
20
14.999999999999998
30
2.974252131716096e-30
11
1884.612519897279
21
14.897777478867203
31
2.974252131716096e-30
 62
256
 0
LINE
 8
Layer0_S_
10
1884.612519897279
20
14.897777478867203
30
2.974252131716096e-30
11
1885.3360627619716
21
14.598076211353316
31
2.974252131716096e-30
 62
256
 0
LINE
 8
Layer0_S_
10
1885.3360627619716
20
14.598076211353316
30
2.974252131716096e-30
11
1885.9573831055313
21
14.121320343559642
31
2.974252131716096e-30
 62
256
 0
LINE
 8
Layer0_S_
10
1885.9573831055313
20
14.121320343559642
30
2.974252131716096e-30
11
1886.4341389733247
21
13.5
31
2.974252131716096e-30
 62
256
 0
LINE
 8
Layer0_S_
10
1886.4341389733247
20
13.5
30
2.974252131716096e-30
11
1886.7338402408386
21
12.776457135307563
31
2.974252131716096e-30
 62
256
 0
LINE
 8
Layer0_S_
10
1886.7338402408386
20
12.776457135307563
30
2.974252131716096e-30
11
1886.8360627619718
21
12.0
31
2.974252131716096e-30
 62
256
 0
LINE
 8
Layer0_S_
10
1886.8360627619718
20
12.0
30
2.974252131716096e-30
11
1886.7338402408386
21
11.223542864692439
31
2.974252131716096e-30
 62
256
 0
LINE
 8
Layer0_S_
10
1886.7338402408386
20
11.223542864692439
30
2.974252131716096e-30
11
1886.4341389733247
21
10.500000000000004
31
2.974252131716096e-30
 62
256
 0
LINE
 8
Layer0_S_
10
1886.4341389733247
20
10.500000000000004
30
2.974252131716096e-30
11
1885.9573831055313
21
9.878679656440358
31
2.974252131716096e-30
 62
256
 0
LINE
 8
Layer0_S_
10
1885.9573831055313
20
9.878679656440358
30
2.974252131716096e-30
11
1885.3360627619716
21
9.40192378864669
31
2.974252131716096e-30
 62
256
 0
LINE
 8
Layer0_S_
10
1885.3360627619716
20
9.40192378864669
30
2.974252131716096e-30
11
1884.612519897279
21
9.102222521132795
31
2.974252131716096e-30
 62
256
 0
LINE
 8
Layer0_S_
10
1884.612519897279
20
9.102222521132795
30
2.974252131716096e-30
11
1883.8360627619716
21
9.0
31
2.974252131716096e-30
 62
256
 0
LINE
 8
Layer0_S_
10
1883.8360627619716
20
9.0
30
2.974252131716096e-30
11
1883.0596056266638
21
9.102222521132795
31
2.974252131716096e-30
 62
256
 0
LINE
 8
Layer0_S_
10
1883.0596056266638
20
9.102222521132795
30
2.974252131716096e-30
11
1882.3360627619716
21
9.401923788646682
31
2.974252131716096e-30
 62
256
 0
LINE
 8
Layer0_S_
10
1882.3360627619716
20
9.401923788646682
30
2.974252131716096e-30
11
1881.714742418412
21
9.878679656440358
31
2.974252131716096e-30
 62
256
 0
LINE
 8
Layer0_S_
10
1881.714742418412
20
9.878679656440358
30
2.974252131716096e-30
11
1881.2379865506182
21
10.499999999999998
31
2.974252131716096e-30
 62
256
 0
LINE
 8
Layer0_S_
10
1881.2379865506182
20
10.499999999999998
30
2.974252131716096e-30
11
1880.9382852831043
21
11.223542864692439
31
2.974252131716096e-30
 62
256
 0
LINE
 8
Layer0_S_
10
1880.9382852831043
20
11.223542864692439
30
2.974252131716096e-30
11
1880.8360627619716
21
12.0
31
2.974252131716096e-30
 62
256
 0
ENDSEC
 0
EOF
