 0
SECTION
 2
HEADER
 9
$ACADVER
 1
AC1006
 9
$LTSCALE
 40
1000.0
 0
ENDSEC
 0
SECTION
 2
TABLES
 0
TABLE
 2
LTYPE
 70
1
 0
LTYPE
 2
SKEMA_SOLID
 70
64
 3
Sketchup - Skema Ltype
 72
65
 73
0
 40
0.000000
 0
LTYPE
 2
SKEMA_DASHED
 70
64
 3
Sketchup - Skema Ltype
 72
65
 73
2
 40
0.1
 49
0.05
 49
-0.05
 0
LTYPE
 2
SKEMA_DOTTED
 70
64
 3
Sketchup - Skema Ltype
 72
65
 73
2
 40
00.1
 49
0.0
 49
-00.1
 0
ENDTAB
 0
TABLE
 2
LAYER
 70
6
 0
LAYER
 2
Layer0_S_
 70
64
 62
20
 6
SKEMA_SOLID
 0
ENDTAB
 0
TABLE
 2
STYLE
 70
0
 0
ENDTAB
 0
ENDSEC
 0
SECTION
 2
BLOCKS
 0
ENDSEC
 0
SECTION
 2
ENTITIES
 0
LINE
 8
Layer0_S_
10
867.4180313809858
20
0.0
30
8.459899447643692e-15
11
1028.4180313809857
21
0.0
31
8.459899447643692e-15
 62
256
 0
LINE
 8
Layer0_S_
10
855.4180313809858
20
127.99999999999993
30
8.459899447643692e-15
11
855.4180313809858
21
12.0
31
8.459899447643692e-15
 62
256
 0
LINE
 8
Layer0_S_
10
1028.4180313809857
20
139.99999999999991
30
8.459899447643692e-15
11
867.4180313809858
21
139.99999999999991
31
8.459899447643692e-15
 62
256
 0
LINE
 8
Layer0_S_
10
1040.4180313809857
20
12.0
30
8.459899447643692e-15
11
1040.4180313809857
21
127.99999999999993
31
8.459899447643692e-15
 62
256
 0
LINE
 8
Layer0_S_
10
1028.4180313809857
20
0.0
30
8.459899447643692e-15
11
1029.9843456876263
21
0.10266166351427745
31
8.459899447643692e-15
 62
256
 0
LINE
 8
Layer0_S_
10
1029.9843456876263
20
0.10266166351427745
30
8.459899447643692e-15
11
1031.523859922216
21
0.40889008453118103
31
8.459899447643692e-15
 62
256
 0
LINE
 8
Layer0_S_
10
1031.523859922216
20
0.40889008453118103
30
8.459899447643692e-15
11
1033.0102325693667
21
0.9134456098645598
31
8.459899447643692e-15
 62
256
 0
LINE
 8
Layer0_S_
10
1033.0102325693667
20
0.9134456098645598
30
8.459899447643692e-15
11
1034.4180313809857
21
1.6076951545867362
31
8.459899447643692e-15
 62
256
 0
LINE
 8
Layer0_S_
10
1034.4180313809857
20
1.6076951545867362
30
8.459899447643692e-15
11
1035.7231685290903
21
2.4797599165051807
31
8.459899447643692e-15
 62
256
 0
LINE
 8
Layer0_S_
10
1035.7231685290903
20
2.4797599165051807
30
8.459899447643692e-15
11
1036.9033127552243
21
3.514718625761432
31
8.459899447643692e-15
 62
256
 0
LINE
 8
Layer0_S_
10
1036.9033127552243
20
3.514718625761432
30
8.459899447643692e-15
11
1037.9382714644805
21
4.694862851895351
31
8.459899447643692e-15
 62
256
 0
LINE
 8
Layer0_S_
10
1037.9382714644805
20
4.694862851895351
30
8.459899447643692e-15
11
1038.810336226399
21
6.0
31
8.459899447643692e-15
 62
256
 0
LINE
 8
Layer0_S_
10
1038.810336226399
20
6.0
30
8.459899447643692e-15
11
1039.5045857711211
21
7.407798811618927
31
8.459899447643692e-15
 62
256
 0
LINE
 8
Layer0_S_
10
1039.5045857711211
20
7.407798811618927
30
8.459899447643692e-15
11
1040.0091412964546
21
8.894171458769755
31
8.459899447643692e-15
 62
256
 0
LINE
 8
Layer0_S_
10
1040.0091412964546
20
8.894171458769755
30
8.459899447643692e-15
11
1040.3153697174714
21
10.433685693359385
31
8.459899447643692e-15
 62
256
 0
LINE
 8
Layer0_S_
10
1040.3153697174714
20
10.433685693359385
30
8.459899447643692e-15
11
1040.4180313809857
21
12.0
31
8.459899447643692e-15
 62
256
 0
LINE
 8
Layer0_S_
10
867.4180313809858
20
0.0
30
8.459899447643692e-15
11
865.8517170743452
21
0.10266166351427745
31
8.459899447643692e-15
 62
256
 0
LINE
 8
Layer0_S_
10
865.8517170743452
20
0.10266166351427745
30
8.459899447643692e-15
11
864.3122028397556
21
0.40889008453118103
31
8.459899447643692e-15
 62
256
 0
LINE
 8
Layer0_S_
10
864.3122028397556
20
0.40889008453118103
30
8.459899447643692e-15
11
862.8258301926047
21
0.9134456098645598
31
8.459899447643692e-15
 62
256
 0
LINE
 8
Layer0_S_
10
862.8258301926047
20
0.9134456098645598
30
8.459899447643692e-15
11
861.4180313809857
21
1.6076951545867362
31
8.459899447643692e-15
 62
256
 0
LINE
 8
Layer0_S_
10
861.4180313809857
20
1.6076951545867362
30
8.459899447643692e-15
11
860.112894232881
21
2.4797599165051807
31
8.459899447643692e-15
 62
256
 0
LINE
 8
Layer0_S_
10
860.112894232881
20
2.4797599165051807
30
8.459899447643692e-15
11
858.9327500067473
21
3.514718625761432
31
8.459899447643692e-15
 62
256
 0
LINE
 8
Layer0_S_
10
858.9327500067473
20
3.514718625761432
30
8.459899447643692e-15
11
857.8977912974908
21
4.694862851895351
31
8.459899447643692e-15
 62
256
 0
LINE
 8
Layer0_S_
10
857.8977912974908
20
4.694862851895351
30
8.459899447643692e-15
11
857.0257265355724
21
6.0
31
8.459899447643692e-15
 62
256
 0
LINE
 8
Layer0_S_
10
857.0257265355724
20
6.0
30
8.459899447643692e-15
11
856.3314769908503
21
7.407798811618927
31
8.459899447643692e-15
 62
256
 0
LINE
 8
Layer0_S_
10
856.3314769908503
20
7.407798811618927
30
8.459899447643692e-15
11
855.826921465517
21
8.894171458769755
31
8.459899447643692e-15
 62
256
 0
LINE
 8
Layer0_S_
10
855.826921465517
20
8.894171458769755
30
8.459899447643692e-15
11
855.5206930444999
21
10.433685693359385
31
8.459899447643692e-15
 62
256
 0
LINE
 8
Layer0_S_
10
855.5206930444999
20
10.433685693359385
30
8.459899447643692e-15
11
855.4180313809858
21
12.0
31
8.459899447643692e-15
 62
256
 0
LINE
 8
Layer0_S_
10
867.4180313809858
20
139.99999999999991
30
8.459899447643692e-15
11
865.8517170743452
21
139.89733833648566
31
8.459899447643692e-15
 62
256
 0
LINE
 8
Layer0_S_
10
865.8517170743452
20
139.89733833648566
30
8.459899447643692e-15
11
864.3122028397556
21
139.59110991546873
31
8.459899447643692e-15
 62
256
 0
LINE
 8
Layer0_S_
10
864.3122028397556
20
139.59110991546873
30
8.459899447643692e-15
11
862.8258301926047
21
139.08655439013535
31
8.459899447643692e-15
 62
256
 0
LINE
 8
Layer0_S_
10
862.8258301926047
20
139.08655439013535
30
8.459899447643692e-15
11
861.4180313809857
21
138.3923048454132
31
8.459899447643692e-15
 62
256
 0
LINE
 8
Layer0_S_
10
861.4180313809857
20
138.3923048454132
30
8.459899447643692e-15
11
860.112894232881
21
137.52024008349474
31
8.459899447643692e-15
 62
256
 0
LINE
 8
Layer0_S_
10
860.112894232881
20
137.52024008349474
30
8.459899447643692e-15
11
858.9327500067473
21
136.4852813742385
31
8.459899447643692e-15
 62
256
 0
LINE
 8
Layer0_S_
10
858.9327500067473
20
136.4852813742385
30
8.459899447643692e-15
11
857.8977912974908
21
135.3051371481046
31
8.459899447643692e-15
 62
256
 0
LINE
 8
Layer0_S_
10
857.8977912974908
20
135.3051371481046
30
8.459899447643692e-15
11
857.0257265355724
21
133.99999999999994
31
8.459899447643692e-15
 62
256
 0
LINE
 8
Layer0_S_
10
857.0257265355724
20
133.99999999999994
30
8.459899447643692e-15
11
856.3314769908503
21
132.59220118838098
31
8.459899447643692e-15
 62
256
 0
LINE
 8
Layer0_S_
10
856.3314769908503
20
132.59220118838098
30
8.459899447643692e-15
11
855.826921465517
21
131.10582854123018
31
8.459899447643692e-15
 62
256
 0
LINE
 8
Layer0_S_
10
855.826921465517
20
131.10582854123018
30
8.459899447643692e-15
11
855.5206930444999
21
129.56631430664055
31
8.459899447643692e-15
 62
256
 0
LINE
 8
Layer0_S_
10
855.5206930444999
20
129.56631430664055
30
8.459899447643692e-15
11
855.4180313809858
21
127.99999999999993
31
8.459899447643692e-15
 62
256
 0
LINE
 8
Layer0_S_
10
1028.4180313809857
20
139.99999999999991
30
8.459899447643692e-15
11
1029.9843456876263
21
139.89733833648566
31
8.459899447643692e-15
 62
256
 0
LINE
 8
Layer0_S_
10
1029.9843456876263
20
139.89733833648566
30
8.459899447643692e-15
11
1031.523859922216
21
139.59110991546873
31
8.459899447643692e-15
 62
256
 0
LINE
 8
Layer0_S_
10
1031.523859922216
20
139.59110991546873
30
8.459899447643692e-15
11
1033.0102325693667
21
139.08655439013535
31
8.459899447643692e-15
 62
256
 0
LINE
 8
Layer0_S_
10
1033.0102325693667
20
139.08655439013535
30
8.459899447643692e-15
11
1034.4180313809857
21
138.3923048454132
31
8.459899447643692e-15
 62
256
 0
LINE
 8
Layer0_S_
10
1034.4180313809857
20
138.3923048454132
30
8.459899447643692e-15
11
1035.7231685290903
21
137.52024008349474
31
8.459899447643692e-15
 62
256
 0
LINE
 8
Layer0_S_
10
1035.7231685290903
20
137.52024008349474
30
8.459899447643692e-15
11
1036.9033127552243
21
136.4852813742385
31
8.459899447643692e-15
 62
256
 0
LINE
 8
Layer0_S_
10
1036.9033127552243
20
136.4852813742385
30
8.459899447643692e-15
11
1037.9382714644805
21
135.3051371481046
31
8.459899447643692e-15
 62
256
 0
LINE
 8
Layer0_S_
10
1037.9382714644805
20
135.3051371481046
30
8.459899447643692e-15
11
1038.810336226399
21
133.99999999999994
31
8.459899447643692e-15
 62
256
 0
LINE
 8
Layer0_S_
10
1038.810336226399
20
133.99999999999994
30
8.459899447643692e-15
11
1039.5045857711211
21
132.59220118838098
31
8.459899447643692e-15
 62
256
 0
LINE
 8
Layer0_S_
10
1039.5045857711211
20
132.59220118838098
30
8.459899447643692e-15
11
1040.0091412964546
21
131.10582854123018
31
8.459899447643692e-15
 62
256
 0
LINE
 8
Layer0_S_
10
1040.0091412964546
20
131.10582854123018
30
8.459899447643692e-15
11
1040.3153697174714
21
129.56631430664055
31
8.459899447643692e-15
 62
256
 0
LINE
 8
Layer0_S_
10
1040.3153697174714
20
129.56631430664055
30
8.459899447643692e-15
11
1040.4180313809857
21
127.99999999999993
31
8.459899447643692e-15
 62
256
 0
LINE
 8
Layer0_S_
10
1028.4180313809857
20
130.99999999999991
30
8.459899447643692e-15
11
1029.1944885162932
21
130.89777747886714
31
8.459899447643692e-15
 62
256
 0
LINE
 8
Layer0_S_
10
1029.1944885162932
20
130.89777747886714
30
8.459899447643692e-15
11
1029.9180313809857
21
130.59807621135326
31
8.459899447643692e-15
 62
256
 0
LINE
 8
Layer0_S_
10
1029.9180313809857
20
130.59807621135326
30
8.459899447643692e-15
11
1030.5393517245454
21
130.12132034355957
31
8.459899447643692e-15
 62
256
 0
LINE
 8
Layer0_S_
10
1030.5393517245454
20
130.12132034355957
30
8.459899447643692e-15
11
1031.016107592339
21
129.49999999999991
31
8.459899447643692e-15
 62
256
 0
LINE
 8
Layer0_S_
10
1031.016107592339
20
129.49999999999991
30
8.459899447643692e-15
11
1031.315808859853
21
128.77645713530748
31
8.459899447643692e-15
 62
256
 0
LINE
 8
Layer0_S_
10
1031.315808859853
20
128.77645713530748
30
8.459899447643692e-15
11
1031.4180313809857
21
127.99999999999993
31
8.459899447643692e-15
 62
256
 0
LINE
 8
Layer0_S_
10
1031.4180313809857
20
127.99999999999993
30
8.459899447643692e-15
11
1031.315808859853
21
127.22354286469236
31
8.459899447643692e-15
 62
256
 0
LINE
 8
Layer0_S_
10
1031.315808859853
20
127.22354286469236
30
8.459899447643692e-15
11
1031.016107592339
21
126.49999999999993
31
8.459899447643692e-15
 62
256
 0
LINE
 8
Layer0_S_
10
1031.016107592339
20
126.49999999999993
30
8.459899447643692e-15
11
1030.5393517245454
21
125.8786796564403
31
8.459899447643692e-15
 62
256
 0
LINE
 8
Layer0_S_
10
1030.5393517245454
20
125.8786796564403
30
8.459899447643692e-15
11
1029.9180313809857
21
125.40192378864663
31
8.459899447643692e-15
 62
256
 0
LINE
 8
Layer0_S_
10
1029.9180313809857
20
125.40192378864663
30
8.459899447643692e-15
11
1029.1944885162932
21
125.10222252113272
31
8.459899447643692e-15
 62
256
 0
LINE
 8
Layer0_S_
10
1029.1944885162932
20
125.10222252113272
30
8.459899447643692e-15
11
1028.4180313809857
21
124.99999999999993
31
8.459899447643692e-15
 62
256
 0
LINE
 8
Layer0_S_
10
1028.4180313809857
20
124.99999999999993
30
8.459899447643692e-15
11
1027.6415742456782
21
125.10222252113272
31
8.459899447643692e-15
 62
256
 0
LINE
 8
Layer0_S_
10
1027.6415742456782
20
125.10222252113272
30
8.459899447643692e-15
11
1026.918031380986
21
125.40192378864663
31
8.459899447643692e-15
 62
256
 0
LINE
 8
Layer0_S_
10
1026.918031380986
20
125.40192378864663
30
8.459899447643692e-15
11
1026.2967110374261
21
125.8786796564403
31
8.459899447643692e-15
 62
256
 0
LINE
 8
Layer0_S_
10
1026.2967110374261
20
125.8786796564403
30
8.459899447643692e-15
11
1025.8199551696325
21
126.49999999999993
31
8.459899447643692e-15
 62
256
 0
LINE
 8
Layer0_S_
10
1025.8199551696325
20
126.49999999999993
30
8.459899447643692e-15
11
1025.5202539021184
21
127.22354286469236
31
8.459899447643692e-15
 62
256
 0
LINE
 8
Layer0_S_
10
1025.5202539021184
20
127.22354286469236
30
8.459899447643692e-15
11
1025.418031380986
21
127.99999999999993
31
8.459899447643692e-15
 62
256
 0
LINE
 8
Layer0_S_
10
1025.418031380986
20
127.99999999999993
30
8.459899447643692e-15
11
1025.5202539021184
21
128.77645713530748
31
8.459899447643692e-15
 62
256
 0
LINE
 8
Layer0_S_
10
1025.5202539021184
20
128.77645713530748
30
8.459899447643692e-15
11
1025.8199551696325
21
129.49999999999991
31
8.459899447643692e-15
 62
256
 0
LINE
 8
Layer0_S_
10
1025.8199551696325
20
129.49999999999991
30
8.459899447643692e-15
11
1026.2967110374261
21
130.12132034355957
31
8.459899447643692e-15
 62
256
 0
LINE
 8
Layer0_S_
10
1026.2967110374261
20
130.12132034355957
30
8.459899447643692e-15
11
1026.918031380986
21
130.59807621135326
31
8.459899447643692e-15
 62
256
 0
LINE
 8
Layer0_S_
10
1026.918031380986
20
130.59807621135326
30
8.459899447643692e-15
11
1027.6415742456782
21
130.89777747886714
31
8.459899447643692e-15
 62
256
 0
LINE
 8
Layer0_S_
10
1027.6415742456782
20
130.89777747886714
30
8.459899447643692e-15
11
1028.4180313809857
21
130.99999999999991
31
8.459899447643692e-15
 62
256
 0
LINE
 8
Layer0_S_
10
1026.918031380986
20
14.598076211353318
30
8.459899447643692e-15
11
1027.6415742456782
21
14.897777478867205
31
8.459899447643692e-15
 62
256
 0
LINE
 8
Layer0_S_
10
1027.6415742456782
20
14.897777478867205
30
8.459899447643692e-15
11
1028.4180313809857
21
15.0
31
8.459899447643692e-15
 62
256
 0
LINE
 8
Layer0_S_
10
1028.4180313809857
20
15.0
30
8.459899447643692e-15
11
1029.1944885162932
21
14.897777478867205
31
8.459899447643692e-15
 62
256
 0
LINE
 8
Layer0_S_
10
1029.1944885162932
20
14.897777478867205
30
8.459899447643692e-15
11
1029.9180313809857
21
14.598076211353318
31
8.459899447643692e-15
 62
256
 0
LINE
 8
Layer0_S_
10
1029.9180313809857
20
14.598076211353318
30
8.459899447643692e-15
11
1030.5393517245454
21
14.121320343559642
31
8.459899447643692e-15
 62
256
 0
LINE
 8
Layer0_S_
10
1030.5393517245454
20
14.121320343559642
30
8.459899447643692e-15
11
1031.016107592339
21
13.500000000000004
31
8.459899447643692e-15
 62
256
 0
LINE
 8
Layer0_S_
10
1031.016107592339
20
13.500000000000004
30
8.459899447643692e-15
11
1031.315808859853
21
12.776457135307563
31
8.459899447643692e-15
 62
256
 0
LINE
 8
Layer0_S_
10
1031.315808859853
20
12.776457135307563
30
8.459899447643692e-15
11
1031.4180313809857
21
12.0
31
8.459899447643692e-15
 62
256
 0
LINE
 8
Layer0_S_
10
1031.4180313809857
20
12.0
30
8.459899447643692e-15
11
1031.315808859853
21
11.223542864692439
31
8.459899447643692e-15
 62
256
 0
LINE
 8
Layer0_S_
10
1031.315808859853
20
11.223542864692439
30
8.459899447643692e-15
11
1031.016107592339
21
10.500000000000004
31
8.459899447643692e-15
 62
256
 0
LINE
 8
Layer0_S_
10
1031.016107592339
20
10.500000000000004
30
8.459899447643692e-15
11
1030.5393517245454
21
9.878679656440358
31
8.459899447643692e-15
 62
256
 0
LINE
 8
Layer0_S_
10
1030.5393517245454
20
9.878679656440358
30
8.459899447643692e-15
11
1029.9180313809857
21
9.401923788646682
31
8.459899447643692e-15
 62
256
 0
LINE
 8
Layer0_S_
10
1029.9180313809857
20
9.401923788646682
30
8.459899447643692e-15
11
1029.1944885162932
21
9.102222521132795
31
8.459899447643692e-15
 62
256
 0
LINE
 8
Layer0_S_
10
1029.1944885162932
20
9.102222521132795
30
8.459899447643692e-15
11
1028.4180313809857
21
9.0
31
8.459899447643692e-15
 62
256
 0
LINE
 8
Layer0_S_
10
1028.4180313809857
20
9.0
30
8.459899447643692e-15
11
1027.6415742456782
21
9.102222521132795
31
8.459899447643692e-15
 62
256
 0
LINE
 8
Layer0_S_
10
1027.6415742456782
20
9.102222521132795
30
8.459899447643692e-15
11
1026.918031380986
21
9.401923788646682
31
8.459899447643692e-15
 62
256
 0
LINE
 8
Layer0_S_
10
1026.918031380986
20
9.401923788646682
30
8.459899447643692e-15
11
1026.2967110374261
21
9.878679656440358
31
8.459899447643692e-15
 62
256
 0
LINE
 8
Layer0_S_
10
1026.2967110374261
20
9.878679656440358
30
8.459899447643692e-15
11
1025.8199551696325
21
10.499999999999998
31
8.459899447643692e-15
 62
256
 0
LINE
 8
Layer0_S_
10
1025.8199551696325
20
10.499999999999998
30
8.459899447643692e-15
11
1025.5202539021184
21
11.223542864692439
31
8.459899447643692e-15
 62
256
 0
LINE
 8
Layer0_S_
10
1025.5202539021184
20
11.223542864692439
30
8.459899447643692e-15
11
1025.418031380986
21
11.999999999999995
31
8.459899447643692e-15
 62
256
 0
LINE
 8
Layer0_S_
10
1025.418031380986
20
11.999999999999995
30
8.459899447643692e-15
11
1025.5202539021184
21
12.776457135307563
31
8.459899447643692e-15
 62
256
 0
LINE
 8
Layer0_S_
10
1025.5202539021184
20
12.776457135307563
30
8.459899447643692e-15
11
1025.8199551696325
21
13.499999999999998
31
8.459899447643692e-15
 62
256
 0
LINE
 8
Layer0_S_
10
1025.8199551696325
20
13.499999999999998
30
8.459899447643692e-15
11
1026.2967110374261
21
14.121320343559642
31
8.459899447643692e-15
 62
256
 0
LINE
 8
Layer0_S_
10
1026.2967110374261
20
14.121320343559642
30
8.459899447643692e-15
11
1026.918031380986
21
14.598076211353318
31
8.459899447643692e-15
 62
256
 0
LINE
 8
Layer0_S_
10
864.4180313809858
20
12.0
30
8.459899447643692e-15
11
864.5202539021186
21
12.776457135307563
31
8.459899447643692e-15
 62
256
 0
LINE
 8
Layer0_S_
10
864.5202539021186
20
12.776457135307563
30
8.459899447643692e-15
11
864.8199551696324
21
13.499999999999998
31
8.459899447643692e-15
 62
256
 0
LINE
 8
Layer0_S_
10
864.8199551696324
20
13.499999999999998
30
8.459899447643692e-15
11
865.296711037426
21
14.121320343559637
31
8.459899447643692e-15
 62
256
 0
LINE
 8
Layer0_S_
10
865.296711037426
20
14.121320343559637
30
8.459899447643692e-15
11
865.9180313809858
21
14.598076211353307
31
8.459899447643692e-15
 62
256
 0
LINE
 8
Layer0_S_
10
865.9180313809858
20
14.598076211353307
30
8.459899447643692e-15
11
866.6415742456782
21
14.8977774788672
31
8.459899447643692e-15
 62
256
 0
LINE
 8
Layer0_S_
10
866.6415742456782
20
14.8977774788672
30
8.459899447643692e-15
11
867.4180313809858
21
14.999999999999995
31
8.459899447643692e-15
 62
256
 0
LINE
 8
Layer0_S_
10
867.4180313809858
20
14.999999999999995
30
8.459899447643692e-15
11
868.1944885162932
21
14.8977774788672
31
8.459899447643692e-15
 62
256
 0
LINE
 8
Layer0_S_
10
868.1944885162932
20
14.8977774788672
30
8.459899447643692e-15
11
868.9180313809857
21
14.598076211353312
31
8.459899447643692e-15
 62
256
 0
LINE
 8
Layer0_S_
10
868.9180313809857
20
14.598076211353312
30
8.459899447643692e-15
11
869.5393517245454
21
14.121320343559637
31
8.459899447643692e-15
 62
256
 0
LINE
 8
Layer0_S_
10
869.5393517245454
20
14.121320343559637
30
8.459899447643692e-15
11
870.0161075923389
21
13.499999999999998
31
8.459899447643692e-15
 62
256
 0
LINE
 8
Layer0_S_
10
870.0161075923389
20
13.499999999999998
30
8.459899447643692e-15
11
870.315808859853
21
12.776457135307563
31
8.459899447643692e-15
 62
256
 0
LINE
 8
Layer0_S_
10
870.315808859853
20
12.776457135307563
30
8.459899447643692e-15
11
870.4180313809857
21
12.0
31
8.459899447643692e-15
 62
256
 0
LINE
 8
Layer0_S_
10
870.4180313809857
20
12.0
30
8.459899447643692e-15
11
870.315808859853
21
11.223542864692444
31
8.459899447643692e-15
 62
256
 0
LINE
 8
Layer0_S_
10
870.315808859853
20
11.223542864692444
30
8.459899447643692e-15
11
870.0161075923389
21
10.500000000000004
31
8.459899447643692e-15
 62
256
 0
LINE
 8
Layer0_S_
10
870.0161075923389
20
10.500000000000004
30
8.459899447643692e-15
11
869.5393517245454
21
9.878679656440363
31
8.459899447643692e-15
 62
256
 0
LINE
 8
Layer0_S_
10
869.5393517245454
20
9.878679656440363
30
8.459899447643692e-15
11
868.9180313809857
21
9.401923788646695
31
8.459899447643692e-15
 62
256
 0
LINE
 8
Layer0_S_
10
868.9180313809857
20
9.401923788646695
30
8.459899447643692e-15
11
868.1944885162932
21
9.102222521132802
31
8.459899447643692e-15
 62
256
 0
LINE
 8
Layer0_S_
10
868.1944885162932
20
9.102222521132802
30
8.459899447643692e-15
11
867.4180313809858
21
9.000000000000005
31
8.459899447643692e-15
 62
256
 0
LINE
 8
Layer0_S_
10
867.4180313809858
20
9.000000000000005
30
8.459899447643692e-15
11
866.6415742456782
21
9.102222521132802
31
8.459899447643692e-15
 62
256
 0
LINE
 8
Layer0_S_
10
866.6415742456782
20
9.102222521132802
30
8.459899447643692e-15
11
865.9180313809858
21
9.40192378864669
31
8.459899447643692e-15
 62
256
 0
LINE
 8
Layer0_S_
10
865.9180313809858
20
9.40192378864669
30
8.459899447643692e-15
11
865.296711037426
21
9.878679656440363
31
8.459899447643692e-15
 62
256
 0
LINE
 8
Layer0_S_
10
865.296711037426
20
9.878679656440363
30
8.459899447643692e-15
11
864.8199551696324
21
10.500000000000004
31
8.459899447643692e-15
 62
256
 0
LINE
 8
Layer0_S_
10
864.8199551696324
20
10.500000000000004
30
8.459899447643692e-15
11
864.5202539021186
21
11.223542864692439
31
8.459899447643692e-15
 62
256
 0
LINE
 8
Layer0_S_
10
864.5202539021186
20
11.223542864692439
30
8.459899447643692e-15
11
864.4180313809858
21
12.0
31
8.459899447643692e-15
 62
256
 0
LINE
 8
Layer0_S_
10
870.315808859853
20
127.22354286469236
30
8.459899447643692e-15
11
870.0161075923389
21
126.49999999999993
31
8.459899447643692e-15
 62
256
 0
LINE
 8
Layer0_S_
10
870.0161075923389
20
126.49999999999993
30
8.459899447643692e-15
11
869.5393517245454
21
125.8786796564403
31
8.459899447643692e-15
 62
256
 0
LINE
 8
Layer0_S_
10
869.5393517245454
20
125.8786796564403
30
8.459899447643692e-15
11
868.9180313809857
21
125.40192378864663
31
8.459899447643692e-15
 62
256
 0
LINE
 8
Layer0_S_
10
868.9180313809857
20
125.40192378864663
30
8.459899447643692e-15
11
868.1944885162932
21
125.10222252113275
31
8.459899447643692e-15
 62
256
 0
LINE
 8
Layer0_S_
10
868.1944885162932
20
125.10222252113275
30
8.459899447643692e-15
11
867.4180313809858
21
124.99999999999993
31
8.459899447643692e-15
 62
256
 0
LINE
 8
Layer0_S_
10
867.4180313809858
20
124.99999999999993
30
8.459899447643692e-15
11
866.6415742456782
21
125.10222252113272
31
8.459899447643692e-15
 62
256
 0
LINE
 8
Layer0_S_
10
866.6415742456782
20
125.10222252113272
30
8.459899447643692e-15
11
865.9180313809858
21
125.40192378864663
31
8.459899447643692e-15
 62
256
 0
LINE
 8
Layer0_S_
10
865.9180313809858
20
125.40192378864663
30
8.459899447643692e-15
11
865.296711037426
21
125.87867965644027
31
8.459899447643692e-15
 62
256
 0
LINE
 8
Layer0_S_
10
865.296711037426
20
125.87867965644027
30
8.459899447643692e-15
11
864.8199551696324
21
126.49999999999993
31
8.459899447643692e-15
 62
256
 0
LINE
 8
Layer0_S_
10
864.8199551696324
20
126.49999999999993
30
8.459899447643692e-15
11
864.5202539021186
21
127.22354286469236
31
8.459899447643692e-15
 62
256
 0
LINE
 8
Layer0_S_
10
864.5202539021186
20
127.22354286469236
30
8.459899447643692e-15
11
864.4180313809858
21
127.99999999999993
31
8.459899447643692e-15
 62
256
 0
LINE
 8
Layer0_S_
10
864.4180313809858
20
127.99999999999993
30
8.459899447643692e-15
11
864.5202539021186
21
128.77645713530748
31
8.459899447643692e-15
 62
256
 0
LINE
 8
Layer0_S_
10
864.5202539021186
20
128.77645713530748
30
8.459899447643692e-15
11
864.8199551696324
21
129.49999999999991
31
8.459899447643692e-15
 62
256
 0
LINE
 8
Layer0_S_
10
864.8199551696324
20
129.49999999999991
30
8.459899447643692e-15
11
865.296711037426
21
130.12132034355957
31
8.459899447643692e-15
 62
256
 0
LINE
 8
Layer0_S_
10
865.296711037426
20
130.12132034355957
30
8.459899447643692e-15
11
865.9180313809858
21
130.59807621135326
31
8.459899447643692e-15
 62
256
 0
LINE
 8
Layer0_S_
10
865.9180313809858
20
130.59807621135326
30
8.459899447643692e-15
11
866.6415742456782
21
130.89777747886714
31
8.459899447643692e-15
 62
256
 0
LINE
 8
Layer0_S_
10
866.6415742456782
20
130.89777747886714
30
8.459899447643692e-15
11
867.4180313809858
21
130.99999999999991
31
8.459899447643692e-15
 62
256
 0
LINE
 8
Layer0_S_
10
867.4180313809858
20
130.99999999999991
30
8.459899447643692e-15
11
868.1944885162932
21
130.89777747886714
31
8.459899447643692e-15
 62
256
 0
LINE
 8
Layer0_S_
10
868.1944885162932
20
130.89777747886714
30
8.459899447643692e-15
11
868.9180313809857
21
130.59807621135326
31
8.459899447643692e-15
 62
256
 0
LINE
 8
Layer0_S_
10
868.9180313809857
20
130.59807621135326
30
8.459899447643692e-15
11
869.5393517245454
21
130.12132034355957
31
8.459899447643692e-15
 62
256
 0
LINE
 8
Layer0_S_
10
869.5393517245454
20
130.12132034355957
30
8.459899447643692e-15
11
870.0161075923389
21
129.49999999999991
31
8.459899447643692e-15
 62
256
 0
LINE
 8
Layer0_S_
10
870.0161075923389
20
129.49999999999991
30
8.459899447643692e-15
11
870.315808859853
21
128.7764571353075
31
8.459899447643692e-15
 62
256
 0
LINE
 8
Layer0_S_
10
870.315808859853
20
128.7764571353075
30
8.459899447643692e-15
11
870.4180313809857
21
127.99999999999994
31
8.459899447643692e-15
 62
256
 0
LINE
 8
Layer0_S_
10
870.4180313809857
20
127.99999999999994
30
8.459899447643692e-15
11
870.315808859853
21
127.22354286469236
31
8.459899447643692e-15
 62
256
 0
LINE
 8
Layer0_S_
10
1008.4180313809857
20
45.00000000000001
30
0.0
11
984.4180313809857
21
45.00000000000001
31
0.0
 62
256
 0
LINE
 8
Layer0_S_
10
1008.4180313809857
20
42.00000000000001
30
0.0
11
984.4180313809857
21
42.00000000000001
31
0.0
 62
256
 0
LINE
 8
Layer0_S_
10
984.4180313809857
20
45.00000000000001
30
0.0
11
984.029802813332
21
44.948888739433606
31
0.0
 62
256
 0
LINE
 8
Layer0_S_
10
984.029802813332
20
44.948888739433606
30
0.0
11
983.6680313809857
21
44.799038105676665
31
0.0
 62
256
 0
LINE
 8
Layer0_S_
10
983.6680313809857
20
44.799038105676665
30
0.0
11
983.3573712092059
21
44.56066017177983
31
0.0
 62
256
 0
LINE
 8
Layer0_S_
10
983.3573712092059
20
44.56066017177983
30
0.0
11
983.1189932753091
21
44.25000000000001
31
0.0
 62
256
 0
LINE
 8
Layer0_S_
10
983.1189932753091
20
44.25000000000001
30
0.0
11
982.9691426415523
21
43.88822856765379
31
0.0
 62
256
 0
LINE
 8
Layer0_S_
10
982.9691426415523
20
43.88822856765379
30
0.0
11
982.9180313809857
21
43.50000000000001
31
0.0
 62
256
 0
LINE
 8
Layer0_S_
10
982.9180313809857
20
43.50000000000001
30
0.0
11
982.9691426415523
21
43.11177143234623
31
0.0
 62
256
 0
LINE
 8
Layer0_S_
10
982.9691426415523
20
43.11177143234623
30
0.0
11
983.1189932753091
21
42.750000000000014
31
0.0
 62
256
 0
LINE
 8
Layer0_S_
10
983.1189932753091
20
42.750000000000014
30
0.0
11
983.3573712092059
21
42.43933982822019
31
0.0
 62
256
 0
LINE
 8
Layer0_S_
10
983.3573712092059
20
42.43933982822019
30
0.0
11
983.6680313809857
21
42.200961894323356
31
0.0
 62
256
 0
LINE
 8
Layer0_S_
10
983.6680313809857
20
42.200961894323356
30
0.0
11
984.029802813332
21
42.051111260566415
31
0.0
 62
256
 0
LINE
 8
Layer0_S_
10
984.029802813332
20
42.051111260566415
30
0.0
11
984.4180313809857
21
42.00000000000001
31
0.0
 62
256
 0
LINE
 8
Layer0_S_
10
1008.4180313809857
20
45.00000000000001
30
0.0
11
1008.8062599486395
21
44.948888739433606
31
0.0
 62
256
 0
LINE
 8
Layer0_S_
10
1008.8062599486395
20
44.948888739433606
30
0.0
11
1009.1680313809857
21
44.799038105676665
31
0.0
 62
256
 0
LINE
 8
Layer0_S_
10
1009.1680313809857
20
44.799038105676665
30
0.0
11
1009.4786915527654
21
44.56066017177983
31
0.0
 62
256
 0
LINE
 8
Layer0_S_
10
1009.4786915527654
20
44.56066017177983
30
0.0
11
1009.7170694866625
21
44.25000000000001
31
0.0
 62
256
 0
LINE
 8
Layer0_S_
10
1009.7170694866625
20
44.25000000000001
30
0.0
11
1009.8669201204194
21
43.88822856765379
31
0.0
 62
256
 0
LINE
 8
Layer0_S_
10
1009.8669201204194
20
43.88822856765379
30
0.0
11
1009.9180313809857
21
43.50000000000001
31
0.0
 62
256
 0
LINE
 8
Layer0_S_
10
1009.9180313809857
20
43.50000000000001
30
0.0
11
1009.8669201204194
21
43.11177143234623
31
0.0
 62
256
 0
LINE
 8
Layer0_S_
10
1009.8669201204194
20
43.11177143234623
30
0.0
11
1009.7170694866625
21
42.750000000000014
31
0.0
 62
256
 0
LINE
 8
Layer0_S_
10
1009.7170694866625
20
42.750000000000014
30
0.0
11
1009.4786915527654
21
42.43933982822019
31
0.0
 62
256
 0
LINE
 8
Layer0_S_
10
1009.4786915527654
20
42.43933982822019
30
0.0
11
1009.1680313809857
21
42.200961894323356
31
0.0
 62
256
 0
LINE
 8
Layer0_S_
10
1009.1680313809857
20
42.200961894323356
30
0.0
11
1008.8062599486395
21
42.051111260566415
31
0.0
 62
256
 0
LINE
 8
Layer0_S_
10
1008.8062599486395
20
42.051111260566415
30
0.0
11
1008.4180313809857
21
42.00000000000001
31
0.0
 62
256
 0
LINE
 8
Layer0_S_
10
1008.4180313809857
20
25.000000000000004
30
0.0
11
984.4180313809857
21
25.000000000000004
31
0.0
 62
256
 0
LINE
 8
Layer0_S_
10
1008.4180313809857
20
22.000000000000004
30
0.0
11
984.4180313809857
21
22.000000000000004
31
0.0
 62
256
 0
LINE
 8
Layer0_S_
10
1008.4180313809857
20
25.000000000000004
30
0.0
11
1008.8062599486395
21
24.948888739433606
31
0.0
 62
256
 0
LINE
 8
Layer0_S_
10
1008.8062599486395
20
24.948888739433606
30
0.0
11
1009.1680313809857
21
24.79903810567666
31
0.0
 62
256
 0
LINE
 8
Layer0_S_
10
1009.1680313809857
20
24.79903810567666
30
0.0
11
1009.4786915527654
21
24.560660171779826
31
0.0
 62
256
 0
LINE
 8
Layer0_S_
10
1009.4786915527654
20
24.560660171779826
30
0.0
11
1009.7170694866625
21
24.250000000000004
31
0.0
 62
256
 0
LINE
 8
Layer0_S_
10
1009.7170694866625
20
24.250000000000004
30
0.0
11
1009.8669201204194
21
23.888228567653787
31
0.0
 62
256
 0
LINE
 8
Layer0_S_
10
1009.8669201204194
20
23.888228567653787
30
0.0
11
1009.9180313809857
21
23.500000000000004
31
0.0
 62
256
 0
LINE
 8
Layer0_S_
10
1009.9180313809857
20
23.500000000000004
30
0.0
11
1009.8669201204194
21
23.111771432346224
31
0.0
 62
256
 0
LINE
 8
Layer0_S_
10
1009.8669201204194
20
23.111771432346224
30
0.0
11
1009.7170694866625
21
22.750000000000007
31
0.0
 62
256
 0
LINE
 8
Layer0_S_
10
1009.7170694866625
20
22.750000000000007
30
0.0
11
1009.4786915527654
21
22.439339828220184
31
0.0
 62
256
 0
LINE
 8
Layer0_S_
10
1009.4786915527654
20
22.439339828220184
30
0.0
11
1009.1680313809857
21
22.20096189432335
31
0.0
 62
256
 0
LINE
 8
Layer0_S_
10
1009.1680313809857
20
22.20096189432335
30
0.0
11
1008.8062599486395
21
22.051111260566405
31
0.0
 62
256
 0
LINE
 8
Layer0_S_
10
1008.8062599486395
20
22.051111260566405
30
0.0
11
1008.4180313809857
21
22.000000000000004
31
0.0
 62
256
 0
LINE
 8
Layer0_S_
10
984.4180313809857
20
25.000000000000004
30
0.0
11
984.029802813332
21
24.948888739433606
31
0.0
 62
256
 0
LINE
 8
Layer0_S_
10
984.029802813332
20
24.948888739433606
30
0.0
11
983.6680313809857
21
24.79903810567666
31
0.0
 62
256
 0
LINE
 8
Layer0_S_
10
983.6680313809857
20
24.79903810567666
30
0.0
11
983.3573712092059
21
24.560660171779826
31
0.0
 62
256
 0
LINE
 8
Layer0_S_
10
983.3573712092059
20
24.560660171779826
30
0.0
11
983.1189932753091
21
24.250000000000004
31
0.0
 62
256
 0
LINE
 8
Layer0_S_
10
983.1189932753091
20
24.250000000000004
30
0.0
11
982.969142641552
21
23.888228567653787
31
0.0
 62
256
 0
LINE
 8
Layer0_S_
10
982.969142641552
20
23.888228567653787
30
0.0
11
982.9180313809857
21
23.500000000000004
31
0.0
 62
256
 0
LINE
 8
Layer0_S_
10
982.9180313809857
20
23.500000000000004
30
0.0
11
982.969142641552
21
23.111771432346224
31
0.0
 62
256
 0
LINE
 8
Layer0_S_
10
982.969142641552
20
23.111771432346224
30
0.0
11
983.1189932753091
21
22.750000000000007
31
0.0
 62
256
 0
LINE
 8
Layer0_S_
10
983.1189932753091
20
22.750000000000007
30
0.0
11
983.3573712092059
21
22.439339828220184
31
0.0
 62
256
 0
LINE
 8
Layer0_S_
10
983.3573712092059
20
22.439339828220184
30
0.0
11
983.6680313809857
21
22.20096189432335
31
0.0
 62
256
 0
LINE
 8
Layer0_S_
10
983.6680313809857
20
22.20096189432335
30
0.0
11
984.029802813332
21
22.051111260566405
31
0.0
 62
256
 0
LINE
 8
Layer0_S_
10
984.029802813332
20
22.051111260566405
30
0.0
11
984.4180313809857
21
22.000000000000004
31
0.0
 62
256
 0
LINE
 8
Layer0_S_
10
986.4180313809857
20
69.99999999999999
30
8.459899447643692e-15
11
986.9291439866496
21
66.11771432346218
31
8.459899447643692e-15
 62
256
 0
LINE
 8
Layer0_S_
10
986.9291439866496
20
66.11771432346218
30
8.459899447643692e-15
11
988.4276503242191
21
62.499999999999986
31
8.459899447643692e-15
 62
256
 0
LINE
 8
Layer0_S_
10
988.4276503242191
20
62.499999999999986
30
8.459899447643692e-15
11
990.8114296631875
21
59.39339828220178
31
8.459899447643692e-15
 62
256
 0
LINE
 8
Layer0_S_
10
990.8114296631875
20
59.39339828220178
30
8.459899447643692e-15
11
993.9180313809858
21
57.00961894323341
31
8.459899447643692e-15
 62
256
 0
LINE
 8
Layer0_S_
10
993.9180313809858
20
57.00961894323341
30
8.459899447643692e-15
11
997.5357457044478
21
55.51111260566396
31
8.459899447643692e-15
 62
256
 0
LINE
 8
Layer0_S_
10
997.5357457044478
20
55.51111260566396
30
8.459899447643692e-15
11
1001.4180313809857
21
54.99999999999999
31
8.459899447643692e-15
 62
256
 0
LINE
 8
Layer0_S_
10
1001.4180313809857
20
54.99999999999999
30
8.459899447643692e-15
11
1005.3003170575234
21
55.51111260566396
31
8.459899447643692e-15
 62
256
 0
LINE
 8
Layer0_S_
10
1005.3003170575234
20
55.51111260566396
30
8.459899447643692e-15
11
1008.9180313809858
21
57.009618943233406
31
8.459899447643692e-15
 62
256
 0
LINE
 8
Layer0_S_
10
1008.9180313809858
20
57.009618943233406
30
8.459899447643692e-15
11
1012.0246330987839
21
59.393398282201765
31
8.459899447643692e-15
 62
256
 0
LINE
 8
Layer0_S_
10
1012.0246330987839
20
59.393398282201765
30
8.459899447643692e-15
11
1014.4084124377524
21
62.49999999999998
31
8.459899447643692e-15
 62
256
 0
LINE
 8
Layer0_S_
10
1014.4084124377524
20
62.49999999999998
30
8.459899447643692e-15
11
1015.9069187753216
21
66.11771432346218
31
8.459899447643692e-15
 62
256
 0
LINE
 8
Layer0_S_
10
1015.9069187753216
20
66.11771432346218
30
8.459899447643692e-15
11
1016.4180313809857
21
69.99999999999999
31
8.459899447643692e-15
 62
256
 0
LINE
 8
Layer0_S_
10
1016.4180313809857
20
69.99999999999999
30
8.459899447643692e-15
11
1015.9069187753216
21
73.88228567653779
31
8.459899447643692e-15
 62
256
 0
LINE
 8
Layer0_S_
10
1015.9069187753216
20
73.88228567653779
30
8.459899447643692e-15
11
1014.4084124377524
21
77.49999999999997
31
8.459899447643692e-15
 62
256
 0
LINE
 8
Layer0_S_
10
1014.4084124377524
20
77.49999999999997
30
8.459899447643692e-15
11
1012.0246330987839
21
80.60660171779818
31
8.459899447643692e-15
 62
256
 0
LINE
 8
Layer0_S_
10
1012.0246330987839
20
80.60660171779818
30
8.459899447643692e-15
11
1008.9180313809858
21
82.99038105676655
31
8.459899447643692e-15
 62
256
 0
LINE
 8
Layer0_S_
10
1008.9180313809858
20
82.99038105676655
30
8.459899447643692e-15
11
1005.3003170575234
21
84.488887394336
31
8.459899447643692e-15
 62
256
 0
LINE
 8
Layer0_S_
10
1005.3003170575234
20
84.488887394336
30
8.459899447643692e-15
11
1001.4180313809857
21
84.99999999999999
31
8.459899447643692e-15
 62
256
 0
LINE
 8
Layer0_S_
10
1001.4180313809857
20
84.99999999999999
30
8.459899447643692e-15
11
997.535745704448
21
84.488887394336
31
8.459899447643692e-15
 62
256
 0
LINE
 8
Layer0_S_
10
997.535745704448
20
84.488887394336
30
8.459899447643692e-15
11
993.9180313809858
21
82.99038105676657
31
8.459899447643692e-15
 62
256
 0
LINE
 8
Layer0_S_
10
993.9180313809858
20
82.99038105676657
30
8.459899447643692e-15
11
990.8114296631875
21
80.6066017177982
31
8.459899447643692e-15
 62
256
 0
LINE
 8
Layer0_S_
10
990.8114296631875
20
80.6066017177982
30
8.459899447643692e-15
11
988.4276503242191
21
77.5
31
8.459899447643692e-15
 62
256
 0
LINE
 8
Layer0_S_
10
988.4276503242191
20
77.5
30
8.459899447643692e-15
11
986.9291439866496
21
73.88228567653782
31
8.459899447643692e-15
 62
256
 0
LINE
 8
Layer0_S_
10
986.9291439866496
20
73.88228567653782
30
8.459899447643692e-15
11
986.4180313809857
21
69.99999999999999
31
8.459899447643692e-15
 62
256
 0
LINE
 8
Layer0_S_
10
986.4548585826212
20
84.96317279836451
30
8.459899447643692e-15
11
986.2721021666335
21
84.72499999999998
31
8.459899447643692e-15
 62
256
 0
LINE
 8
Layer0_S_
10
986.2721021666335
20
84.72499999999998
30
8.459899447643692e-15
11
986.1572166807532
21
84.44764190186788
31
8.459899447643692e-15
 62
256
 0
LINE
 8
Layer0_S_
10
986.1572166807532
20
84.44764190186788
30
8.459899447643692e-15
11
986.1180313809857
21
84.14999999999998
31
8.459899447643692e-15
 62
256
 0
LINE
 8
Layer0_S_
10
986.1180313809857
20
84.14999999999998
30
8.459899447643692e-15
11
986.1572166807532
21
83.85235809813207
31
8.459899447643692e-15
 62
256
 0
LINE
 8
Layer0_S_
10
986.1572166807532
20
83.85235809813207
30
8.459899447643692e-15
11
986.2721021666335
21
83.57499999999999
31
8.459899447643692e-15
 62
256
 0
LINE
 8
Layer0_S_
10
986.2721021666335
20
83.57499999999999
30
8.459899447643692e-15
11
986.4548585826212
21
83.33682720163546
31
8.459899447643692e-15
 62
256
 0
LINE
 8
Layer0_S_
10
986.4548585826212
20
83.33682720163546
30
8.459899447643692e-15
11
986.6930313809858
21
83.15407078564787
31
8.459899447643692e-15
 62
256
 0
LINE
 8
Layer0_S_
10
986.6930313809858
20
83.15407078564787
30
8.459899447643692e-15
11
986.9703894791178
21
83.03918529976755
31
8.459899447643692e-15
 62
256
 0
LINE
 8
Layer0_S_
10
986.9703894791178
20
83.03918529976755
30
8.459899447643692e-15
11
987.2680313809858
21
82.99999999999999
31
8.459899447643692e-15
 62
256
 0
LINE
 8
Layer0_S_
10
987.2680313809858
20
82.99999999999999
30
8.459899447643692e-15
11
987.5656732828536
21
83.03918529976755
31
8.459899447643692e-15
 62
256
 0
LINE
 8
Layer0_S_
10
987.5656732828536
20
83.03918529976755
30
8.459899447643692e-15
11
987.8430313809856
21
83.15407078564787
31
8.459899447643692e-15
 62
256
 0
LINE
 8
Layer0_S_
10
987.8430313809856
20
83.15407078564787
30
8.459899447643692e-15
11
988.0812041793502
21
83.33682720163546
31
8.459899447643692e-15
 62
256
 0
LINE
 8
Layer0_S_
10
988.0812041793502
20
83.33682720163546
30
8.459899447643692e-15
11
988.2639605953378
21
83.57499999999999
31
8.459899447643692e-15
 62
256
 0
LINE
 8
Layer0_S_
10
988.2639605953378
20
83.57499999999999
30
8.459899447643692e-15
11
988.3788460812182
21
83.85235809813207
31
8.459899447643692e-15
 62
256
 0
LINE
 8
Layer0_S_
10
988.3788460812182
20
83.85235809813207
30
8.459899447643692e-15
11
988.4180313809857
21
84.14999999999998
31
8.459899447643692e-15
 62
256
 0
LINE
 8
Layer0_S_
10
988.4180313809857
20
84.14999999999998
30
8.459899447643692e-15
11
988.3788460812182
21
84.44764190186788
31
8.459899447643692e-15
 62
256
 0
LINE
 8
Layer0_S_
10
988.3788460812182
20
84.44764190186788
30
8.459899447643692e-15
11
988.2639605953378
21
84.72499999999998
31
8.459899447643692e-15
 62
256
 0
LINE
 8
Layer0_S_
10
988.2639605953378
20
84.72499999999998
30
8.459899447643692e-15
11
988.0812041793502
21
84.96317279836451
31
8.459899447643692e-15
 62
256
 0
LINE
 8
Layer0_S_
10
988.0812041793502
20
84.96317279836451
30
8.459899447643692e-15
11
987.8430313809856
21
85.1459292143521
31
8.459899447643692e-15
 62
256
 0
LINE
 8
Layer0_S_
10
987.8430313809856
20
85.1459292143521
30
8.459899447643692e-15
11
987.5656732828536
21
85.26081470023242
31
8.459899447643692e-15
 62
256
 0
LINE
 8
Layer0_S_
10
987.5656732828536
20
85.26081470023242
30
8.459899447643692e-15
11
987.2680313809858
21
85.29999999999998
31
8.459899447643692e-15
 62
256
 0
LINE
 8
Layer0_S_
10
987.2680313809858
20
85.29999999999998
30
8.459899447643692e-15
11
986.9703894791178
21
85.26081470023242
31
8.459899447643692e-15
 62
256
 0
LINE
 8
Layer0_S_
10
986.9703894791178
20
85.26081470023242
30
8.459899447643692e-15
11
986.6930313809858
21
85.1459292143521
31
8.459899447643692e-15
 62
256
 0
LINE
 8
Layer0_S_
10
986.6930313809858
20
85.1459292143521
30
8.459899447643692e-15
11
986.4548585826212
21
84.96317279836451
31
8.459899447643692e-15
 62
256
 0
LINE
 8
Layer0_S_
10
986.4548585826212
20
55.03682720163546
30
8.459899447643692e-15
11
986.6930313809858
21
54.85407078564788
31
8.459899447643692e-15
 62
256
 0
LINE
 8
Layer0_S_
10
986.6930313809858
20
54.85407078564788
30
8.459899447643692e-15
11
986.9703894791178
21
54.739185299767556
31
8.459899447643692e-15
 62
256
 0
LINE
 8
Layer0_S_
10
986.9703894791178
20
54.739185299767556
30
8.459899447643692e-15
11
987.2680313809858
21
54.69999999999999
31
8.459899447643692e-15
 62
256
 0
LINE
 8
Layer0_S_
10
987.2680313809858
20
54.69999999999999
30
8.459899447643692e-15
11
987.5656732828536
21
54.739185299767556
31
8.459899447643692e-15
 62
256
 0
LINE
 8
Layer0_S_
10
987.5656732828536
20
54.739185299767556
30
8.459899447643692e-15
11
987.8430313809856
21
54.85407078564788
31
8.459899447643692e-15
 62
256
 0
LINE
 8
Layer0_S_
10
987.8430313809856
20
54.85407078564788
30
8.459899447643692e-15
11
988.0812041793502
21
55.03682720163546
31
8.459899447643692e-15
 62
256
 0
LINE
 8
Layer0_S_
10
988.0812041793502
20
55.03682720163546
30
8.459899447643692e-15
11
988.2639605953378
21
55.27499999999999
31
8.459899447643692e-15
 62
256
 0
LINE
 8
Layer0_S_
10
988.2639605953378
20
55.27499999999999
30
8.459899447643692e-15
11
988.3788460812182
21
55.55235809813208
31
8.459899447643692e-15
 62
256
 0
LINE
 8
Layer0_S_
10
988.3788460812182
20
55.55235809813208
30
8.459899447643692e-15
11
988.4180313809857
21
55.84999999999999
31
8.459899447643692e-15
 62
256
 0
LINE
 8
Layer0_S_
10
988.4180313809857
20
55.84999999999999
30
8.459899447643692e-15
11
988.3788460812182
21
56.14764190186789
31
8.459899447643692e-15
 62
256
 0
LINE
 8
Layer0_S_
10
988.3788460812182
20
56.14764190186789
30
8.459899447643692e-15
11
988.2639605953378
21
56.42499999999998
31
8.459899447643692e-15
 62
256
 0
LINE
 8
Layer0_S_
10
988.2639605953378
20
56.42499999999998
30
8.459899447643692e-15
11
988.0812041793502
21
56.66317279836452
31
8.459899447643692e-15
 62
256
 0
LINE
 8
Layer0_S_
10
988.0812041793502
20
56.66317279836452
30
8.459899447643692e-15
11
987.8430313809856
21
56.8459292143521
31
8.459899447643692e-15
 62
256
 0
LINE
 8
Layer0_S_
10
987.8430313809856
20
56.8459292143521
30
8.459899447643692e-15
11
987.5656732828536
21
56.96081470023242
31
8.459899447643692e-15
 62
256
 0
LINE
 8
Layer0_S_
10
987.5656732828536
20
56.96081470023242
30
8.459899447643692e-15
11
987.2680313809858
21
56.999999999999986
31
8.459899447643692e-15
 62
256
 0
LINE
 8
Layer0_S_
10
987.2680313809858
20
56.999999999999986
30
8.459899447643692e-15
11
986.9703894791178
21
56.96081470023242
31
8.459899447643692e-15
 62
256
 0
LINE
 8
Layer0_S_
10
986.9703894791178
20
56.96081470023242
30
8.459899447643692e-15
11
986.6930313809858
21
56.8459292143521
31
8.459899447643692e-15
 62
256
 0
LINE
 8
Layer0_S_
10
986.6930313809858
20
56.8459292143521
30
8.459899447643692e-15
11
986.4548585826212
21
56.66317279836452
31
8.459899447643692e-15
 62
256
 0
LINE
 8
Layer0_S_
10
986.4548585826212
20
56.66317279836452
30
8.459899447643692e-15
11
986.2721021666335
21
56.42499999999998
31
8.459899447643692e-15
 62
256
 0
LINE
 8
Layer0_S_
10
986.2721021666335
20
56.42499999999998
30
8.459899447643692e-15
11
986.1572166807532
21
56.14764190186789
31
8.459899447643692e-15
 62
256
 0
LINE
 8
Layer0_S_
10
986.1572166807532
20
56.14764190186789
30
8.459899447643692e-15
11
986.1180313809857
21
55.84999999999999
31
8.459899447643692e-15
 62
256
 0
LINE
 8
Layer0_S_
10
986.1180313809857
20
55.84999999999999
30
8.459899447643692e-15
11
986.1572166807532
21
55.55235809813208
31
8.459899447643692e-15
 62
256
 0
LINE
 8
Layer0_S_
10
986.1572166807532
20
55.55235809813208
30
8.459899447643692e-15
11
986.2721021666335
21
55.27499999999999
31
8.459899447643692e-15
 62
256
 0
LINE
 8
Layer0_S_
10
986.2721021666335
20
55.27499999999999
30
8.459899447643692e-15
11
986.4548585826212
21
55.03682720163546
31
8.459899447643692e-15
 62
256
 0
LINE
 8
Layer0_S_
10
1014.4180313809858
20
55.84999999999999
30
8.459899447643692e-15
11
1014.4572166807533
21
55.55235809813208
31
8.459899447643692e-15
 62
256
 0
LINE
 8
Layer0_S_
10
1014.4572166807533
20
55.55235809813208
30
8.459899447643692e-15
11
1014.5721021666336
21
55.27499999999999
31
8.459899447643692e-15
 62
256
 0
LINE
 8
Layer0_S_
10
1014.5721021666336
20
55.27499999999999
30
8.459899447643692e-15
11
1014.7548585826211
21
55.03682720163546
31
8.459899447643692e-15
 62
256
 0
LINE
 8
Layer0_S_
10
1014.7548585826211
20
55.03682720163546
30
8.459899447643692e-15
11
1014.9930313809856
21
54.85407078564788
31
8.459899447643692e-15
 62
256
 0
LINE
 8
Layer0_S_
10
1014.9930313809856
20
54.85407078564788
30
8.459899447643692e-15
11
1015.2703894791177
21
54.73918529976757
31
8.459899447643692e-15
 62
256
 0
LINE
 8
Layer0_S_
10
1015.2703894791177
20
54.73918529976757
30
8.459899447643692e-15
11
1015.5680313809856
21
54.69999999999999
31
8.459899447643692e-15
 62
256
 0
LINE
 8
Layer0_S_
10
1015.5680313809856
20
54.69999999999999
30
8.459899447643692e-15
11
1015.8656732828537
21
54.73918529976757
31
8.459899447643692e-15
 62
256
 0
LINE
 8
Layer0_S_
10
1015.8656732828537
20
54.73918529976757
30
8.459899447643692e-15
11
1016.1430313809857
21
54.85407078564788
31
8.459899447643692e-15
 62
256
 0
LINE
 8
Layer0_S_
10
1016.1430313809857
20
54.85407078564788
30
8.459899447643692e-15
11
1016.3812041793502
21
55.03682720163546
31
8.459899447643692e-15
 62
256
 0
LINE
 8
Layer0_S_
10
1016.3812041793502
20
55.03682720163546
30
8.459899447643692e-15
11
1016.5639605953379
21
55.27499999999999
31
8.459899447643692e-15
 62
256
 0
LINE
 8
Layer0_S_
10
1016.5639605953379
20
55.27499999999999
30
8.459899447643692e-15
11
1016.6788460812182
21
55.55235809813208
31
8.459899447643692e-15
 62
256
 0
LINE
 8
Layer0_S_
10
1016.6788460812182
20
55.55235809813208
30
8.459899447643692e-15
11
1016.7180313809857
21
55.84999999999999
31
8.459899447643692e-15
 62
256
 0
LINE
 8
Layer0_S_
10
1016.7180313809857
20
55.84999999999999
30
8.459899447643692e-15
11
1016.6788460812182
21
56.14764190186789
31
8.459899447643692e-15
 62
256
 0
LINE
 8
Layer0_S_
10
1016.6788460812182
20
56.14764190186789
30
8.459899447643692e-15
11
1016.5639605953379
21
56.42499999999998
31
8.459899447643692e-15
 62
256
 0
LINE
 8
Layer0_S_
10
1016.5639605953379
20
56.42499999999998
30
8.459899447643692e-15
11
1016.3812041793502
21
56.66317279836452
31
8.459899447643692e-15
 62
256
 0
LINE
 8
Layer0_S_
10
1016.3812041793502
20
56.66317279836452
30
8.459899447643692e-15
11
1016.1430313809857
21
56.8459292143521
31
8.459899447643692e-15
 62
256
 0
LINE
 8
Layer0_S_
10
1016.1430313809857
20
56.8459292143521
30
8.459899447643692e-15
11
1015.8656732828537
21
56.96081470023241
31
8.459899447643692e-15
 62
256
 0
LINE
 8
Layer0_S_
10
1015.8656732828537
20
56.96081470023241
30
8.459899447643692e-15
11
1015.5680313809856
21
56.999999999999986
31
8.459899447643692e-15
 62
256
 0
LINE
 8
Layer0_S_
10
1015.5680313809856
20
56.999999999999986
30
8.459899447643692e-15
11
1015.2703894791177
21
56.96081470023241
31
8.459899447643692e-15
 62
256
 0
LINE
 8
Layer0_S_
10
1015.2703894791177
20
56.96081470023241
30
8.459899447643692e-15
11
1014.9930313809856
21
56.8459292143521
31
8.459899447643692e-15
 62
256
 0
LINE
 8
Layer0_S_
10
1014.9930313809856
20
56.8459292143521
30
8.459899447643692e-15
11
1014.7548585826211
21
56.66317279836452
31
8.459899447643692e-15
 62
256
 0
LINE
 8
Layer0_S_
10
1014.7548585826211
20
56.66317279836452
30
8.459899447643692e-15
11
1014.5721021666336
21
56.42499999999998
31
8.459899447643692e-15
 62
256
 0
LINE
 8
Layer0_S_
10
1014.5721021666336
20
56.42499999999998
30
8.459899447643692e-15
11
1014.4572166807533
21
56.14764190186789
31
8.459899447643692e-15
 62
256
 0
LINE
 8
Layer0_S_
10
1014.4572166807533
20
56.14764190186789
30
8.459899447643692e-15
11
1014.4180313809858
21
55.84999999999999
31
8.459899447643692e-15
 62
256
 0
LINE
 8
Layer0_S_
10
1014.9930313809856
20
83.15407078564787
30
8.459899447643692e-15
11
1015.2703894791179
21
83.03918529976755
31
8.459899447643692e-15
 62
256
 0
LINE
 8
Layer0_S_
10
1015.2703894791179
20
83.03918529976755
30
8.459899447643692e-15
11
1015.5680313809856
21
82.99999999999999
31
8.459899447643692e-15
 62
256
 0
LINE
 8
Layer0_S_
10
1015.5680313809856
20
82.99999999999999
30
8.459899447643692e-15
11
1015.8656732828537
21
83.03918529976755
31
8.459899447643692e-15
 62
256
 0
LINE
 8
Layer0_S_
10
1015.8656732828537
20
83.03918529976755
30
8.459899447643692e-15
11
1016.1430313809857
21
83.15407078564787
31
8.459899447643692e-15
 62
256
 0
LINE
 8
Layer0_S_
10
1016.1430313809857
20
83.15407078564787
30
8.459899447643692e-15
11
1016.3812041793502
21
83.33682720163546
31
8.459899447643692e-15
 62
256
 0
LINE
 8
Layer0_S_
10
1016.3812041793502
20
83.33682720163546
30
8.459899447643692e-15
11
1016.5639605953379
21
83.57499999999999
31
8.459899447643692e-15
 62
256
 0
LINE
 8
Layer0_S_
10
1016.5639605953379
20
83.57499999999999
30
8.459899447643692e-15
11
1016.6788460812182
21
83.85235809813207
31
8.459899447643692e-15
 62
256
 0
LINE
 8
Layer0_S_
10
1016.6788460812182
20
83.85235809813207
30
8.459899447643692e-15
11
1016.7180313809857
21
84.14999999999998
31
8.459899447643692e-15
 62
256
 0
LINE
 8
Layer0_S_
10
1016.7180313809857
20
84.14999999999998
30
8.459899447643692e-15
11
1016.6788460812182
21
84.44764190186788
31
8.459899447643692e-15
 62
256
 0
LINE
 8
Layer0_S_
10
1016.6788460812182
20
84.44764190186788
30
8.459899447643692e-15
11
1016.5639605953379
21
84.72499999999998
31
8.459899447643692e-15
 62
256
 0
LINE
 8
Layer0_S_
10
1016.5639605953379
20
84.72499999999998
30
8.459899447643692e-15
11
1016.3812041793502
21
84.96317279836451
31
8.459899447643692e-15
 62
256
 0
LINE
 8
Layer0_S_
10
1016.3812041793502
20
84.96317279836451
30
8.459899447643692e-15
11
1016.1430313809857
21
85.1459292143521
31
8.459899447643692e-15
 62
256
 0
LINE
 8
Layer0_S_
10
1016.1430313809857
20
85.1459292143521
30
8.459899447643692e-15
11
1015.8656732828537
21
85.26081470023242
31
8.459899447643692e-15
 62
256
 0
LINE
 8
Layer0_S_
10
1015.8656732828537
20
85.26081470023242
30
8.459899447643692e-15
11
1015.5680313809856
21
85.29999999999998
31
8.459899447643692e-15
 62
256
 0
LINE
 8
Layer0_S_
10
1015.5680313809856
20
85.29999999999998
30
8.459899447643692e-15
11
1015.2703894791177
21
85.26081470023242
31
8.459899447643692e-15
 62
256
 0
LINE
 8
Layer0_S_
10
1015.2703894791177
20
85.26081470023242
30
8.459899447643692e-15
11
1014.9930313809856
21
85.1459292143521
31
8.459899447643692e-15
 62
256
 0
LINE
 8
Layer0_S_
10
1014.9930313809856
20
85.1459292143521
30
8.459899447643692e-15
11
1014.7548585826211
21
84.96317279836451
31
8.459899447643692e-15
 62
256
 0
LINE
 8
Layer0_S_
10
1014.7548585826211
20
84.96317279836451
30
8.459899447643692e-15
11
1014.5721021666336
21
84.72499999999998
31
8.459899447643692e-15
 62
256
 0
LINE
 8
Layer0_S_
10
1014.5721021666336
20
84.72499999999998
30
8.459899447643692e-15
11
1014.4572166807533
21
84.44764190186788
31
8.459899447643692e-15
 62
256
 0
LINE
 8
Layer0_S_
10
1014.4572166807533
20
84.44764190186788
30
8.459899447643692e-15
11
1014.4180313809858
21
84.14999999999998
31
8.459899447643692e-15
 62
256
 0
LINE
 8
Layer0_S_
10
1014.4180313809858
20
84.14999999999998
30
8.459899447643692e-15
11
1014.4572166807533
21
83.85235809813207
31
8.459899447643692e-15
 62
256
 0
LINE
 8
Layer0_S_
10
1014.4572166807533
20
83.85235809813207
30
8.459899447643692e-15
11
1014.5721021666336
21
83.57499999999999
31
8.459899447643692e-15
 62
256
 0
LINE
 8
Layer0_S_
10
1014.5721021666336
20
83.57499999999999
30
8.459899447643692e-15
11
1014.7548585826211
21
83.33682720163546
31
8.459899447643692e-15
 62
256
 0
LINE
 8
Layer0_S_
10
1014.7548585826211
20
83.33682720163546
30
8.459899447643692e-15
11
1014.9930313809856
21
83.15407078564787
31
8.459899447643692e-15
 62
256
 0
LINE
 8
Layer0_S_
10
879.6930313809858
20
54.85407078564789
30
8.459899447643692e-15
11
879.9703894791178
21
54.73918529976757
31
8.459899447643692e-15
 62
256
 0
LINE
 8
Layer0_S_
10
879.9703894791178
20
54.73918529976757
30
8.459899447643692e-15
11
880.2680313809858
21
54.69999999999999
31
8.459899447643692e-15
 62
256
 0
LINE
 8
Layer0_S_
10
880.2680313809858
20
54.69999999999999
30
8.459899447643692e-15
11
880.5656732828536
21
54.739185299767556
31
8.459899447643692e-15
 62
256
 0
LINE
 8
Layer0_S_
10
880.5656732828536
20
54.739185299767556
30
8.459899447643692e-15
11
880.8430313809858
21
54.85407078564788
31
8.459899447643692e-15
 62
256
 0
LINE
 8
Layer0_S_
10
880.8430313809858
20
54.85407078564788
30
8.459899447643692e-15
11
881.0812041793504
21
55.03682720163546
31
8.459899447643692e-15
 62
256
 0
LINE
 8
Layer0_S_
10
881.0812041793504
20
55.03682720163546
30
8.459899447643692e-15
11
881.2639605953378
21
55.27499999999999
31
8.459899447643692e-15
 62
256
 0
LINE
 8
Layer0_S_
10
881.2639605953378
20
55.27499999999999
30
8.459899447643692e-15
11
881.3788460812182
21
55.552358098132096
31
8.459899447643692e-15
 62
256
 0
LINE
 8
Layer0_S_
10
881.3788460812182
20
55.552358098132096
30
8.459899447643692e-15
11
881.4180313809857
21
55.85
31
8.459899447643692e-15
 62
256
 0
LINE
 8
Layer0_S_
10
881.4180313809857
20
55.85
30
8.459899447643692e-15
11
881.3788460812182
21
56.14764190186789
31
8.459899447643692e-15
 62
256
 0
LINE
 8
Layer0_S_
10
881.3788460812182
20
56.14764190186789
30
8.459899447643692e-15
11
881.2639605953378
21
56.425000000000004
31
8.459899447643692e-15
 62
256
 0
LINE
 8
Layer0_S_
10
881.2639605953378
20
56.425000000000004
30
8.459899447643692e-15
11
881.0812041793504
21
56.66317279836453
31
8.459899447643692e-15
 62
256
 0
LINE
 8
Layer0_S_
10
881.0812041793504
20
56.66317279836453
30
8.459899447643692e-15
11
880.8430313809858
21
56.845929214352104
31
8.459899447643692e-15
 62
256
 0
LINE
 8
Layer0_S_
10
880.8430313809858
20
56.845929214352104
30
8.459899447643692e-15
11
880.5656732828536
21
56.96081470023243
31
8.459899447643692e-15
 62
256
 0
LINE
 8
Layer0_S_
10
880.5656732828536
20
56.96081470023243
30
8.459899447643692e-15
11
880.2680313809858
21
57.00000000000001
31
8.459899447643692e-15
 62
256
 0
LINE
 8
Layer0_S_
10
880.2680313809858
20
57.00000000000001
30
8.459899447643692e-15
11
879.9703894791178
21
56.96081470023244
31
8.459899447643692e-15
 62
256
 0
LINE
 8
Layer0_S_
10
879.9703894791178
20
56.96081470023244
30
8.459899447643692e-15
11
879.6930313809858
21
56.84592921435212
31
8.459899447643692e-15
 62
256
 0
LINE
 8
Layer0_S_
10
879.6930313809858
20
56.84592921435212
30
8.459899447643692e-15
11
879.4548585826212
21
56.66317279836454
31
8.459899447643692e-15
 62
256
 0
LINE
 8
Layer0_S_
10
879.4548585826212
20
56.66317279836454
30
8.459899447643692e-15
11
879.2721021666335
21
56.425000000000004
31
8.459899447643692e-15
 62
256
 0
LINE
 8
Layer0_S_
10
879.2721021666335
20
56.425000000000004
30
8.459899447643692e-15
11
879.1572166807532
21
56.1476419018679
31
8.459899447643692e-15
 62
256
 0
LINE
 8
Layer0_S_
10
879.1572166807532
20
56.1476419018679
30
8.459899447643692e-15
11
879.1180313809857
21
55.85
31
8.459899447643692e-15
 62
256
 0
LINE
 8
Layer0_S_
10
879.1180313809857
20
55.85
30
8.459899447643692e-15
11
879.1572166807532
21
55.55235809813211
31
8.459899447643692e-15
 62
256
 0
LINE
 8
Layer0_S_
10
879.1572166807532
20
55.55235809813211
30
8.459899447643692e-15
11
879.2721021666335
21
55.27499999999999
31
8.459899447643692e-15
 62
256
 0
LINE
 8
Layer0_S_
10
879.2721021666335
20
55.27499999999999
30
8.459899447643692e-15
11
879.4548585826212
21
55.03682720163547
31
8.459899447643692e-15
 62
256
 0
LINE
 8
Layer0_S_
10
879.4548585826212
20
55.03682720163547
30
8.459899447643692e-15
11
879.6930313809858
21
54.85407078564789
31
8.459899447643692e-15
 62
256
 0
LINE
 8
Layer0_S_
10
907.7548585826213
20
55.03682720163546
30
8.459899447643692e-15
11
907.9930313809858
21
54.85407078564788
31
8.459899447643692e-15
 62
256
 0
LINE
 8
Layer0_S_
10
907.9930313809858
20
54.85407078564788
30
8.459899447643692e-15
11
908.2703894791179
21
54.739185299767556
31
8.459899447643692e-15
 62
256
 0
LINE
 8
Layer0_S_
10
908.2703894791179
20
54.739185299767556
30
8.459899447643692e-15
11
908.5680313809859
21
54.69999999999999
31
8.459899447643692e-15
 62
256
 0
LINE
 8
Layer0_S_
10
908.5680313809859
20
54.69999999999999
30
8.459899447643692e-15
11
908.8656732828537
21
54.73918529976757
31
8.459899447643692e-15
 62
256
 0
LINE
 8
Layer0_S_
10
908.8656732828537
20
54.73918529976757
30
8.459899447643692e-15
11
909.1430313809857
21
54.85407078564789
31
8.459899447643692e-15
 62
256
 0
LINE
 8
Layer0_S_
10
909.1430313809857
20
54.85407078564789
30
8.459899447643692e-15
11
909.3812041793502
21
55.03682720163547
31
8.459899447643692e-15
 62
256
 0
LINE
 8
Layer0_S_
10
909.3812041793502
20
55.03682720163547
30
8.459899447643692e-15
11
909.5639605953379
21
55.27499999999999
31
8.459899447643692e-15
 62
256
 0
LINE
 8
Layer0_S_
10
909.5639605953379
20
55.27499999999999
30
8.459899447643692e-15
11
909.6788460812181
21
55.55235809813211
31
8.459899447643692e-15
 62
256
 0
LINE
 8
Layer0_S_
10
909.6788460812181
20
55.55235809813211
30
8.459899447643692e-15
11
909.7180313809857
21
55.85000000000001
31
8.459899447643692e-15
 62
256
 0
LINE
 8
Layer0_S_
10
909.7180313809857
20
55.85000000000001
30
8.459899447643692e-15
11
909.6788460812181
21
56.147641901867914
31
8.459899447643692e-15
 62
256
 0
LINE
 8
Layer0_S_
10
909.6788460812181
20
56.147641901867914
30
8.459899447643692e-15
11
909.5639605953379
21
56.425000000000004
31
8.459899447643692e-15
 62
256
 0
LINE
 8
Layer0_S_
10
909.5639605953379
20
56.425000000000004
30
8.459899447643692e-15
11
909.3812041793502
21
56.66317279836454
31
8.459899447643692e-15
 62
256
 0
LINE
 8
Layer0_S_
10
909.3812041793502
20
56.66317279836454
30
8.459899447643692e-15
11
909.1430313809857
21
56.84592921435212
31
8.459899447643692e-15
 62
256
 0
LINE
 8
Layer0_S_
10
909.1430313809857
20
56.84592921435212
30
8.459899447643692e-15
11
908.8656732828537
21
56.96081470023244
31
8.459899447643692e-15
 62
256
 0
LINE
 8
Layer0_S_
10
908.8656732828537
20
56.96081470023244
30
8.459899447643692e-15
11
908.5680313809856
21
57.00000000000001
31
8.459899447643692e-15
 62
256
 0
LINE
 8
Layer0_S_
10
908.5680313809856
20
57.00000000000001
30
8.459899447643692e-15
11
908.2703894791179
21
56.96081470023243
31
8.459899447643692e-15
 62
256
 0
LINE
 8
Layer0_S_
10
908.2703894791179
20
56.96081470023243
30
8.459899447643692e-15
11
907.9930313809858
21
56.845929214352104
31
8.459899447643692e-15
 62
256
 0
LINE
 8
Layer0_S_
10
907.9930313809858
20
56.845929214352104
30
8.459899447643692e-15
11
907.7548585826213
21
56.66317279836453
31
8.459899447643692e-15
 62
256
 0
LINE
 8
Layer0_S_
10
907.7548585826213
20
56.66317279836453
30
8.459899447643692e-15
11
907.5721021666336
21
56.425000000000004
31
8.459899447643692e-15
 62
256
 0
LINE
 8
Layer0_S_
10
907.5721021666336
20
56.425000000000004
30
8.459899447643692e-15
11
907.4572166807533
21
56.14764190186789
31
8.459899447643692e-15
 62
256
 0
LINE
 8
Layer0_S_
10
907.4572166807533
20
56.14764190186789
30
8.459899447643692e-15
11
907.4180313809858
21
55.84999999999999
31
8.459899447643692e-15
 62
256
 0
LINE
 8
Layer0_S_
10
907.4180313809858
20
55.84999999999999
30
8.459899447643692e-15
11
907.4572166807533
21
55.55235809813208
31
8.459899447643692e-15
 62
256
 0
LINE
 8
Layer0_S_
10
907.4572166807533
20
55.55235809813208
30
8.459899447643692e-15
11
907.5721021666336
21
55.27499999999999
31
8.459899447643692e-15
 62
256
 0
LINE
 8
Layer0_S_
10
907.5721021666336
20
55.27499999999999
30
8.459899447643692e-15
11
907.7548585826213
21
55.03682720163546
31
8.459899447643692e-15
 62
256
 0
LINE
 8
Layer0_S_
10
907.5721021666336
20
83.57499999999999
30
8.459899447643692e-15
11
907.7548585826213
21
83.33682720163546
31
8.459899447643692e-15
 62
256
 0
LINE
 8
Layer0_S_
10
907.7548585826213
20
83.33682720163546
30
8.459899447643692e-15
11
907.9930313809858
21
83.15407078564787
31
8.459899447643692e-15
 62
256
 0
LINE
 8
Layer0_S_
10
907.9930313809858
20
83.15407078564787
30
8.459899447643692e-15
11
908.2703894791179
21
83.03918529976755
31
8.459899447643692e-15
 62
256
 0
LINE
 8
Layer0_S_
10
908.2703894791179
20
83.03918529976755
30
8.459899447643692e-15
11
908.5680313809856
21
82.99999999999999
31
8.459899447643692e-15
 62
256
 0
LINE
 8
Layer0_S_
10
908.5680313809856
20
82.99999999999999
30
8.459899447643692e-15
11
908.8656732828537
21
83.03918529976755
31
8.459899447643692e-15
 62
256
 0
LINE
 8
Layer0_S_
10
908.8656732828537
20
83.03918529976755
30
8.459899447643692e-15
11
909.1430313809857
21
83.15407078564787
31
8.459899447643692e-15
 62
256
 0
LINE
 8
Layer0_S_
10
909.1430313809857
20
83.15407078564787
30
8.459899447643692e-15
11
909.3812041793502
21
83.33682720163546
31
8.459899447643692e-15
 62
256
 0
LINE
 8
Layer0_S_
10
909.3812041793502
20
83.33682720163546
30
8.459899447643692e-15
11
909.5639605953379
21
83.57499999999999
31
8.459899447643692e-15
 62
256
 0
LINE
 8
Layer0_S_
10
909.5639605953379
20
83.57499999999999
30
8.459899447643692e-15
11
909.6788460812181
21
83.85235809813209
31
8.459899447643692e-15
 62
256
 0
LINE
 8
Layer0_S_
10
909.6788460812181
20
83.85235809813209
30
8.459899447643692e-15
11
909.7180313809857
21
84.14999999999999
31
8.459899447643692e-15
 62
256
 0
LINE
 8
Layer0_S_
10
909.7180313809857
20
84.14999999999999
30
8.459899447643692e-15
11
909.6788460812181
21
84.44764190186788
31
8.459899447643692e-15
 62
256
 0
LINE
 8
Layer0_S_
10
909.6788460812181
20
84.44764190186788
30
8.459899447643692e-15
11
909.5639605953379
21
84.725
31
8.459899447643692e-15
 62
256
 0
LINE
 8
Layer0_S_
10
909.5639605953379
20
84.725
30
8.459899447643692e-15
11
909.3812041793502
21
84.96317279836452
31
8.459899447643692e-15
 62
256
 0
LINE
 8
Layer0_S_
10
909.3812041793502
20
84.96317279836452
30
8.459899447643692e-15
11
909.1430313809857
21
85.14592921435211
31
8.459899447643692e-15
 62
256
 0
LINE
 8
Layer0_S_
10
909.1430313809857
20
85.14592921435211
30
8.459899447643692e-15
11
908.8656732828537
21
85.26081470023243
31
8.459899447643692e-15
 62
256
 0
LINE
 8
Layer0_S_
10
908.8656732828537
20
85.26081470023243
30
8.459899447643692e-15
11
908.5680313809856
21
85.3
31
8.459899447643692e-15
 62
256
 0
LINE
 8
Layer0_S_
10
908.5680313809856
20
85.3
30
8.459899447643692e-15
11
908.2703894791179
21
85.26081470023243
31
8.459899447643692e-15
 62
256
 0
LINE
 8
Layer0_S_
10
908.2703894791179
20
85.26081470023243
30
8.459899447643692e-15
11
907.9930313809858
21
85.14592921435211
31
8.459899447643692e-15
 62
256
 0
LINE
 8
Layer0_S_
10
907.9930313809858
20
85.14592921435211
30
8.459899447643692e-15
11
907.7548585826213
21
84.96317279836454
31
8.459899447643692e-15
 62
256
 0
LINE
 8
Layer0_S_
10
907.7548585826213
20
84.96317279836454
30
8.459899447643692e-15
11
907.5721021666336
21
84.725
31
8.459899447643692e-15
 62
256
 0
LINE
 8
Layer0_S_
10
907.5721021666336
20
84.725
30
8.459899447643692e-15
11
907.4572166807533
21
84.4476419018679
31
8.459899447643692e-15
 62
256
 0
LINE
 8
Layer0_S_
10
907.4572166807533
20
84.4476419018679
30
8.459899447643692e-15
11
907.4180313809858
21
84.14999999999999
31
8.459899447643692e-15
 62
256
 0
LINE
 8
Layer0_S_
10
907.4180313809858
20
84.14999999999999
30
8.459899447643692e-15
11
907.4572166807533
21
83.8523580981321
31
8.459899447643692e-15
 62
256
 0
LINE
 8
Layer0_S_
10
907.4572166807533
20
83.8523580981321
30
8.459899447643692e-15
11
907.5721021666336
21
83.57499999999999
31
8.459899447643692e-15
 62
256
 0
LINE
 8
Layer0_S_
10
879.6930313809858
20
85.1459292143521
30
8.459899447643692e-15
11
879.4548585826212
21
84.96317279836452
31
8.459899447643692e-15
 62
256
 0
LINE
 8
Layer0_S_
10
879.4548585826212
20
84.96317279836452
30
8.459899447643692e-15
11
879.2721021666335
21
84.725
31
8.459899447643692e-15
 62
256
 0
LINE
 8
Layer0_S_
10
879.2721021666335
20
84.725
30
8.459899447643692e-15
11
879.1572166807532
21
84.44764190186788
31
8.459899447643692e-15
 62
256
 0
LINE
 8
Layer0_S_
10
879.1572166807532
20
84.44764190186788
30
8.459899447643692e-15
11
879.1180313809857
21
84.14999999999999
31
8.459899447643692e-15
 62
256
 0
LINE
 8
Layer0_S_
10
879.1180313809857
20
84.14999999999999
30
8.459899447643692e-15
11
879.1572166807532
21
83.85235809813209
31
8.459899447643692e-15
 62
256
 0
LINE
 8
Layer0_S_
10
879.1572166807532
20
83.85235809813209
30
8.459899447643692e-15
11
879.2721021666335
21
83.57499999999999
31
8.459899447643692e-15
 62
256
 0
LINE
 8
Layer0_S_
10
879.2721021666335
20
83.57499999999999
30
8.459899447643692e-15
11
879.4548585826212
21
83.33682720163546
31
8.459899447643692e-15
 62
256
 0
LINE
 8
Layer0_S_
10
879.4548585826212
20
83.33682720163546
30
8.459899447643692e-15
11
879.6930313809858
21
83.15407078564787
31
8.459899447643692e-15
 62
256
 0
LINE
 8
Layer0_S_
10
879.6930313809858
20
83.15407078564787
30
8.459899447643692e-15
11
879.9703894791178
21
83.03918529976755
31
8.459899447643692e-15
 62
256
 0
LINE
 8
Layer0_S_
10
879.9703894791178
20
83.03918529976755
30
8.459899447643692e-15
11
880.2680313809858
21
82.99999999999999
31
8.459899447643692e-15
 62
256
 0
LINE
 8
Layer0_S_
10
880.2680313809858
20
82.99999999999999
30
8.459899447643692e-15
11
880.5656732828536
21
83.03918529976755
31
8.459899447643692e-15
 62
256
 0
LINE
 8
Layer0_S_
10
880.5656732828536
20
83.03918529976755
30
8.459899447643692e-15
11
880.8430313809858
21
83.15407078564789
31
8.459899447643692e-15
 62
256
 0
LINE
 8
Layer0_S_
10
880.8430313809858
20
83.15407078564789
30
8.459899447643692e-15
11
881.0812041793504
21
83.33682720163546
31
8.459899447643692e-15
 62
256
 0
LINE
 8
Layer0_S_
10
881.0812041793504
20
83.33682720163546
30
8.459899447643692e-15
11
881.2639605953378
21
83.57499999999999
31
8.459899447643692e-15
 62
256
 0
LINE
 8
Layer0_S_
10
881.2639605953378
20
83.57499999999999
30
8.459899447643692e-15
11
881.3788460812182
21
83.8523580981321
31
8.459899447643692e-15
 62
256
 0
LINE
 8
Layer0_S_
10
881.3788460812182
20
83.8523580981321
30
8.459899447643692e-15
11
881.4180313809857
21
84.14999999999999
31
8.459899447643692e-15
 62
256
 0
LINE
 8
Layer0_S_
10
881.4180313809857
20
84.14999999999999
30
8.459899447643692e-15
11
881.3788460812182
21
84.4476419018679
31
8.459899447643692e-15
 62
256
 0
LINE
 8
Layer0_S_
10
881.3788460812182
20
84.4476419018679
30
8.459899447643692e-15
11
881.2639605953378
21
84.725
31
8.459899447643692e-15
 62
256
 0
LINE
 8
Layer0_S_
10
881.2639605953378
20
84.725
30
8.459899447643692e-15
11
881.0812041793504
21
84.96317279836452
31
8.459899447643692e-15
 62
256
 0
LINE
 8
Layer0_S_
10
881.0812041793504
20
84.96317279836452
30
8.459899447643692e-15
11
880.8430313809858
21
85.14592921435211
31
8.459899447643692e-15
 62
256
 0
LINE
 8
Layer0_S_
10
880.8430313809858
20
85.14592921435211
30
8.459899447643692e-15
11
880.5656732828536
21
85.26081470023243
31
8.459899447643692e-15
 62
256
 0
LINE
 8
Layer0_S_
10
880.5656732828536
20
85.26081470023243
30
8.459899447643692e-15
11
880.2680313809858
21
85.3
31
8.459899447643692e-15
 62
256
 0
LINE
 8
Layer0_S_
10
880.2680313809858
20
85.3
30
8.459899447643692e-15
11
879.9703894791178
21
85.26081470023243
31
8.459899447643692e-15
 62
256
 0
LINE
 8
Layer0_S_
10
879.9703894791178
20
85.26081470023243
30
8.459899447643692e-15
11
879.6930313809858
21
85.1459292143521
31
8.459899447643692e-15
 62
256
 0
LINE
 8
Layer0_S_
10
879.9291439866498
20
73.88228567653782
30
8.459899447643692e-15
11
879.4180313809858
21
70.0
31
8.459899447643692e-15
 62
256
 0
LINE
 8
Layer0_S_
10
879.4180313809858
20
70.0
30
8.459899447643692e-15
11
879.9291439866498
21
66.1177143234622
31
8.459899447643692e-15
 62
256
 0
LINE
 8
Layer0_S_
10
879.9291439866498
20
66.1177143234622
30
8.459899447643692e-15
11
881.427650324219
21
62.5
31
8.459899447643692e-15
 62
256
 0
LINE
 8
Layer0_S_
10
881.427650324219
20
62.5
30
8.459899447643692e-15
11
883.8114296631876
21
59.393398282201794
31
8.459899447643692e-15
 62
256
 0
LINE
 8
Layer0_S_
10
883.8114296631876
20
59.393398282201794
30
8.459899447643692e-15
11
886.9180313809857
21
57.00961894323343
31
8.459899447643692e-15
 62
256
 0
LINE
 8
Layer0_S_
10
886.9180313809857
20
57.00961894323343
30
8.459899447643692e-15
11
890.535745704448
21
55.51111260566398
31
8.459899447643692e-15
 62
256
 0
LINE
 8
Layer0_S_
10
890.535745704448
20
55.51111260566398
30
8.459899447643692e-15
11
894.4180313809858
21
55.0
31
8.459899447643692e-15
 62
256
 0
LINE
 8
Layer0_S_
10
894.4180313809858
20
55.0
30
8.459899447643692e-15
11
898.3003170575234
21
55.511112605663975
31
8.459899447643692e-15
 62
256
 0
LINE
 8
Layer0_S_
10
898.3003170575234
20
55.511112605663975
30
8.459899447643692e-15
11
901.9180313809857
21
57.00961894323341
31
8.459899447643692e-15
 62
256
 0
LINE
 8
Layer0_S_
10
901.9180313809857
20
57.00961894323341
30
8.459899447643692e-15
11
905.024633098784
21
59.39339828220178
31
8.459899447643692e-15
 62
256
 0
LINE
 8
Layer0_S_
10
905.024633098784
20
59.39339828220178
30
8.459899447643692e-15
11
907.4084124377523
21
62.499999999999986
31
8.459899447643692e-15
 62
256
 0
LINE
 8
Layer0_S_
10
907.4084124377523
20
62.499999999999986
30
8.459899447643692e-15
11
908.9069187753219
21
66.11771432346218
31
8.459899447643692e-15
 62
256
 0
LINE
 8
Layer0_S_
10
908.9069187753219
20
66.11771432346218
30
8.459899447643692e-15
11
909.4180313809858
21
69.99999999999999
31
8.459899447643692e-15
 62
256
 0
LINE
 8
Layer0_S_
10
909.4180313809858
20
69.99999999999999
30
8.459899447643692e-15
11
908.9069187753219
21
73.88228567653779
31
8.459899447643692e-15
 62
256
 0
LINE
 8
Layer0_S_
10
908.9069187753219
20
73.88228567653779
30
8.459899447643692e-15
11
907.4084124377523
21
77.49999999999999
31
8.459899447643692e-15
 62
256
 0
LINE
 8
Layer0_S_
10
907.4084124377523
20
77.49999999999999
30
8.459899447643692e-15
11
905.024633098784
21
80.6066017177982
31
8.459899447643692e-15
 62
256
 0
LINE
 8
Layer0_S_
10
905.024633098784
20
80.6066017177982
30
8.459899447643692e-15
11
901.9180313809857
21
82.99038105676655
31
8.459899447643692e-15
 62
256
 0
LINE
 8
Layer0_S_
10
901.9180313809857
20
82.99038105676655
30
8.459899447643692e-15
11
898.3003170575237
21
84.488887394336
31
8.459899447643692e-15
 62
256
 0
LINE
 8
Layer0_S_
10
898.3003170575237
20
84.488887394336
30
8.459899447643692e-15
11
894.4180313809858
21
85.0
31
8.459899447643692e-15
 62
256
 0
LINE
 8
Layer0_S_
10
894.4180313809858
20
85.0
30
8.459899447643692e-15
11
890.535745704448
21
84.48888739433603
31
8.459899447643692e-15
 62
256
 0
LINE
 8
Layer0_S_
10
890.535745704448
20
84.48888739433603
30
8.459899447643692e-15
11
886.9180313809857
21
82.99038105676658
31
8.459899447643692e-15
 62
256
 0
LINE
 8
Layer0_S_
10
886.9180313809857
20
82.99038105676658
30
8.459899447643692e-15
11
883.8114296631876
21
80.60660171779823
31
8.459899447643692e-15
 62
256
 0
LINE
 8
Layer0_S_
10
883.8114296631876
20
80.60660171779823
30
8.459899447643692e-15
11
881.427650324219
21
77.50000000000001
31
8.459899447643692e-15
 62
256
 0
LINE
 8
Layer0_S_
10
881.427650324219
20
77.50000000000001
30
8.459899447643692e-15
11
879.9291439866498
21
73.88228567653782
31
8.459899447643692e-15
 62
256
 0
LINE
 8
Layer0_S_
10
931.2109245997991
20
1.7928932188134574
30
8.459899447643692e-15
11
931.4180313809857
21
1.6339745962155676
31
8.459899447643692e-15
 62
256
 0
LINE
 8
Layer0_S_
10
931.4180313809857
20
1.6339745962155676
30
8.459899447643692e-15
11
931.6592123358832
21
1.5340741737109347
31
8.459899447643692e-15
 62
256
 0
LINE
 8
Layer0_S_
10
931.6592123358832
20
1.5340741737109347
30
8.459899447643692e-15
11
931.9180313809858
21
1.5000000000000029
31
8.459899447643692e-15
 62
256
 0
LINE
 8
Layer0_S_
10
931.9180313809858
20
1.5000000000000029
30
8.459899447643692e-15
11
932.1768504260883
21
1.5340741737109347
31
8.459899447643692e-15
 62
256
 0
LINE
 8
Layer0_S_
10
932.1768504260883
20
1.5340741737109347
30
8.459899447643692e-15
11
932.4180313809857
21
1.6339745962155618
31
8.459899447643692e-15
 62
256
 0
LINE
 8
Layer0_S_
10
932.4180313809857
20
1.6339745962155618
30
8.459899447643692e-15
11
932.6251381621722
21
1.7928932188134519
31
8.459899447643692e-15
 62
256
 0
LINE
 8
Layer0_S_
10
932.6251381621722
20
1.7928932188134519
30
8.459899447643692e-15
11
932.7840567847701
21
2.0000000000000018
31
8.459899447643692e-15
 62
256
 0
LINE
 8
Layer0_S_
10
932.7840567847701
20
2.0000000000000018
30
8.459899447643692e-15
11
932.8839572072746
21
2.2411809548974784
31
8.459899447643692e-15
 62
256
 0
LINE
 8
Layer0_S_
10
932.8839572072746
20
2.2411809548974784
30
8.459899447643692e-15
11
932.9180313809857
21
2.500000000000001
31
8.459899447643692e-15
 62
256
 0
LINE
 8
Layer0_S_
10
932.9180313809857
20
2.500000000000001
30
8.459899447643692e-15
11
932.8839572072746
21
2.758819045102518
31
8.459899447643692e-15
 62
256
 0
LINE
 8
Layer0_S_
10
932.8839572072746
20
2.758819045102518
30
8.459899447643692e-15
11
932.7840567847701
21
3.0
31
8.459899447643692e-15
 62
256
 0
LINE
 8
Layer0_S_
10
932.7840567847701
20
3.0
30
8.459899447643692e-15
11
932.6251381621722
21
3.207106781186545
31
8.459899447643692e-15
 62
256
 0
LINE
 8
Layer0_S_
10
932.6251381621722
20
3.207106781186545
30
8.459899447643692e-15
11
932.4180313809857
21
3.3660254037844344
31
8.459899447643692e-15
 62
256
 0
LINE
 8
Layer0_S_
10
932.4180313809857
20
3.3660254037844344
30
8.459899447643692e-15
11
932.1768504260883
21
3.4659258262890673
31
8.459899447643692e-15
 62
256
 0
LINE
 8
Layer0_S_
10
932.1768504260883
20
3.4659258262890673
30
8.459899447643692e-15
11
931.9180313809858
21
3.499999999999999
31
8.459899447643692e-15
 62
256
 0
LINE
 8
Layer0_S_
10
931.9180313809858
20
3.499999999999999
30
8.459899447643692e-15
11
931.6592123358832
21
3.4659258262890673
31
8.459899447643692e-15
 62
256
 0
LINE
 8
Layer0_S_
10
931.6592123358832
20
3.4659258262890673
30
8.459899447643692e-15
11
931.4180313809857
21
3.36602540378444
31
8.459899447643692e-15
 62
256
 0
LINE
 8
Layer0_S_
10
931.4180313809857
20
3.36602540378444
30
8.459899447643692e-15
11
931.2109245997991
21
3.20710678118655
31
8.459899447643692e-15
 62
256
 0
LINE
 8
Layer0_S_
10
931.2109245997991
20
3.20710678118655
30
8.459899447643692e-15
11
931.0520059772014
21
3.0
31
8.459899447643692e-15
 62
256
 0
LINE
 8
Layer0_S_
10
931.0520059772014
20
3.0
30
8.459899447643692e-15
11
930.9521055546966
21
2.758819045102524
31
8.459899447643692e-15
 62
256
 0
LINE
 8
Layer0_S_
10
930.9521055546966
20
2.758819045102524
30
8.459899447643692e-15
11
930.9180313809857
21
2.500000000000001
31
8.459899447643692e-15
 62
256
 0
LINE
 8
Layer0_S_
10
930.9180313809857
20
2.500000000000001
30
8.459899447643692e-15
11
930.9521055546966
21
2.241180954897484
31
8.459899447643692e-15
 62
256
 0
LINE
 8
Layer0_S_
10
930.9521055546966
20
2.241180954897484
30
8.459899447643692e-15
11
931.0520059772011
21
2.0000000000000018
31
8.459899447643692e-15
 62
256
 0
LINE
 8
Layer0_S_
10
931.0520059772011
20
2.0000000000000018
30
8.459899447643692e-15
11
931.2109245997991
21
1.7928932188134574
31
8.459899447643692e-15
 62
256
 0
LINE
 8
Layer0_S_
10
937.9521055546967
20
2.758819045102524
30
8.459899447643692e-15
11
937.9180313809857
21
2.500000000000001
31
8.459899447643692e-15
 62
256
 0
LINE
 8
Layer0_S_
10
937.9180313809857
20
2.500000000000001
30
8.459899447643692e-15
11
937.9521055546967
21
2.241180954897484
31
8.459899447643692e-15
 62
256
 0
LINE
 8
Layer0_S_
10
937.9521055546967
20
2.241180954897484
30
8.459899447643692e-15
11
938.0520059772012
21
2.0000000000000018
31
8.459899447643692e-15
 62
256
 0
LINE
 8
Layer0_S_
10
938.0520059772012
20
2.0000000000000018
30
8.459899447643692e-15
11
938.2109245997992
21
1.7928932188134574
31
8.459899447643692e-15
 62
256
 0
LINE
 8
Layer0_S_
10
938.2109245997992
20
1.7928932188134574
30
8.459899447643692e-15
11
938.4180313809857
21
1.6339745962155676
31
8.459899447643692e-15
 62
256
 0
LINE
 8
Layer0_S_
10
938.4180313809857
20
1.6339745962155676
30
8.459899447643692e-15
11
938.6592123358832
21
1.5340741737109347
31
8.459899447643692e-15
 62
256
 0
LINE
 8
Layer0_S_
10
938.6592123358832
20
1.5340741737109347
30
8.459899447643692e-15
11
938.9180313809858
21
1.5000000000000029
31
8.459899447643692e-15
 62
256
 0
LINE
 8
Layer0_S_
10
938.9180313809858
20
1.5000000000000029
30
8.459899447643692e-15
11
939.1768504260883
21
1.5340741737109347
31
8.459899447643692e-15
 62
256
 0
LINE
 8
Layer0_S_
10
939.1768504260883
20
1.5340741737109347
30
8.459899447643692e-15
11
939.4180313809857
21
1.6339745962155618
31
8.459899447643692e-15
 62
256
 0
LINE
 8
Layer0_S_
10
939.4180313809857
20
1.6339745962155618
30
8.459899447643692e-15
11
939.6251381621722
21
1.7928932188134519
31
8.459899447643692e-15
 62
256
 0
LINE
 8
Layer0_S_
10
939.6251381621722
20
1.7928932188134519
30
8.459899447643692e-15
11
939.7840567847702
21
2.0000000000000018
31
8.459899447643692e-15
 62
256
 0
LINE
 8
Layer0_S_
10
939.7840567847702
20
2.0000000000000018
30
8.459899447643692e-15
11
939.8839572072748
21
2.2411809548974784
31
8.459899447643692e-15
 62
256
 0
LINE
 8
Layer0_S_
10
939.8839572072748
20
2.2411809548974784
30
8.459899447643692e-15
11
939.9180313809858
21
2.500000000000001
31
8.459899447643692e-15
 62
256
 0
LINE
 8
Layer0_S_
10
939.9180313809858
20
2.500000000000001
30
8.459899447643692e-15
11
939.8839572072748
21
2.758819045102518
31
8.459899447643692e-15
 62
256
 0
LINE
 8
Layer0_S_
10
939.8839572072748
20
2.758819045102518
30
8.459899447643692e-15
11
939.7840567847702
21
3.0
31
8.459899447643692e-15
 62
256
 0
LINE
 8
Layer0_S_
10
939.7840567847702
20
3.0
30
8.459899447643692e-15
11
939.6251381621722
21
3.207106781186545
31
8.459899447643692e-15
 62
256
 0
LINE
 8
Layer0_S_
10
939.6251381621722
20
3.207106781186545
30
8.459899447643692e-15
11
939.4180313809857
21
3.3660254037844344
31
8.459899447643692e-15
 62
256
 0
LINE
 8
Layer0_S_
10
939.4180313809857
20
3.3660254037844344
30
8.459899447643692e-15
11
939.1768504260883
21
3.4659258262890673
31
8.459899447643692e-15
 62
256
 0
LINE
 8
Layer0_S_
10
939.1768504260883
20
3.4659258262890673
30
8.459899447643692e-15
11
938.9180313809858
21
3.499999999999999
31
8.459899447643692e-15
 62
256
 0
LINE
 8
Layer0_S_
10
938.9180313809858
20
3.499999999999999
30
8.459899447643692e-15
11
938.6592123358832
21
3.4659258262890673
31
8.459899447643692e-15
 62
256
 0
LINE
 8
Layer0_S_
10
938.6592123358832
20
3.4659258262890673
30
8.459899447643692e-15
11
938.4180313809857
21
3.36602540378444
31
8.459899447643692e-15
 62
256
 0
LINE
 8
Layer0_S_
10
938.4180313809857
20
3.36602540378444
30
8.459899447643692e-15
11
938.2109245997992
21
3.20710678118655
31
8.459899447643692e-15
 62
256
 0
LINE
 8
Layer0_S_
10
938.2109245997992
20
3.20710678118655
30
8.459899447643692e-15
11
938.0520059772012
21
3.0
31
8.459899447643692e-15
 62
256
 0
LINE
 8
Layer0_S_
10
938.0520059772012
20
3.0
30
8.459899447643692e-15
11
937.9521055546967
21
2.758819045102524
31
8.459899447643692e-15
 62
256
 0
LINE
 8
Layer0_S_
10
946.1768504260882
20
3.4659258262890673
30
8.459899447643692e-15
11
945.9180313809857
21
3.499999999999999
31
8.459899447643692e-15
 62
256
 0
LINE
 8
Layer0_S_
10
945.9180313809857
20
3.499999999999999
30
8.459899447643692e-15
11
945.6592123358832
21
3.4659258262890673
31
8.459899447643692e-15
 62
256
 0
LINE
 8
Layer0_S_
10
945.6592123358832
20
3.4659258262890673
30
8.459899447643692e-15
11
945.4180313809858
21
3.36602540378444
31
8.459899447643692e-15
 62
256
 0
LINE
 8
Layer0_S_
10
945.4180313809858
20
3.36602540378444
30
8.459899447643692e-15
11
945.2109245997992
21
3.20710678118655
31
8.459899447643692e-15
 62
256
 0
LINE
 8
Layer0_S_
10
945.2109245997992
20
3.20710678118655
30
8.459899447643692e-15
11
945.0520059772012
21
3.0
31
8.459899447643692e-15
 62
256
 0
LINE
 8
Layer0_S_
10
945.0520059772012
20
3.0
30
8.459899447643692e-15
11
944.9521055546967
21
2.758819045102524
31
8.459899447643692e-15
 62
256
 0
LINE
 8
Layer0_S_
10
944.9521055546967
20
2.758819045102524
30
8.459899447643692e-15
11
944.9180313809857
21
2.500000000000001
31
8.459899447643692e-15
 62
256
 0
LINE
 8
Layer0_S_
10
944.9180313809857
20
2.500000000000001
30
8.459899447643692e-15
11
944.9521055546967
21
2.241180954897484
31
8.459899447643692e-15
 62
256
 0
LINE
 8
Layer0_S_
10
944.9521055546967
20
2.241180954897484
30
8.459899447643692e-15
11
945.0520059772012
21
2.0000000000000018
31
8.459899447643692e-15
 62
256
 0
LINE
 8
Layer0_S_
10
945.0520059772012
20
2.0000000000000018
30
8.459899447643692e-15
11
945.2109245997992
21
1.7928932188134574
31
8.459899447643692e-15
 62
256
 0
LINE
 8
Layer0_S_
10
945.2109245997992
20
1.7928932188134574
30
8.459899447643692e-15
11
945.4180313809858
21
1.6339745962155676
31
8.459899447643692e-15
 62
256
 0
LINE
 8
Layer0_S_
10
945.4180313809858
20
1.6339745962155676
30
8.459899447643692e-15
11
945.6592123358831
21
1.5340741737109347
31
8.459899447643692e-15
 62
256
 0
LINE
 8
Layer0_S_
10
945.6592123358831
20
1.5340741737109347
30
8.459899447643692e-15
11
945.9180313809857
21
1.5000000000000029
31
8.459899447643692e-15
 62
256
 0
LINE
 8
Layer0_S_
10
945.9180313809857
20
1.5000000000000029
30
8.459899447643692e-15
11
946.1768504260882
21
1.5340741737109347
31
8.459899447643692e-15
 62
256
 0
LINE
 8
Layer0_S_
10
946.1768504260882
20
1.5340741737109347
30
8.459899447643692e-15
11
946.4180313809857
21
1.6339745962155618
31
8.459899447643692e-15
 62
256
 0
LINE
 8
Layer0_S_
10
946.4180313809857
20
1.6339745962155618
30
8.459899447643692e-15
11
946.6251381621722
21
1.7928932188134519
31
8.459899447643692e-15
 62
256
 0
LINE
 8
Layer0_S_
10
946.6251381621722
20
1.7928932188134519
30
8.459899447643692e-15
11
946.7840567847702
21
2.0000000000000018
31
8.459899447643692e-15
 62
256
 0
LINE
 8
Layer0_S_
10
946.7840567847702
20
2.0000000000000018
30
8.459899447643692e-15
11
946.8839572072748
21
2.2411809548974784
31
8.459899447643692e-15
 62
256
 0
LINE
 8
Layer0_S_
10
946.8839572072748
20
2.2411809548974784
30
8.459899447643692e-15
11
946.9180313809858
21
2.4999999999999956
31
8.459899447643692e-15
 62
256
 0
LINE
 8
Layer0_S_
10
946.9180313809858
20
2.4999999999999956
30
8.459899447643692e-15
11
946.8839572072748
21
2.758819045102518
31
8.459899447643692e-15
 62
256
 0
LINE
 8
Layer0_S_
10
946.8839572072748
20
2.758819045102518
30
8.459899447643692e-15
11
946.7840567847702
21
3.0
31
8.459899447643692e-15
 62
256
 0
LINE
 8
Layer0_S_
10
946.7840567847702
20
3.0
30
8.459899447643692e-15
11
946.6251381621722
21
3.207106781186545
31
8.459899447643692e-15
 62
256
 0
LINE
 8
Layer0_S_
10
946.6251381621722
20
3.207106781186545
30
8.459899447643692e-15
11
946.4180313809857
21
3.3660254037844344
31
8.459899447643692e-15
 62
256
 0
LINE
 8
Layer0_S_
10
946.4180313809857
20
3.3660254037844344
30
8.459899447643692e-15
11
946.1768504260882
21
3.4659258262890673
31
8.459899447643692e-15
 62
256
 0
LINE
 8
Layer0_S_
10
953.1768504260882
20
1.5340741737109347
30
8.459899447643692e-15
11
953.4180313809858
21
1.6339745962155676
31
8.459899447643692e-15
 62
256
 0
LINE
 8
Layer0_S_
10
953.4180313809858
20
1.6339745962155676
30
8.459899447643692e-15
11
953.6251381621722
21
1.7928932188134574
31
8.459899447643692e-15
 62
256
 0
LINE
 8
Layer0_S_
10
953.6251381621722
20
1.7928932188134574
30
8.459899447643692e-15
11
953.7840567847702
21
2.0000000000000018
31
8.459899447643692e-15
 62
256
 0
LINE
 8
Layer0_S_
10
953.7840567847702
20
2.0000000000000018
30
8.459899447643692e-15
11
953.8839572072748
21
2.241180954897484
31
8.459899447643692e-15
 62
256
 0
LINE
 8
Layer0_S_
10
953.8839572072748
20
2.241180954897484
30
8.459899447643692e-15
11
953.9180313809858
21
2.500000000000001
31
8.459899447643692e-15
 62
256
 0
LINE
 8
Layer0_S_
10
953.9180313809858
20
2.500000000000001
30
8.459899447643692e-15
11
953.8839572072748
21
2.758819045102524
31
8.459899447643692e-15
 62
256
 0
LINE
 8
Layer0_S_
10
953.8839572072748
20
2.758819045102524
30
8.459899447643692e-15
11
953.7840567847702
21
3.0
31
8.459899447643692e-15
 62
256
 0
LINE
 8
Layer0_S_
10
953.7840567847702
20
3.0
30
8.459899447643692e-15
11
953.6251381621722
21
3.20710678118655
31
8.459899447643692e-15
 62
256
 0
LINE
 8
Layer0_S_
10
953.6251381621722
20
3.20710678118655
30
8.459899447643692e-15
11
953.4180313809858
21
3.36602540378444
31
8.459899447643692e-15
 62
256
 0
LINE
 8
Layer0_S_
10
953.4180313809858
20
3.36602540378444
30
8.459899447643692e-15
11
953.1768504260882
21
3.4659258262890673
31
8.459899447643692e-15
 62
256
 0
LINE
 8
Layer0_S_
10
953.1768504260882
20
3.4659258262890673
30
8.459899447643692e-15
11
952.9180313809857
21
3.499999999999999
31
8.459899447643692e-15
 62
256
 0
LINE
 8
Layer0_S_
10
952.9180313809857
20
3.499999999999999
30
8.459899447643692e-15
11
952.6592123358831
21
3.4659258262890673
31
8.459899447643692e-15
 62
256
 0
LINE
 8
Layer0_S_
10
952.6592123358831
20
3.4659258262890673
30
8.459899447643692e-15
11
952.4180313809858
21
3.3660254037844344
31
8.459899447643692e-15
 62
256
 0
LINE
 8
Layer0_S_
10
952.4180313809858
20
3.3660254037844344
30
8.459899447643692e-15
11
952.2109245997992
21
3.207106781186545
31
8.459899447643692e-15
 62
256
 0
LINE
 8
Layer0_S_
10
952.2109245997992
20
3.207106781186545
30
8.459899447643692e-15
11
952.0520059772012
21
3.0
31
8.459899447643692e-15
 62
256
 0
LINE
 8
Layer0_S_
10
952.0520059772012
20
3.0
30
8.459899447643692e-15
11
951.9521055546967
21
2.758819045102518
31
8.459899447643692e-15
 62
256
 0
LINE
 8
Layer0_S_
10
951.9521055546967
20
2.758819045102518
30
8.459899447643692e-15
11
951.9180313809857
21
2.500000000000001
31
8.459899447643692e-15
 62
256
 0
LINE
 8
Layer0_S_
10
951.9180313809857
20
2.500000000000001
30
8.459899447643692e-15
11
951.9521055546967
21
2.2411809548974784
31
8.459899447643692e-15
 62
256
 0
LINE
 8
Layer0_S_
10
951.9521055546967
20
2.2411809548974784
30
8.459899447643692e-15
11
952.0520059772012
21
2.0000000000000018
31
8.459899447643692e-15
 62
256
 0
LINE
 8
Layer0_S_
10
952.0520059772012
20
2.0000000000000018
30
8.459899447643692e-15
11
952.2109245997992
21
1.7928932188134519
31
8.459899447643692e-15
 62
256
 0
LINE
 8
Layer0_S_
10
952.2109245997992
20
1.7928932188134519
30
8.459899447643692e-15
11
952.4180313809858
21
1.6339745962155618
31
8.459899447643692e-15
 62
256
 0
LINE
 8
Layer0_S_
10
952.4180313809858
20
1.6339745962155618
30
8.459899447643692e-15
11
952.6592123358831
21
1.5340741737109347
31
8.459899447643692e-15
 62
256
 0
LINE
 8
Layer0_S_
10
952.6592123358831
20
1.5340741737109347
30
8.459899447643692e-15
11
952.9180313809857
21
1.5000000000000029
31
8.459899447643692e-15
 62
256
 0
LINE
 8
Layer0_S_
10
952.9180313809857
20
1.5000000000000029
30
8.459899447643692e-15
11
953.1768504260882
21
1.5340741737109347
31
8.459899447643692e-15
 62
256
 0
LINE
 8
Layer0_S_
10
959.4180313809857
20
3.36602540378444
30
8.459899447643692e-15
11
959.2109245997991
21
3.20710678118655
31
8.459899447643692e-15
 62
256
 0
LINE
 8
Layer0_S_
10
959.2109245997991
20
3.20710678118655
30
8.459899447643692e-15
11
959.0520059772014
21
3.0
31
8.459899447643692e-15
 62
256
 0
LINE
 8
Layer0_S_
10
959.0520059772014
20
3.0
30
8.459899447643692e-15
11
958.9521055546966
21
2.758819045102524
31
8.459899447643692e-15
 62
256
 0
LINE
 8
Layer0_S_
10
958.9521055546966
20
2.758819045102524
30
8.459899447643692e-15
11
958.9180313809858
21
2.500000000000001
31
8.459899447643692e-15
 62
256
 0
LINE
 8
Layer0_S_
10
958.9180313809858
20
2.500000000000001
30
8.459899447643692e-15
11
958.9521055546966
21
2.241180954897484
31
8.459899447643692e-15
 62
256
 0
LINE
 8
Layer0_S_
10
958.9521055546966
20
2.241180954897484
30
8.459899447643692e-15
11
959.0520059772014
21
2.0000000000000018
31
8.459899447643692e-15
 62
256
 0
LINE
 8
Layer0_S_
10
959.0520059772014
20
2.0000000000000018
30
8.459899447643692e-15
11
959.2109245997991
21
1.7928932188134574
31
8.459899447643692e-15
 62
256
 0
LINE
 8
Layer0_S_
10
959.2109245997991
20
1.7928932188134574
30
8.459899447643692e-15
11
959.4180313809857
21
1.6339745962155618
31
8.459899447643692e-15
 62
256
 0
LINE
 8
Layer0_S_
10
959.4180313809857
20
1.6339745962155618
30
8.459899447643692e-15
11
959.6592123358831
21
1.5340741737109347
31
8.459899447643692e-15
 62
256
 0
LINE
 8
Layer0_S_
10
959.6592123358831
20
1.5340741737109347
30
8.459899447643692e-15
11
959.9180313809857
21
1.5000000000000029
31
8.459899447643692e-15
 62
256
 0
LINE
 8
Layer0_S_
10
959.9180313809857
20
1.5000000000000029
30
8.459899447643692e-15
11
960.1768504260882
21
1.5340741737109347
31
8.459899447643692e-15
 62
256
 0
LINE
 8
Layer0_S_
10
960.1768504260882
20
1.5340741737109347
30
8.459899447643692e-15
11
960.4180313809858
21
1.6339745962155618
31
8.459899447643692e-15
 62
256
 0
LINE
 8
Layer0_S_
10
960.4180313809858
20
1.6339745962155618
30
8.459899447643692e-15
11
960.6251381621723
21
1.7928932188134519
31
8.459899447643692e-15
 62
256
 0
LINE
 8
Layer0_S_
10
960.6251381621723
20
1.7928932188134519
30
8.459899447643692e-15
11
960.7840567847701
21
2.0000000000000018
31
8.459899447643692e-15
 62
256
 0
LINE
 8
Layer0_S_
10
960.7840567847701
20
2.0000000000000018
30
8.459899447643692e-15
11
960.8839572072749
21
2.2411809548974784
31
8.459899447643692e-15
 62
256
 0
LINE
 8
Layer0_S_
10
960.8839572072749
20
2.2411809548974784
30
8.459899447643692e-15
11
960.9180313809857
21
2.500000000000001
31
8.459899447643692e-15
 62
256
 0
LINE
 8
Layer0_S_
10
960.9180313809857
20
2.500000000000001
30
8.459899447643692e-15
11
960.8839572072749
21
2.758819045102518
31
8.459899447643692e-15
 62
256
 0
LINE
 8
Layer0_S_
10
960.8839572072749
20
2.758819045102518
30
8.459899447643692e-15
11
960.7840567847701
21
3.0
31
8.459899447643692e-15
 62
256
 0
LINE
 8
Layer0_S_
10
960.7840567847701
20
3.0
30
8.459899447643692e-15
11
960.6251381621723
21
3.207106781186545
31
8.459899447643692e-15
 62
256
 0
LINE
 8
Layer0_S_
10
960.6251381621723
20
3.207106781186545
30
8.459899447643692e-15
11
960.4180313809858
21
3.3660254037844344
31
8.459899447643692e-15
 62
256
 0
LINE
 8
Layer0_S_
10
960.4180313809858
20
3.3660254037844344
30
8.459899447643692e-15
11
960.1768504260882
21
3.4659258262890673
31
8.459899447643692e-15
 62
256
 0
LINE
 8
Layer0_S_
10
960.1768504260882
20
3.4659258262890673
30
8.459899447643692e-15
11
959.9180313809857
21
3.499999999999999
31
8.459899447643692e-15
 62
256
 0
LINE
 8
Layer0_S_
10
959.9180313809857
20
3.499999999999999
30
8.459899447643692e-15
11
959.6592123358831
21
3.4659258262890673
31
8.459899447643692e-15
 62
256
 0
LINE
 8
Layer0_S_
10
959.6592123358831
20
3.4659258262890673
30
8.459899447643692e-15
11
959.4180313809857
21
3.36602540378444
31
8.459899447643692e-15
 62
256
 0
LINE
 8
Layer0_S_
10
965.9180313809858
20
2.500000000000001
30
8.459899447643692e-15
11
965.9521055546966
21
2.2411809548974784
31
8.459899447643692e-15
 62
256
 0
LINE
 8
Layer0_S_
10
965.9521055546966
20
2.2411809548974784
30
8.459899447643692e-15
11
966.0520059772014
21
2.0000000000000018
31
8.459899447643692e-15
 62
256
 0
LINE
 8
Layer0_S_
10
966.0520059772014
20
2.0000000000000018
30
8.459899447643692e-15
11
966.2109245997991
21
1.7928932188134519
31
8.459899447643692e-15
 62
256
 0
LINE
 8
Layer0_S_
10
966.2109245997991
20
1.7928932188134519
30
8.459899447643692e-15
11
966.4180313809857
21
1.6339745962155618
31
8.459899447643692e-15
 62
256
 0
LINE
 8
Layer0_S_
10
966.4180313809857
20
1.6339745962155618
30
8.459899447643692e-15
11
966.6592123358832
21
1.5340741737109347
31
8.459899447643692e-15
 62
256
 0
LINE
 8
Layer0_S_
10
966.6592123358832
20
1.5340741737109347
30
8.459899447643692e-15
11
966.9180313809858
21
1.5000000000000029
31
8.459899447643692e-15
 62
256
 0
LINE
 8
Layer0_S_
10
966.9180313809858
20
1.5000000000000029
30
8.459899447643692e-15
11
967.1768504260883
21
1.5340741737109347
31
8.459899447643692e-15
 62
256
 0
LINE
 8
Layer0_S_
10
967.1768504260883
20
1.5340741737109347
30
8.459899447643692e-15
11
967.4180313809857
21
1.6339745962155618
31
8.459899447643692e-15
 62
256
 0
LINE
 8
Layer0_S_
10
967.4180313809857
20
1.6339745962155618
30
8.459899447643692e-15
11
967.6251381621723
21
1.7928932188134574
31
8.459899447643692e-15
 62
256
 0
LINE
 8
Layer0_S_
10
967.6251381621723
20
1.7928932188134574
30
8.459899447643692e-15
11
967.7840567847701
21
2.0000000000000018
31
8.459899447643692e-15
 62
256
 0
LINE
 8
Layer0_S_
10
967.7840567847701
20
2.0000000000000018
30
8.459899447643692e-15
11
967.8839572072749
21
2.2411809548974784
31
8.459899447643692e-15
 62
256
 0
LINE
 8
Layer0_S_
10
967.8839572072749
20
2.2411809548974784
30
8.459899447643692e-15
11
967.9180313809857
21
2.500000000000001
31
8.459899447643692e-15
 62
256
 0
LINE
 8
Layer0_S_
10
967.9180313809857
20
2.500000000000001
30
8.459899447643692e-15
11
967.8839572072749
21
2.758819045102524
31
8.459899447643692e-15
 62
256
 0
LINE
 8
Layer0_S_
10
967.8839572072749
20
2.758819045102524
30
8.459899447643692e-15
11
967.7840567847701
21
3.0
31
8.459899447643692e-15
 62
256
 0
LINE
 8
Layer0_S_
10
967.7840567847701
20
3.0
30
8.459899447643692e-15
11
967.6251381621723
21
3.207106781186545
31
8.459899447643692e-15
 62
256
 0
LINE
 8
Layer0_S_
10
967.6251381621723
20
3.207106781186545
30
8.459899447643692e-15
11
967.4180313809857
21
3.36602540378444
31
8.459899447643692e-15
 62
256
 0
LINE
 8
Layer0_S_
10
967.4180313809857
20
3.36602540378444
30
8.459899447643692e-15
11
967.1768504260883
21
3.4659258262890673
31
8.459899447643692e-15
 62
256
 0
LINE
 8
Layer0_S_
10
967.1768504260883
20
3.4659258262890673
30
8.459899447643692e-15
11
966.9180313809858
21
3.499999999999999
31
8.459899447643692e-15
 62
256
 0
LINE
 8
Layer0_S_
10
966.9180313809858
20
3.499999999999999
30
8.459899447643692e-15
11
966.6592123358832
21
3.4659258262890673
31
8.459899447643692e-15
 62
256
 0
LINE
 8
Layer0_S_
10
966.6592123358832
20
3.4659258262890673
30
8.459899447643692e-15
11
966.4180313809857
21
3.36602540378444
31
8.459899447643692e-15
 62
256
 0
LINE
 8
Layer0_S_
10
966.4180313809857
20
3.36602540378444
30
8.459899447643692e-15
11
966.2109245997991
21
3.207106781186545
31
8.459899447643692e-15
 62
256
 0
LINE
 8
Layer0_S_
10
966.2109245997991
20
3.207106781186545
30
8.459899447643692e-15
11
966.0520059772014
21
3.0
31
8.459899447643692e-15
 62
256
 0
LINE
 8
Layer0_S_
10
966.0520059772014
20
3.0
30
8.459899447643692e-15
11
965.9521055546966
21
2.758819045102524
31
8.459899447643692e-15
 62
256
 0
LINE
 8
Layer0_S_
10
965.9521055546966
20
2.758819045102524
30
8.459899447643692e-15
11
965.9180313809858
21
2.500000000000001
31
8.459899447643692e-15
 62
256
 0
LINE
 8
Layer0_S_
10
973.0520059772012
20
2.0000000000000018
30
8.459899447643692e-15
11
973.2109245997991
21
1.7928932188134519
31
8.459899447643692e-15
 62
256
 0
LINE
 8
Layer0_S_
10
973.2109245997991
20
1.7928932188134519
30
8.459899447643692e-15
11
973.4180313809857
21
1.6339745962155618
31
8.459899447643692e-15
 62
256
 0
LINE
 8
Layer0_S_
10
973.4180313809857
20
1.6339745962155618
30
8.459899447643692e-15
11
973.6592123358832
21
1.5340741737109347
31
8.459899447643692e-15
 62
256
 0
LINE
 8
Layer0_S_
10
973.6592123358832
20
1.5340741737109347
30
8.459899447643692e-15
11
973.9180313809858
21
1.5000000000000029
31
8.459899447643692e-15
 62
256
 0
LINE
 8
Layer0_S_
10
973.9180313809858
20
1.5000000000000029
30
8.459899447643692e-15
11
974.1768504260883
21
1.5340741737109347
31
8.459899447643692e-15
 62
256
 0
LINE
 8
Layer0_S_
10
974.1768504260883
20
1.5340741737109347
30
8.459899447643692e-15
11
974.4180313809857
21
1.6339745962155676
31
8.459899447643692e-15
 62
256
 0
LINE
 8
Layer0_S_
10
974.4180313809857
20
1.6339745962155676
30
8.459899447643692e-15
11
974.6251381621722
21
1.7928932188134574
31
8.459899447643692e-15
 62
256
 0
LINE
 8
Layer0_S_
10
974.6251381621722
20
1.7928932188134574
30
8.459899447643692e-15
11
974.7840567847702
21
2.0000000000000018
31
8.459899447643692e-15
 62
256
 0
LINE
 8
Layer0_S_
10
974.7840567847702
20
2.0000000000000018
30
8.459899447643692e-15
11
974.8839572072748
21
2.241180954897484
31
8.459899447643692e-15
 62
256
 0
LINE
 8
Layer0_S_
10
974.8839572072748
20
2.241180954897484
30
8.459899447643692e-15
11
974.9180313809857
21
2.500000000000001
31
8.459899447643692e-15
 62
256
 0
LINE
 8
Layer0_S_
10
974.9180313809857
20
2.500000000000001
30
8.459899447643692e-15
11
974.8839572072748
21
2.758819045102524
31
8.459899447643692e-15
 62
256
 0
LINE
 8
Layer0_S_
10
974.8839572072748
20
2.758819045102524
30
8.459899447643692e-15
11
974.7840567847702
21
3.0
31
8.459899447643692e-15
 62
256
 0
LINE
 8
Layer0_S_
10
974.7840567847702
20
3.0
30
8.459899447643692e-15
11
974.6251381621722
21
3.20710678118655
31
8.459899447643692e-15
 62
256
 0
LINE
 8
Layer0_S_
10
974.6251381621722
20
3.20710678118655
30
8.459899447643692e-15
11
974.4180313809857
21
3.36602540378444
31
8.459899447643692e-15
 62
256
 0
LINE
 8
Layer0_S_
10
974.4180313809857
20
3.36602540378444
30
8.459899447643692e-15
11
974.1768504260883
21
3.4659258262890673
31
8.459899447643692e-15
 62
256
 0
LINE
 8
Layer0_S_
10
974.1768504260883
20
3.4659258262890673
30
8.459899447643692e-15
11
973.9180313809858
21
3.499999999999999
31
8.459899447643692e-15
 62
256
 0
LINE
 8
Layer0_S_
10
973.9180313809858
20
3.499999999999999
30
8.459899447643692e-15
11
973.6592123358832
21
3.4659258262890673
31
8.459899447643692e-15
 62
256
 0
LINE
 8
Layer0_S_
10
973.6592123358832
20
3.4659258262890673
30
8.459899447643692e-15
11
973.4180313809857
21
3.36602540378444
31
8.459899447643692e-15
 62
256
 0
LINE
 8
Layer0_S_
10
973.4180313809857
20
3.36602540378444
30
8.459899447643692e-15
11
973.2109245997991
21
3.207106781186545
31
8.459899447643692e-15
 62
256
 0
LINE
 8
Layer0_S_
10
973.2109245997991
20
3.207106781186545
30
8.459899447643692e-15
11
973.0520059772012
21
3.0
31
8.459899447643692e-15
 62
256
 0
LINE
 8
Layer0_S_
10
973.0520059772012
20
3.0
30
8.459899447643692e-15
11
972.9521055546967
21
2.758819045102518
31
8.459899447643692e-15
 62
256
 0
LINE
 8
Layer0_S_
10
972.9521055546967
20
2.758819045102518
30
8.459899447643692e-15
11
972.9180313809857
21
2.500000000000001
31
8.459899447643692e-15
 62
256
 0
LINE
 8
Layer0_S_
10
972.9180313809857
20
2.500000000000001
30
8.459899447643692e-15
11
972.9521055546967
21
2.2411809548974784
31
8.459899447643692e-15
 62
256
 0
LINE
 8
Layer0_S_
10
972.9521055546967
20
2.2411809548974784
30
8.459899447643692e-15
11
973.0520059772012
21
2.0000000000000018
31
8.459899447643692e-15
 62
256
 0
LINE
 8
Layer0_S_
10
981.1768504260881
20
3.4659258262890673
30
8.459899447643692e-15
11
980.9180313809858
21
3.499999999999999
31
8.459899447643692e-15
 62
256
 0
LINE
 8
Layer0_S_
10
980.9180313809858
20
3.499999999999999
30
8.459899447643692e-15
11
980.6592123358832
21
3.4659258262890673
31
8.459899447643692e-15
 62
256
 0
LINE
 8
Layer0_S_
10
980.6592123358832
20
3.4659258262890673
30
8.459899447643692e-15
11
980.4180313809858
21
3.36602540378444
31
8.459899447643692e-15
 62
256
 0
LINE
 8
Layer0_S_
10
980.4180313809858
20
3.36602540378444
30
8.459899447643692e-15
11
980.2109245997992
21
3.20710678118655
31
8.459899447643692e-15
 62
256
 0
LINE
 8
Layer0_S_
10
980.2109245997992
20
3.20710678118655
30
8.459899447643692e-15
11
980.0520059772012
21
3.0
31
8.459899447643692e-15
 62
256
 0
LINE
 8
Layer0_S_
10
980.0520059772012
20
3.0
30
8.459899447643692e-15
11
979.9521055546967
21
2.758819045102524
31
8.459899447643692e-15
 62
256
 0
LINE
 8
Layer0_S_
10
979.9521055546967
20
2.758819045102524
30
8.459899447643692e-15
11
979.9180313809857
21
2.500000000000001
31
8.459899447643692e-15
 62
256
 0
LINE
 8
Layer0_S_
10
979.9180313809857
20
2.500000000000001
30
8.459899447643692e-15
11
979.9521055546967
21
2.241180954897484
31
8.459899447643692e-15
 62
256
 0
LINE
 8
Layer0_S_
10
979.9521055546967
20
2.241180954897484
30
8.459899447643692e-15
11
980.0520059772012
21
2.0000000000000018
31
8.459899447643692e-15
 62
256
 0
LINE
 8
Layer0_S_
10
980.0520059772012
20
2.0000000000000018
30
8.459899447643692e-15
11
980.2109245997992
21
1.7928932188134574
31
8.459899447643692e-15
 62
256
 0
LINE
 8
Layer0_S_
10
980.2109245997992
20
1.7928932188134574
30
8.459899447643692e-15
11
980.4180313809858
21
1.6339745962155676
31
8.459899447643692e-15
 62
256
 0
LINE
 8
Layer0_S_
10
980.4180313809858
20
1.6339745962155676
30
8.459899447643692e-15
11
980.6592123358832
21
1.5340741737109347
31
8.459899447643692e-15
 62
256
 0
LINE
 8
Layer0_S_
10
980.6592123358832
20
1.5340741737109347
30
8.459899447643692e-15
11
980.9180313809857
21
1.5000000000000029
31
8.459899447643692e-15
 62
256
 0
LINE
 8
Layer0_S_
10
980.9180313809857
20
1.5000000000000029
30
8.459899447643692e-15
11
981.1768504260881
21
1.5340741737109347
31
8.459899447643692e-15
 62
256
 0
LINE
 8
Layer0_S_
10
981.1768504260881
20
1.5340741737109347
30
8.459899447643692e-15
11
981.4180313809857
21
1.6339745962155618
31
8.459899447643692e-15
 62
256
 0
LINE
 8
Layer0_S_
10
981.4180313809857
20
1.6339745962155618
30
8.459899447643692e-15
11
981.6251381621722
21
1.7928932188134519
31
8.459899447643692e-15
 62
256
 0
LINE
 8
Layer0_S_
10
981.6251381621722
20
1.7928932188134519
30
8.459899447643692e-15
11
981.7840567847702
21
2.0000000000000018
31
8.459899447643692e-15
 62
256
 0
LINE
 8
Layer0_S_
10
981.7840567847702
20
2.0000000000000018
30
8.459899447643692e-15
11
981.8839572072748
21
2.2411809548974784
31
8.459899447643692e-15
 62
256
 0
LINE
 8
Layer0_S_
10
981.8839572072748
20
2.2411809548974784
30
8.459899447643692e-15
11
981.9180313809858
21
2.4999999999999956
31
8.459899447643692e-15
 62
256
 0
LINE
 8
Layer0_S_
10
981.9180313809858
20
2.4999999999999956
30
8.459899447643692e-15
11
981.8839572072748
21
2.758819045102518
31
8.459899447643692e-15
 62
256
 0
LINE
 8
Layer0_S_
10
981.8839572072748
20
2.758819045102518
30
8.459899447643692e-15
11
981.7840567847702
21
3.0
31
8.459899447643692e-15
 62
256
 0
LINE
 8
Layer0_S_
10
981.7840567847702
20
3.0
30
8.459899447643692e-15
11
981.6251381621722
21
3.207106781186545
31
8.459899447643692e-15
 62
256
 0
LINE
 8
Layer0_S_
10
981.6251381621722
20
3.207106781186545
30
8.459899447643692e-15
11
981.4180313809857
21
3.3660254037844344
31
8.459899447643692e-15
 62
256
 0
LINE
 8
Layer0_S_
10
981.4180313809857
20
3.3660254037844344
30
8.459899447643692e-15
11
981.1768504260881
21
3.4659258262890673
31
8.459899447643692e-15
 62
256
 0
LINE
 8
Layer0_S_
10
987.0520059772012
20
2.0000000000000018
30
8.459899447643692e-15
11
987.2109245997992
21
1.7928932188134519
31
8.459899447643692e-15
 62
256
 0
LINE
 8
Layer0_S_
10
987.2109245997992
20
1.7928932188134519
30
8.459899447643692e-15
11
987.4180313809858
21
1.6339745962155618
31
8.459899447643692e-15
 62
256
 0
LINE
 8
Layer0_S_
10
987.4180313809858
20
1.6339745962155618
30
8.459899447643692e-15
11
987.6592123358831
21
1.5340741737109347
31
8.459899447643692e-15
 62
256
 0
LINE
 8
Layer0_S_
10
987.6592123358831
20
1.5340741737109347
30
8.459899447643692e-15
11
987.9180313809857
21
1.5000000000000029
31
8.459899447643692e-15
 62
256
 0
LINE
 8
Layer0_S_
10
987.9180313809857
20
1.5000000000000029
30
8.459899447643692e-15
11
988.1768504260882
21
1.5340741737109347
31
8.459899447643692e-15
 62
256
 0
LINE
 8
Layer0_S_
10
988.1768504260882
20
1.5340741737109347
30
8.459899447643692e-15
11
988.4180313809857
21
1.6339745962155676
31
8.459899447643692e-15
 62
256
 0
LINE
 8
Layer0_S_
10
988.4180313809857
20
1.6339745962155676
30
8.459899447643692e-15
11
988.6251381621722
21
1.7928932188134574
31
8.459899447643692e-15
 62
256
 0
LINE
 8
Layer0_S_
10
988.6251381621722
20
1.7928932188134574
30
8.459899447643692e-15
11
988.7840567847702
21
2.0000000000000018
31
8.459899447643692e-15
 62
256
 0
LINE
 8
Layer0_S_
10
988.7840567847702
20
2.0000000000000018
30
8.459899447643692e-15
11
988.8839572072748
21
2.241180954897484
31
8.459899447643692e-15
 62
256
 0
LINE
 8
Layer0_S_
10
988.8839572072748
20
2.241180954897484
30
8.459899447643692e-15
11
988.9180313809858
21
2.500000000000001
31
8.459899447643692e-15
 62
256
 0
LINE
 8
Layer0_S_
10
988.9180313809858
20
2.500000000000001
30
8.459899447643692e-15
11
988.8839572072748
21
2.758819045102524
31
8.459899447643692e-15
 62
256
 0
LINE
 8
Layer0_S_
10
988.8839572072748
20
2.758819045102524
30
8.459899447643692e-15
11
988.7840567847702
21
3.0
31
8.459899447643692e-15
 62
256
 0
LINE
 8
Layer0_S_
10
988.7840567847702
20
3.0
30
8.459899447643692e-15
11
988.6251381621722
21
3.20710678118655
31
8.459899447643692e-15
 62
256
 0
LINE
 8
Layer0_S_
10
988.6251381621722
20
3.20710678118655
30
8.459899447643692e-15
11
988.4180313809857
21
3.36602540378444
31
8.459899447643692e-15
 62
256
 0
LINE
 8
Layer0_S_
10
988.4180313809857
20
3.36602540378444
30
8.459899447643692e-15
11
988.1768504260882
21
3.4659258262890673
31
8.459899447643692e-15
 62
256
 0
LINE
 8
Layer0_S_
10
988.1768504260882
20
3.4659258262890673
30
8.459899447643692e-15
11
987.9180313809857
21
3.499999999999999
31
8.459899447643692e-15
 62
256
 0
LINE
 8
Layer0_S_
10
987.9180313809857
20
3.499999999999999
30
8.459899447643692e-15
11
987.6592123358831
21
3.4659258262890673
31
8.459899447643692e-15
 62
256
 0
LINE
 8
Layer0_S_
10
987.6592123358831
20
3.4659258262890673
30
8.459899447643692e-15
11
987.4180313809858
21
3.3660254037844344
31
8.459899447643692e-15
 62
256
 0
LINE
 8
Layer0_S_
10
987.4180313809858
20
3.3660254037844344
30
8.459899447643692e-15
11
987.2109245997992
21
3.207106781186545
31
8.459899447643692e-15
 62
256
 0
LINE
 8
Layer0_S_
10
987.2109245997992
20
3.207106781186545
30
8.459899447643692e-15
11
987.0520059772012
21
3.0
31
8.459899447643692e-15
 62
256
 0
LINE
 8
Layer0_S_
10
987.0520059772012
20
3.0
30
8.459899447643692e-15
11
986.9521055546967
21
2.758819045102518
31
8.459899447643692e-15
 62
256
 0
LINE
 8
Layer0_S_
10
986.9521055546967
20
2.758819045102518
30
8.459899447643692e-15
11
986.9180313809857
21
2.500000000000001
31
8.459899447643692e-15
 62
256
 0
LINE
 8
Layer0_S_
10
986.9180313809857
20
2.500000000000001
30
8.459899447643692e-15
11
986.9521055546967
21
2.2411809548974784
31
8.459899447643692e-15
 62
256
 0
LINE
 8
Layer0_S_
10
986.9521055546967
20
2.2411809548974784
30
8.459899447643692e-15
11
987.0520059772012
21
2.0000000000000018
31
8.459899447643692e-15
 62
256
 0
LINE
 8
Layer0_S_
10
995.7840567847701
20
2.0000000000000018
30
8.459899447643692e-15
11
995.8839572072748
21
2.241180954897484
31
8.459899447643692e-15
 62
256
 0
LINE
 8
Layer0_S_
10
995.8839572072748
20
2.241180954897484
30
8.459899447643692e-15
11
995.9180313809857
21
2.500000000000001
31
8.459899447643692e-15
 62
256
 0
LINE
 8
Layer0_S_
10
995.9180313809857
20
2.500000000000001
30
8.459899447643692e-15
11
995.8839572072748
21
2.758819045102524
31
8.459899447643692e-15
 62
256
 0
LINE
 8
Layer0_S_
10
995.8839572072748
20
2.758819045102524
30
8.459899447643692e-15
11
995.7840567847701
21
3.0
31
8.459899447643692e-15
 62
256
 0
LINE
 8
Layer0_S_
10
995.7840567847701
20
3.0
30
8.459899447643692e-15
11
995.6251381621722
21
3.20710678118655
31
8.459899447643692e-15
 62
256
 0
LINE
 8
Layer0_S_
10
995.6251381621722
20
3.20710678118655
30
8.459899447643692e-15
11
995.4180313809858
21
3.36602540378444
31
8.459899447643692e-15
 62
256
 0
LINE
 8
Layer0_S_
10
995.4180313809858
20
3.36602540378444
30
8.459899447643692e-15
11
995.1768504260882
21
3.4659258262890673
31
8.459899447643692e-15
 62
256
 0
LINE
 8
Layer0_S_
10
995.1768504260882
20
3.4659258262890673
30
8.459899447643692e-15
11
994.9180313809857
21
3.499999999999999
31
8.459899447643692e-15
 62
256
 0
LINE
 8
Layer0_S_
10
994.9180313809857
20
3.499999999999999
30
8.459899447643692e-15
11
994.6592123358831
21
3.4659258262890673
31
8.459899447643692e-15
 62
256
 0
LINE
 8
Layer0_S_
10
994.6592123358831
20
3.4659258262890673
30
8.459899447643692e-15
11
994.4180313809858
21
3.3660254037844344
31
8.459899447643692e-15
 62
256
 0
LINE
 8
Layer0_S_
10
994.4180313809858
20
3.3660254037844344
30
8.459899447643692e-15
11
994.2109245997991
21
3.207106781186545
31
8.459899447643692e-15
 62
256
 0
LINE
 8
Layer0_S_
10
994.2109245997991
20
3.207106781186545
30
8.459899447643692e-15
11
994.0520059772012
21
3.0
31
8.459899447643692e-15
 62
256
 0
LINE
 8
Layer0_S_
10
994.0520059772012
20
3.0
30
8.459899447643692e-15
11
993.9521055546967
21
2.758819045102518
31
8.459899447643692e-15
 62
256
 0
LINE
 8
Layer0_S_
10
993.9521055546967
20
2.758819045102518
30
8.459899447643692e-15
11
993.9180313809858
21
2.500000000000001
31
8.459899447643692e-15
 62
256
 0
LINE
 8
Layer0_S_
10
993.9180313809858
20
2.500000000000001
30
8.459899447643692e-15
11
993.9521055546967
21
2.2411809548974784
31
8.459899447643692e-15
 62
256
 0
LINE
 8
Layer0_S_
10
993.9521055546967
20
2.2411809548974784
30
8.459899447643692e-15
11
994.0520059772012
21
2.0000000000000018
31
8.459899447643692e-15
 62
256
 0
LINE
 8
Layer0_S_
10
994.0520059772012
20
2.0000000000000018
30
8.459899447643692e-15
11
994.2109245997991
21
1.7928932188134574
31
8.459899447643692e-15
 62
256
 0
LINE
 8
Layer0_S_
10
994.2109245997991
20
1.7928932188134574
30
8.459899447643692e-15
11
994.4180313809858
21
1.6339745962155618
31
8.459899447643692e-15
 62
256
 0
LINE
 8
Layer0_S_
10
994.4180313809858
20
1.6339745962155618
30
8.459899447643692e-15
11
994.6592123358831
21
1.5340741737109347
31
8.459899447643692e-15
 62
256
 0
LINE
 8
Layer0_S_
10
994.6592123358831
20
1.5340741737109347
30
8.459899447643692e-15
11
994.9180313809857
21
1.5000000000000029
31
8.459899447643692e-15
 62
256
 0
LINE
 8
Layer0_S_
10
994.9180313809857
20
1.5000000000000029
30
8.459899447643692e-15
11
995.1768504260882
21
1.5340741737109347
31
8.459899447643692e-15
 62
256
 0
LINE
 8
Layer0_S_
10
995.1768504260882
20
1.5340741737109347
30
8.459899447643692e-15
11
995.4180313809858
21
1.6339745962155676
31
8.459899447643692e-15
 62
256
 0
LINE
 8
Layer0_S_
10
995.4180313809858
20
1.6339745962155676
30
8.459899447643692e-15
11
995.6251381621722
21
1.7928932188134574
31
8.459899447643692e-15
 62
256
 0
LINE
 8
Layer0_S_
10
995.6251381621722
20
1.7928932188134574
30
8.459899447643692e-15
11
995.7840567847701
21
2.0000000000000018
31
8.459899447643692e-15
 62
256
 0
LINE
 8
Layer0_S_
10
1002.4180313809858
20
1.6339745962155618
30
8.459899447643692e-15
11
1002.6251381621723
21
1.7928932188134574
31
8.459899447643692e-15
 62
256
 0
LINE
 8
Layer0_S_
10
1002.6251381621723
20
1.7928932188134574
30
8.459899447643692e-15
11
1002.7840567847701
21
2.0000000000000018
31
8.459899447643692e-15
 62
256
 0
LINE
 8
Layer0_S_
10
1002.7840567847701
20
2.0000000000000018
30
8.459899447643692e-15
11
1002.8839572072749
21
2.2411809548974784
31
8.459899447643692e-15
 62
256
 0
LINE
 8
Layer0_S_
10
1002.8839572072749
20
2.2411809548974784
30
8.459899447643692e-15
11
1002.9180313809857
21
2.500000000000001
31
8.459899447643692e-15
 62
256
 0
LINE
 8
Layer0_S_
10
1002.9180313809857
20
2.500000000000001
30
8.459899447643692e-15
11
1002.8839572072749
21
2.758819045102524
31
8.459899447643692e-15
 62
256
 0
LINE
 8
Layer0_S_
10
1002.8839572072749
20
2.758819045102524
30
8.459899447643692e-15
11
1002.7840567847701
21
3.0
31
8.459899447643692e-15
 62
256
 0
LINE
 8
Layer0_S_
10
1002.7840567847701
20
3.0
30
8.459899447643692e-15
11
1002.6251381621723
21
3.207106781186545
31
8.459899447643692e-15
 62
256
 0
LINE
 8
Layer0_S_
10
1002.6251381621723
20
3.207106781186545
30
8.459899447643692e-15
11
1002.4180313809858
21
3.36602540378444
31
8.459899447643692e-15
 62
256
 0
LINE
 8
Layer0_S_
10
1002.4180313809858
20
3.36602540378444
30
8.459899447643692e-15
11
1002.1768504260882
21
3.4659258262890673
31
8.459899447643692e-15
 62
256
 0
LINE
 8
Layer0_S_
10
1002.1768504260882
20
3.4659258262890673
30
8.459899447643692e-15
11
1001.9180313809857
21
3.499999999999999
31
8.459899447643692e-15
 62
256
 0
LINE
 8
Layer0_S_
10
1001.9180313809857
20
3.499999999999999
30
8.459899447643692e-15
11
1001.6592123358831
21
3.4659258262890673
31
8.459899447643692e-15
 62
256
 0
LINE
 8
Layer0_S_
10
1001.6592123358831
20
3.4659258262890673
30
8.459899447643692e-15
11
1001.4180313809857
21
3.36602540378444
31
8.459899447643692e-15
 62
256
 0
LINE
 8
Layer0_S_
10
1001.4180313809857
20
3.36602540378444
30
8.459899447643692e-15
11
1001.2109245997991
21
3.20710678118655
31
8.459899447643692e-15
 62
256
 0
LINE
 8
Layer0_S_
10
1001.2109245997991
20
3.20710678118655
30
8.459899447643692e-15
11
1001.0520059772014
21
3.0
31
8.459899447643692e-15
 62
256
 0
LINE
 8
Layer0_S_
10
1001.0520059772014
20
3.0
30
8.459899447643692e-15
11
1000.9521055546966
21
2.758819045102524
31
8.459899447643692e-15
 62
256
 0
LINE
 8
Layer0_S_
10
1000.9521055546966
20
2.758819045102524
30
8.459899447643692e-15
11
1000.9180313809858
21
2.500000000000001
31
8.459899447643692e-15
 62
256
 0
LINE
 8
Layer0_S_
10
1000.9180313809858
20
2.500000000000001
30
8.459899447643692e-15
11
1000.9521055546966
21
2.241180954897484
31
8.459899447643692e-15
 62
256
 0
LINE
 8
Layer0_S_
10
1000.9521055546966
20
2.241180954897484
30
8.459899447643692e-15
11
1001.0520059772014
21
2.0000000000000018
31
8.459899447643692e-15
 62
256
 0
LINE
 8
Layer0_S_
10
1001.0520059772014
20
2.0000000000000018
30
8.459899447643692e-15
11
1001.2109245997991
21
1.7928932188134574
31
8.459899447643692e-15
 62
256
 0
LINE
 8
Layer0_S_
10
1001.2109245997991
20
1.7928932188134574
30
8.459899447643692e-15
11
1001.4180313809857
21
1.6339745962155618
31
8.459899447643692e-15
 62
256
 0
LINE
 8
Layer0_S_
10
1001.4180313809857
20
1.6339745962155618
30
8.459899447643692e-15
11
1001.6592123358831
21
1.5340741737109347
31
8.459899447643692e-15
 62
256
 0
LINE
 8
Layer0_S_
10
1001.6592123358831
20
1.5340741737109347
30
8.459899447643692e-15
11
1001.9180313809857
21
1.5000000000000029
31
8.459899447643692e-15
 62
256
 0
LINE
 8
Layer0_S_
10
1001.9180313809857
20
1.5000000000000029
30
8.459899447643692e-15
11
1002.1768504260882
21
1.5340741737109347
31
8.459899447643692e-15
 62
256
 0
LINE
 8
Layer0_S_
10
1002.1768504260882
20
1.5340741737109347
30
8.459899447643692e-15
11
1002.4180313809858
21
1.6339745962155618
31
8.459899447643692e-15
 62
256
 0
LINE
 8
Layer0_S_
10
1008.9180313809858
20
3.499999999999999
30
8.459899447643692e-15
11
1008.6592123358832
21
3.4659258262890673
31
8.459899447643692e-15
 62
256
 0
LINE
 8
Layer0_S_
10
1008.6592123358832
20
3.4659258262890673
30
8.459899447643692e-15
11
1008.4180313809857
21
3.36602540378444
31
8.459899447643692e-15
 62
256
 0
LINE
 8
Layer0_S_
10
1008.4180313809857
20
3.36602540378444
30
8.459899447643692e-15
11
1008.2109245997991
21
3.207106781186545
31
8.459899447643692e-15
 62
256
 0
LINE
 8
Layer0_S_
10
1008.2109245997991
20
3.207106781186545
30
8.459899447643692e-15
11
1008.0520059772011
21
3.0
31
8.459899447643692e-15
 62
256
 0
LINE
 8
Layer0_S_
10
1008.0520059772011
20
3.0
30
8.459899447643692e-15
11
1007.9521055546966
21
2.758819045102524
31
8.459899447643692e-15
 62
256
 0
LINE
 8
Layer0_S_
10
1007.9521055546966
20
2.758819045102524
30
8.459899447643692e-15
11
1007.9180313809858
21
2.500000000000001
31
8.459899447643692e-15
 62
256
 0
LINE
 8
Layer0_S_
10
1007.9180313809858
20
2.500000000000001
30
8.459899447643692e-15
11
1007.9521055546966
21
2.2411809548974784
31
8.459899447643692e-15
 62
256
 0
LINE
 8
Layer0_S_
10
1007.9521055546966
20
2.2411809548974784
30
8.459899447643692e-15
11
1008.0520059772011
21
2.0000000000000018
31
8.459899447643692e-15
 62
256
 0
LINE
 8
Layer0_S_
10
1008.0520059772011
20
2.0000000000000018
30
8.459899447643692e-15
11
1008.2109245997991
21
1.7928932188134574
31
8.459899447643692e-15
 62
256
 0
LINE
 8
Layer0_S_
10
1008.2109245997991
20
1.7928932188134574
30
8.459899447643692e-15
11
1008.4180313809857
21
1.6339745962155618
31
8.459899447643692e-15
 62
256
 0
LINE
 8
Layer0_S_
10
1008.4180313809857
20
1.6339745962155618
30
8.459899447643692e-15
11
1008.6592123358832
21
1.5340741737109347
31
8.459899447643692e-15
 62
256
 0
LINE
 8
Layer0_S_
10
1008.6592123358832
20
1.5340741737109347
30
8.459899447643692e-15
11
1008.9180313809858
21
1.5000000000000029
31
8.459899447643692e-15
 62
256
 0
LINE
 8
Layer0_S_
10
1008.9180313809858
20
1.5000000000000029
30
8.459899447643692e-15
11
1009.1768504260883
21
1.5340741737109347
31
8.459899447643692e-15
 62
256
 0
LINE
 8
Layer0_S_
10
1009.1768504260883
20
1.5340741737109347
30
8.459899447643692e-15
11
1009.4180313809857
21
1.6339745962155618
31
8.459899447643692e-15
 62
256
 0
LINE
 8
Layer0_S_
10
1009.4180313809857
20
1.6339745962155618
30
8.459899447643692e-15
11
1009.6251381621723
21
1.7928932188134519
31
8.459899447643692e-15
 62
256
 0
LINE
 8
Layer0_S_
10
1009.6251381621723
20
1.7928932188134519
30
8.459899447643692e-15
11
1009.7840567847701
21
2.0000000000000018
31
8.459899447643692e-15
 62
256
 0
LINE
 8
Layer0_S_
10
1009.7840567847701
20
2.0000000000000018
30
8.459899447643692e-15
11
1009.8839572072746
21
2.2411809548974784
31
8.459899447643692e-15
 62
256
 0
LINE
 8
Layer0_S_
10
1009.8839572072746
20
2.2411809548974784
30
8.459899447643692e-15
11
1009.9180313809857
21
2.500000000000001
31
8.459899447643692e-15
 62
256
 0
LINE
 8
Layer0_S_
10
1009.9180313809857
20
2.500000000000001
30
8.459899447643692e-15
11
1009.8839572072746
21
2.758819045102518
31
8.459899447643692e-15
 62
256
 0
LINE
 8
Layer0_S_
10
1009.8839572072746
20
2.758819045102518
30
8.459899447643692e-15
11
1009.7840567847701
21
3.0
31
8.459899447643692e-15
 62
256
 0
LINE
 8
Layer0_S_
10
1009.7840567847701
20
3.0
30
8.459899447643692e-15
11
1009.6251381621723
21
3.207106781186545
31
8.459899447643692e-15
 62
256
 0
LINE
 8
Layer0_S_
10
1009.6251381621723
20
3.207106781186545
30
8.459899447643692e-15
11
1009.4180313809857
21
3.36602540378444
31
8.459899447643692e-15
 62
256
 0
LINE
 8
Layer0_S_
10
1009.4180313809857
20
3.36602540378444
30
8.459899447643692e-15
11
1009.1768504260883
21
3.4659258262890673
31
8.459899447643692e-15
 62
256
 0
LINE
 8
Layer0_S_
10
1009.1768504260883
20
3.4659258262890673
30
8.459899447643692e-15
11
1008.9180313809858
21
3.499999999999999
31
8.459899447643692e-15
 62
256
 0
ENDSEC
 0
EOF
