 0
SECTION
 2
HEADER
 9
$ACADVER
 1
AC1006
 9
$LTSCALE
 40
1000.0
 0
ENDSEC
 0
SECTION
 2
TABLES
 0
TABLE
 2
LTYPE
 70
1
 0
LTYPE
 2
SKEMA_SOLID
 70
64
 3
Sketchup - Skema Ltype
 72
65
 73
0
 40
0.000000
 0
LTYPE
 2
SKEMA_DASHED
 70
64
 3
Sketchup - Skema Ltype
 72
65
 73
2
 40
0.1
 49
0.05
 49
-0.05
 0
LTYPE
 2
SKEMA_DOTTED
 70
64
 3
Sketchup - Skema Ltype
 72
65
 73
2
 40
00.1
 49
0.0
 49
-00.1
 0
ENDTAB
 0
TABLE
 2
LAYER
 70
6
 0
LAYER
 2
Layer0_S_
 70
64
 62
20
 6
SKEMA_SOLID
 0
ENDTAB
 0
TABLE
 2
STYLE
 70
0
 0
ENDTAB
 0
ENDSEC
 0
SECTION
 2
BLOCKS
 0
ENDSEC
 0
SECTION
 2
ENTITIES
 0
LINE
 8
Layer0_S_
10
811.1393437936619
20
1.127986593019159e-14
30
0.0
11
823.1393437936619
21
0.0
31
0.0
 62
256
 0
LINE
 8
Layer0_S_
10
806.1393437936619
20
5.000000000000013
30
0.0
11
724.1393437936619
21
5.000000000000013
31
0.0
 62
256
 0
LINE
 8
Layer0_S_
10
662.1393437936619
20
0.0
30
0.0
11
719.1393437936619
21
0.0
31
0.0
 62
256
 0
LINE
 8
Layer0_S_
10
650.1393437936619
20
127.99999999999993
30
0.0
11
650.1393437936619
21
12.0
31
0.0
 62
256
 0
LINE
 8
Layer0_S_
10
823.1393437936619
20
139.99999999999991
30
0.0
11
662.1393437936619
21
139.99999999999991
31
0.0
 62
256
 0
LINE
 8
Layer0_S_
10
835.1393437936619
20
12.0
30
0.0
11
835.1393437936619
21
127.99999999999993
31
0.0
 62
256
 0
LINE
 8
Layer0_S_
10
806.1393437936619
20
5.000000000000013
30
0.0
11
806.7919747547621
21
4.957224306869063
31
0.0
 62
256
 0
LINE
 8
Layer0_S_
10
806.7919747547621
20
4.957224306869063
30
0.0
11
807.4334390191744
21
4.8296291314453486
31
0.0
 62
256
 0
LINE
 8
Layer0_S_
10
807.4334390191744
20
4.8296291314453486
30
0.0
11
808.0527609554873
21
4.61939766255645
31
0.0
 62
256
 0
LINE
 8
Layer0_S_
10
808.0527609554873
20
4.61939766255645
30
0.0
11
808.6393437936619
21
4.330127018922202
31
0.0
 62
256
 0
LINE
 8
Layer0_S_
10
808.6393437936619
20
4.330127018922202
30
0.0
11
809.1831509387055
21
3.9667667014561854
31
0.0
 62
256
 0
LINE
 8
Layer0_S_
10
809.1831509387055
20
3.9667667014561854
30
0.0
11
809.6748776995946
21
3.5355339059327466
31
0.0
 62
256
 0
LINE
 8
Layer0_S_
10
809.6748776995946
20
3.5355339059327466
30
0.0
11
810.1061104951181
21
3.0438071450436137
31
0.0
 62
256
 0
LINE
 8
Layer0_S_
10
810.1061104951181
20
3.0438071450436137
30
0.0
11
810.4694708125841
21
2.5000000000000067
31
0.0
 62
256
 0
LINE
 8
Layer0_S_
10
810.4694708125841
20
2.5000000000000067
30
0.0
11
810.7587414562183
21
1.91341716182546
31
0.0
 62
256
 0
LINE
 8
Layer0_S_
10
810.7587414562183
20
1.91341716182546
30
0.0
11
810.9689729251072
21
1.294095225512614
31
0.0
 62
256
 0
LINE
 8
Layer0_S_
10
810.9689729251072
20
1.294095225512614
30
0.0
11
811.0965681005309
21
0.6526309611002649
31
0.0
 62
256
 0
LINE
 8
Layer0_S_
10
811.0965681005309
20
0.6526309611002649
30
0.0
11
811.1393437936619
21
1.127986593019159e-14
31
0.0
 62
256
 0
LINE
 8
Layer0_S_
10
724.1393437936619
20
5.000000000000013
30
0.0
11
723.4867128325617
21
4.957224306869063
31
0.0
 62
256
 0
LINE
 8
Layer0_S_
10
723.4867128325617
20
4.957224306869063
30
0.0
11
722.8452485681493
21
4.8296291314453486
31
0.0
 62
256
 0
LINE
 8
Layer0_S_
10
722.8452485681493
20
4.8296291314453486
30
0.0
11
722.2259266318365
21
4.619397662556439
31
0.0
 62
256
 0
LINE
 8
Layer0_S_
10
722.2259266318365
20
4.619397662556439
30
0.0
11
721.6393437936619
21
4.330127018922202
31
0.0
 62
256
 0
LINE
 8
Layer0_S_
10
721.6393437936619
20
4.330127018922202
30
0.0
11
721.0955366486182
21
3.9667667014561854
31
0.0
 62
256
 0
LINE
 8
Layer0_S_
10
721.0955366486182
20
3.9667667014561854
30
0.0
11
720.6038098877292
21
3.5355339059327466
31
0.0
 62
256
 0
LINE
 8
Layer0_S_
10
720.6038098877292
20
3.5355339059327466
30
0.0
11
720.1725770922058
21
3.0438071450436026
31
0.0
 62
256
 0
LINE
 8
Layer0_S_
10
720.1725770922058
20
3.0438071450436026
30
0.0
11
719.8092167747396
21
2.5000000000000067
31
0.0
 62
256
 0
LINE
 8
Layer0_S_
10
719.8092167747396
20
2.5000000000000067
30
0.0
11
719.5199461311054
21
1.9134171618254487
31
0.0
 62
256
 0
LINE
 8
Layer0_S_
10
719.5199461311054
20
1.9134171618254487
30
0.0
11
719.3097146622165
21
1.2940952255126026
31
0.0
 62
256
 0
LINE
 8
Layer0_S_
10
719.3097146622165
20
1.2940952255126026
30
0.0
11
719.1821194867929
21
0.6526309611002649
31
0.0
 62
256
 0
LINE
 8
Layer0_S_
10
719.1821194867929
20
0.6526309611002649
30
0.0
11
719.1393437936619
21
0.0
31
0.0
 62
256
 0
LINE
 8
Layer0_S_
10
662.1393437936619
20
0.0
30
0.0
11
660.5730294870212
21
0.10266166351427745
31
0.0
 62
256
 0
LINE
 8
Layer0_S_
10
660.5730294870212
20
0.10266166351427745
30
0.0
11
659.0335152524316
21
0.40889008453118103
31
0.0
 62
256
 0
LINE
 8
Layer0_S_
10
659.0335152524316
20
0.40889008453118103
30
0.0
11
657.5471426052808
21
0.9134456098645543
31
0.0
 62
256
 0
LINE
 8
Layer0_S_
10
657.5471426052808
20
0.9134456098645543
30
0.0
11
656.139343793662
21
1.6076951545867417
31
0.0
 62
256
 0
LINE
 8
Layer0_S_
10
656.139343793662
20
1.6076951545867417
30
0.0
11
654.8342066455572
21
2.4797599165051807
31
0.0
 62
256
 0
LINE
 8
Layer0_S_
10
654.8342066455572
20
2.4797599165051807
30
0.0
11
653.6540624194233
21
3.514718625761432
31
0.0
 62
256
 0
LINE
 8
Layer0_S_
10
653.6540624194233
20
3.514718625761432
30
0.0
11
652.619103710167
21
4.694862851895357
31
0.0
 62
256
 0
LINE
 8
Layer0_S_
10
652.619103710167
20
4.694862851895357
30
0.0
11
651.7470389482486
21
6.0
31
0.0
 62
256
 0
LINE
 8
Layer0_S_
10
651.7470389482486
20
6.0
30
0.0
11
651.0527894035265
21
7.407798811618921
31
0.0
 62
256
 0
LINE
 8
Layer0_S_
10
651.0527894035265
20
7.407798811618921
30
0.0
11
650.5482338781931
21
8.89417145876975
31
0.0
 62
256
 0
LINE
 8
Layer0_S_
10
650.5482338781931
20
8.89417145876975
30
0.0
11
650.2420054571761
21
10.433685693359385
31
0.0
 62
256
 0
LINE
 8
Layer0_S_
10
650.2420054571761
20
10.433685693359385
30
0.0
11
650.1393437936619
21
12.0
31
0.0
 62
256
 0
LINE
 8
Layer0_S_
10
662.1393437936619
20
139.99999999999991
30
0.0
11
660.5730294870212
21
139.89733833648563
31
0.0
 62
256
 0
LINE
 8
Layer0_S_
10
660.5730294870212
20
139.89733833648563
30
0.0
11
659.0335152524316
21
139.5911099154687
31
0.0
 62
256
 0
LINE
 8
Layer0_S_
10
659.0335152524316
20
139.5911099154687
30
0.0
11
657.5471426052808
21
139.08655439013535
31
0.0
 62
256
 0
LINE
 8
Layer0_S_
10
657.5471426052808
20
139.08655439013535
30
0.0
11
656.139343793662
21
138.3923048454132
31
0.0
 62
256
 0
LINE
 8
Layer0_S_
10
656.139343793662
20
138.3923048454132
30
0.0
11
654.8342066455572
21
137.52024008349474
31
0.0
 62
256
 0
LINE
 8
Layer0_S_
10
654.8342066455572
20
137.52024008349474
30
0.0
11
653.6540624194233
21
136.4852813742385
31
0.0
 62
256
 0
LINE
 8
Layer0_S_
10
653.6540624194233
20
136.4852813742385
30
0.0
11
652.619103710167
21
135.30513714810456
31
0.0
 62
256
 0
LINE
 8
Layer0_S_
10
652.619103710167
20
135.30513714810456
30
0.0
11
651.7470389482486
21
133.99999999999994
31
0.0
 62
256
 0
LINE
 8
Layer0_S_
10
651.7470389482486
20
133.99999999999994
30
0.0
11
651.0527894035265
21
132.592201188381
31
0.0
 62
256
 0
LINE
 8
Layer0_S_
10
651.0527894035265
20
132.592201188381
30
0.0
11
650.5482338781931
21
131.10582854123018
31
0.0
 62
256
 0
LINE
 8
Layer0_S_
10
650.5482338781931
20
131.10582854123018
30
0.0
11
650.2420054571761
21
129.56631430664052
31
0.0
 62
256
 0
LINE
 8
Layer0_S_
10
650.2420054571761
20
129.56631430664052
30
0.0
11
650.1393437936619
21
127.99999999999993
31
0.0
 62
256
 0
LINE
 8
Layer0_S_
10
823.1393437936619
20
139.99999999999991
30
0.0
11
824.7056581003025
21
139.89733833648563
31
0.0
 62
256
 0
LINE
 8
Layer0_S_
10
824.7056581003025
20
139.89733833648563
30
0.0
11
826.245172334892
21
139.5911099154687
31
0.0
 62
256
 0
LINE
 8
Layer0_S_
10
826.245172334892
20
139.5911099154687
30
0.0
11
827.7315449820429
21
139.08655439013535
31
0.0
 62
256
 0
LINE
 8
Layer0_S_
10
827.7315449820429
20
139.08655439013535
30
0.0
11
829.1393437936619
21
138.3923048454132
31
0.0
 62
256
 0
LINE
 8
Layer0_S_
10
829.1393437936619
20
138.3923048454132
30
0.0
11
830.4444809417664
21
137.52024008349474
31
0.0
 62
256
 0
LINE
 8
Layer0_S_
10
830.4444809417664
20
137.52024008349474
30
0.0
11
831.6246251679004
21
136.4852813742385
31
0.0
 62
256
 0
LINE
 8
Layer0_S_
10
831.6246251679004
20
136.4852813742385
30
0.0
11
832.6595838771566
21
135.30513714810456
31
0.0
 62
256
 0
LINE
 8
Layer0_S_
10
832.6595838771566
20
135.30513714810456
30
0.0
11
833.531648639075
21
133.99999999999994
31
0.0
 62
256
 0
LINE
 8
Layer0_S_
10
833.531648639075
20
133.99999999999994
30
0.0
11
834.2258981837973
21
132.592201188381
31
0.0
 62
256
 0
LINE
 8
Layer0_S_
10
834.2258981837973
20
132.592201188381
30
0.0
11
834.7304537091306
21
131.10582854123018
31
0.0
 62
256
 0
LINE
 8
Layer0_S_
10
834.7304537091306
20
131.10582854123018
30
0.0
11
835.0366821301475
21
129.56631430664052
31
0.0
 62
256
 0
LINE
 8
Layer0_S_
10
835.0366821301475
20
129.56631430664052
30
0.0
11
835.1393437936619
21
127.99999999999993
31
0.0
 62
256
 0
LINE
 8
Layer0_S_
10
823.1393437936619
20
0.0
30
0.0
11
824.7056581003025
21
0.10266166351427745
31
0.0
 62
256
 0
LINE
 8
Layer0_S_
10
824.7056581003025
20
0.10266166351427745
30
0.0
11
826.245172334892
21
0.40889008453118103
31
0.0
 62
256
 0
LINE
 8
Layer0_S_
10
826.245172334892
20
0.40889008453118103
30
0.0
11
827.7315449820429
21
0.9134456098645543
31
0.0
 62
256
 0
LINE
 8
Layer0_S_
10
827.7315449820429
20
0.9134456098645543
30
0.0
11
829.1393437936619
21
1.6076951545867417
31
0.0
 62
256
 0
LINE
 8
Layer0_S_
10
829.1393437936619
20
1.6076951545867417
30
0.0
11
830.4444809417664
21
2.4797599165051807
31
0.0
 62
256
 0
LINE
 8
Layer0_S_
10
830.4444809417664
20
2.4797599165051807
30
0.0
11
831.6246251679004
21
3.514718625761432
31
0.0
 62
256
 0
LINE
 8
Layer0_S_
10
831.6246251679004
20
3.514718625761432
30
0.0
11
832.6595838771566
21
4.694862851895357
31
0.0
 62
256
 0
LINE
 8
Layer0_S_
10
832.6595838771566
20
4.694862851895357
30
0.0
11
833.5316486390752
21
6.0
31
0.0
 62
256
 0
LINE
 8
Layer0_S_
10
833.5316486390752
20
6.0
30
0.0
11
834.2258981837973
21
7.407798811618921
31
0.0
 62
256
 0
LINE
 8
Layer0_S_
10
834.2258981837973
20
7.407798811618921
30
0.0
11
834.7304537091306
21
8.89417145876975
31
0.0
 62
256
 0
LINE
 8
Layer0_S_
10
834.7304537091306
20
8.89417145876975
30
0.0
11
835.0366821301475
21
10.433685693359385
31
0.0
 62
256
 0
LINE
 8
Layer0_S_
10
835.0366821301475
20
10.433685693359385
30
0.0
11
835.1393437936619
21
12.0
31
0.0
 62
256
 0
LINE
 8
Layer0_S_
10
665.1393437936619
20
127.99999999999993
30
0.0
11
665.0371212725291
21
127.22354286469236
31
0.0
 62
256
 0
LINE
 8
Layer0_S_
10
665.0371212725291
20
127.22354286469236
30
0.0
11
664.7374200050151
21
126.49999999999993
31
0.0
 62
256
 0
LINE
 8
Layer0_S_
10
664.7374200050151
20
126.49999999999993
30
0.0
11
664.2606641372215
21
125.8786796564403
31
0.0
 62
256
 0
LINE
 8
Layer0_S_
10
664.2606641372215
20
125.8786796564403
30
0.0
11
663.6393437936619
21
125.4019237886466
31
0.0
 62
256
 0
LINE
 8
Layer0_S_
10
663.6393437936619
20
125.4019237886466
30
0.0
11
662.9158009289694
21
125.10222252113275
31
0.0
 62
256
 0
LINE
 8
Layer0_S_
10
662.9158009289694
20
125.10222252113275
30
0.0
11
662.1393437936619
21
124.99999999999993
31
0.0
 62
256
 0
LINE
 8
Layer0_S_
10
662.1393437936619
20
124.99999999999993
30
0.0
11
661.3628866583543
21
125.10222252113275
31
0.0
 62
256
 0
LINE
 8
Layer0_S_
10
661.3628866583543
20
125.10222252113275
30
0.0
11
660.6393437936619
21
125.4019237886466
31
0.0
 62
256
 0
LINE
 8
Layer0_S_
10
660.6393437936619
20
125.4019237886466
30
0.0
11
660.0180234501022
21
125.8786796564403
31
0.0
 62
256
 0
LINE
 8
Layer0_S_
10
660.0180234501022
20
125.8786796564403
30
0.0
11
659.5412675823086
21
126.49999999999993
31
0.0
 62
256
 0
LINE
 8
Layer0_S_
10
659.5412675823086
20
126.49999999999993
30
0.0
11
659.2415663147947
21
127.22354286469236
31
0.0
 62
256
 0
LINE
 8
Layer0_S_
10
659.2415663147947
20
127.22354286469236
30
0.0
11
659.1393437936619
21
127.99999999999993
31
0.0
 62
256
 0
LINE
 8
Layer0_S_
10
659.1393437936619
20
127.99999999999993
30
0.0
11
659.2415663147947
21
128.77645713530748
31
0.0
 62
256
 0
LINE
 8
Layer0_S_
10
659.2415663147947
20
128.77645713530748
30
0.0
11
659.5412675823086
21
129.49999999999991
31
0.0
 62
256
 0
LINE
 8
Layer0_S_
10
659.5412675823086
20
129.49999999999991
30
0.0
11
660.0180234501022
21
130.12132034355955
31
0.0
 62
256
 0
LINE
 8
Layer0_S_
10
660.0180234501022
20
130.12132034355955
30
0.0
11
660.6393437936619
21
130.59807621135326
31
0.0
 62
256
 0
LINE
 8
Layer0_S_
10
660.6393437936619
20
130.59807621135326
30
0.0
11
661.3628866583543
21
130.8977774788671
31
0.0
 62
256
 0
LINE
 8
Layer0_S_
10
661.3628866583543
20
130.8977774788671
30
0.0
11
662.1393437936619
21
130.99999999999991
31
0.0
 62
256
 0
LINE
 8
Layer0_S_
10
662.1393437936619
20
130.99999999999991
30
0.0
11
662.9158009289694
21
130.8977774788671
31
0.0
 62
256
 0
LINE
 8
Layer0_S_
10
662.9158009289694
20
130.8977774788671
30
0.0
11
663.6393437936619
21
130.59807621135326
31
0.0
 62
256
 0
LINE
 8
Layer0_S_
10
663.6393437936619
20
130.59807621135326
30
0.0
11
664.2606641372215
21
130.12132034355955
31
0.0
 62
256
 0
LINE
 8
Layer0_S_
10
664.2606641372215
20
130.12132034355955
30
0.0
11
664.7374200050151
21
129.49999999999991
31
0.0
 62
256
 0
LINE
 8
Layer0_S_
10
664.7374200050151
20
129.49999999999991
30
0.0
11
665.0371212725291
21
128.77645713530748
31
0.0
 62
256
 0
LINE
 8
Layer0_S_
10
665.0371212725291
20
128.77645713530748
30
0.0
11
665.1393437936619
21
127.99999999999993
31
0.0
 62
256
 0
LINE
 8
Layer0_S_
10
659.1393437936619
20
12.0
30
0.0
11
659.2415663147947
21
12.776457135307563
31
0.0
 62
256
 0
LINE
 8
Layer0_S_
10
659.2415663147947
20
12.776457135307563
30
0.0
11
659.5412675823086
21
13.499999999999998
31
0.0
 62
256
 0
LINE
 8
Layer0_S_
10
659.5412675823086
20
13.499999999999998
30
0.0
11
660.0180234501022
21
14.121320343559637
31
0.0
 62
256
 0
LINE
 8
Layer0_S_
10
660.0180234501022
20
14.121320343559637
30
0.0
11
660.6393437936619
21
14.598076211353312
31
0.0
 62
256
 0
LINE
 8
Layer0_S_
10
660.6393437936619
20
14.598076211353312
30
0.0
11
661.3628866583543
21
14.8977774788672
31
0.0
 62
256
 0
LINE
 8
Layer0_S_
10
661.3628866583543
20
14.8977774788672
30
0.0
11
662.1393437936619
21
14.999999999999995
31
0.0
 62
256
 0
LINE
 8
Layer0_S_
10
662.1393437936619
20
14.999999999999995
30
0.0
11
662.9158009289694
21
14.8977774788672
31
0.0
 62
256
 0
LINE
 8
Layer0_S_
10
662.9158009289694
20
14.8977774788672
30
0.0
11
663.6393437936619
21
14.598076211353312
31
0.0
 62
256
 0
LINE
 8
Layer0_S_
10
663.6393437936619
20
14.598076211353312
30
0.0
11
664.2606641372215
21
14.121320343559637
31
0.0
 62
256
 0
LINE
 8
Layer0_S_
10
664.2606641372215
20
14.121320343559637
30
0.0
11
664.7374200050151
21
13.499999999999998
31
0.0
 62
256
 0
LINE
 8
Layer0_S_
10
664.7374200050151
20
13.499999999999998
30
0.0
11
665.0371212725291
21
12.776457135307563
31
0.0
 62
256
 0
LINE
 8
Layer0_S_
10
665.0371212725291
20
12.776457135307563
30
0.0
11
665.1393437936619
21
12.0
31
0.0
 62
256
 0
LINE
 8
Layer0_S_
10
665.1393437936619
20
12.0
30
0.0
11
665.0371212725291
21
11.223542864692444
31
0.0
 62
256
 0
LINE
 8
Layer0_S_
10
665.0371212725291
20
11.223542864692444
30
0.0
11
664.7374200050151
21
10.500000000000004
31
0.0
 62
256
 0
LINE
 8
Layer0_S_
10
664.7374200050151
20
10.500000000000004
30
0.0
11
664.2606641372215
21
9.878679656440363
31
0.0
 62
256
 0
LINE
 8
Layer0_S_
10
664.2606641372215
20
9.878679656440363
30
0.0
11
663.6393437936619
21
9.40192378864669
31
0.0
 62
256
 0
LINE
 8
Layer0_S_
10
663.6393437936619
20
9.40192378864669
30
0.0
11
662.9158009289694
21
9.102222521132807
31
0.0
 62
256
 0
LINE
 8
Layer0_S_
10
662.9158009289694
20
9.102222521132807
30
0.0
11
662.1393437936619
21
9.000000000000005
31
0.0
 62
256
 0
LINE
 8
Layer0_S_
10
662.1393437936619
20
9.000000000000005
30
0.0
11
661.3628866583543
21
9.102222521132807
31
0.0
 62
256
 0
LINE
 8
Layer0_S_
10
661.3628866583543
20
9.102222521132807
30
0.0
11
660.6393437936619
21
9.40192378864669
31
0.0
 62
256
 0
LINE
 8
Layer0_S_
10
660.6393437936619
20
9.40192378864669
30
0.0
11
660.0180234501022
21
9.878679656440363
31
0.0
 62
256
 0
LINE
 8
Layer0_S_
10
660.0180234501022
20
9.878679656440363
30
0.0
11
659.5412675823086
21
10.500000000000004
31
0.0
 62
256
 0
LINE
 8
Layer0_S_
10
659.5412675823086
20
10.500000000000004
30
0.0
11
659.2415663147947
21
11.223542864692444
31
0.0
 62
256
 0
LINE
 8
Layer0_S_
10
659.2415663147947
20
11.223542864692444
30
0.0
11
659.1393437936619
21
12.0
31
0.0
 62
256
 0
LINE
 8
Layer0_S_
10
820.1393437936617
20
12.0
30
0.0
11
820.2415663147946
21
12.776457135307563
31
0.0
 62
256
 0
LINE
 8
Layer0_S_
10
820.2415663147946
20
12.776457135307563
30
0.0
11
820.5412675823085
21
13.499999999999998
31
0.0
 62
256
 0
LINE
 8
Layer0_S_
10
820.5412675823085
20
13.499999999999998
30
0.0
11
821.0180234501022
21
14.121320343559642
31
0.0
 62
256
 0
LINE
 8
Layer0_S_
10
821.0180234501022
20
14.121320343559642
30
0.0
11
821.6393437936619
21
14.598076211353312
31
0.0
 62
256
 0
LINE
 8
Layer0_S_
10
821.6393437936619
20
14.598076211353312
30
0.0
11
822.3628866583542
21
14.897777478867205
31
0.0
 62
256
 0
LINE
 8
Layer0_S_
10
822.3628866583542
20
14.897777478867205
30
0.0
11
823.1393437936619
21
15.0
31
0.0
 62
256
 0
LINE
 8
Layer0_S_
10
823.1393437936619
20
15.0
30
0.0
11
823.9158009289695
21
14.897777478867205
31
0.0
 62
256
 0
LINE
 8
Layer0_S_
10
823.9158009289695
20
14.897777478867205
30
0.0
11
824.6393437936619
21
14.598076211353312
31
0.0
 62
256
 0
LINE
 8
Layer0_S_
10
824.6393437936619
20
14.598076211353312
30
0.0
11
825.2606641372214
21
14.121320343559642
31
0.0
 62
256
 0
LINE
 8
Layer0_S_
10
825.2606641372214
20
14.121320343559642
30
0.0
11
825.7374200050152
21
13.499999999999998
31
0.0
 62
256
 0
LINE
 8
Layer0_S_
10
825.7374200050152
20
13.499999999999998
30
0.0
11
826.037121272529
21
12.776457135307563
31
0.0
 62
256
 0
LINE
 8
Layer0_S_
10
826.037121272529
20
12.776457135307563
30
0.0
11
826.1393437936619
21
12.0
31
0.0
 62
256
 0
LINE
 8
Layer0_S_
10
826.1393437936619
20
12.0
30
0.0
11
826.037121272529
21
11.223542864692444
31
0.0
 62
256
 0
LINE
 8
Layer0_S_
10
826.037121272529
20
11.223542864692444
30
0.0
11
825.7374200050152
21
10.500000000000004
31
0.0
 62
256
 0
LINE
 8
Layer0_S_
10
825.7374200050152
20
10.500000000000004
30
0.0
11
825.2606641372214
21
9.878679656440363
31
0.0
 62
256
 0
LINE
 8
Layer0_S_
10
825.2606641372214
20
9.878679656440363
30
0.0
11
824.6393437936619
21
9.40192378864669
31
0.0
 62
256
 0
LINE
 8
Layer0_S_
10
824.6393437936619
20
9.40192378864669
30
0.0
11
823.9158009289695
21
9.102222521132795
31
0.0
 62
256
 0
LINE
 8
Layer0_S_
10
823.9158009289695
20
9.102222521132795
30
0.0
11
823.1393437936619
21
9.000000000000005
31
0.0
 62
256
 0
LINE
 8
Layer0_S_
10
823.1393437936619
20
9.000000000000005
30
0.0
11
822.3628866583542
21
9.102222521132795
31
0.0
 62
256
 0
LINE
 8
Layer0_S_
10
822.3628866583542
20
9.102222521132795
30
0.0
11
821.6393437936619
21
9.40192378864669
31
0.0
 62
256
 0
LINE
 8
Layer0_S_
10
821.6393437936619
20
9.40192378864669
30
0.0
11
821.0180234501022
21
9.878679656440363
31
0.0
 62
256
 0
LINE
 8
Layer0_S_
10
821.0180234501022
20
9.878679656440363
30
0.0
11
820.5412675823085
21
10.500000000000004
31
0.0
 62
256
 0
LINE
 8
Layer0_S_
10
820.5412675823085
20
10.500000000000004
30
0.0
11
820.2415663147946
21
11.223542864692432
31
0.0
 62
256
 0
LINE
 8
Layer0_S_
10
820.2415663147946
20
11.223542864692432
30
0.0
11
820.1393437936617
21
12.0
31
0.0
 62
256
 0
LINE
 8
Layer0_S_
10
820.1393437936617
20
127.99999999999993
30
0.0
11
820.2415663147946
21
128.77645713530748
31
0.0
 62
256
 0
LINE
 8
Layer0_S_
10
820.2415663147946
20
128.77645713530748
30
0.0
11
820.5412675823085
21
129.49999999999991
31
0.0
 62
256
 0
LINE
 8
Layer0_S_
10
820.5412675823085
20
129.49999999999991
30
0.0
11
821.0180234501022
21
130.12132034355955
31
0.0
 62
256
 0
LINE
 8
Layer0_S_
10
821.0180234501022
20
130.12132034355955
30
0.0
11
821.6393437936619
21
130.59807621135326
31
0.0
 62
256
 0
LINE
 8
Layer0_S_
10
821.6393437936619
20
130.59807621135326
30
0.0
11
822.3628866583542
21
130.89777747886714
31
0.0
 62
256
 0
LINE
 8
Layer0_S_
10
822.3628866583542
20
130.89777747886714
30
0.0
11
823.1393437936619
21
130.99999999999991
31
0.0
 62
256
 0
LINE
 8
Layer0_S_
10
823.1393437936619
20
130.99999999999991
30
0.0
11
823.9158009289695
21
130.89777747886714
31
0.0
 62
256
 0
LINE
 8
Layer0_S_
10
823.9158009289695
20
130.89777747886714
30
0.0
11
824.6393437936619
21
130.59807621135326
31
0.0
 62
256
 0
LINE
 8
Layer0_S_
10
824.6393437936619
20
130.59807621135326
30
0.0
11
825.2606641372214
21
130.12132034355955
31
0.0
 62
256
 0
LINE
 8
Layer0_S_
10
825.2606641372214
20
130.12132034355955
30
0.0
11
825.7374200050152
21
129.49999999999991
31
0.0
 62
256
 0
LINE
 8
Layer0_S_
10
825.7374200050152
20
129.49999999999991
30
0.0
11
826.037121272529
21
128.77645713530748
31
0.0
 62
256
 0
LINE
 8
Layer0_S_
10
826.037121272529
20
128.77645713530748
30
0.0
11
826.1393437936619
21
127.99999999999993
31
0.0
 62
256
 0
LINE
 8
Layer0_S_
10
826.1393437936619
20
127.99999999999993
30
0.0
11
826.037121272529
21
127.22354286469236
31
0.0
 62
256
 0
LINE
 8
Layer0_S_
10
826.037121272529
20
127.22354286469236
30
0.0
11
825.7374200050152
21
126.49999999999993
31
0.0
 62
256
 0
LINE
 8
Layer0_S_
10
825.7374200050152
20
126.49999999999993
30
0.0
11
825.2606641372214
21
125.8786796564403
31
0.0
 62
256
 0
LINE
 8
Layer0_S_
10
825.2606641372214
20
125.8786796564403
30
0.0
11
824.6393437936619
21
125.4019237886466
31
0.0
 62
256
 0
LINE
 8
Layer0_S_
10
824.6393437936619
20
125.4019237886466
30
0.0
11
823.9158009289695
21
125.10222252113272
31
0.0
 62
256
 0
LINE
 8
Layer0_S_
10
823.9158009289695
20
125.10222252113272
30
0.0
11
823.1393437936619
21
124.99999999999993
31
0.0
 62
256
 0
LINE
 8
Layer0_S_
10
823.1393437936619
20
124.99999999999993
30
0.0
11
822.3628866583542
21
125.10222252113272
31
0.0
 62
256
 0
LINE
 8
Layer0_S_
10
822.3628866583542
20
125.10222252113272
30
0.0
11
821.6393437936619
21
125.4019237886466
31
0.0
 62
256
 0
LINE
 8
Layer0_S_
10
821.6393437936619
20
125.4019237886466
30
0.0
11
821.0180234501022
21
125.8786796564403
31
0.0
 62
256
 0
LINE
 8
Layer0_S_
10
821.0180234501022
20
125.8786796564403
30
0.0
11
820.5412675823085
21
126.49999999999993
31
0.0
 62
256
 0
LINE
 8
Layer0_S_
10
820.5412675823085
20
126.49999999999993
30
0.0
11
820.2415663147946
21
127.22354286469235
31
0.0
 62
256
 0
LINE
 8
Layer0_S_
10
820.2415663147946
20
127.22354286469235
30
0.0
11
820.1393437936617
21
127.99999999999993
31
0.0
 62
256
 0
LINE
 8
Layer0_S_
10
803.1274580114299
20
96.07999730980482
30
0.0
11
796.1393437936619
21
96.99999999999999
31
0.0
 62
256
 0
LINE
 8
Layer0_S_
10
796.1393437936619
20
96.99999999999999
30
0.0
11
789.1512295758938
21
96.07999730980482
31
0.0
 62
256
 0
LINE
 8
Layer0_S_
10
789.1512295758938
20
96.07999730980482
30
0.0
11
782.6393437936619
21
93.38268590217983
31
0.0
 62
256
 0
LINE
 8
Layer0_S_
10
782.6393437936619
20
93.38268590217983
30
0.0
11
777.047460701625
21
89.0918830920368
31
0.0
 62
256
 0
LINE
 8
Layer0_S_
10
777.047460701625
20
89.0918830920368
30
0.0
11
772.756657891482
21
83.5
31
0.0
 62
256
 0
LINE
 8
Layer0_S_
10
772.756657891482
20
83.5
30
0.0
11
770.059346483857
21
76.98811421776807
31
0.0
 62
256
 0
LINE
 8
Layer0_S_
10
770.059346483857
20
76.98811421776807
30
0.0
11
769.1393437936619
21
70.00000000000001
31
0.0
 62
256
 0
LINE
 8
Layer0_S_
10
769.1393437936619
20
70.00000000000001
30
0.0
11
770.059346483857
21
63.01188578223196
31
0.0
 62
256
 0
LINE
 8
Layer0_S_
10
770.059346483857
20
63.01188578223196
30
0.0
11
772.756657891482
21
56.50000000000002
31
0.0
 62
256
 0
LINE
 8
Layer0_S_
10
772.756657891482
20
56.50000000000002
30
0.0
11
777.047460701625
21
50.90811690796325
31
0.0
 62
256
 0
LINE
 8
Layer0_S_
10
777.047460701625
20
50.90811690796325
30
0.0
11
782.6393437936619
21
46.61731409782018
31
0.0
 62
256
 0
LINE
 8
Layer0_S_
10
782.6393437936619
20
46.61731409782018
30
0.0
11
789.1512295758938
21
43.92000269019517
31
0.0
 62
256
 0
LINE
 8
Layer0_S_
10
789.1512295758938
20
43.92000269019517
30
0.0
11
796.1393437936619
21
43.00000000000001
31
0.0
 62
256
 0
LINE
 8
Layer0_S_
10
796.1393437936619
20
43.00000000000001
30
0.0
11
803.1274580114299
21
43.920002690195155
31
0.0
 62
256
 0
LINE
 8
Layer0_S_
10
803.1274580114299
20
43.920002690195155
30
0.0
11
809.6393437936619
21
46.61731409782014
31
0.0
 62
256
 0
LINE
 8
Layer0_S_
10
809.6393437936619
20
46.61731409782014
30
0.0
11
815.2312268856986
21
50.9081169079632
31
0.0
 62
256
 0
LINE
 8
Layer0_S_
10
815.2312268856986
20
50.9081169079632
30
0.0
11
819.5220296958418
21
56.499999999999964
31
0.0
 62
256
 0
LINE
 8
Layer0_S_
10
819.5220296958418
20
56.499999999999964
30
0.0
11
822.2193411034667
21
63.011885782231914
31
0.0
 62
256
 0
LINE
 8
Layer0_S_
10
822.2193411034667
20
63.011885782231914
30
0.0
11
823.1393437936619
21
69.99999999999996
31
0.0
 62
256
 0
LINE
 8
Layer0_S_
10
823.1393437936619
20
69.99999999999996
30
0.0
11
822.2193411034667
21
76.98811421776801
31
0.0
 62
256
 0
LINE
 8
Layer0_S_
10
822.2193411034667
20
76.98811421776801
30
0.0
11
819.5220296958418
21
83.49999999999997
31
0.0
 62
256
 0
LINE
 8
Layer0_S_
10
819.5220296958418
20
83.49999999999997
30
0.0
11
815.2312268856986
21
89.09188309203675
31
0.0
 62
256
 0
LINE
 8
Layer0_S_
10
815.2312268856986
20
89.09188309203675
30
0.0
11
809.6393437936619
21
93.3826859021798
31
0.0
 62
256
 0
LINE
 8
Layer0_S_
10
809.6393437936619
20
93.3826859021798
30
0.0
11
803.1274580114299
21
96.07999730980482
31
0.0
 62
256
 0
LINE
 8
Layer0_S_
10
662.1393437936619
20
70.0
30
0.0
11
663.0593464838571
21
63.011885782231936
31
0.0
 62
256
 0
LINE
 8
Layer0_S_
10
663.0593464838571
20
63.011885782231936
30
0.0
11
665.7566578914821
21
56.5
31
0.0
 62
256
 0
LINE
 8
Layer0_S_
10
665.7566578914821
20
56.5
30
0.0
11
670.0474607016251
21
50.90811690796322
31
0.0
 62
256
 0
LINE
 8
Layer0_S_
10
670.0474607016251
20
50.90811690796322
30
0.0
11
675.6393437936619
21
46.617314097820156
31
0.0
 62
256
 0
LINE
 8
Layer0_S_
10
675.6393437936619
20
46.617314097820156
30
0.0
11
682.1512295758938
21
43.920002690195155
31
0.0
 62
256
 0
LINE
 8
Layer0_S_
10
682.1512295758938
20
43.920002690195155
30
0.0
11
689.1393437936619
21
43.0
31
0.0
 62
256
 0
LINE
 8
Layer0_S_
10
689.1393437936619
20
43.0
30
0.0
11
696.12745801143
21
43.920002690195155
31
0.0
 62
256
 0
LINE
 8
Layer0_S_
10
696.12745801143
20
43.920002690195155
30
0.0
11
702.6393437936619
21
46.617314097820156
31
0.0
 62
256
 0
LINE
 8
Layer0_S_
10
702.6393437936619
20
46.617314097820156
30
0.0
11
708.2312268856987
21
50.90811690796322
31
0.0
 62
256
 0
LINE
 8
Layer0_S_
10
708.2312268856987
20
50.90811690796322
30
0.0
11
712.5220296958418
21
56.499999999999986
31
0.0
 62
256
 0
LINE
 8
Layer0_S_
10
712.5220296958418
20
56.499999999999986
30
0.0
11
715.2193411034667
21
63.01188578223193
31
0.0
 62
256
 0
LINE
 8
Layer0_S_
10
715.2193411034667
20
63.01188578223193
30
0.0
11
716.1393437936619
21
70.0
31
0.0
 62
256
 0
LINE
 8
Layer0_S_
10
716.1393437936619
20
70.0
30
0.0
11
715.2193411034667
21
76.98811421776804
31
0.0
 62
256
 0
LINE
 8
Layer0_S_
10
715.2193411034667
20
76.98811421776804
30
0.0
11
712.5220296958418
21
83.49999999999999
31
0.0
 62
256
 0
LINE
 8
Layer0_S_
10
712.5220296958418
20
83.49999999999999
30
0.0
11
708.2312268856987
21
89.09188309203677
31
0.0
 62
256
 0
LINE
 8
Layer0_S_
10
708.2312268856987
20
89.09188309203677
30
0.0
11
702.6393437936619
21
93.38268590217983
31
0.0
 62
256
 0
LINE
 8
Layer0_S_
10
702.6393437936619
20
93.38268590217983
30
0.0
11
696.12745801143
21
96.07999730980482
31
0.0
 62
256
 0
LINE
 8
Layer0_S_
10
696.12745801143
20
96.07999730980482
30
0.0
11
689.1393437936619
21
96.99999999999999
31
0.0
 62
256
 0
LINE
 8
Layer0_S_
10
689.1393437936619
20
96.99999999999999
30
0.0
11
682.1512295758938
21
96.07999730980484
31
0.0
 62
256
 0
LINE
 8
Layer0_S_
10
682.1512295758938
20
96.07999730980484
30
0.0
11
675.6393437936619
21
93.38268590217984
31
0.0
 62
256
 0
LINE
 8
Layer0_S_
10
675.6393437936619
20
93.38268590217984
30
0.0
11
670.0474607016251
21
89.09188309203678
31
0.0
 62
256
 0
LINE
 8
Layer0_S_
10
670.0474607016251
20
89.09188309203678
30
0.0
11
665.7566578914821
21
83.5
31
0.0
 62
256
 0
LINE
 8
Layer0_S_
10
665.7566578914821
20
83.5
30
0.0
11
663.0593464838571
21
76.98811421776807
31
0.0
 62
256
 0
LINE
 8
Layer0_S_
10
663.0593464838571
20
76.98811421776807
30
0.0
11
662.1393437936619
21
70.0
31
0.0
 62
256
 0
LINE
 8
Layer0_S_
10
771.1393437936619
20
70.0
30
0.0
11
771.9911981364352
21
63.52952387243698
31
0.0
 62
256
 0
LINE
 8
Layer0_S_
10
771.9911981364352
20
63.52952387243698
30
0.0
11
774.4887086990509
21
57.49999999999999
31
0.0
 62
256
 0
LINE
 8
Layer0_S_
10
774.4887086990509
20
57.49999999999999
30
0.0
11
778.4616742639981
21
52.32233047033632
31
0.0
 62
256
 0
LINE
 8
Layer0_S_
10
778.4616742639981
20
52.32233047033632
30
0.0
11
783.6393437936619
21
48.34936490538903
31
0.0
 62
256
 0
LINE
 8
Layer0_S_
10
783.6393437936619
20
48.34936490538903
30
0.0
11
789.6688676660989
21
45.851854342773294
31
0.0
 62
256
 0
LINE
 8
Layer0_S_
10
789.6688676660989
20
45.851854342773294
30
0.0
11
796.1393437936619
21
45.0
31
0.0
 62
256
 0
LINE
 8
Layer0_S_
10
796.1393437936619
20
45.0
30
0.0
11
802.6098199212248
21
45.851854342773294
31
0.0
 62
256
 0
LINE
 8
Layer0_S_
10
802.6098199212248
20
45.851854342773294
30
0.0
11
808.6393437936619
21
48.34936490538903
31
0.0
 62
256
 0
LINE
 8
Layer0_S_
10
808.6393437936619
20
48.34936490538903
30
0.0
11
813.8170133233256
21
52.32233047033631
31
0.0
 62
256
 0
LINE
 8
Layer0_S_
10
813.8170133233256
20
52.32233047033631
30
0.0
11
817.7899788882728
21
57.499999999999986
31
0.0
 62
256
 0
LINE
 8
Layer0_S_
10
817.7899788882728
20
57.499999999999986
30
0.0
11
820.2874894508886
21
63.52952387243697
31
0.0
 62
256
 0
LINE
 8
Layer0_S_
10
820.2874894508886
20
63.52952387243697
30
0.0
11
821.139343793662
21
70.0
31
0.0
 62
256
 0
LINE
 8
Layer0_S_
10
821.139343793662
20
70.0
30
0.0
11
820.2874894508886
21
76.470476127563
31
0.0
 62
256
 0
LINE
 8
Layer0_S_
10
820.2874894508886
20
76.470476127563
30
0.0
11
817.7899788882728
21
82.49999999999999
31
0.0
 62
256
 0
LINE
 8
Layer0_S_
10
817.7899788882728
20
82.49999999999999
30
0.0
11
813.8170133233256
21
87.67766952966367
31
0.0
 62
256
 0
LINE
 8
Layer0_S_
10
813.8170133233256
20
87.67766952966367
30
0.0
11
808.6393437936619
21
91.65063509461095
31
0.0
 62
256
 0
LINE
 8
Layer0_S_
10
808.6393437936619
20
91.65063509461095
30
0.0
11
802.6098199212249
21
94.14814565722669
31
0.0
 62
256
 0
LINE
 8
Layer0_S_
10
802.6098199212249
20
94.14814565722669
30
0.0
11
796.1393437936619
21
94.99999999999999
31
0.0
 62
256
 0
LINE
 8
Layer0_S_
10
796.1393437936619
20
94.99999999999999
30
0.0
11
789.6688676660989
21
94.1481456572267
31
0.0
 62
256
 0
LINE
 8
Layer0_S_
10
789.6688676660989
20
94.1481456572267
30
0.0
11
783.6393437936619
21
91.65063509461098
31
0.0
 62
256
 0
LINE
 8
Layer0_S_
10
783.6393437936619
20
91.65063509461098
30
0.0
11
778.4616742639981
21
87.67766952966369
31
0.0
 62
256
 0
LINE
 8
Layer0_S_
10
778.4616742639981
20
87.67766952966369
30
0.0
11
774.4887086990509
21
82.5
31
0.0
 62
256
 0
LINE
 8
Layer0_S_
10
774.4887086990509
20
82.5
30
0.0
11
771.9911981364352
21
76.47047612756303
31
0.0
 62
256
 0
LINE
 8
Layer0_S_
10
771.9911981364352
20
76.47047612756303
30
0.0
11
771.1393437936619
21
70.0
31
0.0
 62
256
 0
LINE
 8
Layer0_S_
10
796.1393437936619
20
89.0
30
0.0
11
801.0569056506097
21
88.35259069949228
31
0.0
 62
256
 0
LINE
 8
Layer0_S_
10
801.0569056506097
20
88.35259069949228
30
0.0
11
805.6393437936619
21
86.45448267190433
31
0.0
 62
256
 0
LINE
 8
Layer0_S_
10
805.6393437936619
20
86.45448267190433
30
0.0
11
809.5743726362062
21
83.4350288425444
31
0.0
 62
256
 0
LINE
 8
Layer0_S_
10
809.5743726362062
20
83.4350288425444
30
0.0
11
812.5938264655662
21
79.49999999999999
31
0.0
 62
256
 0
LINE
 8
Layer0_S_
10
812.5938264655662
20
79.49999999999999
30
0.0
11
814.4919344931542
21
74.9175618569479
31
0.0
 62
256
 0
LINE
 8
Layer0_S_
10
814.4919344931542
20
74.9175618569479
30
0.0
11
815.1393437936619
21
70.0
31
0.0
 62
256
 0
LINE
 8
Layer0_S_
10
815.1393437936619
20
70.0
30
0.0
11
814.4919344931542
21
65.0824381430521
31
0.0
 62
256
 0
LINE
 8
Layer0_S_
10
814.4919344931542
20
65.0824381430521
30
0.0
11
812.5938264655662
21
60.5
31
0.0
 62
256
 0
LINE
 8
Layer0_S_
10
812.5938264655662
20
60.5
30
0.0
11
809.5743726362062
21
56.564971157455595
31
0.0
 62
256
 0
LINE
 8
Layer0_S_
10
809.5743726362062
20
56.564971157455595
30
0.0
11
805.6393437936619
21
53.54551732809567
31
0.0
 62
256
 0
LINE
 8
Layer0_S_
10
805.6393437936619
20
53.54551732809567
30
0.0
11
801.0569056506098
21
51.647409300507704
31
0.0
 62
256
 0
LINE
 8
Layer0_S_
10
801.0569056506098
20
51.647409300507704
30
0.0
11
796.1393437936619
21
51.0
31
0.0
 62
256
 0
LINE
 8
Layer0_S_
10
796.1393437936619
20
51.0
30
0.0
11
791.2217819367139
21
51.647409300507704
31
0.0
 62
256
 0
LINE
 8
Layer0_S_
10
791.2217819367139
20
51.647409300507704
30
0.0
11
786.6393437936619
21
53.545517328095656
31
0.0
 62
256
 0
LINE
 8
Layer0_S_
10
786.6393437936619
20
53.545517328095656
30
0.0
11
782.7043149511175
21
56.564971157455595
31
0.0
 62
256
 0
LINE
 8
Layer0_S_
10
782.7043149511175
20
56.564971157455595
30
0.0
11
779.6848611217575
21
60.49999999999999
31
0.0
 62
256
 0
LINE
 8
Layer0_S_
10
779.6848611217575
20
60.49999999999999
30
0.0
11
777.7867530941695
21
65.08243814305209
31
0.0
 62
256
 0
LINE
 8
Layer0_S_
10
777.7867530941695
20
65.08243814305209
30
0.0
11
777.1393437936619
21
70.0
31
0.0
 62
256
 0
LINE
 8
Layer0_S_
10
777.1393437936619
20
70.0
30
0.0
11
777.7867530941695
21
74.91756185694788
31
0.0
 62
256
 0
LINE
 8
Layer0_S_
10
777.7867530941695
20
74.91756185694788
30
0.0
11
779.6848611217575
21
79.49999999999997
31
0.0
 62
256
 0
LINE
 8
Layer0_S_
10
779.6848611217575
20
79.49999999999997
30
0.0
11
782.7043149511175
21
83.4350288425444
31
0.0
 62
256
 0
LINE
 8
Layer0_S_
10
782.7043149511175
20
83.4350288425444
30
0.0
11
786.6393437936619
21
86.45448267190433
31
0.0
 62
256
 0
LINE
 8
Layer0_S_
10
786.6393437936619
20
86.45448267190433
30
0.0
11
791.2217819367139
21
88.35259069949228
31
0.0
 62
256
 0
LINE
 8
Layer0_S_
10
791.2217819367139
20
88.35259069949228
30
0.0
11
796.1393437936619
21
89.0
31
0.0
 62
256
 0
LINE
 8
Layer0_S_
10
664.1393437936619
20
70.0
30
0.0
11
664.9911981364352
21
63.52952387243697
31
0.0
 62
256
 0
LINE
 8
Layer0_S_
10
664.9911981364352
20
63.52952387243697
30
0.0
11
667.4887086990509
21
57.49999999999999
31
0.0
 62
256
 0
LINE
 8
Layer0_S_
10
667.4887086990509
20
57.49999999999999
30
0.0
11
671.4616742639982
21
52.32233047033631
31
0.0
 62
256
 0
LINE
 8
Layer0_S_
10
671.4616742639982
20
52.32233047033631
30
0.0
11
676.6393437936619
21
48.34936490538903
31
0.0
 62
256
 0
LINE
 8
Layer0_S_
10
676.6393437936619
20
48.34936490538903
30
0.0
11
682.6688676660988
21
45.851854342773294
31
0.0
 62
256
 0
LINE
 8
Layer0_S_
10
682.6688676660988
20
45.851854342773294
30
0.0
11
689.1393437936619
21
45.0
31
0.0
 62
256
 0
LINE
 8
Layer0_S_
10
689.1393437936619
20
45.0
30
0.0
11
695.6098199212249
21
45.85185434277329
31
0.0
 62
256
 0
LINE
 8
Layer0_S_
10
695.6098199212249
20
45.85185434277329
30
0.0
11
701.6393437936619
21
48.349364905389024
31
0.0
 62
256
 0
LINE
 8
Layer0_S_
10
701.6393437936619
20
48.349364905389024
30
0.0
11
706.8170133233256
21
52.32233047033631
31
0.0
 62
256
 0
LINE
 8
Layer0_S_
10
706.8170133233256
20
52.32233047033631
30
0.0
11
710.7899788882729
21
57.499999999999986
31
0.0
 62
256
 0
LINE
 8
Layer0_S_
10
710.7899788882729
20
57.499999999999986
30
0.0
11
713.2874894508885
21
63.52952387243697
31
0.0
 62
256
 0
LINE
 8
Layer0_S_
10
713.2874894508885
20
63.52952387243697
30
0.0
11
714.1393437936619
21
70.0
31
0.0
 62
256
 0
LINE
 8
Layer0_S_
10
714.1393437936619
20
70.0
30
0.0
11
713.2874894508885
21
76.470476127563
31
0.0
 62
256
 0
LINE
 8
Layer0_S_
10
713.2874894508885
20
76.470476127563
30
0.0
11
710.7899788882729
21
82.49999999999999
31
0.0
 62
256
 0
LINE
 8
Layer0_S_
10
710.7899788882729
20
82.49999999999999
30
0.0
11
706.8170133233256
21
87.67766952966367
31
0.0
 62
256
 0
LINE
 8
Layer0_S_
10
706.8170133233256
20
87.67766952966367
30
0.0
11
701.6393437936619
21
91.65063509461096
31
0.0
 62
256
 0
LINE
 8
Layer0_S_
10
701.6393437936619
20
91.65063509461096
30
0.0
11
695.6098199212249
21
94.14814565722669
31
0.0
 62
256
 0
LINE
 8
Layer0_S_
10
695.6098199212249
20
94.14814565722669
30
0.0
11
689.1393437936619
21
95.0
31
0.0
 62
256
 0
LINE
 8
Layer0_S_
10
689.1393437936619
20
95.0
30
0.0
11
682.6688676660988
21
94.1481456572267
31
0.0
 62
256
 0
LINE
 8
Layer0_S_
10
682.6688676660988
20
94.1481456572267
30
0.0
11
676.639343793662
21
91.65063509461098
31
0.0
 62
256
 0
LINE
 8
Layer0_S_
10
676.639343793662
20
91.65063509461098
30
0.0
11
671.4616742639982
21
87.67766952966369
31
0.0
 62
256
 0
LINE
 8
Layer0_S_
10
671.4616742639982
20
87.67766952966369
30
0.0
11
667.4887086990509
21
82.5
31
0.0
 62
256
 0
LINE
 8
Layer0_S_
10
667.4887086990509
20
82.5
30
0.0
11
664.9911981364352
21
76.47047612756303
31
0.0
 62
256
 0
LINE
 8
Layer0_S_
10
664.9911981364352
20
76.47047612756303
30
0.0
11
664.1393437936619
21
70.0
31
0.0
 62
256
 0
LINE
 8
Layer0_S_
10
670.1393437936619
20
70.0
30
0.0
11
670.7867530941696
21
74.91756185694788
31
0.0
 62
256
 0
LINE
 8
Layer0_S_
10
670.7867530941696
20
74.91756185694788
30
0.0
11
672.6848611217575
21
79.49999999999999
31
0.0
 62
256
 0
LINE
 8
Layer0_S_
10
672.6848611217575
20
79.49999999999999
30
0.0
11
675.7043149511175
21
83.43502884254438
31
0.0
 62
256
 0
LINE
 8
Layer0_S_
10
675.7043149511175
20
83.43502884254438
30
0.0
11
679.6393437936619
21
86.45448267190432
31
0.0
 62
256
 0
LINE
 8
Layer0_S_
10
679.6393437936619
20
86.45448267190432
30
0.0
11
684.221781936714
21
88.35259069949227
31
0.0
 62
256
 0
LINE
 8
Layer0_S_
10
684.221781936714
20
88.35259069949227
30
0.0
11
689.1393437936619
21
88.99999999999999
31
0.0
 62
256
 0
LINE
 8
Layer0_S_
10
689.1393437936619
20
88.99999999999999
30
0.0
11
694.0569056506098
21
88.35259069949228
31
0.0
 62
256
 0
LINE
 8
Layer0_S_
10
694.0569056506098
20
88.35259069949228
30
0.0
11
698.6393437936619
21
86.45448267190433
31
0.0
 62
256
 0
LINE
 8
Layer0_S_
10
698.6393437936619
20
86.45448267190433
30
0.0
11
702.5743726362062
21
83.43502884254438
31
0.0
 62
256
 0
LINE
 8
Layer0_S_
10
702.5743726362062
20
83.43502884254438
30
0.0
11
705.5938264655662
21
79.49999999999999
31
0.0
 62
256
 0
LINE
 8
Layer0_S_
10
705.5938264655662
20
79.49999999999999
30
0.0
11
707.4919344931542
21
74.9175618569479
31
0.0
 62
256
 0
LINE
 8
Layer0_S_
10
707.4919344931542
20
74.9175618569479
30
0.0
11
708.1393437936619
21
70.0
31
0.0
 62
256
 0
LINE
 8
Layer0_S_
10
708.1393437936619
20
70.0
30
0.0
11
707.4919344931542
21
65.0824381430521
31
0.0
 62
256
 0
LINE
 8
Layer0_S_
10
707.4919344931542
20
65.0824381430521
30
0.0
11
705.5938264655662
21
60.5
31
0.0
 62
256
 0
LINE
 8
Layer0_S_
10
705.5938264655662
20
60.5
30
0.0
11
702.5743726362062
21
56.564971157455616
31
0.0
 62
256
 0
LINE
 8
Layer0_S_
10
702.5743726362062
20
56.564971157455616
30
0.0
11
698.6393437936619
21
53.54551732809568
31
0.0
 62
256
 0
LINE
 8
Layer0_S_
10
698.6393437936619
20
53.54551732809568
30
0.0
11
694.0569056506098
21
51.64740930050772
31
0.0
 62
256
 0
LINE
 8
Layer0_S_
10
694.0569056506098
20
51.64740930050772
30
0.0
11
689.1393437936619
21
51.00000000000001
31
0.0
 62
256
 0
LINE
 8
Layer0_S_
10
689.1393437936619
20
51.00000000000001
30
0.0
11
684.221781936714
21
51.647409300507704
31
0.0
 62
256
 0
LINE
 8
Layer0_S_
10
684.221781936714
20
51.647409300507704
30
0.0
11
679.6393437936619
21
53.54551732809567
31
0.0
 62
256
 0
LINE
 8
Layer0_S_
10
679.6393437936619
20
53.54551732809567
30
0.0
11
675.7043149511175
21
56.564971157455595
31
0.0
 62
256
 0
LINE
 8
Layer0_S_
10
675.7043149511175
20
56.564971157455595
30
0.0
11
672.6848611217575
21
60.49999999999999
31
0.0
 62
256
 0
LINE
 8
Layer0_S_
10
672.6848611217575
20
60.49999999999999
30
0.0
11
670.7867530941696
21
65.08243814305209
31
0.0
 62
256
 0
LINE
 8
Layer0_S_
10
670.7867530941696
20
65.08243814305209
30
0.0
11
670.1393437936619
21
70.0
31
0.0
 62
256
 0
ENDSEC
 0
EOF
