  0
SECTION
  2
HEADER
  9
$ACADVER
  1
AC1014
  9
$HANDSEED
  5
FFFF
  9
$MEASUREMENT
 70
     1
  0
ENDSEC
  0
SECTION
  2
TABLES
  0
TABLE
  2
VPORT
  5
8
330
0
100
AcDbSymbolTable
 70
     4
  0
VPORT
  5
2E
330
8
100
AcDbSymbolTableRecord
100
AcDbViewportTableRecord
  2
*ACTIVE
 70
     0
 10
0.0
 20
0.0
 11
1.0
 21
1.0
 12
210.0
 22
148.5
 13
0.0
 23
0.0
 14
10.0
 24
10.0
 15
10.0
 25
10.0
 16
0.0
 26
0.0
 36
1.0
 17
0.0
 27
0.0
 37
0.0
 40
341.0
 41
1.24
 42
50.0
 43
0.0
 44
0.0
 50
0.0
 51
0.0
 71
     0
 72
   100
 73
     1
 74
     3
 75
     0
 76
     0
 77
     0
 78
     0
  0
ENDTAB
  0
TABLE
  2
LTYPE
  5
5
330
0
100
AcDbSymbolTable
 70
     1
  0
LTYPE
  5
14
330
5
100
AcDbSymbolTableRecord
100
AcDbLinetypeTableRecord
  2
BYBLOCK
 70
     0
  3

 72
    65
 73
     0
 40
0.0
  0
LTYPE
  5
15
330
5
100
AcDbSymbolTableRecord
100
AcDbLinetypeTableRecord
  2
BYLAYER
 70
     0
  3

 72
    65
 73
     0
 40
0.0
  0
LTYPE
  5
16
330
5
100
AcDbSymbolTableRecord
100
AcDbLinetypeTableRecord
  2
CONTINUOUS
 70
     0
  3
Solid line
 72
    65
 73
     0
 40
0.0
  0
ENDTAB
  0
TABLE
  2
LAYER
  5
2
100
AcDbSymbolTable
 70
2
  0
LAYER
  5
50
100
AcDbSymbolTableRecord
100
AcDbLayerTableRecord
  2
0
 70
0
  6
CONTINUOUS
  0
LAYER
  5
51
100
AcDbSymbolTableRecord
100
AcDbLayerTableRecord
  2
Layer_1
 70
0
  6
CONTINUOUS
  0
ENDTAB
  0
TABLE
  2
STYLE
  5
3
330
0
100
AcDbSymbolTable
 70
     1
  0
STYLE
  5
11
330
3
100
AcDbSymbolTableRecord
100
AcDbTextStyleTableRecord
  2
STANDARD
 70
     0
 40
0.0
 41
1.0
 50
0.0
 71
     0
 42
2.5
  3
txt
  4

  0
ENDTAB
  0
TABLE
  2
VIEW
  5
6
330
0
100
AcDbSymbolTable
 70
     0
  0
ENDTAB
  0
TABLE
  2
UCS
  5
7
330
0
100
AcDbSymbolTable
 70
     0
  0
ENDTAB
  0
TABLE
  2
APPID
  5
9
330
0
100
AcDbSymbolTable
 70
     2
  0
APPID
  5
12
330
9
100
AcDbSymbolTableRecord
100
AcDbRegAppTableRecord
  2
ACAD
 70
     0
  0
ENDTAB
  0
TABLE
  2
DIMSTYLE
  5
A
330
0
100
AcDbSymbolTable
 70
     1
  0
DIMSTYLE
105
27
330
A
100
AcDbSymbolTableRecord
100
AcDbDimStyleTableRecord
  2
ISO-25
 70
     0
  3

  4

  5

  6

  7

 40
1.0
 41
2.5
 42
0.625
 43
3.75
 44
1.25
 45
0.0
 46
0.0
 47
0.0
 48
0.0
140
2.5
141
2.5
142
0.0
143
0.03937007874016
144
1.0
145
0.0
146
1.0
147
0.625
 71
     0
 72
     0
 73
     0
 74
     0
 75
     0
 76
     0
 77
     1
 78
     8
170
     0
171
     3
172
     1
173
     0
174
     0
175
     0
176
     0
177
     0
178
     0
270
     2
271
     2
272
     2
273
     2
274
     3
340
11
275
     0
280
     0
281
     0
282
     0
283
     0
284
     8
285
     0
286
     0
287
     3
288
     0
  0
ENDTAB
  0
TABLE
  2
BLOCK_RECORD
  5
1
330
0
100
AcDbSymbolTable
 70
     1
  0
BLOCK_RECORD
  5
1F
330
1
100
AcDbSymbolTableRecord
100
AcDbBlockTableRecord
  2
*MODEL_SPACE
  0
BLOCK_RECORD
  5
1B
330
1
100
AcDbSymbolTableRecord
100
AcDbBlockTableRecord
  2
*PAPER_SPACE
  0
ENDTAB
  0
ENDSEC
  0
SECTION
  2
BLOCKS
  0
BLOCK
  5
20
330
1F
100
AcDbEntity
  8
0
100
AcDbBlockBegin
  2
*MODEL_SPACE
 70
     0
 10
0.0
 20
0.0
 30
0.0
  3
*MODEL_SPACE
  1

  0
ENDBLK
  5
21
330
1F
100
AcDbEntity
  8
0
100
AcDbBlockEnd
  0
BLOCK
  5
1C
330
1B
100
AcDbEntity
 67
     1
  8
0
100
AcDbBlockBegin
  2
*PAPER_SPACE
  1

  0
ENDBLK
  5
1D
330
1B
100
AcDbEntity
 67
     1
  8
0
100
AcDbBlockEnd
  0
ENDSEC
  0
SECTION
  2
ENTITIES
  0
LWPOLYLINE
  5
100
100
AcDbEntity
  8
Layer_1
 62
7
100
AcDbPolyline
 90
2
 70
0
 10
166.721532
 20
3.666160
 30
0.0
 10
178.721524
 20
3.666160
 30
0.0
  0
LWPOLYLINE
  5
101
100
AcDbEntity
  8
Layer_1
 62
7
100
AcDbPolyline
 90
2
 70
0
 10
161.721543
 20
8.666176
 30
0.0
 10
79.721533
 20
8.666176
 30
0.0
  0
LWPOLYLINE
  5
102
100
AcDbEntity
  8
Layer_1
 62
7
100
AcDbPolyline
 90
2
 70
0
 10
17.721536
 20
3.666160
 30
0.0
 10
74.721543
 20
3.666160
 30
0.0
  0
LWPOLYLINE
  5
103
100
AcDbEntity
  8
Layer_1
 62
7
100
AcDbPolyline
 90
2
 70
0
 10
5.721544
 20
131.666161
 30
0.0
 10
5.721544
 20
15.666152
 30
0.0
  0
LWPOLYLINE
  5
104
100
AcDbEntity
  8
Layer_1
 62
7
100
AcDbPolyline
 90
2
 70
0
 10
178.721524
 20
143.666161
 30
0.0
 10
17.721536
 20
143.666161
 30
0.0
  0
LWPOLYLINE
  5
105
100
AcDbEntity
  8
Layer_1
 62
7
100
AcDbPolyline
 90
2
 70
0
 10
190.721542
 20
15.666152
 30
0.0
 10
190.721542
 20
131.666161
 30
0.0
  0
LWPOLYLINE
  5
106
100
AcDbEntity
  8
Layer_1
 62
7
100
AcDbPolyline
 90
13
 70
0
 10
161.721543
 20
8.666176
 30
0.0
 10
162.374164
 20
8.623393
 30
0.0
 10
163.015620
 20
8.495785
 30
0.0
 10
163.634956
 20
8.285573
 30
0.0
 10
164.221538
 20
7.996278
 30
0.0
 10
164.765336
 20
7.632925
 30
0.0
 10
165.257064
 20
7.201707
 30
0.0
 10
165.688308
 20
6.709979
 30
0.0
 10
166.051660
 20
6.166155
 30
0.0
 10
166.340929
 20
5.579574
 30
0.0
 10
166.551167
 20
4.960263
 30
0.0
 10
166.678749
 20
4.318807
 30
0.0
 10
166.721532
 20
3.666160
 30
0.0
  0
LWPOLYLINE
  5
107
100
AcDbEntity
  8
Layer_1
 62
7
100
AcDbPolyline
 90
13
 70
0
 10
79.721533
 20
8.666176
 30
0.0
 10
79.068912
 20
8.623393
 30
0.0
 10
78.427429
 20
8.495785
 30
0.0
 10
77.808119
 20
8.285573
 30
0.0
 10
77.221538
 20
7.996278
 30
0.0
 10
76.677740
 20
7.632925
 30
0.0
 10
76.186012
 20
7.201707
 30
0.0
 10
75.754767
 20
6.709979
 30
0.0
 10
75.391415
 20
6.166155
 30
0.0
 10
75.102146
 20
5.579574
 30
0.0
 10
74.891908
 20
4.960263
 30
0.0
 10
74.764300
 20
4.318807
 30
0.0
 10
74.721543
 20
3.666160
 30
0.0
  0
LWPOLYLINE
  5
108
100
AcDbEntity
  8
Layer_1
 62
7
100
AcDbPolyline
 90
13
 70
0
 10
17.721536
 20
3.666160
 30
0.0
 10
16.155229
 20
3.768818
 30
0.0
 10
14.615698
 20
4.075047
 30
0.0
 10
13.129322
 20
4.579607
 30
0.0
 10
11.721527
 20
5.273847
 30
0.0
 10
10.416390
 20
6.145914
 30
0.0
 10
9.236243
 20
7.180885
 30
0.0
 10
8.201299
 20
8.361032
 30
0.0
 10
7.329232
 20
9.666169
 30
0.0
 10
6.634992
 20
11.073964
 30
0.0
 10
6.130431
 20
12.560340
 30
0.0
 10
5.824203
 20
14.099845
 30
0.0
 10
5.721544
 20
15.666152
 30
0.0
  0
LWPOLYLINE
  5
109
100
AcDbEntity
  8
Layer_1
 62
7
100
AcDbPolyline
 90
13
 70
0
 10
17.721536
 20
143.666161
 30
0.0
 10
16.155229
 20
143.563500
 30
0.0
 10
14.615698
 20
143.257271
 30
0.0
 10
13.129322
 20
142.752716
 30
0.0
 10
11.721527
 20
142.058466
 30
0.0
 10
10.416390
 20
141.186401
 30
0.0
 10
9.236243
 20
140.151444
 30
0.0
 10
8.201299
 20
138.971299
 30
0.0
 10
7.329232
 20
137.666163
 30
0.0
 10
6.634992
 20
136.258362
 30
0.0
 10
6.130431
 20
134.771991
 30
0.0
 10
5.824203
 20
133.232476
 30
0.0
 10
5.721544
 20
131.666161
 30
0.0
  0
LWPOLYLINE
  5
10a
100
AcDbEntity
  8
Layer_1
 62
7
100
AcDbPolyline
 90
13
 70
0
 10
178.721524
 20
143.666161
 30
0.0
 10
180.287858
 20
143.563500
 30
0.0
 10
181.827362
 20
143.257271
 30
0.0
 10
183.313738
 20
142.752716
 30
0.0
 10
184.721533
 20
142.058466
 30
0.0
 10
186.026670
 20
141.186401
 30
0.0
 10
187.206817
 20
140.151444
 30
0.0
 10
188.241762
 20
138.971299
 30
0.0
 10
189.113828
 20
137.666163
 30
0.0
 10
189.808095
 20
136.258362
 30
0.0
 10
190.312655
 20
134.771991
 30
0.0
 10
190.618884
 20
133.232476
 30
0.0
 10
190.721542
 20
131.666161
 30
0.0
  0
LWPOLYLINE
  5
10b
100
AcDbEntity
  8
Layer_1
 62
7
100
AcDbPolyline
 90
13
 70
0
 10
178.721524
 20
3.666160
 30
0.0
 10
180.287858
 20
3.768818
 30
0.0
 10
181.827362
 20
4.075047
 30
0.0
 10
183.313738
 20
4.579607
 30
0.0
 10
184.721533
 20
5.273847
 30
0.0
 10
186.026670
 20
6.145914
 30
0.0
 10
187.206817
 20
7.180885
 30
0.0
 10
188.241762
 20
8.361032
 30
0.0
 10
189.113828
 20
9.666169
 30
0.0
 10
189.808095
 20
11.073964
 30
0.0
 10
190.312655
 20
12.560340
 30
0.0
 10
190.618884
 20
14.099845
 30
0.0
 10
190.721542
 20
15.666152
 30
0.0
  0
LWPOLYLINE
  5
10c
100
AcDbEntity
  8
Layer_1
 62
7
100
AcDbPolyline
 90
24
 70
1
 10
20.721541
 20
131.666161
 30
0.0
 10
20.619306
 20
130.889705
 30
0.0
 10
20.319612
 20
130.166162
 30
0.0
 10
19.842859
 20
129.544841
 30
0.0
 10
19.221538
 20
129.068085
 30
0.0
 10
18.497982
 20
128.768384
 30
0.0
 10
17.721536
 20
128.666162
 30
0.0
 10
16.945090
 20
128.768384
 30
0.0
 10
16.221534
 20
129.068085
 30
0.0
 10
15.600213
 20
129.544841
 30
0.0
 10
15.123460
 20
130.166162
 30
0.0
 10
14.823766
 20
130.889705
 30
0.0
 10
14.721531
 20
131.666161
 30
0.0
 10
14.823766
 20
132.442618
 30
0.0
 10
15.123460
 20
133.166161
 30
0.0
 10
15.600213
 20
133.787482
 30
0.0
 10
16.221534
 20
134.264237
 30
0.0
 10
16.945090
 20
134.563939
 30
0.0
 10
17.721536
 20
134.666163
 30
0.0
 10
18.497982
 20
134.563939
 30
0.0
 10
19.221538
 20
134.264237
 30
0.0
 10
19.842859
 20
133.787482
 30
0.0
 10
20.319612
 20
133.166161
 30
0.0
 10
20.619306
 20
132.442618
 30
0.0
  0
LWPOLYLINE
  5
10d
100
AcDbEntity
  8
Layer_1
 62
7
100
AcDbPolyline
 90
24
 70
1
 10
14.721531
 20
15.666152
 30
0.0
 10
14.823766
 20
16.442624
 30
0.0
 10
15.123460
 20
17.166154
 30
0.0
 10
15.600213
 20
17.787475
 30
0.0
 10
16.221534
 20
18.264228
 30
0.0
 10
16.945090
 20
18.563948
 30
0.0
 10
17.721536
 20
18.666156
 30
0.0
 10
18.497982
 20
18.563948
 30
0.0
 10
19.221538
 20
18.264228
 30
0.0
 10
19.842859
 20
17.787475
 30
0.0
 10
20.319612
 20
17.166154
 30
0.0
 10
20.619306
 20
16.442624
 30
0.0
 10
20.721541
 20
15.666152
 30
0.0
 10
20.619306
 20
14.889705
 30
0.0
 10
20.319612
 20
14.166176
 30
0.0
 10
19.842859
 20
13.544855
 30
0.0
 10
19.221538
 20
13.068075
 30
0.0
 10
18.497982
 20
12.768382
 30
0.0
 10
17.721536
 20
12.666173
 30
0.0
 10
16.945090
 20
12.768382
 30
0.0
 10
16.221534
 20
13.068075
 30
0.0
 10
15.600213
 20
13.544855
 30
0.0
 10
15.123460
 20
14.166176
 30
0.0
 10
14.823766
 20
14.889705
 30
0.0
  0
LWPOLYLINE
  5
10e
100
AcDbEntity
  8
Layer_1
 62
7
100
AcDbPolyline
 90
24
 70
1
 10
175.721546
 20
15.666152
 30
0.0
 10
175.823755
 20
16.442624
 30
0.0
 10
176.123448
 20
17.166154
 30
0.0
 10
176.600201
 20
17.787475
 30
0.0
 10
177.221522
 20
18.264228
 30
0.0
 10
177.945078
 20
18.563948
 30
0.0
 10
178.721524
 20
18.666156
 30
0.0
 10
179.497997
 20
18.563948
 30
0.0
 10
180.221526
 20
18.264228
 30
0.0
 10
180.842848
 20
17.787475
 30
0.0
 10
181.319600
 20
17.166154
 30
0.0
 10
181.619320
 20
16.442624
 30
0.0
 10
181.721529
 20
15.666152
 30
0.0
 10
181.619320
 20
14.889705
 30
0.0
 10
181.319600
 20
14.166176
 30
0.0
 10
180.842848
 20
13.544855
 30
0.0
 10
180.221526
 20
13.068075
 30
0.0
 10
179.497997
 20
12.768382
 30
0.0
 10
178.721524
 20
12.666173
 30
0.0
 10
177.945078
 20
12.768382
 30
0.0
 10
177.221522
 20
13.068075
 30
0.0
 10
176.600201
 20
13.544855
 30
0.0
 10
176.123448
 20
14.166176
 30
0.0
 10
175.823755
 20
14.889705
 30
0.0
  0
LWPOLYLINE
  5
10f
100
AcDbEntity
  8
Layer_1
 62
7
100
AcDbPolyline
 90
24
 70
1
 10
175.721546
 20
131.666161
 30
0.0
 10
175.823755
 20
132.442618
 30
0.0
 10
176.123448
 20
133.166161
 30
0.0
 10
176.600201
 20
133.787482
 30
0.0
 10
177.221522
 20
134.264237
 30
0.0
 10
177.945078
 20
134.563939
 30
0.0
 10
178.721524
 20
134.666163
 30
0.0
 10
179.497997
 20
134.563939
 30
0.0
 10
180.221526
 20
134.264237
 30
0.0
 10
180.842848
 20
133.787482
 30
0.0
 10
181.319600
 20
133.166161
 30
0.0
 10
181.619320
 20
132.442618
 30
0.0
 10
181.721529
 20
131.666161
 30
0.0
 10
181.619320
 20
130.889705
 30
0.0
 10
181.319600
 20
130.166162
 30
0.0
 10
180.842848
 20
129.544841
 30
0.0
 10
180.221526
 20
129.068085
 30
0.0
 10
179.497997
 20
128.768384
 30
0.0
 10
178.721524
 20
128.666162
 30
0.0
 10
177.945078
 20
128.768384
 30
0.0
 10
177.221522
 20
129.068085
 30
0.0
 10
176.600201
 20
129.544841
 30
0.0
 10
176.123448
 20
130.166162
 30
0.0
 10
175.823755
 20
130.889705
 30
0.0
  0
LWPOLYLINE
  5
110
100
AcDbEntity
  8
Layer_1
 62
7
100
AcDbPolyline
 90
24
 70
1
 10
158.709658
 20
99.746159
 30
0.0
 10
151.721536
 20
100.666163
 30
0.0
 10
144.733414
 20
99.746159
 30
0.0
 10
138.221542
 20
97.048849
 30
0.0
 10
132.629653
 20
92.758045
 30
0.0
 10
128.338852
 20
87.166164
 30
0.0
 10
125.641531
 20
80.654276
 30
0.0
 10
124.721522
 20
73.666162
 30
0.0
 10
125.641531
 20
66.678048
 30
0.0
 10
128.338852
 20
60.166162
 30
0.0
 10
132.629653
 20
54.574281
 30
0.0
 10
138.221542
 20
50.283478
 30
0.0
 10
144.733414
 20
47.586167
 30
0.0
 10
151.721536
 20
46.666163
 30
0.0
 10
158.709658
 20
47.586167
 30
0.0
 10
165.221530
 20
50.283478
 30
0.0
 10
170.813420
 20
54.574281
 30
0.0
 10
175.104220
 20
60.166162
 30
0.0
 10
177.801542
 20
66.678048
 30
0.0
 10
178.721524
 20
73.666162
 30
0.0
 10
177.801542
 20
80.654276
 30
0.0
 10
175.104220
 20
87.166164
 30
0.0
 10
170.813420
 20
92.758045
 30
0.0
 10
165.221530
 20
97.048849
 30
0.0
  0
LWPOLYLINE
  5
111
100
AcDbEntity
  8
Layer_1
 62
7
100
AcDbPolyline
 90
24
 70
1
 10
17.721536
 20
73.666162
 30
0.0
 10
18.641545
 20
66.678048
 30
0.0
 10
21.338840
 20
60.166162
 30
0.0
 10
25.629641
 20
54.574281
 30
0.0
 10
31.221530
 20
50.283478
 30
0.0
 10
37.733428
 20
47.586167
 30
0.0
 10
44.721524
 20
46.666163
 30
0.0
 10
51.709646
 20
47.586167
 30
0.0
 10
58.221544
 20
50.283478
 30
0.0
 10
63.813407
 20
54.574281
 30
0.0
 10
68.104208
 20
60.166162
 30
0.0
 10
70.801529
 20
66.678048
 30
0.0
 10
71.721538
 20
73.666162
 30
0.0
 10
70.801529
 20
80.654276
 30
0.0
 10
68.104208
 20
87.166164
 30
0.0
 10
63.813407
 20
92.758045
 30
0.0
 10
58.221544
 20
97.048849
 30
0.0
 10
51.709646
 20
99.746159
 30
0.0
 10
44.721524
 20
100.666163
 30
0.0
 10
37.733428
 20
99.746159
 30
0.0
 10
31.221530
 20
97.048849
 30
0.0
 10
25.629641
 20
92.758045
 30
0.0
 10
21.338840
 20
87.166164
 30
0.0
 10
18.641545
 20
80.654276
 30
0.0
  0
LWPOLYLINE
  5
112
100
AcDbEntity
  8
Layer_1
 62
7
100
AcDbPolyline
 90
24
 70
1
 10
126.721534
 20
73.666162
 30
0.0
 10
127.573386
 20
67.195686
 30
0.0
 10
130.070894
 20
61.166163
 30
0.0
 10
134.043877
 20
55.988495
 30
0.0
 10
139.221535
 20
52.015527
 30
0.0
 10
145.251045
 20
49.518017
 30
0.0
 10
151.721536
 20
48.666162
 30
0.0
 10
158.192001
 20
49.518017
 30
0.0
 10
164.221538
 20
52.015527
 30
0.0
 10
169.399195
 20
55.988495
 30
0.0
 10
173.372178
 20
61.166163
 30
0.0
 10
175.869686
 20
67.195686
 30
0.0
 10
176.721539
 20
73.666162
 30
0.0
 10
175.869686
 20
80.136640
 30
0.0
 10
173.372178
 20
86.166163
 30
0.0
 10
169.399195
 20
91.343831
 30
0.0
 10
164.221538
 20
95.316799
 30
0.0
 10
158.192001
 20
97.814309
 30
0.0
 10
151.721536
 20
98.666162
 30
0.0
 10
145.251045
 20
97.814309
 30
0.0
 10
139.221535
 20
95.316799
 30
0.0
 10
134.043877
 20
91.343831
 30
0.0
 10
130.070894
 20
86.166163
 30
0.0
 10
127.573386
 20
80.136640
 30
0.0
  0
LWPOLYLINE
  5
113
100
AcDbEntity
  8
Layer_1
 62
7
100
AcDbPolyline
 90
24
 70
1
 10
151.721536
 20
92.666163
 30
0.0
 10
156.639108
 20
92.018754
 30
0.0
 10
161.221533
 20
90.120647
 30
0.0
 10
165.156575
 20
87.101193
 30
0.0
 10
168.176026
 20
83.166164
 30
0.0
 10
170.074121
 20
78.583723
 30
0.0
 10
170.721530
 20
73.666162
 30
0.0
 10
170.074121
 20
68.748600
 30
0.0
 10
168.176026
 20
64.166162
 30
0.0
 10
165.156575
 20
60.231134
 30
0.0
 10
161.221533
 20
57.211680
 30
0.0
 10
156.639108
 20
55.313572
 30
0.0
 10
151.721536
 20
54.666163
 30
0.0
 10
146.803964
 20
55.313572
 30
0.0
 10
142.221539
 20
57.211680
 30
0.0
 10
138.286497
 20
60.231134
 30
0.0
 10
135.267046
 20
64.166162
 30
0.0
 10
133.368952
 20
68.748600
 30
0.0
 10
132.721543
 20
73.666162
 30
0.0
 10
133.368952
 20
78.583723
 30
0.0
 10
135.267046
 20
83.166164
 30
0.0
 10
138.286497
 20
87.101193
 30
0.0
 10
142.221539
 20
90.120647
 30
0.0
 10
146.803964
 20
92.018754
 30
0.0
  0
LWPOLYLINE
  5
114
100
AcDbEntity
  8
Layer_1
 62
7
100
AcDbPolyline
 90
24
 70
1
 10
19.721548
 20
73.666162
 30
0.0
 10
20.573400
 20
67.195686
 30
0.0
 10
23.070908
 20
61.166163
 30
0.0
 10
27.043865
 20
55.988495
 30
0.0
 10
32.221523
 20
52.015527
 30
0.0
 10
38.251059
 20
49.518017
 30
0.0
 10
44.721524
 20
48.666162
 30
0.0
 10
51.192015
 20
49.518017
 30
0.0
 10
57.221525
 20
52.015527
 30
0.0
 10
62.399209
 20
55.988495
 30
0.0
 10
66.372166
 20
61.166163
 30
0.0
 10
68.869674
 20
67.195686
 30
0.0
 10
69.721527
 20
73.666162
 30
0.0
 10
68.869674
 20
80.136640
 30
0.0
 10
66.372166
 20
86.166163
 30
0.0
 10
62.399209
 20
91.343831
 30
0.0
 10
57.221525
 20
95.316799
 30
0.0
 10
51.192015
 20
97.814309
 30
0.0
 10
44.721524
 20
98.666162
 30
0.0
 10
38.251059
 20
97.814309
 30
0.0
 10
32.221523
 20
95.316799
 30
0.0
 10
27.043865
 20
91.343831
 30
0.0
 10
23.070908
 20
86.166163
 30
0.0
 10
20.573400
 20
80.136640
 30
0.0
  0
LWPOLYLINE
  5
115
100
AcDbEntity
  8
Layer_1
 62
7
100
AcDbPolyline
 90
24
 70
1
 10
25.721531
 20
73.666162
 30
0.0
 10
26.368939
 20
78.583723
 30
0.0
 10
28.267060
 20
83.166164
 30
0.0
 10
31.286512
 20
87.101193
 30
0.0
 10
35.221527
 20
90.120647
 30
0.0
 10
39.803978
 20
92.018754
 30
0.0
 10
44.721524
 20
92.666163
 30
0.0
 10
49.639096
 20
92.018754
 30
0.0
 10
54.221547
 20
90.120647
 30
0.0
 10
58.156563
 20
87.101193
 30
0.0
 10
61.176014
 20
83.166164
 30
0.0
 10
63.074135
 20
78.583723
 30
0.0
 10
63.721544
 20
73.666162
 30
0.0
 10
63.074135
 20
68.748600
 30
0.0
 10
61.176014
 20
64.166162
 30
0.0
 10
58.156563
 20
60.231134
 30
0.0
 10
54.221547
 20
57.211680
 30
0.0
 10
49.639096
 20
55.313572
 30
0.0
 10
44.721524
 20
54.666163
 30
0.0
 10
39.803978
 20
55.313572
 30
0.0
 10
35.221527
 20
57.211680
 30
0.0
 10
31.286512
 20
60.231134
 30
0.0
 10
28.267060
 20
64.166162
 30
0.0
 10
26.368939
 20
68.748600
 30
0.0
  0
LWPOLYLINE
  5
116
100
AcDbEntity
  8
Layer_1
 62
7
100
AcDbPolyline
 90
2
 70
0
 10
211.175522
 20
2.839340
 30
0.0
 10
372.175511
 20
2.839340
 30
0.0
  0
LWPOLYLINE
  5
117
100
AcDbEntity
  8
Layer_1
 62
7
100
AcDbPolyline
 90
2
 70
0
 10
199.175504
 20
130.839342
 30
0.0
 10
199.175504
 20
14.839332
 30
0.0
  0
LWPOLYLINE
  5
118
100
AcDbEntity
  8
Layer_1
 62
7
100
AcDbPolyline
 90
2
 70
0
 10
372.175511
 20
142.839341
 30
0.0
 10
211.175522
 20
142.839341
 30
0.0
  0
LWPOLYLINE
  5
119
100
AcDbEntity
  8
Layer_1
 62
7
100
AcDbPolyline
 90
2
 70
0
 10
384.175502
 20
14.839332
 30
0.0
 10
384.175502
 20
130.839342
 30
0.0
  0
LWPOLYLINE
  5
11a
100
AcDbEntity
  8
Layer_1
 62
7
100
AcDbPolyline
 90
13
 70
0
 10
372.175511
 20
2.839340
 30
0.0
 10
373.741817
 20
2.941998
 30
0.0
 10
375.281348
 20
3.248227
 30
0.0
 10
376.767698
 20
3.752788
 30
0.0
 10
378.175520
 20
4.447028
 30
0.0
 10
379.480656
 20
5.319094
 30
0.0
 10
380.660777
 20
6.354065
 30
0.0
 10
381.695748
 20
7.534213
 30
0.0
 10
382.567815
 20
8.839349
 30
0.0
 10
383.262055
 20
10.247144
 30
0.0
 10
383.766615
 20
11.733520
 30
0.0
 10
384.072844
 20
13.273025
 30
0.0
 10
384.175502
 20
14.839332
 30
0.0
  0
LWPOLYLINE
  5
11b
100
AcDbEntity
  8
Layer_1
 62
7
100
AcDbPolyline
 90
13
 70
0
 10
211.175522
 20
2.839340
 30
0.0
 10
209.609189
 20
2.941998
 30
0.0
 10
208.069685
 20
3.248227
 30
0.0
 10
206.583308
 20
3.752788
 30
0.0
 10
205.175513
 20
4.447028
 30
0.0
 10
203.870377
 20
5.319094
 30
0.0
 10
202.690229
 20
6.354065
 30
0.0
 10
201.655259
 20
7.534213
 30
0.0
 10
200.783218
 20
8.839349
 30
0.0
 10
200.088952
 20
10.247144
 30
0.0
 10
199.584391
 20
11.733520
 30
0.0
 10
199.278163
 20
13.273025
 30
0.0
 10
199.175504
 20
14.839332
 30
0.0
  0
LWPOLYLINE
  5
11c
100
AcDbEntity
  8
Layer_1
 62
7
100
AcDbPolyline
 90
13
 70
0
 10
211.175522
 20
142.839341
 30
0.0
 10
209.609189
 20
142.736680
 30
0.0
 10
208.069685
 20
142.430452
 30
0.0
 10
206.583308
 20
141.925897
 30
0.0
 10
205.175513
 20
141.231646
 30
0.0
 10
203.870377
 20
140.359582
 30
0.0
 10
202.690229
 20
139.324624
 30
0.0
 10
201.655259
 20
138.144480
 30
0.0
 10
200.783218
 20
136.839343
 30
0.0
 10
200.088952
 20
135.431543
 30
0.0
 10
199.584391
 20
133.945172
 30
0.0
 10
199.278163
 20
132.405657
 30
0.0
 10
199.175504
 20
130.839342
 30
0.0
  0
LWPOLYLINE
  5
11d
100
AcDbEntity
  8
Layer_1
 62
7
100
AcDbPolyline
 90
13
 70
0
 10
372.175511
 20
142.839341
 30
0.0
 10
373.741817
 20
142.736680
 30
0.0
 10
375.281348
 20
142.430452
 30
0.0
 10
376.767698
 20
141.925897
 30
0.0
 10
378.175520
 20
141.231646
 30
0.0
 10
379.480656
 20
140.359582
 30
0.0
 10
380.660777
 20
139.324624
 30
0.0
 10
381.695748
 20
138.144480
 30
0.0
 10
382.567815
 20
136.839343
 30
0.0
 10
383.262055
 20
135.431543
 30
0.0
 10
383.766615
 20
133.945172
 30
0.0
 10
384.072844
 20
132.405657
 30
0.0
 10
384.175502
 20
130.839342
 30
0.0
  0
LWPOLYLINE
  5
11e
100
AcDbEntity
  8
Layer_1
 62
7
100
AcDbPolyline
 90
24
 70
1
 10
372.175511
 20
133.839344
 30
0.0
 10
372.951957
 20
133.737119
 30
0.0
 10
373.675513
 20
133.437418
 30
0.0
 10
374.296834
 20
132.960662
 30
0.0
 10
374.773587
 20
132.339341
 30
0.0
 10
375.073280
 20
131.615799
 30
0.0
 10
375.175515
 20
130.839342
 30
0.0
 10
375.073280
 20
130.062885
 30
0.0
 10
374.773587
 20
129.339342
 30
0.0
 10
374.296834
 20
128.718021
 30
0.0
 10
373.675513
 20
128.241266
 30
0.0
 10
372.951957
 20
127.941564
 30
0.0
 10
372.175511
 20
127.839343
 30
0.0
 10
371.399064
 20
127.941564
 30
0.0
 10
370.675508
 20
128.241266
 30
0.0
 10
370.054187
 20
128.718021
 30
0.0
 10
369.577435
 20
129.339342
 30
0.0
 10
369.277741
 20
130.062885
 30
0.0
 10
369.175506
 20
130.839342
 30
0.0
 10
369.277741
 20
131.615799
 30
0.0
 10
369.577435
 20
132.339341
 30
0.0
 10
370.054187
 20
132.960662
 30
0.0
 10
370.675508
 20
133.437418
 30
0.0
 10
371.399064
 20
133.737119
 30
0.0
  0
LWPOLYLINE
  5
11f
100
AcDbEntity
  8
Layer_1
 62
7
100
AcDbPolyline
 90
24
 70
1
 10
370.675508
 20
17.437408
 30
0.0
 10
371.399064
 20
17.737128
 30
0.0
 10
372.175511
 20
17.839336
 30
0.0
 10
372.951957
 20
17.737128
 30
0.0
 10
373.675513
 20
17.437408
 30
0.0
 10
374.296834
 20
16.960655
 30
0.0
 10
374.773587
 20
16.339334
 30
0.0
 10
375.073280
 20
15.615805
 30
0.0
 10
375.175515
 20
14.839332
 30
0.0
 10
375.073280
 20
14.062886
 30
0.0
 10
374.773587
 20
13.339356
 30
0.0
 10
374.296834
 20
12.718035
 30
0.0
 10
373.675513
 20
12.241256
 30
0.0
 10
372.951957
 20
11.941562
 30
0.0
 10
372.175511
 20
11.839354
 30
0.0
 10
371.399064
 20
11.941562
 30
0.0
 10
370.675508
 20
12.241256
 30
0.0
 10
370.054187
 20
12.718035
 30
0.0
 10
369.577435
 20
13.339356
 30
0.0
 10
369.277741
 20
14.062886
 30
0.0
 10
369.175506
 20
14.839332
 30
0.0
 10
369.277741
 20
15.615805
 30
0.0
 10
369.577435
 20
16.339334
 30
0.0
 10
370.054187
 20
16.960655
 30
0.0
  0
LWPOLYLINE
  5
120
100
AcDbEntity
  8
Layer_1
 62
7
100
AcDbPolyline
 90
24
 70
1
 10
208.175518
 20
14.839332
 30
0.0
 10
208.277726
 20
15.615805
 30
0.0
 10
208.577446
 20
16.339334
 30
0.0
 10
209.054199
 20
16.960655
 30
0.0
 10
209.675520
 20
17.437408
 30
0.0
 10
210.399050
 20
17.737128
 30
0.0
 10
211.175522
 20
17.839336
 30
0.0
 10
211.951969
 20
17.737128
 30
0.0
 10
212.675498
 20
17.437408
 30
0.0
 10
213.296819
 20
16.960655
 30
0.0
 10
213.773598
 20
16.339334
 30
0.0
 10
214.073292
 20
15.615805
 30
0.0
 10
214.175500
 20
14.839332
 30
0.0
 10
214.073292
 20
14.062886
 30
0.0
 10
213.773598
 20
13.339356
 30
0.0
 10
213.296819
 20
12.718035
 30
0.0
 10
212.675498
 20
12.241256
 30
0.0
 10
211.951969
 20
11.941562
 30
0.0
 10
211.175522
 20
11.839354
 30
0.0
 10
210.399050
 20
11.941562
 30
0.0
 10
209.675520
 20
12.241256
 30
0.0
 10
209.054199
 20
12.718035
 30
0.0
 10
208.577446
 20
13.339356
 30
0.0
 10
208.277726
 20
14.062886
 30
0.0
  0
LWPOLYLINE
  5
121
100
AcDbEntity
  8
Layer_1
 62
7
100
AcDbPolyline
 90
24
 70
1
 10
214.073292
 20
130.062885
 30
0.0
 10
213.773598
 20
129.339342
 30
0.0
 10
213.296819
 20
128.718021
 30
0.0
 10
212.675498
 20
128.241266
 30
0.0
 10
211.951969
 20
127.941564
 30
0.0
 10
211.175522
 20
127.839343
 30
0.0
 10
210.399050
 20
127.941564
 30
0.0
 10
209.675520
 20
128.241266
 30
0.0
 10
209.054199
 20
128.718021
 30
0.0
 10
208.577446
 20
129.339342
 30
0.0
 10
208.277726
 20
130.062885
 30
0.0
 10
208.175518
 20
130.839342
 30
0.0
 10
208.277726
 20
131.615799
 30
0.0
 10
208.577446
 20
132.339341
 30
0.0
 10
209.054199
 20
132.960662
 30
0.0
 10
209.675520
 20
133.437418
 30
0.0
 10
210.399050
 20
133.737119
 30
0.0
 10
211.175522
 20
133.839344
 30
0.0
 10
211.951969
 20
133.737119
 30
0.0
 10
212.675498
 20
133.437418
 30
0.0
 10
213.296819
 20
132.960662
 30
0.0
 10
213.773598
 20
132.339341
 30
0.0
 10
214.073292
 20
131.615799
 30
0.0
 10
214.175500
 20
130.839342
 30
0.0
  0
LWPOLYLINE
  5
122
100
AcDbEntity
  8
Layer_1
 62
7
100
AcDbPolyline
 90
2
 70
0
 10
352.175498
 20
47.839342
 30
0.0
 10
328.175514
 20
47.839342
 30
0.0
  0
LWPOLYLINE
  5
123
100
AcDbEntity
  8
Layer_1
 62
7
100
AcDbPolyline
 90
2
 70
0
 10
352.175498
 20
44.839343
 30
0.0
 10
328.175514
 20
44.839343
 30
0.0
  0
LWPOLYLINE
  5
124
100
AcDbEntity
  8
Layer_1
 62
7
100
AcDbPolyline
 90
13
 70
0
 10
328.175514
 20
47.839342
 30
0.0
 10
327.787291
 20
47.788233
 30
0.0
 10
327.425500
 20
47.638380
 30
0.0
 10
327.114853
 20
47.400004
 30
0.0
 10
326.876463
 20
47.089344
 30
0.0
 10
326.726630
 20
46.727571
 30
0.0
 10
326.675512
 20
46.339342
 30
0.0
 10
326.726630
 20
45.951114
 30
0.0
 10
326.876463
 20
45.589344
 30
0.0
 10
327.114853
 20
45.278683
 30
0.0
 10
327.425500
 20
45.040304
 30
0.0
 10
327.787291
 20
44.890455
 30
0.0
 10
328.175514
 20
44.839343
 30
0.0
  0
LWPOLYLINE
  5
125
100
AcDbEntity
  8
Layer_1
 62
7
100
AcDbPolyline
 90
13
 70
0
 10
352.175498
 20
47.839342
 30
0.0
 10
352.563748
 20
47.788233
 30
0.0
 10
352.925512
 20
47.638380
 30
0.0
 10
353.236160
 20
47.400004
 30
0.0
 10
353.474549
 20
47.089344
 30
0.0
 10
353.624409
 20
46.727571
 30
0.0
 10
353.675500
 20
46.339342
 30
0.0
 10
353.624409
 20
45.951114
 30
0.0
 10
353.474549
 20
45.589344
 30
0.0
 10
353.236160
 20
45.278683
 30
0.0
 10
352.925512
 20
45.040304
 30
0.0
 10
352.563748
 20
44.890455
 30
0.0
 10
352.175498
 20
44.839343
 30
0.0
  0
LWPOLYLINE
  5
126
100
AcDbEntity
  8
Layer_1
 62
7
100
AcDbPolyline
 90
2
 70
0
 10
352.175498
 20
27.839343
 30
0.0
 10
328.175514
 20
27.839343
 30
0.0
  0
LWPOLYLINE
  5
127
100
AcDbEntity
  8
Layer_1
 62
7
100
AcDbPolyline
 90
2
 70
0
 10
352.175498
 20
24.839338
 30
0.0
 10
328.175514
 20
24.839338
 30
0.0
  0
LWPOLYLINE
  5
128
100
AcDbEntity
  8
Layer_1
 62
7
100
AcDbPolyline
 90
13
 70
0
 10
352.175498
 20
27.839343
 30
0.0
 10
352.563748
 20
27.788225
 30
0.0
 10
352.925512
 20
27.638392
 30
0.0
 10
353.236160
 20
27.400002
 30
0.0
 10
353.474549
 20
27.089355
 30
0.0
 10
353.624409
 20
26.727564
 30
0.0
 10
353.675500
 20
26.339340
 30
0.0
 10
353.624409
 20
25.951117
 30
0.0
 10
353.474549
 20
25.589353
 30
0.0
 10
353.236160
 20
25.278679
 30
0.0
 10
352.925512
 20
25.040316
 30
0.0
 10
352.563748
 20
24.890456
 30
0.0
 10
352.175498
 20
24.839338
 30
0.0
  0
LWPOLYLINE
  5
129
100
AcDbEntity
  8
Layer_1
 62
7
100
AcDbPolyline
 90
13
 70
0
 10
328.175514
 20
27.839343
 30
0.0
 10
327.787291
 20
27.788225
 30
0.0
 10
327.425500
 20
27.638392
 30
0.0
 10
327.114853
 20
27.400002
 30
0.0
 10
326.876463
 20
27.089355
 30
0.0
 10
326.726630
 20
26.727564
 30
0.0
 10
326.675512
 20
26.339340
 30
0.0
 10
326.726630
 20
25.951117
 30
0.0
 10
326.876463
 20
25.589353
 30
0.0
 10
327.114853
 20
25.278679
 30
0.0
 10
327.425500
 20
25.040316
 30
0.0
 10
327.787291
 20
24.890456
 30
0.0
 10
328.175514
 20
24.839338
 30
0.0
  0
LWPOLYLINE
  5
12a
100
AcDbEntity
  8
Layer_1
 62
7
100
AcDbPolyline
 90
24
 70
1
 10
330.175500
 20
72.839342
 30
0.0
 10
330.686622
 20
68.957058
 30
0.0
 10
332.185116
 20
65.339344
 30
0.0
 10
334.568906
 20
62.232741
 30
0.0
 10
337.675511
 20
59.848962
 30
0.0
 10
341.293212
 20
58.350457
 30
0.0
 10
345.175496
 20
57.839343
 30
0.0
 10
349.057807
 20
58.350457
 30
0.0
 10
352.675508
 20
59.848962
 30
0.0
 10
355.782113
 20
62.232741
 30
0.0
 10
358.165903
 20
65.339344
 30
0.0
 10
359.664397
 20
68.957058
 30
0.0
 10
360.175519
 20
72.839342
 30
0.0
 10
359.664397
 20
76.721629
 30
0.0
 10
358.165903
 20
80.339343
 30
0.0
 10
355.782113
 20
83.445945
 30
0.0
 10
352.675508
 20
85.829725
 30
0.0
 10
349.057807
 20
87.328229
 30
0.0
 10
345.175496
 20
87.839344
 30
0.0
 10
341.293212
 20
87.328229
 30
0.0
 10
337.675511
 20
85.829725
 30
0.0
 10
334.568906
 20
83.445945
 30
0.0
 10
332.185116
 20
80.339343
 30
0.0
 10
330.686622
 20
76.721629
 30
0.0
  0
LWPOLYLINE
  5
12b
100
AcDbEntity
  8
Layer_1
 62
7
100
AcDbPolyline
 90
24
 70
1
 10
330.212330
 20
87.802516
 30
0.0
 10
330.029582
 20
87.564344
 30
0.0
 10
329.914700
 20
87.286986
 30
0.0
 10
329.875515
 20
86.989343
 30
0.0
 10
329.914700
 20
86.691700
 30
0.0
 10
330.029582
 20
86.414343
 30
0.0
 10
330.212330
 20
86.176170
 30
0.0
 10
330.450508
 20
85.993415
 30
0.0
 10
330.727870
 20
85.878527
 30
0.0
 10
331.025500
 20
85.839342
 30
0.0
 10
331.323157
 20
85.878527
 30
0.0
 10
331.600519
 20
85.993415
 30
0.0
 10
331.838671
 20
86.176170
 30
0.0
 10
332.021445
 20
86.414343
 30
0.0
 10
332.136327
 20
86.691700
 30
0.0
 10
332.175512
 20
86.989343
 30
0.0
 10
332.136327
 20
87.286986
 30
0.0
 10
332.021445
 20
87.564344
 30
0.0
 10
331.838671
 20
87.802516
 30
0.0
 10
331.600519
 20
87.985272
 30
0.0
 10
331.323157
 20
88.100157
 30
0.0
 10
331.025500
 20
88.139344
 30
0.0
 10
330.727870
 20
88.100157
 30
0.0
 10
330.450508
 20
87.985272
 30
0.0
  0
LWPOLYLINE
  5
12c
100
AcDbEntity
  8
Layer_1
 62
7
100
AcDbPolyline
 90
24
 70
1
 10
330.212330
 20
57.876171
 30
0.0
 10
330.450508
 20
57.693415
 30
0.0
 10
330.727870
 20
57.578527
 30
0.0
 10
331.025500
 20
57.539343
 30
0.0
 10
331.323157
 20
57.578527
 30
0.0
 10
331.600519
 20
57.693415
 30
0.0
 10
331.838671
 20
57.876171
 30
0.0
 10
332.021445
 20
58.114343
 30
0.0
 10
332.136327
 20
58.391701
 30
0.0
 10
332.175512
 20
58.689344
 30
0.0
 10
332.136327
 20
58.986984
 30
0.0
 10
332.021445
 20
59.264344
 30
0.0
 10
331.838671
 20
59.502517
 30
0.0
 10
331.600519
 20
59.685272
 30
0.0
 10
331.323157
 20
59.800157
 30
0.0
 10
331.025500
 20
59.839344
 30
0.0
 10
330.727870
 20
59.800157
 30
0.0
 10
330.450508
 20
59.685272
 30
0.0
 10
330.212330
 20
59.502517
 30
0.0
 10
330.029582
 20
59.264344
 30
0.0
 10
329.914700
 20
58.986984
 30
0.0
 10
329.875515
 20
58.689344
 30
0.0
 10
329.914700
 20
58.391701
 30
0.0
 10
330.029582
 20
58.114343
 30
0.0
  0
LWPOLYLINE
  5
12d
100
AcDbEntity
  8
Layer_1
 62
7
100
AcDbPolyline
 90
24
 70
1
 10
358.175507
 20
58.689344
 30
0.0
 10
358.214692
 20
58.391701
 30
0.0
 10
358.329574
 20
58.114343
 30
0.0
 10
358.512348
 20
57.876171
 30
0.0
 10
358.750500
 20
57.693415
 30
0.0
 10
359.027862
 20
57.578527
 30
0.0
 10
359.325518
 20
57.539343
 30
0.0
 10
359.623148
 20
57.578527
 30
0.0
 10
359.900511
 20
57.693415
 30
0.0
 10
360.138689
 20
57.876171
 30
0.0
 10
360.321437
 20
58.114343
 30
0.0
 10
360.436319
 20
58.391701
 30
0.0
 10
360.475503
 20
58.689344
 30
0.0
 10
360.436319
 20
58.986984
 30
0.0
 10
360.321437
 20
59.264344
 30
0.0
 10
360.138689
 20
59.502517
 30
0.0
 10
359.900511
 20
59.685272
 30
0.0
 10
359.623148
 20
59.800157
 30
0.0
 10
359.325518
 20
59.839344
 30
0.0
 10
359.027862
 20
59.800157
 30
0.0
 10
358.750500
 20
59.685272
 30
0.0
 10
358.512348
 20
59.502517
 30
0.0
 10
358.329574
 20
59.264344
 30
0.0
 10
358.214692
 20
58.986984
 30
0.0
  0
LWPOLYLINE
  5
12e
100
AcDbEntity
  8
Layer_1
 62
7
100
AcDbPolyline
 90
24
 70
1
 10
358.750500
 20
85.993415
 30
0.0
 10
359.027862
 20
85.878527
 30
0.0
 10
359.325518
 20
85.839342
 30
0.0
 10
359.623148
 20
85.878527
 30
0.0
 10
359.900511
 20
85.993415
 30
0.0
 10
360.138689
 20
86.176170
 30
0.0
 10
360.321437
 20
86.414343
 30
0.0
 10
360.436319
 20
86.691700
 30
0.0
 10
360.475503
 20
86.989343
 30
0.0
 10
360.436319
 20
87.286986
 30
0.0
 10
360.321437
 20
87.564344
 30
0.0
 10
360.138689
 20
87.802516
 30
0.0
 10
359.900511
 20
87.985272
 30
0.0
 10
359.623148
 20
88.100157
 30
0.0
 10
359.325518
 20
88.139344
 30
0.0
 10
359.027862
 20
88.100157
 30
0.0
 10
358.750500
 20
87.985272
 30
0.0
 10
358.512348
 20
87.802516
 30
0.0
 10
358.329574
 20
87.564344
 30
0.0
 10
358.214692
 20
87.286986
 30
0.0
 10
358.175507
 20
86.989343
 30
0.0
 10
358.214692
 20
86.691700
 30
0.0
 10
358.329574
 20
86.414343
 30
0.0
 10
358.512348
 20
86.176170
 30
0.0
  0
LWPOLYLINE
  5
12f
100
AcDbEntity
  8
Layer_1
 62
7
100
AcDbPolyline
 90
24
 70
1
 10
223.450522
 20
57.693415
 30
0.0
 10
223.727858
 20
57.578527
 30
0.0
 10
224.025515
 20
57.539343
 30
0.0
 10
224.323144
 20
57.578527
 30
0.0
 10
224.600507
 20
57.693415
 30
0.0
 10
224.838685
 20
57.876171
 30
0.0
 10
225.021433
 20
58.114343
 30
0.0
 10
225.136315
 20
58.391701
 30
0.0
 10
225.175500
 20
58.689344
 30
0.0
 10
225.136315
 20
58.986984
 30
0.0
 10
225.021433
 20
59.264344
 30
0.0
 10
224.838685
 20
59.502517
 30
0.0
 10
224.600507
 20
59.685272
 30
0.0
 10
224.323144
 20
59.800157
 30
0.0
 10
224.025515
 20
59.839344
 30
0.0
 10
223.727858
 20
59.800157
 30
0.0
 10
223.450522
 20
59.685272
 30
0.0
 10
223.212344
 20
59.502517
 30
0.0
 10
223.029570
 20
59.264344
 30
0.0
 10
222.914688
 20
58.986984
 30
0.0
 10
222.875503
 20
58.689344
 30
0.0
 10
222.914688
 20
58.391701
 30
0.0
 10
223.029570
 20
58.114343
 30
0.0
 10
223.212344
 20
57.876171
 30
0.0
  0
LWPOLYLINE
  5
130
100
AcDbEntity
  8
Layer_1
 62
7
100
AcDbPolyline
 90
24
 70
1
 10
251.512336
 20
57.876171
 30
0.0
 10
251.750514
 20
57.693415
 30
0.0
 10
252.027876
 20
57.578527
 30
0.0
 10
252.325506
 20
57.539343
 30
0.0
 10
252.623163
 20
57.578527
 30
0.0
 10
252.900499
 20
57.693415
 30
0.0
 10
253.138677
 20
57.876171
 30
0.0
 10
253.321451
 20
58.114343
 30
0.0
 10
253.436333
 20
58.391701
 30
0.0
 10
253.475518
 20
58.689344
 30
0.0
 10
253.436333
 20
58.986984
 30
0.0
 10
253.321451
 20
59.264344
 30
0.0
 10
253.138677
 20
59.502517
 30
0.0
 10
252.900499
 20
59.685272
 30
0.0
 10
252.623163
 20
59.800157
 30
0.0
 10
252.325506
 20
59.839344
 30
0.0
 10
252.027876
 20
59.800157
 30
0.0
 10
251.750514
 20
59.685272
 30
0.0
 10
251.512336
 20
59.502517
 30
0.0
 10
251.329588
 20
59.264344
 30
0.0
 10
251.214706
 20
58.986984
 30
0.0
 10
251.175521
 20
58.689344
 30
0.0
 10
251.214706
 20
58.391701
 30
0.0
 10
251.329588
 20
58.114343
 30
0.0
  0
LWPOLYLINE
  5
131
100
AcDbEntity
  8
Layer_1
 62
7
100
AcDbPolyline
 90
24
 70
1
 10
251.329588
 20
86.414343
 30
0.0
 10
251.512336
 20
86.176170
 30
0.0
 10
251.750514
 20
85.993415
 30
0.0
 10
252.027876
 20
85.878527
 30
0.0
 10
252.325506
 20
85.839342
 30
0.0
 10
252.623163
 20
85.878527
 30
0.0
 10
252.900499
 20
85.993415
 30
0.0
 10
253.138677
 20
86.176170
 30
0.0
 10
253.321451
 20
86.414343
 30
0.0
 10
253.436333
 20
86.691700
 30
0.0
 10
253.475518
 20
86.989343
 30
0.0
 10
253.436333
 20
87.286986
 30
0.0
 10
253.321451
 20
87.564344
 30
0.0
 10
253.138677
 20
87.802516
 30
0.0
 10
252.900499
 20
87.985272
 30
0.0
 10
252.623163
 20
88.100157
 30
0.0
 10
252.325506
 20
88.139344
 30
0.0
 10
252.027876
 20
88.100157
 30
0.0
 10
251.750514
 20
87.985272
 30
0.0
 10
251.512336
 20
87.802516
 30
0.0
 10
251.329588
 20
87.564344
 30
0.0
 10
251.214706
 20
87.286986
 30
0.0
 10
251.175521
 20
86.989343
 30
0.0
 10
251.214706
 20
86.691700
 30
0.0
  0
LWPOLYLINE
  5
132
100
AcDbEntity
  8
Layer_1
 62
7
100
AcDbPolyline
 90
24
 70
1
 10
223.450522
 20
87.985272
 30
0.0
 10
223.212344
 20
87.802516
 30
0.0
 10
223.029570
 20
87.564344
 30
0.0
 10
222.914688
 20
87.286986
 30
0.0
 10
222.875503
 20
86.989343
 30
0.0
 10
222.914688
 20
86.691700
 30
0.0
 10
223.029570
 20
86.414343
 30
0.0
 10
223.212344
 20
86.176170
 30
0.0
 10
223.450522
 20
85.993415
 30
0.0
 10
223.727858
 20
85.878527
 30
0.0
 10
224.025515
 20
85.839342
 30
0.0
 10
224.323144
 20
85.878527
 30
0.0
 10
224.600507
 20
85.993415
 30
0.0
 10
224.838685
 20
86.176170
 30
0.0
 10
225.021433
 20
86.414343
 30
0.0
 10
225.136315
 20
86.691700
 30
0.0
 10
225.175500
 20
86.989343
 30
0.0
 10
225.136315
 20
87.286986
 30
0.0
 10
225.021433
 20
87.564344
 30
0.0
 10
224.838685
 20
87.802516
 30
0.0
 10
224.600507
 20
87.985272
 30
0.0
 10
224.323144
 20
88.100157
 30
0.0
 10
224.025515
 20
88.139344
 30
0.0
 10
223.727858
 20
88.100157
 30
0.0
  0
LWPOLYLINE
  5
133
100
AcDbEntity
  8
Layer_1
 62
7
100
AcDbPolyline
 90
24
 70
1
 10
223.686610
 20
76.721629
 30
0.0
 10
223.175514
 20
72.839342
 30
0.0
 10
223.686610
 20
68.957058
 30
0.0
 10
225.185130
 20
65.339344
 30
0.0
 10
227.568920
 20
62.232741
 30
0.0
 10
230.675499
 20
59.848962
 30
0.0
 10
234.293226
 20
58.350457
 30
0.0
 10
238.175510
 20
57.839343
 30
0.0
 10
242.057795
 20
58.350457
 30
0.0
 10
245.675522
 20
59.848962
 30
0.0
 10
248.782100
 20
62.232741
 30
0.0
 10
251.165890
 20
65.339344
 30
0.0
 10
252.664385
 20
68.957058
 30
0.0
 10
253.175507
 20
72.839342
 30
0.0
 10
252.664385
 20
76.721629
 30
0.0
 10
251.165890
 20
80.339343
 30
0.0
 10
248.782100
 20
83.445945
 30
0.0
 10
245.675522
 20
85.829725
 30
0.0
 10
242.057795
 20
87.328229
 30
0.0
 10
238.175510
 20
87.839344
 30
0.0
 10
234.293226
 20
87.328229
 30
0.0
 10
230.675499
 20
85.829725
 30
0.0
 10
227.568920
 20
83.445945
 30
0.0
 10
225.185130
 20
80.339343
 30
0.0
  0
LWPOLYLINE
  5
134
100
AcDbEntity
  8
Layer_1
 62
7
100
AcDbPolyline
 90
24
 70
1
 10
274.968415
 20
4.632236
 30
0.0
 10
275.175505
 20
4.473327
 30
0.0
 10
275.416699
 20
4.373421
 30
0.0
 10
275.675514
 20
4.339342
 30
0.0
 10
275.934330
 20
4.373421
 30
0.0
 10
276.175497
 20
4.473327
 30
0.0
 10
276.382613
 20
4.632236
 30
0.0
 10
276.541522
 20
4.839352
 30
0.0
 10
276.641429
 20
5.080520
 30
0.0
 10
276.675507
 20
5.339335
 30
0.0
 10
276.641429
 20
5.598150
 30
0.0
 10
276.541522
 20
5.839345
 30
0.0
 10
276.382613
 20
6.046460
 30
0.0
 10
276.175497
 20
6.205369
 30
0.0
 10
275.934330
 20
6.305276
 30
0.0
 10
275.675514
 20
6.339354
 30
0.0
 10
275.416699
 20
6.305276
 30
0.0
 10
275.175505
 20
6.205369
 30
0.0
 10
274.968415
 20
6.046460
 30
0.0
 10
274.809480
 20
5.839345
 30
0.0
 10
274.709573
 20
5.598150
 30
0.0
 10
274.675522
 20
5.339335
 30
0.0
 10
274.709573
 20
5.080520
 30
0.0
 10
274.809480
 20
4.839352
 30
0.0
  0
LWPOLYLINE
  5
135
100
AcDbEntity
  8
Layer_1
 62
7
100
AcDbPolyline
 90
24
 70
1
 10
281.709575
 20
5.598150
 30
0.0
 10
281.675497
 20
5.339335
 30
0.0
 10
281.709575
 20
5.080520
 30
0.0
 10
281.809482
 20
4.839352
 30
0.0
 10
281.968391
 20
4.632236
 30
0.0
 10
282.175507
 20
4.473327
 30
0.0
 10
282.416701
 20
4.373421
 30
0.0
 10
282.675516
 20
4.339342
 30
0.0
 10
282.934332
 20
4.373421
 30
0.0
 10
283.175499
 20
4.473327
 30
0.0
 10
283.382615
 20
4.632236
 30
0.0
 10
283.541524
 20
4.839352
 30
0.0
 10
283.641430
 20
5.080520
 30
0.0
 10
283.675509
 20
5.339335
 30
0.0
 10
283.641430
 20
5.598150
 30
0.0
 10
283.541524
 20
5.839345
 30
0.0
 10
283.382615
 20
6.046460
 30
0.0
 10
283.175499
 20
6.205369
 30
0.0
 10
282.934332
 20
6.305276
 30
0.0
 10
282.675516
 20
6.339354
 30
0.0
 10
282.416701
 20
6.305276
 30
0.0
 10
282.175507
 20
6.205369
 30
0.0
 10
281.968391
 20
6.046460
 30
0.0
 10
281.809482
 20
5.839345
 30
0.0
  0
LWPOLYLINE
  5
136
100
AcDbEntity
  8
Layer_1
 62
7
100
AcDbPolyline
 90
24
 70
1
 10
289.934333
 20
6.305276
 30
0.0
 10
289.675518
 20
6.339354
 30
0.0
 10
289.416702
 20
6.305276
 30
0.0
 10
289.175508
 20
6.205369
 30
0.0
 10
288.968392
 20
6.046460
 30
0.0
 10
288.809484
 20
5.839345
 30
0.0
 10
288.709577
 20
5.598150
 30
0.0
 10
288.675499
 20
5.339335
 30
0.0
 10
288.709577
 20
5.080520
 30
0.0
 10
288.809484
 20
4.839352
 30
0.0
 10
288.968392
 20
4.632236
 30
0.0
 10
289.175508
 20
4.473327
 30
0.0
 10
289.416702
 20
4.373421
 30
0.0
 10
289.675518
 20
4.339342
 30
0.0
 10
289.934333
 20
4.373421
 30
0.0
 10
290.175501
 20
4.473327
 30
0.0
 10
290.382617
 20
4.632236
 30
0.0
 10
290.541526
 20
4.839352
 30
0.0
 10
290.641432
 20
5.080520
 30
0.0
 10
290.675511
 20
5.339335
 30
0.0
 10
290.641432
 20
5.598150
 30
0.0
 10
290.541526
 20
5.839345
 30
0.0
 10
290.382617
 20
6.046460
 30
0.0
 10
290.175501
 20
6.205369
 30
0.0
  0
LWPOLYLINE
  5
137
100
AcDbEntity
  8
Layer_1
 62
7
100
AcDbPolyline
 90
24
 70
1
 10
296.934335
 20
4.373421
 30
0.0
 10
297.175503
 20
4.473327
 30
0.0
 10
297.382619
 20
4.632236
 30
0.0
 10
297.541527
 20
4.839352
 30
0.0
 10
297.641434
 20
5.080520
 30
0.0
 10
297.675512
 20
5.339335
 30
0.0
 10
297.641434
 20
5.598150
 30
0.0
 10
297.541527
 20
5.839345
 30
0.0
 10
297.382619
 20
6.046460
 30
0.0
 10
297.175503
 20
6.205369
 30
0.0
 10
296.934335
 20
6.305276
 30
0.0
 10
296.675520
 20
6.339354
 30
0.0
 10
296.416678
 20
6.305276
 30
0.0
 10
296.175510
 20
6.205369
 30
0.0
 10
295.968394
 20
6.046460
 30
0.0
 10
295.809486
 20
5.839345
 30
0.0
 10
295.709579
 20
5.598150
 30
0.0
 10
295.675501
 20
5.339335
 30
0.0
 10
295.709579
 20
5.080520
 30
0.0
 10
295.809486
 20
4.839352
 30
0.0
 10
295.968394
 20
4.632236
 30
0.0
 10
296.175510
 20
4.473327
 30
0.0
 10
296.416678
 20
4.373421
 30
0.0
 10
296.675520
 20
4.339342
 30
0.0
  0
LWPOLYLINE
  5
138
100
AcDbEntity
  8
Layer_1
 62
7
100
AcDbPolyline
 90
24
 70
1
 10
303.175512
 20
6.205369
 30
0.0
 10
302.968396
 20
6.046460
 30
0.0
 10
302.809487
 20
5.839345
 30
0.0
 10
302.709581
 20
5.598150
 30
0.0
 10
302.675502
 20
5.339335
 30
0.0
 10
302.709581
 20
5.080520
 30
0.0
 10
302.809487
 20
4.839352
 30
0.0
 10
302.968396
 20
4.632236
 30
0.0
 10
303.175512
 20
4.473327
 30
0.0
 10
303.416680
 20
4.373421
 30
0.0
 10
303.675521
 20
4.339342
 30
0.0
 10
303.934337
 20
4.373421
 30
0.0
 10
304.175505
 20
4.473327
 30
0.0
 10
304.382620
 20
4.632236
 30
0.0
 10
304.541529
 20
4.839352
 30
0.0
 10
304.641436
 20
5.080520
 30
0.0
 10
304.675514
 20
5.339335
 30
0.0
 10
304.641436
 20
5.598150
 30
0.0
 10
304.541529
 20
5.839345
 30
0.0
 10
304.382620
 20
6.046460
 30
0.0
 10
304.175505
 20
6.205369
 30
0.0
 10
303.934337
 20
6.305276
 30
0.0
 10
303.675521
 20
6.339354
 30
0.0
 10
303.416680
 20
6.305276
 30
0.0
  0
LWPOLYLINE
  5
139
100
AcDbEntity
  8
Layer_1
 62
7
100
AcDbPolyline
 90
24
 70
1
 10
309.675504
 20
5.339335
 30
0.0
 10
309.709582
 20
5.080520
 30
0.0
 10
309.809489
 20
4.839352
 30
0.0
 10
309.968398
 20
4.632236
 30
0.0
 10
310.175514
 20
4.473327
 30
0.0
 10
310.416681
 20
4.373421
 30
0.0
 10
310.675497
 20
4.339342
 30
0.0
 10
310.934339
 20
4.373421
 30
0.0
 10
311.175506
 20
4.473327
 30
0.0
 10
311.382622
 20
4.632236
 30
0.0
 10
311.541531
 20
4.839352
 30
0.0
 10
311.641438
 20
5.080520
 30
0.0
 10
311.675516
 20
5.339335
 30
0.0
 10
311.641438
 20
5.598150
 30
0.0
 10
311.541531
 20
5.839345
 30
0.0
 10
311.382622
 20
6.046460
 30
0.0
 10
311.175506
 20
6.205369
 30
0.0
 10
310.934339
 20
6.305276
 30
0.0
 10
310.675497
 20
6.339354
 30
0.0
 10
310.416681
 20
6.305276
 30
0.0
 10
310.175514
 20
6.205369
 30
0.0
 10
309.968398
 20
6.046460
 30
0.0
 10
309.809489
 20
5.839345
 30
0.0
 10
309.709582
 20
5.598150
 30
0.0
  0
LWPOLYLINE
  5
13a
100
AcDbEntity
  8
Layer_1
 62
7
100
AcDbPolyline
 90
24
 70
1
 10
316.809491
 20
4.839352
 30
0.0
 10
316.968400
 20
4.632236
 30
0.0
 10
317.175515
 20
4.473327
 30
0.0
 10
317.416683
 20
4.373421
 30
0.0
 10
317.675499
 20
4.339342
 30
0.0
 10
317.934340
 20
4.373421
 30
0.0
 10
318.175508
 20
4.473327
 30
0.0
 10
318.382624
 20
4.632236
 30
0.0
 10
318.541533
 20
4.839352
 30
0.0
 10
318.641439
 20
5.080520
 30
0.0
 10
318.675518
 20
5.339335
 30
0.0
 10
318.641439
 20
5.598150
 30
0.0
 10
318.541533
 20
5.839345
 30
0.0
 10
318.382624
 20
6.046460
 30
0.0
 10
318.175508
 20
6.205369
 30
0.0
 10
317.934340
 20
6.305276
 30
0.0
 10
317.675499
 20
6.339354
 30
0.0
 10
317.416683
 20
6.305276
 30
0.0
 10
317.175515
 20
6.205369
 30
0.0
 10
316.968400
 20
6.046460
 30
0.0
 10
316.809491
 20
5.839345
 30
0.0
 10
316.709584
 20
5.598150
 30
0.0
 10
316.675506
 20
5.339335
 30
0.0
 10
316.709584
 20
5.080520
 30
0.0
  0
LWPOLYLINE
  5
13b
100
AcDbEntity
  8
Layer_1
 62
7
100
AcDbPolyline
 90
24
 70
1
 10
324.934316
 20
6.305276
 30
0.0
 10
324.675500
 20
6.339354
 30
0.0
 10
324.416685
 20
6.305276
 30
0.0
 10
324.175517
 20
6.205369
 30
0.0
 10
323.968401
 20
6.046460
 30
0.0
 10
323.809493
 20
5.839345
 30
0.0
 10
323.709586
 20
5.598150
 30
0.0
 10
323.675508
 20
5.339335
 30
0.0
 10
323.709586
 20
5.080520
 30
0.0
 10
323.809493
 20
4.839352
 30
0.0
 10
323.968401
 20
4.632236
 30
0.0
 10
324.175517
 20
4.473327
 30
0.0
 10
324.416685
 20
4.373421
 30
0.0
 10
324.675500
 20
4.339342
 30
0.0
 10
324.934316
 20
4.373421
 30
0.0
 10
325.175510
 20
4.473327
 30
0.0
 10
325.382626
 20
4.632236
 30
0.0
 10
325.541535
 20
4.839352
 30
0.0
 10
325.641441
 20
5.080520
 30
0.0
 10
325.675520
 20
5.339335
 30
0.0
 10
325.641441
 20
5.598150
 30
0.0
 10
325.541535
 20
5.839345
 30
0.0
 10
325.382626
 20
6.046460
 30
0.0
 10
325.175510
 20
6.205369
 30
0.0
  0
LWPOLYLINE
  5
13c
100
AcDbEntity
  8
Layer_1
 62
7
100
AcDbPolyline
 90
24
 70
1
 10
330.809494
 20
4.839352
 30
0.0
 10
330.968403
 20
4.632236
 30
0.0
 10
331.175519
 20
4.473327
 30
0.0
 10
331.416687
 20
4.373421
 30
0.0
 10
331.675502
 20
4.339342
 30
0.0
 10
331.934318
 20
4.373421
 30
0.0
 10
332.175512
 20
4.473327
 30
0.0
 10
332.382628
 20
4.632236
 30
0.0
 10
332.541536
 20
4.839352
 30
0.0
 10
332.641443
 20
5.080520
 30
0.0
 10
332.675521
 20
5.339335
 30
0.0
 10
332.641443
 20
5.598150
 30
0.0
 10
332.541536
 20
5.839345
 30
0.0
 10
332.382628
 20
6.046460
 30
0.0
 10
332.175512
 20
6.205369
 30
0.0
 10
331.934318
 20
6.305276
 30
0.0
 10
331.675502
 20
6.339354
 30
0.0
 10
331.416687
 20
6.305276
 30
0.0
 10
331.175519
 20
6.205369
 30
0.0
 10
330.968403
 20
6.046460
 30
0.0
 10
330.809494
 20
5.839345
 30
0.0
 10
330.709588
 20
5.598150
 30
0.0
 10
330.675509
 20
5.339335
 30
0.0
 10
330.709588
 20
5.080520
 30
0.0
  0
LWPOLYLINE
  5
13d
100
AcDbEntity
  8
Layer_1
 62
7
100
AcDbPolyline
 90
24
 70
1
 10
339.541538
 20
4.839352
 30
0.0
 10
339.641445
 20
5.080520
 30
0.0
 10
339.675497
 20
5.339335
 30
0.0
 10
339.641445
 20
5.598150
 30
0.0
 10
339.541538
 20
5.839345
 30
0.0
 10
339.382603
 20
6.046460
 30
0.0
 10
339.175514
 20
6.205369
 30
0.0
 10
338.934319
 20
6.305276
 30
0.0
 10
338.675504
 20
6.339354
 30
0.0
 10
338.416689
 20
6.305276
 30
0.0
 10
338.175521
 20
6.205369
 30
0.0
 10
337.968405
 20
6.046460
 30
0.0
 10
337.809496
 20
5.839345
 30
0.0
 10
337.709590
 20
5.598150
 30
0.0
 10
337.675511
 20
5.339335
 30
0.0
 10
337.709590
 20
5.080520
 30
0.0
 10
337.809496
 20
4.839352
 30
0.0
 10
337.968405
 20
4.632236
 30
0.0
 10
338.175521
 20
4.473327
 30
0.0
 10
338.416689
 20
4.373421
 30
0.0
 10
338.675504
 20
4.339342
 30
0.0
 10
338.934319
 20
4.373421
 30
0.0
 10
339.175514
 20
4.473327
 30
0.0
 10
339.382603
 20
4.632236
 30
0.0
  0
LWPOLYLINE
  5
13e
100
AcDbEntity
  8
Layer_1
 62
7
100
AcDbPolyline
 90
24
 70
1
 10
346.175515
 20
4.473327
 30
0.0
 10
346.382605
 20
4.632236
 30
0.0
 10
346.541540
 20
4.839352
 30
0.0
 10
346.641447
 20
5.080520
 30
0.0
 10
346.675498
 20
5.339335
 30
0.0
 10
346.641447
 20
5.598150
 30
0.0
 10
346.541540
 20
5.839345
 30
0.0
 10
346.382605
 20
6.046460
 30
0.0
 10
346.175515
 20
6.205369
 30
0.0
 10
345.934321
 20
6.305276
 30
0.0
 10
345.675506
 20
6.339354
 30
0.0
 10
345.416690
 20
6.305276
 30
0.0
 10
345.175496
 20
6.205369
 30
0.0
 10
344.968407
 20
6.046460
 30
0.0
 10
344.809472
 20
5.839345
 30
0.0
 10
344.709591
 20
5.598150
 30
0.0
 10
344.675513
 20
5.339335
 30
0.0
 10
344.709591
 20
5.080520
 30
0.0
 10
344.809472
 20
4.839352
 30
0.0
 10
344.968407
 20
4.632236
 30
0.0
 10
345.175496
 20
4.473327
 30
0.0
 10
345.416690
 20
4.373421
 30
0.0
 10
345.675506
 20
4.339342
 30
0.0
 10
345.934321
 20
4.373421
 30
0.0
  0
LWPOLYLINE
  5
13f
100
AcDbEntity
  8
Layer_1
 62
7
100
AcDbPolyline
 90
24
 70
1
 10
352.675508
 20
6.339354
 30
0.0
 10
352.416692
 20
6.305276
 30
0.0
 10
352.175498
 20
6.205369
 30
0.0
 10
351.968409
 20
6.046460
 30
0.0
 10
351.809473
 20
5.839345
 30
0.0
 10
351.709593
 20
5.598150
 30
0.0
 10
351.675515
 20
5.339335
 30
0.0
 10
351.709593
 20
5.080520
 30
0.0
 10
351.809473
 20
4.839352
 30
0.0
 10
351.968409
 20
4.632236
 30
0.0
 10
352.175498
 20
4.473327
 30
0.0
 10
352.416692
 20
4.373421
 30
0.0
 10
352.675508
 20
4.339342
 30
0.0
 10
352.934323
 20
4.373421
 30
0.0
 10
353.175517
 20
4.473327
 30
0.0
 10
353.382606
 20
4.632236
 30
0.0
 10
353.541542
 20
4.839352
 30
0.0
 10
353.641422
 20
5.080520
 30
0.0
 10
353.675500
 20
5.339335
 30
0.0
 10
353.641422
 20
5.598150
 30
0.0
 10
353.541542
 20
5.839345
 30
0.0
 10
353.382606
 20
6.046460
 30
0.0
 10
353.175517
 20
6.205369
 30
0.0
 10
352.934323
 20
6.305276
 30
0.0
  0
LWPOLYLINE
  5
140
100
AcDbEntity
  8
Layer_1
 62
7
100
AcDbPolyline
 90
2
 70
0
 10
18.305370
 20
152.415370
 30
0.0
 10
179.305359
 20
152.415370
 30
0.0
  0
LWPOLYLINE
  5
141
100
AcDbEntity
  8
Layer_1
 62
7
100
AcDbPolyline
 90
2
 70
0
 10
6.305352
 20
280.415371
 30
0.0
 10
6.305352
 20
164.415362
 30
0.0
  0
LWPOLYLINE
  5
142
100
AcDbEntity
  8
Layer_1
 62
7
100
AcDbPolyline
 90
2
 70
0
 10
16.305359
 20
292.226445
 30
0.0
 10
16.288690
 20
284.990602
 30
0.0
  0
LWPOLYLINE
  5
143
100
AcDbEntity
  8
Layer_1
 62
7
100
AcDbPolyline
 90
2
 70
0
 10
20.305356
 20
292.415371
 30
0.0
 10
20.322025
 20
284.990602
 30
0.0
  0
LWPOLYLINE
  5
144
100
AcDbEntity
  8
Layer_1
 62
7
100
AcDbPolyline
 90
2
 70
0
 10
177.305347
 20
292.415371
 30
0.0
 10
20.305356
 20
292.415371
 30
0.0
  0
LWPOLYLINE
  5
145
100
AcDbEntity
  8
Layer_1
 62
7
100
AcDbPolyline
 90
2
 70
0
 10
177.305347
 20
292.415371
 30
0.0
 10
177.288678
 20
284.990602
 30
0.0
  0
LWPOLYLINE
  5
146
100
AcDbEntity
  8
Layer_1
 62
7
100
AcDbPolyline
 90
2
 70
0
 10
181.305371
 20
292.226445
 30
0.0
 10
181.322039
 20
284.990602
 30
0.0
  0
LWPOLYLINE
  5
147
100
AcDbEntity
  8
Layer_1
 62
7
100
AcDbPolyline
 90
2
 70
0
 10
191.305350
 20
164.415362
 30
0.0
 10
191.305350
 20
280.415371
 30
0.0
  0
LWPOLYLINE
  5
148
100
AcDbEntity
  8
Layer_1
 62
7
100
AcDbPolyline
 90
13
 70
0
 10
18.305370
 20
152.415370
 30
0.0
 10
16.739037
 20
152.518028
 30
0.0
 10
15.199533
 20
152.824257
 30
0.0
 10
13.713156
 20
153.328817
 30
0.0
 10
12.305361
 20
154.023057
 30
0.0
 10
11.000225
 20
154.895124
 30
0.0
 10
9.820077
 20
155.930095
 30
0.0
 10
8.785133
 20
157.110242
 30
0.0
 10
7.913066
 20
158.415379
 30
0.0
 10
7.218800
 20
159.823174
 30
0.0
 10
6.714239
 20
161.309550
 30
0.0
 10
6.408011
 20
162.849055
 30
0.0
 10
6.305352
 20
164.415362
 30
0.0
  0
LWPOLYLINE
  5
149
100
AcDbEntity
  8
Layer_1
 62
7
100
AcDbPolyline
 90
12
 70
0
 10
16.305359
 20
292.226445
 30
0.0
 10
14.813135
 20
291.895978
 30
0.0
 10
13.381104
 20
291.358488
 30
0.0
 10
12.029083
 20
290.643203
 30
0.0
 10
10.779060
 20
289.761743
 30
0.0
 10
9.651300
 20
288.728437
 30
0.0
 10
8.664139
 20
287.560063
 30
0.0
 10
7.833612
 20
286.275612
 30
0.0
 10
7.173239
 20
284.895947
 30
0.0
 10
6.693708
 20
283.443488
 30
0.0
 10
6.402851
 20
281.941829
 30
0.0
 10
6.305352
 20
280.415371
 30
0.0
  0
LWPOLYLINE
  5
14a
100
AcDbEntity
  8
Layer_1
 62
7
100
AcDbPolyline
 90
23
 70
0
 10
16.288611
 20
284.990602
 30
0.0
 10
15.227817
 20
284.356023
 30
0.0
 10
14.355115
 20
283.480598
 30
0.0
 10
13.723846
 20
282.417831
 30
0.0
 10
13.372611
 20
281.232672
 30
0.0
 10
13.322843
 20
279.997565
 30
0.0
 10
13.577610
 20
278.787991
 30
0.0
 10
14.121329
 20
277.677881
 30
0.0
 10
14.920768
 20
276.735083
 30
0.0
 10
15.927057
 20
276.017221
 30
0.0
 10
17.078736
 20
275.568170
 30
0.0
 10
18.305370
 20
275.415374
 30
0.0
 10
19.531979
 20
275.568170
 30
0.0
 10
20.683657
 20
276.017221
 30
0.0
 10
21.689947
 20
276.735083
 30
0.0
 10
22.489385
 20
277.677881
 30
0.0
 10
23.033104
 20
278.787991
 30
0.0
 10
23.287871
 20
279.997565
 30
0.0
 10
23.238103
 20
281.232672
 30
0.0
 10
22.886869
 20
282.417831
 30
0.0
 10
22.255600
 20
283.480598
 30
0.0
 10
21.382898
 20
284.356023
 30
0.0
 10
20.322104
 20
284.990602
 30
0.0
  0
LWPOLYLINE
  5
14b
100
AcDbEntity
  8
Layer_1
 62
7
100
AcDbPolyline
 90
23
 70
0
 10
177.288599
 20
284.990602
 30
0.0
 10
176.227805
 20
284.356023
 30
0.0
 10
175.355130
 20
283.480598
 30
0.0
 10
174.723860
 20
282.417831
 30
0.0
 10
174.372599
 20
281.232672
 30
0.0
 10
174.322858
 20
279.997565
 30
0.0
 10
174.577599
 20
278.787991
 30
0.0
 10
175.121317
 20
277.677881
 30
0.0
 10
175.920756
 20
276.735083
 30
0.0
 10
176.927072
 20
276.017221
 30
0.0
 10
178.078724
 20
275.568170
 30
0.0
 10
179.305359
 20
275.415374
 30
0.0
 10
180.531993
 20
275.568170
 30
0.0
 10
181.683645
 20
276.017221
 30
0.0
 10
182.689962
 20
276.735083
 30
0.0
 10
183.489400
 20
277.677881
 30
0.0
 10
184.033119
 20
278.787991
 30
0.0
 10
184.287860
 20
279.997565
 30
0.0
 10
184.238118
 20
281.232672
 30
0.0
 10
183.886857
 20
282.417831
 30
0.0
 10
183.255588
 20
283.480598
 30
0.0
 10
182.382913
 20
284.356023
 30
0.0
 10
181.322119
 20
284.990602
 30
0.0
  0
LWPOLYLINE
  5
14c
100
AcDbEntity
  8
Layer_1
 62
7
100
AcDbPolyline
 90
12
 70
0
 10
181.305371
 20
292.226445
 30
0.0
 10
182.797594
 20
291.895978
 30
0.0
 10
184.229598
 20
291.358488
 30
0.0
 10
185.581619
 20
290.643203
 30
0.0
 10
186.831670
 20
289.761743
 30
0.0
 10
187.959430
 20
288.728437
 30
0.0
 10
188.946590
 20
287.560063
 30
0.0
 10
189.777117
 20
286.275612
 30
0.0
 10
190.437491
 20
284.895947
 30
0.0
 10
190.917021
 20
283.443488
 30
0.0
 10
191.207878
 20
281.941829
 30
0.0
 10
191.305350
 20
280.415371
 30
0.0
  0
LWPOLYLINE
  5
14d
100
AcDbEntity
  8
Layer_1
 62
7
100
AcDbPolyline
 90
13
 70
0
 10
179.305359
 20
152.415370
 30
0.0
 10
180.871666
 20
152.518028
 30
0.0
 10
182.411197
 20
152.824257
 30
0.0
 10
183.897573
 20
153.328817
 30
0.0
 10
185.305368
 20
154.023057
 30
0.0
 10
186.610504
 20
154.895124
 30
0.0
 10
187.790652
 20
155.930095
 30
0.0
 10
188.825596
 20
157.110242
 30
0.0
 10
189.697663
 20
158.415379
 30
0.0
 10
190.391903
 20
159.823174
 30
0.0
 10
190.896463
 20
161.309550
 30
0.0
 10
191.202692
 20
162.849055
 30
0.0
 10
191.305350
 20
164.415362
 30
0.0
  0
LWPOLYLINE
  5
14e
100
AcDbEntity
  8
Layer_1
 62
7
100
AcDbPolyline
 90
24
 70
1
 10
159.805356
 20
155.915384
 30
0.0
 10
159.546540
 20
155.881306
 30
0.0
 10
159.305346
 20
155.781399
 30
0.0
 10
159.098257
 20
155.622490
 30
0.0
 10
158.939321
 20
155.415374
 30
0.0
 10
158.839441
 20
155.174180
 30
0.0
 10
158.805363
 20
154.915365
 30
0.0
 10
158.839441
 20
154.656549
 30
0.0
 10
158.939321
 20
154.415382
 30
0.0
 10
159.098257
 20
154.208266
 30
0.0
 10
159.305346
 20
154.049357
 30
0.0
 10
159.546540
 20
153.949450
 30
0.0
 10
159.805356
 20
153.915372
 30
0.0
 10
160.064171
 20
153.949450
 30
0.0
 10
160.305365
 20
154.049357
 30
0.0
 10
160.512455
 20
154.208266
 30
0.0
 10
160.671390
 20
154.415382
 30
0.0
 10
160.771296
 20
154.656549
 30
0.0
 10
160.805348
 20
154.915365
 30
0.0
 10
160.771296
 20
155.174180
 30
0.0
 10
160.671390
 20
155.415374
 30
0.0
 10
160.512455
 20
155.622490
 30
0.0
 10
160.305365
 20
155.781399
 30
0.0
 10
160.064171
 20
155.881306
 30
0.0
  0
LWPOLYLINE
  5
14f
100
AcDbEntity
  8
Layer_1
 62
7
100
AcDbPolyline
 90
24
 70
1
 10
153.305363
 20
154.049357
 30
0.0
 10
153.512453
 20
154.208266
 30
0.0
 10
153.671388
 20
154.415382
 30
0.0
 10
153.771295
 20
154.656549
 30
0.0
 10
153.805346
 20
154.915365
 30
0.0
 10
153.771295
 20
155.174180
 30
0.0
 10
153.671388
 20
155.415374
 30
0.0
 10
153.512453
 20
155.622490
 30
0.0
 10
153.305363
 20
155.781399
 30
0.0
 10
153.064169
 20
155.881306
 30
0.0
 10
152.805354
 20
155.915384
 30
0.0
 10
152.546538
 20
155.881306
 30
0.0
 10
152.305371
 20
155.781399
 30
0.0
 10
152.098255
 20
155.622490
 30
0.0
 10
151.939346
 20
155.415374
 30
0.0
 10
151.839439
 20
155.174180
 30
0.0
 10
151.805361
 20
154.915365
 30
0.0
 10
151.839439
 20
154.656549
 30
0.0
 10
151.939346
 20
154.415382
 30
0.0
 10
152.098255
 20
154.208266
 30
0.0
 10
152.305371
 20
154.049357
 30
0.0
 10
152.546538
 20
153.949450
 30
0.0
 10
152.805354
 20
153.915372
 30
0.0
 10
153.064169
 20
153.949450
 30
0.0
  0
LWPOLYLINE
  5
150
100
AcDbEntity
  8
Layer_1
 62
7
100
AcDbPolyline
 90
24
 70
1
 10
146.671386
 20
154.415382
 30
0.0
 10
146.771293
 20
154.656549
 30
0.0
 10
146.805371
 20
154.915365
 30
0.0
 10
146.771293
 20
155.174180
 30
0.0
 10
146.671386
 20
155.415374
 30
0.0
 10
146.512477
 20
155.622490
 30
0.0
 10
146.305362
 20
155.781399
 30
0.0
 10
146.064167
 20
155.881306
 30
0.0
 10
145.805352
 20
155.915384
 30
0.0
 10
145.546537
 20
155.881306
 30
0.0
 10
145.305369
 20
155.781399
 30
0.0
 10
145.098253
 20
155.622490
 30
0.0
 10
144.939344
 20
155.415374
 30
0.0
 10
144.839438
 20
155.174180
 30
0.0
 10
144.805359
 20
154.915365
 30
0.0
 10
144.839438
 20
154.656549
 30
0.0
 10
144.939344
 20
154.415382
 30
0.0
 10
145.098253
 20
154.208266
 30
0.0
 10
145.305369
 20
154.049357
 30
0.0
 10
145.546537
 20
153.949450
 30
0.0
 10
145.805352
 20
153.915372
 30
0.0
 10
146.064167
 20
153.949450
 30
0.0
 10
146.305362
 20
154.049357
 30
0.0
 10
146.512477
 20
154.208266
 30
0.0
  0
LWPOLYLINE
  5
151
100
AcDbEntity
  8
Layer_1
 62
7
100
AcDbPolyline
 90
24
 70
1
 10
137.939343
 20
154.415382
 30
0.0
 10
138.098251
 20
154.208266
 30
0.0
 10
138.305367
 20
154.049357
 30
0.0
 10
138.546535
 20
153.949450
 30
0.0
 10
138.805350
 20
153.915372
 30
0.0
 10
139.064166
 20
153.949450
 30
0.0
 10
139.305360
 20
154.049357
 30
0.0
 10
139.512476
 20
154.208266
 30
0.0
 10
139.671384
 20
154.415382
 30
0.0
 10
139.771291
 20
154.656549
 30
0.0
 10
139.805369
 20
154.915365
 30
0.0
 10
139.771291
 20
155.174180
 30
0.0
 10
139.671384
 20
155.415374
 30
0.0
 10
139.512476
 20
155.622490
 30
0.0
 10
139.305360
 20
155.781399
 30
0.0
 10
139.064166
 20
155.881306
 30
0.0
 10
138.805350
 20
155.915384
 30
0.0
 10
138.546535
 20
155.881306
 30
0.0
 10
138.305367
 20
155.781399
 30
0.0
 10
138.098251
 20
155.622490
 30
0.0
 10
137.939343
 20
155.415374
 30
0.0
 10
137.839436
 20
155.174180
 30
0.0
 10
137.805358
 20
154.915365
 30
0.0
 10
137.839436
 20
154.656549
 30
0.0
  0
LWPOLYLINE
  5
152
100
AcDbEntity
  8
Layer_1
 62
7
100
AcDbPolyline
 90
24
 70
1
 10
132.064190
 20
155.881306
 30
0.0
 10
131.805348
 20
155.915384
 30
0.0
 10
131.546533
 20
155.881306
 30
0.0
 10
131.305365
 20
155.781399
 30
0.0
 10
131.098249
 20
155.622490
 30
0.0
 10
130.939341
 20
155.415374
 30
0.0
 10
130.839434
 20
155.174180
 30
0.0
 10
130.805356
 20
154.915365
 30
0.0
 10
130.839434
 20
154.656549
 30
0.0
 10
130.939341
 20
154.415382
 30
0.0
 10
131.098249
 20
154.208266
 30
0.0
 10
131.305365
 20
154.049357
 30
0.0
 10
131.546533
 20
153.949450
 30
0.0
 10
131.805348
 20
153.915372
 30
0.0
 10
132.064190
 20
153.949450
 30
0.0
 10
132.305358
 20
154.049357
 30
0.0
 10
132.512474
 20
154.208266
 30
0.0
 10
132.671383
 20
154.415382
 30
0.0
 10
132.771289
 20
154.656549
 30
0.0
 10
132.805368
 20
154.915365
 30
0.0
 10
132.771289
 20
155.174180
 30
0.0
 10
132.671383
 20
155.415374
 30
0.0
 10
132.512474
 20
155.622490
 30
0.0
 10
132.305358
 20
155.781399
 30
0.0
  0
LWPOLYLINE
  5
153
100
AcDbEntity
  8
Layer_1
 62
7
100
AcDbPolyline
 90
24
 70
1
 10
123.939339
 20
154.415382
 30
0.0
 10
124.098248
 20
154.208266
 30
0.0
 10
124.305364
 20
154.049357
 30
0.0
 10
124.546531
 20
153.949450
 30
0.0
 10
124.805347
 20
153.915372
 30
0.0
 10
125.064189
 20
153.949450
 30
0.0
 10
125.305356
 20
154.049357
 30
0.0
 10
125.512472
 20
154.208266
 30
0.0
 10
125.671381
 20
154.415382
 30
0.0
 10
125.771287
 20
154.656549
 30
0.0
 10
125.805366
 20
154.915365
 30
0.0
 10
125.771287
 20
155.174180
 30
0.0
 10
125.671381
 20
155.415374
 30
0.0
 10
125.512472
 20
155.622490
 30
0.0
 10
125.305356
 20
155.781399
 30
0.0
 10
125.064189
 20
155.881306
 30
0.0
 10
124.805347
 20
155.915384
 30
0.0
 10
124.546531
 20
155.881306
 30
0.0
 10
124.305364
 20
155.781399
 30
0.0
 10
124.098248
 20
155.622490
 30
0.0
 10
123.939339
 20
155.415374
 30
0.0
 10
123.839432
 20
155.174180
 30
0.0
 10
123.805354
 20
154.915365
 30
0.0
 10
123.839432
 20
154.656549
 30
0.0
  0
LWPOLYLINE
  5
154
100
AcDbEntity
  8
Layer_1
 62
7
100
AcDbPolyline
 90
24
 70
1
 10
116.805352
 20
154.915365
 30
0.0
 10
116.839430
 20
154.656549
 30
0.0
 10
116.939337
 20
154.415382
 30
0.0
 10
117.098246
 20
154.208266
 30
0.0
 10
117.305362
 20
154.049357
 30
0.0
 10
117.546529
 20
153.949450
 30
0.0
 10
117.805371
 20
153.915372
 30
0.0
 10
118.064187
 20
153.949450
 30
0.0
 10
118.305354
 20
154.049357
 30
0.0
 10
118.512470
 20
154.208266
 30
0.0
 10
118.671379
 20
154.415382
 30
0.0
 10
118.771286
 20
154.656549
 30
0.0
 10
118.805364
 20
154.915365
 30
0.0
 10
118.771286
 20
155.174180
 30
0.0
 10
118.671379
 20
155.415374
 30
0.0
 10
118.512470
 20
155.622490
 30
0.0
 10
118.305354
 20
155.781399
 30
0.0
 10
118.064187
 20
155.881306
 30
0.0
 10
117.805371
 20
155.915384
 30
0.0
 10
117.546529
 20
155.881306
 30
0.0
 10
117.305362
 20
155.781399
 30
0.0
 10
117.098246
 20
155.622490
 30
0.0
 10
116.939337
 20
155.415374
 30
0.0
 10
116.839430
 20
155.174180
 30
0.0
  0
LWPOLYLINE
  5
155
100
AcDbEntity
  8
Layer_1
 62
7
100
AcDbPolyline
 90
24
 70
1
 10
110.305360
 20
155.781399
 30
0.0
 10
110.098244
 20
155.622490
 30
0.0
 10
109.939335
 20
155.415374
 30
0.0
 10
109.839429
 20
155.174180
 30
0.0
 10
109.805350
 20
154.915365
 30
0.0
 10
109.839429
 20
154.656549
 30
0.0
 10
109.939335
 20
154.415382
 30
0.0
 10
110.098244
 20
154.208266
 30
0.0
 10
110.305360
 20
154.049357
 30
0.0
 10
110.546528
 20
153.949450
 30
0.0
 10
110.805370
 20
153.915372
 30
0.0
 10
111.064185
 20
153.949450
 30
0.0
 10
111.305353
 20
154.049357
 30
0.0
 10
111.512468
 20
154.208266
 30
0.0
 10
111.671377
 20
154.415382
 30
0.0
 10
111.771284
 20
154.656549
 30
0.0
 10
111.805362
 20
154.915365
 30
0.0
 10
111.771284
 20
155.174180
 30
0.0
 10
111.671377
 20
155.415374
 30
0.0
 10
111.512468
 20
155.622490
 30
0.0
 10
111.305353
 20
155.781399
 30
0.0
 10
111.064185
 20
155.881306
 30
0.0
 10
110.805370
 20
155.915384
 30
0.0
 10
110.546528
 20
155.881306
 30
0.0
  0
LWPOLYLINE
  5
156
100
AcDbEntity
  8
Layer_1
 62
7
100
AcDbPolyline
 90
24
 70
1
 10
104.064183
 20
153.949450
 30
0.0
 10
104.305351
 20
154.049357
 30
0.0
 10
104.512467
 20
154.208266
 30
0.0
 10
104.671375
 20
154.415382
 30
0.0
 10
104.771282
 20
154.656549
 30
0.0
 10
104.805360
 20
154.915365
 30
0.0
 10
104.771282
 20
155.174180
 30
0.0
 10
104.671375
 20
155.415374
 30
0.0
 10
104.512467
 20
155.622490
 30
0.0
 10
104.305351
 20
155.781399
 30
0.0
 10
104.064183
 20
155.881306
 30
0.0
 10
103.805368
 20
155.915384
 30
0.0
 10
103.546552
 20
155.881306
 30
0.0
 10
103.305358
 20
155.781399
 30
0.0
 10
103.098242
 20
155.622490
 30
0.0
 10
102.939334
 20
155.415374
 30
0.0
 10
102.839427
 20
155.174180
 30
0.0
 10
102.805349
 20
154.915365
 30
0.0
 10
102.839427
 20
154.656549
 30
0.0
 10
102.939334
 20
154.415382
 30
0.0
 10
103.098242
 20
154.208266
 30
0.0
 10
103.305358
 20
154.049357
 30
0.0
 10
103.546552
 20
153.949450
 30
0.0
 10
103.805368
 20
153.915372
 30
0.0
  0
LWPOLYLINE
  5
157
100
AcDbEntity
  8
Layer_1
 62
7
100
AcDbPolyline
 90
24
 70
1
 10
97.064181
 20
155.881306
 30
0.0
 10
96.805366
 20
155.915384
 30
0.0
 10
96.546551
 20
155.881306
 30
0.0
 10
96.305356
 20
155.781399
 30
0.0
 10
96.098241
 20
155.622490
 30
0.0
 10
95.939332
 20
155.415374
 30
0.0
 10
95.839425
 20
155.174180
 30
0.0
 10
95.805347
 20
154.915365
 30
0.0
 10
95.839425
 20
154.656549
 30
0.0
 10
95.939332
 20
154.415382
 30
0.0
 10
96.098241
 20
154.208266
 30
0.0
 10
96.305356
 20
154.049357
 30
0.0
 10
96.546551
 20
153.949450
 30
0.0
 10
96.805366
 20
153.915372
 30
0.0
 10
97.064181
 20
153.949450
 30
0.0
 10
97.305349
 20
154.049357
 30
0.0
 10
97.512465
 20
154.208266
 30
0.0
 10
97.671374
 20
154.415382
 30
0.0
 10
97.771280
 20
154.656549
 30
0.0
 10
97.805359
 20
154.915365
 30
0.0
 10
97.771280
 20
155.174180
 30
0.0
 10
97.671374
 20
155.415374
 30
0.0
 10
97.512465
 20
155.622490
 30
0.0
 10
97.305349
 20
155.781399
 30
0.0
  0
LWPOLYLINE
  5
158
100
AcDbEntity
  8
Layer_1
 62
7
100
AcDbPolyline
 90
24
 70
1
 10
88.839423
 20
155.174180
 30
0.0
 10
88.805371
 20
154.915365
 30
0.0
 10
88.839423
 20
154.656549
 30
0.0
 10
88.939330
 20
154.415382
 30
0.0
 10
89.098265
 20
154.208266
 30
0.0
 10
89.305355
 20
154.049357
 30
0.0
 10
89.546549
 20
153.949450
 30
0.0
 10
89.805364
 20
153.915372
 30
0.0
 10
90.064180
 20
153.949450
 30
0.0
 10
90.305347
 20
154.049357
 30
0.0
 10
90.512463
 20
154.208266
 30
0.0
 10
90.671372
 20
154.415382
 30
0.0
 10
90.771279
 20
154.656549
 30
0.0
 10
90.805357
 20
154.915365
 30
0.0
 10
90.771279
 20
155.174180
 30
0.0
 10
90.671372
 20
155.415374
 30
0.0
 10
90.512463
 20
155.622490
 30
0.0
 10
90.305347
 20
155.781399
 30
0.0
 10
90.064180
 20
155.881306
 30
0.0
 10
89.805364
 20
155.915384
 30
0.0
 10
89.546549
 20
155.881306
 30
0.0
 10
89.305355
 20
155.781399
 30
0.0
 10
89.098265
 20
155.622490
 30
0.0
 10
88.939330
 20
155.415374
 30
0.0
  0
LWPOLYLINE
  5
159
100
AcDbEntity
  8
Layer_1
 62
7
100
AcDbPolyline
 90
24
 70
1
 10
82.098263
 20
154.208266
 30
0.0
 10
82.305353
 20
154.049357
 30
0.0
 10
82.546547
 20
153.949450
 30
0.0
 10
82.805362
 20
153.915372
 30
0.0
 10
83.064178
 20
153.949450
 30
0.0
 10
83.305372
 20
154.049357
 30
0.0
 10
83.512461
 20
154.208266
 30
0.0
 10
83.671397
 20
154.415382
 30
0.0
 10
83.771277
 20
154.656549
 30
0.0
 10
83.805355
 20
154.915365
 30
0.0
 10
83.771277
 20
155.174180
 30
0.0
 10
83.671397
 20
155.415374
 30
0.0
 10
83.512461
 20
155.622490
 30
0.0
 10
83.305372
 20
155.781399
 30
0.0
 10
83.064178
 20
155.881306
 30
0.0
 10
82.805362
 20
155.915384
 30
0.0
 10
82.546547
 20
155.881306
 30
0.0
 10
82.305353
 20
155.781399
 30
0.0
 10
82.098263
 20
155.622490
 30
0.0
 10
81.939328
 20
155.415374
 30
0.0
 10
81.839422
 20
155.174180
 30
0.0
 10
81.805370
 20
154.915365
 30
0.0
 10
81.839422
 20
154.656549
 30
0.0
 10
81.939328
 20
154.415382
 30
0.0
  0
LWPOLYLINE
  5
15a
100
AcDbEntity
  8
Layer_1
 62
7
100
AcDbPolyline
 90
24
 70
1
 10
15.305366
 20
164.415362
 30
0.0
 10
15.407574
 20
165.191834
 30
0.0
 10
15.707294
 20
165.915364
 30
0.0
 10
16.184047
 20
166.536685
 30
0.0
 10
16.805368
 20
167.013438
 30
0.0
 10
17.528898
 20
167.313158
 30
0.0
 10
18.305370
 20
167.415366
 30
0.0
 10
19.081817
 20
167.313158
 30
0.0
 10
19.805373
 20
167.013438
 30
0.0
 10
20.426694
 20
166.536685
 30
0.0
 10
20.903446
 20
165.915364
 30
0.0
 10
21.203140
 20
165.191834
 30
0.0
 10
21.305349
 20
164.415362
 30
0.0
 10
21.203140
 20
163.638915
 30
0.0
 10
20.903446
 20
162.915386
 30
0.0
 10
20.426694
 20
162.294065
 30
0.0
 10
19.805373
 20
161.817286
 30
0.0
 10
19.081817
 20
161.517592
 30
0.0
 10
18.305370
 20
161.415383
 30
0.0
 10
17.528898
 20
161.517592
 30
0.0
 10
16.805368
 20
161.817286
 30
0.0
 10
16.184047
 20
162.294065
 30
0.0
 10
15.707294
 20
162.915386
 30
0.0
 10
15.407574
 20
163.638915
 30
0.0
  0
LWPOLYLINE
  5
15b
100
AcDbEntity
  8
Layer_1
 62
7
100
AcDbPolyline
 90
24
 70
1
 10
176.305354
 20
164.415362
 30
0.0
 10
176.407589
 20
165.191834
 30
0.0
 10
176.707283
 20
165.915364
 30
0.0
 10
177.184035
 20
166.536685
 30
0.0
 10
177.805356
 20
167.013438
 30
0.0
 10
178.528912
 20
167.313158
 30
0.0
 10
179.305359
 20
167.415366
 30
0.0
 10
180.081805
 20
167.313158
 30
0.0
 10
180.805361
 20
167.013438
 30
0.0
 10
181.426682
 20
166.536685
 30
0.0
 10
181.903435
 20
165.915364
 30
0.0
 10
182.203128
 20
165.191834
 30
0.0
 10
182.305363
 20
164.415362
 30
0.0
 10
182.203128
 20
163.638915
 30
0.0
 10
181.903435
 20
162.915386
 30
0.0
 10
181.426682
 20
162.294065
 30
0.0
 10
180.805361
 20
161.817286
 30
0.0
 10
180.081805
 20
161.517592
 30
0.0
 10
179.305359
 20
161.415383
 30
0.0
 10
178.528912
 20
161.517592
 30
0.0
 10
177.805356
 20
161.817286
 30
0.0
 10
177.184035
 20
162.294065
 30
0.0
 10
176.707283
 20
162.915386
 30
0.0
 10
176.407589
 20
163.638915
 30
0.0
  0
LWPOLYLINE
  5
15c
100
AcDbEntity
  8
Layer_1
 62
7
100
AcDbPolyline
 90
2
 70
0
 10
68.305349
 20
180.415377
 30
0.0
 10
68.305349
 20
170.415371
 30
0.0
  0
LWPOLYLINE
  5
15d
100
AcDbEntity
  8
Layer_1
 62
7
100
AcDbPolyline
 90
2
 70
0
 10
118.305354
 20
170.415371
 30
0.0
 10
68.305349
 20
170.415371
 30
0.0
  0
LWPOLYLINE
  5
15e
100
AcDbEntity
  8
Layer_1
 62
7
100
AcDbPolyline
 90
2
 70
0
 10
118.305354
 20
202.915374
 30
0.0
 10
118.305354
 20
170.415371
 30
0.0
  0
LWPOLYLINE
  5
15f
100
AcDbEntity
  8
Layer_1
 62
7
100
AcDbPolyline
 90
2
 70
0
 10
122.305352
 20
202.915374
 30
0.0
 10
118.305354
 20
202.915374
 30
0.0
  0
LWPOLYLINE
  5
160
100
AcDbEntity
  8
Layer_1
 62
7
100
AcDbPolyline
 90
2
 70
0
 10
122.305352
 20
176.415380
 30
0.0
 10
122.305352
 20
202.915374
 30
0.0
  0
LWPOLYLINE
  5
161
100
AcDbEntity
  8
Layer_1
 62
7
100
AcDbPolyline
 90
2
 70
0
 10
167.305367
 20
170.415371
 30
0.0
 10
128.305361
 20
170.415371
 30
0.0
  0
LWPOLYLINE
  5
162
100
AcDbEntity
  8
Layer_1
 62
7
100
AcDbPolyline
 90
2
 70
0
 10
173.305350
 20
268.415372
 30
0.0
 10
173.305350
 20
176.415380
 30
0.0
  0
LWPOLYLINE
  5
163
100
AcDbEntity
  8
Layer_1
 62
7
100
AcDbPolyline
 90
2
 70
0
 10
167.305367
 20
274.415373
 30
0.0
 10
30.305362
 20
274.415373
 30
0.0
  0
LWPOLYLINE
  5
164
100
AcDbEntity
  8
Layer_1
 62
7
100
AcDbPolyline
 90
2
 70
0
 10
24.305353
 20
268.415372
 30
0.0
 10
24.305353
 20
186.415373
 30
0.0
  0
LWPOLYLINE
  5
165
100
AcDbEntity
  8
Layer_1
 62
7
100
AcDbPolyline
 90
2
 70
0
 10
68.305349
 20
180.415377
 30
0.0
 10
30.305362
 20
180.415377
 30
0.0
  0
LWPOLYLINE
  5
166
100
AcDbEntity
  8
Layer_1
 62
7
100
AcDbPolyline
 90
13
 70
0
 10
128.305361
 20
170.415371
 30
0.0
 10
127.522194
 20
170.466700
 30
0.0
 10
126.752442
 20
170.619814
 30
0.0
 10
126.009254
 20
170.872094
 30
0.0
 10
125.305356
 20
171.219228
 30
0.0
 10
124.652788
 20
171.655261
 30
0.0
 10
124.062714
 20
172.172733
 30
0.0
 10
123.545242
 20
172.762807
 30
0.0
 10
123.109209
 20
173.415375
 30
0.0
 10
122.762075
 20
174.119273
 30
0.0
 10
122.509795
 20
174.862461
 30
0.0
 10
122.356681
 20
175.632213
 30
0.0
 10
122.305352
 20
176.415380
 30
0.0
  0
LWPOLYLINE
  5
167
100
AcDbEntity
  8
Layer_1
 62
7
100
AcDbPolyline
 90
13
 70
0
 10
167.305367
 20
170.415371
 30
0.0
 10
168.088507
 20
170.466700
 30
0.0
 10
168.858286
 20
170.619814
 30
0.0
 10
169.601448
 20
170.872094
 30
0.0
 10
170.305371
 20
171.219228
 30
0.0
 10
170.957940
 20
171.655261
 30
0.0
 10
171.547987
 20
172.172733
 30
0.0
 10
172.065486
 20
172.762807
 30
0.0
 10
172.501519
 20
173.415375
 30
0.0
 10
172.848626
 20
174.119273
 30
0.0
 10
173.100906
 20
174.862461
 30
0.0
 10
173.254020
 20
175.632213
 30
0.0
 10
173.305350
 20
176.415380
 30
0.0
  0
LWPOLYLINE
  5
168
100
AcDbEntity
  8
Layer_1
 62
7
100
AcDbPolyline
 90
13
 70
0
 10
173.305350
 20
268.415372
 30
0.0
 10
173.254020
 20
269.198531
 30
0.0
 10
173.100906
 20
269.968285
 30
0.0
 10
172.848626
 20
270.711474
 30
0.0
 10
172.501519
 20
271.415371
 30
0.0
 10
172.065486
 20
272.067942
 30
0.0
 10
171.547987
 20
272.658013
 30
0.0
 10
170.957940
 20
273.175493
 30
0.0
 10
170.305371
 20
273.611524
 30
0.0
 10
169.601448
 20
273.958649
 30
0.0
 10
168.858286
 20
274.210927
 30
0.0
 10
168.088507
 20
274.364041
 30
0.0
 10
167.305367
 20
274.415373
 30
0.0
  0
LWPOLYLINE
  5
169
100
AcDbEntity
  8
Layer_1
 62
7
100
AcDbPolyline
 90
13
 70
0
 10
24.305353
 20
268.415372
 30
0.0
 10
24.356682
 20
269.198531
 30
0.0
 10
24.509797
 20
269.968285
 30
0.0
 10
24.762077
 20
270.711474
 30
0.0
 10
25.109210
 20
271.415371
 30
0.0
 10
25.545244
 20
272.067942
 30
0.0
 10
26.062716
 20
272.658013
 30
0.0
 10
26.652789
 20
273.175493
 30
0.0
 10
27.305358
 20
273.611524
 30
0.0
 10
28.009255
 20
273.958649
 30
0.0
 10
28.752443
 20
274.210927
 30
0.0
 10
29.522196
 20
274.364041
 30
0.0
 10
30.305362
 20
274.415373
 30
0.0
  0
LWPOLYLINE
  5
16a
100
AcDbEntity
  8
Layer_1
 62
7
100
AcDbPolyline
 90
13
 70
0
 10
30.305362
 20
180.415377
 30
0.0
 10
29.522196
 20
180.466706
 30
0.0
 10
28.752443
 20
180.619820
 30
0.0
 10
28.009255
 20
180.872101
 30
0.0
 10
27.305358
 20
181.219234
 30
0.0
 10
26.652789
 20
181.655241
 30
0.0
 10
26.062716
 20
182.172739
 30
0.0
 10
25.545244
 20
182.762813
 30
0.0
 10
25.109210
 20
183.415381
 30
0.0
 10
24.762077
 20
184.119279
 30
0.0
 10
24.509797
 20
184.862459
 30
0.0
 10
24.356682
 20
185.632217
 30
0.0
 10
24.305353
 20
186.415373
 30
0.0
  0
LWPOLYLINE
  5
16b
100
AcDbEntity
  8
Layer_1
 62
7
100
AcDbPolyline
 90
2
 70
0
 10
211.781930
 20
151.175140
 30
0.0
 10
372.781919
 20
151.175140
 30
0.0
  0
LWPOLYLINE
  5
16c
100
AcDbEntity
  8
Layer_1
 62
7
100
AcDbPolyline
 90
2
 70
0
 10
199.781912
 20
279.175141
 30
0.0
 10
199.781912
 20
163.175132
 30
0.0
  0
LWPOLYLINE
  5
16d
100
AcDbEntity
  8
Layer_1
 62
7
100
AcDbPolyline
 90
2
 70
0
 10
209.781919
 20
290.986215
 30
0.0
 10
209.765250
 20
283.750372
 30
0.0
  0
LWPOLYLINE
  5
16e
100
AcDbEntity
  8
Layer_1
 62
7
100
AcDbPolyline
 90
2
 70
0
 10
213.781916
 20
291.175141
 30
0.0
 10
213.798585
 20
283.750372
 30
0.0
  0
LWPOLYLINE
  5
16f
100
AcDbEntity
  8
Layer_1
 62
7
100
AcDbPolyline
 90
2
 70
0
 10
370.781907
 20
291.175141
 30
0.0
 10
213.781916
 20
291.175141
 30
0.0
  0
LWPOLYLINE
  5
170
100
AcDbEntity
  8
Layer_1
 62
7
100
AcDbPolyline
 90
2
 70
0
 10
370.781907
 20
291.175141
 30
0.0
 10
370.765238
 20
283.750372
 30
0.0
  0
LWPOLYLINE
  5
171
100
AcDbEntity
  8
Layer_1
 62
7
100
AcDbPolyline
 90
2
 70
0
 10
374.781931
 20
290.986215
 30
0.0
 10
374.798599
 20
283.750372
 30
0.0
  0
LWPOLYLINE
  5
172
100
AcDbEntity
  8
Layer_1
 62
7
100
AcDbPolyline
 90
2
 70
0
 10
384.781910
 20
163.175132
 30
0.0
 10
384.781910
 20
279.175141
 30
0.0
  0
LWPOLYLINE
  5
173
100
AcDbEntity
  8
Layer_1
 62
7
100
AcDbPolyline
 90
13
 70
0
 10
211.781930
 20
151.175140
 30
0.0
 10
210.215597
 20
151.277798
 30
0.0
 10
208.676093
 20
151.584027
 30
0.0
 10
207.189716
 20
152.088587
 30
0.0
 10
205.781921
 20
152.782827
 30
0.0
 10
204.476785
 20
153.654894
 30
0.0
 10
203.296637
 20
154.689865
 30
0.0
 10
202.261693
 20
155.870012
 30
0.0
 10
201.389626
 20
157.175149
 30
0.0
 10
200.695360
 20
158.582944
 30
0.0
 10
200.190799
 20
160.069320
 30
0.0
 10
199.884571
 20
161.608825
 30
0.0
 10
199.781912
 20
163.175132
 30
0.0
  0
LWPOLYLINE
  5
174
100
AcDbEntity
  8
Layer_1
 62
7
100
AcDbPolyline
 90
12
 70
0
 10
209.781919
 20
290.986215
 30
0.0
 10
208.289695
 20
290.655748
 30
0.0
 10
206.857664
 20
290.118258
 30
0.0
 10
205.505643
 20
289.402973
 30
0.0
 10
204.255620
 20
288.521513
 30
0.0
 10
203.127860
 20
287.488207
 30
0.0
 10
202.140699
 20
286.319833
 30
0.0
 10
201.310172
 20
285.035382
 30
0.0
 10
200.649799
 20
283.655717
 30
0.0
 10
200.170268
 20
282.203258
 30
0.0
 10
199.879411
 20
280.701599
 30
0.0
 10
199.781912
 20
279.175141
 30
0.0
  0
LWPOLYLINE
  5
175
100
AcDbEntity
  8
Layer_1
 62
7
100
AcDbPolyline
 90
23
 70
0
 10
209.765171
 20
283.750372
 30
0.0
 10
208.704377
 20
283.115793
 30
0.0
 10
207.831675
 20
282.240368
 30
0.0
 10
207.200406
 20
281.177601
 30
0.0
 10
206.849171
 20
279.992442
 30
0.0
 10
206.799403
 20
278.757335
 30
0.0
 10
207.054170
 20
277.547761
 30
0.0
 10
207.597889
 20
276.437651
 30
0.0
 10
208.397328
 20
275.494853
 30
0.0
 10
209.403617
 20
274.776991
 30
0.0
 10
210.555296
 20
274.327940
 30
0.0
 10
211.781930
 20
274.175144
 30
0.0
 10
213.008539
 20
274.327940
 30
0.0
 10
214.160217
 20
274.776991
 30
0.0
 10
215.166507
 20
275.494853
 30
0.0
 10
215.965945
 20
276.437651
 30
0.0
 10
216.509664
 20
277.547761
 30
0.0
 10
216.764431
 20
278.757335
 30
0.0
 10
216.714663
 20
279.992442
 30
0.0
 10
216.363429
 20
281.177601
 30
0.0
 10
215.732160
 20
282.240368
 30
0.0
 10
214.859458
 20
283.115793
 30
0.0
 10
213.798664
 20
283.750372
 30
0.0
  0
LWPOLYLINE
  5
176
100
AcDbEntity
  8
Layer_1
 62
7
100
AcDbPolyline
 90
23
 70
0
 10
370.765159
 20
283.750372
 30
0.0
 10
369.704365
 20
283.115793
 30
0.0
 10
368.831690
 20
282.240368
 30
0.0
 10
368.200420
 20
281.177601
 30
0.0
 10
367.849159
 20
279.992442
 30
0.0
 10
367.799418
 20
278.757335
 30
0.0
 10
368.054159
 20
277.547761
 30
0.0
 10
368.597877
 20
276.437651
 30
0.0
 10
369.397316
 20
275.494853
 30
0.0
 10
370.403632
 20
274.776991
 30
0.0
 10
371.555284
 20
274.327940
 30
0.0
 10
372.781919
 20
274.175144
 30
0.0
 10
374.008553
 20
274.327940
 30
0.0
 10
375.160205
 20
274.776991
 30
0.0
 10
376.166522
 20
275.494853
 30
0.0
 10
376.965960
 20
276.437651
 30
0.0
 10
377.509679
 20
277.547761
 30
0.0
 10
377.764420
 20
278.757335
 30
0.0
 10
377.714678
 20
279.992442
 30
0.0
 10
377.363417
 20
281.177601
 30
0.0
 10
376.732148
 20
282.240368
 30
0.0
 10
375.859473
 20
283.115793
 30
0.0
 10
374.798679
 20
283.750372
 30
0.0
  0
LWPOLYLINE
  5
177
100
AcDbEntity
  8
Layer_1
 62
7
100
AcDbPolyline
 90
12
 70
0
 10
374.781931
 20
290.986215
 30
0.0
 10
376.274154
 20
290.655748
 30
0.0
 10
377.706158
 20
290.118258
 30
0.0
 10
379.058179
 20
289.402973
 30
0.0
 10
380.308230
 20
288.521513
 30
0.0
 10
381.435990
 20
287.488207
 30
0.0
 10
382.423150
 20
286.319833
 30
0.0
 10
383.253677
 20
285.035382
 30
0.0
 10
383.914051
 20
283.655717
 30
0.0
 10
384.393581
 20
282.203258
 30
0.0
 10
384.684438
 20
280.701599
 30
0.0
 10
384.781910
 20
279.175141
 30
0.0
  0
LWPOLYLINE
  5
178
100
AcDbEntity
  8
Layer_1
 62
7
100
AcDbPolyline
 90
13
 70
0
 10
372.781919
 20
151.175140
 30
0.0
 10
374.348226
 20
151.277798
 30
0.0
 10
375.887757
 20
151.584027
 30
0.0
 10
377.374133
 20
152.088587
 30
0.0
 10
378.781928
 20
152.782827
 30
0.0
 10
380.087064
 20
153.654894
 30
0.0
 10
381.267212
 20
154.689865
 30
0.0
 10
382.302156
 20
155.870012
 30
0.0
 10
383.174223
 20
157.175149
 30
0.0
 10
383.868463
 20
158.582944
 30
0.0
 10
384.373023
 20
160.069320
 30
0.0
 10
384.679252
 20
161.608825
 30
0.0
 10
384.781910
 20
163.175132
 30
0.0
  0
LWPOLYLINE
  5
179
100
AcDbEntity
  8
Layer_1
 62
7
100
AcDbPolyline
 90
24
 70
1
 10
353.281916
 20
154.675154
 30
0.0
 10
353.023100
 20
154.641076
 30
0.0
 10
352.781906
 20
154.541169
 30
0.0
 10
352.574817
 20
154.382260
 30
0.0
 10
352.415881
 20
154.175144
 30
0.0
 10
352.316001
 20
153.933950
 30
0.0
 10
352.281923
 20
153.675135
 30
0.0
 10
352.316001
 20
153.416319
 30
0.0
 10
352.415881
 20
153.175152
 30
0.0
 10
352.574817
 20
152.968036
 30
0.0
 10
352.781906
 20
152.809127
 30
0.0
 10
353.023100
 20
152.709220
 30
0.0
 10
353.281916
 20
152.675142
 30
0.0
 10
353.540731
 20
152.709220
 30
0.0
 10
353.781925
 20
152.809127
 30
0.0
 10
353.989015
 20
152.968036
 30
0.0
 10
354.147950
 20
153.175152
 30
0.0
 10
354.247856
 20
153.416319
 30
0.0
 10
354.281908
 20
153.675135
 30
0.0
 10
354.247856
 20
153.933950
 30
0.0
 10
354.147950
 20
154.175144
 30
0.0
 10
353.989015
 20
154.382260
 30
0.0
 10
353.781925
 20
154.541169
 30
0.0
 10
353.540731
 20
154.641076
 30
0.0
  0
LWPOLYLINE
  5
17a
100
AcDbEntity
  8
Layer_1
 62
7
100
AcDbPolyline
 90
24
 70
1
 10
346.781923
 20
152.809127
 30
0.0
 10
346.989013
 20
152.968036
 30
0.0
 10
347.147948
 20
153.175152
 30
0.0
 10
347.247855
 20
153.416319
 30
0.0
 10
347.281906
 20
153.675135
 30
0.0
 10
347.247855
 20
153.933950
 30
0.0
 10
347.147948
 20
154.175144
 30
0.0
 10
346.989013
 20
154.382260
 30
0.0
 10
346.781923
 20
154.541169
 30
0.0
 10
346.540729
 20
154.641076
 30
0.0
 10
346.281914
 20
154.675154
 30
0.0
 10
346.023098
 20
154.641076
 30
0.0
 10
345.781931
 20
154.541169
 30
0.0
 10
345.574815
 20
154.382260
 30
0.0
 10
345.415906
 20
154.175144
 30
0.0
 10
345.315999
 20
153.933950
 30
0.0
 10
345.281921
 20
153.675135
 30
0.0
 10
345.315999
 20
153.416319
 30
0.0
 10
345.415906
 20
153.175152
 30
0.0
 10
345.574815
 20
152.968036
 30
0.0
 10
345.781931
 20
152.809127
 30
0.0
 10
346.023098
 20
152.709220
 30
0.0
 10
346.281914
 20
152.675142
 30
0.0
 10
346.540729
 20
152.709220
 30
0.0
  0
LWPOLYLINE
  5
17b
100
AcDbEntity
  8
Layer_1
 62
7
100
AcDbPolyline
 90
24
 70
1
 10
340.147946
 20
153.175152
 30
0.0
 10
340.247853
 20
153.416319
 30
0.0
 10
340.281931
 20
153.675135
 30
0.0
 10
340.247853
 20
153.933950
 30
0.0
 10
340.147946
 20
154.175144
 30
0.0
 10
339.989037
 20
154.382260
 30
0.0
 10
339.781922
 20
154.541169
 30
0.0
 10
339.540727
 20
154.641076
 30
0.0
 10
339.281912
 20
154.675154
 30
0.0
 10
339.023097
 20
154.641076
 30
0.0
 10
338.781929
 20
154.541169
 30
0.0
 10
338.574813
 20
154.382260
 30
0.0
 10
338.415904
 20
154.175144
 30
0.0
 10
338.315998
 20
153.933950
 30
0.0
 10
338.281919
 20
153.675135
 30
0.0
 10
338.315998
 20
153.416319
 30
0.0
 10
338.415904
 20
153.175152
 30
0.0
 10
338.574813
 20
152.968036
 30
0.0
 10
338.781929
 20
152.809127
 30
0.0
 10
339.023097
 20
152.709220
 30
0.0
 10
339.281912
 20
152.675142
 30
0.0
 10
339.540727
 20
152.709220
 30
0.0
 10
339.781922
 20
152.809127
 30
0.0
 10
339.989037
 20
152.968036
 30
0.0
  0
LWPOLYLINE
  5
17c
100
AcDbEntity
  8
Layer_1
 62
7
100
AcDbPolyline
 90
24
 70
1
 10
331.415903
 20
153.175152
 30
0.0
 10
331.574811
 20
152.968036
 30
0.0
 10
331.781927
 20
152.809127
 30
0.0
 10
332.023095
 20
152.709220
 30
0.0
 10
332.281910
 20
152.675142
 30
0.0
 10
332.540726
 20
152.709220
 30
0.0
 10
332.781920
 20
152.809127
 30
0.0
 10
332.989036
 20
152.968036
 30
0.0
 10
333.147944
 20
153.175152
 30
0.0
 10
333.247851
 20
153.416319
 30
0.0
 10
333.281929
 20
153.675135
 30
0.0
 10
333.247851
 20
153.933950
 30
0.0
 10
333.147944
 20
154.175144
 30
0.0
 10
332.989036
 20
154.382260
 30
0.0
 10
332.781920
 20
154.541169
 30
0.0
 10
332.540726
 20
154.641076
 30
0.0
 10
332.281910
 20
154.675154
 30
0.0
 10
332.023095
 20
154.641076
 30
0.0
 10
331.781927
 20
154.541169
 30
0.0
 10
331.574811
 20
154.382260
 30
0.0
 10
331.415903
 20
154.175144
 30
0.0
 10
331.315996
 20
153.933950
 30
0.0
 10
331.281918
 20
153.675135
 30
0.0
 10
331.315996
 20
153.416319
 30
0.0
  0
LWPOLYLINE
  5
17d
100
AcDbEntity
  8
Layer_1
 62
7
100
AcDbPolyline
 90
24
 70
1
 10
325.540750
 20
154.641076
 30
0.0
 10
325.281908
 20
154.675154
 30
0.0
 10
325.023093
 20
154.641076
 30
0.0
 10
324.781925
 20
154.541169
 30
0.0
 10
324.574809
 20
154.382260
 30
0.0
 10
324.415901
 20
154.175144
 30
0.0
 10
324.315994
 20
153.933950
 30
0.0
 10
324.281916
 20
153.675135
 30
0.0
 10
324.315994
 20
153.416319
 30
0.0
 10
324.415901
 20
153.175152
 30
0.0
 10
324.574809
 20
152.968036
 30
0.0
 10
324.781925
 20
152.809127
 30
0.0
 10
325.023093
 20
152.709220
 30
0.0
 10
325.281908
 20
152.675142
 30
0.0
 10
325.540750
 20
152.709220
 30
0.0
 10
325.781918
 20
152.809127
 30
0.0
 10
325.989034
 20
152.968036
 30
0.0
 10
326.147943
 20
153.175152
 30
0.0
 10
326.247849
 20
153.416319
 30
0.0
 10
326.281928
 20
153.675135
 30
0.0
 10
326.247849
 20
153.933950
 30
0.0
 10
326.147943
 20
154.175144
 30
0.0
 10
325.989034
 20
154.382260
 30
0.0
 10
325.781918
 20
154.541169
 30
0.0
  0
LWPOLYLINE
  5
17e
100
AcDbEntity
  8
Layer_1
 62
7
100
AcDbPolyline
 90
24
 70
1
 10
317.415899
 20
153.175152
 30
0.0
 10
317.574808
 20
152.968036
 30
0.0
 10
317.781924
 20
152.809127
 30
0.0
 10
318.023091
 20
152.709220
 30
0.0
 10
318.281907
 20
152.675142
 30
0.0
 10
318.540749
 20
152.709220
 30
0.0
 10
318.781916
 20
152.809127
 30
0.0
 10
318.989032
 20
152.968036
 30
0.0
 10
319.147941
 20
153.175152
 30
0.0
 10
319.247847
 20
153.416319
 30
0.0
 10
319.281926
 20
153.675135
 30
0.0
 10
319.247847
 20
153.933950
 30
0.0
 10
319.147941
 20
154.175144
 30
0.0
 10
318.989032
 20
154.382260
 30
0.0
 10
318.781916
 20
154.541169
 30
0.0
 10
318.540749
 20
154.641076
 30
0.0
 10
318.281907
 20
154.675154
 30
0.0
 10
318.023091
 20
154.641076
 30
0.0
 10
317.781924
 20
154.541169
 30
0.0
 10
317.574808
 20
154.382260
 30
0.0
 10
317.415899
 20
154.175144
 30
0.0
 10
317.315992
 20
153.933950
 30
0.0
 10
317.281914
 20
153.675135
 30
0.0
 10
317.315992
 20
153.416319
 30
0.0
  0
LWPOLYLINE
  5
17f
100
AcDbEntity
  8
Layer_1
 62
7
100
AcDbPolyline
 90
24
 70
1
 10
310.281912
 20
153.675135
 30
0.0
 10
310.315990
 20
153.416319
 30
0.0
 10
310.415897
 20
153.175152
 30
0.0
 10
310.574806
 20
152.968036
 30
0.0
 10
310.781922
 20
152.809127
 30
0.0
 10
311.023089
 20
152.709220
 30
0.0
 10
311.281931
 20
152.675142
 30
0.0
 10
311.540747
 20
152.709220
 30
0.0
 10
311.781914
 20
152.809127
 30
0.0
 10
311.989030
 20
152.968036
 30
0.0
 10
312.147939
 20
153.175152
 30
0.0
 10
312.247846
 20
153.416319
 30
0.0
 10
312.281924
 20
153.675135
 30
0.0
 10
312.247846
 20
153.933950
 30
0.0
 10
312.147939
 20
154.175144
 30
0.0
 10
311.989030
 20
154.382260
 30
0.0
 10
311.781914
 20
154.541169
 30
0.0
 10
311.540747
 20
154.641076
 30
0.0
 10
311.281931
 20
154.675154
 30
0.0
 10
311.023089
 20
154.641076
 30
0.0
 10
310.781922
 20
154.541169
 30
0.0
 10
310.574806
 20
154.382260
 30
0.0
 10
310.415897
 20
154.175144
 30
0.0
 10
310.315990
 20
153.933950
 30
0.0
  0
LWPOLYLINE
  5
180
100
AcDbEntity
  8
Layer_1
 62
7
100
AcDbPolyline
 90
24
 70
1
 10
303.781920
 20
154.541169
 30
0.0
 10
303.574804
 20
154.382260
 30
0.0
 10
303.415895
 20
154.175144
 30
0.0
 10
303.315989
 20
153.933950
 30
0.0
 10
303.281910
 20
153.675135
 30
0.0
 10
303.315989
 20
153.416319
 30
0.0
 10
303.415895
 20
153.175152
 30
0.0
 10
303.574804
 20
152.968036
 30
0.0
 10
303.781920
 20
152.809127
 30
0.0
 10
304.023088
 20
152.709220
 30
0.0
 10
304.281930
 20
152.675142
 30
0.0
 10
304.540745
 20
152.709220
 30
0.0
 10
304.781913
 20
152.809127
 30
0.0
 10
304.989028
 20
152.968036
 30
0.0
 10
305.147937
 20
153.175152
 30
0.0
 10
305.247844
 20
153.416319
 30
0.0
 10
305.281922
 20
153.675135
 30
0.0
 10
305.247844
 20
153.933950
 30
0.0
 10
305.147937
 20
154.175144
 30
0.0
 10
304.989028
 20
154.382260
 30
0.0
 10
304.781913
 20
154.541169
 30
0.0
 10
304.540745
 20
154.641076
 30
0.0
 10
304.281930
 20
154.675154
 30
0.0
 10
304.023088
 20
154.641076
 30
0.0
  0
LWPOLYLINE
  5
181
100
AcDbEntity
  8
Layer_1
 62
7
100
AcDbPolyline
 90
24
 70
1
 10
297.540743
 20
152.709220
 30
0.0
 10
297.781911
 20
152.809127
 30
0.0
 10
297.989027
 20
152.968036
 30
0.0
 10
298.147935
 20
153.175152
 30
0.0
 10
298.247842
 20
153.416319
 30
0.0
 10
298.281920
 20
153.675135
 30
0.0
 10
298.247842
 20
153.933950
 30
0.0
 10
298.147935
 20
154.175144
 30
0.0
 10
297.989027
 20
154.382260
 30
0.0
 10
297.781911
 20
154.541169
 30
0.0
 10
297.540743
 20
154.641076
 30
0.0
 10
297.281928
 20
154.675154
 30
0.0
 10
297.023112
 20
154.641076
 30
0.0
 10
296.781918
 20
154.541169
 30
0.0
 10
296.574802
 20
154.382260
 30
0.0
 10
296.415894
 20
154.175144
 30
0.0
 10
296.315987
 20
153.933950
 30
0.0
 10
296.281909
 20
153.675135
 30
0.0
 10
296.315987
 20
153.416319
 30
0.0
 10
296.415894
 20
153.175152
 30
0.0
 10
296.574802
 20
152.968036
 30
0.0
 10
296.781918
 20
152.809127
 30
0.0
 10
297.023112
 20
152.709220
 30
0.0
 10
297.281928
 20
152.675142
 30
0.0
  0
LWPOLYLINE
  5
182
100
AcDbEntity
  8
Layer_1
 62
7
100
AcDbPolyline
 90
24
 70
1
 10
290.540741
 20
154.641076
 30
0.0
 10
290.281926
 20
154.675154
 30
0.0
 10
290.023111
 20
154.641076
 30
0.0
 10
289.781916
 20
154.541169
 30
0.0
 10
289.574801
 20
154.382260
 30
0.0
 10
289.415892
 20
154.175144
 30
0.0
 10
289.315985
 20
153.933950
 30
0.0
 10
289.281907
 20
153.675135
 30
0.0
 10
289.315985
 20
153.416319
 30
0.0
 10
289.415892
 20
153.175152
 30
0.0
 10
289.574801
 20
152.968036
 30
0.0
 10
289.781916
 20
152.809127
 30
0.0
 10
290.023111
 20
152.709220
 30
0.0
 10
290.281926
 20
152.675142
 30
0.0
 10
290.540741
 20
152.709220
 30
0.0
 10
290.781909
 20
152.809127
 30
0.0
 10
290.989025
 20
152.968036
 30
0.0
 10
291.147934
 20
153.175152
 30
0.0
 10
291.247840
 20
153.416319
 30
0.0
 10
291.281919
 20
153.675135
 30
0.0
 10
291.247840
 20
153.933950
 30
0.0
 10
291.147934
 20
154.175144
 30
0.0
 10
290.989025
 20
154.382260
 30
0.0
 10
290.781909
 20
154.541169
 30
0.0
  0
LWPOLYLINE
  5
183
100
AcDbEntity
  8
Layer_1
 62
7
100
AcDbPolyline
 90
24
 70
1
 10
282.315983
 20
153.933950
 30
0.0
 10
282.281931
 20
153.675135
 30
0.0
 10
282.315983
 20
153.416319
 30
0.0
 10
282.415890
 20
153.175152
 30
0.0
 10
282.574825
 20
152.968036
 30
0.0
 10
282.781915
 20
152.809127
 30
0.0
 10
283.023109
 20
152.709220
 30
0.0
 10
283.281924
 20
152.675142
 30
0.0
 10
283.540740
 20
152.709220
 30
0.0
 10
283.781907
 20
152.809127
 30
0.0
 10
283.989023
 20
152.968036
 30
0.0
 10
284.147932
 20
153.175152
 30
0.0
 10
284.247839
 20
153.416319
 30
0.0
 10
284.281917
 20
153.675135
 30
0.0
 10
284.247839
 20
153.933950
 30
0.0
 10
284.147932
 20
154.175144
 30
0.0
 10
283.989023
 20
154.382260
 30
0.0
 10
283.781907
 20
154.541169
 30
0.0
 10
283.540740
 20
154.641076
 30
0.0
 10
283.281924
 20
154.675154
 30
0.0
 10
283.023109
 20
154.641076
 30
0.0
 10
282.781915
 20
154.541169
 30
0.0
 10
282.574825
 20
154.382260
 30
0.0
 10
282.415890
 20
154.175144
 30
0.0
  0
LWPOLYLINE
  5
184
100
AcDbEntity
  8
Layer_1
 62
7
100
AcDbPolyline
 90
24
 70
1
 10
275.574823
 20
152.968036
 30
0.0
 10
275.781913
 20
152.809127
 30
0.0
 10
276.023107
 20
152.709220
 30
0.0
 10
276.281922
 20
152.675142
 30
0.0
 10
276.540738
 20
152.709220
 30
0.0
 10
276.781932
 20
152.809127
 30
0.0
 10
276.989021
 20
152.968036
 30
0.0
 10
277.147957
 20
153.175152
 30
0.0
 10
277.247837
 20
153.416319
 30
0.0
 10
277.281915
 20
153.675135
 30
0.0
 10
277.247837
 20
153.933950
 30
0.0
 10
277.147957
 20
154.175144
 30
0.0
 10
276.989021
 20
154.382260
 30
0.0
 10
276.781932
 20
154.541169
 30
0.0
 10
276.540738
 20
154.641076
 30
0.0
 10
276.281922
 20
154.675154
 30
0.0
 10
276.023107
 20
154.641076
 30
0.0
 10
275.781913
 20
154.541169
 30
0.0
 10
275.574823
 20
154.382260
 30
0.0
 10
275.415888
 20
154.175144
 30
0.0
 10
275.315982
 20
153.933950
 30
0.0
 10
275.281930
 20
153.675135
 30
0.0
 10
275.315982
 20
153.416319
 30
0.0
 10
275.415888
 20
153.175152
 30
0.0
  0
LWPOLYLINE
  5
185
100
AcDbEntity
  8
Layer_1
 62
7
100
AcDbPolyline
 90
24
 70
1
 10
208.781926
 20
163.175132
 30
0.0
 10
208.884134
 20
163.951604
 30
0.0
 10
209.183854
 20
164.675134
 30
0.0
 10
209.660607
 20
165.296455
 30
0.0
 10
210.281928
 20
165.773208
 30
0.0
 10
211.005458
 20
166.072928
 30
0.0
 10
211.781930
 20
166.175136
 30
0.0
 10
212.558377
 20
166.072928
 30
0.0
 10
213.281933
 20
165.773208
 30
0.0
 10
213.903254
 20
165.296455
 30
0.0
 10
214.380006
 20
164.675134
 30
0.0
 10
214.679700
 20
163.951604
 30
0.0
 10
214.781909
 20
163.175132
 30
0.0
 10
214.679700
 20
162.398685
 30
0.0
 10
214.380006
 20
161.675156
 30
0.0
 10
213.903254
 20
161.053835
 30
0.0
 10
213.281933
 20
160.577056
 30
0.0
 10
212.558377
 20
160.277362
 30
0.0
 10
211.781930
 20
160.175153
 30
0.0
 10
211.005458
 20
160.277362
 30
0.0
 10
210.281928
 20
160.577056
 30
0.0
 10
209.660607
 20
161.053835
 30
0.0
 10
209.183854
 20
161.675156
 30
0.0
 10
208.884134
 20
162.398685
 30
0.0
  0
LWPOLYLINE
  5
186
100
AcDbEntity
  8
Layer_1
 62
7
100
AcDbPolyline
 90
24
 70
1
 10
369.781914
 20
163.175132
 30
0.0
 10
369.884149
 20
163.951604
 30
0.0
 10
370.183843
 20
164.675134
 30
0.0
 10
370.660595
 20
165.296455
 30
0.0
 10
371.281916
 20
165.773208
 30
0.0
 10
372.005472
 20
166.072928
 30
0.0
 10
372.781919
 20
166.175136
 30
0.0
 10
373.558365
 20
166.072928
 30
0.0
 10
374.281921
 20
165.773208
 30
0.0
 10
374.903242
 20
165.296455
 30
0.0
 10
375.379995
 20
164.675134
 30
0.0
 10
375.679688
 20
163.951604
 30
0.0
 10
375.781923
 20
163.175132
 30
0.0
 10
375.679688
 20
162.398685
 30
0.0
 10
375.379995
 20
161.675156
 30
0.0
 10
374.903242
 20
161.053835
 30
0.0
 10
374.281921
 20
160.577056
 30
0.0
 10
373.558365
 20
160.277362
 30
0.0
 10
372.781919
 20
160.175153
 30
0.0
 10
372.005472
 20
160.277362
 30
0.0
 10
371.281916
 20
160.577056
 30
0.0
 10
370.660595
 20
161.053835
 30
0.0
 10
370.183843
 20
161.675156
 30
0.0
 10
369.884149
 20
162.398685
 30
0.0
  0
LWPOLYLINE
  5
187
100
AcDbEntity
  8
Layer_1
 62
7
100
AcDbPolyline
 90
2
 70
0
 10
261.781909
 20
179.175147
 30
0.0
 10
261.781909
 20
169.175141
 30
0.0
  0
LWPOLYLINE
  5
188
100
AcDbEntity
  8
Layer_1
 62
7
100
AcDbPolyline
 90
2
 70
0
 10
311.781914
 20
169.175141
 30
0.0
 10
261.781909
 20
169.175141
 30
0.0
  0
LWPOLYLINE
  5
189
100
AcDbEntity
  8
Layer_1
 62
7
100
AcDbPolyline
 90
2
 70
0
 10
311.781914
 20
201.675144
 30
0.0
 10
311.781914
 20
169.175141
 30
0.0
  0
LWPOLYLINE
  5
18a
100
AcDbEntity
  8
Layer_1
 62
7
100
AcDbPolyline
 90
2
 70
0
 10
315.781912
 20
201.675144
 30
0.0
 10
311.781914
 20
201.675144
 30
0.0
  0
LWPOLYLINE
  5
18b
100
AcDbEntity
  8
Layer_1
 62
7
100
AcDbPolyline
 90
2
 70
0
 10
315.781912
 20
175.175150
 30
0.0
 10
315.781912
 20
201.675144
 30
0.0
  0
LWPOLYLINE
  5
18c
100
AcDbEntity
  8
Layer_1
 62
7
100
AcDbPolyline
 90
2
 70
0
 10
360.781927
 20
169.175141
 30
0.0
 10
321.781921
 20
169.175141
 30
0.0
  0
LWPOLYLINE
  5
18d
100
AcDbEntity
  8
Layer_1
 62
7
100
AcDbPolyline
 90
2
 70
0
 10
366.781910
 20
267.175142
 30
0.0
 10
366.781910
 20
175.175150
 30
0.0
  0
LWPOLYLINE
  5
18e
100
AcDbEntity
  8
Layer_1
 62
7
100
AcDbPolyline
 90
2
 70
0
 10
360.781927
 20
273.175143
 30
0.0
 10
223.781922
 20
273.175143
 30
0.0
  0
LWPOLYLINE
  5
18f
100
AcDbEntity
  8
Layer_1
 62
7
100
AcDbPolyline
 90
2
 70
0
 10
217.781913
 20
267.175142
 30
0.0
 10
217.781913
 20
185.175143
 30
0.0
  0
LWPOLYLINE
  5
190
100
AcDbEntity
  8
Layer_1
 62
7
100
AcDbPolyline
 90
2
 70
0
 10
261.781909
 20
179.175147
 30
0.0
 10
223.781922
 20
179.175147
 30
0.0
  0
LWPOLYLINE
  5
191
100
AcDbEntity
  8
Layer_1
 62
7
100
AcDbPolyline
 90
13
 70
0
 10
321.781921
 20
169.175141
 30
0.0
 10
320.998754
 20
169.226470
 30
0.0
 10
320.229002
 20
169.379584
 30
0.0
 10
319.485814
 20
169.631864
 30
0.0
 10
318.781916
 20
169.978998
 30
0.0
 10
318.129348
 20
170.415031
 30
0.0
 10
317.539274
 20
170.932503
 30
0.0
 10
317.021802
 20
171.522577
 30
0.0
 10
316.585769
 20
172.175145
 30
0.0
 10
316.238635
 20
172.879043
 30
0.0
 10
315.986355
 20
173.622231
 30
0.0
 10
315.833241
 20
174.391983
 30
0.0
 10
315.781912
 20
175.175150
 30
0.0
  0
LWPOLYLINE
  5
192
100
AcDbEntity
  8
Layer_1
 62
7
100
AcDbPolyline
 90
13
 70
0
 10
360.781927
 20
169.175141
 30
0.0
 10
361.565067
 20
169.226470
 30
0.0
 10
362.334846
 20
169.379584
 30
0.0
 10
363.078008
 20
169.631864
 30
0.0
 10
363.781931
 20
169.978998
 30
0.0
 10
364.434500
 20
170.415031
 30
0.0
 10
365.024547
 20
170.932503
 30
0.0
 10
365.542046
 20
171.522577
 30
0.0
 10
365.978079
 20
172.175145
 30
0.0
 10
366.325186
 20
172.879043
 30
0.0
 10
366.577466
 20
173.622231
 30
0.0
 10
366.730580
 20
174.391983
 30
0.0
 10
366.781910
 20
175.175150
 30
0.0
  0
LWPOLYLINE
  5
193
100
AcDbEntity
  8
Layer_1
 62
7
100
AcDbPolyline
 90
13
 70
0
 10
366.781910
 20
267.175142
 30
0.0
 10
366.730580
 20
267.958301
 30
0.0
 10
366.577466
 20
268.728055
 30
0.0
 10
366.325186
 20
269.471244
 30
0.0
 10
365.978079
 20
270.175141
 30
0.0
 10
365.542046
 20
270.827712
 30
0.0
 10
365.024547
 20
271.417783
 30
0.0
 10
364.434500
 20
271.935263
 30
0.0
 10
363.781931
 20
272.371294
 30
0.0
 10
363.078008
 20
272.718419
 30
0.0
 10
362.334846
 20
272.970697
 30
0.0
 10
361.565067
 20
273.123811
 30
0.0
 10
360.781927
 20
273.175143
 30
0.0
  0
LWPOLYLINE
  5
194
100
AcDbEntity
  8
Layer_1
 62
7
100
AcDbPolyline
 90
13
 70
0
 10
217.781913
 20
267.175142
 30
0.0
 10
217.833242
 20
267.958301
 30
0.0
 10
217.986357
 20
268.728055
 30
0.0
 10
218.238637
 20
269.471244
 30
0.0
 10
218.585770
 20
270.175141
 30
0.0
 10
219.021804
 20
270.827712
 30
0.0
 10
219.539276
 20
271.417783
 30
0.0
 10
220.129349
 20
271.935263
 30
0.0
 10
220.781918
 20
272.371294
 30
0.0
 10
221.485815
 20
272.718419
 30
0.0
 10
222.229003
 20
272.970697
 30
0.0
 10
222.998756
 20
273.123811
 30
0.0
 10
223.781922
 20
273.175143
 30
0.0
  0
LWPOLYLINE
  5
195
100
AcDbEntity
  8
Layer_1
 62
7
100
AcDbPolyline
 90
13
 70
0
 10
223.781922
 20
179.175147
 30
0.0
 10
222.998756
 20
179.226476
 30
0.0
 10
222.229003
 20
179.379590
 30
0.0
 10
221.485815
 20
179.631871
 30
0.0
 10
220.781918
 20
179.979004
 30
0.0
 10
220.129349
 20
180.415011
 30
0.0
 10
219.539276
 20
180.932509
 30
0.0
 10
219.021804
 20
181.522583
 30
0.0
 10
218.585770
 20
182.175151
 30
0.0
 10
218.238637
 20
182.879049
 30
0.0
 10
217.986357
 20
183.622229
 30
0.0
 10
217.833242
 20
184.391987
 30
0.0
 10
217.781913
 20
185.175143
 30
0.0
  0
LWPOLYLINE
  5
196
100
AcDbEntity
  8
Layer_1
 62
7
100
AcDbPolyline
 90
2
 70
0
 10
176.507849
 20
440.661471
 30
0.0
 10
176.491181
 20
433.236702
 30
0.0
  0
LWPOLYLINE
  5
197
100
AcDbEntity
  8
Layer_1
 62
7
100
AcDbPolyline
 90
2
 70
0
 10
180.507847
 20
440.472545
 30
0.0
 10
180.524515
 20
433.236702
 30
0.0
  0
LWPOLYLINE
  5
198
100
AcDbEntity
  8
Layer_1
 62
7
100
AcDbPolyline
 90
2
 70
0
 10
190.507827
 20
312.661462
 30
0.0
 10
190.507827
 20
428.661471
 30
0.0
  0
LWPOLYLINE
  5
199
100
AcDbEntity
  8
Layer_1
 62
7
100
AcDbPolyline
 90
2
 70
0
 10
17.507847
 20
300.661470
 30
0.0
 10
178.507835
 20
300.661470
 30
0.0
  0
LWPOLYLINE
  5
19a
100
AcDbEntity
  8
Layer_1
 62
7
100
AcDbPolyline
 90
2
 70
0
 10
5.507828
 20
428.661471
 30
0.0
 10
5.507828
 20
312.661462
 30
0.0
  0
LWPOLYLINE
  5
19b
100
AcDbEntity
  8
Layer_1
 62
7
100
AcDbPolyline
 90
2
 70
0
 10
15.507835
 20
440.472545
 30
0.0
 10
15.491166
 20
433.236702
 30
0.0
  0
LWPOLYLINE
  5
19c
100
AcDbEntity
  8
Layer_1
 62
7
100
AcDbPolyline
 90
2
 70
0
 10
19.507832
 20
440.661471
 30
0.0
 10
19.524501
 20
433.236702
 30
0.0
  0
LWPOLYLINE
  5
19d
100
AcDbEntity
  8
Layer_1
 62
7
100
AcDbPolyline
 90
2
 70
0
 10
176.507849
 20
440.661471
 30
0.0
 10
19.507832
 20
440.661471
 30
0.0
  0
LWPOLYLINE
  5
19e
100
AcDbEntity
  8
Layer_1
 62
7
100
AcDbPolyline
 90
23
 70
0
 10
176.491101
 20
433.236702
 30
0.0
 10
175.430307
 20
432.602123
 30
0.0
 10
174.557606
 20
431.726698
 30
0.0
 10
173.926336
 20
430.663931
 30
0.0
 10
173.575102
 20
429.478772
 30
0.0
 10
173.525334
 20
428.243665
 30
0.0
 10
173.780101
 20
427.034091
 30
0.0
 10
174.323793
 20
425.923981
 30
0.0
 10
175.123232
 20
424.981183
 30
0.0
 10
176.129548
 20
424.263321
 30
0.0
 10
177.281200
 20
423.814270
 30
0.0
 10
178.507835
 20
423.661474
 30
0.0
 10
179.734470
 20
423.814270
 30
0.0
 10
180.886121
 20
424.263321
 30
0.0
 10
181.892438
 20
424.981183
 30
0.0
 10
182.691876
 20
425.923981
 30
0.0
 10
183.235595
 20
427.034091
 30
0.0
 10
183.490362
 20
428.243665
 30
0.0
 10
183.440594
 20
429.478772
 30
0.0
 10
183.089333
 20
430.663931
 30
0.0
 10
182.458090
 20
431.726698
 30
0.0
 10
181.585389
 20
432.602123
 30
0.0
 10
180.524595
 20
433.236702
 30
0.0
  0
LWPOLYLINE
  5
19f
100
AcDbEntity
  8
Layer_1
 62
7
100
AcDbPolyline
 90
12
 70
0
 10
180.507847
 20
440.472545
 30
0.0
 10
182.000070
 20
440.142078
 30
0.0
 10
183.432101
 20
439.604588
 30
0.0
 10
184.784095
 20
438.889303
 30
0.0
 10
186.034146
 20
438.007843
 30
0.0
 10
187.161906
 20
436.974537
 30
0.0
 10
188.149066
 20
435.806163
 30
0.0
 10
188.979593
 20
434.521712
 30
0.0
 10
189.639967
 20
433.142047
 30
0.0
 10
190.119498
 20
431.689588
 30
0.0
 10
190.410354
 20
430.187929
 30
0.0
 10
190.507827
 20
428.661471
 30
0.0
  0
LWPOLYLINE
  5
1a0
100
AcDbEntity
  8
Layer_1
 62
7
100
AcDbPolyline
 90
13
 70
0
 10
178.507835
 20
300.661470
 30
0.0
 10
180.074142
 20
300.764128
 30
0.0
 10
181.613673
 20
301.070357
 30
0.0
 10
183.100049
 20
301.574917
 30
0.0
 10
184.507844
 20
302.269157
 30
0.0
 10
185.812981
 20
303.141224
 30
0.0
 10
186.993128
 20
304.176195
 30
0.0
 10
188.028072
 20
305.356342
 30
0.0
 10
188.900139
 20
306.661479
 30
0.0
 10
189.594406
 20
308.069274
 30
0.0
 10
190.098939
 20
309.555650
 30
0.0
 10
190.405168
 20
311.095155
 30
0.0
 10
190.507827
 20
312.661462
 30
0.0
  0
LWPOLYLINE
  5
1a1
100
AcDbEntity
  8
Layer_1
 62
7
100
AcDbPolyline
 90
13
 70
0
 10
17.507847
 20
300.661470
 30
0.0
 10
15.941540
 20
300.764128
 30
0.0
 10
14.402009
 20
301.070357
 30
0.0
 10
12.915633
 20
301.574917
 30
0.0
 10
11.507838
 20
302.269157
 30
0.0
 10
10.202701
 20
303.141224
 30
0.0
 10
9.022553
 20
304.176195
 30
0.0
 10
7.987609
 20
305.356342
 30
0.0
 10
7.115543
 20
306.661479
 30
0.0
 10
6.421276
 20
308.069274
 30
0.0
 10
5.916742
 20
309.555650
 30
0.0
 10
5.610513
 20
311.095155
 30
0.0
 10
5.507828
 20
312.661462
 30
0.0
  0
LWPOLYLINE
  5
1a2
100
AcDbEntity
  8
Layer_1
 62
7
100
AcDbPolyline
 90
12
 70
0
 10
15.507835
 20
440.472545
 30
0.0
 10
14.015611
 20
440.142078
 30
0.0
 10
12.583580
 20
439.604588
 30
0.0
 10
11.231586
 20
438.889303
 30
0.0
 10
9.981536
 20
438.007843
 30
0.0
 10
8.853776
 20
436.974537
 30
0.0
 10
7.866615
 20
435.806163
 30
0.0
 10
7.036088
 20
434.521712
 30
0.0
 10
6.375715
 20
433.142047
 30
0.0
 10
5.896184
 20
431.689588
 30
0.0
 10
5.605327
 20
430.187929
 30
0.0
 10
5.507828
 20
428.661471
 30
0.0
  0
LWPOLYLINE
  5
1a3
100
AcDbEntity
  8
Layer_1
 62
7
100
AcDbPolyline
 90
23
 70
0
 10
15.491087
 20
433.236702
 30
0.0
 10
14.430293
 20
432.602123
 30
0.0
 10
13.557591
 20
431.726698
 30
0.0
 10
12.926348
 20
430.663931
 30
0.0
 10
12.575087
 20
429.478772
 30
0.0
 10
12.525319
 20
428.243665
 30
0.0
 10
12.780086
 20
427.034091
 30
0.0
 10
13.323805
 20
425.923981
 30
0.0
 10
14.123244
 20
424.981183
 30
0.0
 10
15.129560
 20
424.263321
 30
0.0
 10
16.281212
 20
423.814270
 30
0.0
 10
17.507847
 20
423.661474
 30
0.0
 10
18.734481
 20
423.814270
 30
0.0
 10
19.886133
 20
424.263321
 30
0.0
 10
20.892423
 20
424.981183
 30
0.0
 10
21.691888
 20
425.923981
 30
0.0
 10
22.235580
 20
427.034091
 30
0.0
 10
22.490348
 20
428.243665
 30
0.0
 10
22.440579
 20
429.478772
 30
0.0
 10
22.089345
 20
430.663931
 30
0.0
 10
21.458076
 20
431.726698
 30
0.0
 10
20.585374
 20
432.602123
 30
0.0
 10
19.524580
 20
433.236702
 30
0.0
  0
LWPOLYLINE
  5
1a4
100
AcDbEntity
  8
Layer_1
 62
7
100
AcDbPolyline
 90
2
 70
0
 10
81.007846
 20
318.661471
 30
0.0
 10
29.507838
 20
318.661471
 30
0.0
  0
LWPOLYLINE
  5
1a5
100
AcDbEntity
  8
Layer_1
 62
7
100
AcDbPolyline
 90
2
 70
0
 10
81.007846
 20
303.161465
 30
0.0
 10
81.007846
 20
318.661471
 30
0.0
  0
LWPOLYLINE
  5
1a6
100
AcDbEntity
  8
Layer_1
 62
7
100
AcDbPolyline
 90
2
 70
0
 10
88.007848
 20
303.161465
 30
0.0
 10
83.007831
 20
303.161465
 30
0.0
  0
LWPOLYLINE
  5
1a7
100
AcDbEntity
  8
Layer_1
 62
7
100
AcDbPolyline
 90
2
 70
0
 10
95.007849
 20
303.161465
 30
0.0
 10
90.007833
 20
303.161465
 30
0.0
  0
LWPOLYLINE
  5
1a8
100
AcDbEntity
  8
Layer_1
 62
7
100
AcDbPolyline
 90
2
 70
0
 10
102.007851
 20
303.161465
 30
0.0
 10
97.007835
 20
303.161465
 30
0.0
  0
LWPOLYLINE
  5
1a9
100
AcDbEntity
  8
Layer_1
 62
7
100
AcDbPolyline
 90
2
 70
0
 10
109.007853
 20
303.161465
 30
0.0
 10
104.007837
 20
303.161465
 30
0.0
  0
LWPOLYLINE
  5
1aa
100
AcDbEntity
  8
Layer_1
 62
7
100
AcDbPolyline
 90
2
 70
0
 10
116.007828
 20
303.161465
 30
0.0
 10
111.007838
 20
303.161465
 30
0.0
  0
LWPOLYLINE
  5
1ab
100
AcDbEntity
  8
Layer_1
 62
7
100
AcDbPolyline
 90
2
 70
0
 10
123.007830
 20
303.161465
 30
0.0
 10
118.007840
 20
303.161465
 30
0.0
  0
LWPOLYLINE
  5
1ac
100
AcDbEntity
  8
Layer_1
 62
7
100
AcDbPolyline
 90
2
 70
0
 10
130.007832
 20
303.161465
 30
0.0
 10
125.007842
 20
303.161465
 30
0.0
  0
LWPOLYLINE
  5
1ad
100
AcDbEntity
  8
Layer_1
 62
7
100
AcDbPolyline
 90
2
 70
0
 10
137.007834
 20
303.161465
 30
0.0
 10
132.007844
 20
303.161465
 30
0.0
  0
LWPOLYLINE
  5
1ae
100
AcDbEntity
  8
Layer_1
 62
7
100
AcDbPolyline
 90
2
 70
0
 10
144.007835
 20
303.161465
 30
0.0
 10
139.007846
 20
303.161465
 30
0.0
  0
LWPOLYLINE
  5
1af
100
AcDbEntity
  8
Layer_1
 62
7
100
AcDbPolyline
 90
2
 70
0
 10
151.007837
 20
303.161465
 30
0.0
 10
146.007847
 20
303.161465
 30
0.0
  0
LWPOLYLINE
  5
1b0
100
AcDbEntity
  8
Layer_1
 62
7
100
AcDbPolyline
 90
2
 70
0
 10
158.007839
 20
303.161465
 30
0.0
 10
153.007849
 20
303.161465
 30
0.0
  0
LWPOLYLINE
  5
1b1
100
AcDbEntity
  8
Layer_1
 62
7
100
AcDbPolyline
 90
4
 70
0
 10
160.007851
 20
303.161465
 30
0.0
 10
160.007851
 20
308.161481
 30
0.0
 10
105.507839
 20
308.161481
 30
0.0
 10
105.507839
 20
318.661471
 30
0.0
  0
LWPOLYLINE
  5
1b2
100
AcDbEntity
  8
Layer_1
 62
7
100
AcDbPolyline
 90
2
 70
0
 10
111.507848
 20
335.161474
 30
0.0
 10
111.507848
 20
324.661480
 30
0.0
  0
LWPOLYLINE
  5
1b3
100
AcDbEntity
  8
Layer_1
 62
7
100
AcDbPolyline
 90
2
 70
0
 10
105.507839
 20
341.161473
 30
0.0
 10
29.507838
 20
341.161473
 30
0.0
  0
LWPOLYLINE
  5
1b4
100
AcDbEntity
  8
Layer_1
 62
7
100
AcDbPolyline
 90
2
 70
0
 10
23.507829
 20
335.161474
 30
0.0
 10
23.507829
 20
324.661480
 30
0.0
  0
LWPOLYLINE
  5
1b5
100
AcDbEntity
  8
Layer_1
 62
7
100
AcDbPolyline
 90
13
 70
0
 10
81.007846
 20
303.161465
 30
0.0
 10
81.041924
 20
302.902649
 30
0.0
 10
81.141804
 20
302.661482
 30
0.0
 10
81.300740
 20
302.454366
 30
0.0
 10
81.507829
 20
302.295457
 30
0.0
 10
81.749023
 20
302.195550
 30
0.0
 10
82.007839
 20
302.161472
 30
0.0
 10
82.266654
 20
302.195550
 30
0.0
 10
82.507848
 20
302.295457
 30
0.0
 10
82.714937
 20
302.454366
 30
0.0
 10
82.873873
 20
302.661482
 30
0.0
 10
82.973753
 20
302.902649
 30
0.0
 10
83.007831
 20
303.161465
 30
0.0
  0
LWPOLYLINE
  5
1b6
100
AcDbEntity
  8
Layer_1
 62
7
100
AcDbPolyline
 90
13
 70
0
 10
88.007848
 20
303.161465
 30
0.0
 10
88.041926
 20
302.902649
 30
0.0
 10
88.141806
 20
302.661482
 30
0.0
 10
88.300741
 20
302.454366
 30
0.0
 10
88.507831
 20
302.295457
 30
0.0
 10
88.749025
 20
302.195550
 30
0.0
 10
89.007840
 20
302.161472
 30
0.0
 10
89.266656
 20
302.195550
 30
0.0
 10
89.507850
 20
302.295457
 30
0.0
 10
89.714939
 20
302.454366
 30
0.0
 10
89.873874
 20
302.661482
 30
0.0
 10
89.973755
 20
302.902649
 30
0.0
 10
90.007833
 20
303.161465
 30
0.0
  0
LWPOLYLINE
  5
1b7
100
AcDbEntity
  8
Layer_1
 62
7
100
AcDbPolyline
 90
13
 70
0
 10
95.007849
 20
303.161465
 30
0.0
 10
95.041901
 20
302.902649
 30
0.0
 10
95.141808
 20
302.661482
 30
0.0
 10
95.300743
 20
302.454366
 30
0.0
 10
95.507833
 20
302.295457
 30
0.0
 10
95.749027
 20
302.195550
 30
0.0
 10
96.007842
 20
302.161472
 30
0.0
 10
96.266658
 20
302.195550
 30
0.0
 10
96.507852
 20
302.295457
 30
0.0
 10
96.714941
 20
302.454366
 30
0.0
 10
96.873876
 20
302.661482
 30
0.0
 10
96.973756
 20
302.902649
 30
0.0
 10
97.007835
 20
303.161465
 30
0.0
  0
LWPOLYLINE
  5
1b8
100
AcDbEntity
  8
Layer_1
 62
7
100
AcDbPolyline
 90
13
 70
0
 10
102.007851
 20
303.161465
 30
0.0
 10
102.041903
 20
302.902649
 30
0.0
 10
102.141810
 20
302.661482
 30
0.0
 10
102.300745
 20
302.454366
 30
0.0
 10
102.507834
 20
302.295457
 30
0.0
 10
102.749028
 20
302.195550
 30
0.0
 10
103.007844
 20
302.161472
 30
0.0
 10
103.266659
 20
302.195550
 30
0.0
 10
103.507827
 20
302.295457
 30
0.0
 10
103.714943
 20
302.454366
 30
0.0
 10
103.873878
 20
302.661482
 30
0.0
 10
103.973758
 20
302.902649
 30
0.0
 10
104.007837
 20
303.161465
 30
0.0
  0
LWPOLYLINE
  5
1b9
100
AcDbEntity
  8
Layer_1
 62
7
100
AcDbPolyline
 90
13
 70
0
 10
109.007853
 20
303.161465
 30
0.0
 10
109.041905
 20
302.902649
 30
0.0
 10
109.141812
 20
302.661482
 30
0.0
 10
109.300720
 20
302.454366
 30
0.0
 10
109.507836
 20
302.295457
 30
0.0
 10
109.749030
 20
302.195550
 30
0.0
 10
110.007846
 20
302.161472
 30
0.0
 10
110.266661
 20
302.195550
 30
0.0
 10
110.507829
 20
302.295457
 30
0.0
 10
110.714945
 20
302.454366
 30
0.0
 10
110.873853
 20
302.661482
 30
0.0
 10
110.973760
 20
302.902649
 30
0.0
 10
111.007838
 20
303.161465
 30
0.0
  0
LWPOLYLINE
  5
1ba
100
AcDbEntity
  8
Layer_1
 62
7
100
AcDbPolyline
 90
13
 70
0
 10
116.007828
 20
303.161465
 30
0.0
 10
116.041907
 20
302.902649
 30
0.0
 10
116.141813
 20
302.661482
 30
0.0
 10
116.300722
 20
302.454366
 30
0.0
 10
116.507838
 20
302.295457
 30
0.0
 10
116.749032
 20
302.195550
 30
0.0
 10
117.007847
 20
302.161472
 30
0.0
 10
117.266663
 20
302.195550
 30
0.0
 10
117.507831
 20
302.295457
 30
0.0
 10
117.714946
 20
302.454366
 30
0.0
 10
117.873855
 20
302.661482
 30
0.0
 10
117.973762
 20
302.902649
 30
0.0
 10
118.007840
 20
303.161465
 30
0.0
  0
LWPOLYLINE
  5
1bb
100
AcDbEntity
  8
Layer_1
 62
7
100
AcDbPolyline
 90
13
 70
0
 10
123.007830
 20
303.161465
 30
0.0
 10
123.041908
 20
302.902649
 30
0.0
 10
123.141815
 20
302.661482
 30
0.0
 10
123.300724
 20
302.454366
 30
0.0
 10
123.507840
 20
302.295457
 30
0.0
 10
123.749007
 20
302.195550
 30
0.0
 10
124.007849
 20
302.161472
 30
0.0
 10
124.266665
 20
302.195550
 30
0.0
 10
124.507832
 20
302.295457
 30
0.0
 10
124.714948
 20
302.454366
 30
0.0
 10
124.873857
 20
302.661482
 30
0.0
 10
124.973764
 20
302.902649
 30
0.0
 10
125.007842
 20
303.161465
 30
0.0
  0
LWPOLYLINE
  5
1bc
100
AcDbEntity
  8
Layer_1
 62
7
100
AcDbPolyline
 90
13
 70
0
 10
130.007832
 20
303.161465
 30
0.0
 10
130.041910
 20
302.902649
 30
0.0
 10
130.141817
 20
302.661482
 30
0.0
 10
130.300726
 20
302.454366
 30
0.0
 10
130.507841
 20
302.295457
 30
0.0
 10
130.749009
 20
302.195550
 30
0.0
 10
131.007851
 20
302.161472
 30
0.0
 10
131.266666
 20
302.195550
 30
0.0
 10
131.507834
 20
302.295457
 30
0.0
 10
131.714950
 20
302.454366
 30
0.0
 10
131.873859
 20
302.661482
 30
0.0
 10
131.973765
 20
302.902649
 30
0.0
 10
132.007844
 20
303.161465
 30
0.0
  0
LWPOLYLINE
  5
1bd
100
AcDbEntity
  8
Layer_1
 62
7
100
AcDbPolyline
 90
13
 70
0
 10
137.007834
 20
303.161465
 30
0.0
 10
137.041912
 20
302.902649
 30
0.0
 10
137.141819
 20
302.661482
 30
0.0
 10
137.300727
 20
302.454366
 30
0.0
 10
137.507843
 20
302.295457
 30
0.0
 10
137.749011
 20
302.195550
 30
0.0
 10
138.007826
 20
302.161472
 30
0.0
 10
138.266668
 20
302.195550
 30
0.0
 10
138.507836
 20
302.295457
 30
0.0
 10
138.714952
 20
302.454366
 30
0.0
 10
138.873861
 20
302.661482
 30
0.0
 10
138.973767
 20
302.902649
 30
0.0
 10
139.007846
 20
303.161465
 30
0.0
  0
LWPOLYLINE
  5
1be
100
AcDbEntity
  8
Layer_1
 62
7
100
AcDbPolyline
 90
13
 70
0
 10
144.007835
 20
303.161465
 30
0.0
 10
144.041914
 20
302.902649
 30
0.0
 10
144.141820
 20
302.661482
 30
0.0
 10
144.300729
 20
302.454366
 30
0.0
 10
144.507845
 20
302.295457
 30
0.0
 10
144.749013
 20
302.195550
 30
0.0
 10
145.007828
 20
302.161472
 30
0.0
 10
145.266670
 20
302.195550
 30
0.0
 10
145.507838
 20
302.295457
 30
0.0
 10
145.714954
 20
302.454366
 30
0.0
 10
145.873862
 20
302.661482
 30
0.0
 10
145.973769
 20
302.902649
 30
0.0
 10
146.007847
 20
303.161465
 30
0.0
  0
LWPOLYLINE
  5
1bf
100
AcDbEntity
  8
Layer_1
 62
7
100
AcDbPolyline
 90
13
 70
0
 10
151.007837
 20
303.161465
 30
0.0
 10
151.041916
 20
302.902649
 30
0.0
 10
151.141822
 20
302.661482
 30
0.0
 10
151.300731
 20
302.454366
 30
0.0
 10
151.507847
 20
302.295457
 30
0.0
 10
151.749015
 20
302.195550
 30
0.0
 10
152.007830
 20
302.161472
 30
0.0
 10
152.266645
 20
302.195550
 30
0.0
 10
152.507840
 20
302.295457
 30
0.0
 10
152.714955
 20
302.454366
 30
0.0
 10
152.873864
 20
302.661482
 30
0.0
 10
152.973771
 20
302.902649
 30
0.0
 10
153.007849
 20
303.161465
 30
0.0
  0
LWPOLYLINE
  5
1c0
100
AcDbEntity
  8
Layer_1
 62
7
100
AcDbPolyline
 90
13
 70
0
 10
158.007839
 20
303.161465
 30
0.0
 10
158.041917
 20
302.902649
 30
0.0
 10
158.141824
 20
302.661482
 30
0.0
 10
158.300733
 20
302.454366
 30
0.0
 10
158.507849
 20
302.295457
 30
0.0
 10
158.749016
 20
302.195550
 30
0.0
 10
159.007832
 20
302.161472
 30
0.0
 10
159.266647
 20
302.195550
 30
0.0
 10
159.507841
 20
302.295457
 30
0.0
 10
159.714957
 20
302.454366
 30
0.0
 10
159.873866
 20
302.661482
 30
0.0
 10
159.973773
 20
302.902649
 30
0.0
 10
160.007851
 20
303.161465
 30
0.0
  0
LWPOLYLINE
  5
1c1
100
AcDbEntity
  8
Layer_1
 62
7
100
AcDbPolyline
 90
13
 70
0
 10
111.507848
 20
324.661480
 30
0.0
 10
111.456519
 20
323.878313
 30
0.0
 10
111.303404
 20
323.108561
 30
0.0
 10
111.051124
 20
322.365373
 30
0.0
 10
110.703991
 20
321.661475
 30
0.0
 10
110.267958
 20
321.008907
 30
0.0
 10
109.750485
 20
320.418833
 30
0.0
 10
109.160412
 20
319.901361
 30
0.0
 10
108.507843
 20
319.465328
 30
0.0
 10
107.803946
 20
319.118194
 30
0.0
 10
107.060758
 20
318.865914
 30
0.0
 10
106.291006
 20
318.712800
 30
0.0
 10
105.507839
 20
318.661471
 30
0.0
  0
LWPOLYLINE
  5
1c2
100
AcDbEntity
  8
Layer_1
 62
7
100
AcDbPolyline
 90
13
 70
0
 10
105.507839
 20
341.161473
 30
0.0
 10
106.291006
 20
341.110141
 30
0.0
 10
107.060758
 20
340.957027
 30
0.0
 10
107.803946
 20
340.704749
 30
0.0
 10
108.507843
 20
340.357626
 30
0.0
 10
109.160412
 20
339.921593
 30
0.0
 10
109.750485
 20
339.404113
 30
0.0
 10
110.267958
 20
338.814042
 30
0.0
 10
110.703991
 20
338.161474
 30
0.0
 10
111.051124
 20
337.457574
 30
0.0
 10
111.303404
 20
336.714388
 30
0.0
 10
111.456519
 20
335.944631
 30
0.0
 10
111.507848
 20
335.161474
 30
0.0
  0
LWPOLYLINE
  5
1c3
100
AcDbEntity
  8
Layer_1
 62
7
100
AcDbPolyline
 90
13
 70
0
 10
29.507838
 20
341.161473
 30
0.0
 10
28.724672
 20
341.110141
 30
0.0
 10
27.954919
 20
340.957027
 30
0.0
 10
27.211731
 20
340.704749
 30
0.0
 10
26.507834
 20
340.357626
 30
0.0
 10
25.855265
 20
339.921593
 30
0.0
 10
25.265192
 20
339.404113
 30
0.0
 10
24.747720
 20
338.814042
 30
0.0
 10
24.311686
 20
338.161474
 30
0.0
 10
23.964553
 20
337.457574
 30
0.0
 10
23.712273
 20
336.714388
 30
0.0
 10
23.559185
 20
335.944631
 30
0.0
 10
23.507829
 20
335.161474
 30
0.0
  0
LWPOLYLINE
  5
1c4
100
AcDbEntity
  8
Layer_1
 62
7
100
AcDbPolyline
 90
13
 70
0
 10
23.507829
 20
324.661480
 30
0.0
 10
23.559185
 20
323.878313
 30
0.0
 10
23.712273
 20
323.108561
 30
0.0
 10
23.964553
 20
322.365373
 30
0.0
 10
24.311686
 20
321.661475
 30
0.0
 10
24.747720
 20
321.008907
 30
0.0
 10
25.265192
 20
320.418833
 30
0.0
 10
25.855265
 20
319.901361
 30
0.0
 10
26.507834
 20
319.465328
 30
0.0
 10
27.211731
 20
319.118194
 30
0.0
 10
27.954919
 20
318.865914
 30
0.0
 10
28.724672
 20
318.712800
 30
0.0
 10
29.507838
 20
318.661471
 30
0.0
  0
LWPOLYLINE
  5
1c5
100
AcDbEntity
  8
Layer_1
 62
7
100
AcDbPolyline
 90
4
 70
0
 10
23.507829
 20
416.661472
 30
0.0
 10
23.507829
 20
351.161474
 30
0.0
 10
121.507828
 20
351.161474
 30
0.0
 10
121.507828
 20
324.661480
 30
0.0
  0
LWPOLYLINE
  5
1c6
100
AcDbEntity
  8
Layer_1
 62
7
100
AcDbPolyline
 90
2
 70
0
 10
166.507843
 20
318.661471
 30
0.0
 10
127.507837
 20
318.661471
 30
0.0
  0
LWPOLYLINE
  5
1c7
100
AcDbEntity
  8
Layer_1
 62
7
100
AcDbPolyline
 90
2
 70
0
 10
172.507852
 20
416.661472
 30
0.0
 10
172.507852
 20
324.661480
 30
0.0
  0
LWPOLYLINE
  5
1c8
100
AcDbEntity
  8
Layer_1
 62
7
100
AcDbPolyline
 90
2
 70
0
 10
166.507843
 20
422.661473
 30
0.0
 10
29.507838
 20
422.661473
 30
0.0
  0
LWPOLYLINE
  5
1c9
100
AcDbEntity
  8
Layer_1
 62
7
100
AcDbPolyline
 90
13
 70
0
 10
121.507828
 20
324.661480
 30
0.0
 10
121.559183
 20
323.878313
 30
0.0
 10
121.712298
 20
323.108561
 30
0.0
 10
121.964552
 20
322.365373
 30
0.0
 10
122.311685
 20
321.661475
 30
0.0
 10
122.747718
 20
321.008907
 30
0.0
 10
123.265190
 20
320.418833
 30
0.0
 10
123.855264
 20
319.901361
 30
0.0
 10
124.507832
 20
319.465328
 30
0.0
 10
125.211730
 20
319.118194
 30
0.0
 10
125.954918
 20
318.865914
 30
0.0
 10
126.724670
 20
318.712800
 30
0.0
 10
127.507837
 20
318.661471
 30
0.0
  0
LWPOLYLINE
  5
1ca
100
AcDbEntity
  8
Layer_1
 62
7
100
AcDbPolyline
 90
13
 70
0
 10
172.507852
 20
324.661480
 30
0.0
 10
172.456497
 20
323.878313
 30
0.0
 10
172.303382
 20
323.108561
 30
0.0
 10
172.051128
 20
322.365373
 30
0.0
 10
171.703995
 20
321.661475
 30
0.0
 10
171.267962
 20
321.008907
 30
0.0
 10
170.750490
 20
320.418833
 30
0.0
 10
170.160416
 20
319.901361
 30
0.0
 10
169.507848
 20
319.465328
 30
0.0
 10
168.803950
 20
319.118194
 30
0.0
 10
168.060762
 20
318.865914
 30
0.0
 10
167.290983
 20
318.712800
 30
0.0
 10
166.507843
 20
318.661471
 30
0.0
  0
LWPOLYLINE
  5
1cb
100
AcDbEntity
  8
Layer_1
 62
7
100
AcDbPolyline
 90
13
 70
0
 10
172.507852
 20
416.661472
 30
0.0
 10
172.456497
 20
417.444631
 30
0.0
 10
172.303382
 20
418.214385
 30
0.0
 10
172.051128
 20
418.957574
 30
0.0
 10
171.703995
 20
419.661471
 30
0.0
 10
171.267962
 20
420.314042
 30
0.0
 10
170.750490
 20
420.904113
 30
0.0
 10
170.160416
 20
421.421593
 30
0.0
 10
169.507848
 20
421.857624
 30
0.0
 10
168.803950
 20
422.204749
 30
0.0
 10
168.060762
 20
422.457027
 30
0.0
 10
167.290983
 20
422.610141
 30
0.0
 10
166.507843
 20
422.661473
 30
0.0
  0
LWPOLYLINE
  5
1cc
100
AcDbEntity
  8
Layer_1
 62
7
100
AcDbPolyline
 90
13
 70
0
 10
23.507829
 20
416.661472
 30
0.0
 10
23.559185
 20
417.444631
 30
0.0
 10
23.712273
 20
418.214385
 30
0.0
 10
23.964553
 20
418.957574
 30
0.0
 10
24.311686
 20
419.661471
 30
0.0
 10
24.747720
 20
420.314042
 30
0.0
 10
25.265192
 20
420.904113
 30
0.0
 10
25.855265
 20
421.421593
 30
0.0
 10
26.507834
 20
421.857624
 30
0.0
 10
27.211731
 20
422.204749
 30
0.0
 10
27.954919
 20
422.457027
 30
0.0
 10
28.724672
 20
422.610141
 30
0.0
 10
29.507838
 20
422.661473
 30
0.0
  0
LWPOLYLINE
  5
1cd
100
AcDbEntity
  8
Layer_1
 62
7
100
AcDbPolyline
 90
24
 70
1
 10
14.507842
 20
312.661462
 30
0.0
 10
14.610051
 20
313.437934
 30
0.0
 10
14.909771
 20
314.161464
 30
0.0
 10
15.386523
 20
314.782785
 30
0.0
 10
16.007844
 20
315.259538
 30
0.0
 10
16.731374
 20
315.559258
 30
0.0
 10
17.507847
 20
315.661466
 30
0.0
 10
18.284293
 20
315.559258
 30
0.0
 10
19.007849
 20
315.259538
 30
0.0
 10
19.629170
 20
314.782785
 30
0.0
 10
20.105923
 20
314.161464
 30
0.0
 10
20.405616
 20
313.437934
 30
0.0
 10
20.507851
 20
312.661462
 30
0.0
 10
20.405616
 20
311.885015
 30
0.0
 10
20.105923
 20
311.161486
 30
0.0
 10
19.629170
 20
310.540165
 30
0.0
 10
19.007849
 20
310.063386
 30
0.0
 10
18.284293
 20
309.763692
 30
0.0
 10
17.507847
 20
309.661483
 30
0.0
 10
16.731374
 20
309.763692
 30
0.0
 10
16.007844
 20
310.063386
 30
0.0
 10
15.386523
 20
310.540165
 30
0.0
 10
14.909771
 20
311.161486
 30
0.0
 10
14.610051
 20
311.885015
 30
0.0
  0
LWPOLYLINE
  5
1ce
100
AcDbEntity
  8
Layer_1
 62
7
100
AcDbPolyline
 90
24
 70
1
 10
175.507830
 20
312.661462
 30
0.0
 10
175.610065
 20
313.437934
 30
0.0
 10
175.909759
 20
314.161464
 30
0.0
 10
176.386512
 20
314.782785
 30
0.0
 10
177.007833
 20
315.259538
 30
0.0
 10
177.731389
 20
315.559258
 30
0.0
 10
178.507835
 20
315.661466
 30
0.0
 10
179.284308
 20
315.559258
 30
0.0
 10
180.007837
 20
315.259538
 30
0.0
 10
180.629158
 20
314.782785
 30
0.0
 10
181.105911
 20
314.161464
 30
0.0
 10
181.405604
 20
313.437934
 30
0.0
 10
181.507839
 20
312.661462
 30
0.0
 10
181.405604
 20
311.885015
 30
0.0
 10
181.105911
 20
311.161486
 30
0.0
 10
180.629158
 20
310.540165
 30
0.0
 10
180.007837
 20
310.063386
 30
0.0
 10
179.284308
 20
309.763692
 30
0.0
 10
178.507835
 20
309.661483
 30
0.0
 10
177.731389
 20
309.763692
 30
0.0
 10
177.007833
 20
310.063386
 30
0.0
 10
176.386512
 20
310.540165
 30
0.0
 10
175.909759
 20
311.161486
 30
0.0
 10
175.610065
 20
311.885015
 30
0.0
  0
LWPOLYLINE
  5
1cf
100
AcDbEntity
  8
Layer_1
 62
7
100
AcDbPolyline
 90
2
 70
0
 10
208.899873
 20
439.520515
 30
0.0
 10
208.883204
 20
432.284672
 30
0.0
  0
LWPOLYLINE
  5
1d0
100
AcDbEntity
  8
Layer_1
 62
7
100
AcDbPolyline
 90
2
 70
0
 10
212.899870
 20
439.709441
 30
0.0
 10
212.916539
 20
432.284672
 30
0.0
  0
LWPOLYLINE
  5
1d1
100
AcDbEntity
  8
Layer_1
 62
7
100
AcDbPolyline
 90
2
 70
0
 10
369.899887
 20
439.709441
 30
0.0
 10
212.899870
 20
439.709441
 30
0.0
  0
LWPOLYLINE
  5
1d2
100
AcDbEntity
  8
Layer_1
 62
7
100
AcDbPolyline
 90
2
 70
0
 10
369.899887
 20
439.709441
 30
0.0
 10
369.883219
 20
432.284672
 30
0.0
  0
LWPOLYLINE
  5
1d3
100
AcDbEntity
  8
Layer_1
 62
7
100
AcDbPolyline
 90
2
 70
0
 10
373.899885
 20
439.520515
 30
0.0
 10
373.916553
 20
432.284672
 30
0.0
  0
LWPOLYLINE
  5
1d4
100
AcDbEntity
  8
Layer_1
 62
7
100
AcDbPolyline
 90
2
 70
0
 10
383.899891
 20
311.709432
 30
0.0
 10
383.899891
 20
427.709441
 30
0.0
  0
LWPOLYLINE
  5
1d5
100
AcDbEntity
  8
Layer_1
 62
7
100
AcDbPolyline
 90
2
 70
0
 10
210.899885
 20
299.709440
 30
0.0
 10
371.899873
 20
299.709440
 30
0.0
  0
LWPOLYLINE
  5
1d6
100
AcDbEntity
  8
Layer_1
 62
7
100
AcDbPolyline
 90
2
 70
0
 10
198.899893
 20
427.709441
 30
0.0
 10
198.899893
 20
311.709432
 30
0.0
  0
LWPOLYLINE
  5
1d7
100
AcDbEntity
  8
Layer_1
 62
7
100
AcDbPolyline
 90
12
 70
0
 10
208.899873
 20
439.520515
 30
0.0
 10
207.407649
 20
439.190048
 30
0.0
 10
205.975645
 20
438.652558
 30
0.0
 10
204.623624
 20
437.937273
 30
0.0
 10
203.373574
 20
437.055813
 30
0.0
 10
202.245814
 20
436.022507
 30
0.0
 10
201.258653
 20
434.854133
 30
0.0
 10
200.428126
 20
433.569682
 30
0.0
 10
199.767753
 20
432.190017
 30
0.0
 10
199.288222
 20
430.737558
 30
0.0
 10
198.997365
 20
429.235899
 30
0.0
 10
198.899893
 20
427.709441
 30
0.0
  0
LWPOLYLINE
  5
1d8
100
AcDbEntity
  8
Layer_1
 62
7
100
AcDbPolyline
 90
23
 70
0
 10
208.883125
 20
432.284672
 30
0.0
 10
207.822331
 20
431.650093
 30
0.0
 10
206.949629
 20
430.774668
 30
0.0
 10
206.318386
 20
429.711901
 30
0.0
 10
205.967125
 20
428.526742
 30
0.0
 10
205.917357
 20
427.291635
 30
0.0
 10
206.172125
 20
426.082061
 30
0.0
 10
206.715843
 20
424.971951
 30
0.0
 10
207.515282
 20
424.029153
 30
0.0
 10
208.521598
 20
423.311291
 30
0.0
 10
209.673250
 20
422.862240
 30
0.0
 10
210.899885
 20
422.709444
 30
0.0
 10
212.126519
 20
422.862240
 30
0.0
 10
213.278171
 20
423.311291
 30
0.0
 10
214.284488
 20
424.029153
 30
0.0
 10
215.083926
 20
424.971951
 30
0.0
 10
215.627645
 20
426.082061
 30
0.0
 10
215.882386
 20
427.291635
 30
0.0
 10
215.832618
 20
428.526742
 30
0.0
 10
215.481383
 20
429.711901
 30
0.0
 10
214.850114
 20
430.774668
 30
0.0
 10
213.977412
 20
431.650093
 30
0.0
 10
212.916618
 20
432.284672
 30
0.0
  0
LWPOLYLINE
  5
1d9
100
AcDbEntity
  8
Layer_1
 62
7
100
AcDbPolyline
 90
23
 70
0
 10
369.883139
 20
432.284672
 30
0.0
 10
368.822345
 20
431.650093
 30
0.0
 10
367.949644
 20
430.774668
 30
0.0
 10
367.318374
 20
429.711901
 30
0.0
 10
366.967140
 20
428.526742
 30
0.0
 10
366.917372
 20
427.291635
 30
0.0
 10
367.172139
 20
426.082061
 30
0.0
 10
367.715858
 20
424.971951
 30
0.0
 10
368.515296
 20
424.029153
 30
0.0
 10
369.521586
 20
423.311291
 30
0.0
 10
370.673238
 20
422.862240
 30
0.0
 10
371.899873
 20
422.709444
 30
0.0
 10
373.126508
 20
422.862240
 30
0.0
 10
374.278160
 20
423.311291
 30
0.0
 10
375.284476
 20
424.029153
 30
0.0
 10
376.083914
 20
424.971951
 30
0.0
 10
376.627633
 20
426.082061
 30
0.0
 10
376.882400
 20
427.291635
 30
0.0
 10
376.832632
 20
428.526742
 30
0.0
 10
376.481371
 20
429.711901
 30
0.0
 10
375.850128
 20
430.774668
 30
0.0
 10
374.977427
 20
431.650093
 30
0.0
 10
373.916633
 20
432.284672
 30
0.0
  0
LWPOLYLINE
  5
1da
100
AcDbEntity
  8
Layer_1
 62
7
100
AcDbPolyline
 90
12
 70
0
 10
373.899885
 20
439.520515
 30
0.0
 10
375.392108
 20
439.190048
 30
0.0
 10
376.824139
 20
438.652558
 30
0.0
 10
378.176133
 20
437.937273
 30
0.0
 10
379.426184
 20
437.055813
 30
0.0
 10
380.553944
 20
436.022507
 30
0.0
 10
381.541104
 20
434.854133
 30
0.0
 10
382.371631
 20
433.569682
 30
0.0
 10
383.032005
 20
432.190017
 30
0.0
 10
383.511536
 20
430.737558
 30
0.0
 10
383.802392
 20
429.235899
 30
0.0
 10
383.899891
 20
427.709441
 30
0.0
  0
LWPOLYLINE
  5
1db
100
AcDbEntity
  8
Layer_1
 62
7
100
AcDbPolyline
 90
13
 70
0
 10
371.899873
 20
299.709440
 30
0.0
 10
373.466206
 20
299.812098
 30
0.0
 10
375.005711
 20
300.118327
 30
0.0
 10
376.492087
 20
300.622887
 30
0.0
 10
377.899882
 20
301.317127
 30
0.0
 10
379.205019
 20
302.189194
 30
0.0
 10
380.385166
 20
303.224165
 30
0.0
 10
381.420110
 20
304.404312
 30
0.0
 10
382.292177
 20
305.709449
 30
0.0
 10
382.986444
 20
307.117244
 30
0.0
 10
383.490978
 20
308.603620
 30
0.0
 10
383.797206
 20
310.143125
 30
0.0
 10
383.899891
 20
311.709432
 30
0.0
  0
LWPOLYLINE
  5
1dc
100
AcDbEntity
  8
Layer_1
 62
7
100
AcDbPolyline
 90
13
 70
0
 10
210.899885
 20
299.709440
 30
0.0
 10
209.333578
 20
299.812098
 30
0.0
 10
207.794047
 20
300.118327
 30
0.0
 10
206.307671
 20
300.622887
 30
0.0
 10
204.899876
 20
301.317127
 30
0.0
 10
203.594739
 20
302.189194
 30
0.0
 10
202.414591
 20
303.224165
 30
0.0
 10
201.379647
 20
304.404312
 30
0.0
 10
200.507581
 20
305.709449
 30
0.0
 10
199.813314
 20
307.117244
 30
0.0
 10
199.308780
 20
308.603620
 30
0.0
 10
199.002551
 20
310.143125
 30
0.0
 10
198.899893
 20
311.709432
 30
0.0
  0
LWPOLYLINE
  5
1dd
100
AcDbEntity
  8
Layer_1
 62
7
100
AcDbPolyline
 90
2
 70
0
 10
332.846183
 20
421.709443
 30
0.0
 10
359.899881
 20
421.709443
 30
0.0
  0
LWPOLYLINE
  5
1de
100
AcDbEntity
  8
Layer_1
 62
7
100
AcDbPolyline
 90
2
 70
0
 10
326.846174
 20
415.709442
 30
0.0
 10
326.846174
 20
404.709443
 30
0.0
  0
LWPOLYLINE
  5
1df
100
AcDbEntity
  8
Layer_1
 62
7
100
AcDbPolyline
 90
2
 70
0
 10
332.846183
 20
398.709442
 30
0.0
 10
359.899881
 20
398.709442
 30
0.0
  0
LWPOLYLINE
  5
1e0
100
AcDbEntity
  8
Layer_1
 62
7
100
AcDbPolyline
 90
2
 70
0
 10
365.899890
 20
404.709443
 30
0.0
 10
365.899890
 20
415.709442
 30
0.0
  0
LWPOLYLINE
  5
1e1
100
AcDbEntity
  8
Layer_1
 62
7
100
AcDbPolyline
 90
13
 70
0
 10
326.846174
 20
415.709442
 30
0.0
 10
326.897503
 20
416.492601
 30
0.0
 10
327.050617
 20
417.262355
 30
0.0
 10
327.302897
 20
418.005544
 30
0.0
 10
327.650031
 20
418.709441
 30
0.0
 10
328.086064
 20
419.362012
 30
0.0
 10
328.603536
 20
419.952083
 30
0.0
 10
329.193610
 20
420.469563
 30
0.0
 10
329.846178
 20
420.905594
 30
0.0
 10
330.550076
 20
421.252719
 30
0.0
 10
331.293264
 20
421.504997
 30
0.0
 10
332.063016
 20
421.658111
 30
0.0
 10
332.846183
 20
421.709443
 30
0.0
  0
LWPOLYLINE
  5
1e2
100
AcDbEntity
  8
Layer_1
 62
7
100
AcDbPolyline
 90
13
 70
0
 10
326.846174
 20
404.709443
 30
0.0
 10
326.897503
 20
403.926287
 30
0.0
 10
327.050617
 20
403.156529
 30
0.0
 10
327.302897
 20
402.413341
 30
0.0
 10
327.650031
 20
401.709444
 30
0.0
 10
328.086064
 20
401.056873
 30
0.0
 10
328.603536
 20
400.466801
 30
0.0
 10
329.193610
 20
399.949321
 30
0.0
 10
329.846178
 20
399.513291
 30
0.0
 10
330.550076
 20
399.166165
 30
0.0
 10
331.293264
 20
398.913888
 30
0.0
 10
332.063016
 20
398.760773
 30
0.0
 10
332.846183
 20
398.709442
 30
0.0
  0
LWPOLYLINE
  5
1e3
100
AcDbEntity
  8
Layer_1
 62
7
100
AcDbPolyline
 90
13
 70
0
 10
365.899890
 20
404.709443
 30
0.0
 10
365.848561
 20
403.926287
 30
0.0
 10
365.695447
 20
403.156529
 30
0.0
 10
365.443167
 20
402.413341
 30
0.0
 10
365.096033
 20
401.709444
 30
0.0
 10
364.660000
 20
401.056873
 30
0.0
 10
364.142528
 20
400.466801
 30
0.0
 10
363.552454
 20
399.949321
 30
0.0
 10
362.899886
 20
399.513291
 30
0.0
 10
362.195988
 20
399.166165
 30
0.0
 10
361.452800
 20
398.913888
 30
0.0
 10
360.683048
 20
398.760773
 30
0.0
 10
359.899881
 20
398.709442
 30
0.0
  0
LWPOLYLINE
  5
1e4
100
AcDbEntity
  8
Layer_1
 62
7
100
AcDbPolyline
 90
13
 70
0
 10
359.899881
 20
421.709443
 30
0.0
 10
360.683048
 20
421.658111
 30
0.0
 10
361.452800
 20
421.504997
 30
0.0
 10
362.195988
 20
421.252719
 30
0.0
 10
362.899886
 20
420.905594
 30
0.0
 10
363.552454
 20
420.469563
 30
0.0
 10
364.142528
 20
419.952083
 30
0.0
 10
364.660000
 20
419.362012
 30
0.0
 10
365.096033
 20
418.709441
 30
0.0
 10
365.443167
 20
418.005544
 30
0.0
 10
365.695447
 20
417.262355
 30
0.0
 10
365.848561
 20
416.492601
 30
0.0
 10
365.899890
 20
415.709442
 30
0.0
  0
LWPOLYLINE
  5
1e5
100
AcDbEntity
  8
Layer_1
 62
7
100
AcDbPolyline
 90
2
 70
0
 10
314.899892
 20
323.709450
 30
0.0
 10
314.899892
 20
382.709442
 30
0.0
  0
LWPOLYLINE
  5
1e6
100
AcDbEntity
  8
Layer_1
 62
7
100
AcDbPolyline
 90
2
 70
0
 10
320.899875
 20
317.709441
 30
0.0
 10
359.899881
 20
317.709441
 30
0.0
  0
LWPOLYLINE
  5
1e7
100
AcDbEntity
  8
Layer_1
 62
7
100
AcDbPolyline
 90
2
 70
0
 10
365.899890
 20
323.709450
 30
0.0
 10
365.899890
 20
382.709442
 30
0.0
  0
LWPOLYLINE
  5
1e8
100
AcDbEntity
  8
Layer_1
 62
7
100
AcDbPolyline
 90
2
 70
0
 10
359.899881
 20
388.709443
 30
0.0
 10
320.899875
 20
388.709443
 30
0.0
  0
LWPOLYLINE
  5
1e9
100
AcDbEntity
  8
Layer_1
 62
7
100
AcDbPolyline
 90
13
 70
0
 10
320.899875
 20
317.709441
 30
0.0
 10
320.116735
 20
317.760770
 30
0.0
 10
319.346956
 20
317.913884
 30
0.0
 10
318.603768
 20
318.166164
 30
0.0
 10
317.899870
 20
318.513298
 30
0.0
 10
317.247302
 20
318.949331
 30
0.0
 10
316.657228
 20
319.466803
 30
0.0
 10
316.139756
 20
320.056877
 30
0.0
 10
315.703723
 20
320.709445
 30
0.0
 10
315.356590
 20
321.413343
 30
0.0
 10
315.104336
 20
322.156531
 30
0.0
 10
314.951222
 20
322.926283
 30
0.0
 10
314.899892
 20
323.709450
 30
0.0
  0
LWPOLYLINE
  5
1ea
100
AcDbEntity
  8
Layer_1
 62
7
100
AcDbPolyline
 90
13
 70
0
 10
365.899890
 20
323.709450
 30
0.0
 10
365.848561
 20
322.926283
 30
0.0
 10
365.695447
 20
322.156531
 30
0.0
 10
365.443167
 20
321.413343
 30
0.0
 10
365.096033
 20
320.709445
 30
0.0
 10
364.660000
 20
320.056877
 30
0.0
 10
364.142528
 20
319.466803
 30
0.0
 10
363.552454
 20
318.949331
 30
0.0
 10
362.899886
 20
318.513298
 30
0.0
 10
362.195988
 20
318.166164
 30
0.0
 10
361.452800
 20
317.913884
 30
0.0
 10
360.683048
 20
317.760770
 30
0.0
 10
359.899881
 20
317.709441
 30
0.0
  0
LWPOLYLINE
  5
1eb
100
AcDbEntity
  8
Layer_1
 62
7
100
AcDbPolyline
 90
13
 70
0
 10
365.899890
 20
382.709442
 30
0.0
 10
365.848561
 20
383.492601
 30
0.0
 10
365.695447
 20
384.262358
 30
0.0
 10
365.443167
 20
385.005544
 30
0.0
 10
365.096033
 20
385.709441
 30
0.0
 10
364.660000
 20
386.362012
 30
0.0
 10
364.142528
 20
386.952083
 30
0.0
 10
363.552454
 20
387.469563
 30
0.0
 10
362.899886
 20
387.905594
 30
0.0
 10
362.195988
 20
388.252719
 30
0.0
 10
361.452800
 20
388.504997
 30
0.0
 10
360.683048
 20
388.658111
 30
0.0
 10
359.899881
 20
388.709443
 30
0.0
  0
LWPOLYLINE
  5
1ec
100
AcDbEntity
  8
Layer_1
 62
7
100
AcDbPolyline
 90
13
 70
0
 10
320.899875
 20
388.709443
 30
0.0
 10
320.116735
 20
388.658111
 30
0.0
 10
319.346956
 20
388.504997
 30
0.0
 10
318.603768
 20
388.252719
 30
0.0
 10
317.899870
 20
387.905594
 30
0.0
 10
317.247302
 20
387.469563
 30
0.0
 10
316.657228
 20
386.952083
 30
0.0
 10
316.139756
 20
386.362012
 30
0.0
 10
315.703723
 20
385.709441
 30
0.0
 10
315.356590
 20
385.005544
 30
0.0
 10
315.104336
 20
384.262358
 30
0.0
 10
314.951222
 20
383.492601
 30
0.0
 10
314.899892
 20
382.709442
 30
0.0
  0
LWPOLYLINE
  5
1ed
100
AcDbEntity
  8
Layer_1
 62
7
100
AcDbPolyline
 90
2
 70
0
 10
298.899877
 20
340.209443
 30
0.0
 10
222.899876
 20
340.209443
 30
0.0
  0
LWPOLYLINE
  5
1ee
100
AcDbEntity
  8
Layer_1
 62
7
100
AcDbPolyline
 90
2
 70
0
 10
216.899894
 20
334.209444
 30
0.0
 10
216.899894
 20
323.709450
 30
0.0
  0
LWPOLYLINE
  5
1ef
100
AcDbEntity
  8
Layer_1
 62
7
100
AcDbPolyline
 90
2
 70
0
 10
222.899876
 20
317.709441
 30
0.0
 10
298.899877
 20
317.709441
 30
0.0
  0
LWPOLYLINE
  5
1f0
100
AcDbEntity
  8
Layer_1
 62
7
100
AcDbPolyline
 90
2
 70
0
 10
304.899886
 20
334.209444
 30
0.0
 10
304.899886
 20
323.709450
 30
0.0
  0
LWPOLYLINE
  5
1f1
100
AcDbEntity
  8
Layer_1
 62
7
100
AcDbPolyline
 90
13
 70
0
 10
216.899894
 20
334.209444
 30
0.0
 10
216.951223
 20
334.992601
 30
0.0
 10
217.104337
 20
335.762358
 30
0.0
 10
217.356591
 20
336.505544
 30
0.0
 10
217.703724
 20
337.209444
 30
0.0
 10
218.139758
 20
337.862012
 30
0.0
 10
218.657230
 20
338.452083
 30
0.0
 10
219.247304
 20
338.969563
 30
0.0
 10
219.899872
 20
339.405596
 30
0.0
 10
220.603769
 20
339.752719
 30
0.0
 10
221.346957
 20
340.004997
 30
0.0
 10
222.116736
 20
340.158111
 30
0.0
 10
222.899876
 20
340.209443
 30
0.0
  0
LWPOLYLINE
  5
1f2
100
AcDbEntity
  8
Layer_1
 62
7
100
AcDbPolyline
 90
13
 70
0
 10
222.899876
 20
317.709441
 30
0.0
 10
222.116736
 20
317.760770
 30
0.0
 10
221.346957
 20
317.913884
 30
0.0
 10
220.603769
 20
318.166164
 30
0.0
 10
219.899872
 20
318.513298
 30
0.0
 10
219.247304
 20
318.949331
 30
0.0
 10
218.657230
 20
319.466803
 30
0.0
 10
218.139758
 20
320.056877
 30
0.0
 10
217.703724
 20
320.709445
 30
0.0
 10
217.356591
 20
321.413343
 30
0.0
 10
217.104337
 20
322.156531
 30
0.0
 10
216.951223
 20
322.926283
 30
0.0
 10
216.899894
 20
323.709450
 30
0.0
  0
LWPOLYLINE
  5
1f3
100
AcDbEntity
  8
Layer_1
 62
7
100
AcDbPolyline
 90
13
 70
0
 10
304.899886
 20
323.709450
 30
0.0
 10
304.848557
 20
322.926283
 30
0.0
 10
304.695442
 20
322.156531
 30
0.0
 10
304.443162
 20
321.413343
 30
0.0
 10
304.096029
 20
320.709445
 30
0.0
 10
303.659996
 20
320.056877
 30
0.0
 10
303.142524
 20
319.466803
 30
0.0
 10
302.552450
 20
318.949331
 30
0.0
 10
301.899881
 20
318.513298
 30
0.0
 10
301.195984
 20
318.166164
 30
0.0
 10
300.452796
 20
317.913884
 30
0.0
 10
299.683044
 20
317.760770
 30
0.0
 10
298.899877
 20
317.709441
 30
0.0
  0
LWPOLYLINE
  5
1f4
100
AcDbEntity
  8
Layer_1
 62
7
100
AcDbPolyline
 90
13
 70
0
 10
304.899886
 20
334.209444
 30
0.0
 10
304.848557
 20
334.992601
 30
0.0
 10
304.695442
 20
335.762358
 30
0.0
 10
304.443162
 20
336.505544
 30
0.0
 10
304.096029
 20
337.209444
 30
0.0
 10
303.659996
 20
337.862012
 30
0.0
 10
303.142524
 20
338.452083
 30
0.0
 10
302.552450
 20
338.969563
 30
0.0
 10
301.899881
 20
339.405596
 30
0.0
 10
301.195984
 20
339.752719
 30
0.0
 10
300.452796
 20
340.004997
 30
0.0
 10
299.683044
 20
340.158111
 30
0.0
 10
298.899877
 20
340.209443
 30
0.0
  0
LWPOLYLINE
  5
1f5
100
AcDbEntity
  8
Layer_1
 62
7
100
AcDbPolyline
 90
2
 70
0
 10
274.899893
 20
350.209444
 30
0.0
 10
298.899877
 20
350.209444
 30
0.0
  0
LWPOLYLINE
  5
1f6
100
AcDbEntity
  8
Layer_1
 62
7
100
AcDbPolyline
 90
2
 70
0
 10
304.899886
 20
382.709442
 30
0.0
 10
304.899886
 20
356.209442
 30
0.0
  0
LWPOLYLINE
  5
1f7
100
AcDbEntity
  8
Layer_1
 62
7
100
AcDbPolyline
 90
2
 70
0
 10
274.899893
 20
388.709443
 30
0.0
 10
298.899877
 20
388.709443
 30
0.0
  0
LWPOLYLINE
  5
1f8
100
AcDbEntity
  8
Layer_1
 62
7
100
AcDbPolyline
 90
2
 70
0
 10
268.899884
 20
382.709442
 30
0.0
 10
268.899884
 20
356.209442
 30
0.0
  0
LWPOLYLINE
  5
1f9
100
AcDbEntity
  8
Layer_1
 62
7
100
AcDbPolyline
 90
13
 70
0
 10
298.899877
 20
350.209444
 30
0.0
 10
299.683044
 20
350.260773
 30
0.0
 10
300.452796
 20
350.413888
 30
0.0
 10
301.195984
 20
350.666165
 30
0.0
 10
301.899881
 20
351.013290
 30
0.0
 10
302.552450
 20
351.449324
 30
0.0
 10
303.142524
 20
351.966801
 30
0.0
 10
303.659996
 20
352.556875
 30
0.0
 10
304.096029
 20
353.209443
 30
0.0
 10
304.443162
 20
353.913343
 30
0.0
 10
304.695442
 20
354.656529
 30
0.0
 10
304.848557
 20
355.426286
 30
0.0
 10
304.899886
 20
356.209442
 30
0.0
  0
LWPOLYLINE
  5
1fa
100
AcDbEntity
  8
Layer_1
 62
7
100
AcDbPolyline
 90
13
 70
0
 10
298.899877
 20
388.709443
 30
0.0
 10
299.683044
 20
388.658111
 30
0.0
 10
300.452796
 20
388.504997
 30
0.0
 10
301.195984
 20
388.252719
 30
0.0
 10
301.899881
 20
387.905594
 30
0.0
 10
302.552450
 20
387.469563
 30
0.0
 10
303.142524
 20
386.952083
 30
0.0
 10
303.659996
 20
386.362012
 30
0.0
 10
304.096029
 20
385.709441
 30
0.0
 10
304.443162
 20
385.005544
 30
0.0
 10
304.695442
 20
384.262358
 30
0.0
 10
304.848557
 20
383.492601
 30
0.0
 10
304.899886
 20
382.709442
 30
0.0
  0
LWPOLYLINE
  5
1fb
100
AcDbEntity
  8
Layer_1
 62
7
100
AcDbPolyline
 90
13
 70
0
 10
268.899884
 20
382.709442
 30
0.0
 10
268.951214
 20
383.492601
 30
0.0
 10
269.104328
 20
384.262358
 30
0.0
 10
269.356608
 20
385.005544
 30
0.0
 10
269.703715
 20
385.709441
 30
0.0
 10
270.139748
 20
386.362012
 30
0.0
 10
270.657247
 20
386.952083
 30
0.0
 10
271.247321
 20
387.469563
 30
0.0
 10
271.899889
 20
387.905594
 30
0.0
 10
272.603786
 20
388.252719
 30
0.0
 10
273.346975
 20
388.504997
 30
0.0
 10
274.116727
 20
388.658111
 30
0.0
 10
274.899893
 20
388.709443
 30
0.0
  0
LWPOLYLINE
  5
1fc
100
AcDbEntity
  8
Layer_1
 62
7
100
AcDbPolyline
 90
13
 70
0
 10
274.899893
 20
350.209444
 30
0.0
 10
274.116727
 20
350.260773
 30
0.0
 10
273.346975
 20
350.413888
 30
0.0
 10
272.603786
 20
350.666165
 30
0.0
 10
271.899889
 20
351.013290
 30
0.0
 10
271.247321
 20
351.449324
 30
0.0
 10
270.657247
 20
351.966801
 30
0.0
 10
270.139748
 20
352.556875
 30
0.0
 10
269.703715
 20
353.209443
 30
0.0
 10
269.356608
 20
353.913343
 30
0.0
 10
269.104328
 20
354.656529
 30
0.0
 10
268.951214
 20
355.426286
 30
0.0
 10
268.899884
 20
356.209442
 30
0.0
  0
LWPOLYLINE
  5
1fd
100
AcDbEntity
  8
Layer_1
 62
7
100
AcDbPolyline
 90
2
 70
0
 10
216.899894
 20
356.209442
 30
0.0
 10
216.899894
 20
382.709442
 30
0.0
  0
LWPOLYLINE
  5
1fe
100
AcDbEntity
  8
Layer_1
 62
7
100
AcDbPolyline
 90
2
 70
0
 10
252.899869
 20
350.209444
 30
0.0
 10
222.899876
 20
350.209444
 30
0.0
  0
LWPOLYLINE
  5
1ff
100
AcDbEntity
  8
Layer_1
 62
7
100
AcDbPolyline
 90
2
 70
0
 10
258.899878
 20
382.709442
 30
0.0
 10
258.899878
 20
356.209442
 30
0.0
  0
LWPOLYLINE
  5
200
100
AcDbEntity
  8
Layer_1
 62
7
100
AcDbPolyline
 90
2
 70
0
 10
222.899876
 20
388.709443
 30
0.0
 10
252.899869
 20
388.709443
 30
0.0
  0
LWPOLYLINE
  5
201
100
AcDbEntity
  8
Layer_1
 62
7
100
AcDbPolyline
 90
13
 70
0
 10
222.899876
 20
350.209444
 30
0.0
 10
222.116736
 20
350.260773
 30
0.0
 10
221.346957
 20
350.413888
 30
0.0
 10
220.603769
 20
350.666165
 30
0.0
 10
219.899872
 20
351.013290
 30
0.0
 10
219.247304
 20
351.449324
 30
0.0
 10
218.657230
 20
351.966801
 30
0.0
 10
218.139758
 20
352.556875
 30
0.0
 10
217.703724
 20
353.209443
 30
0.0
 10
217.356591
 20
353.913343
 30
0.0
 10
217.104337
 20
354.656529
 30
0.0
 10
216.951223
 20
355.426286
 30
0.0
 10
216.899894
 20
356.209442
 30
0.0
  0
LWPOLYLINE
  5
202
100
AcDbEntity
  8
Layer_1
 62
7
100
AcDbPolyline
 90
13
 70
0
 10
252.899869
 20
350.209444
 30
0.0
 10
253.683036
 20
350.260773
 30
0.0
 10
254.452788
 20
350.413888
 30
0.0
 10
255.195976
 20
350.666165
 30
0.0
 10
255.899874
 20
351.013290
 30
0.0
 10
256.552442
 20
351.449324
 30
0.0
 10
257.142516
 20
351.966801
 30
0.0
 10
257.659988
 20
352.556875
 30
0.0
 10
258.096021
 20
353.209443
 30
0.0
 10
258.443154
 20
353.913343
 30
0.0
 10
258.695435
 20
354.656529
 30
0.0
 10
258.848549
 20
355.426286
 30
0.0
 10
258.899878
 20
356.209442
 30
0.0
  0
LWPOLYLINE
  5
203
100
AcDbEntity
  8
Layer_1
 62
7
100
AcDbPolyline
 90
13
 70
0
 10
252.899869
 20
388.709443
 30
0.0
 10
253.683036
 20
388.658111
 30
0.0
 10
254.452788
 20
388.504997
 30
0.0
 10
255.195976
 20
388.252719
 30
0.0
 10
255.899874
 20
387.905594
 30
0.0
 10
256.552442
 20
387.469563
 30
0.0
 10
257.142516
 20
386.952083
 30
0.0
 10
257.659988
 20
386.362012
 30
0.0
 10
258.096021
 20
385.709441
 30
0.0
 10
258.443154
 20
385.005544
 30
0.0
 10
258.695435
 20
384.262358
 30
0.0
 10
258.848549
 20
383.492601
 30
0.0
 10
258.899878
 20
382.709442
 30
0.0
  0
LWPOLYLINE
  5
204
100
AcDbEntity
  8
Layer_1
 62
7
100
AcDbPolyline
 90
13
 70
0
 10
222.899876
 20
388.709443
 30
0.0
 10
222.116736
 20
388.658111
 30
0.0
 10
221.346957
 20
388.504997
 30
0.0
 10
220.603769
 20
388.252719
 30
0.0
 10
219.899872
 20
387.905594
 30
0.0
 10
219.247304
 20
387.469563
 30
0.0
 10
218.657230
 20
386.952083
 30
0.0
 10
218.139758
 20
386.362012
 30
0.0
 10
217.703724
 20
385.709441
 30
0.0
 10
217.356591
 20
385.005544
 30
0.0
 10
217.104337
 20
384.262358
 30
0.0
 10
216.951223
 20
383.492601
 30
0.0
 10
216.899894
 20
382.709442
 30
0.0
  0
LWPOLYLINE
  5
205
100
AcDbEntity
  8
Layer_1
 62
7
100
AcDbPolyline
 90
2
 70
0
 10
222.899876
 20
398.709442
 30
0.0
 10
310.846185
 20
398.709442
 30
0.0
  0
LWPOLYLINE
  5
206
100
AcDbEntity
  8
Layer_1
 62
7
100
AcDbPolyline
 90
2
 70
0
 10
316.846167
 20
415.709442
 30
0.0
 10
316.846167
 20
404.709443
 30
0.0
  0
LWPOLYLINE
  5
207
100
AcDbEntity
  8
Layer_1
 62
7
100
AcDbPolyline
 90
2
 70
0
 10
222.899876
 20
421.709443
 30
0.0
 10
310.846185
 20
421.709443
 30
0.0
  0
LWPOLYLINE
  5
208
100
AcDbEntity
  8
Layer_1
 62
7
100
AcDbPolyline
 90
2
 70
0
 10
216.899894
 20
415.709442
 30
0.0
 10
216.899894
 20
404.709443
 30
0.0
  0
LWPOLYLINE
  5
209
100
AcDbEntity
  8
Layer_1
 62
7
100
AcDbPolyline
 90
13
 70
0
 10
316.846167
 20
404.709443
 30
0.0
 10
316.794838
 20
403.926287
 30
0.0
 10
316.641724
 20
403.156529
 30
0.0
 10
316.389470
 20
402.413341
 30
0.0
 10
316.042337
 20
401.709444
 30
0.0
 10
315.606303
 20
401.056873
 30
0.0
 10
315.088831
 20
400.466801
 30
0.0
 10
314.498758
 20
399.949321
 30
0.0
 10
313.846189
 20
399.513291
 30
0.0
 10
313.142292
 20
399.166165
 30
0.0
 10
312.399104
 20
398.913888
 30
0.0
 10
311.629325
 20
398.760773
 30
0.0
 10
310.846185
 20
398.709442
 30
0.0
  0
LWPOLYLINE
  5
20a
100
AcDbEntity
  8
Layer_1
 62
7
100
AcDbPolyline
 90
13
 70
0
 10
316.846167
 20
415.709442
 30
0.0
 10
316.794838
 20
416.492601
 30
0.0
 10
316.641724
 20
417.262355
 30
0.0
 10
316.389470
 20
418.005544
 30
0.0
 10
316.042337
 20
418.709441
 30
0.0
 10
315.606303
 20
419.362012
 30
0.0
 10
315.088831
 20
419.952083
 30
0.0
 10
314.498758
 20
420.469563
 30
0.0
 10
313.846189
 20
420.905594
 30
0.0
 10
313.142292
 20
421.252719
 30
0.0
 10
312.399104
 20
421.504997
 30
0.0
 10
311.629325
 20
421.658111
 30
0.0
 10
310.846185
 20
421.709443
 30
0.0
  0
LWPOLYLINE
  5
20b
100
AcDbEntity
  8
Layer_1
 62
7
100
AcDbPolyline
 90
13
 70
0
 10
216.899894
 20
415.709442
 30
0.0
 10
216.951223
 20
416.492601
 30
0.0
 10
217.104337
 20
417.262355
 30
0.0
 10
217.356591
 20
418.005544
 30
0.0
 10
217.703724
 20
418.709441
 30
0.0
 10
218.139758
 20
419.362012
 30
0.0
 10
218.657230
 20
419.952083
 30
0.0
 10
219.247304
 20
420.469563
 30
0.0
 10
219.899872
 20
420.905594
 30
0.0
 10
220.603769
 20
421.252719
 30
0.0
 10
221.346957
 20
421.504997
 30
0.0
 10
222.116736
 20
421.658111
 30
0.0
 10
222.899876
 20
421.709443
 30
0.0
  0
LWPOLYLINE
  5
20c
100
AcDbEntity
  8
Layer_1
 62
7
100
AcDbPolyline
 90
13
 70
0
 10
222.899876
 20
398.709442
 30
0.0
 10
222.116736
 20
398.760773
 30
0.0
 10
221.346957
 20
398.913888
 30
0.0
 10
220.603769
 20
399.166165
 30
0.0
 10
219.899872
 20
399.513291
 30
0.0
 10
219.247304
 20
399.949321
 30
0.0
 10
218.657230
 20
400.466801
 30
0.0
 10
218.139758
 20
401.056873
 30
0.0
 10
217.703724
 20
401.709444
 30
0.0
 10
217.356591
 20
402.413341
 30
0.0
 10
217.104337
 20
403.156529
 30
0.0
 10
216.951223
 20
403.926287
 30
0.0
 10
216.899894
 20
404.709443
 30
0.0
  0
LWPOLYLINE
  5
20d
100
AcDbEntity
  8
Layer_1
 62
7
100
AcDbPolyline
 90
24
 70
1
 10
371.899873
 20
314.709436
 30
0.0
 10
371.123427
 20
314.607228
 30
0.0
 10
370.399871
 20
314.307508
 30
0.0
 10
369.778550
 20
313.830755
 30
0.0
 10
369.301797
 20
313.209434
 30
0.0
 10
369.002103
 20
312.485904
 30
0.0
 10
368.899868
 20
311.709432
 30
0.0
 10
369.002103
 20
310.932985
 30
0.0
 10
369.301797
 20
310.209456
 30
0.0
 10
369.778550
 20
309.588135
 30
0.0
 10
370.399871
 20
309.111356
 30
0.0
 10
371.123427
 20
308.811662
 30
0.0
 10
371.899873
 20
308.709453
 30
0.0
 10
372.676346
 20
308.811662
 30
0.0
 10
373.399875
 20
309.111356
 30
0.0
 10
374.021196
 20
309.588135
 30
0.0
 10
374.497949
 20
310.209456
 30
0.0
 10
374.797669
 20
310.932985
 30
0.0
 10
374.899877
 20
311.709432
 30
0.0
 10
374.797669
 20
312.485904
 30
0.0
 10
374.497949
 20
313.209434
 30
0.0
 10
374.021196
 20
313.830755
 30
0.0
 10
373.399875
 20
314.307508
 30
0.0
 10
372.676346
 20
314.607228
 30
0.0
  0
LWPOLYLINE
  5
20e
100
AcDbEntity
  8
Layer_1
 62
7
100
AcDbPolyline
 90
24
 70
1
 10
208.002115
 20
310.932985
 30
0.0
 10
208.301809
 20
310.209456
 30
0.0
 10
208.778561
 20
309.588135
 30
0.0
 10
209.399882
 20
309.111356
 30
0.0
 10
210.123412
 20
308.811662
 30
0.0
 10
210.899885
 20
308.709453
 30
0.0
 10
211.676331
 20
308.811662
 30
0.0
 10
212.399887
 20
309.111356
 30
0.0
 10
213.021208
 20
309.588135
 30
0.0
 10
213.497961
 20
310.209456
 30
0.0
 10
213.797654
 20
310.932985
 30
0.0
 10
213.899889
 20
311.709432
 30
0.0
 10
213.797654
 20
312.485904
 30
0.0
 10
213.497961
 20
313.209434
 30
0.0
 10
213.021208
 20
313.830755
 30
0.0
 10
212.399887
 20
314.307508
 30
0.0
 10
211.676331
 20
314.607228
 30
0.0
 10
210.899885
 20
314.709436
 30
0.0
 10
210.123412
 20
314.607228
 30
0.0
 10
209.399882
 20
314.307508
 30
0.0
 10
208.778561
 20
313.830755
 30
0.0
 10
208.301809
 20
313.209434
 30
0.0
 10
208.002115
 20
312.485904
 30
0.0
 10
207.899880
 20
311.709432
 30
0.0
  0
LWPOLYLINE
  5
20f
100
AcDbEntity
  8
Layer_1
 62
7
100
AcDbPolyline
 90
2
 70
0
 10
176.478426
 20
589.244791
 30
0.0
 10
19.478435
 20
589.244791
 30
0.0
  0
LWPOLYLINE
  5
210
100
AcDbEntity
  8
Layer_1
 62
7
100
AcDbPolyline
 90
2
 70
0
 10
176.478426
 20
589.244791
 30
0.0
 10
176.461757
 20
581.820022
 30
0.0
  0
LWPOLYLINE
  5
211
100
AcDbEntity
  8
Layer_1
 62
7
100
AcDbPolyline
 90
2
 70
0
 10
180.478423
 20
589.055865
 30
0.0
 10
180.495092
 20
581.820022
 30
0.0
  0
LWPOLYLINE
  5
212
100
AcDbEntity
  8
Layer_1
 62
7
100
AcDbPolyline
 90
2
 70
0
 10
190.478429
 20
461.244782
 30
0.0
 10
190.478429
 20
577.244791
 30
0.0
  0
LWPOLYLINE
  5
213
100
AcDbEntity
  8
Layer_1
 62
7
100
AcDbPolyline
 90
2
 70
0
 10
17.478423
 20
449.244790
 30
0.0
 10
178.478411
 20
449.244790
 30
0.0
  0
LWPOLYLINE
  5
214
100
AcDbEntity
  8
Layer_1
 62
7
100
AcDbPolyline
 90
2
 70
0
 10
5.478431
 20
577.244791
 30
0.0
 10
5.478431
 20
461.244782
 30
0.0
  0
LWPOLYLINE
  5
215
100
AcDbEntity
  8
Layer_1
 62
7
100
AcDbPolyline
 90
2
 70
0
 10
15.478411
 20
589.055865
 30
0.0
 10
15.461742
 20
581.820022
 30
0.0
  0
LWPOLYLINE
  5
216
100
AcDbEntity
  8
Layer_1
 62
7
100
AcDbPolyline
 90
2
 70
0
 10
19.478435
 20
589.244791
 30
0.0
 10
19.495103
 20
581.820022
 30
0.0
  0
LWPOLYLINE
  5
217
100
AcDbEntity
  8
Layer_1
 62
7
100
AcDbPolyline
 90
23
 70
0
 10
176.461677
 20
581.820022
 30
0.0
 10
175.400883
 20
581.185443
 30
0.0
 10
174.528182
 20
580.310018
 30
0.0
 10
173.896912
 20
579.247251
 30
0.0
 10
173.545678
 20
578.062092
 30
0.0
 10
173.495910
 20
576.826985
 30
0.0
 10
173.750677
 20
575.617411
 30
0.0
 10
174.294396
 20
574.507301
 30
0.0
 10
175.093835
 20
573.564503
 30
0.0
 10
176.100124
 20
572.846641
 30
0.0
 10
177.251776
 20
572.397590
 30
0.0
 10
178.478411
 20
572.244794
 30
0.0
 10
179.705046
 20
572.397590
 30
0.0
 10
180.856724
 20
572.846641
 30
0.0
 10
181.863014
 20
573.564503
 30
0.0
 10
182.662452
 20
574.507301
 30
0.0
 10
183.206171
 20
575.617411
 30
0.0
 10
183.460938
 20
576.826985
 30
0.0
 10
183.411170
 20
578.062092
 30
0.0
 10
183.059909
 20
579.247251
 30
0.0
 10
182.428667
 20
580.310018
 30
0.0
 10
181.555965
 20
581.185443
 30
0.0
 10
180.495171
 20
581.820022
 30
0.0
  0
LWPOLYLINE
  5
218
100
AcDbEntity
  8
Layer_1
 62
7
100
AcDbPolyline
 90
12
 70
0
 10
180.478423
 20
589.055865
 30
0.0
 10
181.970646
 20
588.725398
 30
0.0
 10
183.402677
 20
588.187908
 30
0.0
 10
184.754672
 20
587.472623
 30
0.0
 10
186.004722
 20
586.591163
 30
0.0
 10
187.132482
 20
585.557857
 30
0.0
 10
188.119642
 20
584.389483
 30
0.0
 10
188.950169
 20
583.105032
 30
0.0
 10
189.610543
 20
581.725367
 30
0.0
 10
190.090074
 20
580.272908
 30
0.0
 10
190.380930
 20
578.771249
 30
0.0
 10
190.478429
 20
577.244791
 30
0.0
  0
LWPOLYLINE
  5
219
100
AcDbEntity
  8
Layer_1
 62
7
100
AcDbPolyline
 90
13
 70
0
 10
178.478411
 20
449.244790
 30
0.0
 10
180.044744
 20
449.347448
 30
0.0
 10
181.584249
 20
449.653677
 30
0.0
 10
183.070625
 20
450.158237
 30
0.0
 10
184.478420
 20
450.852477
 30
0.0
 10
185.783557
 20
451.724544
 30
0.0
 10
186.963704
 20
452.759515
 30
0.0
 10
187.998648
 20
453.939662
 30
0.0
 10
188.870715
 20
455.244799
 30
0.0
 10
189.564982
 20
456.652594
 30
0.0
 10
190.069542
 20
458.138970
 30
0.0
 10
190.375771
 20
459.678475
 30
0.0
 10
190.478429
 20
461.244782
 30
0.0
  0
LWPOLYLINE
  5
21a
100
AcDbEntity
  8
Layer_1
 62
7
100
AcDbPolyline
 90
13
 70
0
 10
17.478423
 20
449.244790
 30
0.0
 10
15.912116
 20
449.347448
 30
0.0
 10
14.372585
 20
449.653677
 30
0.0
 10
12.886209
 20
450.158237
 30
0.0
 10
11.478414
 20
450.852477
 30
0.0
 10
10.173277
 20
451.724544
 30
0.0
 10
8.993130
 20
452.759515
 30
0.0
 10
7.958185
 20
453.939662
 30
0.0
 10
7.086119
 20
455.244799
 30
0.0
 10
6.391879
 20
456.652594
 30
0.0
 10
5.887318
 20
458.138970
 30
0.0
 10
5.581089
 20
459.678475
 30
0.0
 10
5.478431
 20
461.244782
 30
0.0
  0
LWPOLYLINE
  5
21b
100
AcDbEntity
  8
Layer_1
 62
7
100
AcDbPolyline
 90
12
 70
0
 10
15.478411
 20
589.055865
 30
0.0
 10
13.986187
 20
588.725398
 30
0.0
 10
12.554183
 20
588.187908
 30
0.0
 10
11.202162
 20
587.472623
 30
0.0
 10
9.952112
 20
586.591163
 30
0.0
 10
8.824352
 20
585.557857
 30
0.0
 10
7.837191
 20
584.389483
 30
0.0
 10
7.006664
 20
583.105032
 30
0.0
 10
6.346291
 20
581.725367
 30
0.0
 10
5.866760
 20
580.272908
 30
0.0
 10
5.575904
 20
578.771249
 30
0.0
 10
5.478431
 20
577.244791
 30
0.0
  0
LWPOLYLINE
  5
21c
100
AcDbEntity
  8
Layer_1
 62
7
100
AcDbPolyline
 90
23
 70
0
 10
15.461663
 20
581.820022
 30
0.0
 10
14.400869
 20
581.185443
 30
0.0
 10
13.528194
 20
580.310018
 30
0.0
 10
12.896924
 20
579.247251
 30
0.0
 10
12.545663
 20
578.062092
 30
0.0
 10
12.495895
 20
576.826985
 30
0.0
 10
12.750663
 20
575.617411
 30
0.0
 10
13.294381
 20
574.507301
 30
0.0
 10
14.093820
 20
573.564503
 30
0.0
 10
15.100136
 20
572.846641
 30
0.0
 10
16.251788
 20
572.397590
 30
0.0
 10
17.478423
 20
572.244794
 30
0.0
 10
18.705058
 20
572.397590
 30
0.0
 10
19.856709
 20
572.846641
 30
0.0
 10
20.863026
 20
573.564503
 30
0.0
 10
21.662464
 20
574.507301
 30
0.0
 10
22.206183
 20
575.617411
 30
0.0
 10
22.460924
 20
576.826985
 30
0.0
 10
22.411182
 20
578.062092
 30
0.0
 10
22.059921
 20
579.247251
 30
0.0
 10
21.428652
 20
580.310018
 30
0.0
 10
20.555950
 20
581.185443
 30
0.0
 10
19.495183
 20
581.820022
 30
0.0
  0
LWPOLYLINE
  5
21d
100
AcDbEntity
  8
Layer_1
 62
7
100
AcDbPolyline
 90
24
 70
1
 10
175.478406
 20
461.244782
 30
0.0
 10
175.580641
 20
462.021254
 30
0.0
 10
175.880335
 20
462.744784
 30
0.0
 10
176.357088
 20
463.366105
 30
0.0
 10
176.978409
 20
463.842858
 30
0.0
 10
177.701965
 20
464.142578
 30
0.0
 10
178.478411
 20
464.244786
 30
0.0
 10
179.254884
 20
464.142578
 30
0.0
 10
179.978413
 20
463.842858
 30
0.0
 10
180.599734
 20
463.366105
 30
0.0
 10
181.076487
 20
462.744784
 30
0.0
 10
181.376207
 20
462.021254
 30
0.0
 10
181.478416
 20
461.244782
 30
0.0
 10
181.376207
 20
460.468335
 30
0.0
 10
181.076487
 20
459.744806
 30
0.0
 10
180.599734
 20
459.123485
 30
0.0
 10
179.978413
 20
458.646706
 30
0.0
 10
179.254884
 20
458.347012
 30
0.0
 10
178.478411
 20
458.244803
 30
0.0
 10
177.701965
 20
458.347012
 30
0.0
 10
176.978409
 20
458.646706
 30
0.0
 10
176.357088
 20
459.123485
 30
0.0
 10
175.880335
 20
459.744806
 30
0.0
 10
175.580641
 20
460.468335
 30
0.0
  0
LWPOLYLINE
  5
21e
100
AcDbEntity
  8
Layer_1
 62
7
100
AcDbPolyline
 90
24
 70
1
 10
14.478418
 20
461.244782
 30
0.0
 10
14.580653
 20
462.021254
 30
0.0
 10
14.880347
 20
462.744784
 30
0.0
 10
15.357099
 20
463.366105
 30
0.0
 10
15.978421
 20
463.842858
 30
0.0
 10
16.701977
 20
464.142578
 30
0.0
 10
17.478423
 20
464.244786
 30
0.0
 10
18.254869
 20
464.142578
 30
0.0
 10
18.978425
 20
463.842858
 30
0.0
 10
19.599746
 20
463.366105
 30
0.0
 10
20.076499
 20
462.744784
 30
0.0
 10
20.376192
 20
462.021254
 30
0.0
 10
20.478427
 20
461.244782
 30
0.0
 10
20.376192
 20
460.468335
 30
0.0
 10
20.076499
 20
459.744806
 30
0.0
 10
19.599746
 20
459.123485
 30
0.0
 10
18.978425
 20
458.646706
 30
0.0
 10
18.254869
 20
458.347012
 30
0.0
 10
17.478423
 20
458.244803
 30
0.0
 10
16.701977
 20
458.347012
 30
0.0
 10
15.978421
 20
458.646706
 30
0.0
 10
15.357099
 20
459.123485
 30
0.0
 10
14.880347
 20
459.744806
 30
0.0
 10
14.580653
 20
460.468335
 30
0.0
  0
LWPOLYLINE
  5
21f
100
AcDbEntity
  8
Layer_1
 62
7
100
AcDbPolyline
 90
2
 70
0
 10
166.478419
 20
467.244791
 30
0.0
 10
29.478415
 20
467.244791
 30
0.0
  0
LWPOLYLINE
  5
220
100
AcDbEntity
  8
Layer_1
 62
7
100
AcDbPolyline
 90
2
 70
0
 10
172.478428
 20
565.244792
 30
0.0
 10
172.478428
 20
473.244800
 30
0.0
  0
LWPOLYLINE
  5
221
100
AcDbEntity
  8
Layer_1
 62
7
100
AcDbPolyline
 90
2
 70
0
 10
166.478419
 20
571.244793
 30
0.0
 10
29.478415
 20
571.244793
 30
0.0
  0
LWPOLYLINE
  5
222
100
AcDbEntity
  8
Layer_1
 62
7
100
AcDbPolyline
 90
2
 70
0
 10
23.478432
 20
565.244792
 30
0.0
 10
23.478432
 20
473.244800
 30
0.0
  0
LWPOLYLINE
  5
223
100
AcDbEntity
  8
Layer_1
 62
7
100
AcDbPolyline
 90
13
 70
0
 10
29.478415
 20
467.244791
 30
0.0
 10
28.695274
 20
467.296120
 30
0.0
 10
27.925496
 20
467.449234
 30
0.0
 10
27.182334
 20
467.701514
 30
0.0
 10
26.478410
 20
468.048648
 30
0.0
 10
25.825842
 20
468.484681
 30
0.0
 10
25.235768
 20
469.002153
 30
0.0
 10
24.718296
 20
469.592227
 30
0.0
 10
24.282262
 20
470.244795
 30
0.0
 10
23.935156
 20
470.948693
 30
0.0
 10
23.682875
 20
471.691881
 30
0.0
 10
23.529761
 20
472.461633
 30
0.0
 10
23.478432
 20
473.244800
 30
0.0
  0
LWPOLYLINE
  5
224
100
AcDbEntity
  8
Layer_1
 62
7
100
AcDbPolyline
 90
13
 70
0
 10
172.478428
 20
473.244800
 30
0.0
 10
172.427099
 20
472.461633
 30
0.0
 10
172.273985
 20
471.691881
 30
0.0
 10
172.021705
 20
470.948693
 30
0.0
 10
171.674571
 20
470.244795
 30
0.0
 10
171.238538
 20
469.592227
 30
0.0
 10
170.721066
 20
469.002153
 30
0.0
 10
170.130992
 20
468.484681
 30
0.0
 10
169.478424
 20
468.048648
 30
0.0
 10
168.774526
 20
467.701514
 30
0.0
 10
168.031338
 20
467.449234
 30
0.0
 10
167.261586
 20
467.296120
 30
0.0
 10
166.478419
 20
467.244791
 30
0.0
  0
LWPOLYLINE
  5
225
100
AcDbEntity
  8
Layer_1
 62
7
100
AcDbPolyline
 90
13
 70
0
 10
172.478428
 20
565.244792
 30
0.0
 10
172.427099
 20
566.027951
 30
0.0
 10
172.273985
 20
566.797705
 30
0.0
 10
172.021705
 20
567.540894
 30
0.0
 10
171.674571
 20
568.244791
 30
0.0
 10
171.238538
 20
568.897362
 30
0.0
 10
170.721066
 20
569.487433
 30
0.0
 10
170.130992
 20
570.004913
 30
0.0
 10
169.478424
 20
570.440944
 30
0.0
 10
168.774526
 20
570.788069
 30
0.0
 10
168.031338
 20
571.040347
 30
0.0
 10
167.261586
 20
571.193461
 30
0.0
 10
166.478419
 20
571.244793
 30
0.0
  0
LWPOLYLINE
  5
226
100
AcDbEntity
  8
Layer_1
 62
7
100
AcDbPolyline
 90
13
 70
0
 10
23.478432
 20
565.244792
 30
0.0
 10
23.529761
 20
566.027951
 30
0.0
 10
23.682875
 20
566.797705
 30
0.0
 10
23.935156
 20
567.540894
 30
0.0
 10
24.282262
 20
568.244791
 30
0.0
 10
24.718296
 20
568.897362
 30
0.0
 10
25.235768
 20
569.487433
 30
0.0
 10
25.825842
 20
570.004913
 30
0.0
 10
26.478410
 20
570.440944
 30
0.0
 10
27.182334
 20
570.788069
 30
0.0
 10
27.925496
 20
571.040347
 30
0.0
 10
28.695274
 20
571.193461
 30
0.0
 10
29.478415
 20
571.244793
 30
0.0
  0
LWPOLYLINE
  5
227
100
AcDbEntity
  8
Layer_1
 62
7
100
AcDbPolyline
 90
2
 70
0
 10
369.955026
 20
589.244791
 30
0.0
 10
212.955035
 20
589.244791
 30
0.0
  0
LWPOLYLINE
  5
228
100
AcDbEntity
  8
Layer_1
 62
7
100
AcDbPolyline
 90
2
 70
0
 10
369.955026
 20
589.244791
 30
0.0
 10
369.938357
 20
581.820022
 30
0.0
  0
LWPOLYLINE
  5
229
100
AcDbEntity
  8
Layer_1
 62
7
100
AcDbPolyline
 90
2
 70
0
 10
373.955023
 20
589.055865
 30
0.0
 10
373.971692
 20
581.820022
 30
0.0
  0
LWPOLYLINE
  5
22a
100
AcDbEntity
  8
Layer_1
 62
7
100
AcDbPolyline
 90
2
 70
0
 10
383.955029
 20
461.244782
 30
0.0
 10
383.955029
 20
577.244791
 30
0.0
  0
LWPOLYLINE
  5
22b
100
AcDbEntity
  8
Layer_1
 62
7
100
AcDbPolyline
 90
2
 70
0
 10
210.955023
 20
449.244790
 30
0.0
 10
371.955011
 20
449.244790
 30
0.0
  0
LWPOLYLINE
  5
22c
100
AcDbEntity
  8
Layer_1
 62
7
100
AcDbPolyline
 90
2
 70
0
 10
198.955031
 20
577.244791
 30
0.0
 10
198.955031
 20
461.244782
 30
0.0
  0
LWPOLYLINE
  5
22d
100
AcDbEntity
  8
Layer_1
 62
7
100
AcDbPolyline
 90
2
 70
0
 10
208.955011
 20
589.055865
 30
0.0
 10
208.938342
 20
581.820022
 30
0.0
  0
LWPOLYLINE
  5
22e
100
AcDbEntity
  8
Layer_1
 62
7
100
AcDbPolyline
 90
2
 70
0
 10
212.955035
 20
589.244791
 30
0.0
 10
212.971703
 20
581.820022
 30
0.0
  0
LWPOLYLINE
  5
22f
100
AcDbEntity
  8
Layer_1
 62
7
100
AcDbPolyline
 90
23
 70
0
 10
369.938277
 20
581.820022
 30
0.0
 10
368.877484
 20
581.185443
 30
0.0
 10
368.004782
 20
580.310018
 30
0.0
 10
367.373512
 20
579.247251
 30
0.0
 10
367.022278
 20
578.062092
 30
0.0
 10
366.972510
 20
576.826985
 30
0.0
 10
367.227277
 20
575.617411
 30
0.0
 10
367.770996
 20
574.507301
 30
0.0
 10
368.570435
 20
573.564503
 30
0.0
 10
369.576724
 20
572.846641
 30
0.0
 10
370.728376
 20
572.397590
 30
0.0
 10
371.955011
 20
572.244794
 30
0.0
 10
373.181646
 20
572.397590
 30
0.0
 10
374.333324
 20
572.846641
 30
0.0
 10
375.339614
 20
573.564503
 30
0.0
 10
376.139052
 20
574.507301
 30
0.0
 10
376.682771
 20
575.617411
 30
0.0
 10
376.937538
 20
576.826985
 30
0.0
 10
376.887770
 20
578.062092
 30
0.0
 10
376.536509
 20
579.247251
 30
0.0
 10
375.905267
 20
580.310018
 30
0.0
 10
375.032565
 20
581.185443
 30
0.0
 10
373.971771
 20
581.820022
 30
0.0
  0
LWPOLYLINE
  5
230
100
AcDbEntity
  8
Layer_1
 62
7
100
AcDbPolyline
 90
12
 70
0
 10
373.955023
 20
589.055865
 30
0.0
 10
375.447246
 20
588.725398
 30
0.0
 10
376.879277
 20
588.187908
 30
0.0
 10
378.231272
 20
587.472623
 30
0.0
 10
379.481322
 20
586.591163
 30
0.0
 10
380.609082
 20
585.557857
 30
0.0
 10
381.596242
 20
584.389483
 30
0.0
 10
382.426769
 20
583.105032
 30
0.0
 10
383.087143
 20
581.725367
 30
0.0
 10
383.566674
 20
580.272908
 30
0.0
 10
383.857530
 20
578.771249
 30
0.0
 10
383.955029
 20
577.244791
 30
0.0
  0
LWPOLYLINE
  5
231
100
AcDbEntity
  8
Layer_1
 62
7
100
AcDbPolyline
 90
13
 70
0
 10
371.955011
 20
449.244790
 30
0.0
 10
373.521344
 20
449.347448
 30
0.0
 10
375.060849
 20
449.653677
 30
0.0
 10
376.547225
 20
450.158237
 30
0.0
 10
377.955020
 20
450.852477
 30
0.0
 10
379.260157
 20
451.724544
 30
0.0
 10
380.440304
 20
452.759515
 30
0.0
 10
381.475248
 20
453.939662
 30
0.0
 10
382.347315
 20
455.244799
 30
0.0
 10
383.041582
 20
456.652594
 30
0.0
 10
383.546142
 20
458.138970
 30
0.0
 10
383.852371
 20
459.678475
 30
0.0
 10
383.955029
 20
461.244782
 30
0.0
  0
LWPOLYLINE
  5
232
100
AcDbEntity
  8
Layer_1
 62
7
100
AcDbPolyline
 90
13
 70
0
 10
210.955023
 20
449.244790
 30
0.0
 10
209.388716
 20
449.347448
 30
0.0
 10
207.849185
 20
449.653677
 30
0.0
 10
206.362809
 20
450.158237
 30
0.0
 10
204.955014
 20
450.852477
 30
0.0
 10
203.649877
 20
451.724544
 30
0.0
 10
202.469730
 20
452.759515
 30
0.0
 10
201.434785
 20
453.939662
 30
0.0
 10
200.562719
 20
455.244799
 30
0.0
 10
199.868479
 20
456.652594
 30
0.0
 10
199.363918
 20
458.138970
 30
0.0
 10
199.057689
 20
459.678475
 30
0.0
 10
198.955031
 20
461.244782
 30
0.0
  0
LWPOLYLINE
  5
233
100
AcDbEntity
  8
Layer_1
 62
7
100
AcDbPolyline
 90
12
 70
0
 10
208.955011
 20
589.055865
 30
0.0
 10
207.462787
 20
588.725398
 30
0.0
 10
206.030783
 20
588.187908
 30
0.0
 10
204.678762
 20
587.472623
 30
0.0
 10
203.428712
 20
586.591163
 30
0.0
 10
202.300952
 20
585.557857
 30
0.0
 10
201.313791
 20
584.389483
 30
0.0
 10
200.483264
 20
583.105032
 30
0.0
 10
199.822891
 20
581.725367
 30
0.0
 10
199.343360
 20
580.272908
 30
0.0
 10
199.052504
 20
578.771249
 30
0.0
 10
198.955031
 20
577.244791
 30
0.0
  0
LWPOLYLINE
  5
234
100
AcDbEntity
  8
Layer_1
 62
7
100
AcDbPolyline
 90
23
 70
0
 10
208.938263
 20
581.820022
 30
0.0
 10
207.877469
 20
581.185443
 30
0.0
 10
207.004794
 20
580.310018
 30
0.0
 10
206.373524
 20
579.247251
 30
0.0
 10
206.022263
 20
578.062092
 30
0.0
 10
205.972495
 20
576.826985
 30
0.0
 10
206.227263
 20
575.617411
 30
0.0
 10
206.770981
 20
574.507301
 30
0.0
 10
207.570420
 20
573.564503
 30
0.0
 10
208.576736
 20
572.846641
 30
0.0
 10
209.728388
 20
572.397590
 30
0.0
 10
210.955023
 20
572.244794
 30
0.0
 10
212.181658
 20
572.397590
 30
0.0
 10
213.333309
 20
572.846641
 30
0.0
 10
214.339626
 20
573.564503
 30
0.0
 10
215.139064
 20
574.507301
 30
0.0
 10
215.682783
 20
575.617411
 30
0.0
 10
215.937524
 20
576.826985
 30
0.0
 10
215.887782
 20
578.062092
 30
0.0
 10
215.536521
 20
579.247251
 30
0.0
 10
214.905252
 20
580.310018
 30
0.0
 10
214.032550
 20
581.185443
 30
0.0
 10
212.971783
 20
581.820022
 30
0.0
  0
LWPOLYLINE
  5
235
100
AcDbEntity
  8
Layer_1
 62
7
100
AcDbPolyline
 90
24
 70
1
 10
368.955006
 20
461.244782
 30
0.0
 10
369.057241
 20
462.021254
 30
0.0
 10
369.356935
 20
462.744784
 30
0.0
 10
369.833688
 20
463.366105
 30
0.0
 10
370.455009
 20
463.842858
 30
0.0
 10
371.178565
 20
464.142578
 30
0.0
 10
371.955011
 20
464.244786
 30
0.0
 10
372.731484
 20
464.142578
 30
0.0
 10
373.455013
 20
463.842858
 30
0.0
 10
374.076334
 20
463.366105
 30
0.0
 10
374.553087
 20
462.744784
 30
0.0
 10
374.852807
 20
462.021254
 30
0.0
 10
374.955016
 20
461.244782
 30
0.0
 10
374.852807
 20
460.468335
 30
0.0
 10
374.553087
 20
459.744806
 30
0.0
 10
374.076334
 20
459.123485
 30
0.0
 10
373.455013
 20
458.646706
 30
0.0
 10
372.731484
 20
458.347012
 30
0.0
 10
371.955011
 20
458.244803
 30
0.0
 10
371.178565
 20
458.347012
 30
0.0
 10
370.455009
 20
458.646706
 30
0.0
 10
369.833688
 20
459.123485
 30
0.0
 10
369.356935
 20
459.744806
 30
0.0
 10
369.057241
 20
460.468335
 30
0.0
  0
LWPOLYLINE
  5
236
100
AcDbEntity
  8
Layer_1
 62
7
100
AcDbPolyline
 90
24
 70
1
 10
207.955018
 20
461.244782
 30
0.0
 10
208.057253
 20
462.021254
 30
0.0
 10
208.356947
 20
462.744784
 30
0.0
 10
208.833699
 20
463.366105
 30
0.0
 10
209.455021
 20
463.842858
 30
0.0
 10
210.178577
 20
464.142578
 30
0.0
 10
210.955023
 20
464.244786
 30
0.0
 10
211.731469
 20
464.142578
 30
0.0
 10
212.455025
 20
463.842858
 30
0.0
 10
213.076346
 20
463.366105
 30
0.0
 10
213.553099
 20
462.744784
 30
0.0
 10
213.852792
 20
462.021254
 30
0.0
 10
213.955027
 20
461.244782
 30
0.0
 10
213.852792
 20
460.468335
 30
0.0
 10
213.553099
 20
459.744806
 30
0.0
 10
213.076346
 20
459.123485
 30
0.0
 10
212.455025
 20
458.646706
 30
0.0
 10
211.731469
 20
458.347012
 30
0.0
 10
210.955023
 20
458.244803
 30
0.0
 10
210.178577
 20
458.347012
 30
0.0
 10
209.455021
 20
458.646706
 30
0.0
 10
208.833699
 20
459.123485
 30
0.0
 10
208.356947
 20
459.744806
 30
0.0
 10
208.057253
 20
460.468335
 30
0.0
  0
LWPOLYLINE
  5
237
100
AcDbEntity
  8
Layer_1
 62
7
100
AcDbPolyline
 90
2
 70
0
 10
359.955019
 20
467.244791
 30
0.0
 10
222.955015
 20
467.244791
 30
0.0
  0
LWPOLYLINE
  5
238
100
AcDbEntity
  8
Layer_1
 62
7
100
AcDbPolyline
 90
2
 70
0
 10
365.955028
 20
565.244792
 30
0.0
 10
365.955028
 20
473.244800
 30
0.0
  0
LWPOLYLINE
  5
239
100
AcDbEntity
  8
Layer_1
 62
7
100
AcDbPolyline
 90
2
 70
0
 10
359.955019
 20
571.244793
 30
0.0
 10
222.955015
 20
571.244793
 30
0.0
  0
LWPOLYLINE
  5
23a
100
AcDbEntity
  8
Layer_1
 62
7
100
AcDbPolyline
 90
2
 70
0
 10
216.955032
 20
565.244792
 30
0.0
 10
216.955032
 20
473.244800
 30
0.0
  0
LWPOLYLINE
  5
23b
100
AcDbEntity
  8
Layer_1
 62
7
100
AcDbPolyline
 90
13
 70
0
 10
222.955015
 20
467.244791
 30
0.0
 10
222.171874
 20
467.296120
 30
0.0
 10
221.402096
 20
467.449234
 30
0.0
 10
220.658934
 20
467.701514
 30
0.0
 10
219.955010
 20
468.048648
 30
0.0
 10
219.302442
 20
468.484681
 30
0.0
 10
218.712368
 20
469.002153
 30
0.0
 10
218.194896
 20
469.592227
 30
0.0
 10
217.758862
 20
470.244795
 30
0.0
 10
217.411756
 20
470.948693
 30
0.0
 10
217.159475
 20
471.691881
 30
0.0
 10
217.006361
 20
472.461633
 30
0.0
 10
216.955032
 20
473.244800
 30
0.0
  0
LWPOLYLINE
  5
23c
100
AcDbEntity
  8
Layer_1
 62
7
100
AcDbPolyline
 90
13
 70
0
 10
365.955028
 20
473.244800
 30
0.0
 10
365.903699
 20
472.461633
 30
0.0
 10
365.750585
 20
471.691881
 30
0.0
 10
365.498305
 20
470.948693
 30
0.0
 10
365.151171
 20
470.244795
 30
0.0
 10
364.715138
 20
469.592227
 30
0.0
 10
364.197666
 20
469.002153
 30
0.0
 10
363.607592
 20
468.484681
 30
0.0
 10
362.955024
 20
468.048648
 30
0.0
 10
362.251126
 20
467.701514
 30
0.0
 10
361.507938
 20
467.449234
 30
0.0
 10
360.738186
 20
467.296120
 30
0.0
 10
359.955019
 20
467.244791
 30
0.0
  0
LWPOLYLINE
  5
23d
100
AcDbEntity
  8
Layer_1
 62
7
100
AcDbPolyline
 90
13
 70
0
 10
365.955028
 20
565.244792
 30
0.0
 10
365.903699
 20
566.027951
 30
0.0
 10
365.750585
 20
566.797705
 30
0.0
 10
365.498305
 20
567.540894
 30
0.0
 10
365.151171
 20
568.244791
 30
0.0
 10
364.715138
 20
568.897362
 30
0.0
 10
364.197666
 20
569.487433
 30
0.0
 10
363.607592
 20
570.004913
 30
0.0
 10
362.955024
 20
570.440944
 30
0.0
 10
362.251126
 20
570.788069
 30
0.0
 10
361.507938
 20
571.040347
 30
0.0
 10
360.738186
 20
571.193461
 30
0.0
 10
359.955019
 20
571.244793
 30
0.0
  0
LWPOLYLINE
  5
23e
100
AcDbEntity
  8
Layer_1
 62
7
100
AcDbPolyline
 90
13
 70
0
 10
216.955032
 20
565.244792
 30
0.0
 10
217.006361
 20
566.027951
 30
0.0
 10
217.159475
 20
566.797705
 30
0.0
 10
217.411756
 20
567.540894
 30
0.0
 10
217.758862
 20
568.244791
 30
0.0
 10
218.194896
 20
568.897362
 30
0.0
 10
218.712368
 20
569.487433
 30
0.0
 10
219.302442
 20
570.004913
 30
0.0
 10
219.955010
 20
570.440944
 30
0.0
 10
220.658934
 20
570.788069
 30
0.0
 10
221.402096
 20
571.040347
 30
0.0
 10
222.171874
 20
571.193461
 30
0.0
 10
222.955015
 20
571.244793
 30
0.0
  0
ENDSEC
  0
SECTION
  2
OBJECTS
  0
DICTIONARY
  5
C
330
0
100
AcDbDictionary
  3
ACAD_GROUP
350
D
  3
ACAD_MLINESTYLE
350
17
  0
DICTIONARY
  5
D
330
C
100
AcDbDictionary
  0
DICTIONARY
  5
1A
330
C
100
AcDbDictionary
  0
DICTIONARY
  5
17
330
C
100
AcDbDictionary
  3
STANDARD
350
18
  0
DICTIONARY
  5
19
330
C
100
AcDbDictionary
  0
ENDSEC
  0
EOF
