  0
SECTION
  2
HEADER
  9
$ACADVER
  1
AC1014
  9
$HANDSEED
  5
FFFF
  9
$MEASUREMENT
 70
     1
  0
ENDSEC
  0
SECTION
  2
TABLES
  0
TABLE
  2
VPORT
  5
8
330
0
100
AcDbSymbolTable
 70
     4
  0
VPORT
  5
2E
330
8
100
AcDbSymbolTableRecord
100
AcDbViewportTableRecord
  2
*ACTIVE
 70
     0
 10
0.0
 20
0.0
 11
1.0
 21
1.0
 12
210.0
 22
148.5
 13
0.0
 23
0.0
 14
10.0
 24
10.0
 15
10.0
 25
10.0
 16
0.0
 26
0.0
 36
1.0
 17
0.0
 27
0.0
 37
0.0
 40
341.0
 41
1.24
 42
50.0
 43
0.0
 44
0.0
 50
0.0
 51
0.0
 71
     0
 72
   100
 73
     1
 74
     3
 75
     0
 76
     0
 77
     0
 78
     0
  0
ENDTAB
  0
TABLE
  2
LTYPE
  5
5
330
0
100
AcDbSymbolTable
 70
     1
  0
LTYPE
  5
14
330
5
100
AcDbSymbolTableRecord
100
AcDbLinetypeTableRecord
  2
BYBLOCK
 70
     0
  3

 72
    65
 73
     0
 40
0.0
  0
LTYPE
  5
15
330
5
100
AcDbSymbolTableRecord
100
AcDbLinetypeTableRecord
  2
BYLAYER
 70
     0
  3

 72
    65
 73
     0
 40
0.0
  0
LTYPE
  5
16
330
5
100
AcDbSymbolTableRecord
100
AcDbLinetypeTableRecord
  2
CONTINUOUS
 70
     0
  3
Solid line
 72
    65
 73
     0
 40
0.0
  0
ENDTAB
  0
TABLE
  2
LAYER
  5
2
100
AcDbSymbolTable
 70
2
  0
LAYER
  5
50
100
AcDbSymbolTableRecord
100
AcDbLayerTableRecord
  2
0
 70
0
  6
CONTINUOUS
  0
LAYER
  5
51
100
AcDbSymbolTableRecord
100
AcDbLayerTableRecord
  2
Layer_1
 70
0
  6
CONTINUOUS
  0
ENDTAB
  0
TABLE
  2
STYLE
  5
3
330
0
100
AcDbSymbolTable
 70
     1
  0
STYLE
  5
11
330
3
100
AcDbSymbolTableRecord
100
AcDbTextStyleTableRecord
  2
STANDARD
 70
     0
 40
0.0
 41
1.0
 50
0.0
 71
     0
 42
2.5
  3
txt
  4

  0
ENDTAB
  0
TABLE
  2
VIEW
  5
6
330
0
100
AcDbSymbolTable
 70
     0
  0
ENDTAB
  0
TABLE
  2
UCS
  5
7
330
0
100
AcDbSymbolTable
 70
     0
  0
ENDTAB
  0
TABLE
  2
APPID
  5
9
330
0
100
AcDbSymbolTable
 70
     2
  0
APPID
  5
12
330
9
100
AcDbSymbolTableRecord
100
AcDbRegAppTableRecord
  2
ACAD
 70
     0
  0
ENDTAB
  0
TABLE
  2
DIMSTYLE
  5
A
330
0
100
AcDbSymbolTable
 70
     1
  0
DIMSTYLE
105
27
330
A
100
AcDbSymbolTableRecord
100
AcDbDimStyleTableRecord
  2
ISO-25
 70
     0
  3

  4

  5

  6

  7

 40
1.0
 41
2.5
 42
0.625
 43
3.75
 44
1.25
 45
0.0
 46
0.0
 47
0.0
 48
0.0
140
2.5
141
2.5
142
0.0
143
0.03937007874016
144
1.0
145
0.0
146
1.0
147
0.625
 71
     0
 72
     0
 73
     0
 74
     0
 75
     0
 76
     0
 77
     1
 78
     8
170
     0
171
     3
172
     1
173
     0
174
     0
175
     0
176
     0
177
     0
178
     0
270
     2
271
     2
272
     2
273
     2
274
     3
340
11
275
     0
280
     0
281
     0
282
     0
283
     0
284
     8
285
     0
286
     0
287
     3
288
     0
  0
ENDTAB
  0
TABLE
  2
BLOCK_RECORD
  5
1
330
0
100
AcDbSymbolTable
 70
     1
  0
BLOCK_RECORD
  5
1F
330
1
100
AcDbSymbolTableRecord
100
AcDbBlockTableRecord
  2
*MODEL_SPACE
  0
BLOCK_RECORD
  5
1B
330
1
100
AcDbSymbolTableRecord
100
AcDbBlockTableRecord
  2
*PAPER_SPACE
  0
ENDTAB
  0
ENDSEC
  0
SECTION
  2
BLOCKS
  0
BLOCK
  5
20
330
1F
100
AcDbEntity
  8
0
100
AcDbBlockBegin
  2
*MODEL_SPACE
 70
     0
 10
0.0
 20
0.0
 30
0.0
  3
*MODEL_SPACE
  1

  0
ENDBLK
  5
21
330
1F
100
AcDbEntity
  8
0
100
AcDbBlockEnd
  0
BLOCK
  5
1C
330
1B
100
AcDbEntity
 67
     1
  8
0
100
AcDbBlockBegin
  2
*PAPER_SPACE
  1

  0
ENDBLK
  5
1D
330
1B
100
AcDbEntity
 67
     1
  8
0
100
AcDbBlockEnd
  0
ENDSEC
  0
SECTION
  2
ENTITIES
  0
LWPOLYLINE
  5
100
100
AcDbEntity
  8
Layer_1
 62
7
100
AcDbPolyline
 90
2
 70
0
 10
199.781781
 20
130.760418
 30
0.0
 10
199.781781
 20
14.760408
 30
0.0
  0
LWPOLYLINE
  5
101
100
AcDbEntity
  8
Layer_1
 62
7
100
AcDbPolyline
 90
2
 70
0
 10
372.781708
 20
142.760418
 30
0.0
 10
211.781693
 20
142.760418
 30
0.0
  0
LWPOLYLINE
  5
102
100
AcDbEntity
  8
Layer_1
 62
7
100
AcDbPolyline
 90
2
 70
0
 10
384.781885
 20
14.760408
 30
0.0
 10
384.781885
 20
130.760418
 30
0.0
  0
LWPOLYLINE
  5
103
100
AcDbEntity
  8
Layer_1
 62
7
100
AcDbPolyline
 90
2
 70
0
 10
211.781693
 20
2.760416
 30
0.0
 10
372.781708
 20
2.760416
 30
0.0
  0
LWPOLYLINE
  5
104
100
AcDbEntity
  8
Layer_1
 62
7
100
AcDbPolyline
 90
13
 70
0
 10
211.781693
 20
142.760418
 30
0.0
 10
210.215360
 20
142.657757
 30
0.0
 10
208.676014
 20
142.351528
 30
0.0
 10
207.189585
 20
141.846973
 30
0.0
 10
205.781737
 20
141.152722
 30
0.0
 10
204.476547
 20
140.280658
 30
0.0
 10
203.296506
 20
139.245701
 30
0.0
 10
202.261456
 20
138.065556
 30
0.0
 10
201.389389
 20
136.760419
 30
0.0
 10
200.695122
 20
135.352619
 30
0.0
 10
200.190562
 20
133.866248
 30
0.0
 10
199.884439
 20
132.326733
 30
0.0
 10
199.781781
 20
130.760418
 30
0.0
  0
LWPOLYLINE
  5
105
100
AcDbEntity
  8
Layer_1
 62
7
100
AcDbPolyline
 90
14
 70
0
 10
372.781708
 20
142.760418
 30
0.0
 10
374.228185
 20
142.672925
 30
0.0
 10
375.653495
 20
142.411721
 30
0.0
 10
377.037001
 20
141.980614
 30
0.0
 10
378.358595
 20
141.385891
 30
0.0
 10
379.598697
 20
140.636226
 30
0.0
 10
380.739316
 20
139.742548
 30
0.0
 10
381.764047
 20
138.717891
 30
0.0
 10
382.657545
 20
137.577196
 30
0.0
 10
383.407374
 20
136.337096
 30
0.0
 10
384.001893
 20
135.015677
 30
0.0
 10
384.433164
 20
133.632205
 30
0.0
 10
384.694308
 20
132.206858
 30
0.0
 10
384.781885
 20
130.760418
 30
0.0
  0
LWPOLYLINE
  5
106
100
AcDbEntity
  8
Layer_1
 62
7
100
AcDbPolyline
 90
13
 70
0
 10
372.781708
 20
2.760416
 30
0.0
 10
374.348041
 20
2.863075
 30
0.0
 10
375.887651
 20
3.169303
 30
0.0
 10
377.374081
 20
3.673864
 30
0.0
 10
378.781928
 20
4.368104
 30
0.0
 10
380.086853
 20
5.240171
 30
0.0
 10
381.267160
 20
6.275141
 30
0.0
 10
382.301945
 20
7.455289
 30
0.0
 10
383.174012
 20
8.760425
 30
0.0
 10
383.868278
 20
10.168220
 30
0.0
 10
384.372839
 20
11.654596
 30
0.0
 10
384.679226
 20
13.194101
 30
0.0
 10
384.781885
 20
14.760408
 30
0.0
  0
LWPOLYLINE
  5
107
100
AcDbEntity
  8
Layer_1
 62
7
100
AcDbPolyline
 90
13
 70
0
 10
211.781693
 20
2.760416
 30
0.0
 10
210.215360
 20
2.863075
 30
0.0
 10
208.676014
 20
3.169303
 30
0.0
 10
207.189585
 20
3.673864
 30
0.0
 10
205.781737
 20
4.368104
 30
0.0
 10
204.476547
 20
5.240171
 30
0.0
 10
203.296506
 20
6.275141
 30
0.0
 10
202.261456
 20
7.455289
 30
0.0
 10
201.389389
 20
8.760425
 30
0.0
 10
200.695122
 20
10.168220
 30
0.0
 10
200.190562
 20
11.654596
 30
0.0
 10
199.884439
 20
13.194101
 30
0.0
 10
199.781781
 20
14.760408
 30
0.0
  0
LWPOLYLINE
  5
108
100
AcDbEntity
  8
Layer_1
 62
7
100
AcDbPolyline
 90
2
 70
0
 10
217.781914
 20
118.760418
 30
0.0
 10
217.781914
 20
26.760426
 30
0.0
  0
LWPOLYLINE
  5
109
100
AcDbEntity
  8
Layer_1
 62
7
100
AcDbPolyline
 90
2
 70
0
 10
360.781795
 20
20.760417
 30
0.0
 10
223.781870
 20
20.760417
 30
0.0
  0
LWPOLYLINE
  5
10a
100
AcDbEntity
  8
Layer_1
 62
7
100
AcDbPolyline
 90
2
 70
0
 10
366.781752
 20
118.760418
 30
0.0
 10
366.781752
 20
26.760426
 30
0.0
  0
LWPOLYLINE
  5
10b
100
AcDbEntity
  8
Layer_1
 62
7
100
AcDbPolyline
 90
2
 70
0
 10
360.781795
 20
124.760419
 30
0.0
 10
223.781870
 20
124.760419
 30
0.0
  0
LWPOLYLINE
  5
10c
100
AcDbEntity
  8
Layer_1
 62
7
100
AcDbPolyline
 90
13
 70
0
 10
217.781914
 20
26.760426
 30
0.0
 10
217.833243
 20
25.977259
 30
0.0
 10
217.986172
 20
25.207507
 30
0.0
 10
218.238585
 20
24.464319
 30
0.0
 10
218.585718
 20
23.760422
 30
0.0
 10
219.021751
 20
23.107853
 30
0.0
 10
219.539276
 20
22.517779
 30
0.0
 10
220.129297
 20
22.000307
 30
0.0
 10
220.781760
 20
21.564274
 30
0.0
 10
221.485816
 20
21.217141
 30
0.0
 10
222.228766
 20
20.964861
 30
0.0
 10
222.998703
 20
20.811746
 30
0.0
 10
223.781870
 20
20.760417
 30
0.0
  0
LWPOLYLINE
  5
10d
100
AcDbEntity
  8
Layer_1
 62
7
100
AcDbPolyline
 90
13
 70
0
 10
366.781752
 20
26.760426
 30
0.0
 10
366.730422
 20
25.977259
 30
0.0
 10
366.577229
 20
25.207507
 30
0.0
 10
366.325081
 20
24.464319
 30
0.0
 10
365.977947
 20
23.760422
 30
0.0
 10
365.541914
 20
23.107853
 30
0.0
 10
365.024389
 20
22.517779
 30
0.0
 10
364.434368
 20
22.000307
 30
0.0
 10
363.781906
 20
21.564274
 30
0.0
 10
363.077850
 20
21.217141
 30
0.0
 10
362.334635
 20
20.964861
 30
0.0
 10
361.564962
 20
20.811746
 30
0.0
 10
360.781795
 20
20.760417
 30
0.0
  0
LWPOLYLINE
  5
10e
100
AcDbEntity
  8
Layer_1
 62
7
100
AcDbPolyline
 90
13
 70
0
 10
366.781752
 20
118.760418
 30
0.0
 10
366.730422
 20
119.543577
 30
0.0
 10
366.577229
 20
120.313332
 30
0.0
 10
366.325081
 20
121.056520
 30
0.0
 10
365.977947
 20
121.760417
 30
0.0
 10
365.541914
 20
122.412988
 30
0.0
 10
365.024389
 20
123.003060
 30
0.0
 10
364.434368
 20
123.520540
 30
0.0
 10
363.781906
 20
123.956570
 30
0.0
 10
363.077850
 20
124.303696
 30
0.0
 10
362.334635
 20
124.555973
 30
0.0
 10
361.564962
 20
124.709088
 30
0.0
 10
360.781795
 20
124.760419
 30
0.0
  0
LWPOLYLINE
  5
10f
100
AcDbEntity
  8
Layer_1
 62
7
100
AcDbPolyline
 90
13
 70
0
 10
217.781914
 20
118.760418
 30
0.0
 10
217.833243
 20
119.543577
 30
0.0
 10
217.986172
 20
120.313332
 30
0.0
 10
218.238585
 20
121.056520
 30
0.0
 10
218.585718
 20
121.760417
 30
0.0
 10
219.021751
 20
122.412988
 30
0.0
 10
219.539276
 20
123.003060
 30
0.0
 10
220.129297
 20
123.520540
 30
0.0
 10
220.781760
 20
123.956570
 30
0.0
 10
221.485816
 20
124.303696
 30
0.0
 10
222.228766
 20
124.555973
 30
0.0
 10
222.998703
 20
124.709088
 30
0.0
 10
223.781870
 20
124.760419
 30
0.0
  0
LWPOLYLINE
  5
110
100
AcDbEntity
  8
Layer_1
 62
7
100
AcDbPolyline
 90
24
 70
1
 10
208.781847
 20
14.760408
 30
0.0
 10
208.883976
 20
15.536881
 30
0.0
 10
209.183749
 20
16.260410
 30
0.0
 10
209.660529
 20
16.881731
 30
0.0
 10
210.281770
 20
17.358484
 30
0.0
 10
211.005406
 20
17.658204
 30
0.0
 10
211.781693
 20
17.760412
 30
0.0
 10
212.558245
 20
17.658204
 30
0.0
 10
213.281881
 20
17.358484
 30
0.0
 10
213.903122
 20
16.881731
 30
0.0
 10
214.379901
 20
16.260410
 30
0.0
 10
214.679674
 20
15.536881
 30
0.0
 10
214.781803
 20
14.760408
 30
0.0
 10
214.679674
 20
13.983962
 30
0.0
 10
214.379901
 20
13.260432
 30
0.0
 10
213.903122
 20
12.639111
 30
0.0
 10
213.281881
 20
12.162332
 30
0.0
 10
212.558245
 20
11.862638
 30
0.0
 10
211.781693
 20
11.760430
 30
0.0
 10
211.005406
 20
11.862638
 30
0.0
 10
210.281770
 20
12.162332
 30
0.0
 10
209.660529
 20
12.639111
 30
0.0
 10
209.183749
 20
13.260432
 30
0.0
 10
208.883976
 20
13.983962
 30
0.0
  0
LWPOLYLINE
  5
111
100
AcDbEntity
  8
Layer_1
 62
7
100
AcDbPolyline
 90
24
 70
1
 10
369.781862
 20
14.760408
 30
0.0
 10
369.883991
 20
15.536881
 30
0.0
 10
370.183764
 20
16.260410
 30
0.0
 10
370.660543
 20
16.881731
 30
0.0
 10
371.281785
 20
17.358484
 30
0.0
 10
372.005420
 20
17.658204
 30
0.0
 10
372.781708
 20
17.760412
 30
0.0
 10
373.558260
 20
17.658204
 30
0.0
 10
374.281895
 20
17.358484
 30
0.0
 10
374.903137
 20
16.881731
 30
0.0
 10
375.379916
 20
16.260410
 30
0.0
 10
375.679689
 20
15.536881
 30
0.0
 10
375.781818
 20
14.760408
 30
0.0
 10
375.679689
 20
13.983962
 30
0.0
 10
375.379916
 20
13.260432
 30
0.0
 10
374.903137
 20
12.639111
 30
0.0
 10
374.281895
 20
12.162332
 30
0.0
 10
373.558260
 20
11.862638
 30
0.0
 10
372.781708
 20
11.760430
 30
0.0
 10
372.005420
 20
11.862638
 30
0.0
 10
371.281785
 20
12.162332
 30
0.0
 10
370.660543
 20
12.639111
 30
0.0
 10
370.183764
 20
13.260432
 30
0.0
 10
369.883991
 20
13.983962
 30
0.0
  0
LWPOLYLINE
  5
112
100
AcDbEntity
  8
Layer_1
 62
7
100
AcDbPolyline
 90
7
 70
0
 10
374.792541
 20
132.986783
 30
0.0
 10
374.192995
 20
133.407825
 30
0.0
 10
373.509047
 20
133.670935
 30
0.0
 10
372.781708
 20
133.760420
 30
0.0
 10
372.054633
 20
133.670935
 30
0.0
 10
371.370685
 20
133.407825
 30
0.0
 10
370.770874
 20
132.986783
 30
0.0
  0
LWPOLYLINE
  5
113
100
AcDbEntity
  8
Layer_1
 62
7
100
AcDbPolyline
 90
5
 70
0
 10
374.792541
 20
132.986783
 30
0.0
 10
375.265351
 20
132.443255
 30
0.0
 10
375.595022
 20
131.802699
 30
0.0
 10
375.762239
 20
131.102043
 30
0.0
 10
375.756947
 20
130.381691
 30
0.0
  0
LWPOLYLINE
  5
114
100
AcDbEntity
  8
Layer_1
 62
7
100
AcDbPolyline
 90
14
 70
0
 10
375.757741
 20
130.381691
 30
0.0
 10
375.581793
 20
129.683175
 30
0.0
 10
375.244185
 20
129.046772
 30
0.0
 10
374.764760
 20
128.509176
 30
0.0
 10
374.170770
 20
128.101382
 30
0.0
 10
373.496876
 20
127.846906
 30
0.0
 10
372.781708
 20
127.760419
 30
0.0
 10
372.066539
 20
127.846906
 30
0.0
 10
371.392645
 20
128.101382
 30
0.0
 10
370.798920
 20
128.509176
 30
0.0
 10
370.319495
 20
129.046772
 30
0.0
 10
369.981887
 20
129.683175
 30
0.0
 10
369.805674
 20
130.381691
 30
0.0
 10
369.800383
 20
131.102043
 30
0.0
  0
LWPOLYLINE
  5
115
100
AcDbEntity
  8
Layer_1
 62
7
100
AcDbPolyline
 90
4
 70
0
 10
369.801441
 20
131.102043
 30
0.0
 10
369.968658
 20
131.802699
 30
0.0
 10
370.298329
 20
132.443255
 30
0.0
 10
370.770874
 20
132.986783
 30
0.0
  0
LWPOLYLINE
  5
116
100
AcDbEntity
  8
Layer_1
 62
7
100
AcDbPolyline
 90
25
 70
1
 10
213.792526
 20
132.986783
 30
0.0
 10
214.283064
 20
132.416773
 30
0.0
 10
214.616439
 20
131.742689
 30
0.0
 10
214.771749
 20
131.006885
 30
0.0
 10
214.738941
 20
130.255596
 30
0.0
 10
214.520660
 20
129.536024
 30
0.0
 10
214.130135
 20
128.893386
 30
0.0
 10
213.591972
 20
128.368061
 30
0.0
 10
212.940039
 20
127.993056
 30
0.0
 10
212.215610
 20
127.791936
 30
0.0
 10
211.463664
 20
127.777331
 30
0.0
 10
210.731826
 20
127.950172
 30
0.0
 10
210.065870
 20
128.299589
 30
0.0
 10
209.507864
 20
128.803628
 30
0.0
 10
209.092733
 20
129.430619
 30
0.0
 10
208.846406
 20
130.141166
 30
0.0
 10
208.784758
 20
130.890625
 30
0.0
 10
208.911229
 20
131.631900
 30
0.0
 10
209.218145
 20
132.318417
 30
0.0
 10
209.686193
 20
132.907041
 30
0.0
 10
210.285739
 20
133.360783
 30
0.0
 10
210.979476
 20
133.651136
 30
0.0
 10
211.723485
 20
133.759854
 30
0.0
 10
212.471197
 20
133.680105
 30
0.0
 10
213.175783
 20
133.416903
 30
0.0
  0
LWPOLYLINE
  5
117
100
AcDbEntity
  8
Layer_1
 62
7
100
AcDbPolyline
 90
2
 70
0
 10
18.305231
 20
2.347005
 30
0.0
 10
179.305246
 20
2.347005
 30
0.0
  0
LWPOLYLINE
  5
118
100
AcDbEntity
  8
Layer_1
 62
7
100
AcDbPolyline
 90
2
 70
0
 10
6.305319
 20
130.347006
 30
0.0
 10
6.305319
 20
14.346996
 30
0.0
  0
LWPOLYLINE
  5
119
100
AcDbEntity
  8
Layer_1
 62
7
100
AcDbPolyline
 90
2
 70
0
 10
179.305246
 20
142.347006
 30
0.0
 10
18.305231
 20
142.347006
 30
0.0
  0
LWPOLYLINE
  5
11a
100
AcDbEntity
  8
Layer_1
 62
7
100
AcDbPolyline
 90
2
 70
0
 10
191.305423
 20
14.346996
 30
0.0
 10
191.305423
 20
130.347006
 30
0.0
  0
LWPOLYLINE
  5
11b
100
AcDbEntity
  8
Layer_1
 62
7
100
AcDbPolyline
 90
13
 70
0
 10
18.305231
 20
2.347005
 30
0.0
 10
16.738898
 20
2.449663
 30
0.0
 10
15.199552
 20
2.755892
 30
0.0
 10
13.713123
 20
3.260452
 30
0.0
 10
12.305275
 20
3.954692
 30
0.0
 10
11.000085
 20
4.826759
 30
0.0
 10
9.820044
 20
5.861730
 30
0.0
 10
8.784994
 20
7.041877
 30
0.0
 10
7.912927
 20
8.347014
 30
0.0
 10
7.218660
 20
9.754809
 30
0.0
 10
6.714100
 20
11.241185
 30
0.0
 10
6.407977
 20
12.780690
 30
0.0
 10
6.305319
 20
14.346996
 30
0.0
  0
LWPOLYLINE
  5
11c
100
AcDbEntity
  8
Layer_1
 62
7
100
AcDbPolyline
 90
13
 70
0
 10
18.305231
 20
142.347006
 30
0.0
 10
16.738898
 20
142.244345
 30
0.0
 10
15.199552
 20
141.938116
 30
0.0
 10
13.713123
 20
141.433561
 30
0.0
 10
12.305275
 20
140.739310
 30
0.0
 10
11.000085
 20
139.867246
 30
0.0
 10
9.820044
 20
138.832289
 30
0.0
 10
8.784994
 20
137.652144
 30
0.0
 10
7.912927
 20
136.347008
 30
0.0
 10
7.218660
 20
134.939207
 30
0.0
 10
6.714100
 20
133.452836
 30
0.0
 10
6.407977
 20
131.913321
 30
0.0
 10
6.305319
 20
130.347006
 30
0.0
  0
LWPOLYLINE
  5
11d
100
AcDbEntity
  8
Layer_1
 62
7
100
AcDbPolyline
 90
13
 70
0
 10
179.305246
 20
142.347006
 30
0.0
 10
180.871579
 20
142.244345
 30
0.0
 10
182.411190
 20
141.938116
 30
0.0
 10
183.897619
 20
141.433561
 30
0.0
 10
185.305467
 20
140.739310
 30
0.0
 10
186.610392
 20
139.867246
 30
0.0
 10
187.790698
 20
138.832289
 30
0.0
 10
188.825483
 20
137.652144
 30
0.0
 10
189.697550
 20
136.347008
 30
0.0
 10
190.391817
 20
134.939207
 30
0.0
 10
190.896377
 20
133.452836
 30
0.0
 10
191.202764
 20
131.913321
 30
0.0
 10
191.305423
 20
130.347006
 30
0.0
  0
LWPOLYLINE
  5
11e
100
AcDbEntity
  8
Layer_1
 62
7
100
AcDbPolyline
 90
13
 70
0
 10
179.305246
 20
2.347005
 30
0.0
 10
180.871579
 20
2.449663
 30
0.0
 10
182.411190
 20
2.755892
 30
0.0
 10
183.897619
 20
3.260452
 30
0.0
 10
185.305467
 20
3.954692
 30
0.0
 10
186.610392
 20
4.826759
 30
0.0
 10
187.790698
 20
5.861730
 30
0.0
 10
188.825483
 20
7.041877
 30
0.0
 10
189.697550
 20
8.347014
 30
0.0
 10
190.391817
 20
9.754809
 30
0.0
 10
190.896377
 20
11.241185
 30
0.0
 10
191.202764
 20
12.780690
 30
0.0
 10
191.305423
 20
14.346996
 30
0.0
  0
LWPOLYLINE
  5
11f
100
AcDbEntity
  8
Layer_1
 62
7
100
AcDbPolyline
 90
24
 70
1
 10
179.305246
 20
133.347008
 30
0.0
 10
180.081798
 20
133.244784
 30
0.0
 10
180.805433
 20
132.945082
 30
0.0
 10
181.426675
 20
132.468327
 30
0.0
 10
181.903454
 20
131.847006
 30
0.0
 10
182.203227
 20
131.123463
 30
0.0
 10
182.305356
 20
130.347006
 30
0.0
 10
182.203227
 20
129.570550
 30
0.0
 10
181.903454
 20
128.847007
 30
0.0
 10
181.426675
 20
128.225686
 30
0.0
 10
180.805433
 20
127.748930
 30
0.0
 10
180.081798
 20
127.449229
 30
0.0
 10
179.305246
 20
127.347007
 30
0.0
 10
178.528958
 20
127.449229
 30
0.0
 10
177.805323
 20
127.748930
 30
0.0
 10
177.184081
 20
128.225686
 30
0.0
 10
176.707302
 20
128.847007
 30
0.0
 10
176.407529
 20
129.570550
 30
0.0
 10
176.305400
 20
130.347006
 30
0.0
 10
176.407529
 20
131.123463
 30
0.0
 10
176.707302
 20
131.847006
 30
0.0
 10
177.184081
 20
132.468327
 30
0.0
 10
177.805323
 20
132.945082
 30
0.0
 10
178.528958
 20
133.244784
 30
0.0
  0
LWPOLYLINE
  5
120
100
AcDbEntity
  8
Layer_1
 62
7
100
AcDbPolyline
 90
24
 70
1
 10
177.805323
 20
16.945072
 30
0.0
 10
178.528958
 20
17.244792
 30
0.0
 10
179.305246
 20
17.347001
 30
0.0
 10
180.081798
 20
17.244792
 30
0.0
 10
180.805433
 20
16.945072
 30
0.0
 10
181.426675
 20
16.468320
 30
0.0
 10
181.903454
 20
15.846999
 30
0.0
 10
182.203227
 20
15.123469
 30
0.0
 10
182.305356
 20
14.346996
 30
0.0
 10
182.203227
 20
13.570550
 30
0.0
 10
181.903454
 20
12.847021
 30
0.0
 10
181.426675
 20
12.225700
 30
0.0
 10
180.805433
 20
11.748920
 30
0.0
 10
180.081798
 20
11.449227
 30
0.0
 10
179.305246
 20
11.347018
 30
0.0
 10
178.528958
 20
11.449227
 30
0.0
 10
177.805323
 20
11.748920
 30
0.0
 10
177.184081
 20
12.225700
 30
0.0
 10
176.707302
 20
12.847021
 30
0.0
 10
176.407529
 20
13.570550
 30
0.0
 10
176.305400
 20
14.346996
 30
0.0
 10
176.407529
 20
15.123469
 30
0.0
 10
176.707302
 20
15.846999
 30
0.0
 10
177.184081
 20
16.468320
 30
0.0
  0
LWPOLYLINE
  5
121
100
AcDbEntity
  8
Layer_1
 62
7
100
AcDbPolyline
 90
24
 70
1
 10
15.305385
 20
14.346996
 30
0.0
 10
15.407515
 20
15.123469
 30
0.0
 10
15.707287
 20
15.846999
 30
0.0
 10
16.184067
 20
16.468320
 30
0.0
 10
16.805308
 20
16.945072
 30
0.0
 10
17.528944
 20
17.244792
 30
0.0
 10
18.305231
 20
17.347001
 30
0.0
 10
19.081783
 20
17.244792
 30
0.0
 10
19.805419
 20
16.945072
 30
0.0
 10
20.426660
 20
16.468320
 30
0.0
 10
20.903439
 20
15.846999
 30
0.0
 10
21.203212
 20
15.123469
 30
0.0
 10
21.305342
 20
14.346996
 30
0.0
 10
21.203212
 20
13.570550
 30
0.0
 10
20.903439
 20
12.847021
 30
0.0
 10
20.426660
 20
12.225700
 30
0.0
 10
19.805419
 20
11.748920
 30
0.0
 10
19.081783
 20
11.449227
 30
0.0
 10
18.305231
 20
11.347018
 30
0.0
 10
17.528944
 20
11.449227
 30
0.0
 10
16.805308
 20
11.748920
 30
0.0
 10
16.184067
 20
12.225700
 30
0.0
 10
15.707287
 20
12.847021
 30
0.0
 10
15.407515
 20
13.570550
 30
0.0
  0
LWPOLYLINE
  5
122
100
AcDbEntity
  8
Layer_1
 62
7
100
AcDbPolyline
 90
24
 70
1
 10
21.203212
 20
129.570550
 30
0.0
 10
20.903439
 20
128.847007
 30
0.0
 10
20.426660
 20
128.225686
 30
0.0
 10
19.805419
 20
127.748930
 30
0.0
 10
19.081783
 20
127.449229
 30
0.0
 10
18.305231
 20
127.347007
 30
0.0
 10
17.528944
 20
127.449229
 30
0.0
 10
16.805308
 20
127.748930
 30
0.0
 10
16.184067
 20
128.225686
 30
0.0
 10
15.707287
 20
128.847007
 30
0.0
 10
15.407515
 20
129.570550
 30
0.0
 10
15.305385
 20
130.347006
 30
0.0
 10
15.407515
 20
131.123463
 30
0.0
 10
15.707287
 20
131.847006
 30
0.0
 10
16.184067
 20
132.468327
 30
0.0
 10
16.805308
 20
132.945082
 30
0.0
 10
17.528944
 20
133.244784
 30
0.0
 10
18.305231
 20
133.347008
 30
0.0
 10
19.081783
 20
133.244784
 30
0.0
 10
19.805419
 20
132.945082
 30
0.0
 10
20.426660
 20
132.468327
 30
0.0
 10
20.903439
 20
131.847006
 30
0.0
 10
21.203212
 20
131.123463
 30
0.0
 10
21.305342
 20
130.347006
 30
0.0
  0
LWPOLYLINE
  5
123
100
AcDbEntity
  8
Layer_1
 62
7
100
AcDbPolyline
 90
2
 70
0
 10
17.065031
 20
152.001950
 30
0.0
 10
178.065046
 20
152.001950
 30
0.0
  0
LWPOLYLINE
  5
124
100
AcDbEntity
  8
Layer_1
 62
7
100
AcDbPolyline
 90
2
 70
0
 10
5.065119
 20
280.001951
 30
0.0
 10
5.065119
 20
164.001942
 30
0.0
  0
LWPOLYLINE
  5
125
100
AcDbEntity
  8
Layer_1
 62
7
100
AcDbPolyline
 90
2
 70
0
 10
178.065046
 20
292.001951
 30
0.0
 10
17.065031
 20
292.001951
 30
0.0
  0
LWPOLYLINE
  5
126
100
AcDbEntity
  8
Layer_1
 62
7
100
AcDbPolyline
 90
2
 70
0
 10
190.065223
 20
164.001942
 30
0.0
 10
190.065223
 20
280.001951
 30
0.0
  0
LWPOLYLINE
  5
127
100
AcDbEntity
  8
Layer_1
 62
7
100
AcDbPolyline
 90
13
 70
0
 10
17.065031
 20
152.001950
 30
0.0
 10
15.498698
 20
152.104608
 30
0.0
 10
13.959352
 20
152.410837
 30
0.0
 10
12.472923
 20
152.915397
 30
0.0
 10
11.065075
 20
153.609637
 30
0.0
 10
9.759885
 20
154.481704
 30
0.0
 10
8.579844
 20
155.516675
 30
0.0
 10
7.544794
 20
156.696822
 30
0.0
 10
6.672727
 20
158.001959
 30
0.0
 10
5.978460
 20
159.409754
 30
0.0
 10
5.473900
 20
160.896130
 30
0.0
 10
5.167777
 20
162.435635
 30
0.0
 10
5.065119
 20
164.001942
 30
0.0
  0
LWPOLYLINE
  5
128
100
AcDbEntity
  8
Layer_1
 62
7
100
AcDbPolyline
 90
13
 70
0
 10
17.065031
 20
292.001951
 30
0.0
 10
15.498698
 20
291.899290
 30
0.0
 10
13.959352
 20
291.593061
 30
0.0
 10
12.472923
 20
291.088506
 30
0.0
 10
11.065075
 20
290.394256
 30
0.0
 10
9.759885
 20
289.522191
 30
0.0
 10
8.579844
 20
288.487234
 30
0.0
 10
7.544794
 20
287.307089
 30
0.0
 10
6.672727
 20
286.001953
 30
0.0
 10
5.978460
 20
284.594152
 30
0.0
 10
5.473900
 20
283.107781
 30
0.0
 10
5.167777
 20
281.568266
 30
0.0
 10
5.065119
 20
280.001951
 30
0.0
  0
LWPOLYLINE
  5
129
100
AcDbEntity
  8
Layer_1
 62
7
100
AcDbPolyline
 90
13
 70
0
 10
178.065046
 20
292.001951
 30
0.0
 10
179.631379
 20
291.899290
 30
0.0
 10
181.170990
 20
291.593061
 30
0.0
 10
182.657419
 20
291.088506
 30
0.0
 10
184.065267
 20
290.394256
 30
0.0
 10
185.370192
 20
289.522191
 30
0.0
 10
186.550498
 20
288.487234
 30
0.0
 10
187.585283
 20
287.307089
 30
0.0
 10
188.457350
 20
286.001953
 30
0.0
 10
189.151617
 20
284.594152
 30
0.0
 10
189.656177
 20
283.107781
 30
0.0
 10
189.962564
 20
281.568266
 30
0.0
 10
190.065223
 20
280.001951
 30
0.0
  0
LWPOLYLINE
  5
12a
100
AcDbEntity
  8
Layer_1
 62
7
100
AcDbPolyline
 90
13
 70
0
 10
178.065046
 20
152.001950
 30
0.0
 10
179.631379
 20
152.104608
 30
0.0
 10
181.170990
 20
152.410837
 30
0.0
 10
182.657419
 20
152.915397
 30
0.0
 10
184.065267
 20
153.609637
 30
0.0
 10
185.370192
 20
154.481704
 30
0.0
 10
186.550498
 20
155.516675
 30
0.0
 10
187.585283
 20
156.696822
 30
0.0
 10
188.457350
 20
158.001959
 30
0.0
 10
189.151617
 20
159.409754
 30
0.0
 10
189.656177
 20
160.896130
 30
0.0
 10
189.962564
 20
162.435635
 30
0.0
 10
190.065223
 20
164.001942
 30
0.0
  0
LWPOLYLINE
  5
12b
100
AcDbEntity
  8
Layer_1
 62
7
100
AcDbPolyline
 90
24
 70
1
 10
178.065046
 20
283.001953
 30
0.0
 10
178.841598
 20
282.899729
 30
0.0
 10
179.565233
 20
282.600027
 30
0.0
 10
180.186475
 20
282.123272
 30
0.0
 10
180.663254
 20
281.501951
 30
0.0
 10
180.963027
 20
280.778408
 30
0.0
 10
181.065156
 20
280.001951
 30
0.0
 10
180.963027
 20
279.225495
 30
0.0
 10
180.663254
 20
278.501952
 30
0.0
 10
180.186475
 20
277.880631
 30
0.0
 10
179.565233
 20
277.403875
 30
0.0
 10
178.841598
 20
277.104174
 30
0.0
 10
178.065046
 20
277.001952
 30
0.0
 10
177.288758
 20
277.104174
 30
0.0
 10
176.565123
 20
277.403875
 30
0.0
 10
175.943881
 20
277.880631
 30
0.0
 10
175.467102
 20
278.501952
 30
0.0
 10
175.167329
 20
279.225495
 30
0.0
 10
175.065200
 20
280.001951
 30
0.0
 10
175.167329
 20
280.778408
 30
0.0
 10
175.467102
 20
281.501951
 30
0.0
 10
175.943881
 20
282.123272
 30
0.0
 10
176.565123
 20
282.600027
 30
0.0
 10
177.288758
 20
282.899729
 30
0.0
  0
LWPOLYLINE
  5
12c
100
AcDbEntity
  8
Layer_1
 62
7
100
AcDbPolyline
 90
24
 70
1
 10
176.565123
 20
166.600018
 30
0.0
 10
177.288758
 20
166.899738
 30
0.0
 10
178.065046
 20
167.001946
 30
0.0
 10
178.841598
 20
166.899738
 30
0.0
 10
179.565233
 20
166.600018
 30
0.0
 10
180.186475
 20
166.123265
 30
0.0
 10
180.663254
 20
165.501944
 30
0.0
 10
180.963027
 20
164.778414
 30
0.0
 10
181.065156
 20
164.001942
 30
0.0
 10
180.963027
 20
163.225495
 30
0.0
 10
180.663254
 20
162.501966
 30
0.0
 10
180.186475
 20
161.880645
 30
0.0
 10
179.565233
 20
161.403866
 30
0.0
 10
178.841598
 20
161.104172
 30
0.0
 10
178.065046
 20
161.001963
 30
0.0
 10
177.288758
 20
161.104172
 30
0.0
 10
176.565123
 20
161.403866
 30
0.0
 10
175.943881
 20
161.880645
 30
0.0
 10
175.467102
 20
162.501966
 30
0.0
 10
175.167329
 20
163.225495
 30
0.0
 10
175.065200
 20
164.001942
 30
0.0
 10
175.167329
 20
164.778414
 30
0.0
 10
175.467102
 20
165.501944
 30
0.0
 10
175.943881
 20
166.123265
 30
0.0
  0
LWPOLYLINE
  5
12d
100
AcDbEntity
  8
Layer_1
 62
7
100
AcDbPolyline
 90
24
 70
1
 10
14.065185
 20
164.001942
 30
0.0
 10
14.167315
 20
164.778414
 30
0.0
 10
14.467087
 20
165.501944
 30
0.0
 10
14.943867
 20
166.123265
 30
0.0
 10
15.565108
 20
166.600018
 30
0.0
 10
16.288744
 20
166.899738
 30
0.0
 10
17.065031
 20
167.001946
 30
0.0
 10
17.841583
 20
166.899738
 30
0.0
 10
18.565219
 20
166.600018
 30
0.0
 10
19.186460
 20
166.123265
 30
0.0
 10
19.663239
 20
165.501944
 30
0.0
 10
19.963012
 20
164.778414
 30
0.0
 10
20.065142
 20
164.001942
 30
0.0
 10
19.963012
 20
163.225495
 30
0.0
 10
19.663239
 20
162.501966
 30
0.0
 10
19.186460
 20
161.880645
 30
0.0
 10
18.565219
 20
161.403866
 30
0.0
 10
17.841583
 20
161.104172
 30
0.0
 10
17.065031
 20
161.001963
 30
0.0
 10
16.288744
 20
161.104172
 30
0.0
 10
15.565108
 20
161.403866
 30
0.0
 10
14.943867
 20
161.880645
 30
0.0
 10
14.467087
 20
162.501966
 30
0.0
 10
14.167315
 20
163.225495
 30
0.0
  0
LWPOLYLINE
  5
12e
100
AcDbEntity
  8
Layer_1
 62
7
100
AcDbPolyline
 90
24
 70
1
 10
19.963012
 20
279.225495
 30
0.0
 10
19.663239
 20
278.501952
 30
0.0
 10
19.186460
 20
277.880631
 30
0.0
 10
18.565219
 20
277.403875
 30
0.0
 10
17.841583
 20
277.104174
 30
0.0
 10
17.065031
 20
277.001952
 30
0.0
 10
16.288744
 20
277.104174
 30
0.0
 10
15.565108
 20
277.403875
 30
0.0
 10
14.943867
 20
277.880631
 30
0.0
 10
14.467087
 20
278.501952
 30
0.0
 10
14.167315
 20
279.225495
 30
0.0
 10
14.065185
 20
280.001951
 30
0.0
 10
14.167315
 20
280.778408
 30
0.0
 10
14.467087
 20
281.501951
 30
0.0
 10
14.943867
 20
282.123272
 30
0.0
 10
15.565108
 20
282.600027
 30
0.0
 10
16.288744
 20
282.899729
 30
0.0
 10
17.065031
 20
283.001953
 30
0.0
 10
17.841583
 20
282.899729
 30
0.0
 10
18.565219
 20
282.600027
 30
0.0
 10
19.186460
 20
282.123272
 30
0.0
 10
19.663239
 20
281.501951
 30
0.0
 10
19.963012
 20
280.778408
 30
0.0
 10
20.065142
 20
280.001951
 30
0.0
  0
LWPOLYLINE
  5
12f
100
AcDbEntity
  8
Layer_1
 62
7
100
AcDbPolyline
 90
2
 70
0
 10
198.954981
 20
279.175131
 30
0.0
 10
198.954981
 20
163.175122
 30
0.0
  0
LWPOLYLINE
  5
130
100
AcDbEntity
  8
Layer_1
 62
7
100
AcDbPolyline
 90
2
 70
0
 10
371.954908
 20
291.175131
 30
0.0
 10
210.954893
 20
291.175131
 30
0.0
  0
LWPOLYLINE
  5
131
100
AcDbEntity
  8
Layer_1
 62
7
100
AcDbPolyline
 90
2
 70
0
 10
383.955085
 20
163.175122
 30
0.0
 10
383.955085
 20
279.175131
 30
0.0
  0
LWPOLYLINE
  5
132
100
AcDbEntity
  8
Layer_1
 62
7
100
AcDbPolyline
 90
2
 70
0
 10
210.954893
 20
151.175130
 30
0.0
 10
371.954908
 20
151.175130
 30
0.0
  0
LWPOLYLINE
  5
133
100
AcDbEntity
  8
Layer_1
 62
7
100
AcDbPolyline
 90
13
 70
0
 10
210.954893
 20
291.175131
 30
0.0
 10
209.388560
 20
291.072470
 30
0.0
 10
207.849214
 20
290.766241
 30
0.0
 10
206.362785
 20
290.261686
 30
0.0
 10
204.954937
 20
289.567436
 30
0.0
 10
203.649747
 20
288.695371
 30
0.0
 10
202.469706
 20
287.660414
 30
0.0
 10
201.434656
 20
286.480269
 30
0.0
 10
200.562589
 20
285.175133
 30
0.0
 10
199.868322
 20
283.767332
 30
0.0
 10
199.363762
 20
282.280961
 30
0.0
 10
199.057639
 20
280.741446
 30
0.0
 10
198.954981
 20
279.175131
 30
0.0
  0
LWPOLYLINE
  5
134
100
AcDbEntity
  8
Layer_1
 62
7
100
AcDbPolyline
 90
14
 70
0
 10
371.954908
 20
291.175131
 30
0.0
 10
373.401385
 20
291.087639
 30
0.0
 10
374.826695
 20
290.826434
 30
0.0
 10
376.210201
 20
290.395327
 30
0.0
 10
377.531795
 20
289.800605
 30
0.0
 10
378.771897
 20
289.050940
 30
0.0
 10
379.912516
 20
288.157262
 30
0.0
 10
380.937247
 20
287.132605
 30
0.0
 10
381.830745
 20
285.991909
 30
0.0
 10
382.580574
 20
284.751810
 30
0.0
 10
383.175093
 20
283.430391
 30
0.0
 10
383.606364
 20
282.046919
 30
0.0
 10
383.867508
 20
280.621571
 30
0.0
 10
383.955085
 20
279.175131
 30
0.0
  0
LWPOLYLINE
  5
135
100
AcDbEntity
  8
Layer_1
 62
7
100
AcDbPolyline
 90
13
 70
0
 10
371.954908
 20
151.175130
 30
0.0
 10
373.521241
 20
151.277788
 30
0.0
 10
375.060851
 20
151.584017
 30
0.0
 10
376.547281
 20
152.088577
 30
0.0
 10
377.955128
 20
152.782817
 30
0.0
 10
379.260053
 20
153.654884
 30
0.0
 10
380.440360
 20
154.689855
 30
0.0
 10
381.475145
 20
155.870002
 30
0.0
 10
382.347212
 20
157.175139
 30
0.0
 10
383.041478
 20
158.582934
 30
0.0
 10
383.546039
 20
160.069310
 30
0.0
 10
383.852426
 20
161.608815
 30
0.0
 10
383.955085
 20
163.175122
 30
0.0
  0
LWPOLYLINE
  5
136
100
AcDbEntity
  8
Layer_1
 62
7
100
AcDbPolyline
 90
13
 70
0
 10
210.954893
 20
151.175130
 30
0.0
 10
209.388560
 20
151.277788
 30
0.0
 10
207.849214
 20
151.584017
 30
0.0
 10
206.362785
 20
152.088577
 30
0.0
 10
204.954937
 20
152.782817
 30
0.0
 10
203.649747
 20
153.654884
 30
0.0
 10
202.469706
 20
154.689855
 30
0.0
 10
201.434656
 20
155.870002
 30
0.0
 10
200.562589
 20
157.175139
 30
0.0
 10
199.868322
 20
158.582934
 30
0.0
 10
199.363762
 20
160.069310
 30
0.0
 10
199.057639
 20
161.608815
 30
0.0
 10
198.954981
 20
163.175122
 30
0.0
  0
LWPOLYLINE
  5
137
100
AcDbEntity
  8
Layer_1
 62
7
100
AcDbPolyline
 90
2
 70
0
 10
216.955114
 20
267.175132
 30
0.0
 10
216.955114
 20
175.175140
 30
0.0
  0
LWPOLYLINE
  5
138
100
AcDbEntity
  8
Layer_1
 62
7
100
AcDbPolyline
 90
2
 70
0
 10
359.954995
 20
169.175131
 30
0.0
 10
222.955070
 20
169.175131
 30
0.0
  0
LWPOLYLINE
  5
139
100
AcDbEntity
  8
Layer_1
 62
7
100
AcDbPolyline
 90
2
 70
0
 10
365.954952
 20
267.175132
 30
0.0
 10
365.954952
 20
175.175140
 30
0.0
  0
LWPOLYLINE
  5
13a
100
AcDbEntity
  8
Layer_1
 62
7
100
AcDbPolyline
 90
2
 70
0
 10
359.954995
 20
273.175133
 30
0.0
 10
222.955070
 20
273.175133
 30
0.0
  0
LWPOLYLINE
  5
13b
100
AcDbEntity
  8
Layer_1
 62
7
100
AcDbPolyline
 90
13
 70
0
 10
216.955114
 20
175.175140
 30
0.0
 10
217.006443
 20
174.391973
 30
0.0
 10
217.159372
 20
173.622221
 30
0.0
 10
217.411785
 20
172.879033
 30
0.0
 10
217.758918
 20
172.175135
 30
0.0
 10
218.194951
 20
171.522567
 30
0.0
 10
218.712476
 20
170.932493
 30
0.0
 10
219.302497
 20
170.415021
 30
0.0
 10
219.954960
 20
169.978988
 30
0.0
 10
220.659016
 20
169.631854
 30
0.0
 10
221.401966
 20
169.379574
 30
0.0
 10
222.171903
 20
169.226460
 30
0.0
 10
222.955070
 20
169.175131
 30
0.0
  0
LWPOLYLINE
  5
13c
100
AcDbEntity
  8
Layer_1
 62
7
100
AcDbPolyline
 90
13
 70
0
 10
365.954952
 20
175.175140
 30
0.0
 10
365.903622
 20
174.391973
 30
0.0
 10
365.750429
 20
173.622221
 30
0.0
 10
365.498281
 20
172.879033
 30
0.0
 10
365.151147
 20
172.175135
 30
0.0
 10
364.715114
 20
171.522567
 30
0.0
 10
364.197589
 20
170.932493
 30
0.0
 10
363.607568
 20
170.415021
 30
0.0
 10
362.955106
 20
169.978988
 30
0.0
 10
362.251050
 20
169.631854
 30
0.0
 10
361.507835
 20
169.379574
 30
0.0
 10
360.738162
 20
169.226460
 30
0.0
 10
359.954995
 20
169.175131
 30
0.0
  0
LWPOLYLINE
  5
13d
100
AcDbEntity
  8
Layer_1
 62
7
100
AcDbPolyline
 90
13
 70
0
 10
365.954952
 20
267.175132
 30
0.0
 10
365.903622
 20
267.958291
 30
0.0
 10
365.750429
 20
268.728045
 30
0.0
 10
365.498281
 20
269.471234
 30
0.0
 10
365.151147
 20
270.175131
 30
0.0
 10
364.715114
 20
270.827702
 30
0.0
 10
364.197589
 20
271.417773
 30
0.0
 10
363.607568
 20
271.935253
 30
0.0
 10
362.955106
 20
272.371284
 30
0.0
 10
362.251050
 20
272.718409
 30
0.0
 10
361.507835
 20
272.970687
 30
0.0
 10
360.738162
 20
273.123801
 30
0.0
 10
359.954995
 20
273.175133
 30
0.0
  0
LWPOLYLINE
  5
13e
100
AcDbEntity
  8
Layer_1
 62
7
100
AcDbPolyline
 90
13
 70
0
 10
216.955114
 20
267.175132
 30
0.0
 10
217.006443
 20
267.958291
 30
0.0
 10
217.159372
 20
268.728045
 30
0.0
 10
217.411785
 20
269.471234
 30
0.0
 10
217.758918
 20
270.175131
 30
0.0
 10
218.194951
 20
270.827702
 30
0.0
 10
218.712476
 20
271.417773
 30
0.0
 10
219.302497
 20
271.935253
 30
0.0
 10
219.954960
 20
272.371284
 30
0.0
 10
220.659016
 20
272.718409
 30
0.0
 10
221.401966
 20
272.970687
 30
0.0
 10
222.171903
 20
273.123801
 30
0.0
 10
222.955070
 20
273.175133
 30
0.0
  0
LWPOLYLINE
  5
13f
100
AcDbEntity
  8
Layer_1
 62
7
100
AcDbPolyline
 90
24
 70
1
 10
207.955047
 20
163.175122
 30
0.0
 10
208.057176
 20
163.951594
 30
0.0
 10
208.356949
 20
164.675124
 30
0.0
 10
208.833729
 20
165.296445
 30
0.0
 10
209.454970
 20
165.773198
 30
0.0
 10
210.178606
 20
166.072918
 30
0.0
 10
210.954893
 20
166.175126
 30
0.0
 10
211.731445
 20
166.072918
 30
0.0
 10
212.455081
 20
165.773198
 30
0.0
 10
213.076322
 20
165.296445
 30
0.0
 10
213.553101
 20
164.675124
 30
0.0
 10
213.852874
 20
163.951594
 30
0.0
 10
213.955003
 20
163.175122
 30
0.0
 10
213.852874
 20
162.398675
 30
0.0
 10
213.553101
 20
161.675146
 30
0.0
 10
213.076322
 20
161.053825
 30
0.0
 10
212.455081
 20
160.577046
 30
0.0
 10
211.731445
 20
160.277352
 30
0.0
 10
210.954893
 20
160.175143
 30
0.0
 10
210.178606
 20
160.277352
 30
0.0
 10
209.454970
 20
160.577046
 30
0.0
 10
208.833729
 20
161.053825
 30
0.0
 10
208.356949
 20
161.675146
 30
0.0
 10
208.057176
 20
162.398675
 30
0.0
  0
LWPOLYLINE
  5
140
100
AcDbEntity
  8
Layer_1
 62
7
100
AcDbPolyline
 90
24
 70
1
 10
368.955062
 20
163.175122
 30
0.0
 10
369.057191
 20
163.951594
 30
0.0
 10
369.356964
 20
164.675124
 30
0.0
 10
369.833743
 20
165.296445
 30
0.0
 10
370.454985
 20
165.773198
 30
0.0
 10
371.178620
 20
166.072918
 30
0.0
 10
371.954908
 20
166.175126
 30
0.0
 10
372.731460
 20
166.072918
 30
0.0
 10
373.455095
 20
165.773198
 30
0.0
 10
374.076337
 20
165.296445
 30
0.0
 10
374.553116
 20
164.675124
 30
0.0
 10
374.852889
 20
163.951594
 30
0.0
 10
374.955018
 20
163.175122
 30
0.0
 10
374.852889
 20
162.398675
 30
0.0
 10
374.553116
 20
161.675146
 30
0.0
 10
374.076337
 20
161.053825
 30
0.0
 10
373.455095
 20
160.577046
 30
0.0
 10
372.731460
 20
160.277352
 30
0.0
 10
371.954908
 20
160.175143
 30
0.0
 10
371.178620
 20
160.277352
 30
0.0
 10
370.454985
 20
160.577046
 30
0.0
 10
369.833743
 20
161.053825
 30
0.0
 10
369.356964
 20
161.675146
 30
0.0
 10
369.057191
 20
162.398675
 30
0.0
  0
LWPOLYLINE
  5
141
100
AcDbEntity
  8
Layer_1
 62
7
100
AcDbPolyline
 90
7
 70
0
 10
373.965741
 20
281.401497
 30
0.0
 10
373.366195
 20
281.822539
 30
0.0
 10
372.682247
 20
282.085649
 30
0.0
 10
371.954908
 20
282.175133
 30
0.0
 10
371.227833
 20
282.085649
 30
0.0
 10
370.543885
 20
281.822539
 30
0.0
 10
369.944074
 20
281.401497
 30
0.0
  0
LWPOLYLINE
  5
142
100
AcDbEntity
  8
Layer_1
 62
7
100
AcDbPolyline
 90
5
 70
0
 10
373.965741
 20
281.401497
 30
0.0
 10
374.438551
 20
280.857969
 30
0.0
 10
374.768222
 20
280.217413
 30
0.0
 10
374.935439
 20
279.516756
 30
0.0
 10
374.930147
 20
278.796404
 30
0.0
  0
LWPOLYLINE
  5
143
100
AcDbEntity
  8
Layer_1
 62
7
100
AcDbPolyline
 90
14
 70
0
 10
374.930941
 20
278.796404
 30
0.0
 10
374.754993
 20
278.097888
 30
0.0
 10
374.417385
 20
277.461486
 30
0.0
 10
373.937960
 20
276.923890
 30
0.0
 10
373.343970
 20
276.516095
 30
0.0
 10
372.670076
 20
276.261619
 30
0.0
 10
371.954908
 20
276.175132
 30
0.0
 10
371.239739
 20
276.261619
 30
0.0
 10
370.565845
 20
276.516095
 30
0.0
 10
369.972120
 20
276.923890
 30
0.0
 10
369.492695
 20
277.461486
 30
0.0
 10
369.155087
 20
278.097888
 30
0.0
 10
368.978874
 20
278.796404
 30
0.0
 10
368.973583
 20
279.516756
 30
0.0
  0
LWPOLYLINE
  5
144
100
AcDbEntity
  8
Layer_1
 62
7
100
AcDbPolyline
 90
4
 70
0
 10
368.974641
 20
279.516756
 30
0.0
 10
369.141858
 20
280.217413
 30
0.0
 10
369.471529
 20
280.857969
 30
0.0
 10
369.944074
 20
281.401497
 30
0.0
  0
LWPOLYLINE
  5
145
100
AcDbEntity
  8
Layer_1
 62
7
100
AcDbPolyline
 90
25
 70
1
 10
212.965726
 20
281.401497
 30
0.0
 10
213.456264
 20
280.831487
 30
0.0
 10
213.789639
 20
280.157402
 30
0.0
 10
213.944949
 20
279.421599
 30
0.0
 10
213.912141
 20
278.670309
 30
0.0
 10
213.693860
 20
277.950738
 30
0.0
 10
213.303335
 20
277.308099
 30
0.0
 10
212.765172
 20
276.782774
 30
0.0
 10
212.113239
 20
276.407770
 30
0.0
 10
211.388810
 20
276.206649
 30
0.0
 10
210.636864
 20
276.192044
 30
0.0
 10
209.905026
 20
276.364886
 30
0.0
 10
209.239070
 20
276.714303
 30
0.0
 10
208.681064
 20
277.218342
 30
0.0
 10
208.265933
 20
277.845333
 30
0.0
 10
208.019606
 20
278.555879
 30
0.0
 10
207.957958
 20
279.305338
 30
0.0
 10
208.084429
 20
280.046613
 30
0.0
 10
208.391345
 20
280.733130
 30
0.0
 10
208.859393
 20
281.321754
 30
0.0
 10
209.458939
 20
281.775496
 30
0.0
 10
210.152676
 20
282.065850
 30
0.0
 10
210.896685
 20
282.174567
 30
0.0
 10
211.644397
 20
282.094819
 30
0.0
 10
212.348983
 20
281.831617
 30
0.0
  0
ENDSEC
  0
SECTION
  2
OBJECTS
  0
DICTIONARY
  5
C
330
0
100
AcDbDictionary
  3
ACAD_GROUP
350
D
  3
ACAD_MLINESTYLE
350
17
  0
DICTIONARY
  5
D
330
C
100
AcDbDictionary
  0
DICTIONARY
  5
1A
330
C
100
AcDbDictionary
  0
DICTIONARY
  5
17
330
C
100
AcDbDictionary
  3
STANDARD
350
18
  0
DICTIONARY
  5
19
330
C
100
AcDbDictionary
  0
ENDSEC
  0
EOF
