<?xml version="1.0" encoding="UTF-8" standalone="no"?>
<!-- Created with Inkscape (http://www.inkscape.org/) -->

<svg
   xmlns:dc="http://purl.org/dc/elements/1.1/"
   xmlns:cc="http://creativecommons.org/ns#"
   xmlns:rdf="http://www.w3.org/1999/02/22-rdf-syntax-ns#"
   xmlns:svg="http://www.w3.org/2000/svg"
   xmlns="http://www.w3.org/2000/svg"
   xmlns:sodipodi="http://sodipodi.sourceforge.net/DTD/sodipodi-0.dtd"
   xmlns:inkscape="http://www.inkscape.org/namespaces/inkscape"
   width="210mm"
   height="297mm"
   viewBox="0 0 210 297"
   version="1.1"
   id="svg7378"
   inkscape:version="0.92.2 5c3e80d, 2017-08-06"
   sodipodi:docname="plain.svg">
  <defs
     id="defs7372" />
  <sodipodi:namedview
     id="base"
     pagecolor="#ffffff"
     bordercolor="#666666"
     borderopacity="1.0"
     inkscape:pageopacity="0.0"
     inkscape:pageshadow="2"
     inkscape:zoom="0.2628418"
     inkscape:cx="787.77709"
     inkscape:cy="239.05098"
     inkscape:document-units="mm"
     inkscape:current-layer="layer1"
     showgrid="false"
     inkscape:window-width="1680"
     inkscape:window-height="962"
     inkscape:window-x="0"
     inkscape:window-y="1"
     inkscape:window-maximized="1" />
  <metadata
     id="metadata7375">
    <rdf:RDF>
      <cc:Work
         rdf:about="">
        <dc:format>image/svg+xml</dc:format>
        <dc:type
           rdf:resource="http://purl.org/dc/dcmitype/StillImage" />
        <dc:title></dc:title>
      </cc:Work>
    </rdf:RDF>
  </metadata>
  <g
     inkscape:label="Layer 1"
     inkscape:groupmode="layer"
     id="layer1">
    <path
       style="fill:#000000;stroke-width:0.26458335"
       d="m 548.64876,471.77658 c -19.91413,-56.26833 -36.55597,-103.19904 -36.98187,-104.29045 -3.00326,-7.69623 -8.47701,-15.93371 -13.85956,-20.85729 -7.39103,-6.76079 -15.77518,-10.31261 -25.50258,-10.80378 -5.92635,-0.29925 -10.41932,0.76689 -17.9663,4.26323 -12.23288,5.66721 -32.09839,18.38499 -38.51085,24.65446 -0.57582,0.56298 -18.55426,17.85757 -39.95209,38.43245 l -38.90514,37.40888 -0.0893,1.22028 c -0.33072,4.51734 3.44555,35.18141 10.03932,81.52136 l 2.1271,14.94896 -0.54344,1.12128 c -1.95606,4.03587 -23.96718,34.37265 -24.39164,33.61772 -0.10611,-0.18875 -11.16294,-19.86939 -24.57072,-43.73475 -13.40778,-23.86537 -24.48433,-43.49812 -24.61455,-43.62834 -0.13929,-0.13931 -4.62691,1.8098 -10.90092,4.73453 -5.86528,2.73423 -11.30713,5.25815 -12.09298,5.60874 l -1.42883,0.63744 0.39843,-0.60955 c 6.21905,-9.51465 13.70294,-21.48218 13.53248,-21.63987 -0.12394,-0.11465 -19.69205,-11.18947 -43.48471,-24.61073 -23.79266,-13.42122 -43.69595,-24.65988 -44.22954,-24.97473 l -0.97016,-0.57251 16.669,-12.19049 16.66901,-12.19049 2.29282,0.46852 c 13.30301,2.71849 71.66431,9.83184 96.43577,11.75401 l 2.06795,0.16047 33.38622,-33.18843 c 38.86009,-38.62991 41.37908,-41.18685 51.78739,-52.56772 13.04939,-14.26875 18.71413,-22.99536 20.47009,-31.53448 2.46241,-11.97449 -5.81113,-25.36717 -24.25689,-39.26553 -10.18716,-7.67573 -20.61313,-13.78171 -36.97166,-21.6525 -34.41214,-16.55715 -94.76729,-40.06097 -165.16119,-64.31792 l -12.09974,-4.16944 0.97397,-1.08491 c 4.55162,-5.0701 20.61035,-21.60527 21.99844,-22.65111 3.21383,-2.42141 7.50657,-4.25709 12.36995,-5.2897 3.23623,-0.68712 10.57459,-0.98966 13.86024,-0.57141 1.23692,0.15746 15.74337,2.13653 32.23653,4.39794 16.49317,2.26141 30.08765,4.11165 30.20995,4.11165 0.1223,0 6.39725,-6.04242 13.94432,-13.42761 19.47288,-19.05516 18.72072,-18.36162 21.29883,-19.63912 1.29289,-0.64065 2.93772,-1.21732 3.9828,-1.39633 6.36216,-1.08979 13.04449,3.83562 15.70601,11.5766 0.58656,1.70601 0.73069,2.60432 0.74289,4.63021 0.0133,2.20782 -0.0713,2.69053 -0.69555,3.96875 -0.46513,0.9524 -3.35981,4.51776 -8.3777,10.31875 -6.08336,7.03275 -7.57609,8.90168 -7.22681,9.04818 0.47898,0.2009 61.91989,11.57077 63.03254,11.6644 0.59344,0.0499 2.21001,-1.72522 12.71805,-13.96571 12.09397,-14.08789 14.90573,-17.07761 18.34367,-19.50471 7.87418,-5.55898 15.84761,-5.6069 20.64384,-0.12408 4.21336,4.81651 5.01857,12.24811 1.97583,18.23583 -0.44743,0.88053 -3.92083,5.54276 -7.71861,10.3605 -3.79777,4.81775 -7.0226,8.91125 -7.16624,9.09667 -0.14364,0.18542 -0.21444,0.38338 -0.15732,0.43991 0.0571,0.0565 21.68755,2.91839 48.06762,6.35968 l 47.96378,6.25689 1.66833,-1.53743 c 0.9176,-0.84558 7.43265,-7.07618 14.47789,-13.84576 41.42389,-39.80303 58.38783,-55.13088 73.98187,-66.846662 15.70832,-11.801627 26.87474,-16.917358 35.79749,-16.400078 8.03956,0.466078 15.59759,6.099921 17.91489,13.353961 3.67985,11.519299 -4.82399,28.112889 -28.58733,55.782699 -11.30747,13.16629 -25.29599,28.14907 -52.94972,56.71321 -6.2693,6.47568 -12.44732,12.86744 -13.72896,14.20391 l -2.33027,2.42995 6.83221,49.49454 c 3.75774,27.22199 6.92232,49.49453 7.03244,49.49453 0.11012,0 4.93292,-3.94205 10.71732,-8.76011 5.78442,-4.81806 11.08067,-9.04577 11.76946,-9.39491 4.85034,-2.45867 10.80262,-1.58579 14.57211,2.13694 5.86904,5.79622 4.4817,15.28554 -3.47173,23.74636 -0.97316,1.03524 -8.07969,7.84017 -15.79229,15.12209 -7.71261,7.28191 -14.05999,13.44636 -14.10526,13.69877 -0.0959,0.53433 11.33171,64.31011 11.5665,64.55101 0.0866,0.0889 4.38423,-3.10036 9.55022,-7.08721 9.73074,-7.50972 11.9108,-8.90648 15.20298,-9.74053 7.01173,-1.77636 13.47026,2.06386 14.72705,8.75662 0.66173,3.52378 -0.18007,7.66631 -2.43374,11.97669 -2.448,4.68209 -3.68157,6.08229 -19.24907,21.84884 l -14.90385,15.0944 0.15153,2.33053 c 0.29945,4.60589 5.75217,37.8228 9.272,56.4833 1.96456,10.4152 1.20433,19.05355 -2.31801,26.33936 -1.63013,3.37179 -3.11087,5.44314 -5.51572,7.71564 -1.52429,1.44042 -18.87349,16.58999 -20.20046,17.63933 -0.55761,0.44095 -0.601,0.32072 -36.76579,-101.86459 z"
       id="path7461"
       inkscape:connector-curvature="0" />
  </g>
</svg>
