<?xml version="1.0" encoding="UTF-8" standalone="no"?>
<!-- Created with Inkscape (http://www.inkscape.org/) -->

<svg
   xmlns:dc="http://purl.org/dc/elements/1.1/"
   xmlns:cc="http://creativecommons.org/ns#"
   xmlns:rdf="http://www.w3.org/1999/02/22-rdf-syntax-ns#"
   xmlns:svg="http://www.w3.org/2000/svg"
   xmlns="http://www.w3.org/2000/svg"
   xmlns:sodipodi="http://sodipodi.sourceforge.net/DTD/sodipodi-0.dtd"
   xmlns:inkscape="http://www.inkscape.org/namespaces/inkscape"
   width="210mm"
   height="297mm"
   viewBox="0 0 210 297"
   version="1.1"
   id="svg8928"
   inkscape:version="0.92.2 5c3e80d, 2017-08-06"
   sodipodi:docname="plug.svg">
  <defs
     id="defs8922">
    <style
       id="style2486"
       type="text/css" />
  </defs>
  <sodipodi:namedview
     id="base"
     pagecolor="#ffffff"
     bordercolor="#666666"
     borderopacity="1.0"
     inkscape:pageopacity="0.0"
     inkscape:pageshadow="2"
     inkscape:zoom="2.8284271"
     inkscape:cx="294.78529"
     inkscape:cy="257.8282"
     inkscape:document-units="mm"
     inkscape:current-layer="g9807"
     showgrid="false"
     inkscape:window-width="1680"
     inkscape:window-height="962"
     inkscape:window-x="256"
     inkscape:window-y="119"
     inkscape:window-maximized="0" />
  <metadata
     id="metadata8925">
    <rdf:RDF>
      <cc:Work
         rdf:about="">
        <dc:format>image/svg+xml</dc:format>
        <dc:type
           rdf:resource="http://purl.org/dc/dcmitype/StillImage" />
        <dc:title></dc:title>
      </cc:Work>
    </rdf:RDF>
  </metadata>
  <g
     inkscape:label="Layer 1"
     inkscape:groupmode="layer"
     id="layer1">
    <g
       style="fill-rule:evenodd"
       id="g9807"
       transform="matrix(0.66287878,0,0,0.66287878,26.460056,19.950696)">
      <path
         style="fill:#000000;stroke-width:0.39914286"
         d="m 46.855628,339.13383 c -1.56699,-0.41081 -3.78145,-1.2194 -4.92103,-1.79687 -1.52614,-0.77335 -2.20811,-0.93696 -2.58875,-0.62105 -0.38124,0.3164 -1.0752,0.13916 -2.64599,-0.6758 -1.70897,-0.88665 -2.70336,-1.1147 -5.03814,-1.1554 -1.59991,-0.0279 -3.45422,-0.27659 -4.1207,-0.55266 -0.66648,-0.27607 -1.3186,-0.39511 -1.44916,-0.26455 -0.28928,0.28928 -2.53102,-0.82473 -2.53102,-1.25778 0,-0.16999 0.22452,-0.5371 0.49893,-0.8158 0.5857,-0.59487 -0.41189,-1.56401 -3.43308,-3.33517 -1.02056,-0.5983 -1.85557,-1.36166 -1.85557,-1.69636 0,-0.90846 0.57361,-0.76279 3.79361,0.96342 l 2.93226,1.57196 0.56931,-0.87346 c 2.33291,-3.57926 2.30424,-3.6976 -1.40782,-5.81168 -2.10675,-1.19983 -2.68641,-1.92153 -2.05249,-2.55545 0.13342,-0.13342 1.66066,0.5102 3.39386,1.43026 3.20804,1.70297 3.50012,1.71123 4.06098,0.11484 0.17262,-0.49135 2.28115,0.92884 2.28115,1.53646 0,0.26695 0.46599,0.73475 1.03553,1.03956 0.56954,0.30481 1.45766,1.38724 1.9736,2.4054 1.3058,2.57687 2.80867,4.25725 4.64573,5.19445 1.22202,0.62342 1.51402,0.96743 1.32546,1.56153 -0.19311,0.60842 0.14451,0.95761 1.67542,1.73284 4.10959,2.08104 9.57016,2.89019 12.36878,1.8328 2.75542,-1.04107 4.89168,-4.38664 4.90672,-7.68435 0.0173,-3.79696 -2.4859,-6.39907 -6.73793,-7.00415 -1.49974,-0.21342 -1.85818,-0.42449 -1.96243,-1.15561 -0.1153,-0.80868 0.0379,-0.89413 1.59658,-0.8906 3.55257,0.008 7.62911,2.91038 8.71677,6.20602 1.07494,3.25707 -0.50583,8.35824 -3.36911,10.87223 -1.60012,1.40493 -4.76888,2.48662 -7.18849,2.45387 -0.89315,-0.0121 -2.90599,-0.35809 -4.47298,-0.7689 z m -12.31836,-20.1093 c -5.12849,-2.40339 -8.59804,-8.93785 -9.25261,-17.42611 -0.22641,-2.93603 -0.3138,-3.18454 -1.1199,-3.18454 -0.81904,0 -0.8745,-0.18299 -0.87694,-2.89378 -0.003,-3.10557 -0.87822,-5.7027 -2.74895,-8.15536 -0.69944,-0.91701 -0.96946,-1.77871 -0.96946,-3.0938 0,-1.35415 -0.15393,-1.82277 -0.59871,-1.82277 -0.4435,0 -0.59872,-0.46567 -0.59872,-1.79615 0,-1.72962 0.0443,-1.79614 1.19743,-1.79614 0.65859,0 1.21944,-0.13471 1.24634,-0.29936 0.0269,-0.16464 0.16161,-2.1853 0.29936,-4.49035 0.22955,-3.84143 0.31703,-4.191 1.04873,-4.191 0.7317,0 0.81917,0.34957 1.04873,4.191 0.13775,2.30505 0.27246,4.32571 0.29936,4.49035 0.0269,0.16465 1.48582,0.29936 3.24205,0.29936 h 3.19314 v -4.14213 c 0,-3.13957 0.14068,-4.25888 0.58123,-4.6245 1.0412,-0.86412 1.41449,-0.0322 1.41449,3.15229 0,4.72748 0.26008,5.61434 1.64646,5.61434 1.09395,0 1.14754,0.0839 1.14754,1.79614 0,0.98788 -0.17962,1.79615 -0.39914,1.79615 -0.21953,0 -0.39915,0.65783 -0.39915,1.46184 0,0.93796 -0.42192,2.11936 -1.17734,3.29658 -2.21474,3.45136 -2.96206,5.61163 -2.945,8.51308 0.0153,2.59474 -0.0201,2.69421 -0.95853,2.69421 -0.97194,0 -0.97372,0.008 -0.71065,3.09336 0.81356,9.54256 4.48713,15.25432 10.44935,16.2469 3.69641,0.61537 9.04739,-2.0872 10.36197,-5.23342 0.90079,-2.15591 0.70427,-6.10801 -0.40772,-8.19938 l -0.95449,-1.79515 1.10297,-0.65154 1.10298,-0.65154 1.08731,2.42285 c 2.98182,6.64439 -0.0281,13.74229 -6.66319,15.71269 -3.14979,0.93539 -7.28424,0.79282 -9.68894,-0.33412 z m -5.24409,-21.60851 c 0.19068,-0.49689 -0.24329,-0.59871 -2.55173,-0.59871 -2.20632,0 -2.78147,0.1238 -2.78147,0.59871 0,0.46976 0.54962,0.59872 2.55173,0.59872 1.89999,0 2.6104,-0.15292 2.78147,-0.59872 z m -1.04241,-1.36812 c 0.72273,-0.0232 0.89807,-0.25973 0.89807,-1.21133 0,-1.54296 1.4125,-5.285 2.85129,-7.55374 0.73923,-1.16564 1.14014,-2.33174 1.14014,-3.31624 v -1.51842 h -6.58586 -6.58586 l 0.002,1.49678 c 10e-4,0.99655 0.40233,2.09707 1.20042,3.29293 1.51247,2.2663 2.7893,5.62285 2.7893,7.33259 0,1.6507 0.0143,1.66283 1.86222,1.57721 0.84177,-0.039 1.93463,-0.0839 2.42857,-0.0998 z m 6.08693,-15.39588 v -1.397 h -7.78329 -7.78329 v 1.397 1.397 h 7.78329 7.78329 z m -11.65198,-8.68135 c -0.0675,-0.933 -0.30235,-1.69636 -0.52188,-1.69636 -0.21953,0 -0.45438,0.76336 -0.52188,1.69636 -0.0974,1.34612 0.0104,1.69635 0.52188,1.69635 0.51153,0 0.61927,-0.35023 0.52188,-1.69635 z m 8.78114,0 c -0.0675,-0.933 -0.30235,-1.69636 -0.52188,-1.69636 -0.21953,0 -0.45437,0.76336 -0.52188,1.69636 -0.0974,1.34612 0.0104,1.69635 0.52188,1.69635 0.51153,0 0.61928,-0.35023 0.52188,-1.69635 z"
         id="path10833"
         inkscape:connector-curvature="0"
         sodipodi:nodetypes="sccscssscsscccssscsssccsscscccccscssccssssccsccscscsssssccscscscccscccsssccscscccccscccccccccccccscsccscsc" />
    </g>
  </g>
</svg>
