 0
SECTION
 2
HEADER
 9
$ACADVER
 1
AC1006
 9
$LTSCALE
 40
1000.0
 0
ENDSEC
 0
SECTION
 2
TABLES
 0
TABLE
 2
LTYPE
 70
1
 0
LTYPE
 2
SKEMA_SOLID
 70
64
 3
Sketchup - Skema Ltype
 72
65
 73
0
 40
0.000000
 0
LTYPE
 2
SKEMA_DASHED
 70
64
 3
Sketchup - Skema Ltype
 72
65
 73
2
 40
0.1
 49
0.05
 49
-0.05
 0
LTYPE
 2
SKEMA_DOTTED
 70
64
 3
Sketchup - Skema Ltype
 72
65
 73
2
 40
00.1
 49
0.0
 49
-00.1
 0
ENDTAB
 0
TABLE
 2
LAYER
 70
6
 0
LAYER
 2
Layer0_S_
 70
64
 62
20
 6
SKEMA_SOLID
 0
ENDTAB
 0
TABLE
 2
STYLE
 70
0
 0
ENDTAB
 0
ENDSEC
 0
SECTION
 2
BLOCKS
 0
ENDSEC
 0
SECTION
 2
ENTITIES
 0
LINE
 8
Layer0_S_
10
2988.254094142958
20
-1.127986593019159e-14
30
0.0
11
2931.254094142958
21
-1.127986593019159e-14
31
0.0
 62
256
 0
LINE
 8
Layer0_S_
10
2827.254094142958
20
-1.127986593019159e-14
30
0.0
11
2825.6877798363175
21
0.10266166351426617
31
0.0
 62
256
 0
LINE
 8
Layer0_S_
10
2825.6877798363175
20
0.10266166351426617
30
0.0
11
2824.1482656017274
21
0.40889008453116976
31
0.0
 62
256
 0
LINE
 8
Layer0_S_
10
2824.1482656017274
20
0.40889008453116976
30
0.0
11
2822.661892954577
21
0.9134456098645543
31
0.0
 62
256
 0
LINE
 8
Layer0_S_
10
2822.661892954577
20
0.9134456098645543
30
0.0
11
2821.254094142958
21
1.6076951545867306
31
0.0
 62
256
 0
LINE
 8
Layer0_S_
10
2821.254094142958
20
1.6076951545867306
30
0.0
11
2819.9489569948532
21
2.4797599165051696
31
0.0
 62
256
 0
LINE
 8
Layer0_S_
10
2819.9489569948532
20
2.4797599165051696
30
0.0
11
2818.7688127687193
21
3.5147186257614202
31
0.0
 62
256
 0
LINE
 8
Layer0_S_
10
2818.7688127687193
20
3.5147186257614202
30
0.0
11
2817.7338540594633
21
4.694862851895346
31
0.0
 62
256
 0
LINE
 8
Layer0_S_
10
2817.7338540594633
20
4.694862851895346
30
0.0
11
2816.861789297545
21
5.999999999999989
31
0.0
 62
256
 0
LINE
 8
Layer0_S_
10
2816.861789297545
20
5.999999999999989
30
0.0
11
2816.1675397528224
21
7.40779881161891
31
0.0
 62
256
 0
LINE
 8
Layer0_S_
10
2816.1675397528224
20
7.40779881161891
30
0.0
11
2815.6629842274892
21
8.894171458769739
31
0.0
 62
256
 0
LINE
 8
Layer0_S_
10
2815.6629842274892
20
8.894171458769739
30
0.0
11
2815.3567558064724
21
10.433685693359374
31
0.0
 62
256
 0
LINE
 8
Layer0_S_
10
2815.3567558064724
20
10.433685693359374
30
0.0
11
2815.254094142958
21
11.99999999999999
31
0.0
 62
256
 0
LINE
 8
Layer0_S_
10
2815.254094142958
20
11.99999999999999
30
0.0
11
2815.254094142958
21
127.9999999999999
31
0.0
 62
256
 0
LINE
 8
Layer0_S_
10
2815.3567558064724
20
129.56631430664052
30
0.0
11
2815.254094142958
21
127.9999999999999
31
0.0
 62
256
 0
LINE
 8
Layer0_S_
10
2815.6629842274892
20
131.10582854123018
30
0.0
11
2815.3567558064724
21
129.56631430664052
31
0.0
 62
256
 0
LINE
 8
Layer0_S_
10
2816.1675397528224
20
132.59220118838098
30
0.0
11
2815.6629842274892
21
131.10582854123018
31
0.0
 62
256
 0
LINE
 8
Layer0_S_
10
2816.861789297545
20
133.99999999999994
30
0.0
11
2816.1675397528224
21
132.59220118838098
31
0.0
 62
256
 0
LINE
 8
Layer0_S_
10
2817.7338540594633
20
135.30513714810456
30
0.0
11
2816.861789297545
21
133.99999999999994
31
0.0
 62
256
 0
LINE
 8
Layer0_S_
10
2818.7688127687193
20
136.4852813742385
30
0.0
11
2817.7338540594633
21
135.30513714810456
31
0.0
 62
256
 0
LINE
 8
Layer0_S_
10
2819.9489569948532
20
137.52024008349474
30
0.0
11
2818.7688127687193
21
136.4852813742385
31
0.0
 62
256
 0
LINE
 8
Layer0_S_
10
2821.254094142958
20
138.3923048454132
30
0.0
11
2819.9489569948532
21
137.52024008349474
31
0.0
 62
256
 0
LINE
 8
Layer0_S_
10
2822.661892954577
20
139.08655439013535
30
0.0
11
2821.254094142958
21
138.3923048454132
31
0.0
 62
256
 0
LINE
 8
Layer0_S_
10
2824.1482656017274
20
139.5911099154687
30
0.0
11
2822.661892954577
21
139.08655439013535
31
0.0
 62
256
 0
LINE
 8
Layer0_S_
10
2825.6877798363175
20
139.89733833648563
30
0.0
11
2824.1482656017274
21
139.5911099154687
31
0.0
 62
256
 0
LINE
 8
Layer0_S_
10
2827.254094142958
20
139.99999999999991
30
0.0
11
2825.6877798363175
21
139.89733833648563
31
0.0
 62
256
 0
LINE
 8
Layer0_S_
10
2827.254094142958
20
139.99999999999991
30
0.0
11
2988.254094142958
21
139.99999999999991
31
0.0
 62
256
 0
LINE
 8
Layer0_S_
10
2988.254094142958
20
139.99999999999991
30
0.0
11
2989.8204084495987
21
139.89733833648563
31
0.0
 62
256
 0
LINE
 8
Layer0_S_
10
2989.8204084495987
20
139.89733833648563
30
0.0
11
2991.3599226841884
21
139.5911099154687
31
0.0
 62
256
 0
LINE
 8
Layer0_S_
10
2991.3599226841884
20
139.5911099154687
30
0.0
11
2992.8462953313388
21
139.08655439013535
31
0.0
 62
256
 0
LINE
 8
Layer0_S_
10
2992.8462953313388
20
139.08655439013535
30
0.0
11
2994.254094142958
21
138.3923048454132
31
0.0
 62
256
 0
LINE
 8
Layer0_S_
10
2994.254094142958
20
138.3923048454132
30
0.0
11
2995.5592312910626
21
137.52024008349474
31
0.0
 62
256
 0
LINE
 8
Layer0_S_
10
2995.5592312910626
20
137.52024008349474
30
0.0
11
2996.7393755171965
21
136.4852813742385
31
0.0
 62
256
 0
LINE
 8
Layer0_S_
10
2996.7393755171965
20
136.4852813742385
30
0.0
11
2997.7743342264525
21
135.30513714810456
31
0.0
 62
256
 0
LINE
 8
Layer0_S_
10
2997.7743342264525
20
135.30513714810456
30
0.0
11
2998.6463989883714
21
133.99999999999994
31
0.0
 62
256
 0
LINE
 8
Layer0_S_
10
2998.6463989883714
20
133.99999999999994
30
0.0
11
2999.3406485330934
21
132.59220118838098
31
0.0
 62
256
 0
LINE
 8
Layer0_S_
10
2999.3406485330934
20
132.59220118838098
30
0.0
11
2999.8452040584266
21
131.10582854123018
31
0.0
 62
256
 0
LINE
 8
Layer0_S_
10
2999.8452040584266
20
131.10582854123018
30
0.0
11
3000.151432479444
21
129.56631430664052
31
0.0
 62
256
 0
LINE
 8
Layer0_S_
10
3000.151432479444
20
129.56631430664052
30
0.0
11
3000.254094142958
21
127.9999999999999
31
0.0
 62
256
 0
LINE
 8
Layer0_S_
10
3000.254094142958
20
127.9999999999999
30
0.0
11
3000.254094142958
21
11.99999999999999
31
0.0
 62
256
 0
LINE
 8
Layer0_S_
10
3000.151432479444
20
10.433685693359374
30
0.0
11
3000.254094142958
21
11.99999999999999
31
0.0
 62
256
 0
LINE
 8
Layer0_S_
10
2999.8452040584266
20
8.894171458769739
30
0.0
11
3000.151432479444
21
10.433685693359374
31
0.0
 62
256
 0
LINE
 8
Layer0_S_
10
2999.3406485330934
20
7.40779881161891
30
0.0
11
2999.8452040584266
21
8.894171458769739
31
0.0
 62
256
 0
LINE
 8
Layer0_S_
10
2998.6463989883714
20
5.999999999999989
30
0.0
11
2999.3406485330934
21
7.40779881161891
31
0.0
 62
256
 0
LINE
 8
Layer0_S_
10
2997.7743342264525
20
4.694862851895334
30
0.0
11
2998.6463989883714
21
5.999999999999989
31
0.0
 62
256
 0
LINE
 8
Layer0_S_
10
2996.7393755171965
20
3.5147186257614202
30
0.0
11
2997.7743342264525
21
4.694862851895334
31
0.0
 62
256
 0
LINE
 8
Layer0_S_
10
2995.5592312910626
20
2.4797599165051696
30
0.0
11
2996.7393755171965
21
3.5147186257614202
31
0.0
 62
256
 0
LINE
 8
Layer0_S_
10
2994.254094142958
20
1.6076951545867193
30
0.0
11
2995.5592312910626
21
2.4797599165051696
31
0.0
 62
256
 0
LINE
 8
Layer0_S_
10
2992.8462953313388
20
0.9134456098645429
30
0.0
11
2994.254094142958
21
1.6076951545867193
31
0.0
 62
256
 0
LINE
 8
Layer0_S_
10
2991.3599226841884
20
0.40889008453116976
30
0.0
11
2992.8462953313388
21
0.9134456098645429
31
0.0
 62
256
 0
LINE
 8
Layer0_S_
10
2989.8204084495987
20
0.10266166351426617
30
0.0
11
2991.3599226841884
21
0.40889008453116976
31
0.0
 62
256
 0
LINE
 8
Layer0_S_
10
2988.254094142958
20
-1.127986593019159e-14
30
0.0
11
2989.8204084495987
21
0.10266166351426617
31
0.0
 62
256
 0
LINE
 8
Layer0_S_
10
2827.254094142958
20
130.9999999999999
30
0.0
11
2826.47763700765
21
130.8977774788671
31
0.0
 62
256
 0
LINE
 8
Layer0_S_
10
2826.47763700765
20
130.8977774788671
30
0.0
11
2825.754094142958
21
130.59807621135326
31
0.0
 62
256
 0
LINE
 8
Layer0_S_
10
2825.754094142958
20
130.59807621135326
30
0.0
11
2825.1327737993984
21
130.12132034355955
31
0.0
 62
256
 0
LINE
 8
Layer0_S_
10
2825.1327737993984
20
130.12132034355955
30
0.0
11
2824.6560179316043
21
129.49999999999991
31
0.0
 62
256
 0
LINE
 8
Layer0_S_
10
2824.6560179316043
20
129.49999999999991
30
0.0
11
2824.3563166640906
21
128.77645713530745
31
0.0
 62
256
 0
LINE
 8
Layer0_S_
10
2824.3563166640906
20
128.77645713530745
30
0.0
11
2824.254094142958
21
127.9999999999999
31
0.0
 62
256
 0
LINE
 8
Layer0_S_
10
2824.254094142958
20
127.9999999999999
30
0.0
11
2824.3563166640906
21
127.22354286469235
31
0.0
 62
256
 0
LINE
 8
Layer0_S_
10
2824.3563166640906
20
127.22354286469235
30
0.0
11
2824.6560179316043
21
126.49999999999993
31
0.0
 62
256
 0
LINE
 8
Layer0_S_
10
2824.6560179316043
20
126.49999999999993
30
0.0
11
2825.1327737993984
21
125.87867965644026
31
0.0
 62
256
 0
LINE
 8
Layer0_S_
10
2825.1327737993984
20
125.87867965644026
30
0.0
11
2825.754094142958
21
125.4019237886466
31
0.0
 62
256
 0
LINE
 8
Layer0_S_
10
2825.754094142958
20
125.4019237886466
30
0.0
11
2826.47763700765
21
125.1022225211327
31
0.0
 62
256
 0
LINE
 8
Layer0_S_
10
2826.47763700765
20
125.1022225211327
30
0.0
11
2827.254094142958
21
124.9999999999999
31
0.0
 62
256
 0
LINE
 8
Layer0_S_
10
2827.254094142958
20
124.9999999999999
30
0.0
11
2828.0305512782656
21
125.1022225211327
31
0.0
 62
256
 0
LINE
 8
Layer0_S_
10
2828.0305512782656
20
125.1022225211327
30
0.0
11
2828.754094142958
21
125.4019237886466
31
0.0
 62
256
 0
LINE
 8
Layer0_S_
10
2828.754094142958
20
125.4019237886466
30
0.0
11
2829.3754144865175
21
125.87867965644026
31
0.0
 62
256
 0
LINE
 8
Layer0_S_
10
2829.3754144865175
20
125.87867965644026
30
0.0
11
2829.852170354311
21
126.49999999999993
31
0.0
 62
256
 0
LINE
 8
Layer0_S_
10
2829.852170354311
20
126.49999999999993
30
0.0
11
2830.151871621825
21
127.22354286469235
31
0.0
 62
256
 0
LINE
 8
Layer0_S_
10
2830.151871621825
20
127.22354286469235
30
0.0
11
2830.254094142958
21
127.9999999999999
31
0.0
 62
256
 0
LINE
 8
Layer0_S_
10
2830.254094142958
20
127.9999999999999
30
0.0
11
2830.151871621825
21
128.77645713530745
31
0.0
 62
256
 0
LINE
 8
Layer0_S_
10
2830.151871621825
20
128.77645713530745
30
0.0
11
2829.852170354311
21
129.49999999999991
31
0.0
 62
256
 0
LINE
 8
Layer0_S_
10
2829.852170354311
20
129.49999999999991
30
0.0
11
2829.3754144865175
21
130.12132034355955
31
0.0
 62
256
 0
LINE
 8
Layer0_S_
10
2829.3754144865175
20
130.12132034355955
30
0.0
11
2828.754094142958
21
130.59807621135326
31
0.0
 62
256
 0
LINE
 8
Layer0_S_
10
2828.754094142958
20
130.59807621135326
30
0.0
11
2828.0305512782656
21
130.8977774788671
31
0.0
 62
256
 0
LINE
 8
Layer0_S_
10
2828.0305512782656
20
130.8977774788671
30
0.0
11
2827.254094142958
21
130.9999999999999
31
0.0
 62
256
 0
LINE
 8
Layer0_S_
10
2828.754094142958
20
14.598076211353312
30
0.0
11
2828.0305512782656
21
14.897777478867194
31
0.0
 62
256
 0
LINE
 8
Layer0_S_
10
2828.0305512782656
20
14.897777478867194
30
0.0
11
2827.254094142958
21
14.999999999999995
31
0.0
 62
256
 0
LINE
 8
Layer0_S_
10
2827.254094142958
20
14.999999999999995
30
0.0
11
2826.47763700765
21
14.897777478867194
31
0.0
 62
256
 0
LINE
 8
Layer0_S_
10
2826.47763700765
20
14.897777478867194
30
0.0
11
2825.754094142958
21
14.598076211353312
31
0.0
 62
256
 0
LINE
 8
Layer0_S_
10
2825.754094142958
20
14.598076211353312
30
0.0
11
2825.1327737993984
21
14.121320343559637
31
0.0
 62
256
 0
LINE
 8
Layer0_S_
10
2825.1327737993984
20
14.121320343559637
30
0.0
11
2824.6560179316043
21
13.499999999999986
31
0.0
 62
256
 0
LINE
 8
Layer0_S_
10
2824.6560179316043
20
13.499999999999986
30
0.0
11
2824.3563166640906
21
12.776457135307558
31
0.0
 62
256
 0
LINE
 8
Layer0_S_
10
2824.3563166640906
20
12.776457135307558
30
0.0
11
2824.254094142958
21
11.99999999999999
31
0.0
 62
256
 0
LINE
 8
Layer0_S_
10
2824.254094142958
20
11.99999999999999
30
0.0
11
2824.3563166640906
21
11.223542864692432
31
0.0
 62
256
 0
LINE
 8
Layer0_S_
10
2824.3563166640906
20
11.223542864692432
30
0.0
11
2824.6560179316043
21
10.499999999999993
31
0.0
 62
256
 0
LINE
 8
Layer0_S_
10
2824.6560179316043
20
10.499999999999993
30
0.0
11
2825.1327737993984
21
9.878679656440353
31
0.0
 62
256
 0
LINE
 8
Layer0_S_
10
2825.1327737993984
20
9.878679656440353
30
0.0
11
2825.754094142958
21
9.401923788646677
31
0.0
 62
256
 0
LINE
 8
Layer0_S_
10
2825.754094142958
20
9.401923788646677
30
0.0
11
2826.47763700765
21
9.102222521132784
31
0.0
 62
256
 0
LINE
 8
Layer0_S_
10
2826.47763700765
20
9.102222521132784
30
0.0
11
2827.254094142958
21
8.999999999999984
31
0.0
 62
256
 0
LINE
 8
Layer0_S_
10
2827.254094142958
20
8.999999999999984
30
0.0
11
2828.0305512782656
21
9.102222521132784
31
0.0
 62
256
 0
LINE
 8
Layer0_S_
10
2828.0305512782656
20
9.102222521132784
30
0.0
11
2828.754094142958
21
9.401923788646677
31
0.0
 62
256
 0
LINE
 8
Layer0_S_
10
2828.754094142958
20
9.401923788646677
30
0.0
11
2829.3754144865175
21
9.878679656440342
31
0.0
 62
256
 0
LINE
 8
Layer0_S_
10
2829.3754144865175
20
9.878679656440342
30
0.0
11
2829.852170354311
21
10.499999999999993
31
0.0
 62
256
 0
LINE
 8
Layer0_S_
10
2829.852170354311
20
10.499999999999993
30
0.0
11
2830.151871621825
21
11.223542864692421
31
0.0
 62
256
 0
LINE
 8
Layer0_S_
10
2830.151871621825
20
11.223542864692421
30
0.0
11
2830.254094142958
21
11.99999999999999
31
0.0
 62
256
 0
LINE
 8
Layer0_S_
10
2830.254094142958
20
11.99999999999999
30
0.0
11
2830.151871621825
21
12.776457135307558
31
0.0
 62
256
 0
LINE
 8
Layer0_S_
10
2830.151871621825
20
12.776457135307558
30
0.0
11
2829.852170354311
21
13.499999999999986
31
0.0
 62
256
 0
LINE
 8
Layer0_S_
10
2829.852170354311
20
13.499999999999986
30
0.0
11
2829.3754144865175
21
14.121320343559637
31
0.0
 62
256
 0
LINE
 8
Layer0_S_
10
2829.3754144865175
20
14.121320343559637
30
0.0
11
2828.754094142958
21
14.598076211353312
31
0.0
 62
256
 0
LINE
 8
Layer0_S_
10
2991.254094142958
20
11.99999999999999
30
0.0
11
2991.151871621825
21
12.776457135307547
31
0.0
 62
256
 0
LINE
 8
Layer0_S_
10
2991.151871621825
20
12.776457135307547
30
0.0
11
2990.8521703543115
21
13.499999999999986
31
0.0
 62
256
 0
LINE
 8
Layer0_S_
10
2990.8521703543115
20
13.499999999999986
30
0.0
11
2990.3754144865175
21
14.121320343559637
31
0.0
 62
256
 0
LINE
 8
Layer0_S_
10
2990.3754144865175
20
14.121320343559637
30
0.0
11
2989.754094142958
21
14.598076211353312
31
0.0
 62
256
 0
LINE
 8
Layer0_S_
10
2989.754094142958
20
14.598076211353312
30
0.0
11
2989.0305512782656
21
14.897777478867194
31
0.0
 62
256
 0
LINE
 8
Layer0_S_
10
2989.0305512782656
20
14.897777478867194
30
0.0
11
2988.254094142958
21
14.999999999999984
31
0.0
 62
256
 0
LINE
 8
Layer0_S_
10
2988.254094142958
20
14.999999999999984
30
0.0
11
2987.4776370076506
21
14.897777478867194
31
0.0
 62
256
 0
LINE
 8
Layer0_S_
10
2987.4776370076506
20
14.897777478867194
30
0.0
11
2986.754094142958
21
14.598076211353312
31
0.0
 62
256
 0
LINE
 8
Layer0_S_
10
2986.754094142958
20
14.598076211353312
30
0.0
11
2986.1327737993984
21
14.121320343559637
31
0.0
 62
256
 0
LINE
 8
Layer0_S_
10
2986.1327737993984
20
14.121320343559637
30
0.0
11
2985.6560179316048
21
13.499999999999986
31
0.0
 62
256
 0
LINE
 8
Layer0_S_
10
2985.6560179316048
20
13.499999999999986
30
0.0
11
2985.3563166640906
21
12.776457135307547
31
0.0
 62
256
 0
LINE
 8
Layer0_S_
10
2985.3563166640906
20
12.776457135307547
30
0.0
11
2985.254094142958
21
11.99999999999999
31
0.0
 62
256
 0
LINE
 8
Layer0_S_
10
2985.254094142958
20
11.99999999999999
30
0.0
11
2985.3563166640906
21
11.223542864692432
31
0.0
 62
256
 0
LINE
 8
Layer0_S_
10
2985.3563166640906
20
11.223542864692432
30
0.0
11
2985.6560179316048
21
10.499999999999993
31
0.0
 62
256
 0
LINE
 8
Layer0_S_
10
2985.6560179316048
20
10.499999999999993
30
0.0
11
2986.1327737993984
21
9.878679656440353
31
0.0
 62
256
 0
LINE
 8
Layer0_S_
10
2986.1327737993984
20
9.878679656440353
30
0.0
11
2986.754094142958
21
9.401923788646677
31
0.0
 62
256
 0
LINE
 8
Layer0_S_
10
2986.754094142958
20
9.401923788646677
30
0.0
11
2987.4776370076506
21
9.102222521132784
31
0.0
 62
256
 0
LINE
 8
Layer0_S_
10
2987.4776370076506
20
9.102222521132784
30
0.0
11
2988.254094142958
21
8.999999999999995
31
0.0
 62
256
 0
LINE
 8
Layer0_S_
10
2988.254094142958
20
8.999999999999995
30
0.0
11
2989.0305512782656
21
9.102222521132784
31
0.0
 62
256
 0
LINE
 8
Layer0_S_
10
2989.0305512782656
20
9.102222521132784
30
0.0
11
2989.754094142958
21
9.401923788646677
31
0.0
 62
256
 0
LINE
 8
Layer0_S_
10
2989.754094142958
20
9.401923788646677
30
0.0
11
2990.3754144865175
21
9.878679656440353
31
0.0
 62
256
 0
LINE
 8
Layer0_S_
10
2990.3754144865175
20
9.878679656440353
30
0.0
11
2990.8521703543115
21
10.499999999999993
31
0.0
 62
256
 0
LINE
 8
Layer0_S_
10
2990.8521703543115
20
10.499999999999993
30
0.0
11
2991.151871621825
21
11.223542864692421
31
0.0
 62
256
 0
LINE
 8
Layer0_S_
10
2991.151871621825
20
11.223542864692421
30
0.0
11
2991.254094142958
21
11.99999999999999
31
0.0
 62
256
 0
LINE
 8
Layer0_S_
10
2985.3563166640906
20
127.22354286469235
30
0.0
11
2985.6560179316048
21
126.49999999999993
31
0.0
 62
256
 0
LINE
 8
Layer0_S_
10
2985.6560179316048
20
126.49999999999993
30
0.0
11
2986.1327737993984
21
125.87867965644026
31
0.0
 62
256
 0
LINE
 8
Layer0_S_
10
2986.1327737993984
20
125.87867965644026
30
0.0
11
2986.754094142958
21
125.4019237886466
31
0.0
 62
256
 0
LINE
 8
Layer0_S_
10
2986.754094142958
20
125.4019237886466
30
0.0
11
2987.4776370076506
21
125.1022225211327
31
0.0
 62
256
 0
LINE
 8
Layer0_S_
10
2987.4776370076506
20
125.1022225211327
30
0.0
11
2988.254094142958
21
124.9999999999999
31
0.0
 62
256
 0
LINE
 8
Layer0_S_
10
2988.254094142958
20
124.9999999999999
30
0.0
11
2989.0305512782656
21
125.1022225211327
31
0.0
 62
256
 0
LINE
 8
Layer0_S_
10
2989.0305512782656
20
125.1022225211327
30
0.0
11
2989.754094142958
21
125.4019237886466
31
0.0
 62
256
 0
LINE
 8
Layer0_S_
10
2989.754094142958
20
125.4019237886466
30
0.0
11
2990.3754144865175
21
125.87867965644026
31
0.0
 62
256
 0
LINE
 8
Layer0_S_
10
2990.3754144865175
20
125.87867965644026
30
0.0
11
2990.8521703543115
21
126.49999999999993
31
0.0
 62
256
 0
LINE
 8
Layer0_S_
10
2990.8521703543115
20
126.49999999999993
30
0.0
11
2991.151871621825
21
127.22354286469235
31
0.0
 62
256
 0
LINE
 8
Layer0_S_
10
2991.151871621825
20
127.22354286469235
30
0.0
11
2991.254094142958
21
127.9999999999999
31
0.0
 62
256
 0
LINE
 8
Layer0_S_
10
2991.254094142958
20
127.9999999999999
30
0.0
11
2991.151871621825
21
128.77645713530745
31
0.0
 62
256
 0
LINE
 8
Layer0_S_
10
2991.151871621825
20
128.77645713530745
30
0.0
11
2990.8521703543115
21
129.49999999999991
31
0.0
 62
256
 0
LINE
 8
Layer0_S_
10
2990.8521703543115
20
129.49999999999991
30
0.0
11
2990.3754144865175
21
130.12132034355955
31
0.0
 62
256
 0
LINE
 8
Layer0_S_
10
2990.3754144865175
20
130.12132034355955
30
0.0
11
2989.754094142958
21
130.5980762113532
31
0.0
 62
256
 0
LINE
 8
Layer0_S_
10
2989.754094142958
20
130.5980762113532
30
0.0
11
2989.0305512782656
21
130.8977774788671
31
0.0
 62
256
 0
LINE
 8
Layer0_S_
10
2989.0305512782656
20
130.8977774788671
30
0.0
11
2988.254094142958
21
130.9999999999999
31
0.0
 62
256
 0
LINE
 8
Layer0_S_
10
2988.254094142958
20
130.9999999999999
30
0.0
11
2987.4776370076506
21
130.8977774788671
31
0.0
 62
256
 0
LINE
 8
Layer0_S_
10
2987.4776370076506
20
130.8977774788671
30
0.0
11
2986.754094142958
21
130.59807621135326
31
0.0
 62
256
 0
LINE
 8
Layer0_S_
10
2986.754094142958
20
130.59807621135326
30
0.0
11
2986.1327737993984
21
130.12132034355955
31
0.0
 62
256
 0
LINE
 8
Layer0_S_
10
2986.1327737993984
20
130.12132034355955
30
0.0
11
2985.6560179316048
21
129.49999999999991
31
0.0
 62
256
 0
LINE
 8
Layer0_S_
10
2985.6560179316048
20
129.49999999999991
30
0.0
11
2985.3563166640906
21
128.77645713530745
31
0.0
 62
256
 0
LINE
 8
Layer0_S_
10
2985.3563166640906
20
128.77645713530745
30
0.0
11
2985.254094142958
21
127.9999999999999
31
0.0
 62
256
 0
LINE
 8
Layer0_S_
10
2985.254094142958
20
127.9999999999999
30
0.0
11
2985.3563166640906
21
127.22354286469235
31
0.0
 62
256
 0
LINE
 8
Layer0_S_
10
2931.211318449827
20
0.6526309611002535
30
0.0
11
2931.254094142958
21
-1.127986593019159e-14
31
0.0
 62
256
 0
LINE
 8
Layer0_S_
10
2931.0837232744034
20
1.2940952255125913
30
0.0
11
2931.211318449827
21
0.6526309611002535
31
0.0
 62
256
 0
LINE
 8
Layer0_S_
10
2930.8734918055143
20
1.9134171618254374
30
0.0
11
2931.0837232744034
21
1.2940952255125913
31
0.0
 62
256
 0
LINE
 8
Layer0_S_
10
2930.58422116188
20
2.4999999999999956
30
0.0
11
2930.8734918055143
21
1.9134171618254374
31
0.0
 62
256
 0
LINE
 8
Layer0_S_
10
2930.220860844414
20
3.043807145043591
30
0.0
11
2930.58422116188
21
2.4999999999999956
31
0.0
 62
256
 0
LINE
 8
Layer0_S_
10
2929.789628048891
20
3.535533905932735
30
0.0
11
2930.220860844414
21
3.043807145043591
31
0.0
 62
256
 0
LINE
 8
Layer0_S_
10
2929.297901288002
20
3.966766701456174
30
0.0
11
2929.789628048891
21
3.535533905932735
31
0.0
 62
256
 0
LINE
 8
Layer0_S_
10
2928.754094142958
20
4.33012701892219
30
0.0
11
2929.297901288002
21
3.966766701456174
31
0.0
 62
256
 0
LINE
 8
Layer0_S_
10
2928.167511304783
20
4.619397662556428
30
0.0
11
2928.754094142958
21
4.33012701892219
31
0.0
 62
256
 0
LINE
 8
Layer0_S_
10
2927.5481893684705
20
4.829629131445338
30
0.0
11
2928.167511304783
21
4.619397662556428
31
0.0
 62
256
 0
LINE
 8
Layer0_S_
10
2926.906725104058
20
4.957224306869051
30
0.0
11
2927.5481893684705
21
4.829629131445338
31
0.0
 62
256
 0
LINE
 8
Layer0_S_
10
2926.254094142958
20
5.000000000000002
30
0.0
11
2926.906725104058
21
4.957224306869051
31
0.0
 62
256
 0
LINE
 8
Layer0_S_
10
2844.254094142958
20
5.000000000000002
30
0.0
11
2843.6014631818575
21
4.957224306869051
31
0.0
 62
256
 0
LINE
 8
Layer0_S_
10
2843.6014631818575
20
4.957224306869051
30
0.0
11
2842.9599989174453
21
4.829629131445338
31
0.0
 62
256
 0
LINE
 8
Layer0_S_
10
2842.9599989174453
20
4.829629131445338
30
0.0
11
2842.3406769811327
21
4.619397662556428
31
0.0
 62
256
 0
LINE
 8
Layer0_S_
10
2842.3406769811327
20
4.619397662556428
30
0.0
11
2841.754094142958
21
4.33012701892219
31
0.0
 62
256
 0
LINE
 8
Layer0_S_
10
2841.754094142958
20
4.33012701892219
30
0.0
11
2841.2102869979144
21
3.966766701456174
31
0.0
 62
256
 0
LINE
 8
Layer0_S_
10
2841.2102869979144
20
3.966766701456174
30
0.0
11
2840.7185602370255
21
3.535533905932735
31
0.0
 62
256
 0
LINE
 8
Layer0_S_
10
2840.7185602370255
20
3.535533905932735
30
0.0
11
2840.2873274415015
21
3.0438071450436026
31
0.0
 62
256
 0
LINE
 8
Layer0_S_
10
2840.2873274415015
20
3.0438071450436026
30
0.0
11
2839.9239671240357
21
2.4999999999999956
31
0.0
 62
256
 0
LINE
 8
Layer0_S_
10
2839.9239671240357
20
2.4999999999999956
30
0.0
11
2839.6346964804015
21
1.9134171618254487
31
0.0
 62
256
 0
LINE
 8
Layer0_S_
10
2839.6346964804015
20
1.9134171618254487
30
0.0
11
2839.4244650115124
21
1.2940952255126026
31
0.0
 62
256
 0
LINE
 8
Layer0_S_
10
2839.4244650115124
20
1.2940952255126026
30
0.0
11
2839.296869836089
21
0.6526309611002535
31
0.0
 62
256
 0
LINE
 8
Layer0_S_
10
2839.296869836089
20
0.6526309611002535
30
0.0
11
2839.254094142958
21
0.0
31
0.0
 62
256
 0
LINE
 8
Layer0_S_
10
2839.254094142958
20
0.0
30
0.0
11
2827.254094142958
21
-1.127986593019159e-14
31
0.0
 62
256
 0
LINE
 8
Layer0_S_
10
2847.2659799251896
20
96.07999730980482
30
0.0
11
2854.254094142958
21
96.99999999999997
31
0.0
 62
256
 0
LINE
 8
Layer0_S_
10
2840.754094142958
20
93.38268590217982
30
0.0
11
2847.2659799251896
21
96.07999730980482
31
0.0
 62
256
 0
LINE
 8
Layer0_S_
10
2835.162211050921
20
89.09188309203675
30
0.0
11
2840.754094142958
21
93.38268590217982
31
0.0
 62
256
 0
LINE
 8
Layer0_S_
10
2830.8714082407782
20
83.49999999999997
30
0.0
11
2835.162211050921
21
89.09188309203675
31
0.0
 62
256
 0
LINE
 8
Layer0_S_
10
2828.174096833153
20
76.98811421776803
30
0.0
11
2830.8714082407782
21
83.49999999999997
31
0.0
 62
256
 0
LINE
 8
Layer0_S_
10
2827.254094142958
20
69.99999999999999
30
0.0
11
2828.174096833153
21
76.98811421776803
31
0.0
 62
256
 0
LINE
 8
Layer0_S_
10
2828.174096833153
20
63.011885782231914
30
0.0
11
2827.254094142958
21
69.99999999999999
31
0.0
 62
256
 0
LINE
 8
Layer0_S_
10
2830.8714082407782
20
56.49999999999998
30
0.0
11
2828.174096833153
21
63.011885782231914
31
0.0
 62
256
 0
LINE
 8
Layer0_S_
10
2835.162211050921
20
50.90811690796321
30
0.0
11
2830.8714082407782
21
56.49999999999998
31
0.0
 62
256
 0
LINE
 8
Layer0_S_
10
2840.754094142958
20
46.61731409782014
30
0.0
11
2835.162211050921
21
50.90811690796321
31
0.0
 62
256
 0
LINE
 8
Layer0_S_
10
2847.2659799251896
20
43.920002690195155
30
0.0
11
2840.754094142958
21
46.61731409782014
31
0.0
 62
256
 0
LINE
 8
Layer0_S_
10
2854.254094142958
20
43.0
30
0.0
11
2847.2659799251896
21
43.920002690195155
31
0.0
 62
256
 0
LINE
 8
Layer0_S_
10
2861.2422083607257
20
43.920002690195155
30
0.0
11
2854.254094142958
21
43.0
31
0.0
 62
256
 0
LINE
 8
Layer0_S_
10
2867.754094142958
20
46.617314097820156
30
0.0
11
2861.2422083607257
21
43.920002690195155
31
0.0
 62
256
 0
LINE
 8
Layer0_S_
10
2873.3459772349947
20
50.90811690796321
30
0.0
11
2867.754094142958
21
46.617314097820156
31
0.0
 62
256
 0
LINE
 8
Layer0_S_
10
2877.6367800451376
20
56.5
30
0.0
11
2873.3459772349947
21
50.90811690796321
31
0.0
 62
256
 0
LINE
 8
Layer0_S_
10
2880.3340914527626
20
63.01188578223193
30
0.0
11
2877.6367800451376
21
56.5
31
0.0
 62
256
 0
LINE
 8
Layer0_S_
10
2881.254094142958
20
69.99999999999999
30
0.0
11
2880.3340914527626
21
63.01188578223193
31
0.0
 62
256
 0
LINE
 8
Layer0_S_
10
2880.3340914527626
20
76.98811421776807
30
0.0
11
2881.254094142958
21
69.99999999999999
31
0.0
 62
256
 0
LINE
 8
Layer0_S_
10
2877.6367800451376
20
83.5
30
0.0
11
2880.3340914527626
21
76.98811421776807
31
0.0
 62
256
 0
LINE
 8
Layer0_S_
10
2873.3459772349947
20
89.09188309203675
30
0.0
11
2877.6367800451376
21
83.5
31
0.0
 62
256
 0
LINE
 8
Layer0_S_
10
2867.754094142958
20
93.38268590217983
30
0.0
11
2873.3459772349947
21
89.09188309203675
31
0.0
 62
256
 0
LINE
 8
Layer0_S_
10
2861.2422083607257
20
96.07999730980482
30
0.0
11
2867.754094142958
21
93.38268590217983
31
0.0
 62
256
 0
LINE
 8
Layer0_S_
10
2854.254094142958
20
96.99999999999997
30
0.0
11
2861.2422083607257
21
96.07999730980482
31
0.0
 62
256
 0
LINE
 8
Layer0_S_
10
2988.254094142958
20
69.99999999999999
30
0.0
11
2987.334091452763
21
63.01188578223193
31
0.0
 62
256
 0
LINE
 8
Layer0_S_
10
2987.334091452763
20
76.98811421776807
30
0.0
11
2988.254094142958
21
69.99999999999999
31
0.0
 62
256
 0
LINE
 8
Layer0_S_
10
2984.6367800451376
20
83.5
30
0.0
11
2987.334091452763
21
76.98811421776807
31
0.0
 62
256
 0
LINE
 8
Layer0_S_
10
2980.3459772349947
20
89.09188309203678
30
0.0
11
2984.6367800451376
21
83.5
31
0.0
 62
256
 0
LINE
 8
Layer0_S_
10
2974.754094142958
20
93.38268590217983
30
0.0
11
2980.3459772349947
21
89.09188309203678
31
0.0
 62
256
 0
LINE
 8
Layer0_S_
10
2968.242208360726
20
96.07999730980484
30
0.0
11
2974.754094142958
21
93.38268590217983
31
0.0
 62
256
 0
LINE
 8
Layer0_S_
10
2961.254094142958
20
96.99999999999999
30
0.0
11
2968.242208360726
21
96.07999730980484
31
0.0
 62
256
 0
LINE
 8
Layer0_S_
10
2954.26597992519
20
96.07999730980482
30
0.0
11
2961.254094142958
21
96.99999999999999
31
0.0
 62
256
 0
LINE
 8
Layer0_S_
10
2947.754094142958
20
93.38268590217982
30
0.0
11
2954.26597992519
21
96.07999730980482
31
0.0
 62
256
 0
LINE
 8
Layer0_S_
10
2942.162211050921
20
89.09188309203675
30
0.0
11
2947.754094142958
21
93.38268590217982
31
0.0
 62
256
 0
LINE
 8
Layer0_S_
10
2937.871408240778
20
83.49999999999997
30
0.0
11
2942.162211050921
21
89.09188309203675
31
0.0
 62
256
 0
LINE
 8
Layer0_S_
10
2935.1740968331533
20
76.98811421776803
30
0.0
11
2937.871408240778
21
83.49999999999997
31
0.0
 62
256
 0
LINE
 8
Layer0_S_
10
2934.254094142958
20
69.99999999999999
30
0.0
11
2935.1740968331533
21
76.98811421776803
31
0.0
 62
256
 0
LINE
 8
Layer0_S_
10
2935.1740968331533
20
63.011885782231914
30
0.0
11
2934.254094142958
21
69.99999999999999
31
0.0
 62
256
 0
LINE
 8
Layer0_S_
10
2937.871408240778
20
56.49999999999998
30
0.0
11
2935.1740968331533
21
63.011885782231914
31
0.0
 62
256
 0
LINE
 8
Layer0_S_
10
2942.162211050921
20
50.90811690796321
30
0.0
11
2937.871408240778
21
56.49999999999998
31
0.0
 62
256
 0
LINE
 8
Layer0_S_
10
2947.754094142958
20
46.61731409782014
30
0.0
11
2942.162211050921
21
50.90811690796321
31
0.0
 62
256
 0
LINE
 8
Layer0_S_
10
2954.26597992519
20
43.920002690195155
30
0.0
11
2947.754094142958
21
46.61731409782014
31
0.0
 62
256
 0
LINE
 8
Layer0_S_
10
2961.254094142958
20
42.999999999999986
30
0.0
11
2954.26597992519
21
43.920002690195155
31
0.0
 62
256
 0
LINE
 8
Layer0_S_
10
2968.242208360726
20
43.920002690195155
30
0.0
11
2961.254094142958
21
42.999999999999986
31
0.0
 62
256
 0
LINE
 8
Layer0_S_
10
2974.754094142958
20
46.61731409782014
30
0.0
11
2968.242208360726
21
43.920002690195155
31
0.0
 62
256
 0
LINE
 8
Layer0_S_
10
2980.3459772349947
20
50.90811690796321
30
0.0
11
2974.754094142958
21
46.61731409782014
31
0.0
 62
256
 0
LINE
 8
Layer0_S_
10
2984.6367800451376
20
56.499999999999986
30
0.0
11
2980.3459772349947
21
50.90811690796321
31
0.0
 62
256
 0
LINE
 8
Layer0_S_
10
2987.334091452763
20
63.01188578223193
30
0.0
11
2984.6367800451376
21
56.499999999999986
31
0.0
 62
256
 0
LINE
 8
Layer0_S_
10
2844.254094142958
20
5.000000000000002
30
0.0
11
2926.254094142958
21
5.000000000000002
31
0.0
 62
256
 0
LINE
 8
Layer0_S_
10
2963.254094142958
20
67.78558728263614
30
0.0
11
2963.254094142958
21
50.26330499517478
31
0.0
 62
256
 0
LINE
 8
Layer0_S_
10
2967.9833893156233
20
95.11407148351577
30
0.0
11
2974.254094142958
21
92.51666049839542
31
0.0
 62
256
 0
LINE
 8
Layer0_S_
10
2979.638870453808
20
51.61522368914975
30
0.0
11
2974.254094142958
21
47.48333950160459
31
0.0
 62
256
 0
LINE
 8
Layer0_S_
10
2980.5726106687393
20
64.82361909794955
30
0.0
11
2980.9907891477833
21
67.99999999999999
31
0.0
 62
256
 0
LINE
 8
Layer0_S_
10
2961.254094142958
20
96.00000000000001
30
0.0
11
2967.9833893156233
21
95.11407148351577
31
0.0
 62
256
 0
LINE
 8
Layer0_S_
10
2986.368165626474
20
63.27070482733446
30
0.0
11
2983.7707546413535
21
56.999999999999986
31
0.0
 62
256
 0
LINE
 8
Layer0_S_
10
2983.7707546413535
20
56.999999999999986
30
0.0
11
2979.638870453808
21
51.61522368914975
31
0.0
 62
256
 0
LINE
 8
Layer0_S_
10
2938.7374336445623
20
56.999999999999986
30
0.0
11
2936.140022659442
21
63.27070482733444
31
0.0
 62
256
 0
LINE
 8
Layer0_S_
10
2936.140022659442
20
63.27070482733444
30
0.0
11
2935.254094142958
21
69.99999999999999
31
0.0
 62
256
 0
LINE
 8
Layer0_S_
10
2959.039681425594
20
67.99999999999999
30
0.0
11
2959.1327737993984
21
67.87867965644035
31
0.0
 62
256
 0
LINE
 8
Layer0_S_
10
2959.039681425594
20
67.99999999999999
30
0.0
11
2941.5173991381325
21
67.99999999999999
31
0.0
 62
256
 0
LINE
 8
Layer0_S_
10
2986.368165626474
20
76.72929517266556
30
0.0
11
2987.254094142958
21
69.99999999999999
31
0.0
 62
256
 0
LINE
 8
Layer0_S_
10
2963.4685068603217
20
67.99999999999999
30
0.0
11
2980.9907891477833
21
67.99999999999999
31
0.0
 62
256
 0
LINE
 8
Layer0_S_
10
2954.5247989702925
20
95.11407148351577
30
0.0
11
2961.254094142958
21
96.00000000000001
31
0.0
 62
256
 0
LINE
 8
Layer0_S_
10
2987.254094142958
20
69.99999999999999
30
0.0
11
2986.368165626474
21
63.27070482733446
31
0.0
 62
256
 0
LINE
 8
Layer0_S_
10
2983.7707546413535
20
83.0
30
0.0
11
2986.368165626474
21
76.72929517266556
31
0.0
 62
256
 0
LINE
 8
Layer0_S_
10
2941.9355776171765
20
64.82361909794957
30
0.0
11
2943.933586067269
21
60.0
31
0.0
 62
256
 0
LINE
 8
Layer0_S_
10
2936.140022659442
20
76.72929517266553
30
0.0
11
2938.7374336445623
21
82.99999999999999
31
0.0
 62
256
 0
LINE
 8
Layer0_S_
10
2938.7374336445623
20
82.99999999999999
30
0.0
11
2942.8693178321073
21
88.38477631085023
31
0.0
 62
256
 0
LINE
 8
Layer0_S_
10
2935.254094142958
20
69.99999999999999
30
0.0
11
2936.140022659442
21
76.72929517266553
31
0.0
 62
256
 0
LINE
 8
Layer0_S_
10
2963.3754144865175
20
67.87867965644034
30
0.0
11
2963.4685068603217
21
67.99999999999999
31
0.0
 62
256
 0
LINE
 8
Layer0_S_
10
2963.254094142958
20
67.78558728263614
30
0.0
11
2963.3754144865175
21
67.87867965644034
31
0.0
 62
256
 0
LINE
 8
Layer0_S_
10
2963.254094142958
20
72.21441271736383
30
0.0
11
2963.254094142958
21
89.7366950048252
31
0.0
 62
256
 0
LINE
 8
Layer0_S_
10
2963.3754144865175
20
72.12132034355963
30
0.0
11
2963.254094142958
21
72.21441271736383
31
0.0
 62
256
 0
LINE
 8
Layer0_S_
10
2963.4685068603217
20
71.99999999999999
30
0.0
11
2963.3754144865175
21
72.12132034355963
31
0.0
 62
256
 0
LINE
 8
Layer0_S_
10
2963.4685068603217
20
71.99999999999999
30
0.0
11
2980.9907891477833
21
71.99999999999999
31
0.0
 62
256
 0
LINE
 8
Layer0_S_
10
2980.9907891477833
20
71.99999999999999
30
0.0
11
2980.5726106687393
21
75.1763809020504
31
0.0
 62
256
 0
LINE
 8
Layer0_S_
10
2980.5726106687393
20
75.1763809020504
30
0.0
11
2978.5746022186468
21
79.99999999999999
31
0.0
 62
256
 0
LINE
 8
Layer0_S_
10
2978.5746022186468
20
79.99999999999999
30
0.0
11
2975.3962297666885
21
84.14213562373095
31
0.0
 62
256
 0
LINE
 8
Layer0_S_
10
2963.254094142958
20
50.26330499517478
30
0.0
11
2966.4304750450083
21
50.68148347421862
31
0.0
 62
256
 0
LINE
 8
Layer0_S_
10
2966.4304750450083
20
50.68148347421862
30
0.0
11
2971.254094142958
21
52.6794919243112
31
0.0
 62
256
 0
LINE
 8
Layer0_S_
10
2971.254094142958
20
52.6794919243112
30
0.0
11
2975.3962297666885
21
55.85786437626904
31
0.0
 62
256
 0
LINE
 8
Layer0_S_
10
2975.3962297666885
20
55.85786437626904
30
0.0
11
2978.5746022186468
21
59.99999999999998
31
0.0
 62
256
 0
LINE
 8
Layer0_S_
10
2978.5746022186468
20
59.99999999999998
30
0.0
11
2980.5726106687393
21
64.82361909794955
31
0.0
 62
256
 0
LINE
 8
Layer0_S_
10
2966.4304750450083
20
89.31851652578136
30
0.0
11
2963.254094142958
21
89.7366950048252
31
0.0
 62
256
 0
LINE
 8
Layer0_S_
10
2974.254094142958
20
92.51666049839542
30
0.0
11
2979.638870453808
21
88.38477631085026
31
0.0
 62
256
 0
LINE
 8
Layer0_S_
10
2979.638870453808
20
88.38477631085026
30
0.0
11
2983.7707546413535
21
83.0
31
0.0
 62
256
 0
LINE
 8
Layer0_S_
10
2974.254094142958
20
47.48333950160459
30
0.0
11
2967.9833893156233
21
44.88592851648421
31
0.0
 62
256
 0
LINE
 8
Layer0_S_
10
2967.9833893156233
20
44.88592851648421
30
0.0
11
2961.254094142958
21
43.999999999999986
31
0.0
 62
256
 0
LINE
 8
Layer0_S_
10
2961.254094142958
20
43.999999999999986
30
0.0
11
2954.5247989702925
21
44.88592851648421
31
0.0
 62
256
 0
LINE
 8
Layer0_S_
10
2954.5247989702925
20
44.88592851648421
30
0.0
11
2948.254094142958
21
47.483339501604576
31
0.0
 62
256
 0
LINE
 8
Layer0_S_
10
2948.254094142958
20
47.483339501604576
30
0.0
11
2942.8693178321073
21
51.61522368914975
31
0.0
 62
256
 0
LINE
 8
Layer0_S_
10
2942.8693178321073
20
51.61522368914975
30
0.0
11
2938.7374336445623
21
56.999999999999986
31
0.0
 62
256
 0
LINE
 8
Layer0_S_
10
2942.8693178321073
20
88.38477631085023
30
0.0
11
2948.254094142958
21
92.5166604983954
31
0.0
 62
256
 0
LINE
 8
Layer0_S_
10
2948.254094142958
20
92.5166604983954
30
0.0
11
2954.5247989702925
21
95.11407148351577
31
0.0
 62
256
 0
LINE
 8
Layer0_S_
10
2959.254094142958
20
72.21441271736383
30
0.0
11
2959.254094142958
21
89.7366950048252
31
0.0
 62
256
 0
LINE
 8
Layer0_S_
10
2959.254094142958
20
89.7366950048252
30
0.0
11
2956.0777132409075
21
89.31851652578136
31
0.0
 62
256
 0
LINE
 8
Layer0_S_
10
2956.0777132409075
20
89.31851652578136
30
0.0
11
2951.254094142958
21
87.32050807568876
31
0.0
 62
256
 0
LINE
 8
Layer0_S_
10
2951.254094142958
20
87.32050807568876
30
0.0
11
2947.111958519227
21
84.14213562373095
31
0.0
 62
256
 0
LINE
 8
Layer0_S_
10
2947.111958519227
20
84.14213562373095
30
0.0
11
2943.933586067269
21
79.99999999999999
31
0.0
 62
256
 0
LINE
 8
Layer0_S_
10
2943.933586067269
20
79.99999999999999
30
0.0
11
2941.9355776171765
21
75.17638090205041
31
0.0
 62
256
 0
LINE
 8
Layer0_S_
10
2941.9355776171765
20
75.17638090205041
30
0.0
11
2941.5173991381325
21
71.99999999999999
31
0.0
 62
256
 0
LINE
 8
Layer0_S_
10
2959.039681425594
20
71.99999999999999
30
0.0
11
2941.5173991381325
21
71.99999999999999
31
0.0
 62
256
 0
LINE
 8
Layer0_S_
10
2959.1327737993984
20
72.12132034355963
30
0.0
11
2959.039681425594
21
71.99999999999999
31
0.0
 62
256
 0
LINE
 8
Layer0_S_
10
2959.254094142958
20
72.21441271736383
30
0.0
11
2959.1327737993984
21
72.12132034355963
31
0.0
 62
256
 0
LINE
 8
Layer0_S_
10
2959.254094142958
20
67.78558728263617
30
0.0
11
2959.254094142958
21
50.26330499517478
31
0.0
 62
256
 0
LINE
 8
Layer0_S_
10
2959.1327737993984
20
67.87867965644035
30
0.0
11
2959.254094142958
21
67.78558728263617
31
0.0
 62
256
 0
LINE
 8
Layer0_S_
10
2941.5173991381325
20
67.99999999999999
30
0.0
11
2941.9355776171765
21
64.82361909794957
31
0.0
 62
256
 0
LINE
 8
Layer0_S_
10
2943.933586067269
20
60.0
30
0.0
11
2947.111958519227
21
55.85786437626904
31
0.0
 62
256
 0
LINE
 8
Layer0_S_
10
2947.111958519227
20
55.85786437626904
30
0.0
11
2951.254094142958
21
52.67949192431122
31
0.0
 62
256
 0
LINE
 8
Layer0_S_
10
2951.254094142958
20
52.67949192431122
30
0.0
11
2956.0777132409075
21
50.68148347421863
31
0.0
 62
256
 0
LINE
 8
Layer0_S_
10
2956.0777132409075
20
50.68148347421863
30
0.0
11
2959.254094142958
21
50.26330499517478
31
0.0
 62
256
 0
LINE
 8
Layer0_S_
10
2975.3962297666885
20
84.14213562373095
30
0.0
11
2971.254094142958
21
87.32050807568876
31
0.0
 62
256
 0
LINE
 8
Layer0_S_
10
2971.254094142958
20
87.32050807568876
30
0.0
11
2966.4304750450083
21
89.31851652578136
31
0.0
 62
256
 0
LINE
 8
Layer0_S_
10
2847.5247989702925
20
95.11407148351576
30
0.0
11
2854.254094142958
21
96.0
31
0.0
 62
256
 0
LINE
 8
Layer0_S_
10
2854.254094142958
20
96.0
30
0.0
11
2860.9833893156238
21
95.11407148351577
31
0.0
 62
256
 0
LINE
 8
Layer0_S_
10
2860.9833893156238
20
95.11407148351577
30
0.0
11
2867.254094142958
21
92.5166604983954
31
0.0
 62
256
 0
LINE
 8
Layer0_S_
10
2867.254094142958
20
92.5166604983954
30
0.0
11
2872.638870453808
21
88.38477631085023
31
0.0
 62
256
 0
LINE
 8
Layer0_S_
10
2872.638870453808
20
88.38477631085023
30
0.0
11
2876.770754641353
21
83.0
31
0.0
 62
256
 0
LINE
 8
Layer0_S_
10
2876.770754641353
20
83.0
30
0.0
11
2879.3681656264735
21
76.72929517266554
31
0.0
 62
256
 0
LINE
 8
Layer0_S_
10
2879.3681656264735
20
76.72929517266554
30
0.0
11
2880.254094142958
21
69.99999999999999
31
0.0
 62
256
 0
LINE
 8
Layer0_S_
10
2880.254094142958
20
69.99999999999999
30
0.0
11
2879.3681656264735
21
63.27070482733445
31
0.0
 62
256
 0
LINE
 8
Layer0_S_
10
2879.3681656264735
20
63.27070482733445
30
0.0
11
2876.770754641353
21
56.999999999999986
31
0.0
 62
256
 0
LINE
 8
Layer0_S_
10
2876.770754641353
20
56.999999999999986
30
0.0
11
2872.638870453808
21
51.61522368914975
31
0.0
 62
256
 0
LINE
 8
Layer0_S_
10
2872.638870453808
20
51.61522368914975
30
0.0
11
2867.254094142958
21
47.483339501604576
31
0.0
 62
256
 0
LINE
 8
Layer0_S_
10
2867.254094142958
20
47.483339501604576
30
0.0
11
2860.9833893156238
21
44.88592851648421
31
0.0
 62
256
 0
LINE
 8
Layer0_S_
10
2860.9833893156238
20
44.88592851648421
30
0.0
11
2854.254094142958
21
43.999999999999986
31
0.0
 62
256
 0
LINE
 8
Layer0_S_
10
2854.254094142958
20
43.999999999999986
30
0.0
11
2847.5247989702925
21
44.8859285164842
31
0.0
 62
256
 0
LINE
 8
Layer0_S_
10
2847.5247989702925
20
44.8859285164842
30
0.0
11
2841.254094142958
21
47.483339501604576
31
0.0
 62
256
 0
LINE
 8
Layer0_S_
10
2841.254094142958
20
47.483339501604576
30
0.0
11
2835.8693178321078
21
51.61522368914975
31
0.0
 62
256
 0
LINE
 8
Layer0_S_
10
2835.8693178321078
20
51.61522368914975
30
0.0
11
2831.7374336445623
21
56.99999999999997
31
0.0
 62
256
 0
LINE
 8
Layer0_S_
10
2831.7374336445623
20
56.99999999999997
30
0.0
11
2829.140022659442
21
63.27070482733444
31
0.0
 62
256
 0
LINE
 8
Layer0_S_
10
2829.140022659442
20
63.27070482733444
30
0.0
11
2828.254094142958
21
69.99999999999999
31
0.0
 62
256
 0
LINE
 8
Layer0_S_
10
2828.254094142958
20
69.99999999999999
30
0.0
11
2829.140022659442
21
76.72929517266552
31
0.0
 62
256
 0
LINE
 8
Layer0_S_
10
2829.140022659442
20
76.72929517266552
30
0.0
11
2831.7374336445623
21
82.99999999999999
31
0.0
 62
256
 0
LINE
 8
Layer0_S_
10
2831.7374336445623
20
82.99999999999999
30
0.0
11
2835.8693178321078
21
88.38477631085021
31
0.0
 62
256
 0
LINE
 8
Layer0_S_
10
2835.8693178321078
20
88.38477631085021
30
0.0
11
2841.254094142958
21
92.51666049839538
31
0.0
 62
256
 0
LINE
 8
Layer0_S_
10
2841.254094142958
20
92.51666049839538
30
0.0
11
2847.5247989702925
21
95.11407148351576
31
0.0
 62
256
 0
LINE
 8
Layer0_S_
10
2852.254094142958
20
72.21441271736381
30
0.0
11
2852.254094142958
21
89.7366950048252
31
0.0
 62
256
 0
LINE
 8
Layer0_S_
10
2852.254094142958
20
89.7366950048252
30
0.0
11
2849.0777132409075
21
89.31851652578135
31
0.0
 62
256
 0
LINE
 8
Layer0_S_
10
2849.0777132409075
20
89.31851652578135
30
0.0
11
2844.254094142958
21
87.32050807568875
31
0.0
 62
256
 0
LINE
 8
Layer0_S_
10
2844.254094142958
20
87.32050807568875
30
0.0
11
2840.111958519227
21
84.14213562373094
31
0.0
 62
256
 0
LINE
 8
Layer0_S_
10
2840.111958519227
20
84.14213562373094
30
0.0
11
2836.933586067269
21
79.99999999999999
31
0.0
 62
256
 0
LINE
 8
Layer0_S_
10
2836.933586067269
20
79.99999999999999
30
0.0
11
2834.9355776171765
21
75.17638090205041
31
0.0
 62
256
 0
LINE
 8
Layer0_S_
10
2834.9355776171765
20
75.17638090205041
30
0.0
11
2834.517399138133
21
71.99999999999999
31
0.0
 62
256
 0
LINE
 8
Layer0_S_
10
2852.039681425594
20
71.99999999999999
30
0.0
11
2834.517399138133
21
71.99999999999999
31
0.0
 62
256
 0
LINE
 8
Layer0_S_
10
2852.1327737993984
20
72.12132034355963
30
0.0
11
2852.039681425594
21
71.99999999999999
31
0.0
 62
256
 0
LINE
 8
Layer0_S_
10
2852.254094142958
20
72.21441271736381
30
0.0
11
2852.1327737993984
21
72.12132034355963
31
0.0
 62
256
 0
LINE
 8
Layer0_S_
10
2852.254094142958
20
67.78558728263617
30
0.0
11
2852.254094142958
21
50.26330499517478
31
0.0
 62
256
 0
LINE
 8
Layer0_S_
10
2852.1327737993984
20
67.87867965644035
30
0.0
11
2852.254094142958
21
67.78558728263617
31
0.0
 62
256
 0
LINE
 8
Layer0_S_
10
2852.039681425594
20
67.99999999999999
30
0.0
11
2852.1327737993984
21
67.87867965644035
31
0.0
 62
256
 0
LINE
 8
Layer0_S_
10
2852.039681425594
20
67.99999999999999
30
0.0
11
2834.517399138133
21
67.99999999999999
31
0.0
 62
256
 0
LINE
 8
Layer0_S_
10
2834.517399138133
20
67.99999999999999
30
0.0
11
2834.9355776171765
21
64.82361909794957
31
0.0
 62
256
 0
LINE
 8
Layer0_S_
10
2834.9355776171765
20
64.82361909794957
30
0.0
11
2836.933586067269
21
59.99999999999999
31
0.0
 62
256
 0
LINE
 8
Layer0_S_
10
2836.933586067269
20
59.99999999999999
30
0.0
11
2840.111958519227
21
55.85786437626904
31
0.0
 62
256
 0
LINE
 8
Layer0_S_
10
2840.111958519227
20
55.85786437626904
30
0.0
11
2844.254094142958
21
52.679491924311215
31
0.0
 62
256
 0
LINE
 8
Layer0_S_
10
2844.254094142958
20
52.679491924311215
30
0.0
11
2849.0777132409075
21
50.68148347421862
31
0.0
 62
256
 0
LINE
 8
Layer0_S_
10
2849.0777132409075
20
50.68148347421862
30
0.0
11
2852.254094142958
21
50.26330499517478
31
0.0
 62
256
 0
LINE
 8
Layer0_S_
10
2873.5726106687393
20
64.82361909794955
30
0.0
11
2873.9907891477833
21
67.99999999999999
31
0.0
 62
256
 0
LINE
 8
Layer0_S_
10
2856.4685068603217
20
67.99999999999999
30
0.0
11
2873.9907891477833
21
67.99999999999999
31
0.0
 62
256
 0
LINE
 8
Layer0_S_
10
2856.3754144865175
20
67.87867965644034
30
0.0
11
2856.4685068603217
21
67.99999999999999
31
0.0
 62
256
 0
LINE
 8
Layer0_S_
10
2856.254094142958
20
67.78558728263614
30
0.0
11
2856.3754144865175
21
67.87867965644034
31
0.0
 62
256
 0
LINE
 8
Layer0_S_
10
2856.254094142958
20
67.78558728263614
30
0.0
11
2856.254094142958
21
50.26330499517478
31
0.0
 62
256
 0
LINE
 8
Layer0_S_
10
2856.254094142958
20
50.26330499517478
30
0.0
11
2859.4304750450083
21
50.68148347421861
31
0.0
 62
256
 0
LINE
 8
Layer0_S_
10
2859.4304750450083
20
50.68148347421861
30
0.0
11
2864.254094142958
21
52.6794919243112
31
0.0
 62
256
 0
LINE
 8
Layer0_S_
10
2864.254094142958
20
52.6794919243112
30
0.0
11
2868.396229766689
21
55.857864376269035
31
0.0
 62
256
 0
LINE
 8
Layer0_S_
10
2868.396229766689
20
55.857864376269035
30
0.0
11
2871.5746022186463
21
59.99999999999997
31
0.0
 62
256
 0
LINE
 8
Layer0_S_
10
2871.5746022186463
20
59.99999999999997
30
0.0
11
2873.5726106687393
21
64.82361909794955
31
0.0
 62
256
 0
LINE
 8
Layer0_S_
10
2859.4304750450083
20
89.31851652578135
30
0.0
11
2856.254094142958
21
89.7366950048252
31
0.0
 62
256
 0
LINE
 8
Layer0_S_
10
2856.254094142958
20
72.21441271736383
30
0.0
11
2856.254094142958
21
89.7366950048252
31
0.0
 62
256
 0
LINE
 8
Layer0_S_
10
2856.3754144865175
20
72.12132034355963
30
0.0
11
2856.254094142958
21
72.21441271736383
31
0.0
 62
256
 0
LINE
 8
Layer0_S_
10
2856.4685068603217
20
71.99999999999999
30
0.0
11
2856.3754144865175
21
72.12132034355963
31
0.0
 62
256
 0
LINE
 8
Layer0_S_
10
2856.4685068603217
20
71.99999999999999
30
0.0
11
2873.9907891477833
21
71.99999999999999
31
0.0
 62
256
 0
LINE
 8
Layer0_S_
10
2873.9907891477833
20
71.99999999999999
30
0.0
11
2873.5726106687393
21
75.1763809020504
31
0.0
 62
256
 0
LINE
 8
Layer0_S_
10
2873.5726106687393
20
75.1763809020504
30
0.0
11
2871.5746022186468
21
79.99999999999999
31
0.0
 62
256
 0
LINE
 8
Layer0_S_
10
2871.5746022186468
20
79.99999999999999
30
0.0
11
2868.396229766689
21
84.14213562373094
31
0.0
 62
256
 0
LINE
 8
Layer0_S_
10
2868.396229766689
20
84.14213562373094
30
0.0
11
2864.254094142958
21
87.32050807568875
31
0.0
 62
256
 0
LINE
 8
Layer0_S_
10
2864.254094142958
20
87.32050807568875
30
0.0
11
2859.4304750450083
21
89.31851652578135
31
0.0
 62
256
 0
ENDSEC
 0
EOF
