 0
SECTION
 2
HEADER
 9
$ACADVER
 1
AC1006
 9
$LTSCALE
 40
1000.0
 0
ENDSEC
 0
SECTION
 2
TABLES
 0
TABLE
 2
LTYPE
 70
1
 0
LTYPE
 2
SKEMA_SOLID
 70
64
 3
Sketchup - Skema Ltype
 72
65
 73
0
 40
0.000000
 0
LTYPE
 2
SKEMA_DASHED
 70
64
 3
Sketchup - Skema Ltype
 72
65
 73
2
 40
0.1
 49
0.05
 49
-0.05
 0
LTYPE
 2
SKEMA_DOTTED
 70
64
 3
Sketchup - Skema Ltype
 72
65
 73
2
 40
00.1
 49
0.0
 49
-00.1
 0
ENDTAB
 0
TABLE
 2
LAYER
 70
6
 0
LAYER
 2
Layer0_S_
 70
64
 62
20
 6
SKEMA_SOLID
 0
ENDTAB
 0
TABLE
 2
STYLE
 70
0
 0
ENDTAB
 0
ENDSEC
 0
SECTION
 2
BLOCKS
 0
ENDSEC
 0
SECTION
 2
ENTITIES
 0
LINE
 8
Layer0_S_
10
2578.2540941429575
20
0.0
30
0.0
11
2739.254094142958
21
0.0
31
0.0
 62
256
 0
LINE
 8
Layer0_S_
10
2566.254094142958
20
127.99999999999993
30
0.0
11
2566.254094142958
21
12.0
31
0.0
 62
256
 0
LINE
 8
Layer0_S_
10
2739.254094142958
20
139.99999999999991
30
0.0
11
2578.2540941429575
21
139.99999999999991
31
0.0
 62
256
 0
LINE
 8
Layer0_S_
10
2751.2540941429575
20
12.0
30
0.0
11
2751.2540941429575
21
127.99999999999993
31
0.0
 62
256
 0
LINE
 8
Layer0_S_
10
2578.2540941429575
20
0.0
30
0.0
11
2576.687779836317
21
0.10266166351427745
31
0.0
 62
256
 0
LINE
 8
Layer0_S_
10
2576.687779836317
20
0.10266166351427745
30
0.0
11
2575.1482656017274
21
0.40889008453118103
31
0.0
 62
256
 0
LINE
 8
Layer0_S_
10
2575.1482656017274
20
0.40889008453118103
30
0.0
11
2573.6618929545766
21
0.9134456098645543
31
0.0
 62
256
 0
LINE
 8
Layer0_S_
10
2573.6618929545766
20
0.9134456098645543
30
0.0
11
2572.2540941429575
21
1.6076951545867417
31
0.0
 62
256
 0
LINE
 8
Layer0_S_
10
2572.2540941429575
20
1.6076951545867417
30
0.0
11
2570.9489569948532
21
2.4797599165051807
31
0.0
 62
256
 0
LINE
 8
Layer0_S_
10
2570.9489569948532
20
2.4797599165051807
30
0.0
11
2569.7688127687193
21
3.514718625761432
31
0.0
 62
256
 0
LINE
 8
Layer0_S_
10
2569.7688127687193
20
3.514718625761432
30
0.0
11
2568.733854059463
21
4.694862851895357
31
0.0
 62
256
 0
LINE
 8
Layer0_S_
10
2568.733854059463
20
4.694862851895357
30
0.0
11
2567.8617892975444
21
6.0
31
0.0
 62
256
 0
LINE
 8
Layer0_S_
10
2567.8617892975444
20
6.0
30
0.0
11
2567.167539752822
21
7.407798811618921
31
0.0
 62
256
 0
LINE
 8
Layer0_S_
10
2567.167539752822
20
7.407798811618921
30
0.0
11
2566.662984227489
21
8.89417145876975
31
0.0
 62
256
 0
LINE
 8
Layer0_S_
10
2566.662984227489
20
8.89417145876975
30
0.0
11
2566.356755806472
21
10.433685693359385
31
0.0
 62
256
 0
LINE
 8
Layer0_S_
10
2566.356755806472
20
10.433685693359385
30
0.0
11
2566.254094142958
21
12.0
31
0.0
 62
256
 0
LINE
 8
Layer0_S_
10
2578.2540941429575
20
139.99999999999991
30
0.0
11
2576.687779836317
21
139.89733833648563
31
0.0
 62
256
 0
LINE
 8
Layer0_S_
10
2576.687779836317
20
139.89733833648563
30
0.0
11
2575.1482656017274
21
139.5911099154687
31
0.0
 62
256
 0
LINE
 8
Layer0_S_
10
2575.1482656017274
20
139.5911099154687
30
0.0
11
2573.6618929545766
21
139.08655439013535
31
0.0
 62
256
 0
LINE
 8
Layer0_S_
10
2573.6618929545766
20
139.08655439013535
30
0.0
11
2572.2540941429575
21
138.3923048454132
31
0.0
 62
256
 0
LINE
 8
Layer0_S_
10
2572.2540941429575
20
138.3923048454132
30
0.0
11
2570.9489569948532
21
137.52024008349474
31
0.0
 62
256
 0
LINE
 8
Layer0_S_
10
2570.9489569948532
20
137.52024008349474
30
0.0
11
2569.7688127687193
21
136.4852813742385
31
0.0
 62
256
 0
LINE
 8
Layer0_S_
10
2569.7688127687193
20
136.4852813742385
30
0.0
11
2568.733854059463
21
135.30513714810456
31
0.0
 62
256
 0
LINE
 8
Layer0_S_
10
2568.733854059463
20
135.30513714810456
30
0.0
11
2567.8617892975444
21
133.99999999999994
31
0.0
 62
256
 0
LINE
 8
Layer0_S_
10
2567.8617892975444
20
133.99999999999994
30
0.0
11
2567.167539752822
21
132.592201188381
31
0.0
 62
256
 0
LINE
 8
Layer0_S_
10
2567.167539752822
20
132.592201188381
30
0.0
11
2566.662984227489
21
131.10582854123018
31
0.0
 62
256
 0
LINE
 8
Layer0_S_
10
2566.662984227489
20
131.10582854123018
30
0.0
11
2566.356755806472
21
129.56631430664052
31
0.0
 62
256
 0
LINE
 8
Layer0_S_
10
2566.356755806472
20
129.56631430664052
30
0.0
11
2566.254094142958
21
127.99999999999993
31
0.0
 62
256
 0
LINE
 8
Layer0_S_
10
2739.254094142958
20
139.99999999999991
30
0.0
11
2740.8204084495983
21
139.89733833648563
31
0.0
 62
256
 0
LINE
 8
Layer0_S_
10
2740.8204084495983
20
139.89733833648563
30
0.0
11
2742.359922684188
21
139.5911099154687
31
0.0
 62
256
 0
LINE
 8
Layer0_S_
10
2742.359922684188
20
139.5911099154687
30
0.0
11
2743.8462953313388
21
139.08655439013535
31
0.0
 62
256
 0
LINE
 8
Layer0_S_
10
2743.8462953313388
20
139.08655439013535
30
0.0
11
2745.2540941429575
21
138.3923048454132
31
0.0
 62
256
 0
LINE
 8
Layer0_S_
10
2745.2540941429575
20
138.3923048454132
30
0.0
11
2746.559231291062
21
137.52024008349474
31
0.0
 62
256
 0
LINE
 8
Layer0_S_
10
2746.559231291062
20
137.52024008349474
30
0.0
11
2747.739375517196
21
136.4852813742385
31
0.0
 62
256
 0
LINE
 8
Layer0_S_
10
2747.739375517196
20
136.4852813742385
30
0.0
11
2748.7743342264525
21
135.30513714810456
31
0.0
 62
256
 0
LINE
 8
Layer0_S_
10
2748.7743342264525
20
135.30513714810456
30
0.0
11
2749.646398988371
21
133.99999999999994
31
0.0
 62
256
 0
LINE
 8
Layer0_S_
10
2749.646398988371
20
133.99999999999994
30
0.0
11
2750.3406485330934
21
132.592201188381
31
0.0
 62
256
 0
LINE
 8
Layer0_S_
10
2750.3406485330934
20
132.592201188381
30
0.0
11
2750.8452040584266
21
131.10582854123018
31
0.0
 62
256
 0
LINE
 8
Layer0_S_
10
2750.8452040584266
20
131.10582854123018
30
0.0
11
2751.1514324794434
21
129.56631430664052
31
0.0
 62
256
 0
LINE
 8
Layer0_S_
10
2751.1514324794434
20
129.56631430664052
30
0.0
11
2751.2540941429575
21
127.99999999999993
31
0.0
 62
256
 0
LINE
 8
Layer0_S_
10
2739.254094142958
20
0.0
30
0.0
11
2740.8204084495983
21
0.10266166351427745
31
0.0
 62
256
 0
LINE
 8
Layer0_S_
10
2740.8204084495983
20
0.10266166351427745
30
0.0
11
2742.359922684188
21
0.40889008453118103
31
0.0
 62
256
 0
LINE
 8
Layer0_S_
10
2742.359922684188
20
0.40889008453118103
30
0.0
11
2743.8462953313388
21
0.9134456098645543
31
0.0
 62
256
 0
LINE
 8
Layer0_S_
10
2743.8462953313388
20
0.9134456098645543
30
0.0
11
2745.2540941429575
21
1.6076951545867417
31
0.0
 62
256
 0
LINE
 8
Layer0_S_
10
2745.2540941429575
20
1.6076951545867417
30
0.0
11
2746.559231291062
21
2.4797599165051807
31
0.0
 62
256
 0
LINE
 8
Layer0_S_
10
2746.559231291062
20
2.4797599165051807
30
0.0
11
2747.739375517196
21
3.514718625761432
31
0.0
 62
256
 0
LINE
 8
Layer0_S_
10
2747.739375517196
20
3.514718625761432
30
0.0
11
2748.7743342264525
21
4.694862851895357
31
0.0
 62
256
 0
LINE
 8
Layer0_S_
10
2748.7743342264525
20
4.694862851895357
30
0.0
11
2749.646398988371
21
6.0
31
0.0
 62
256
 0
LINE
 8
Layer0_S_
10
2749.646398988371
20
6.0
30
0.0
11
2750.3406485330934
21
7.407798811618921
31
0.0
 62
256
 0
LINE
 8
Layer0_S_
10
2750.3406485330934
20
7.407798811618921
30
0.0
11
2750.8452040584266
21
8.89417145876975
31
0.0
 62
256
 0
LINE
 8
Layer0_S_
10
2750.8452040584266
20
8.89417145876975
30
0.0
11
2751.1514324794434
21
10.433685693359385
31
0.0
 62
256
 0
LINE
 8
Layer0_S_
10
2751.1514324794434
20
10.433685693359385
30
0.0
11
2751.2540941429575
21
12.0
31
0.0
 62
256
 0
LINE
 8
Layer0_S_
10
2739.254094142958
20
130.99999999999991
30
0.0
11
2740.030551278265
21
130.89777747886714
31
0.0
 62
256
 0
LINE
 8
Layer0_S_
10
2740.030551278265
20
130.89777747886714
30
0.0
11
2740.754094142958
21
130.59807621135326
31
0.0
 62
256
 0
LINE
 8
Layer0_S_
10
2740.754094142958
20
130.59807621135326
30
0.0
11
2741.3754144865175
21
130.12132034355955
31
0.0
 62
256
 0
LINE
 8
Layer0_S_
10
2741.3754144865175
20
130.12132034355955
30
0.0
11
2741.852170354311
21
129.49999999999991
31
0.0
 62
256
 0
LINE
 8
Layer0_S_
10
2741.852170354311
20
129.49999999999991
30
0.0
11
2742.1518716218247
21
128.77645713530748
31
0.0
 62
256
 0
LINE
 8
Layer0_S_
10
2742.1518716218247
20
128.77645713530748
30
0.0
11
2742.2540941429575
21
127.99999999999993
31
0.0
 62
256
 0
LINE
 8
Layer0_S_
10
2742.2540941429575
20
127.99999999999993
30
0.0
11
2742.1518716218247
21
127.22354286469236
31
0.0
 62
256
 0
LINE
 8
Layer0_S_
10
2742.1518716218247
20
127.22354286469236
30
0.0
11
2741.852170354311
21
126.49999999999993
31
0.0
 62
256
 0
LINE
 8
Layer0_S_
10
2741.852170354311
20
126.49999999999993
30
0.0
11
2741.3754144865175
21
125.8786796564403
31
0.0
 62
256
 0
LINE
 8
Layer0_S_
10
2741.3754144865175
20
125.8786796564403
30
0.0
11
2740.754094142958
21
125.4019237886466
31
0.0
 62
256
 0
LINE
 8
Layer0_S_
10
2740.754094142958
20
125.4019237886466
30
0.0
11
2740.030551278265
21
125.10222252113272
31
0.0
 62
256
 0
LINE
 8
Layer0_S_
10
2740.030551278265
20
125.10222252113272
30
0.0
11
2739.254094142958
21
124.99999999999993
31
0.0
 62
256
 0
LINE
 8
Layer0_S_
10
2739.254094142958
20
124.99999999999993
30
0.0
11
2738.47763700765
21
125.10222252113272
31
0.0
 62
256
 0
LINE
 8
Layer0_S_
10
2738.47763700765
20
125.10222252113272
30
0.0
11
2737.754094142958
21
125.4019237886466
31
0.0
 62
256
 0
LINE
 8
Layer0_S_
10
2737.754094142958
20
125.4019237886466
30
0.0
11
2737.1327737993984
21
125.8786796564403
31
0.0
 62
256
 0
LINE
 8
Layer0_S_
10
2737.1327737993984
20
125.8786796564403
30
0.0
11
2736.6560179316043
21
126.49999999999993
31
0.0
 62
256
 0
LINE
 8
Layer0_S_
10
2736.6560179316043
20
126.49999999999993
30
0.0
11
2736.3563166640906
21
127.22354286469235
31
0.0
 62
256
 0
LINE
 8
Layer0_S_
10
2736.3563166640906
20
127.22354286469235
30
0.0
11
2736.254094142958
21
127.99999999999993
31
0.0
 62
256
 0
LINE
 8
Layer0_S_
10
2736.254094142958
20
127.99999999999993
30
0.0
11
2736.3563166640906
21
128.77645713530748
31
0.0
 62
256
 0
LINE
 8
Layer0_S_
10
2736.3563166640906
20
128.77645713530748
30
0.0
11
2736.6560179316043
21
129.49999999999991
31
0.0
 62
256
 0
LINE
 8
Layer0_S_
10
2736.6560179316043
20
129.49999999999991
30
0.0
11
2737.1327737993984
21
130.12132034355955
31
0.0
 62
256
 0
LINE
 8
Layer0_S_
10
2737.1327737993984
20
130.12132034355955
30
0.0
11
2737.754094142958
21
130.59807621135326
31
0.0
 62
256
 0
LINE
 8
Layer0_S_
10
2737.754094142958
20
130.59807621135326
30
0.0
11
2738.47763700765
21
130.89777747886714
31
0.0
 62
256
 0
LINE
 8
Layer0_S_
10
2738.47763700765
20
130.89777747886714
30
0.0
11
2739.254094142958
21
130.99999999999991
31
0.0
 62
256
 0
LINE
 8
Layer0_S_
10
2737.754094142958
20
14.598076211353312
30
0.0
11
2738.47763700765
21
14.897777478867205
31
0.0
 62
256
 0
LINE
 8
Layer0_S_
10
2738.47763700765
20
14.897777478867205
30
0.0
11
2739.254094142958
21
14.999999999999995
31
0.0
 62
256
 0
LINE
 8
Layer0_S_
10
2739.254094142958
20
14.999999999999995
30
0.0
11
2740.030551278265
21
14.897777478867205
31
0.0
 62
256
 0
LINE
 8
Layer0_S_
10
2740.030551278265
20
14.897777478867205
30
0.0
11
2740.754094142958
21
14.598076211353312
31
0.0
 62
256
 0
LINE
 8
Layer0_S_
10
2740.754094142958
20
14.598076211353312
30
0.0
11
2741.3754144865175
21
14.121320343559649
31
0.0
 62
256
 0
LINE
 8
Layer0_S_
10
2741.3754144865175
20
14.121320343559649
30
0.0
11
2741.852170354311
21
13.499999999999998
31
0.0
 62
256
 0
LINE
 8
Layer0_S_
10
2741.852170354311
20
13.499999999999998
30
0.0
11
2742.1518716218247
21
12.776457135307568
31
0.0
 62
256
 0
LINE
 8
Layer0_S_
10
2742.1518716218247
20
12.776457135307568
30
0.0
11
2742.2540941429575
21
12.0
31
0.0
 62
256
 0
LINE
 8
Layer0_S_
10
2742.2540941429575
20
12.0
30
0.0
11
2742.1518716218247
21
11.223542864692444
31
0.0
 62
256
 0
LINE
 8
Layer0_S_
10
2742.1518716218247
20
11.223542864692444
30
0.0
11
2741.852170354311
21
10.500000000000004
31
0.0
 62
256
 0
LINE
 8
Layer0_S_
10
2741.852170354311
20
10.500000000000004
30
0.0
11
2741.3754144865175
21
9.878679656440363
31
0.0
 62
256
 0
LINE
 8
Layer0_S_
10
2741.3754144865175
20
9.878679656440363
30
0.0
11
2740.754094142958
21
9.40192378864669
31
0.0
 62
256
 0
LINE
 8
Layer0_S_
10
2740.754094142958
20
9.40192378864669
30
0.0
11
2740.030551278265
21
9.102222521132795
31
0.0
 62
256
 0
LINE
 8
Layer0_S_
10
2740.030551278265
20
9.102222521132795
30
0.0
11
2739.254094142958
21
9.000000000000005
31
0.0
 62
256
 0
LINE
 8
Layer0_S_
10
2739.254094142958
20
9.000000000000005
30
0.0
11
2738.47763700765
21
9.102222521132795
31
0.0
 62
256
 0
LINE
 8
Layer0_S_
10
2738.47763700765
20
9.102222521132795
30
0.0
11
2737.754094142958
21
9.40192378864669
31
0.0
 62
256
 0
LINE
 8
Layer0_S_
10
2737.754094142958
20
9.40192378864669
30
0.0
11
2737.1327737993984
21
9.878679656440353
31
0.0
 62
256
 0
LINE
 8
Layer0_S_
10
2737.1327737993984
20
9.878679656440353
30
0.0
11
2736.6560179316043
21
10.500000000000004
31
0.0
 62
256
 0
LINE
 8
Layer0_S_
10
2736.6560179316043
20
10.500000000000004
30
0.0
11
2736.3563166640906
21
11.223542864692432
31
0.0
 62
256
 0
LINE
 8
Layer0_S_
10
2736.3563166640906
20
11.223542864692432
30
0.0
11
2736.254094142958
21
12.0
31
0.0
 62
256
 0
LINE
 8
Layer0_S_
10
2736.254094142958
20
12.0
30
0.0
11
2736.3563166640906
21
12.776457135307558
31
0.0
 62
256
 0
LINE
 8
Layer0_S_
10
2736.3563166640906
20
12.776457135307558
30
0.0
11
2736.6560179316043
21
13.499999999999998
31
0.0
 62
256
 0
LINE
 8
Layer0_S_
10
2736.6560179316043
20
13.499999999999998
30
0.0
11
2737.132773799398
21
14.121320343559637
31
0.0
 62
256
 0
LINE
 8
Layer0_S_
10
2737.132773799398
20
14.121320343559637
30
0.0
11
2737.754094142958
21
14.598076211353312
31
0.0
 62
256
 0
LINE
 8
Layer0_S_
10
2575.2540941429575
20
12.0
30
0.0
11
2575.3563166640906
21
12.776457135307558
31
0.0
 62
256
 0
LINE
 8
Layer0_S_
10
2575.3563166640906
20
12.776457135307558
30
0.0
11
2575.6560179316043
21
13.499999999999998
31
0.0
 62
256
 0
LINE
 8
Layer0_S_
10
2575.6560179316043
20
13.499999999999998
30
0.0
11
2576.132773799398
21
14.121320343559637
31
0.0
 62
256
 0
LINE
 8
Layer0_S_
10
2576.132773799398
20
14.121320343559637
30
0.0
11
2576.7540941429575
21
14.598076211353312
31
0.0
 62
256
 0
LINE
 8
Layer0_S_
10
2576.7540941429575
20
14.598076211353312
30
0.0
11
2577.47763700765
21
14.897777478867194
31
0.0
 62
256
 0
LINE
 8
Layer0_S_
10
2577.47763700765
20
14.897777478867194
30
0.0
11
2578.2540941429575
21
14.999999999999995
31
0.0
 62
256
 0
LINE
 8
Layer0_S_
10
2578.2540941429575
20
14.999999999999995
30
0.0
11
2579.030551278265
21
14.897777478867194
31
0.0
 62
256
 0
LINE
 8
Layer0_S_
10
2579.030551278265
20
14.897777478867194
30
0.0
11
2579.7540941429575
21
14.598076211353312
31
0.0
 62
256
 0
LINE
 8
Layer0_S_
10
2579.7540941429575
20
14.598076211353312
30
0.0
11
2580.3754144865175
21
14.121320343559637
31
0.0
 62
256
 0
LINE
 8
Layer0_S_
10
2580.3754144865175
20
14.121320343559637
30
0.0
11
2580.852170354311
21
13.499999999999998
31
0.0
 62
256
 0
LINE
 8
Layer0_S_
10
2580.852170354311
20
13.499999999999998
30
0.0
11
2581.151871621825
21
12.776457135307558
31
0.0
 62
256
 0
LINE
 8
Layer0_S_
10
2581.151871621825
20
12.776457135307558
30
0.0
11
2581.2540941429575
21
12.0
31
0.0
 62
256
 0
LINE
 8
Layer0_S_
10
2581.2540941429575
20
12.0
30
0.0
11
2581.151871621825
21
11.223542864692444
31
0.0
 62
256
 0
LINE
 8
Layer0_S_
10
2581.151871621825
20
11.223542864692444
30
0.0
11
2580.852170354311
21
10.500000000000004
31
0.0
 62
256
 0
LINE
 8
Layer0_S_
10
2580.852170354311
20
10.500000000000004
30
0.0
11
2580.3754144865175
21
9.878679656440363
31
0.0
 62
256
 0
LINE
 8
Layer0_S_
10
2580.3754144865175
20
9.878679656440363
30
0.0
11
2579.7540941429575
21
9.40192378864669
31
0.0
 62
256
 0
LINE
 8
Layer0_S_
10
2579.7540941429575
20
9.40192378864669
30
0.0
11
2579.030551278265
21
9.102222521132807
31
0.0
 62
256
 0
LINE
 8
Layer0_S_
10
2579.030551278265
20
9.102222521132807
30
0.0
11
2578.2540941429575
21
9.000000000000005
31
0.0
 62
256
 0
LINE
 8
Layer0_S_
10
2578.2540941429575
20
9.000000000000005
30
0.0
11
2577.47763700765
21
9.102222521132807
31
0.0
 62
256
 0
LINE
 8
Layer0_S_
10
2577.47763700765
20
9.102222521132807
30
0.0
11
2576.7540941429575
21
9.40192378864669
31
0.0
 62
256
 0
LINE
 8
Layer0_S_
10
2576.7540941429575
20
9.40192378864669
30
0.0
11
2576.132773799398
21
9.878679656440363
31
0.0
 62
256
 0
LINE
 8
Layer0_S_
10
2576.132773799398
20
9.878679656440363
30
0.0
11
2575.6560179316043
21
10.500000000000004
31
0.0
 62
256
 0
LINE
 8
Layer0_S_
10
2575.6560179316043
20
10.500000000000004
30
0.0
11
2575.3563166640906
21
11.223542864692444
31
0.0
 62
256
 0
LINE
 8
Layer0_S_
10
2575.3563166640906
20
11.223542864692444
30
0.0
11
2575.2540941429575
21
12.0
31
0.0
 62
256
 0
LINE
 8
Layer0_S_
10
2581.151871621825
20
127.22354286469236
30
0.0
11
2580.852170354311
21
126.49999999999993
31
0.0
 62
256
 0
LINE
 8
Layer0_S_
10
2580.852170354311
20
126.49999999999993
30
0.0
11
2580.3754144865175
21
125.8786796564403
31
0.0
 62
256
 0
LINE
 8
Layer0_S_
10
2580.3754144865175
20
125.8786796564403
30
0.0
11
2579.7540941429575
21
125.4019237886466
31
0.0
 62
256
 0
LINE
 8
Layer0_S_
10
2579.7540941429575
20
125.4019237886466
30
0.0
11
2579.030551278265
21
125.10222252113275
31
0.0
 62
256
 0
LINE
 8
Layer0_S_
10
2579.030551278265
20
125.10222252113275
30
0.0
11
2578.2540941429575
21
124.99999999999993
31
0.0
 62
256
 0
LINE
 8
Layer0_S_
10
2578.2540941429575
20
124.99999999999993
30
0.0
11
2577.47763700765
21
125.10222252113272
31
0.0
 62
256
 0
LINE
 8
Layer0_S_
10
2577.47763700765
20
125.10222252113272
30
0.0
11
2576.7540941429575
21
125.4019237886466
31
0.0
 62
256
 0
LINE
 8
Layer0_S_
10
2576.7540941429575
20
125.4019237886466
30
0.0
11
2576.132773799398
21
125.87867965644027
31
0.0
 62
256
 0
LINE
 8
Layer0_S_
10
2576.132773799398
20
125.87867965644027
30
0.0
11
2575.6560179316043
21
126.49999999999993
31
0.0
 62
256
 0
LINE
 8
Layer0_S_
10
2575.6560179316043
20
126.49999999999993
30
0.0
11
2575.3563166640906
21
127.22354286469235
31
0.0
 62
256
 0
LINE
 8
Layer0_S_
10
2575.3563166640906
20
127.22354286469235
30
0.0
11
2575.2540941429575
21
127.9999999999999
31
0.0
 62
256
 0
LINE
 8
Layer0_S_
10
2575.2540941429575
20
127.9999999999999
30
0.0
11
2575.3563166640906
21
128.77645713530748
31
0.0
 62
256
 0
LINE
 8
Layer0_S_
10
2575.3563166640906
20
128.77645713530748
30
0.0
11
2575.6560179316043
21
129.49999999999991
31
0.0
 62
256
 0
LINE
 8
Layer0_S_
10
2575.6560179316043
20
129.49999999999991
30
0.0
11
2576.132773799398
21
130.12132034355955
31
0.0
 62
256
 0
LINE
 8
Layer0_S_
10
2576.132773799398
20
130.12132034355955
30
0.0
11
2576.7540941429575
21
130.59807621135326
31
0.0
 62
256
 0
LINE
 8
Layer0_S_
10
2576.7540941429575
20
130.59807621135326
30
0.0
11
2577.47763700765
21
130.8977774788671
31
0.0
 62
256
 0
LINE
 8
Layer0_S_
10
2577.47763700765
20
130.8977774788671
30
0.0
11
2578.2540941429575
21
130.99999999999991
31
0.0
 62
256
 0
LINE
 8
Layer0_S_
10
2578.2540941429575
20
130.99999999999991
30
0.0
11
2579.030551278265
21
130.89777747886714
31
0.0
 62
256
 0
LINE
 8
Layer0_S_
10
2579.030551278265
20
130.89777747886714
30
0.0
11
2579.7540941429575
21
130.59807621135326
31
0.0
 62
256
 0
LINE
 8
Layer0_S_
10
2579.7540941429575
20
130.59807621135326
30
0.0
11
2580.3754144865175
21
130.12132034355957
31
0.0
 62
256
 0
LINE
 8
Layer0_S_
10
2580.3754144865175
20
130.12132034355957
30
0.0
11
2580.852170354311
21
129.49999999999991
31
0.0
 62
256
 0
LINE
 8
Layer0_S_
10
2580.852170354311
20
129.49999999999991
30
0.0
11
2581.151871621825
21
128.7764571353075
31
0.0
 62
256
 0
LINE
 8
Layer0_S_
10
2581.151871621825
20
128.7764571353075
30
0.0
11
2581.2540941429575
21
127.99999999999994
31
0.0
 62
256
 0
LINE
 8
Layer0_S_
10
2581.2540941429575
20
127.99999999999994
30
0.0
11
2581.151871621825
21
127.22354286469236
31
0.0
 62
256
 0
ENDSEC
 0
EOF
