 0
SECTION
 2
HEADER
 9
$ACADVER
 1
AC1006
 9
$LTSCALE
 40
1000.0
 0
ENDSEC
 0
SECTION
 2
TABLES
 0
TABLE
 2
LTYPE
 70
1
 0
LTYPE
 2
SKEMA_SOLID
 70
64
 3
Sketchup - Skema Ltype
 72
65
 73
0
 40
0.000000
 0
LTYPE
 2
SKEMA_DASHED
 70
64
 3
Sketchup - Skema Ltype
 72
65
 73
2
 40
0.1
 49
0.05
 49
-0.05
 0
LTYPE
 2
SKEMA_DOTTED
 70
64
 3
Sketchup - Skema Ltype
 72
65
 73
2
 40
00.1
 49
0.0
 49
-00.1
 0
ENDTAB
 0
TABLE
 2
LAYER
 70
6
 0
LAYER
 2
Layer0_S_
 70
64
 62
20
 6
SKEMA_SOLID
 0
ENDTAB
 0
TABLE
 2
STYLE
 70
0
 0
ENDTAB
 0
ENDSEC
 0
SECTION
 2
BLOCKS
 0
ENDSEC
 0
SECTION
 2
ENTITIES
 0
LINE
 8
Layer0_S_
10
297.1393437936619
20
0.0
30
8.459899447643692e-15
11
458.1393437936619
21
0.0
31
8.459899447643692e-15
 62
256
 0
LINE
 8
Layer0_S_
10
285.1393437936619
20
127.99999999999994
30
8.459899447643692e-15
11
285.1393437936619
21
12.0
31
8.459899447643692e-15
 62
256
 0
LINE
 8
Layer0_S_
10
458.1393437936619
20
139.99999999999991
30
8.459899447643692e-15
11
297.1393437936619
21
139.99999999999991
31
8.459899447643692e-15
 62
256
 0
LINE
 8
Layer0_S_
10
470.1393437936619
20
12.0
30
8.459899447643692e-15
11
470.1393437936619
21
127.99999999999994
31
8.459899447643692e-15
 62
256
 0
LINE
 8
Layer0_S_
10
458.1393437936619
20
0.0
30
8.459899447643692e-15
11
459.7056581003025
21
0.10266166351427745
31
8.459899447643692e-15
 62
256
 0
LINE
 8
Layer0_S_
10
459.7056581003025
20
0.10266166351427745
30
8.459899447643692e-15
11
461.2451723348921
21
0.40889008453118103
31
8.459899447643692e-15
 62
256
 0
LINE
 8
Layer0_S_
10
461.2451723348921
20
0.40889008453118103
30
8.459899447643692e-15
11
462.731544982043
21
0.9134456098645598
31
8.459899447643692e-15
 62
256
 0
LINE
 8
Layer0_S_
10
462.731544982043
20
0.9134456098645598
30
8.459899447643692e-15
11
464.1393437936619
21
1.6076951545867362
31
8.459899447643692e-15
 62
256
 0
LINE
 8
Layer0_S_
10
464.1393437936619
20
1.6076951545867362
30
8.459899447643692e-15
11
465.4444809417666
21
2.4797599165051807
31
8.459899447643692e-15
 62
256
 0
LINE
 8
Layer0_S_
10
465.4444809417666
20
2.4797599165051807
30
8.459899447643692e-15
11
466.6246251679005
21
3.514718625761432
31
8.459899447643692e-15
 62
256
 0
LINE
 8
Layer0_S_
10
466.6246251679005
20
3.514718625761432
30
8.459899447643692e-15
11
467.65958387715676
21
4.694862851895351
31
8.459899447643692e-15
 62
256
 0
LINE
 8
Layer0_S_
10
467.65958387715676
20
4.694862851895351
30
8.459899447643692e-15
11
468.53164863907523
21
6.0
31
8.459899447643692e-15
 62
256
 0
LINE
 8
Layer0_S_
10
468.53164863907523
20
6.0
30
8.459899447643692e-15
11
469.22589818379737
21
7.407798811618927
31
8.459899447643692e-15
 62
256
 0
LINE
 8
Layer0_S_
10
469.22589818379737
20
7.407798811618927
30
8.459899447643692e-15
11
469.73045370913076
21
8.894171458769755
31
8.459899447643692e-15
 62
256
 0
LINE
 8
Layer0_S_
10
469.73045370913076
20
8.894171458769755
30
8.459899447643692e-15
11
470.03668213014765
21
10.433685693359385
31
8.459899447643692e-15
 62
256
 0
LINE
 8
Layer0_S_
10
470.03668213014765
20
10.433685693359385
30
8.459899447643692e-15
11
470.1393437936619
21
12.0
31
8.459899447643692e-15
 62
256
 0
LINE
 8
Layer0_S_
10
297.1393437936619
20
0.0
30
8.459899447643692e-15
11
295.5730294870213
21
0.10266166351427745
31
8.459899447643692e-15
 62
256
 0
LINE
 8
Layer0_S_
10
295.5730294870213
20
0.10266166351427745
30
8.459899447643692e-15
11
294.0335152524317
21
0.40889008453118103
31
8.459899447643692e-15
 62
256
 0
LINE
 8
Layer0_S_
10
294.0335152524317
20
0.40889008453118103
30
8.459899447643692e-15
11
292.54714260528084
21
0.9134456098645598
31
8.459899447643692e-15
 62
256
 0
LINE
 8
Layer0_S_
10
292.54714260528084
20
0.9134456098645598
30
8.459899447643692e-15
11
291.13934379366196
21
1.6076951545867362
31
8.459899447643692e-15
 62
256
 0
LINE
 8
Layer0_S_
10
291.13934379366196
20
1.6076951545867362
30
8.459899447643692e-15
11
289.8342066455573
21
2.4797599165051807
31
8.459899447643692e-15
 62
256
 0
LINE
 8
Layer0_S_
10
289.8342066455573
20
2.4797599165051807
30
8.459899447643692e-15
11
288.6540624194234
21
3.514718625761432
31
8.459899447643692e-15
 62
256
 0
LINE
 8
Layer0_S_
10
288.6540624194234
20
3.514718625761432
30
8.459899447643692e-15
11
287.6191037101671
21
4.694862851895351
31
8.459899447643692e-15
 62
256
 0
LINE
 8
Layer0_S_
10
287.6191037101671
20
4.694862851895351
30
8.459899447643692e-15
11
286.7470389482487
21
6.0
31
8.459899447643692e-15
 62
256
 0
LINE
 8
Layer0_S_
10
286.7470389482487
20
6.0
30
8.459899447643692e-15
11
286.0527894035265
21
7.407798811618927
31
8.459899447643692e-15
 62
256
 0
LINE
 8
Layer0_S_
10
286.0527894035265
20
7.407798811618927
30
8.459899447643692e-15
11
285.5482338781931
21
8.894171458769755
31
8.459899447643692e-15
 62
256
 0
LINE
 8
Layer0_S_
10
285.5482338781931
20
8.894171458769755
30
8.459899447643692e-15
11
285.2420054571762
21
10.433685693359385
31
8.459899447643692e-15
 62
256
 0
LINE
 8
Layer0_S_
10
285.2420054571762
20
10.433685693359385
30
8.459899447643692e-15
11
285.1393437936619
21
12.0
31
8.459899447643692e-15
 62
256
 0
LINE
 8
Layer0_S_
10
297.1393437936619
20
139.99999999999991
30
8.459899447643692e-15
11
295.5730294870213
21
139.89733833648566
31
8.459899447643692e-15
 62
256
 0
LINE
 8
Layer0_S_
10
295.5730294870213
20
139.89733833648566
30
8.459899447643692e-15
11
294.0335152524317
21
139.59110991546873
31
8.459899447643692e-15
 62
256
 0
LINE
 8
Layer0_S_
10
294.0335152524317
20
139.59110991546873
30
8.459899447643692e-15
11
292.54714260528084
21
139.08655439013538
31
8.459899447643692e-15
 62
256
 0
LINE
 8
Layer0_S_
10
292.54714260528084
20
139.08655439013538
30
8.459899447643692e-15
11
291.13934379366196
21
138.3923048454132
31
8.459899447643692e-15
 62
256
 0
LINE
 8
Layer0_S_
10
291.13934379366196
20
138.3923048454132
30
8.459899447643692e-15
11
289.8342066455573
21
137.52024008349474
31
8.459899447643692e-15
 62
256
 0
LINE
 8
Layer0_S_
10
289.8342066455573
20
137.52024008349474
30
8.459899447643692e-15
11
288.6540624194234
21
136.4852813742385
31
8.459899447643692e-15
 62
256
 0
LINE
 8
Layer0_S_
10
288.6540624194234
20
136.4852813742385
30
8.459899447643692e-15
11
287.6191037101671
21
135.3051371481046
31
8.459899447643692e-15
 62
256
 0
LINE
 8
Layer0_S_
10
287.6191037101671
20
135.3051371481046
30
8.459899447643692e-15
11
286.7470389482487
21
133.99999999999994
31
8.459899447643692e-15
 62
256
 0
LINE
 8
Layer0_S_
10
286.7470389482487
20
133.99999999999994
30
8.459899447643692e-15
11
286.05278940352656
21
132.592201188381
31
8.459899447643692e-15
 62
256
 0
LINE
 8
Layer0_S_
10
286.05278940352656
20
132.592201188381
30
8.459899447643692e-15
11
285.5482338781932
21
131.10582854123018
31
8.459899447643692e-15
 62
256
 0
LINE
 8
Layer0_S_
10
285.5482338781932
20
131.10582854123018
30
8.459899447643692e-15
11
285.2420054571762
21
129.56631430664055
31
8.459899447643692e-15
 62
256
 0
LINE
 8
Layer0_S_
10
285.2420054571762
20
129.56631430664055
30
8.459899447643692e-15
11
285.1393437936619
21
127.99999999999994
31
8.459899447643692e-15
 62
256
 0
LINE
 8
Layer0_S_
10
458.1393437936619
20
139.99999999999991
30
8.459899447643692e-15
11
459.7056581003025
21
139.89733833648566
31
8.459899447643692e-15
 62
256
 0
LINE
 8
Layer0_S_
10
459.7056581003025
20
139.89733833648566
30
8.459899447643692e-15
11
461.2451723348921
21
139.59110991546873
31
8.459899447643692e-15
 62
256
 0
LINE
 8
Layer0_S_
10
461.2451723348921
20
139.59110991546873
30
8.459899447643692e-15
11
462.731544982043
21
139.08655439013538
31
8.459899447643692e-15
 62
256
 0
LINE
 8
Layer0_S_
10
462.731544982043
20
139.08655439013538
30
8.459899447643692e-15
11
464.1393437936619
21
138.3923048454132
31
8.459899447643692e-15
 62
256
 0
LINE
 8
Layer0_S_
10
464.1393437936619
20
138.3923048454132
30
8.459899447643692e-15
11
465.4444809417666
21
137.52024008349474
31
8.459899447643692e-15
 62
256
 0
LINE
 8
Layer0_S_
10
465.4444809417666
20
137.52024008349474
30
8.459899447643692e-15
11
466.6246251679005
21
136.4852813742385
31
8.459899447643692e-15
 62
256
 0
LINE
 8
Layer0_S_
10
466.6246251679005
20
136.4852813742385
30
8.459899447643692e-15
11
467.65958387715676
21
135.3051371481046
31
8.459899447643692e-15
 62
256
 0
LINE
 8
Layer0_S_
10
467.65958387715676
20
135.3051371481046
30
8.459899447643692e-15
11
468.53164863907523
21
133.99999999999994
31
8.459899447643692e-15
 62
256
 0
LINE
 8
Layer0_S_
10
468.53164863907523
20
133.99999999999994
30
8.459899447643692e-15
11
469.22589818379737
21
132.592201188381
31
8.459899447643692e-15
 62
256
 0
LINE
 8
Layer0_S_
10
469.22589818379737
20
132.592201188381
30
8.459899447643692e-15
11
469.73045370913076
21
131.10582854123018
31
8.459899447643692e-15
 62
256
 0
LINE
 8
Layer0_S_
10
469.73045370913076
20
131.10582854123018
30
8.459899447643692e-15
11
470.03668213014765
21
129.56631430664055
31
8.459899447643692e-15
 62
256
 0
LINE
 8
Layer0_S_
10
470.03668213014765
20
129.56631430664055
30
8.459899447643692e-15
11
470.1393437936619
21
127.99999999999994
31
8.459899447643692e-15
 62
256
 0
LINE
 8
Layer0_S_
10
458.1393437936619
20
130.99999999999994
30
8.459899447643692e-15
11
458.91580092896953
21
130.89777747886714
31
8.459899447643692e-15
 62
256
 0
LINE
 8
Layer0_S_
10
458.91580092896953
20
130.89777747886714
30
8.459899447643692e-15
11
459.6393437936619
21
130.59807621135326
31
8.459899447643692e-15
 62
256
 0
LINE
 8
Layer0_S_
10
459.6393437936619
20
130.59807621135326
30
8.459899447643692e-15
11
460.2606641372216
21
130.12132034355957
31
8.459899447643692e-15
 62
256
 0
LINE
 8
Layer0_S_
10
460.2606641372216
20
130.12132034355957
30
8.459899447643692e-15
11
460.7374200050153
21
129.49999999999991
31
8.459899447643692e-15
 62
256
 0
LINE
 8
Layer0_S_
10
460.7374200050153
20
129.49999999999991
30
8.459899447643692e-15
11
461.03712127252913
21
128.7764571353075
31
8.459899447643692e-15
 62
256
 0
LINE
 8
Layer0_S_
10
461.03712127252913
20
128.7764571353075
30
8.459899447643692e-15
11
461.13934379366196
21
127.99999999999994
31
8.459899447643692e-15
 62
256
 0
LINE
 8
Layer0_S_
10
461.13934379366196
20
127.99999999999994
30
8.459899447643692e-15
11
461.03712127252913
21
127.22354286469239
31
8.459899447643692e-15
 62
256
 0
LINE
 8
Layer0_S_
10
461.03712127252913
20
127.22354286469239
30
8.459899447643692e-15
11
460.7374200050153
21
126.49999999999993
31
8.459899447643692e-15
 62
256
 0
LINE
 8
Layer0_S_
10
460.7374200050153
20
126.49999999999993
30
8.459899447643692e-15
11
460.2606641372216
21
125.8786796564403
31
8.459899447643692e-15
 62
256
 0
LINE
 8
Layer0_S_
10
460.2606641372216
20
125.8786796564403
30
8.459899447643692e-15
11
459.6393437936619
21
125.40192378864663
31
8.459899447643692e-15
 62
256
 0
LINE
 8
Layer0_S_
10
459.6393437936619
20
125.40192378864663
30
8.459899447643692e-15
11
458.91580092896953
21
125.10222252113275
31
8.459899447643692e-15
 62
256
 0
LINE
 8
Layer0_S_
10
458.91580092896953
20
125.10222252113275
30
8.459899447643692e-15
11
458.1393437936619
21
124.99999999999996
31
8.459899447643692e-15
 62
256
 0
LINE
 8
Layer0_S_
10
458.1393437936619
20
124.99999999999996
30
8.459899447643692e-15
11
457.3628866583544
21
125.10222252113275
31
8.459899447643692e-15
 62
256
 0
LINE
 8
Layer0_S_
10
457.3628866583544
20
125.10222252113275
30
8.459899447643692e-15
11
456.6393437936619
21
125.40192378864663
31
8.459899447643692e-15
 62
256
 0
LINE
 8
Layer0_S_
10
456.6393437936619
20
125.40192378864663
30
8.459899447643692e-15
11
456.0180234501023
21
125.8786796564403
31
8.459899447643692e-15
 62
256
 0
LINE
 8
Layer0_S_
10
456.0180234501023
20
125.8786796564403
30
8.459899447643692e-15
11
455.54126758230865
21
126.49999999999993
31
8.459899447643692e-15
 62
256
 0
LINE
 8
Layer0_S_
10
455.54126758230865
20
126.49999999999993
30
8.459899447643692e-15
11
455.2415663147947
21
127.22354286469236
31
8.459899447643692e-15
 62
256
 0
LINE
 8
Layer0_S_
10
455.2415663147947
20
127.22354286469236
30
8.459899447643692e-15
11
455.13934379366196
21
127.99999999999994
31
8.459899447643692e-15
 62
256
 0
LINE
 8
Layer0_S_
10
455.13934379366196
20
127.99999999999994
30
8.459899447643692e-15
11
455.2415663147947
21
128.7764571353075
31
8.459899447643692e-15
 62
256
 0
LINE
 8
Layer0_S_
10
455.2415663147947
20
128.7764571353075
30
8.459899447643692e-15
11
455.54126758230865
21
129.49999999999991
31
8.459899447643692e-15
 62
256
 0
LINE
 8
Layer0_S_
10
455.54126758230865
20
129.49999999999991
30
8.459899447643692e-15
11
456.0180234501023
21
130.12132034355957
31
8.459899447643692e-15
 62
256
 0
LINE
 8
Layer0_S_
10
456.0180234501023
20
130.12132034355957
30
8.459899447643692e-15
11
456.6393437936619
21
130.59807621135326
31
8.459899447643692e-15
 62
256
 0
LINE
 8
Layer0_S_
10
456.6393437936619
20
130.59807621135326
30
8.459899447643692e-15
11
457.3628866583544
21
130.89777747886714
31
8.459899447643692e-15
 62
256
 0
LINE
 8
Layer0_S_
10
457.3628866583544
20
130.89777747886714
30
8.459899447643692e-15
11
458.1393437936619
21
130.99999999999994
31
8.459899447643692e-15
 62
256
 0
LINE
 8
Layer0_S_
10
456.6393437936619
20
14.598076211353318
30
8.459899447643692e-15
11
457.3628866583544
21
14.897777478867205
31
8.459899447643692e-15
 62
256
 0
LINE
 8
Layer0_S_
10
457.3628866583544
20
14.897777478867205
30
8.459899447643692e-15
11
458.1393437936619
21
15.0
31
8.459899447643692e-15
 62
256
 0
LINE
 8
Layer0_S_
10
458.1393437936619
20
15.0
30
8.459899447643692e-15
11
458.91580092896953
21
14.897777478867205
31
8.459899447643692e-15
 62
256
 0
LINE
 8
Layer0_S_
10
458.91580092896953
20
14.897777478867205
30
8.459899447643692e-15
11
459.6393437936619
21
14.598076211353318
31
8.459899447643692e-15
 62
256
 0
LINE
 8
Layer0_S_
10
459.6393437936619
20
14.598076211353318
30
8.459899447643692e-15
11
460.2606641372216
21
14.121320343559642
31
8.459899447643692e-15
 62
256
 0
LINE
 8
Layer0_S_
10
460.2606641372216
20
14.121320343559642
30
8.459899447643692e-15
11
460.7374200050153
21
13.500000000000004
31
8.459899447643692e-15
 62
256
 0
LINE
 8
Layer0_S_
10
460.7374200050153
20
13.500000000000004
30
8.459899447643692e-15
11
461.03712127252913
21
12.776457135307563
31
8.459899447643692e-15
 62
256
 0
LINE
 8
Layer0_S_
10
461.03712127252913
20
12.776457135307563
30
8.459899447643692e-15
11
461.13934379366196
21
12.0
31
8.459899447643692e-15
 62
256
 0
LINE
 8
Layer0_S_
10
461.13934379366196
20
12.0
30
8.459899447643692e-15
11
461.03712127252913
21
11.223542864692439
31
8.459899447643692e-15
 62
256
 0
LINE
 8
Layer0_S_
10
461.03712127252913
20
11.223542864692439
30
8.459899447643692e-15
11
460.7374200050153
21
10.500000000000004
31
8.459899447643692e-15
 62
256
 0
LINE
 8
Layer0_S_
10
460.7374200050153
20
10.500000000000004
30
8.459899447643692e-15
11
460.2606641372216
21
9.878679656440358
31
8.459899447643692e-15
 62
256
 0
LINE
 8
Layer0_S_
10
460.2606641372216
20
9.878679656440358
30
8.459899447643692e-15
11
459.6393437936619
21
9.401923788646682
31
8.459899447643692e-15
 62
256
 0
LINE
 8
Layer0_S_
10
459.6393437936619
20
9.401923788646682
30
8.459899447643692e-15
11
458.91580092896953
21
9.102222521132795
31
8.459899447643692e-15
 62
256
 0
LINE
 8
Layer0_S_
10
458.91580092896953
20
9.102222521132795
30
8.459899447643692e-15
11
458.1393437936619
21
9.0
31
8.459899447643692e-15
 62
256
 0
LINE
 8
Layer0_S_
10
458.1393437936619
20
9.0
30
8.459899447643692e-15
11
457.3628866583544
21
9.102222521132795
31
8.459899447643692e-15
 62
256
 0
LINE
 8
Layer0_S_
10
457.3628866583544
20
9.102222521132795
30
8.459899447643692e-15
11
456.6393437936619
21
9.401923788646682
31
8.459899447643692e-15
 62
256
 0
LINE
 8
Layer0_S_
10
456.6393437936619
20
9.401923788646682
30
8.459899447643692e-15
11
456.0180234501023
21
9.878679656440358
31
8.459899447643692e-15
 62
256
 0
LINE
 8
Layer0_S_
10
456.0180234501023
20
9.878679656440358
30
8.459899447643692e-15
11
455.54126758230865
21
10.499999999999998
31
8.459899447643692e-15
 62
256
 0
LINE
 8
Layer0_S_
10
455.54126758230865
20
10.499999999999998
30
8.459899447643692e-15
11
455.2415663147947
21
11.223542864692439
31
8.459899447643692e-15
 62
256
 0
LINE
 8
Layer0_S_
10
455.2415663147947
20
11.223542864692439
30
8.459899447643692e-15
11
455.13934379366196
21
11.999999999999995
31
8.459899447643692e-15
 62
256
 0
LINE
 8
Layer0_S_
10
455.13934379366196
20
11.999999999999995
30
8.459899447643692e-15
11
455.2415663147947
21
12.776457135307563
31
8.459899447643692e-15
 62
256
 0
LINE
 8
Layer0_S_
10
455.2415663147947
20
12.776457135307563
30
8.459899447643692e-15
11
455.54126758230865
21
13.499999999999998
31
8.459899447643692e-15
 62
256
 0
LINE
 8
Layer0_S_
10
455.54126758230865
20
13.499999999999998
30
8.459899447643692e-15
11
456.0180234501023
21
14.121320343559642
31
8.459899447643692e-15
 62
256
 0
LINE
 8
Layer0_S_
10
456.0180234501023
20
14.121320343559642
30
8.459899447643692e-15
11
456.6393437936619
21
14.598076211353318
31
8.459899447643692e-15
 62
256
 0
LINE
 8
Layer0_S_
10
294.13934379366196
20
12.0
30
8.459899447643692e-15
11
294.2415663147948
21
12.776457135307563
31
8.459899447643692e-15
 62
256
 0
LINE
 8
Layer0_S_
10
294.2415663147948
20
12.776457135307563
30
8.459899447643692e-15
11
294.54126758230865
21
13.499999999999998
31
8.459899447643692e-15
 62
256
 0
LINE
 8
Layer0_S_
10
294.54126758230865
20
13.499999999999998
30
8.459899447643692e-15
11
295.0180234501023
21
14.121320343559637
31
8.459899447643692e-15
 62
256
 0
LINE
 8
Layer0_S_
10
295.0180234501023
20
14.121320343559637
30
8.459899447643692e-15
11
295.63934379366196
21
14.598076211353307
31
8.459899447643692e-15
 62
256
 0
LINE
 8
Layer0_S_
10
295.63934379366196
20
14.598076211353307
30
8.459899447643692e-15
11
296.3628866583544
21
14.897777478867194
31
8.459899447643692e-15
 62
256
 0
LINE
 8
Layer0_S_
10
296.3628866583544
20
14.897777478867194
30
8.459899447643692e-15
11
297.1393437936619
21
14.999999999999995
31
8.459899447643692e-15
 62
256
 0
LINE
 8
Layer0_S_
10
297.1393437936619
20
14.999999999999995
30
8.459899447643692e-15
11
297.9158009289695
21
14.8977774788672
31
8.459899447643692e-15
 62
256
 0
LINE
 8
Layer0_S_
10
297.9158009289695
20
14.8977774788672
30
8.459899447643692e-15
11
298.63934379366196
21
14.598076211353312
31
8.459899447643692e-15
 62
256
 0
LINE
 8
Layer0_S_
10
298.63934379366196
20
14.598076211353312
30
8.459899447643692e-15
11
299.26066413722157
21
14.121320343559637
31
8.459899447643692e-15
 62
256
 0
LINE
 8
Layer0_S_
10
299.26066413722157
20
14.121320343559637
30
8.459899447643692e-15
11
299.7374200050152
21
13.499999999999998
31
8.459899447643692e-15
 62
256
 0
LINE
 8
Layer0_S_
10
299.7374200050152
20
13.499999999999998
30
8.459899447643692e-15
11
300.03712127252913
21
12.776457135307563
31
8.459899447643692e-15
 62
256
 0
LINE
 8
Layer0_S_
10
300.03712127252913
20
12.776457135307563
30
8.459899447643692e-15
11
300.1393437936619
21
12.0
31
8.459899447643692e-15
 62
256
 0
LINE
 8
Layer0_S_
10
300.1393437936619
20
12.0
30
8.459899447643692e-15
11
300.03712127252913
21
11.223542864692444
31
8.459899447643692e-15
 62
256
 0
LINE
 8
Layer0_S_
10
300.03712127252913
20
11.223542864692444
30
8.459899447643692e-15
11
299.7374200050152
21
10.500000000000004
31
8.459899447643692e-15
 62
256
 0
LINE
 8
Layer0_S_
10
299.7374200050152
20
10.500000000000004
30
8.459899447643692e-15
11
299.26066413722157
21
9.878679656440363
31
8.459899447643692e-15
 62
256
 0
LINE
 8
Layer0_S_
10
299.26066413722157
20
9.878679656440363
30
8.459899447643692e-15
11
298.63934379366196
21
9.401923788646695
31
8.459899447643692e-15
 62
256
 0
LINE
 8
Layer0_S_
10
298.63934379366196
20
9.401923788646695
30
8.459899447643692e-15
11
297.9158009289695
21
9.102222521132807
31
8.459899447643692e-15
 62
256
 0
LINE
 8
Layer0_S_
10
297.9158009289695
20
9.102222521132807
30
8.459899447643692e-15
11
297.1393437936619
21
9.000000000000005
31
8.459899447643692e-15
 62
256
 0
LINE
 8
Layer0_S_
10
297.1393437936619
20
9.000000000000005
30
8.459899447643692e-15
11
296.3628866583544
21
9.102222521132802
31
8.459899447643692e-15
 62
256
 0
LINE
 8
Layer0_S_
10
296.3628866583544
20
9.102222521132802
30
8.459899447643692e-15
11
295.63934379366196
21
9.40192378864669
31
8.459899447643692e-15
 62
256
 0
LINE
 8
Layer0_S_
10
295.63934379366196
20
9.40192378864669
30
8.459899447643692e-15
11
295.0180234501023
21
9.878679656440363
31
8.459899447643692e-15
 62
256
 0
LINE
 8
Layer0_S_
10
295.0180234501023
20
9.878679656440363
30
8.459899447643692e-15
11
294.54126758230865
21
10.500000000000004
31
8.459899447643692e-15
 62
256
 0
LINE
 8
Layer0_S_
10
294.54126758230865
20
10.500000000000004
30
8.459899447643692e-15
11
294.2415663147948
21
11.223542864692439
31
8.459899447643692e-15
 62
256
 0
LINE
 8
Layer0_S_
10
294.2415663147948
20
11.223542864692439
30
8.459899447643692e-15
11
294.13934379366196
21
12.0
31
8.459899447643692e-15
 62
256
 0
LINE
 8
Layer0_S_
10
300.03712127252913
20
127.22354286469239
30
8.459899447643692e-15
11
299.7374200050152
21
126.49999999999993
31
8.459899447643692e-15
 62
256
 0
LINE
 8
Layer0_S_
10
299.7374200050152
20
126.49999999999993
30
8.459899447643692e-15
11
299.26066413722157
21
125.8786796564403
31
8.459899447643692e-15
 62
256
 0
LINE
 8
Layer0_S_
10
299.26066413722157
20
125.8786796564403
30
8.459899447643692e-15
11
298.63934379366196
21
125.40192378864663
31
8.459899447643692e-15
 62
256
 0
LINE
 8
Layer0_S_
10
298.63934379366196
20
125.40192378864663
30
8.459899447643692e-15
11
297.9158009289695
21
125.10222252113275
31
8.459899447643692e-15
 62
256
 0
LINE
 8
Layer0_S_
10
297.9158009289695
20
125.10222252113275
30
8.459899447643692e-15
11
297.13934379366196
21
124.99999999999996
31
8.459899447643692e-15
 62
256
 0
LINE
 8
Layer0_S_
10
297.13934379366196
20
124.99999999999996
30
8.459899447643692e-15
11
296.3628866583544
21
125.10222252113275
31
8.459899447643692e-15
 62
256
 0
LINE
 8
Layer0_S_
10
296.3628866583544
20
125.10222252113275
30
8.459899447643692e-15
11
295.63934379366196
21
125.40192378864663
31
8.459899447643692e-15
 62
256
 0
LINE
 8
Layer0_S_
10
295.63934379366196
20
125.40192378864663
30
8.459899447643692e-15
11
295.0180234501023
21
125.8786796564403
31
8.459899447643692e-15
 62
256
 0
LINE
 8
Layer0_S_
10
295.0180234501023
20
125.8786796564403
30
8.459899447643692e-15
11
294.54126758230865
21
126.49999999999993
31
8.459899447643692e-15
 62
256
 0
LINE
 8
Layer0_S_
10
294.54126758230865
20
126.49999999999993
30
8.459899447643692e-15
11
294.2415663147948
21
127.22354286469236
31
8.459899447643692e-15
 62
256
 0
LINE
 8
Layer0_S_
10
294.2415663147948
20
127.22354286469236
30
8.459899447643692e-15
11
294.13934379366196
21
127.99999999999993
31
8.459899447643692e-15
 62
256
 0
LINE
 8
Layer0_S_
10
294.13934379366196
20
127.99999999999993
30
8.459899447643692e-15
11
294.24156631479474
21
128.7764571353075
31
8.459899447643692e-15
 62
256
 0
LINE
 8
Layer0_S_
10
294.24156631479474
20
128.7764571353075
30
8.459899447643692e-15
11
294.54126758230865
21
129.49999999999991
31
8.459899447643692e-15
 62
256
 0
LINE
 8
Layer0_S_
10
294.54126758230865
20
129.49999999999991
30
8.459899447643692e-15
11
295.0180234501023
21
130.12132034355957
31
8.459899447643692e-15
 62
256
 0
LINE
 8
Layer0_S_
10
295.0180234501023
20
130.12132034355957
30
8.459899447643692e-15
11
295.63934379366196
21
130.59807621135326
31
8.459899447643692e-15
 62
256
 0
LINE
 8
Layer0_S_
10
295.63934379366196
20
130.59807621135326
30
8.459899447643692e-15
11
296.3628866583544
21
130.89777747886714
31
8.459899447643692e-15
 62
256
 0
LINE
 8
Layer0_S_
10
296.3628866583544
20
130.89777747886714
30
8.459899447643692e-15
11
297.1393437936619
21
130.99999999999994
31
8.459899447643692e-15
 62
256
 0
LINE
 8
Layer0_S_
10
297.1393437936619
20
130.99999999999994
30
8.459899447643692e-15
11
297.9158009289695
21
130.89777747886714
31
8.459899447643692e-15
 62
256
 0
LINE
 8
Layer0_S_
10
297.9158009289695
20
130.89777747886714
30
8.459899447643692e-15
11
298.6393437936619
21
130.59807621135326
31
8.459899447643692e-15
 62
256
 0
LINE
 8
Layer0_S_
10
298.6393437936619
20
130.59807621135326
30
8.459899447643692e-15
11
299.26066413722157
21
130.1213203435596
31
8.459899447643692e-15
 62
256
 0
LINE
 8
Layer0_S_
10
299.26066413722157
20
130.1213203435596
30
8.459899447643692e-15
11
299.7374200050152
21
129.49999999999991
31
8.459899447643692e-15
 62
256
 0
LINE
 8
Layer0_S_
10
299.7374200050152
20
129.49999999999991
30
8.459899447643692e-15
11
300.03712127252913
21
128.7764571353075
31
8.459899447643692e-15
 62
256
 0
LINE
 8
Layer0_S_
10
300.03712127252913
20
128.7764571353075
30
8.459899447643692e-15
11
300.1393437936619
21
127.99999999999994
31
8.459899447643692e-15
 62
256
 0
LINE
 8
Layer0_S_
10
300.1393437936619
20
127.99999999999994
30
8.459899447643692e-15
11
300.03712127252913
21
127.22354286469239
31
8.459899447643692e-15
 62
256
 0
LINE
 8
Layer0_S_
10
438.13934379366196
20
45.00000000000001
30
0.0
11
414.1393437936619
21
45.00000000000001
31
0.0
 62
256
 0
LINE
 8
Layer0_S_
10
438.13934379366196
20
42.00000000000001
30
0.0
11
414.1393437936619
21
42.00000000000001
31
0.0
 62
256
 0
LINE
 8
Layer0_S_
10
414.1393437936619
20
45.00000000000001
30
0.0
11
413.7511152260082
21
44.94888873943361
31
0.0
 62
256
 0
LINE
 8
Layer0_S_
10
413.7511152260082
20
44.94888873943361
30
0.0
11
413.3893437936619
21
44.799038105676665
31
0.0
 62
256
 0
LINE
 8
Layer0_S_
10
413.3893437936619
20
44.799038105676665
30
0.0
11
413.0786836218821
21
44.56066017177983
31
0.0
 62
256
 0
LINE
 8
Layer0_S_
10
413.0786836218821
20
44.56066017177983
30
0.0
11
412.84030568798534
21
44.25000000000001
31
0.0
 62
256
 0
LINE
 8
Layer0_S_
10
412.84030568798534
20
44.25000000000001
30
0.0
11
412.6904550542283
21
43.8882285676538
31
0.0
 62
256
 0
LINE
 8
Layer0_S_
10
412.6904550542283
20
43.8882285676538
30
0.0
11
412.63934379366196
21
43.50000000000001
31
0.0
 62
256
 0
LINE
 8
Layer0_S_
10
412.63934379366196
20
43.50000000000001
30
0.0
11
412.6904550542283
21
43.11177143234623
31
0.0
 62
256
 0
LINE
 8
Layer0_S_
10
412.6904550542283
20
43.11177143234623
30
0.0
11
412.84030568798534
21
42.750000000000014
31
0.0
 62
256
 0
LINE
 8
Layer0_S_
10
412.84030568798534
20
42.750000000000014
30
0.0
11
413.0786836218821
21
42.43933982822019
31
0.0
 62
256
 0
LINE
 8
Layer0_S_
10
413.0786836218821
20
42.43933982822019
30
0.0
11
413.3893437936619
21
42.20096189432336
31
0.0
 62
256
 0
LINE
 8
Layer0_S_
10
413.3893437936619
20
42.20096189432336
30
0.0
11
413.7511152260082
21
42.051111260566415
31
0.0
 62
256
 0
LINE
 8
Layer0_S_
10
413.7511152260082
20
42.051111260566415
30
0.0
11
414.1393437936619
21
42.00000000000001
31
0.0
 62
256
 0
LINE
 8
Layer0_S_
10
438.13934379366196
20
45.00000000000001
30
0.0
11
438.5275723613157
21
44.94888873943361
31
0.0
 62
256
 0
LINE
 8
Layer0_S_
10
438.5275723613157
20
44.94888873943361
30
0.0
11
438.88934379366196
21
44.799038105676665
31
0.0
 62
256
 0
LINE
 8
Layer0_S_
10
438.88934379366196
20
44.799038105676665
30
0.0
11
439.20000396544174
21
44.56066017177983
31
0.0
 62
256
 0
LINE
 8
Layer0_S_
10
439.20000396544174
20
44.56066017177983
30
0.0
11
439.4383818993386
21
44.25000000000001
31
0.0
 62
256
 0
LINE
 8
Layer0_S_
10
439.4383818993386
20
44.25000000000001
30
0.0
11
439.58823253309555
21
43.8882285676538
31
0.0
 62
256
 0
LINE
 8
Layer0_S_
10
439.58823253309555
20
43.8882285676538
30
0.0
11
439.63934379366196
21
43.50000000000001
31
0.0
 62
256
 0
LINE
 8
Layer0_S_
10
439.63934379366196
20
43.50000000000001
30
0.0
11
439.58823253309555
21
43.11177143234623
31
0.0
 62
256
 0
LINE
 8
Layer0_S_
10
439.58823253309555
20
43.11177143234623
30
0.0
11
439.4383818993386
21
42.750000000000014
31
0.0
 62
256
 0
LINE
 8
Layer0_S_
10
439.4383818993386
20
42.750000000000014
30
0.0
11
439.20000396544174
21
42.43933982822019
31
0.0
 62
256
 0
LINE
 8
Layer0_S_
10
439.20000396544174
20
42.43933982822019
30
0.0
11
438.88934379366196
21
42.20096189432336
31
0.0
 62
256
 0
LINE
 8
Layer0_S_
10
438.88934379366196
20
42.20096189432336
30
0.0
11
438.5275723613157
21
42.051111260566415
31
0.0
 62
256
 0
LINE
 8
Layer0_S_
10
438.5275723613157
20
42.051111260566415
30
0.0
11
438.13934379366196
21
42.00000000000001
31
0.0
 62
256
 0
LINE
 8
Layer0_S_
10
438.13934379366196
20
25.000000000000004
30
0.0
11
414.1393437936619
21
25.000000000000004
31
0.0
 62
256
 0
LINE
 8
Layer0_S_
10
438.13934379366196
20
22.000000000000004
30
0.0
11
414.1393437936619
21
22.000000000000004
31
0.0
 62
256
 0
LINE
 8
Layer0_S_
10
438.13934379366196
20
25.000000000000004
30
0.0
11
438.5275723613157
21
24.948888739433606
31
0.0
 62
256
 0
LINE
 8
Layer0_S_
10
438.5275723613157
20
24.948888739433606
30
0.0
11
438.88934379366196
21
24.79903810567666
31
0.0
 62
256
 0
LINE
 8
Layer0_S_
10
438.88934379366196
20
24.79903810567666
30
0.0
11
439.20000396544174
21
24.560660171779826
31
0.0
 62
256
 0
LINE
 8
Layer0_S_
10
439.20000396544174
20
24.560660171779826
30
0.0
11
439.4383818993386
21
24.250000000000004
31
0.0
 62
256
 0
LINE
 8
Layer0_S_
10
439.4383818993386
20
24.250000000000004
30
0.0
11
439.58823253309555
21
23.888228567653787
31
0.0
 62
256
 0
LINE
 8
Layer0_S_
10
439.58823253309555
20
23.888228567653787
30
0.0
11
439.63934379366196
21
23.500000000000004
31
0.0
 62
256
 0
LINE
 8
Layer0_S_
10
439.63934379366196
20
23.500000000000004
30
0.0
11
439.58823253309555
21
23.111771432346224
31
0.0
 62
256
 0
LINE
 8
Layer0_S_
10
439.58823253309555
20
23.111771432346224
30
0.0
11
439.4383818993386
21
22.750000000000007
31
0.0
 62
256
 0
LINE
 8
Layer0_S_
10
439.4383818993386
20
22.750000000000007
30
0.0
11
439.20000396544174
21
22.439339828220184
31
0.0
 62
256
 0
LINE
 8
Layer0_S_
10
439.20000396544174
20
22.439339828220184
30
0.0
11
438.88934379366196
21
22.20096189432335
31
0.0
 62
256
 0
LINE
 8
Layer0_S_
10
438.88934379366196
20
22.20096189432335
30
0.0
11
438.5275723613157
21
22.051111260566405
31
0.0
 62
256
 0
LINE
 8
Layer0_S_
10
438.5275723613157
20
22.051111260566405
30
0.0
11
438.13934379366196
21
22.000000000000004
31
0.0
 62
256
 0
LINE
 8
Layer0_S_
10
414.1393437936619
20
25.000000000000004
30
0.0
11
413.7511152260082
21
24.948888739433606
31
0.0
 62
256
 0
LINE
 8
Layer0_S_
10
413.7511152260082
20
24.948888739433606
30
0.0
11
413.3893437936619
21
24.79903810567666
31
0.0
 62
256
 0
LINE
 8
Layer0_S_
10
413.3893437936619
20
24.79903810567666
30
0.0
11
413.0786836218821
21
24.560660171779826
31
0.0
 62
256
 0
LINE
 8
Layer0_S_
10
413.0786836218821
20
24.560660171779826
30
0.0
11
412.84030568798534
21
24.250000000000004
31
0.0
 62
256
 0
LINE
 8
Layer0_S_
10
412.84030568798534
20
24.250000000000004
30
0.0
11
412.6904550542283
21
23.888228567653787
31
0.0
 62
256
 0
LINE
 8
Layer0_S_
10
412.6904550542283
20
23.888228567653787
30
0.0
11
412.63934379366196
21
23.500000000000004
31
0.0
 62
256
 0
LINE
 8
Layer0_S_
10
412.63934379366196
20
23.500000000000004
30
0.0
11
412.6904550542283
21
23.111771432346224
31
0.0
 62
256
 0
LINE
 8
Layer0_S_
10
412.6904550542283
20
23.111771432346224
30
0.0
11
412.84030568798534
21
22.750000000000007
31
0.0
 62
256
 0
LINE
 8
Layer0_S_
10
412.84030568798534
20
22.750000000000007
30
0.0
11
413.0786836218821
21
22.439339828220184
31
0.0
 62
256
 0
LINE
 8
Layer0_S_
10
413.0786836218821
20
22.439339828220184
30
0.0
11
413.3893437936619
21
22.20096189432335
31
0.0
 62
256
 0
LINE
 8
Layer0_S_
10
413.3893437936619
20
22.20096189432335
30
0.0
11
413.7511152260082
21
22.051111260566405
31
0.0
 62
256
 0
LINE
 8
Layer0_S_
10
413.7511152260082
20
22.051111260566405
30
0.0
11
414.1393437936619
21
22.000000000000004
31
0.0
 62
256
 0
LINE
 8
Layer0_S_
10
416.1393437936619
20
69.99999999999999
30
8.459899447643692e-15
11
416.6504563993259
21
66.11771432346218
31
8.459899447643692e-15
 62
256
 0
LINE
 8
Layer0_S_
10
416.6504563993259
20
66.11771432346218
30
8.459899447643692e-15
11
418.1489627368954
21
62.499999999999986
31
8.459899447643692e-15
 62
256
 0
LINE
 8
Layer0_S_
10
418.1489627368954
20
62.499999999999986
30
8.459899447643692e-15
11
420.5327420758637
21
59.39339828220178
31
8.459899447643692e-15
 62
256
 0
LINE
 8
Layer0_S_
10
420.5327420758637
20
59.39339828220178
30
8.459899447643692e-15
11
423.6393437936619
21
57.00961894323341
31
8.459899447643692e-15
 62
256
 0
LINE
 8
Layer0_S_
10
423.6393437936619
20
57.00961894323341
30
8.459899447643692e-15
11
427.2570581171241
21
55.51111260566396
31
8.459899447643692e-15
 62
256
 0
LINE
 8
Layer0_S_
10
427.2570581171241
20
55.51111260566396
30
8.459899447643692e-15
11
431.1393437936619
21
54.99999999999999
31
8.459899447643692e-15
 62
256
 0
LINE
 8
Layer0_S_
10
431.1393437936619
20
54.99999999999999
30
8.459899447643692e-15
11
435.02162947019974
21
55.51111260566396
31
8.459899447643692e-15
 62
256
 0
LINE
 8
Layer0_S_
10
435.02162947019974
20
55.51111260566396
30
8.459899447643692e-15
11
438.6393437936619
21
57.009618943233406
31
8.459899447643692e-15
 62
256
 0
LINE
 8
Layer0_S_
10
438.6393437936619
20
57.009618943233406
30
8.459899447643692e-15
11
441.7459455114601
21
59.393398282201765
31
8.459899447643692e-15
 62
256
 0
LINE
 8
Layer0_S_
10
441.7459455114601
20
59.393398282201765
30
8.459899447643692e-15
11
444.1297248504285
21
62.49999999999998
31
8.459899447643692e-15
 62
256
 0
LINE
 8
Layer0_S_
10
444.1297248504285
20
62.49999999999998
30
8.459899447643692e-15
11
445.6282311879979
21
66.11771432346218
31
8.459899447643692e-15
 62
256
 0
LINE
 8
Layer0_S_
10
445.6282311879979
20
66.11771432346218
30
8.459899447643692e-15
11
446.1393437936619
21
69.99999999999999
31
8.459899447643692e-15
 62
256
 0
LINE
 8
Layer0_S_
10
446.1393437936619
20
69.99999999999999
30
8.459899447643692e-15
11
445.6282311879979
21
73.88228567653779
31
8.459899447643692e-15
 62
256
 0
LINE
 8
Layer0_S_
10
445.6282311879979
20
73.88228567653779
30
8.459899447643692e-15
11
444.1297248504285
21
77.49999999999999
31
8.459899447643692e-15
 62
256
 0
LINE
 8
Layer0_S_
10
444.1297248504285
20
77.49999999999999
30
8.459899447643692e-15
11
441.7459455114601
21
80.60660171779818
31
8.459899447643692e-15
 62
256
 0
LINE
 8
Layer0_S_
10
441.7459455114601
20
80.60660171779818
30
8.459899447643692e-15
11
438.6393437936619
21
82.99038105676655
31
8.459899447643692e-15
 62
256
 0
LINE
 8
Layer0_S_
10
438.6393437936619
20
82.99038105676655
30
8.459899447643692e-15
11
435.02162947019974
21
84.488887394336
31
8.459899447643692e-15
 62
256
 0
LINE
 8
Layer0_S_
10
435.02162947019974
20
84.488887394336
30
8.459899447643692e-15
11
431.1393437936619
21
84.99999999999999
31
8.459899447643692e-15
 62
256
 0
LINE
 8
Layer0_S_
10
431.1393437936619
20
84.99999999999999
30
8.459899447643692e-15
11
427.2570581171241
21
84.488887394336
31
8.459899447643692e-15
 62
256
 0
LINE
 8
Layer0_S_
10
427.2570581171241
20
84.488887394336
30
8.459899447643692e-15
11
423.6393437936619
21
82.99038105676657
31
8.459899447643692e-15
 62
256
 0
LINE
 8
Layer0_S_
10
423.6393437936619
20
82.99038105676657
30
8.459899447643692e-15
11
420.5327420758637
21
80.6066017177982
31
8.459899447643692e-15
 62
256
 0
LINE
 8
Layer0_S_
10
420.5327420758637
20
80.6066017177982
30
8.459899447643692e-15
11
418.1489627368954
21
77.5
31
8.459899447643692e-15
 62
256
 0
LINE
 8
Layer0_S_
10
418.1489627368954
20
77.5
30
8.459899447643692e-15
11
416.6504563993259
21
73.8822856765378
31
8.459899447643692e-15
 62
256
 0
LINE
 8
Layer0_S_
10
416.6504563993259
20
73.8822856765378
30
8.459899447643692e-15
11
416.1393437936619
21
69.99999999999999
31
8.459899447643692e-15
 62
256
 0
LINE
 8
Layer0_S_
10
416.1761709952974
20
84.96317279836451
30
8.459899447643692e-15
11
415.9934145793098
21
84.72499999999998
31
8.459899447643692e-15
 62
256
 0
LINE
 8
Layer0_S_
10
415.9934145793098
20
84.72499999999998
30
8.459899447643692e-15
11
415.87852909342945
21
84.44764190186788
31
8.459899447643692e-15
 62
256
 0
LINE
 8
Layer0_S_
10
415.87852909342945
20
84.44764190186788
30
8.459899447643692e-15
11
415.8393437936619
21
84.14999999999998
31
8.459899447643692e-15
 62
256
 0
LINE
 8
Layer0_S_
10
415.8393437936619
20
84.14999999999998
30
8.459899447643692e-15
11
415.87852909342945
21
83.85235809813207
31
8.459899447643692e-15
 62
256
 0
LINE
 8
Layer0_S_
10
415.87852909342945
20
83.85235809813207
30
8.459899447643692e-15
11
415.9934145793098
21
83.57499999999999
31
8.459899447643692e-15
 62
256
 0
LINE
 8
Layer0_S_
10
415.9934145793098
20
83.57499999999999
30
8.459899447643692e-15
11
416.1761709952974
21
83.33682720163546
31
8.459899447643692e-15
 62
256
 0
LINE
 8
Layer0_S_
10
416.1761709952974
20
83.33682720163546
30
8.459899447643692e-15
11
416.41434379366194
21
83.15407078564787
31
8.459899447643692e-15
 62
256
 0
LINE
 8
Layer0_S_
10
416.41434379366194
20
83.15407078564787
30
8.459899447643692e-15
11
416.691701891794
21
83.03918529976755
31
8.459899447643692e-15
 62
256
 0
LINE
 8
Layer0_S_
10
416.691701891794
20
83.03918529976755
30
8.459899447643692e-15
11
416.9893437936619
21
82.99999999999999
31
8.459899447643692e-15
 62
256
 0
LINE
 8
Layer0_S_
10
416.9893437936619
20
82.99999999999999
30
8.459899447643692e-15
11
417.28698569552984
21
83.03918529976755
31
8.459899447643692e-15
 62
256
 0
LINE
 8
Layer0_S_
10
417.28698569552984
20
83.03918529976755
30
8.459899447643692e-15
11
417.5643437936619
21
83.15407078564787
31
8.459899447643692e-15
 62
256
 0
LINE
 8
Layer0_S_
10
417.5643437936619
20
83.15407078564787
30
8.459899447643692e-15
11
417.80251659202645
21
83.33682720163546
31
8.459899447643692e-15
 62
256
 0
LINE
 8
Layer0_S_
10
417.80251659202645
20
83.33682720163546
30
8.459899447643692e-15
11
417.985273008014
21
83.57499999999999
31
8.459899447643692e-15
 62
256
 0
LINE
 8
Layer0_S_
10
417.985273008014
20
83.57499999999999
30
8.459899447643692e-15
11
418.10015849389436
21
83.85235809813207
31
8.459899447643692e-15
 62
256
 0
LINE
 8
Layer0_S_
10
418.10015849389436
20
83.85235809813207
30
8.459899447643692e-15
11
418.1393437936619
21
84.14999999999998
31
8.459899447643692e-15
 62
256
 0
LINE
 8
Layer0_S_
10
418.1393437936619
20
84.14999999999998
30
8.459899447643692e-15
11
418.10015849389436
21
84.44764190186788
31
8.459899447643692e-15
 62
256
 0
LINE
 8
Layer0_S_
10
418.10015849389436
20
84.44764190186788
30
8.459899447643692e-15
11
417.985273008014
21
84.72499999999998
31
8.459899447643692e-15
 62
256
 0
LINE
 8
Layer0_S_
10
417.985273008014
20
84.72499999999998
30
8.459899447643692e-15
11
417.80251659202645
21
84.96317279836451
31
8.459899447643692e-15
 62
256
 0
LINE
 8
Layer0_S_
10
417.80251659202645
20
84.96317279836451
30
8.459899447643692e-15
11
417.5643437936619
21
85.1459292143521
31
8.459899447643692e-15
 62
256
 0
LINE
 8
Layer0_S_
10
417.5643437936619
20
85.1459292143521
30
8.459899447643692e-15
11
417.28698569552984
21
85.26081470023242
31
8.459899447643692e-15
 62
256
 0
LINE
 8
Layer0_S_
10
417.28698569552984
20
85.26081470023242
30
8.459899447643692e-15
11
416.9893437936619
21
85.29999999999998
31
8.459899447643692e-15
 62
256
 0
LINE
 8
Layer0_S_
10
416.9893437936619
20
85.29999999999998
30
8.459899447643692e-15
11
416.691701891794
21
85.26081470023242
31
8.459899447643692e-15
 62
256
 0
LINE
 8
Layer0_S_
10
416.691701891794
20
85.26081470023242
30
8.459899447643692e-15
11
416.41434379366194
21
85.1459292143521
31
8.459899447643692e-15
 62
256
 0
LINE
 8
Layer0_S_
10
416.41434379366194
20
85.1459292143521
30
8.459899447643692e-15
11
416.1761709952974
21
84.96317279836451
31
8.459899447643692e-15
 62
256
 0
LINE
 8
Layer0_S_
10
416.1761709952974
20
55.03682720163546
30
8.459899447643692e-15
11
416.41434379366194
21
54.85407078564788
31
8.459899447643692e-15
 62
256
 0
LINE
 8
Layer0_S_
10
416.41434379366194
20
54.85407078564788
30
8.459899447643692e-15
11
416.691701891794
21
54.739185299767556
31
8.459899447643692e-15
 62
256
 0
LINE
 8
Layer0_S_
10
416.691701891794
20
54.739185299767556
30
8.459899447643692e-15
11
416.9893437936619
21
54.69999999999999
31
8.459899447643692e-15
 62
256
 0
LINE
 8
Layer0_S_
10
416.9893437936619
20
54.69999999999999
30
8.459899447643692e-15
11
417.28698569552984
21
54.739185299767556
31
8.459899447643692e-15
 62
256
 0
LINE
 8
Layer0_S_
10
417.28698569552984
20
54.739185299767556
30
8.459899447643692e-15
11
417.5643437936619
21
54.85407078564788
31
8.459899447643692e-15
 62
256
 0
LINE
 8
Layer0_S_
10
417.5643437936619
20
54.85407078564788
30
8.459899447643692e-15
11
417.80251659202645
21
55.03682720163546
31
8.459899447643692e-15
 62
256
 0
LINE
 8
Layer0_S_
10
417.80251659202645
20
55.03682720163546
30
8.459899447643692e-15
11
417.985273008014
21
55.27499999999999
31
8.459899447643692e-15
 62
256
 0
LINE
 8
Layer0_S_
10
417.985273008014
20
55.27499999999999
30
8.459899447643692e-15
11
418.10015849389436
21
55.55235809813208
31
8.459899447643692e-15
 62
256
 0
LINE
 8
Layer0_S_
10
418.10015849389436
20
55.55235809813208
30
8.459899447643692e-15
11
418.1393437936619
21
55.84999999999999
31
8.459899447643692e-15
 62
256
 0
LINE
 8
Layer0_S_
10
418.1393437936619
20
55.84999999999999
30
8.459899447643692e-15
11
418.10015849389436
21
56.14764190186789
31
8.459899447643692e-15
 62
256
 0
LINE
 8
Layer0_S_
10
418.10015849389436
20
56.14764190186789
30
8.459899447643692e-15
11
417.985273008014
21
56.42499999999998
31
8.459899447643692e-15
 62
256
 0
LINE
 8
Layer0_S_
10
417.985273008014
20
56.42499999999998
30
8.459899447643692e-15
11
417.80251659202645
21
56.66317279836452
31
8.459899447643692e-15
 62
256
 0
LINE
 8
Layer0_S_
10
417.80251659202645
20
56.66317279836452
30
8.459899447643692e-15
11
417.5643437936619
21
56.8459292143521
31
8.459899447643692e-15
 62
256
 0
LINE
 8
Layer0_S_
10
417.5643437936619
20
56.8459292143521
30
8.459899447643692e-15
11
417.28698569552984
21
56.96081470023242
31
8.459899447643692e-15
 62
256
 0
LINE
 8
Layer0_S_
10
417.28698569552984
20
56.96081470023242
30
8.459899447643692e-15
11
416.9893437936619
21
56.999999999999986
31
8.459899447643692e-15
 62
256
 0
LINE
 8
Layer0_S_
10
416.9893437936619
20
56.999999999999986
30
8.459899447643692e-15
11
416.691701891794
21
56.96081470023242
31
8.459899447643692e-15
 62
256
 0
LINE
 8
Layer0_S_
10
416.691701891794
20
56.96081470023242
30
8.459899447643692e-15
11
416.41434379366194
21
56.8459292143521
31
8.459899447643692e-15
 62
256
 0
LINE
 8
Layer0_S_
10
416.41434379366194
20
56.8459292143521
30
8.459899447643692e-15
11
416.1761709952974
21
56.66317279836452
31
8.459899447643692e-15
 62
256
 0
LINE
 8
Layer0_S_
10
416.1761709952974
20
56.66317279836452
30
8.459899447643692e-15
11
415.9934145793098
21
56.42499999999998
31
8.459899447643692e-15
 62
256
 0
LINE
 8
Layer0_S_
10
415.9934145793098
20
56.42499999999998
30
8.459899447643692e-15
11
415.87852909342945
21
56.14764190186789
31
8.459899447643692e-15
 62
256
 0
LINE
 8
Layer0_S_
10
415.87852909342945
20
56.14764190186789
30
8.459899447643692e-15
11
415.8393437936619
21
55.84999999999999
31
8.459899447643692e-15
 62
256
 0
LINE
 8
Layer0_S_
10
415.8393437936619
20
55.84999999999999
30
8.459899447643692e-15
11
415.87852909342945
21
55.55235809813208
31
8.459899447643692e-15
 62
256
 0
LINE
 8
Layer0_S_
10
415.87852909342945
20
55.55235809813208
30
8.459899447643692e-15
11
415.9934145793098
21
55.27499999999999
31
8.459899447643692e-15
 62
256
 0
LINE
 8
Layer0_S_
10
415.9934145793098
20
55.27499999999999
30
8.459899447643692e-15
11
416.1761709952974
21
55.03682720163546
31
8.459899447643692e-15
 62
256
 0
LINE
 8
Layer0_S_
10
444.1393437936619
20
55.84999999999999
30
8.459899447643692e-15
11
444.1785290934295
21
55.55235809813208
31
8.459899447643692e-15
 62
256
 0
LINE
 8
Layer0_S_
10
444.1785290934295
20
55.55235809813208
30
8.459899447643692e-15
11
444.29341457930985
21
55.27499999999999
31
8.459899447643692e-15
 62
256
 0
LINE
 8
Layer0_S_
10
444.29341457930985
20
55.27499999999999
30
8.459899447643692e-15
11
444.47617099529737
21
55.03682720163546
31
8.459899447643692e-15
 62
256
 0
LINE
 8
Layer0_S_
10
444.47617099529737
20
55.03682720163546
30
8.459899447643692e-15
11
444.7143437936619
21
54.85407078564788
31
8.459899447643692e-15
 62
256
 0
LINE
 8
Layer0_S_
10
444.7143437936619
20
54.85407078564788
30
8.459899447643692e-15
11
444.991701891794
21
54.73918529976757
31
8.459899447643692e-15
 62
256
 0
LINE
 8
Layer0_S_
10
444.991701891794
20
54.73918529976757
30
8.459899447643692e-15
11
445.28934379366194
21
54.69999999999999
31
8.459899447643692e-15
 62
256
 0
LINE
 8
Layer0_S_
10
445.28934379366194
20
54.69999999999999
30
8.459899447643692e-15
11
445.5869856955298
21
54.73918529976757
31
8.459899447643692e-15
 62
256
 0
LINE
 8
Layer0_S_
10
445.5869856955298
20
54.73918529976757
30
8.459899447643692e-15
11
445.86434379366193
21
54.85407078564788
31
8.459899447643692e-15
 62
256
 0
LINE
 8
Layer0_S_
10
445.86434379366193
20
54.85407078564788
30
8.459899447643692e-15
11
446.1025165920264
21
55.03682720163546
31
8.459899447643692e-15
 62
256
 0
LINE
 8
Layer0_S_
10
446.1025165920264
20
55.03682720163546
30
8.459899447643692e-15
11
446.285273008014
21
55.27499999999999
31
8.459899447643692e-15
 62
256
 0
LINE
 8
Layer0_S_
10
446.285273008014
20
55.27499999999999
30
8.459899447643692e-15
11
446.4001584938943
21
55.55235809813208
31
8.459899447643692e-15
 62
256
 0
LINE
 8
Layer0_S_
10
446.4001584938943
20
55.55235809813208
30
8.459899447643692e-15
11
446.439343793662
21
55.84999999999999
31
8.459899447643692e-15
 62
256
 0
LINE
 8
Layer0_S_
10
446.439343793662
20
55.84999999999999
30
8.459899447643692e-15
11
446.4001584938943
21
56.14764190186789
31
8.459899447643692e-15
 62
256
 0
LINE
 8
Layer0_S_
10
446.4001584938943
20
56.14764190186789
30
8.459899447643692e-15
11
446.285273008014
21
56.42499999999998
31
8.459899447643692e-15
 62
256
 0
LINE
 8
Layer0_S_
10
446.285273008014
20
56.42499999999998
30
8.459899447643692e-15
11
446.1025165920264
21
56.66317279836452
31
8.459899447643692e-15
 62
256
 0
LINE
 8
Layer0_S_
10
446.1025165920264
20
56.66317279836452
30
8.459899447643692e-15
11
445.86434379366193
21
56.8459292143521
31
8.459899447643692e-15
 62
256
 0
LINE
 8
Layer0_S_
10
445.86434379366193
20
56.8459292143521
30
8.459899447643692e-15
11
445.5869856955298
21
56.96081470023241
31
8.459899447643692e-15
 62
256
 0
LINE
 8
Layer0_S_
10
445.5869856955298
20
56.96081470023241
30
8.459899447643692e-15
11
445.28934379366194
21
56.999999999999986
31
8.459899447643692e-15
 62
256
 0
LINE
 8
Layer0_S_
10
445.28934379366194
20
56.999999999999986
30
8.459899447643692e-15
11
444.991701891794
21
56.96081470023241
31
8.459899447643692e-15
 62
256
 0
LINE
 8
Layer0_S_
10
444.991701891794
20
56.96081470023241
30
8.459899447643692e-15
11
444.7143437936619
21
56.8459292143521
31
8.459899447643692e-15
 62
256
 0
LINE
 8
Layer0_S_
10
444.7143437936619
20
56.8459292143521
30
8.459899447643692e-15
11
444.47617099529737
21
56.66317279836452
31
8.459899447643692e-15
 62
256
 0
LINE
 8
Layer0_S_
10
444.47617099529737
20
56.66317279836452
30
8.459899447643692e-15
11
444.29341457930985
21
56.42499999999998
31
8.459899447643692e-15
 62
256
 0
LINE
 8
Layer0_S_
10
444.29341457930985
20
56.42499999999998
30
8.459899447643692e-15
11
444.1785290934295
21
56.14764190186789
31
8.459899447643692e-15
 62
256
 0
LINE
 8
Layer0_S_
10
444.1785290934295
20
56.14764190186789
30
8.459899447643692e-15
11
444.1393437936619
21
55.84999999999999
31
8.459899447643692e-15
 62
256
 0
LINE
 8
Layer0_S_
10
444.7143437936619
20
83.15407078564787
30
8.459899447643692e-15
11
444.991701891794
21
83.03918529976755
31
8.459899447643692e-15
 62
256
 0
LINE
 8
Layer0_S_
10
444.991701891794
20
83.03918529976755
30
8.459899447643692e-15
11
445.28934379366194
21
82.99999999999999
31
8.459899447643692e-15
 62
256
 0
LINE
 8
Layer0_S_
10
445.28934379366194
20
82.99999999999999
30
8.459899447643692e-15
11
445.5869856955298
21
83.03918529976755
31
8.459899447643692e-15
 62
256
 0
LINE
 8
Layer0_S_
10
445.5869856955298
20
83.03918529976755
30
8.459899447643692e-15
11
445.86434379366193
21
83.15407078564787
31
8.459899447643692e-15
 62
256
 0
LINE
 8
Layer0_S_
10
445.86434379366193
20
83.15407078564787
30
8.459899447643692e-15
11
446.1025165920264
21
83.33682720163546
31
8.459899447643692e-15
 62
256
 0
LINE
 8
Layer0_S_
10
446.1025165920264
20
83.33682720163546
30
8.459899447643692e-15
11
446.2852730080141
21
83.57499999999999
31
8.459899447643692e-15
 62
256
 0
LINE
 8
Layer0_S_
10
446.2852730080141
20
83.57499999999999
30
8.459899447643692e-15
11
446.40015849389437
21
83.85235809813207
31
8.459899447643692e-15
 62
256
 0
LINE
 8
Layer0_S_
10
446.40015849389437
20
83.85235809813207
30
8.459899447643692e-15
11
446.439343793662
21
84.14999999999998
31
8.459899447643692e-15
 62
256
 0
LINE
 8
Layer0_S_
10
446.439343793662
20
84.14999999999998
30
8.459899447643692e-15
11
446.4001584938943
21
84.44764190186788
31
8.459899447643692e-15
 62
256
 0
LINE
 8
Layer0_S_
10
446.4001584938943
20
84.44764190186788
30
8.459899447643692e-15
11
446.285273008014
21
84.72499999999998
31
8.459899447643692e-15
 62
256
 0
LINE
 8
Layer0_S_
10
446.285273008014
20
84.72499999999998
30
8.459899447643692e-15
11
446.1025165920264
21
84.96317279836451
31
8.459899447643692e-15
 62
256
 0
LINE
 8
Layer0_S_
10
446.1025165920264
20
84.96317279836451
30
8.459899447643692e-15
11
445.86434379366193
21
85.1459292143521
31
8.459899447643692e-15
 62
256
 0
LINE
 8
Layer0_S_
10
445.86434379366193
20
85.1459292143521
30
8.459899447643692e-15
11
445.5869856955298
21
85.26081470023242
31
8.459899447643692e-15
 62
256
 0
LINE
 8
Layer0_S_
10
445.5869856955298
20
85.26081470023242
30
8.459899447643692e-15
11
445.28934379366194
21
85.29999999999998
31
8.459899447643692e-15
 62
256
 0
LINE
 8
Layer0_S_
10
445.28934379366194
20
85.29999999999998
30
8.459899447643692e-15
11
444.991701891794
21
85.26081470023242
31
8.459899447643692e-15
 62
256
 0
LINE
 8
Layer0_S_
10
444.991701891794
20
85.26081470023242
30
8.459899447643692e-15
11
444.7143437936619
21
85.1459292143521
31
8.459899447643692e-15
 62
256
 0
LINE
 8
Layer0_S_
10
444.7143437936619
20
85.1459292143521
30
8.459899447643692e-15
11
444.47617099529737
21
84.96317279836451
31
8.459899447643692e-15
 62
256
 0
LINE
 8
Layer0_S_
10
444.47617099529737
20
84.96317279836451
30
8.459899447643692e-15
11
444.29341457930985
21
84.72499999999998
31
8.459899447643692e-15
 62
256
 0
LINE
 8
Layer0_S_
10
444.29341457930985
20
84.72499999999998
30
8.459899447643692e-15
11
444.1785290934295
21
84.44764190186788
31
8.459899447643692e-15
 62
256
 0
LINE
 8
Layer0_S_
10
444.1785290934295
20
84.44764190186788
30
8.459899447643692e-15
11
444.1393437936619
21
84.14999999999998
31
8.459899447643692e-15
 62
256
 0
LINE
 8
Layer0_S_
10
444.1393437936619
20
84.14999999999998
30
8.459899447643692e-15
11
444.1785290934295
21
83.85235809813207
31
8.459899447643692e-15
 62
256
 0
LINE
 8
Layer0_S_
10
444.1785290934295
20
83.85235809813207
30
8.459899447643692e-15
11
444.29341457930985
21
83.57499999999999
31
8.459899447643692e-15
 62
256
 0
LINE
 8
Layer0_S_
10
444.29341457930985
20
83.57499999999999
30
8.459899447643692e-15
11
444.47617099529737
21
83.33682720163546
31
8.459899447643692e-15
 62
256
 0
LINE
 8
Layer0_S_
10
444.47617099529737
20
83.33682720163546
30
8.459899447643692e-15
11
444.7143437936619
21
83.15407078564787
31
8.459899447643692e-15
 62
256
 0
LINE
 8
Layer0_S_
10
309.41434379366194
20
54.85407078564789
30
8.459899447643692e-15
11
309.691701891794
21
54.73918529976757
31
8.459899447643692e-15
 62
256
 0
LINE
 8
Layer0_S_
10
309.691701891794
20
54.73918529976757
30
8.459899447643692e-15
11
309.98934379366193
21
54.69999999999999
31
8.459899447643692e-15
 62
256
 0
LINE
 8
Layer0_S_
10
309.98934379366193
20
54.69999999999999
30
8.459899447643692e-15
11
310.28698569552984
21
54.739185299767556
31
8.459899447643692e-15
 62
256
 0
LINE
 8
Layer0_S_
10
310.28698569552984
20
54.739185299767556
30
8.459899447643692e-15
11
310.564343793662
21
54.85407078564788
31
8.459899447643692e-15
 62
256
 0
LINE
 8
Layer0_S_
10
310.564343793662
20
54.85407078564788
30
8.459899447643692e-15
11
310.80251659202645
21
55.03682720163546
31
8.459899447643692e-15
 62
256
 0
LINE
 8
Layer0_S_
10
310.80251659202645
20
55.03682720163546
30
8.459899447643692e-15
11
310.9852730080141
21
55.27499999999999
31
8.459899447643692e-15
 62
256
 0
LINE
 8
Layer0_S_
10
310.9852730080141
20
55.27499999999999
30
8.459899447643692e-15
11
311.1001584938944
21
55.552358098132096
31
8.459899447643692e-15
 62
256
 0
LINE
 8
Layer0_S_
10
311.1001584938944
20
55.552358098132096
30
8.459899447643692e-15
11
311.13934379366196
21
55.85
31
8.459899447643692e-15
 62
256
 0
LINE
 8
Layer0_S_
10
311.13934379366196
20
55.85
30
8.459899447643692e-15
11
311.1001584938944
21
56.14764190186789
31
8.459899447643692e-15
 62
256
 0
LINE
 8
Layer0_S_
10
311.1001584938944
20
56.14764190186789
30
8.459899447643692e-15
11
310.9852730080141
21
56.425000000000004
31
8.459899447643692e-15
 62
256
 0
LINE
 8
Layer0_S_
10
310.9852730080141
20
56.425000000000004
30
8.459899447643692e-15
11
310.80251659202645
21
56.66317279836453
31
8.459899447643692e-15
 62
256
 0
LINE
 8
Layer0_S_
10
310.80251659202645
20
56.66317279836453
30
8.459899447643692e-15
11
310.564343793662
21
56.845929214352104
31
8.459899447643692e-15
 62
256
 0
LINE
 8
Layer0_S_
10
310.564343793662
20
56.845929214352104
30
8.459899447643692e-15
11
310.28698569552984
21
56.96081470023243
31
8.459899447643692e-15
 62
256
 0
LINE
 8
Layer0_S_
10
310.28698569552984
20
56.96081470023243
30
8.459899447643692e-15
11
309.98934379366193
21
57.00000000000001
31
8.459899447643692e-15
 62
256
 0
LINE
 8
Layer0_S_
10
309.98934379366193
20
57.00000000000001
30
8.459899447643692e-15
11
309.691701891794
21
56.96081470023244
31
8.459899447643692e-15
 62
256
 0
LINE
 8
Layer0_S_
10
309.691701891794
20
56.96081470023244
30
8.459899447643692e-15
11
309.41434379366194
21
56.84592921435212
31
8.459899447643692e-15
 62
256
 0
LINE
 8
Layer0_S_
10
309.41434379366194
20
56.84592921435212
30
8.459899447643692e-15
11
309.1761709952974
21
56.66317279836454
31
8.459899447643692e-15
 62
256
 0
LINE
 8
Layer0_S_
10
309.1761709952974
20
56.66317279836454
30
8.459899447643692e-15
11
308.99341457930984
21
56.425000000000004
31
8.459899447643692e-15
 62
256
 0
LINE
 8
Layer0_S_
10
308.99341457930984
20
56.425000000000004
30
8.459899447643692e-15
11
308.8785290934295
21
56.1476419018679
31
8.459899447643692e-15
 62
256
 0
LINE
 8
Layer0_S_
10
308.8785290934295
20
56.1476419018679
30
8.459899447643692e-15
11
308.83934379366195
21
55.85
31
8.459899447643692e-15
 62
256
 0
LINE
 8
Layer0_S_
10
308.83934379366195
20
55.85
30
8.459899447643692e-15
11
308.8785290934295
21
55.55235809813211
31
8.459899447643692e-15
 62
256
 0
LINE
 8
Layer0_S_
10
308.8785290934295
20
55.55235809813211
30
8.459899447643692e-15
11
308.99341457930984
21
55.27499999999999
31
8.459899447643692e-15
 62
256
 0
LINE
 8
Layer0_S_
10
308.99341457930984
20
55.27499999999999
30
8.459899447643692e-15
11
309.17617099529735
21
55.03682720163547
31
8.459899447643692e-15
 62
256
 0
LINE
 8
Layer0_S_
10
309.17617099529735
20
55.03682720163547
30
8.459899447643692e-15
11
309.41434379366194
21
54.85407078564789
31
8.459899447643692e-15
 62
256
 0
LINE
 8
Layer0_S_
10
337.4761709952974
20
55.03682720163546
30
8.459899447643692e-15
11
337.71434379366195
21
54.85407078564788
31
8.459899447643692e-15
 62
256
 0
LINE
 8
Layer0_S_
10
337.71434379366195
20
54.85407078564788
30
8.459899447643692e-15
11
337.99170189179404
21
54.739185299767556
31
8.459899447643692e-15
 62
256
 0
LINE
 8
Layer0_S_
10
337.99170189179404
20
54.739185299767556
30
8.459899447643692e-15
11
338.28934379366194
21
54.69999999999999
31
8.459899447643692e-15
 62
256
 0
LINE
 8
Layer0_S_
10
338.28934379366194
20
54.69999999999999
30
8.459899447643692e-15
11
338.58698569552985
21
54.73918529976757
31
8.459899447643692e-15
 62
256
 0
LINE
 8
Layer0_S_
10
338.58698569552985
20
54.73918529976757
30
8.459899447643692e-15
11
338.864343793662
21
54.85407078564789
31
8.459899447643692e-15
 62
256
 0
LINE
 8
Layer0_S_
10
338.864343793662
20
54.85407078564789
30
8.459899447643692e-15
11
339.1025165920265
21
55.03682720163547
31
8.459899447643692e-15
 62
256
 0
LINE
 8
Layer0_S_
10
339.1025165920265
20
55.03682720163547
30
8.459899447643692e-15
11
339.2852730080141
21
55.27499999999999
31
8.459899447643692e-15
 62
256
 0
LINE
 8
Layer0_S_
10
339.2852730080141
20
55.27499999999999
30
8.459899447643692e-15
11
339.4001584938944
21
55.55235809813211
31
8.459899447643692e-15
 62
256
 0
LINE
 8
Layer0_S_
10
339.4001584938944
20
55.55235809813211
30
8.459899447643692e-15
11
339.439343793662
21
55.85000000000001
31
8.459899447643692e-15
 62
256
 0
LINE
 8
Layer0_S_
10
339.439343793662
20
55.85000000000001
30
8.459899447643692e-15
11
339.4001584938944
21
56.147641901867914
31
8.459899447643692e-15
 62
256
 0
LINE
 8
Layer0_S_
10
339.4001584938944
20
56.147641901867914
30
8.459899447643692e-15
11
339.28527300801403
21
56.425000000000004
31
8.459899447643692e-15
 62
256
 0
LINE
 8
Layer0_S_
10
339.28527300801403
20
56.425000000000004
30
8.459899447643692e-15
11
339.1025165920265
21
56.66317279836454
31
8.459899447643692e-15
 62
256
 0
LINE
 8
Layer0_S_
10
339.1025165920265
20
56.66317279836454
30
8.459899447643692e-15
11
338.864343793662
21
56.84592921435212
31
8.459899447643692e-15
 62
256
 0
LINE
 8
Layer0_S_
10
338.864343793662
20
56.84592921435212
30
8.459899447643692e-15
11
338.58698569552985
21
56.96081470023244
31
8.459899447643692e-15
 62
256
 0
LINE
 8
Layer0_S_
10
338.58698569552985
20
56.96081470023244
30
8.459899447643692e-15
11
338.28934379366194
21
57.00000000000001
31
8.459899447643692e-15
 62
256
 0
LINE
 8
Layer0_S_
10
338.28934379366194
20
57.00000000000001
30
8.459899447643692e-15
11
337.99170189179404
21
56.96081470023243
31
8.459899447643692e-15
 62
256
 0
LINE
 8
Layer0_S_
10
337.99170189179404
20
56.96081470023243
30
8.459899447643692e-15
11
337.71434379366195
21
56.845929214352104
31
8.459899447643692e-15
 62
256
 0
LINE
 8
Layer0_S_
10
337.71434379366195
20
56.845929214352104
30
8.459899447643692e-15
11
337.4761709952974
21
56.66317279836453
31
8.459899447643692e-15
 62
256
 0
LINE
 8
Layer0_S_
10
337.4761709952974
20
56.66317279836453
30
8.459899447643692e-15
11
337.29341457930985
21
56.425000000000004
31
8.459899447643692e-15
 62
256
 0
LINE
 8
Layer0_S_
10
337.29341457930985
20
56.425000000000004
30
8.459899447643692e-15
11
337.1785290934295
21
56.14764190186789
31
8.459899447643692e-15
 62
256
 0
LINE
 8
Layer0_S_
10
337.1785290934295
20
56.14764190186789
30
8.459899447643692e-15
11
337.13934379366196
21
55.84999999999999
31
8.459899447643692e-15
 62
256
 0
LINE
 8
Layer0_S_
10
337.13934379366196
20
55.84999999999999
30
8.459899447643692e-15
11
337.1785290934295
21
55.55235809813208
31
8.459899447643692e-15
 62
256
 0
LINE
 8
Layer0_S_
10
337.1785290934295
20
55.55235809813208
30
8.459899447643692e-15
11
337.29341457930985
21
55.27499999999999
31
8.459899447643692e-15
 62
256
 0
LINE
 8
Layer0_S_
10
337.29341457930985
20
55.27499999999999
30
8.459899447643692e-15
11
337.4761709952974
21
55.03682720163546
31
8.459899447643692e-15
 62
256
 0
LINE
 8
Layer0_S_
10
337.29341457930985
20
83.57499999999999
30
8.459899447643692e-15
11
337.4761709952974
21
83.33682720163546
31
8.459899447643692e-15
 62
256
 0
LINE
 8
Layer0_S_
10
337.4761709952974
20
83.33682720163546
30
8.459899447643692e-15
11
337.71434379366195
21
83.15407078564789
31
8.459899447643692e-15
 62
256
 0
LINE
 8
Layer0_S_
10
337.71434379366195
20
83.15407078564789
30
8.459899447643692e-15
11
337.99170189179404
21
83.03918529976755
31
8.459899447643692e-15
 62
256
 0
LINE
 8
Layer0_S_
10
337.99170189179404
20
83.03918529976755
30
8.459899447643692e-15
11
338.28934379366194
21
82.99999999999999
31
8.459899447643692e-15
 62
256
 0
LINE
 8
Layer0_S_
10
338.28934379366194
20
82.99999999999999
30
8.459899447643692e-15
11
338.58698569552985
21
83.03918529976755
31
8.459899447643692e-15
 62
256
 0
LINE
 8
Layer0_S_
10
338.58698569552985
20
83.03918529976755
30
8.459899447643692e-15
11
338.864343793662
21
83.15407078564787
31
8.459899447643692e-15
 62
256
 0
LINE
 8
Layer0_S_
10
338.864343793662
20
83.15407078564787
30
8.459899447643692e-15
11
339.1025165920265
21
83.33682720163546
31
8.459899447643692e-15
 62
256
 0
LINE
 8
Layer0_S_
10
339.1025165920265
20
83.33682720163546
30
8.459899447643692e-15
11
339.28527300801403
21
83.57499999999999
31
8.459899447643692e-15
 62
256
 0
LINE
 8
Layer0_S_
10
339.28527300801403
20
83.57499999999999
30
8.459899447643692e-15
11
339.4001584938944
21
83.85235809813209
31
8.459899447643692e-15
 62
256
 0
LINE
 8
Layer0_S_
10
339.4001584938944
20
83.85235809813209
30
8.459899447643692e-15
11
339.439343793662
21
84.14999999999999
31
8.459899447643692e-15
 62
256
 0
LINE
 8
Layer0_S_
10
339.439343793662
20
84.14999999999999
30
8.459899447643692e-15
11
339.4001584938944
21
84.44764190186788
31
8.459899447643692e-15
 62
256
 0
LINE
 8
Layer0_S_
10
339.4001584938944
20
84.44764190186788
30
8.459899447643692e-15
11
339.2852730080141
21
84.725
31
8.459899447643692e-15
 62
256
 0
LINE
 8
Layer0_S_
10
339.2852730080141
20
84.725
30
8.459899447643692e-15
11
339.1025165920265
21
84.96317279836452
31
8.459899447643692e-15
 62
256
 0
LINE
 8
Layer0_S_
10
339.1025165920265
20
84.96317279836452
30
8.459899447643692e-15
11
338.864343793662
21
85.1459292143521
31
8.459899447643692e-15
 62
256
 0
LINE
 8
Layer0_S_
10
338.864343793662
20
85.1459292143521
30
8.459899447643692e-15
11
338.58698569552985
21
85.26081470023243
31
8.459899447643692e-15
 62
256
 0
LINE
 8
Layer0_S_
10
338.58698569552985
20
85.26081470023243
30
8.459899447643692e-15
11
338.28934379366194
21
85.3
31
8.459899447643692e-15
 62
256
 0
LINE
 8
Layer0_S_
10
338.28934379366194
20
85.3
30
8.459899447643692e-15
11
337.99170189179404
21
85.26081470023243
31
8.459899447643692e-15
 62
256
 0
LINE
 8
Layer0_S_
10
337.99170189179404
20
85.26081470023243
30
8.459899447643692e-15
11
337.71434379366195
21
85.14592921435211
31
8.459899447643692e-15
 62
256
 0
LINE
 8
Layer0_S_
10
337.71434379366195
20
85.14592921435211
30
8.459899447643692e-15
11
337.4761709952974
21
84.96317279836454
31
8.459899447643692e-15
 62
256
 0
LINE
 8
Layer0_S_
10
337.4761709952974
20
84.96317279836454
30
8.459899447643692e-15
11
337.29341457930985
21
84.725
31
8.459899447643692e-15
 62
256
 0
LINE
 8
Layer0_S_
10
337.29341457930985
20
84.725
30
8.459899447643692e-15
11
337.1785290934295
21
84.4476419018679
31
8.459899447643692e-15
 62
256
 0
LINE
 8
Layer0_S_
10
337.1785290934295
20
84.4476419018679
30
8.459899447643692e-15
11
337.13934379366196
21
84.14999999999999
31
8.459899447643692e-15
 62
256
 0
LINE
 8
Layer0_S_
10
337.13934379366196
20
84.14999999999999
30
8.459899447643692e-15
11
337.1785290934295
21
83.8523580981321
31
8.459899447643692e-15
 62
256
 0
LINE
 8
Layer0_S_
10
337.1785290934295
20
83.8523580981321
30
8.459899447643692e-15
11
337.29341457930985
21
83.57499999999999
31
8.459899447643692e-15
 62
256
 0
LINE
 8
Layer0_S_
10
309.41434379366194
20
85.1459292143521
30
8.459899447643692e-15
11
309.17617099529735
21
84.96317279836452
31
8.459899447643692e-15
 62
256
 0
LINE
 8
Layer0_S_
10
309.17617099529735
20
84.96317279836452
30
8.459899447643692e-15
11
308.99341457930984
21
84.725
31
8.459899447643692e-15
 62
256
 0
LINE
 8
Layer0_S_
10
308.99341457930984
20
84.725
30
8.459899447643692e-15
11
308.8785290934295
21
84.44764190186788
31
8.459899447643692e-15
 62
256
 0
LINE
 8
Layer0_S_
10
308.8785290934295
20
84.44764190186788
30
8.459899447643692e-15
11
308.83934379366195
21
84.14999999999999
31
8.459899447643692e-15
 62
256
 0
LINE
 8
Layer0_S_
10
308.83934379366195
20
84.14999999999999
30
8.459899447643692e-15
11
308.8785290934295
21
83.85235809813209
31
8.459899447643692e-15
 62
256
 0
LINE
 8
Layer0_S_
10
308.8785290934295
20
83.85235809813209
30
8.459899447643692e-15
11
308.99341457930984
21
83.57499999999999
31
8.459899447643692e-15
 62
256
 0
LINE
 8
Layer0_S_
10
308.99341457930984
20
83.57499999999999
30
8.459899447643692e-15
11
309.1761709952974
21
83.33682720163546
31
8.459899447643692e-15
 62
256
 0
LINE
 8
Layer0_S_
10
309.1761709952974
20
83.33682720163546
30
8.459899447643692e-15
11
309.41434379366194
21
83.15407078564787
31
8.459899447643692e-15
 62
256
 0
LINE
 8
Layer0_S_
10
309.41434379366194
20
83.15407078564787
30
8.459899447643692e-15
11
309.691701891794
21
83.03918529976755
31
8.459899447643692e-15
 62
256
 0
LINE
 8
Layer0_S_
10
309.691701891794
20
83.03918529976755
30
8.459899447643692e-15
11
309.98934379366193
21
82.99999999999999
31
8.459899447643692e-15
 62
256
 0
LINE
 8
Layer0_S_
10
309.98934379366193
20
82.99999999999999
30
8.459899447643692e-15
11
310.28698569552984
21
83.03918529976755
31
8.459899447643692e-15
 62
256
 0
LINE
 8
Layer0_S_
10
310.28698569552984
20
83.03918529976755
30
8.459899447643692e-15
11
310.564343793662
21
83.15407078564789
31
8.459899447643692e-15
 62
256
 0
LINE
 8
Layer0_S_
10
310.564343793662
20
83.15407078564789
30
8.459899447643692e-15
11
310.80251659202645
21
83.33682720163546
31
8.459899447643692e-15
 62
256
 0
LINE
 8
Layer0_S_
10
310.80251659202645
20
83.33682720163546
30
8.459899447643692e-15
11
310.9852730080141
21
83.57499999999999
31
8.459899447643692e-15
 62
256
 0
LINE
 8
Layer0_S_
10
310.9852730080141
20
83.57499999999999
30
8.459899447643692e-15
11
311.1001584938944
21
83.8523580981321
31
8.459899447643692e-15
 62
256
 0
LINE
 8
Layer0_S_
10
311.1001584938944
20
83.8523580981321
30
8.459899447643692e-15
11
311.13934379366196
21
84.14999999999999
31
8.459899447643692e-15
 62
256
 0
LINE
 8
Layer0_S_
10
311.13934379366196
20
84.14999999999999
30
8.459899447643692e-15
11
311.1001584938944
21
84.4476419018679
31
8.459899447643692e-15
 62
256
 0
LINE
 8
Layer0_S_
10
311.1001584938944
20
84.4476419018679
30
8.459899447643692e-15
11
310.9852730080141
21
84.725
31
8.459899447643692e-15
 62
256
 0
LINE
 8
Layer0_S_
10
310.9852730080141
20
84.725
30
8.459899447643692e-15
11
310.80251659202645
21
84.96317279836452
31
8.459899447643692e-15
 62
256
 0
LINE
 8
Layer0_S_
10
310.80251659202645
20
84.96317279836452
30
8.459899447643692e-15
11
310.564343793662
21
85.14592921435211
31
8.459899447643692e-15
 62
256
 0
LINE
 8
Layer0_S_
10
310.564343793662
20
85.14592921435211
30
8.459899447643692e-15
11
310.28698569552984
21
85.26081470023243
31
8.459899447643692e-15
 62
256
 0
LINE
 8
Layer0_S_
10
310.28698569552984
20
85.26081470023243
30
8.459899447643692e-15
11
309.98934379366193
21
85.3
31
8.459899447643692e-15
 62
256
 0
LINE
 8
Layer0_S_
10
309.98934379366193
20
85.3
30
8.459899447643692e-15
11
309.691701891794
21
85.26081470023243
31
8.459899447643692e-15
 62
256
 0
LINE
 8
Layer0_S_
10
309.691701891794
20
85.26081470023243
30
8.459899447643692e-15
11
309.41434379366194
21
85.1459292143521
31
8.459899447643692e-15
 62
256
 0
LINE
 8
Layer0_S_
10
309.65045639932595
20
73.88228567653782
30
8.459899447643692e-15
11
309.13934379366196
21
70.0
31
8.459899447643692e-15
 62
256
 0
LINE
 8
Layer0_S_
10
309.13934379366196
20
70.0
30
8.459899447643692e-15
11
309.6504563993259
21
66.1177143234622
31
8.459899447643692e-15
 62
256
 0
LINE
 8
Layer0_S_
10
309.6504563993259
20
66.1177143234622
30
8.459899447643692e-15
11
311.1489627368953
21
62.5
31
8.459899447643692e-15
 62
256
 0
LINE
 8
Layer0_S_
10
311.1489627368953
20
62.5
30
8.459899447643692e-15
11
313.5327420758637
21
59.393398282201794
31
8.459899447643692e-15
 62
256
 0
LINE
 8
Layer0_S_
10
313.5327420758637
20
59.393398282201794
30
8.459899447643692e-15
11
316.6393437936619
21
57.00961894323343
31
8.459899447643692e-15
 62
256
 0
LINE
 8
Layer0_S_
10
316.6393437936619
20
57.00961894323343
30
8.459899447643692e-15
11
320.25705811712413
21
55.51111260566398
31
8.459899447643692e-15
 62
256
 0
LINE
 8
Layer0_S_
10
320.25705811712413
20
55.51111260566398
30
8.459899447643692e-15
11
324.1393437936619
21
55.0
31
8.459899447643692e-15
 62
256
 0
LINE
 8
Layer0_S_
10
324.1393437936619
20
55.0
30
8.459899447643692e-15
11
328.02162947019974
21
55.511112605663975
31
8.459899447643692e-15
 62
256
 0
LINE
 8
Layer0_S_
10
328.02162947019974
20
55.511112605663975
30
8.459899447643692e-15
11
331.63934379366196
21
57.00961894323341
31
8.459899447643692e-15
 62
256
 0
LINE
 8
Layer0_S_
10
331.63934379366196
20
57.00961894323341
30
8.459899447643692e-15
11
334.74594551146015
21
59.39339828220178
31
8.459899447643692e-15
 62
256
 0
LINE
 8
Layer0_S_
10
334.74594551146015
20
59.39339828220178
30
8.459899447643692e-15
11
337.12972485042854
21
62.499999999999986
31
8.459899447643692e-15
 62
256
 0
LINE
 8
Layer0_S_
10
337.12972485042854
20
62.499999999999986
30
8.459899447643692e-15
11
338.6282311879979
21
66.11771432346218
31
8.459899447643692e-15
 62
256
 0
LINE
 8
Layer0_S_
10
338.6282311879979
20
66.11771432346218
30
8.459899447643692e-15
11
339.13934379366196
21
69.99999999999999
31
8.459899447643692e-15
 62
256
 0
LINE
 8
Layer0_S_
10
339.13934379366196
20
69.99999999999999
30
8.459899447643692e-15
11
338.6282311879979
21
73.88228567653779
31
8.459899447643692e-15
 62
256
 0
LINE
 8
Layer0_S_
10
338.6282311879979
20
73.88228567653779
30
8.459899447643692e-15
11
337.12972485042854
21
77.49999999999999
31
8.459899447643692e-15
 62
256
 0
LINE
 8
Layer0_S_
10
337.12972485042854
20
77.49999999999999
30
8.459899447643692e-15
11
334.74594551146015
21
80.6066017177982
31
8.459899447643692e-15
 62
256
 0
LINE
 8
Layer0_S_
10
334.74594551146015
20
80.6066017177982
30
8.459899447643692e-15
11
331.63934379366196
21
82.99038105676657
31
8.459899447643692e-15
 62
256
 0
LINE
 8
Layer0_S_
10
331.63934379366196
20
82.99038105676657
30
8.459899447643692e-15
11
328.02162947019974
21
84.488887394336
31
8.459899447643692e-15
 62
256
 0
LINE
 8
Layer0_S_
10
328.02162947019974
20
84.488887394336
30
8.459899447643692e-15
11
324.13934379366196
21
84.99999999999999
31
8.459899447643692e-15
 62
256
 0
LINE
 8
Layer0_S_
10
324.13934379366196
20
84.99999999999999
30
8.459899447643692e-15
11
320.25705811712413
21
84.48888739433602
31
8.459899447643692e-15
 62
256
 0
LINE
 8
Layer0_S_
10
320.25705811712413
20
84.48888739433602
30
8.459899447643692e-15
11
316.63934379366196
21
82.99038105676658
31
8.459899447643692e-15
 62
256
 0
LINE
 8
Layer0_S_
10
316.63934379366196
20
82.99038105676658
30
8.459899447643692e-15
11
313.5327420758637
21
80.60660171779823
31
8.459899447643692e-15
 62
256
 0
LINE
 8
Layer0_S_
10
313.5327420758637
20
80.60660171779823
30
8.459899447643692e-15
11
311.1489627368954
21
77.50000000000001
31
8.459899447643692e-15
 62
256
 0
LINE
 8
Layer0_S_
10
311.1489627368954
20
77.50000000000001
30
8.459899447643692e-15
11
309.65045639932595
21
73.88228567653782
31
8.459899447643692e-15
 62
256
 0
LINE
 8
Layer0_S_
10
360.93223701247535
20
1.7928932188134574
30
8.459899447643692e-15
11
361.1393437936619
21
1.6339745962155676
31
8.459899447643692e-15
 62
256
 0
LINE
 8
Layer0_S_
10
361.1393437936619
20
1.6339745962155676
30
8.459899447643692e-15
11
361.38052474855937
21
1.5340741737109347
31
8.459899447643692e-15
 62
256
 0
LINE
 8
Layer0_S_
10
361.38052474855937
20
1.5340741737109347
30
8.459899447643692e-15
11
361.6393437936619
21
1.5000000000000029
31
8.459899447643692e-15
 62
256
 0
LINE
 8
Layer0_S_
10
361.6393437936619
20
1.5000000000000029
30
8.459899447643692e-15
11
361.8981628387644
21
1.5340741737109347
31
8.459899447643692e-15
 62
256
 0
LINE
 8
Layer0_S_
10
361.8981628387644
20
1.5340741737109347
30
8.459899447643692e-15
11
362.1393437936619
21
1.6339745962155618
31
8.459899447643692e-15
 62
256
 0
LINE
 8
Layer0_S_
10
362.1393437936619
20
1.6339745962155618
30
8.459899447643692e-15
11
362.34645057484846
21
1.7928932188134519
31
8.459899447643692e-15
 62
256
 0
LINE
 8
Layer0_S_
10
362.34645057484846
20
1.7928932188134519
30
8.459899447643692e-15
11
362.5053691974464
21
2.0000000000000018
31
8.459899447643692e-15
 62
256
 0
LINE
 8
Layer0_S_
10
362.5053691974464
20
2.0000000000000018
30
8.459899447643692e-15
11
362.60526961995095
21
2.2411809548974784
31
8.459899447643692e-15
 62
256
 0
LINE
 8
Layer0_S_
10
362.60526961995095
20
2.2411809548974784
30
8.459899447643692e-15
11
362.6393437936619
21
2.500000000000001
31
8.459899447643692e-15
 62
256
 0
LINE
 8
Layer0_S_
10
362.6393437936619
20
2.500000000000001
30
8.459899447643692e-15
11
362.60526961995095
21
2.758819045102518
31
8.459899447643692e-15
 62
256
 0
LINE
 8
Layer0_S_
10
362.60526961995095
20
2.758819045102518
30
8.459899447643692e-15
11
362.5053691974464
21
3.0
31
8.459899447643692e-15
 62
256
 0
LINE
 8
Layer0_S_
10
362.5053691974464
20
3.0
30
8.459899447643692e-15
11
362.34645057484846
21
3.207106781186545
31
8.459899447643692e-15
 62
256
 0
LINE
 8
Layer0_S_
10
362.34645057484846
20
3.207106781186545
30
8.459899447643692e-15
11
362.1393437936619
21
3.3660254037844344
31
8.459899447643692e-15
 62
256
 0
LINE
 8
Layer0_S_
10
362.1393437936619
20
3.3660254037844344
30
8.459899447643692e-15
11
361.8981628387644
21
3.4659258262890673
31
8.459899447643692e-15
 62
256
 0
LINE
 8
Layer0_S_
10
361.8981628387644
20
3.4659258262890673
30
8.459899447643692e-15
11
361.6393437936619
21
3.499999999999999
31
8.459899447643692e-15
 62
256
 0
LINE
 8
Layer0_S_
10
361.6393437936619
20
3.499999999999999
30
8.459899447643692e-15
11
361.38052474855937
21
3.4659258262890673
31
8.459899447643692e-15
 62
256
 0
LINE
 8
Layer0_S_
10
361.38052474855937
20
3.4659258262890673
30
8.459899447643692e-15
11
361.1393437936619
21
3.36602540378444
31
8.459899447643692e-15
 62
256
 0
LINE
 8
Layer0_S_
10
361.1393437936619
20
3.36602540378444
30
8.459899447643692e-15
11
360.93223701247535
21
3.20710678118655
31
8.459899447643692e-15
 62
256
 0
LINE
 8
Layer0_S_
10
360.93223701247535
20
3.20710678118655
30
8.459899447643692e-15
11
360.7733183898775
21
3.0
31
8.459899447643692e-15
 62
256
 0
LINE
 8
Layer0_S_
10
360.7733183898775
20
3.0
30
8.459899447643692e-15
11
360.67341796737287
21
2.758819045102524
31
8.459899447643692e-15
 62
256
 0
LINE
 8
Layer0_S_
10
360.67341796737287
20
2.758819045102524
30
8.459899447643692e-15
11
360.6393437936619
21
2.500000000000001
31
8.459899447643692e-15
 62
256
 0
LINE
 8
Layer0_S_
10
360.6393437936619
20
2.500000000000001
30
8.459899447643692e-15
11
360.67341796737287
21
2.241180954897484
31
8.459899447643692e-15
 62
256
 0
LINE
 8
Layer0_S_
10
360.67341796737287
20
2.241180954897484
30
8.459899447643692e-15
11
360.77331838987743
21
2.0000000000000018
31
8.459899447643692e-15
 62
256
 0
LINE
 8
Layer0_S_
10
360.77331838987743
20
2.0000000000000018
30
8.459899447643692e-15
11
360.93223701247535
21
1.7928932188134574
31
8.459899447643692e-15
 62
256
 0
LINE
 8
Layer0_S_
10
367.6734179673728
20
2.758819045102524
30
8.459899447643692e-15
11
367.6393437936619
21
2.500000000000001
31
8.459899447643692e-15
 62
256
 0
LINE
 8
Layer0_S_
10
367.6393437936619
20
2.500000000000001
30
8.459899447643692e-15
11
367.6734179673728
21
2.241180954897484
31
8.459899447643692e-15
 62
256
 0
LINE
 8
Layer0_S_
10
367.6734179673728
20
2.241180954897484
30
8.459899447643692e-15
11
367.7733183898775
21
2.0000000000000018
31
8.459899447643692e-15
 62
256
 0
LINE
 8
Layer0_S_
10
367.7733183898775
20
2.0000000000000018
30
8.459899447643692e-15
11
367.93223701247535
21
1.7928932188134574
31
8.459899447643692e-15
 62
256
 0
LINE
 8
Layer0_S_
10
367.93223701247535
20
1.7928932188134574
30
8.459899447643692e-15
11
368.13934379366196
21
1.6339745962155676
31
8.459899447643692e-15
 62
256
 0
LINE
 8
Layer0_S_
10
368.13934379366196
20
1.6339745962155676
30
8.459899447643692e-15
11
368.38052474855937
21
1.5340741737109347
31
8.459899447643692e-15
 62
256
 0
LINE
 8
Layer0_S_
10
368.38052474855937
20
1.5340741737109347
30
8.459899447643692e-15
11
368.6393437936619
21
1.5000000000000029
31
8.459899447643692e-15
 62
256
 0
LINE
 8
Layer0_S_
10
368.6393437936619
20
1.5000000000000029
30
8.459899447643692e-15
11
368.89816283876445
21
1.5340741737109347
31
8.459899447643692e-15
 62
256
 0
LINE
 8
Layer0_S_
10
368.89816283876445
20
1.5340741737109347
30
8.459899447643692e-15
11
369.13934379366196
21
1.6339745962155618
31
8.459899447643692e-15
 62
256
 0
LINE
 8
Layer0_S_
10
369.13934379366196
20
1.6339745962155618
30
8.459899447643692e-15
11
369.34645057484846
21
1.7928932188134519
31
8.459899447643692e-15
 62
256
 0
LINE
 8
Layer0_S_
10
369.34645057484846
20
1.7928932188134519
30
8.459899447643692e-15
11
369.5053691974463
21
2.0000000000000018
31
8.459899447643692e-15
 62
256
 0
LINE
 8
Layer0_S_
10
369.5053691974463
20
2.0000000000000018
30
8.459899447643692e-15
11
369.605269619951
21
2.2411809548974784
31
8.459899447643692e-15
 62
256
 0
LINE
 8
Layer0_S_
10
369.605269619951
20
2.2411809548974784
30
8.459899447643692e-15
11
369.6393437936619
21
2.500000000000001
31
8.459899447643692e-15
 62
256
 0
LINE
 8
Layer0_S_
10
369.6393437936619
20
2.500000000000001
30
8.459899447643692e-15
11
369.605269619951
21
2.758819045102518
31
8.459899447643692e-15
 62
256
 0
LINE
 8
Layer0_S_
10
369.605269619951
20
2.758819045102518
30
8.459899447643692e-15
11
369.5053691974463
21
3.0
31
8.459899447643692e-15
 62
256
 0
LINE
 8
Layer0_S_
10
369.5053691974463
20
3.0
30
8.459899447643692e-15
11
369.34645057484846
21
3.207106781186545
31
8.459899447643692e-15
 62
256
 0
LINE
 8
Layer0_S_
10
369.34645057484846
20
3.207106781186545
30
8.459899447643692e-15
11
369.13934379366196
21
3.3660254037844344
31
8.459899447643692e-15
 62
256
 0
LINE
 8
Layer0_S_
10
369.13934379366196
20
3.3660254037844344
30
8.459899447643692e-15
11
368.89816283876445
21
3.4659258262890673
31
8.459899447643692e-15
 62
256
 0
LINE
 8
Layer0_S_
10
368.89816283876445
20
3.4659258262890673
30
8.459899447643692e-15
11
368.6393437936619
21
3.499999999999999
31
8.459899447643692e-15
 62
256
 0
LINE
 8
Layer0_S_
10
368.6393437936619
20
3.499999999999999
30
8.459899447643692e-15
11
368.3805247485594
21
3.4659258262890673
31
8.459899447643692e-15
 62
256
 0
LINE
 8
Layer0_S_
10
368.3805247485594
20
3.4659258262890673
30
8.459899447643692e-15
11
368.13934379366196
21
3.36602540378444
31
8.459899447643692e-15
 62
256
 0
LINE
 8
Layer0_S_
10
368.13934379366196
20
3.36602540378444
30
8.459899447643692e-15
11
367.93223701247535
21
3.20710678118655
31
8.459899447643692e-15
 62
256
 0
LINE
 8
Layer0_S_
10
367.93223701247535
20
3.20710678118655
30
8.459899447643692e-15
11
367.7733183898775
21
3.0
31
8.459899447643692e-15
 62
256
 0
LINE
 8
Layer0_S_
10
367.7733183898775
20
3.0
30
8.459899447643692e-15
11
367.6734179673728
21
2.758819045102524
31
8.459899447643692e-15
 62
256
 0
LINE
 8
Layer0_S_
10
375.89816283876445
20
3.4659258262890673
30
8.459899447643692e-15
11
375.6393437936619
21
3.499999999999999
31
8.459899447643692e-15
 62
256
 0
LINE
 8
Layer0_S_
10
375.6393437936619
20
3.499999999999999
30
8.459899447643692e-15
11
375.3805247485594
21
3.4659258262890673
31
8.459899447643692e-15
 62
256
 0
LINE
 8
Layer0_S_
10
375.3805247485594
20
3.4659258262890673
30
8.459899447643692e-15
11
375.1393437936619
21
3.36602540378444
31
8.459899447643692e-15
 62
256
 0
LINE
 8
Layer0_S_
10
375.1393437936619
20
3.36602540378444
30
8.459899447643692e-15
11
374.9322370124754
21
3.20710678118655
31
8.459899447643692e-15
 62
256
 0
LINE
 8
Layer0_S_
10
374.9322370124754
20
3.20710678118655
30
8.459899447643692e-15
11
374.7733183898775
21
3.0
31
8.459899447643692e-15
 62
256
 0
LINE
 8
Layer0_S_
10
374.7733183898775
20
3.0
30
8.459899447643692e-15
11
374.67341796737287
21
2.758819045102524
31
8.459899447643692e-15
 62
256
 0
LINE
 8
Layer0_S_
10
374.67341796737287
20
2.758819045102524
30
8.459899447643692e-15
11
374.6393437936619
21
2.500000000000001
31
8.459899447643692e-15
 62
256
 0
LINE
 8
Layer0_S_
10
374.6393437936619
20
2.500000000000001
30
8.459899447643692e-15
11
374.67341796737287
21
2.241180954897484
31
8.459899447643692e-15
 62
256
 0
LINE
 8
Layer0_S_
10
374.67341796737287
20
2.241180954897484
30
8.459899447643692e-15
11
374.7733183898775
21
2.0000000000000018
31
8.459899447643692e-15
 62
256
 0
LINE
 8
Layer0_S_
10
374.7733183898775
20
2.0000000000000018
30
8.459899447643692e-15
11
374.93223701247535
21
1.7928932188134574
31
8.459899447643692e-15
 62
256
 0
LINE
 8
Layer0_S_
10
374.93223701247535
20
1.7928932188134574
30
8.459899447643692e-15
11
375.1393437936619
21
1.6339745962155676
31
8.459899447643692e-15
 62
256
 0
LINE
 8
Layer0_S_
10
375.1393437936619
20
1.6339745962155676
30
8.459899447643692e-15
11
375.3805247485594
21
1.5340741737109347
31
8.459899447643692e-15
 62
256
 0
LINE
 8
Layer0_S_
10
375.3805247485594
20
1.5340741737109347
30
8.459899447643692e-15
11
375.6393437936619
21
1.5000000000000029
31
8.459899447643692e-15
 62
256
 0
LINE
 8
Layer0_S_
10
375.6393437936619
20
1.5000000000000029
30
8.459899447643692e-15
11
375.89816283876445
21
1.5340741737109347
31
8.459899447643692e-15
 62
256
 0
LINE
 8
Layer0_S_
10
375.89816283876445
20
1.5340741737109347
30
8.459899447643692e-15
11
376.1393437936619
21
1.6339745962155618
31
8.459899447643692e-15
 62
256
 0
LINE
 8
Layer0_S_
10
376.1393437936619
20
1.6339745962155618
30
8.459899447643692e-15
11
376.34645057484846
21
1.7928932188134519
31
8.459899447643692e-15
 62
256
 0
LINE
 8
Layer0_S_
10
376.34645057484846
20
1.7928932188134519
30
8.459899447643692e-15
11
376.5053691974463
21
2.0000000000000018
31
8.459899447643692e-15
 62
256
 0
LINE
 8
Layer0_S_
10
376.5053691974463
20
2.0000000000000018
30
8.459899447643692e-15
11
376.605269619951
21
2.2411809548974784
31
8.459899447643692e-15
 62
256
 0
LINE
 8
Layer0_S_
10
376.605269619951
20
2.2411809548974784
30
8.459899447643692e-15
11
376.6393437936619
21
2.4999999999999956
31
8.459899447643692e-15
 62
256
 0
LINE
 8
Layer0_S_
10
376.6393437936619
20
2.4999999999999956
30
8.459899447643692e-15
11
376.605269619951
21
2.758819045102518
31
8.459899447643692e-15
 62
256
 0
LINE
 8
Layer0_S_
10
376.605269619951
20
2.758819045102518
30
8.459899447643692e-15
11
376.5053691974464
21
3.0
31
8.459899447643692e-15
 62
256
 0
LINE
 8
Layer0_S_
10
376.5053691974464
20
3.0
30
8.459899447643692e-15
11
376.34645057484846
21
3.207106781186545
31
8.459899447643692e-15
 62
256
 0
LINE
 8
Layer0_S_
10
376.34645057484846
20
3.207106781186545
30
8.459899447643692e-15
11
376.1393437936619
21
3.3660254037844344
31
8.459899447643692e-15
 62
256
 0
LINE
 8
Layer0_S_
10
376.1393437936619
20
3.3660254037844344
30
8.459899447643692e-15
11
375.89816283876445
21
3.4659258262890673
31
8.459899447643692e-15
 62
256
 0
LINE
 8
Layer0_S_
10
382.89816283876445
20
1.5340741737109347
30
8.459899447643692e-15
11
383.1393437936619
21
1.6339745962155676
31
8.459899447643692e-15
 62
256
 0
LINE
 8
Layer0_S_
10
383.1393437936619
20
1.6339745962155676
30
8.459899447643692e-15
11
383.34645057484846
21
1.7928932188134574
31
8.459899447643692e-15
 62
256
 0
LINE
 8
Layer0_S_
10
383.34645057484846
20
1.7928932188134574
30
8.459899447643692e-15
11
383.5053691974464
21
2.0000000000000018
31
8.459899447643692e-15
 62
256
 0
LINE
 8
Layer0_S_
10
383.5053691974464
20
2.0000000000000018
30
8.459899447643692e-15
11
383.60526961995095
21
2.241180954897484
31
8.459899447643692e-15
 62
256
 0
LINE
 8
Layer0_S_
10
383.60526961995095
20
2.241180954897484
30
8.459899447643692e-15
11
383.6393437936619
21
2.500000000000001
31
8.459899447643692e-15
 62
256
 0
LINE
 8
Layer0_S_
10
383.6393437936619
20
2.500000000000001
30
8.459899447643692e-15
11
383.60526961995095
21
2.758819045102524
31
8.459899447643692e-15
 62
256
 0
LINE
 8
Layer0_S_
10
383.60526961995095
20
2.758819045102524
30
8.459899447643692e-15
11
383.5053691974464
21
3.0
31
8.459899447643692e-15
 62
256
 0
LINE
 8
Layer0_S_
10
383.5053691974464
20
3.0
30
8.459899447643692e-15
11
383.34645057484846
21
3.20710678118655
31
8.459899447643692e-15
 62
256
 0
LINE
 8
Layer0_S_
10
383.34645057484846
20
3.20710678118655
30
8.459899447643692e-15
11
383.1393437936619
21
3.36602540378444
31
8.459899447643692e-15
 62
256
 0
LINE
 8
Layer0_S_
10
383.1393437936619
20
3.36602540378444
30
8.459899447643692e-15
11
382.89816283876445
21
3.4659258262890673
31
8.459899447643692e-15
 62
256
 0
LINE
 8
Layer0_S_
10
382.89816283876445
20
3.4659258262890673
30
8.459899447643692e-15
11
382.6393437936619
21
3.499999999999999
31
8.459899447643692e-15
 62
256
 0
LINE
 8
Layer0_S_
10
382.6393437936619
20
3.499999999999999
30
8.459899447643692e-15
11
382.3805247485594
21
3.4659258262890673
31
8.459899447643692e-15
 62
256
 0
LINE
 8
Layer0_S_
10
382.3805247485594
20
3.4659258262890673
30
8.459899447643692e-15
11
382.1393437936619
21
3.3660254037844344
31
8.459899447643692e-15
 62
256
 0
LINE
 8
Layer0_S_
10
382.1393437936619
20
3.3660254037844344
30
8.459899447643692e-15
11
381.9322370124754
21
3.207106781186545
31
8.459899447643692e-15
 62
256
 0
LINE
 8
Layer0_S_
10
381.9322370124754
20
3.207106781186545
30
8.459899447643692e-15
11
381.7733183898775
21
3.0
31
8.459899447643692e-15
 62
256
 0
LINE
 8
Layer0_S_
10
381.7733183898775
20
3.0
30
8.459899447643692e-15
11
381.67341796737287
21
2.758819045102518
31
8.459899447643692e-15
 62
256
 0
LINE
 8
Layer0_S_
10
381.67341796737287
20
2.758819045102518
30
8.459899447643692e-15
11
381.63934379366196
21
2.500000000000001
31
8.459899447643692e-15
 62
256
 0
LINE
 8
Layer0_S_
10
381.63934379366196
20
2.500000000000001
30
8.459899447643692e-15
11
381.67341796737287
21
2.2411809548974784
31
8.459899447643692e-15
 62
256
 0
LINE
 8
Layer0_S_
10
381.67341796737287
20
2.2411809548974784
30
8.459899447643692e-15
11
381.7733183898775
21
2.0000000000000018
31
8.459899447643692e-15
 62
256
 0
LINE
 8
Layer0_S_
10
381.7733183898775
20
2.0000000000000018
30
8.459899447643692e-15
11
381.9322370124754
21
1.7928932188134519
31
8.459899447643692e-15
 62
256
 0
LINE
 8
Layer0_S_
10
381.9322370124754
20
1.7928932188134519
30
8.459899447643692e-15
11
382.1393437936619
21
1.6339745962155618
31
8.459899447643692e-15
 62
256
 0
LINE
 8
Layer0_S_
10
382.1393437936619
20
1.6339745962155618
30
8.459899447643692e-15
11
382.3805247485594
21
1.5340741737109347
31
8.459899447643692e-15
 62
256
 0
LINE
 8
Layer0_S_
10
382.3805247485594
20
1.5340741737109347
30
8.459899447643692e-15
11
382.6393437936619
21
1.5000000000000029
31
8.459899447643692e-15
 62
256
 0
LINE
 8
Layer0_S_
10
382.6393437936619
20
1.5000000000000029
30
8.459899447643692e-15
11
382.89816283876445
21
1.5340741737109347
31
8.459899447643692e-15
 62
256
 0
LINE
 8
Layer0_S_
10
389.1393437936619
20
3.36602540378444
30
8.459899447643692e-15
11
388.93223701247535
21
3.20710678118655
31
8.459899447643692e-15
 62
256
 0
LINE
 8
Layer0_S_
10
388.93223701247535
20
3.20710678118655
30
8.459899447643692e-15
11
388.7733183898775
21
3.0
31
8.459899447643692e-15
 62
256
 0
LINE
 8
Layer0_S_
10
388.7733183898775
20
3.0
30
8.459899447643692e-15
11
388.6734179673728
21
2.758819045102524
31
8.459899447643692e-15
 62
256
 0
LINE
 8
Layer0_S_
10
388.6734179673728
20
2.758819045102524
30
8.459899447643692e-15
11
388.6393437936619
21
2.500000000000001
31
8.459899447643692e-15
 62
256
 0
LINE
 8
Layer0_S_
10
388.6393437936619
20
2.500000000000001
30
8.459899447643692e-15
11
388.6734179673728
21
2.241180954897484
31
8.459899447643692e-15
 62
256
 0
LINE
 8
Layer0_S_
10
388.6734179673728
20
2.241180954897484
30
8.459899447643692e-15
11
388.7733183898775
21
2.0000000000000018
31
8.459899447643692e-15
 62
256
 0
LINE
 8
Layer0_S_
10
388.7733183898775
20
2.0000000000000018
30
8.459899447643692e-15
11
388.93223701247535
21
1.7928932188134574
31
8.459899447643692e-15
 62
256
 0
LINE
 8
Layer0_S_
10
388.93223701247535
20
1.7928932188134574
30
8.459899447643692e-15
11
389.1393437936619
21
1.6339745962155618
31
8.459899447643692e-15
 62
256
 0
LINE
 8
Layer0_S_
10
389.1393437936619
20
1.6339745962155618
30
8.459899447643692e-15
11
389.38052474855937
21
1.5340741737109347
31
8.459899447643692e-15
 62
256
 0
LINE
 8
Layer0_S_
10
389.38052474855937
20
1.5340741737109347
30
8.459899447643692e-15
11
389.6393437936619
21
1.5000000000000029
31
8.459899447643692e-15
 62
256
 0
LINE
 8
Layer0_S_
10
389.6393437936619
20
1.5000000000000029
30
8.459899447643692e-15
11
389.89816283876445
21
1.5340741737109347
31
8.459899447643692e-15
 62
256
 0
LINE
 8
Layer0_S_
10
389.89816283876445
20
1.5340741737109347
30
8.459899447643692e-15
11
390.1393437936619
21
1.6339745962155618
31
8.459899447643692e-15
 62
256
 0
LINE
 8
Layer0_S_
10
390.1393437936619
20
1.6339745962155618
30
8.459899447643692e-15
11
390.34645057484846
21
1.7928932188134519
31
8.459899447643692e-15
 62
256
 0
LINE
 8
Layer0_S_
10
390.34645057484846
20
1.7928932188134519
30
8.459899447643692e-15
11
390.5053691974464
21
2.0000000000000018
31
8.459899447643692e-15
 62
256
 0
LINE
 8
Layer0_S_
10
390.5053691974464
20
2.0000000000000018
30
8.459899447643692e-15
11
390.605269619951
21
2.2411809548974784
31
8.459899447643692e-15
 62
256
 0
LINE
 8
Layer0_S_
10
390.605269619951
20
2.2411809548974784
30
8.459899447643692e-15
11
390.6393437936619
21
2.500000000000001
31
8.459899447643692e-15
 62
256
 0
LINE
 8
Layer0_S_
10
390.6393437936619
20
2.500000000000001
30
8.459899447643692e-15
11
390.605269619951
21
2.758819045102518
31
8.459899447643692e-15
 62
256
 0
LINE
 8
Layer0_S_
10
390.605269619951
20
2.758819045102518
30
8.459899447643692e-15
11
390.5053691974464
21
3.0
31
8.459899447643692e-15
 62
256
 0
LINE
 8
Layer0_S_
10
390.5053691974464
20
3.0
30
8.459899447643692e-15
11
390.34645057484846
21
3.207106781186545
31
8.459899447643692e-15
 62
256
 0
LINE
 8
Layer0_S_
10
390.34645057484846
20
3.207106781186545
30
8.459899447643692e-15
11
390.1393437936619
21
3.36602540378444
31
8.459899447643692e-15
 62
256
 0
LINE
 8
Layer0_S_
10
390.1393437936619
20
3.36602540378444
30
8.459899447643692e-15
11
389.89816283876445
21
3.4659258262890673
31
8.459899447643692e-15
 62
256
 0
LINE
 8
Layer0_S_
10
389.89816283876445
20
3.4659258262890673
30
8.459899447643692e-15
11
389.6393437936619
21
3.499999999999999
31
8.459899447643692e-15
 62
256
 0
LINE
 8
Layer0_S_
10
389.6393437936619
20
3.499999999999999
30
8.459899447643692e-15
11
389.38052474855937
21
3.4659258262890673
31
8.459899447643692e-15
 62
256
 0
LINE
 8
Layer0_S_
10
389.38052474855937
20
3.4659258262890673
30
8.459899447643692e-15
11
389.1393437936619
21
3.36602540378444
31
8.459899447643692e-15
 62
256
 0
LINE
 8
Layer0_S_
10
395.6393437936619
20
2.500000000000001
30
8.459899447643692e-15
11
395.67341796737287
21
2.2411809548974784
31
8.459899447643692e-15
 62
256
 0
LINE
 8
Layer0_S_
10
395.67341796737287
20
2.2411809548974784
30
8.459899447643692e-15
11
395.7733183898775
21
2.0000000000000018
31
8.459899447643692e-15
 62
256
 0
LINE
 8
Layer0_S_
10
395.7733183898775
20
2.0000000000000018
30
8.459899447643692e-15
11
395.93223701247535
21
1.7928932188134574
31
8.459899447643692e-15
 62
256
 0
LINE
 8
Layer0_S_
10
395.93223701247535
20
1.7928932188134574
30
8.459899447643692e-15
11
396.1393437936619
21
1.6339745962155618
31
8.459899447643692e-15
 62
256
 0
LINE
 8
Layer0_S_
10
396.1393437936619
20
1.6339745962155618
30
8.459899447643692e-15
11
396.38052474855937
21
1.5340741737109347
31
8.459899447643692e-15
 62
256
 0
LINE
 8
Layer0_S_
10
396.38052474855937
20
1.5340741737109347
30
8.459899447643692e-15
11
396.6393437936619
21
1.5000000000000029
31
8.459899447643692e-15
 62
256
 0
LINE
 8
Layer0_S_
10
396.6393437936619
20
1.5000000000000029
30
8.459899447643692e-15
11
396.89816283876445
21
1.5340741737109347
31
8.459899447643692e-15
 62
256
 0
LINE
 8
Layer0_S_
10
396.89816283876445
20
1.5340741737109347
30
8.459899447643692e-15
11
397.1393437936619
21
1.6339745962155618
31
8.459899447643692e-15
 62
256
 0
LINE
 8
Layer0_S_
10
397.1393437936619
20
1.6339745962155618
30
8.459899447643692e-15
11
397.34645057484846
21
1.7928932188134574
31
8.459899447643692e-15
 62
256
 0
LINE
 8
Layer0_S_
10
397.34645057484846
20
1.7928932188134574
30
8.459899447643692e-15
11
397.5053691974463
21
2.0000000000000018
31
8.459899447643692e-15
 62
256
 0
LINE
 8
Layer0_S_
10
397.5053691974463
20
2.0000000000000018
30
8.459899447643692e-15
11
397.605269619951
21
2.2411809548974784
31
8.459899447643692e-15
 62
256
 0
LINE
 8
Layer0_S_
10
397.605269619951
20
2.2411809548974784
30
8.459899447643692e-15
11
397.6393437936619
21
2.500000000000001
31
8.459899447643692e-15
 62
256
 0
LINE
 8
Layer0_S_
10
397.6393437936619
20
2.500000000000001
30
8.459899447643692e-15
11
397.605269619951
21
2.758819045102524
31
8.459899447643692e-15
 62
256
 0
LINE
 8
Layer0_S_
10
397.605269619951
20
2.758819045102524
30
8.459899447643692e-15
11
397.5053691974463
21
3.0
31
8.459899447643692e-15
 62
256
 0
LINE
 8
Layer0_S_
10
397.5053691974463
20
3.0
30
8.459899447643692e-15
11
397.34645057484846
21
3.207106781186545
31
8.459899447643692e-15
 62
256
 0
LINE
 8
Layer0_S_
10
397.34645057484846
20
3.207106781186545
30
8.459899447643692e-15
11
397.1393437936619
21
3.36602540378444
31
8.459899447643692e-15
 62
256
 0
LINE
 8
Layer0_S_
10
397.1393437936619
20
3.36602540378444
30
8.459899447643692e-15
11
396.89816283876445
21
3.4659258262890673
31
8.459899447643692e-15
 62
256
 0
LINE
 8
Layer0_S_
10
396.89816283876445
20
3.4659258262890673
30
8.459899447643692e-15
11
396.6393437936619
21
3.499999999999999
31
8.459899447643692e-15
 62
256
 0
LINE
 8
Layer0_S_
10
396.6393437936619
20
3.499999999999999
30
8.459899447643692e-15
11
396.38052474855937
21
3.4659258262890673
31
8.459899447643692e-15
 62
256
 0
LINE
 8
Layer0_S_
10
396.38052474855937
20
3.4659258262890673
30
8.459899447643692e-15
11
396.1393437936619
21
3.36602540378444
31
8.459899447643692e-15
 62
256
 0
LINE
 8
Layer0_S_
10
396.1393437936619
20
3.36602540378444
30
8.459899447643692e-15
11
395.93223701247535
21
3.207106781186545
31
8.459899447643692e-15
 62
256
 0
LINE
 8
Layer0_S_
10
395.93223701247535
20
3.207106781186545
30
8.459899447643692e-15
11
395.7733183898775
21
3.0
31
8.459899447643692e-15
 62
256
 0
LINE
 8
Layer0_S_
10
395.7733183898775
20
3.0
30
8.459899447643692e-15
11
395.67341796737287
21
2.758819045102524
31
8.459899447643692e-15
 62
256
 0
LINE
 8
Layer0_S_
10
395.67341796737287
20
2.758819045102524
30
8.459899447643692e-15
11
395.6393437936619
21
2.500000000000001
31
8.459899447643692e-15
 62
256
 0
LINE
 8
Layer0_S_
10
402.7733183898775
20
2.0000000000000018
30
8.459899447643692e-15
11
402.93223701247535
21
1.7928932188134519
31
8.459899447643692e-15
 62
256
 0
LINE
 8
Layer0_S_
10
402.93223701247535
20
1.7928932188134519
30
8.459899447643692e-15
11
403.1393437936619
21
1.6339745962155618
31
8.459899447643692e-15
 62
256
 0
LINE
 8
Layer0_S_
10
403.1393437936619
20
1.6339745962155618
30
8.459899447643692e-15
11
403.3805247485594
21
1.5340741737109347
31
8.459899447643692e-15
 62
256
 0
LINE
 8
Layer0_S_
10
403.3805247485594
20
1.5340741737109347
30
8.459899447643692e-15
11
403.6393437936619
21
1.5000000000000029
31
8.459899447643692e-15
 62
256
 0
LINE
 8
Layer0_S_
10
403.6393437936619
20
1.5000000000000029
30
8.459899447643692e-15
11
403.89816283876445
21
1.5340741737109347
31
8.459899447643692e-15
 62
256
 0
LINE
 8
Layer0_S_
10
403.89816283876445
20
1.5340741737109347
30
8.459899447643692e-15
11
404.1393437936619
21
1.6339745962155618
31
8.459899447643692e-15
 62
256
 0
LINE
 8
Layer0_S_
10
404.1393437936619
20
1.6339745962155618
30
8.459899447643692e-15
11
404.34645057484846
21
1.7928932188134574
31
8.459899447643692e-15
 62
256
 0
LINE
 8
Layer0_S_
10
404.34645057484846
20
1.7928932188134574
30
8.459899447643692e-15
11
404.5053691974463
21
2.0000000000000018
31
8.459899447643692e-15
 62
256
 0
LINE
 8
Layer0_S_
10
404.5053691974463
20
2.0000000000000018
30
8.459899447643692e-15
11
404.605269619951
21
2.241180954897484
31
8.459899447643692e-15
 62
256
 0
LINE
 8
Layer0_S_
10
404.605269619951
20
2.241180954897484
30
8.459899447643692e-15
11
404.6393437936619
21
2.500000000000001
31
8.459899447643692e-15
 62
256
 0
LINE
 8
Layer0_S_
10
404.6393437936619
20
2.500000000000001
30
8.459899447643692e-15
11
404.605269619951
21
2.758819045102524
31
8.459899447643692e-15
 62
256
 0
LINE
 8
Layer0_S_
10
404.605269619951
20
2.758819045102524
30
8.459899447643692e-15
11
404.5053691974463
21
3.0
31
8.459899447643692e-15
 62
256
 0
LINE
 8
Layer0_S_
10
404.5053691974463
20
3.0
30
8.459899447643692e-15
11
404.34645057484846
21
3.20710678118655
31
8.459899447643692e-15
 62
256
 0
LINE
 8
Layer0_S_
10
404.34645057484846
20
3.20710678118655
30
8.459899447643692e-15
11
404.1393437936619
21
3.36602540378444
31
8.459899447643692e-15
 62
256
 0
LINE
 8
Layer0_S_
10
404.1393437936619
20
3.36602540378444
30
8.459899447643692e-15
11
403.89816283876445
21
3.4659258262890673
31
8.459899447643692e-15
 62
256
 0
LINE
 8
Layer0_S_
10
403.89816283876445
20
3.4659258262890673
30
8.459899447643692e-15
11
403.6393437936619
21
3.499999999999999
31
8.459899447643692e-15
 62
256
 0
LINE
 8
Layer0_S_
10
403.6393437936619
20
3.499999999999999
30
8.459899447643692e-15
11
403.3805247485594
21
3.4659258262890673
31
8.459899447643692e-15
 62
256
 0
LINE
 8
Layer0_S_
10
403.3805247485594
20
3.4659258262890673
30
8.459899447643692e-15
11
403.1393437936619
21
3.36602540378444
31
8.459899447643692e-15
 62
256
 0
LINE
 8
Layer0_S_
10
403.1393437936619
20
3.36602540378444
30
8.459899447643692e-15
11
402.93223701247535
21
3.207106781186545
31
8.459899447643692e-15
 62
256
 0
LINE
 8
Layer0_S_
10
402.93223701247535
20
3.207106781186545
30
8.459899447643692e-15
11
402.7733183898775
21
3.0
31
8.459899447643692e-15
 62
256
 0
LINE
 8
Layer0_S_
10
402.7733183898775
20
3.0
30
8.459899447643692e-15
11
402.67341796737287
21
2.758819045102518
31
8.459899447643692e-15
 62
256
 0
LINE
 8
Layer0_S_
10
402.67341796737287
20
2.758819045102518
30
8.459899447643692e-15
11
402.6393437936619
21
2.500000000000001
31
8.459899447643692e-15
 62
256
 0
LINE
 8
Layer0_S_
10
402.6393437936619
20
2.500000000000001
30
8.459899447643692e-15
11
402.67341796737287
21
2.2411809548974784
31
8.459899447643692e-15
 62
256
 0
LINE
 8
Layer0_S_
10
402.67341796737287
20
2.2411809548974784
30
8.459899447643692e-15
11
402.7733183898775
21
2.0000000000000018
31
8.459899447643692e-15
 62
256
 0
LINE
 8
Layer0_S_
10
410.8981628387644
20
3.4659258262890673
30
8.459899447643692e-15
11
410.6393437936619
21
3.499999999999999
31
8.459899447643692e-15
 62
256
 0
LINE
 8
Layer0_S_
10
410.6393437936619
20
3.499999999999999
30
8.459899447643692e-15
11
410.3805247485594
21
3.4659258262890673
31
8.459899447643692e-15
 62
256
 0
LINE
 8
Layer0_S_
10
410.3805247485594
20
3.4659258262890673
30
8.459899447643692e-15
11
410.1393437936619
21
3.36602540378444
31
8.459899447643692e-15
 62
256
 0
LINE
 8
Layer0_S_
10
410.1393437936619
20
3.36602540378444
30
8.459899447643692e-15
11
409.93223701247535
21
3.20710678118655
31
8.459899447643692e-15
 62
256
 0
LINE
 8
Layer0_S_
10
409.93223701247535
20
3.20710678118655
30
8.459899447643692e-15
11
409.7733183898775
21
3.0
31
8.459899447643692e-15
 62
256
 0
LINE
 8
Layer0_S_
10
409.7733183898775
20
3.0
30
8.459899447643692e-15
11
409.67341796737287
21
2.758819045102524
31
8.459899447643692e-15
 62
256
 0
LINE
 8
Layer0_S_
10
409.67341796737287
20
2.758819045102524
30
8.459899447643692e-15
11
409.6393437936619
21
2.500000000000001
31
8.459899447643692e-15
 62
256
 0
LINE
 8
Layer0_S_
10
409.6393437936619
20
2.500000000000001
30
8.459899447643692e-15
11
409.67341796737287
21
2.241180954897484
31
8.459899447643692e-15
 62
256
 0
LINE
 8
Layer0_S_
10
409.67341796737287
20
2.241180954897484
30
8.459899447643692e-15
11
409.7733183898775
21
2.0000000000000018
31
8.459899447643692e-15
 62
256
 0
LINE
 8
Layer0_S_
10
409.7733183898775
20
2.0000000000000018
30
8.459899447643692e-15
11
409.93223701247535
21
1.7928932188134574
31
8.459899447643692e-15
 62
256
 0
LINE
 8
Layer0_S_
10
409.93223701247535
20
1.7928932188134574
30
8.459899447643692e-15
11
410.1393437936619
21
1.6339745962155676
31
8.459899447643692e-15
 62
256
 0
LINE
 8
Layer0_S_
10
410.1393437936619
20
1.6339745962155676
30
8.459899447643692e-15
11
410.38052474855937
21
1.5340741737109347
31
8.459899447643692e-15
 62
256
 0
LINE
 8
Layer0_S_
10
410.38052474855937
20
1.5340741737109347
30
8.459899447643692e-15
11
410.6393437936619
21
1.5000000000000029
31
8.459899447643692e-15
 62
256
 0
LINE
 8
Layer0_S_
10
410.6393437936619
20
1.5000000000000029
30
8.459899447643692e-15
11
410.8981628387644
21
1.5340741737109347
31
8.459899447643692e-15
 62
256
 0
LINE
 8
Layer0_S_
10
410.8981628387644
20
1.5340741737109347
30
8.459899447643692e-15
11
411.13934379366196
21
1.6339745962155618
31
8.459899447643692e-15
 62
256
 0
LINE
 8
Layer0_S_
10
411.13934379366196
20
1.6339745962155618
30
8.459899447643692e-15
11
411.34645057484846
21
1.7928932188134519
31
8.459899447643692e-15
 62
256
 0
LINE
 8
Layer0_S_
10
411.34645057484846
20
1.7928932188134519
30
8.459899447643692e-15
11
411.5053691974464
21
2.0000000000000018
31
8.459899447643692e-15
 62
256
 0
LINE
 8
Layer0_S_
10
411.5053691974464
20
2.0000000000000018
30
8.459899447643692e-15
11
411.605269619951
21
2.2411809548974784
31
8.459899447643692e-15
 62
256
 0
LINE
 8
Layer0_S_
10
411.605269619951
20
2.2411809548974784
30
8.459899447643692e-15
11
411.6393437936619
21
2.4999999999999956
31
8.459899447643692e-15
 62
256
 0
LINE
 8
Layer0_S_
10
411.6393437936619
20
2.4999999999999956
30
8.459899447643692e-15
11
411.605269619951
21
2.758819045102518
31
8.459899447643692e-15
 62
256
 0
LINE
 8
Layer0_S_
10
411.605269619951
20
2.758819045102518
30
8.459899447643692e-15
11
411.5053691974464
21
3.0
31
8.459899447643692e-15
 62
256
 0
LINE
 8
Layer0_S_
10
411.5053691974464
20
3.0
30
8.459899447643692e-15
11
411.34645057484846
21
3.207106781186545
31
8.459899447643692e-15
 62
256
 0
LINE
 8
Layer0_S_
10
411.34645057484846
20
3.207106781186545
30
8.459899447643692e-15
11
411.13934379366196
21
3.3660254037844344
31
8.459899447643692e-15
 62
256
 0
LINE
 8
Layer0_S_
10
411.13934379366196
20
3.3660254037844344
30
8.459899447643692e-15
11
410.8981628387644
21
3.4659258262890673
31
8.459899447643692e-15
 62
256
 0
LINE
 8
Layer0_S_
10
416.77331838987743
20
2.0000000000000018
30
8.459899447643692e-15
11
416.9322370124754
21
1.7928932188134519
31
8.459899447643692e-15
 62
256
 0
LINE
 8
Layer0_S_
10
416.9322370124754
20
1.7928932188134519
30
8.459899447643692e-15
11
417.13934379366196
21
1.6339745962155618
31
8.459899447643692e-15
 62
256
 0
LINE
 8
Layer0_S_
10
417.13934379366196
20
1.6339745962155618
30
8.459899447643692e-15
11
417.38052474855937
21
1.5340741737109347
31
8.459899447643692e-15
 62
256
 0
LINE
 8
Layer0_S_
10
417.38052474855937
20
1.5340741737109347
30
8.459899447643692e-15
11
417.6393437936619
21
1.5000000000000029
31
8.459899447643692e-15
 62
256
 0
LINE
 8
Layer0_S_
10
417.6393437936619
20
1.5000000000000029
30
8.459899447643692e-15
11
417.89816283876445
21
1.5340741737109347
31
8.459899447643692e-15
 62
256
 0
LINE
 8
Layer0_S_
10
417.89816283876445
20
1.5340741737109347
30
8.459899447643692e-15
11
418.1393437936619
21
1.6339745962155676
31
8.459899447643692e-15
 62
256
 0
LINE
 8
Layer0_S_
10
418.1393437936619
20
1.6339745962155676
30
8.459899447643692e-15
11
418.3464505748484
21
1.7928932188134574
31
8.459899447643692e-15
 62
256
 0
LINE
 8
Layer0_S_
10
418.3464505748484
20
1.7928932188134574
30
8.459899447643692e-15
11
418.5053691974464
21
2.0000000000000018
31
8.459899447643692e-15
 62
256
 0
LINE
 8
Layer0_S_
10
418.5053691974464
20
2.0000000000000018
30
8.459899447643692e-15
11
418.60526961995095
21
2.241180954897484
31
8.459899447643692e-15
 62
256
 0
LINE
 8
Layer0_S_
10
418.60526961995095
20
2.241180954897484
30
8.459899447643692e-15
11
418.63934379366185
21
2.500000000000001
31
8.459899447643692e-15
 62
256
 0
LINE
 8
Layer0_S_
10
418.63934379366185
20
2.500000000000001
30
8.459899447643692e-15
11
418.60526961995095
21
2.758819045102524
31
8.459899447643692e-15
 62
256
 0
LINE
 8
Layer0_S_
10
418.60526961995095
20
2.758819045102524
30
8.459899447643692e-15
11
418.5053691974463
21
3.0
31
8.459899447643692e-15
 62
256
 0
LINE
 8
Layer0_S_
10
418.5053691974463
20
3.0
30
8.459899447643692e-15
11
418.3464505748484
21
3.20710678118655
31
8.459899447643692e-15
 62
256
 0
LINE
 8
Layer0_S_
10
418.3464505748484
20
3.20710678118655
30
8.459899447643692e-15
11
418.1393437936619
21
3.36602540378444
31
8.459899447643692e-15
 62
256
 0
LINE
 8
Layer0_S_
10
418.1393437936619
20
3.36602540378444
30
8.459899447643692e-15
11
417.89816283876445
21
3.4659258262890673
31
8.459899447643692e-15
 62
256
 0
LINE
 8
Layer0_S_
10
417.89816283876445
20
3.4659258262890673
30
8.459899447643692e-15
11
417.6393437936619
21
3.499999999999999
31
8.459899447643692e-15
 62
256
 0
LINE
 8
Layer0_S_
10
417.6393437936619
20
3.499999999999999
30
8.459899447643692e-15
11
417.38052474855937
21
3.4659258262890673
31
8.459899447643692e-15
 62
256
 0
LINE
 8
Layer0_S_
10
417.38052474855937
20
3.4659258262890673
30
8.459899447643692e-15
11
417.13934379366196
21
3.3660254037844344
31
8.459899447643692e-15
 62
256
 0
LINE
 8
Layer0_S_
10
417.13934379366196
20
3.3660254037844344
30
8.459899447643692e-15
11
416.9322370124753
21
3.207106781186545
31
8.459899447643692e-15
 62
256
 0
LINE
 8
Layer0_S_
10
416.9322370124753
20
3.207106781186545
30
8.459899447643692e-15
11
416.77331838987743
21
3.0
31
8.459899447643692e-15
 62
256
 0
LINE
 8
Layer0_S_
10
416.77331838987743
20
3.0
30
8.459899447643692e-15
11
416.67341796737287
21
2.758819045102518
31
8.459899447643692e-15
 62
256
 0
LINE
 8
Layer0_S_
10
416.67341796737287
20
2.758819045102518
30
8.459899447643692e-15
11
416.63934379366185
21
2.500000000000001
31
8.459899447643692e-15
 62
256
 0
LINE
 8
Layer0_S_
10
416.63934379366185
20
2.500000000000001
30
8.459899447643692e-15
11
416.67341796737287
21
2.2411809548974784
31
8.459899447643692e-15
 62
256
 0
LINE
 8
Layer0_S_
10
416.67341796737287
20
2.2411809548974784
30
8.459899447643692e-15
11
416.77331838987743
21
2.0000000000000018
31
8.459899447643692e-15
 62
256
 0
LINE
 8
Layer0_S_
10
425.5053691974463
20
2.0000000000000018
30
8.459899447643692e-15
11
425.605269619951
21
2.241180954897484
31
8.459899447643692e-15
 62
256
 0
LINE
 8
Layer0_S_
10
425.605269619951
20
2.241180954897484
30
8.459899447643692e-15
11
425.6393437936619
21
2.500000000000001
31
8.459899447643692e-15
 62
256
 0
LINE
 8
Layer0_S_
10
425.6393437936619
20
2.500000000000001
30
8.459899447643692e-15
11
425.605269619951
21
2.758819045102524
31
8.459899447643692e-15
 62
256
 0
LINE
 8
Layer0_S_
10
425.605269619951
20
2.758819045102524
30
8.459899447643692e-15
11
425.5053691974463
21
3.0
31
8.459899447643692e-15
 62
256
 0
LINE
 8
Layer0_S_
10
425.5053691974463
20
3.0
30
8.459899447643692e-15
11
425.34645057484846
21
3.207106781186545
31
8.459899447643692e-15
 62
256
 0
LINE
 8
Layer0_S_
10
425.34645057484846
20
3.207106781186545
30
8.459899447643692e-15
11
425.1393437936619
21
3.36602540378444
31
8.459899447643692e-15
 62
256
 0
LINE
 8
Layer0_S_
10
425.1393437936619
20
3.36602540378444
30
8.459899447643692e-15
11
424.8981628387644
21
3.4659258262890673
31
8.459899447643692e-15
 62
256
 0
LINE
 8
Layer0_S_
10
424.8981628387644
20
3.4659258262890673
30
8.459899447643692e-15
11
424.63934379366196
21
3.499999999999999
31
8.459899447643692e-15
 62
256
 0
LINE
 8
Layer0_S_
10
424.63934379366196
20
3.499999999999999
30
8.459899447643692e-15
11
424.3805247485594
21
3.4659258262890673
31
8.459899447643692e-15
 62
256
 0
LINE
 8
Layer0_S_
10
424.3805247485594
20
3.4659258262890673
30
8.459899447643692e-15
11
424.1393437936619
21
3.36602540378444
31
8.459899447643692e-15
 62
256
 0
LINE
 8
Layer0_S_
10
424.1393437936619
20
3.36602540378444
30
8.459899447643692e-15
11
423.93223701247535
21
3.207106781186545
31
8.459899447643692e-15
 62
256
 0
LINE
 8
Layer0_S_
10
423.93223701247535
20
3.207106781186545
30
8.459899447643692e-15
11
423.7733183898775
21
3.0
31
8.459899447643692e-15
 62
256
 0
LINE
 8
Layer0_S_
10
423.7733183898775
20
3.0
30
8.459899447643692e-15
11
423.6734179673728
21
2.758819045102518
31
8.459899447643692e-15
 62
256
 0
LINE
 8
Layer0_S_
10
423.6734179673728
20
2.758819045102518
30
8.459899447643692e-15
11
423.6393437936619
21
2.500000000000001
31
8.459899447643692e-15
 62
256
 0
LINE
 8
Layer0_S_
10
423.6393437936619
20
2.500000000000001
30
8.459899447643692e-15
11
423.6734179673728
21
2.2411809548974784
31
8.459899447643692e-15
 62
256
 0
LINE
 8
Layer0_S_
10
423.6734179673728
20
2.2411809548974784
30
8.459899447643692e-15
11
423.7733183898775
21
2.0000000000000018
31
8.459899447643692e-15
 62
256
 0
LINE
 8
Layer0_S_
10
423.7733183898775
20
2.0000000000000018
30
8.459899447643692e-15
11
423.93223701247535
21
1.7928932188134574
31
8.459899447643692e-15
 62
256
 0
LINE
 8
Layer0_S_
10
423.93223701247535
20
1.7928932188134574
30
8.459899447643692e-15
11
424.1393437936619
21
1.6339745962155618
31
8.459899447643692e-15
 62
256
 0
LINE
 8
Layer0_S_
10
424.1393437936619
20
1.6339745962155618
30
8.459899447643692e-15
11
424.3805247485594
21
1.5340741737109347
31
8.459899447643692e-15
 62
256
 0
LINE
 8
Layer0_S_
10
424.3805247485594
20
1.5340741737109347
30
8.459899447643692e-15
11
424.63934379366196
21
1.5000000000000029
31
8.459899447643692e-15
 62
256
 0
LINE
 8
Layer0_S_
10
424.63934379366196
20
1.5000000000000029
30
8.459899447643692e-15
11
424.8981628387644
21
1.5340741737109347
31
8.459899447643692e-15
 62
256
 0
LINE
 8
Layer0_S_
10
424.8981628387644
20
1.5340741737109347
30
8.459899447643692e-15
11
425.1393437936619
21
1.6339745962155618
31
8.459899447643692e-15
 62
256
 0
LINE
 8
Layer0_S_
10
425.1393437936619
20
1.6339745962155618
30
8.459899447643692e-15
11
425.34645057484846
21
1.7928932188134574
31
8.459899447643692e-15
 62
256
 0
LINE
 8
Layer0_S_
10
425.34645057484846
20
1.7928932188134574
30
8.459899447643692e-15
11
425.5053691974463
21
2.0000000000000018
31
8.459899447643692e-15
 62
256
 0
LINE
 8
Layer0_S_
10
432.13934379366196
20
1.6339745962155618
30
8.459899447643692e-15
11
432.34645057484846
21
1.7928932188134574
31
8.459899447643692e-15
 62
256
 0
LINE
 8
Layer0_S_
10
432.34645057484846
20
1.7928932188134574
30
8.459899447643692e-15
11
432.5053691974464
21
2.0000000000000018
31
8.459899447643692e-15
 62
256
 0
LINE
 8
Layer0_S_
10
432.5053691974464
20
2.0000000000000018
30
8.459899447643692e-15
11
432.605269619951
21
2.2411809548974784
31
8.459899447643692e-15
 62
256
 0
LINE
 8
Layer0_S_
10
432.605269619951
20
2.2411809548974784
30
8.459899447643692e-15
11
432.6393437936619
21
2.500000000000001
31
8.459899447643692e-15
 62
256
 0
LINE
 8
Layer0_S_
10
432.6393437936619
20
2.500000000000001
30
8.459899447643692e-15
11
432.605269619951
21
2.758819045102524
31
8.459899447643692e-15
 62
256
 0
LINE
 8
Layer0_S_
10
432.605269619951
20
2.758819045102524
30
8.459899447643692e-15
11
432.5053691974464
21
3.0
31
8.459899447643692e-15
 62
256
 0
LINE
 8
Layer0_S_
10
432.5053691974464
20
3.0
30
8.459899447643692e-15
11
432.34645057484846
21
3.207106781186545
31
8.459899447643692e-15
 62
256
 0
LINE
 8
Layer0_S_
10
432.34645057484846
20
3.207106781186545
30
8.459899447643692e-15
11
432.13934379366196
21
3.36602540378444
31
8.459899447643692e-15
 62
256
 0
LINE
 8
Layer0_S_
10
432.13934379366196
20
3.36602540378444
30
8.459899447643692e-15
11
431.89816283876445
21
3.4659258262890673
31
8.459899447643692e-15
 62
256
 0
LINE
 8
Layer0_S_
10
431.89816283876445
20
3.4659258262890673
30
8.459899447643692e-15
11
431.6393437936619
21
3.499999999999999
31
8.459899447643692e-15
 62
256
 0
LINE
 8
Layer0_S_
10
431.6393437936619
20
3.499999999999999
30
8.459899447643692e-15
11
431.38052474855937
21
3.4659258262890673
31
8.459899447643692e-15
 62
256
 0
LINE
 8
Layer0_S_
10
431.38052474855937
20
3.4659258262890673
30
8.459899447643692e-15
11
431.1393437936619
21
3.36602540378444
31
8.459899447643692e-15
 62
256
 0
LINE
 8
Layer0_S_
10
431.1393437936619
20
3.36602540378444
30
8.459899447643692e-15
11
430.9322370124754
21
3.207106781186545
31
8.459899447643692e-15
 62
256
 0
LINE
 8
Layer0_S_
10
430.9322370124754
20
3.207106781186545
30
8.459899447643692e-15
11
430.7733183898775
21
3.0
31
8.459899447643692e-15
 62
256
 0
LINE
 8
Layer0_S_
10
430.7733183898775
20
3.0
30
8.459899447643692e-15
11
430.67341796737287
21
2.758819045102524
31
8.459899447643692e-15
 62
256
 0
LINE
 8
Layer0_S_
10
430.67341796737287
20
2.758819045102524
30
8.459899447643692e-15
11
430.63934379366196
21
2.500000000000001
31
8.459899447643692e-15
 62
256
 0
LINE
 8
Layer0_S_
10
430.63934379366196
20
2.500000000000001
30
8.459899447643692e-15
11
430.67341796737287
21
2.241180954897484
31
8.459899447643692e-15
 62
256
 0
LINE
 8
Layer0_S_
10
430.67341796737287
20
2.241180954897484
30
8.459899447643692e-15
11
430.7733183898775
21
2.0000000000000018
31
8.459899447643692e-15
 62
256
 0
LINE
 8
Layer0_S_
10
430.7733183898775
20
2.0000000000000018
30
8.459899447643692e-15
11
430.9322370124754
21
1.7928932188134574
31
8.459899447643692e-15
 62
256
 0
LINE
 8
Layer0_S_
10
430.9322370124754
20
1.7928932188134574
30
8.459899447643692e-15
11
431.1393437936619
21
1.6339745962155618
31
8.459899447643692e-15
 62
256
 0
LINE
 8
Layer0_S_
10
431.1393437936619
20
1.6339745962155618
30
8.459899447643692e-15
11
431.38052474855937
21
1.5340741737109347
31
8.459899447643692e-15
 62
256
 0
LINE
 8
Layer0_S_
10
431.38052474855937
20
1.5340741737109347
30
8.459899447643692e-15
11
431.6393437936619
21
1.5000000000000029
31
8.459899447643692e-15
 62
256
 0
LINE
 8
Layer0_S_
10
431.6393437936619
20
1.5000000000000029
30
8.459899447643692e-15
11
431.89816283876445
21
1.5340741737109347
31
8.459899447643692e-15
 62
256
 0
LINE
 8
Layer0_S_
10
431.89816283876445
20
1.5340741737109347
30
8.459899447643692e-15
11
432.13934379366196
21
1.6339745962155618
31
8.459899447643692e-15
 62
256
 0
LINE
 8
Layer0_S_
10
438.6393437936619
20
3.499999999999999
30
8.459899447643692e-15
11
438.38052474855937
21
3.4659258262890673
31
8.459899447643692e-15
 62
256
 0
LINE
 8
Layer0_S_
10
438.38052474855937
20
3.4659258262890673
30
8.459899447643692e-15
11
438.13934379366196
21
3.36602540378444
31
8.459899447643692e-15
 62
256
 0
LINE
 8
Layer0_S_
10
438.13934379366196
20
3.36602540378444
30
8.459899447643692e-15
11
437.93223701247535
21
3.207106781186545
31
8.459899447643692e-15
 62
256
 0
LINE
 8
Layer0_S_
10
437.93223701247535
20
3.207106781186545
30
8.459899447643692e-15
11
437.77331838987743
21
3.0
31
8.459899447643692e-15
 62
256
 0
LINE
 8
Layer0_S_
10
437.77331838987743
20
3.0
30
8.459899447643692e-15
11
437.67341796737287
21
2.758819045102524
31
8.459899447643692e-15
 62
256
 0
LINE
 8
Layer0_S_
10
437.67341796737287
20
2.758819045102524
30
8.459899447643692e-15
11
437.6393437936619
21
2.500000000000001
31
8.459899447643692e-15
 62
256
 0
LINE
 8
Layer0_S_
10
437.6393437936619
20
2.500000000000001
30
8.459899447643692e-15
11
437.67341796737287
21
2.2411809548974784
31
8.459899447643692e-15
 62
256
 0
LINE
 8
Layer0_S_
10
437.67341796737287
20
2.2411809548974784
30
8.459899447643692e-15
11
437.77331838987743
21
2.0000000000000018
31
8.459899447643692e-15
 62
256
 0
LINE
 8
Layer0_S_
10
437.77331838987743
20
2.0000000000000018
30
8.459899447643692e-15
11
437.93223701247535
21
1.7928932188134574
31
8.459899447643692e-15
 62
256
 0
LINE
 8
Layer0_S_
10
437.93223701247535
20
1.7928932188134574
30
8.459899447643692e-15
11
438.13934379366196
21
1.6339745962155618
31
8.459899447643692e-15
 62
256
 0
LINE
 8
Layer0_S_
10
438.13934379366196
20
1.6339745962155618
30
8.459899447643692e-15
11
438.38052474855937
21
1.5340741737109347
31
8.459899447643692e-15
 62
256
 0
LINE
 8
Layer0_S_
10
438.38052474855937
20
1.5340741737109347
30
8.459899447643692e-15
11
438.6393437936619
21
1.5000000000000029
31
8.459899447643692e-15
 62
256
 0
LINE
 8
Layer0_S_
10
438.6393437936619
20
1.5000000000000029
30
8.459899447643692e-15
11
438.89816283876445
21
1.5340741737109347
31
8.459899447643692e-15
 62
256
 0
LINE
 8
Layer0_S_
10
438.89816283876445
20
1.5340741737109347
30
8.459899447643692e-15
11
439.1393437936619
21
1.6339745962155618
31
8.459899447643692e-15
 62
256
 0
LINE
 8
Layer0_S_
10
439.1393437936619
20
1.6339745962155618
30
8.459899447643692e-15
11
439.3464505748484
21
1.7928932188134519
31
8.459899447643692e-15
 62
256
 0
LINE
 8
Layer0_S_
10
439.3464505748484
20
1.7928932188134519
30
8.459899447643692e-15
11
439.5053691974463
21
2.0000000000000018
31
8.459899447643692e-15
 62
256
 0
LINE
 8
Layer0_S_
10
439.5053691974463
20
2.0000000000000018
30
8.459899447643692e-15
11
439.60526961995095
21
2.2411809548974784
31
8.459899447643692e-15
 62
256
 0
LINE
 8
Layer0_S_
10
439.60526961995095
20
2.2411809548974784
30
8.459899447643692e-15
11
439.63934379366185
21
2.500000000000001
31
8.459899447643692e-15
 62
256
 0
LINE
 8
Layer0_S_
10
439.63934379366185
20
2.500000000000001
30
8.459899447643692e-15
11
439.60526961995095
21
2.758819045102518
31
8.459899447643692e-15
 62
256
 0
LINE
 8
Layer0_S_
10
439.60526961995095
20
2.758819045102518
30
8.459899447643692e-15
11
439.5053691974463
21
3.0
31
8.459899447643692e-15
 62
256
 0
LINE
 8
Layer0_S_
10
439.5053691974463
20
3.0
30
8.459899447643692e-15
11
439.3464505748484
21
3.207106781186545
31
8.459899447643692e-15
 62
256
 0
LINE
 8
Layer0_S_
10
439.3464505748484
20
3.207106781186545
30
8.459899447643692e-15
11
439.1393437936619
21
3.36602540378444
31
8.459899447643692e-15
 62
256
 0
LINE
 8
Layer0_S_
10
439.1393437936619
20
3.36602540378444
30
8.459899447643692e-15
11
438.89816283876445
21
3.4659258262890673
31
8.459899447643692e-15
 62
256
 0
LINE
 8
Layer0_S_
10
438.89816283876445
20
3.4659258262890673
30
8.459899447643692e-15
11
438.6393437936619
21
3.499999999999999
31
8.459899447643692e-15
 62
256
 0
ENDSEC
 0
EOF
