 0
SECTION
 2
HEADER
 9
$ACADVER
 1
AC1006
 9
$LTSCALE
 40
1000.0
 0
ENDSEC
 0
SECTION
 2
TABLES
 0
TABLE
 2
LTYPE
 70
1
 0
LTYPE
 2
SKEMA_SOLID
 70
64
 3
Sketchup - Skema Ltype
 72
65
 73
0
 40
0.000000
 0
LTYPE
 2
SKEMA_DASHED
 70
64
 3
Sketchup - Skema Ltype
 72
65
 73
2
 40
0.1
 49
0.05
 49
-0.05
 0
LTYPE
 2
SKEMA_DOTTED
 70
64
 3
Sketchup - Skema Ltype
 72
65
 73
2
 40
00.1
 49
0.0
 49
-00.1
 0
ENDTAB
 0
TABLE
 2
LAYER
 70
6
 0
LAYER
 2
Layer0_S_
 70
64
 62
20
 6
SKEMA_SOLID
 0
ENDTAB
 0
TABLE
 2
STYLE
 70
0
 0
ENDTAB
 0
ENDSEC
 0
SECTION
 2
BLOCKS
 0
ENDSEC
 0
SECTION
 2
ENTITIES
 0
LINE
 8
Layer0_S_
10
582.2786875873238
20
0.0
30
5.628155202043355e-15
11
743.2786875873238
21
0.0
31
5.628155202043355e-15
 62
256
 0
LINE
 8
Layer0_S_
10
570.2786875873238
20
127.99999999999993
30
5.71190818374959e-15
11
570.2786875873238
21
12.0
31
5.636007044078315e-15
 62
256
 0
LINE
 8
Layer0_S_
10
580.2786875873238
20
139.81107288852084
30
5.719636406964929e-15
11
580.263977044631
21
133.6516317492527
31
4.6155465699390736e-15
 62
256
 0
LINE
 8
Layer0_S_
10
584.2786875873238
20
139.99999999999991
30
5.7197600257845495e-15
11
584.2933981300166
21
133.6516317492527
31
4.295252109786724e-15
 62
256
 0
LINE
 8
Layer0_S_
10
741.2786875873237
20
139.99999999999991
30
5.7197600257845495e-15
11
584.2786875873238
21
139.99999999999991
31
5.7197600257845495e-15
 62
256
 0
LINE
 8
Layer0_S_
10
741.2786875873237
20
139.99999999999991
30
5.7197600257845495e-15
11
741.2639770446309
21
133.65163174925272
31
4.2952521097867206e-15
 62
256
 0
LINE
 8
Layer0_S_
10
745.2786875873237
20
139.81107288852084
30
5.719636406964929e-15
11
745.2933981300166
21
133.65163174925272
31
4.615546569939072e-15
 62
256
 0
LINE
 8
Layer0_S_
10
755.2786875873238
20
12.0
30
5.636007044078315e-15
11
755.2786875873238
21
127.99999999999993
31
5.71190818374959e-15
 62
256
 0
LINE
 8
Layer0_S_
10
582.2786875873238
20
0.0
30
5.628155202043355e-15
11
580.7123732806832
21
0.10266166351427745
31
5.628222375640435e-15
 62
256
 0
LINE
 8
Layer0_S_
10
580.7123732806832
20
0.10266166351427745
30
5.628222375640435e-15
11
579.1728590460935
21
0.40889008453118103
31
5.628422747072806e-15
 62
256
 0
LINE
 8
Layer0_S_
10
579.1728590460935
20
0.40889008453118103
30
5.628422747072806e-15
11
577.6864863989427
21
0.9134456098645598
31
5.628752887929704e-15
 62
256
 0
LINE
 8
Layer0_S_
10
577.6864863989427
20
0.9134456098645598
30
5.628752887929704e-15
11
576.2786875873238
21
1.6076951545867362
31
5.629207149409538e-15
 62
256
 0
LINE
 8
Layer0_S_
10
576.2786875873238
20
1.6076951545867362
30
5.629207149409538e-15
11
574.9735504392191
21
2.4797599165051807
31
5.629777758972441e-15
 62
256
 0
LINE
 8
Layer0_S_
10
574.9735504392191
20
2.4797599165051807
30
5.629777758972441e-15
11
573.7934062130852
21
3.514718625761432
31
5.630454953330589e-15
 62
256
 0
LINE
 8
Layer0_S_
10
573.7934062130852
20
3.514718625761432
30
5.630454953330589e-15
11
572.758447503829
21
4.694862851895351
31
5.631227145500762e-15
 62
256
 0
LINE
 8
Layer0_S_
10
572.758447503829
20
4.694862851895351
30
5.631227145500762e-15
11
571.8863827419106
21
6.0
31
5.632081123060835e-15
 62
256
 0
LINE
 8
Layer0_S_
10
571.8863827419106
20
6.0
30
5.632081123060835e-15
11
571.1921331971884
21
7.407798811618927
31
5.633002274217988e-15
 62
256
 0
LINE
 8
Layer0_S_
10
571.1921331971884
20
7.407798811618927
30
5.633002274217988e-15
11
570.687577671855
21
8.894171458769755
31
5.6339748378205306e-15
 62
256
 0
LINE
 8
Layer0_S_
10
570.687577671855
20
8.894171458769755
30
5.6339748378205306e-15
11
570.3813492508381
21
10.433685693359383
31
5.634982173035579e-15
 62
256
 0
LINE
 8
Layer0_S_
10
570.3813492508381
20
10.433685693359383
30
5.634982173035579e-15
11
570.2786875873238
21
12.0
31
5.636007044078315e-15
 62
256
 0
LINE
 8
Layer0_S_
10
580.2786875873238
20
139.81107288852084
30
5.719636406964929e-15
11
578.7864580403025
21
139.48060681283482
31
5.719420176346246e-15
 62
256
 0
LINE
 8
Layer0_S_
10
578.7864580403025
20
139.48060681283482
30
5.719420176346246e-15
11
577.3544382115264
21
138.94311509968514
31
5.71906848467735e-15
 62
256
 0
LINE
 8
Layer0_S_
10
577.3544382115264
20
138.94311509968514
30
5.71906848467735e-15
11
576.0024230088246
21
138.22782982556296
31
5.7186004590954875e-15
 62
256
 0
LINE
 8
Layer0_S_
10
576.0024230088246
20
138.22782982556296
30
5.7186004590954875e-15
11
574.7523787183222
21
137.34637228064383
31
5.718023703645218e-15
 62
256
 0
LINE
 8
Layer0_S_
10
574.7523787183222
20
137.34637228064383
30
5.718023703645218e-15
11
573.624614897559
21
136.3130635676786
31
5.717347588912922e-15
 62
256
 0
LINE
 8
Layer0_S_
10
573.624614897559
20
136.3130635676786
30
5.717347588912922e-15
11
572.6374544046791
21
135.14469192602948
31
5.716583099782227e-15
 62
256
 0
LINE
 8
Layer0_S_
10
572.6374544046791
20
135.14469192602948
30
5.716583099782227e-15
11
571.8069357056663
21
133.86023997196398
31
5.715742656961825e-15
 62
256
 0
LINE
 8
Layer0_S_
10
571.8069357056663
20
133.86023997196398
30
5.715742656961825e-15
11
571.1465522962582
21
132.48057628675267
31
5.714839915185354e-15
 62
256
 0
LINE
 8
Layer0_S_
10
571.1465522962582
20
132.48057628675267
30
5.714839915185354e-15
11
570.667033472171
21
131.0281163633611
31
5.7138895413619734e-15
 62
256
 0
LINE
 8
Layer0_S_
10
570.667033472171
20
131.0281163633611
30
5.7138895413619734e-15
11
570.3761700094785
21
129.52645842035844
31
5.7129069762820565e-15
 62
256
 0
LINE
 8
Layer0_S_
10
570.3761700094785
20
129.52645842035844
30
5.7129069762820565e-15
11
570.2786875873238
21
127.99999999999993
31
5.71190818374959e-15
 62
256
 0
LINE
 8
Layer0_S_
10
584.2933981300166
20
133.6516317492527
30
4.295252109786724e-15
11
585.651210369759
21
132.96246814417532
31
4.3405405329055254e-15
 62
256
 0
LINE
 8
Layer0_S_
10
585.651210369759
20
132.96246814417532
30
4.3405405329055254e-15
11
586.7918133542731
21
131.9536939451224
31
4.474152672511961e-15
 62
256
 0
LINE
 8
Layer0_S_
10
586.7918133542731
20
131.9536939451224
30
4.474152672511961e-15
11
587.6417458971534
21
130.6902798303088
31
4.687483162473439e-15
 62
256
 0
LINE
 8
Layer0_S_
10
587.6417458971534
20
130.6902798303088
30
4.687483162473439e-15
11
588.1462676077363
21
129.2535967071018
31
4.9667923307903116e-15
 62
256
 0
LINE
 8
Layer0_S_
10
588.1462676077363
20
129.2535967071018
30
4.9667923307903116e-15
11
588.2728844772121
21
127.73617497227609
31
5.294091111015202e-15
 62
256
 0
LINE
 8
Layer0_S_
10
588.2728844772121
20
127.73617497227609
30
5.294091111015202e-15
11
588.0134416738149
21
126.23574503898271
31
5.648299638347785e-15
 62
256
 0
LINE
 8
Layer0_S_
10
588.0134416738149
20
126.23574503898271
30
5.648299638347785e-15
11
587.3846487594172
21
124.84894295369415
31
6.006604910362077e-15
 62
256
 0
LINE
 8
Layer0_S_
10
587.3846487594172
20
124.84894295369415
30
6.006604910362077e-15
11
586.4270035006589
21
123.66508649646015
31
6.345930071451966e-15
 62
256
 0
LINE
 8
Layer0_S_
10
586.4270035006589
20
123.66508649646015
30
6.345930071451966e-15
11
585.2021835871642
21
122.76042261829085
31
6.644420690891473e-15
 62
256
 0
LINE
 8
Layer0_S_
10
585.2021835871642
20
122.76042261829085
30
6.644420690891473e-15
11
583.7890742447307
21
122.19321671274639
31
6.882852309922682e-15
 62
256
 0
LINE
 8
Layer0_S_
10
583.7890742447307
20
122.19321671274639
30
6.882852309922682e-15
11
582.2786875873238
21
121.99999999999993
31
7.0458686039975815e-15
 62
256
 0
LINE
 8
Layer0_S_
10
582.2786875873238
20
121.99999999999993
30
7.0458686039975815e-15
11
580.7683009299169
21
122.19321671274639
31
7.122970415627756e-15
 62
256
 0
LINE
 8
Layer0_S_
10
580.7683009299169
20
122.19321671274639
30
7.122970415627756e-15
11
579.3551915874834
21
122.76042261829085
31
7.109191958616543e-15
 62
256
 0
LINE
 8
Layer0_S_
10
579.3551915874834
20
122.76042261829085
30
7.109191958616543e-15
11
578.1303716739887
21
123.66508649646015
31
7.0054206423540864e-15
 62
256
 0
LINE
 8
Layer0_S_
10
578.1303716739887
20
123.66508649646015
30
7.0054206423540864e-15
11
577.1727264152303
21
124.84894295369415
31
6.8183399177089194e-15
 62
256
 0
LINE
 8
Layer0_S_
10
577.1727264152303
20
124.84894295369415
30
6.8183399177089194e-15
11
576.5439335008327
21
126.23574503898271
31
6.559998825559097e-15
 62
256
 0
LINE
 8
Layer0_S_
10
576.5439335008327
20
126.23574503898271
30
6.559998825559097e-15
11
576.2844906974356
21
127.73617497227609
31
6.247035971435455e-15
 62
256
 0
LINE
 8
Layer0_S_
10
576.2844906974356
20
127.73617497227609
30
6.247035971435455e-15
11
576.4111075669114
21
129.2535967071018
31
5.8996079066331685e-15
 62
256
 0
LINE
 8
Layer0_S_
10
576.4111075669114
20
129.2535967071018
30
5.8996079066331685e-15
11
576.9156292774942
21
130.6902798303088
31
5.540090934017886e-15
 62
256
 0
LINE
 8
Layer0_S_
10
576.9156292774942
20
130.6902798303088
30
5.540090934017886e-15
11
577.7655618203745
21
131.9536939451224
31
5.191639949464702e-15
 62
256
 0
LINE
 8
Layer0_S_
10
577.7655618203745
20
131.9536939451224
30
5.191639949464702e-15
11
578.9061648048886
21
132.96246814417532
31
4.876697137569826e-15
 62
256
 0
LINE
 8
Layer0_S_
10
578.9061648048886
20
132.96246814417532
30
4.876697137569826e-15
11
580.263977044631
21
133.6516317492527
31
4.6155465699390736e-15
 62
256
 0
LINE
 8
Layer0_S_
10
741.2639770446309
20
133.65163174925272
30
4.2952521097867206e-15
11
739.9061648048886
21
132.96246814417532
31
4.3405405329055215e-15
 62
256
 0
LINE
 8
Layer0_S_
10
739.9061648048886
20
132.96246814417532
30
4.3405405329055215e-15
11
738.7655618203744
21
131.95369394512244
31
4.474152672511958e-15
 62
256
 0
LINE
 8
Layer0_S_
10
738.7655618203744
20
131.95369394512244
30
4.474152672511958e-15
11
737.9156292774941
21
130.6902798303088
31
4.687483162473437e-15
 62
256
 0
LINE
 8
Layer0_S_
10
737.9156292774941
20
130.6902798303088
30
4.687483162473437e-15
11
737.4111075669114
21
129.2535967071018
31
4.966792330790309e-15
 62
256
 0
LINE
 8
Layer0_S_
10
737.4111075669114
20
129.2535967071018
30
4.966792330790309e-15
11
737.2844906974354
21
127.73617497227609
31
5.294091111015201e-15
 62
256
 0
LINE
 8
Layer0_S_
10
737.2844906974354
20
127.73617497227609
30
5.294091111015201e-15
11
737.5439335008327
21
126.23574503898271
31
5.648299638347785e-15
 62
256
 0
LINE
 8
Layer0_S_
10
737.5439335008327
20
126.23574503898271
30
5.648299638347785e-15
11
738.1727264152303
21
124.84894295369413
31
6.006604910362077e-15
 62
256
 0
LINE
 8
Layer0_S_
10
738.1727264152303
20
124.84894295369413
30
6.006604910362077e-15
11
739.1303716739887
21
123.66508649646015
31
6.345930071451967e-15
 62
256
 0
LINE
 8
Layer0_S_
10
739.1303716739887
20
123.66508649646015
30
6.345930071451967e-15
11
740.3551915874834
21
122.76042261829085
31
6.644420690891476e-15
 62
256
 0
LINE
 8
Layer0_S_
10
740.3551915874834
20
122.76042261829085
30
6.644420690891476e-15
11
741.7683009299169
21
122.19321671274636
31
6.882852309922683e-15
 62
256
 0
LINE
 8
Layer0_S_
10
741.7683009299169
20
122.19321671274636
30
6.882852309922683e-15
11
743.2786875873238
21
121.99999999999991
31
7.045868603997584e-15
 62
256
 0
LINE
 8
Layer0_S_
10
743.2786875873238
20
121.99999999999991
30
7.045868603997584e-15
11
744.7890742447307
21
122.19321671274636
31
7.12297041562776e-15
 62
256
 0
LINE
 8
Layer0_S_
10
744.7890742447307
20
122.19321671274636
30
7.12297041562776e-15
11
746.2021835871641
21
122.76042261829085
31
7.109191958616547e-15
 62
256
 0
LINE
 8
Layer0_S_
10
746.2021835871641
20
122.76042261829085
30
7.109191958616547e-15
11
747.4270035006588
21
123.66508649646015
31
7.0054206423540896e-15
 62
256
 0
LINE
 8
Layer0_S_
10
747.4270035006588
20
123.66508649646015
30
7.0054206423540896e-15
11
748.3846487594174
21
124.84894295369413
31
6.818339917708923e-15
 62
256
 0
LINE
 8
Layer0_S_
10
748.3846487594174
20
124.84894295369413
30
6.818339917708923e-15
11
749.0134416738149
21
126.23574503898271
31
6.559998825559101e-15
 62
256
 0
LINE
 8
Layer0_S_
10
749.0134416738149
20
126.23574503898271
30
6.559998825559101e-15
11
749.2728844772121
21
127.73617497227606
31
6.2470359714354584e-15
 62
256
 0
LINE
 8
Layer0_S_
10
749.2728844772121
20
127.73617497227606
30
6.2470359714354584e-15
11
749.1462676077363
21
129.2535967071018
31
5.89960790663317e-15
 62
256
 0
LINE
 8
Layer0_S_
10
749.1462676077363
20
129.2535967071018
30
5.89960790663317e-15
11
748.6417458971534
21
130.6902798303088
31
5.540090934017887e-15
 62
256
 0
LINE
 8
Layer0_S_
10
748.6417458971534
20
130.6902798303088
30
5.540090934017887e-15
11
747.7918133542731
21
131.95369394512244
31
5.1916399494647035e-15
 62
256
 0
LINE
 8
Layer0_S_
10
747.7918133542731
20
131.95369394512244
30
5.1916399494647035e-15
11
746.6512103697589
21
132.96246814417532
31
4.876697137569824e-15
 62
256
 0
LINE
 8
Layer0_S_
10
746.6512103697589
20
132.96246814417532
30
4.876697137569824e-15
11
745.2933981300166
21
133.65163174925272
31
4.615546569939072e-15
 62
256
 0
LINE
 8
Layer0_S_
10
745.2786875873237
20
139.81107288852084
30
5.719636406964929e-15
11
746.7709171343452
21
139.48060681283482
31
5.719420176346246e-15
 62
256
 0
LINE
 8
Layer0_S_
10
746.7709171343452
20
139.48060681283482
30
5.719420176346246e-15
11
748.2029369631213
21
138.94311509968514
31
5.71906848467735e-15
 62
256
 0
LINE
 8
Layer0_S_
10
748.2029369631213
20
138.94311509968514
30
5.71906848467735e-15
11
749.5549521658229
21
138.22782982556296
31
5.7186004590954875e-15
 62
256
 0
LINE
 8
Layer0_S_
10
749.5549521658229
20
138.22782982556296
30
5.7186004590954875e-15
11
750.8049964563253
21
137.34637228064383
31
5.718023703645218e-15
 62
256
 0
LINE
 8
Layer0_S_
10
750.8049964563253
20
137.34637228064383
30
5.718023703645218e-15
11
751.9327602770886
21
136.3130635676786
31
5.717347588912922e-15
 62
256
 0
LINE
 8
Layer0_S_
10
751.9327602770886
20
136.3130635676786
30
5.717347588912922e-15
11
752.9199207699684
21
135.14469192602948
31
5.716583099782227e-15
 62
256
 0
LINE
 8
Layer0_S_
10
752.9199207699684
20
135.14469192602948
30
5.716583099782227e-15
11
753.7504394689812
21
133.86023997196398
31
5.715742656961825e-15
 62
256
 0
LINE
 8
Layer0_S_
10
753.7504394689812
20
133.86023997196398
30
5.715742656961825e-15
11
754.4108228783894
21
132.48057628675267
31
5.714839915185354e-15
 62
256
 0
LINE
 8
Layer0_S_
10
754.4108228783894
20
132.48057628675267
30
5.714839915185354e-15
11
754.8903417024766
21
131.0281163633611
31
5.7138895413619734e-15
 62
256
 0
LINE
 8
Layer0_S_
10
754.8903417024766
20
131.0281163633611
30
5.7138895413619734e-15
11
755.1812051651691
21
129.5264584203584
31
5.7129069762820565e-15
 62
256
 0
LINE
 8
Layer0_S_
10
755.1812051651691
20
129.5264584203584
30
5.7129069762820565e-15
11
755.2786875873238
21
127.99999999999993
31
5.71190818374959e-15
 62
256
 0
LINE
 8
Layer0_S_
10
743.2786875873238
20
0.0
30
5.628155202043355e-15
11
744.8450018939644
21
0.10266166351427745
31
5.628222375640435e-15
 62
256
 0
LINE
 8
Layer0_S_
10
744.8450018939644
20
0.10266166351427745
30
5.628222375640435e-15
11
746.3845161285541
21
0.40889008453118103
31
5.628422747072806e-15
 62
256
 0
LINE
 8
Layer0_S_
10
746.3845161285541
20
0.40889008453118103
30
5.628422747072806e-15
11
747.8708887757049
21
0.9134456098645598
31
5.628752887929704e-15
 62
256
 0
LINE
 8
Layer0_S_
10
747.8708887757049
20
0.9134456098645598
30
5.628752887929704e-15
11
749.2786875873238
21
1.6076951545867362
31
5.629207149409538e-15
 62
256
 0
LINE
 8
Layer0_S_
10
749.2786875873238
20
1.6076951545867362
30
5.629207149409538e-15
11
750.5838247354284
21
2.4797599165051807
31
5.629777758972441e-15
 62
256
 0
LINE
 8
Layer0_S_
10
750.5838247354284
20
2.4797599165051807
30
5.629777758972441e-15
11
751.7639689615623
21
3.514718625761432
31
5.630454953330589e-15
 62
256
 0
LINE
 8
Layer0_S_
10
751.7639689615623
20
3.514718625761432
30
5.630454953330589e-15
11
752.7989276708186
21
4.694862851895351
31
5.631227145500762e-15
 62
256
 0
LINE
 8
Layer0_S_
10
752.7989276708186
20
4.694862851895351
30
5.631227145500762e-15
11
753.6709924327371
21
6.0
31
5.632081123060835e-15
 62
256
 0
LINE
 8
Layer0_S_
10
753.6709924327371
20
6.0
30
5.632081123060835e-15
11
754.3652419774593
21
7.407798811618927
31
5.633002274217988e-15
 62
256
 0
LINE
 8
Layer0_S_
10
754.3652419774593
20
7.407798811618927
30
5.633002274217988e-15
11
754.8697975027926
21
8.894171458769755
31
5.6339748378205306e-15
 62
256
 0
LINE
 8
Layer0_S_
10
754.8697975027926
20
8.894171458769755
30
5.6339748378205306e-15
11
755.1760259238094
21
10.433685693359383
31
5.634982173035579e-15
 62
256
 0
LINE
 8
Layer0_S_
10
755.1760259238094
20
10.433685693359383
30
5.634982173035579e-15
11
755.2786875873238
21
12.0
31
5.636007044078315e-15
 62
256
 0
LINE
 8
Layer0_S_
10
723.7786875873237
20
3.499999999999999
30
5.630445322636886e-15
11
723.5198685422212
21
3.4659258262890673
31
5.630423027217765e-15
 62
256
 0
LINE
 8
Layer0_S_
10
723.5198685422212
20
3.4659258262890673
30
5.630423027217765e-15
11
723.2786875873238
21
3.36602540378444
31
5.63035766035637e-15
 62
256
 0
LINE
 8
Layer0_S_
10
723.2786875873238
20
3.36602540378444
30
5.63035766035637e-15
11
723.0715808061373
21
3.207106781186545
31
5.6302536766962825e-15
 62
256
 0
LINE
 8
Layer0_S_
10
723.0715808061373
20
3.207106781186545
30
5.6302536766962825e-15
11
722.9126621835394
21
3.0
31
5.6301181625520956e-15
 62
256
 0
LINE
 8
Layer0_S_
10
722.9126621835394
20
3.0
30
5.6301181625520956e-15
11
722.8127617610347
21
2.758819045102524
31
5.629960352988787e-15
 62
256
 0
LINE
 8
Layer0_S_
10
722.8127617610347
20
2.758819045102524
30
5.629960352988787e-15
11
722.7786875873238
21
2.500000000000001
31
5.6297910024673054e-15
 62
256
 0
LINE
 8
Layer0_S_
10
722.7786875873238
20
2.500000000000001
30
5.6297910024673054e-15
11
722.8127617610347
21
2.2411809548974784
31
5.629621651945824e-15
 62
256
 0
LINE
 8
Layer0_S_
10
722.8127617610347
20
2.2411809548974784
30
5.629621651945824e-15
11
722.9126621835394
21
2.0000000000000018
31
5.629463842382515e-15
 62
256
 0
LINE
 8
Layer0_S_
10
722.9126621835394
20
2.0000000000000018
30
5.629463842382515e-15
11
723.0715808061373
21
1.7928932188134574
31
5.629328328238328e-15
 62
256
 0
LINE
 8
Layer0_S_
10
723.0715808061373
20
1.7928932188134574
30
5.629328328238328e-15
11
723.2786875873238
21
1.6339745962155618
31
5.629224344578241e-15
 62
256
 0
LINE
 8
Layer0_S_
10
723.2786875873238
20
1.6339745962155618
30
5.629224344578241e-15
11
723.5198685422212
21
1.5340741737109347
31
5.629158977716846e-15
 62
256
 0
LINE
 8
Layer0_S_
10
723.5198685422212
20
1.5340741737109347
30
5.629158977716846e-15
11
723.7786875873237
21
1.5000000000000029
31
5.629136682297725e-15
 62
256
 0
LINE
 8
Layer0_S_
10
723.7786875873237
20
1.5000000000000029
30
5.629136682297725e-15
11
724.0375066324262
21
1.5340741737109347
31
5.629158977716846e-15
 62
256
 0
LINE
 8
Layer0_S_
10
724.0375066324262
20
1.5340741737109347
30
5.629158977716846e-15
11
724.2786875873238
21
1.6339745962155618
31
5.629224344578241e-15
 62
256
 0
LINE
 8
Layer0_S_
10
724.2786875873238
20
1.6339745962155618
30
5.629224344578241e-15
11
724.4857943685104
21
1.7928932188134519
31
5.629328328238328e-15
 62
256
 0
LINE
 8
Layer0_S_
10
724.4857943685104
20
1.7928932188134519
30
5.629328328238328e-15
11
724.6447129911082
21
2.0000000000000018
31
5.629463842382515e-15
 62
256
 0
LINE
 8
Layer0_S_
10
724.6447129911082
20
2.0000000000000018
30
5.629463842382515e-15
11
724.7446134136129
21
2.2411809548974784
31
5.629621651945824e-15
 62
256
 0
LINE
 8
Layer0_S_
10
724.7446134136129
20
2.2411809548974784
30
5.629621651945824e-15
11
724.7786875873238
21
2.500000000000001
31
5.6297910024673054e-15
 62
256
 0
LINE
 8
Layer0_S_
10
724.7786875873238
20
2.500000000000001
30
5.6297910024673054e-15
11
724.7446134136129
21
2.758819045102518
31
5.629960352988787e-15
 62
256
 0
LINE
 8
Layer0_S_
10
724.7446134136129
20
2.758819045102518
30
5.629960352988787e-15
11
724.6447129911082
21
3.0
31
5.6301181625520956e-15
 62
256
 0
LINE
 8
Layer0_S_
10
724.6447129911082
20
3.0
30
5.6301181625520956e-15
11
724.4857943685104
21
3.207106781186545
31
5.6302536766962825e-15
 62
256
 0
LINE
 8
Layer0_S_
10
724.4857943685104
20
3.207106781186545
30
5.6302536766962825e-15
11
724.2786875873238
21
3.36602540378444
31
5.63035766035637e-15
 62
256
 0
LINE
 8
Layer0_S_
10
724.2786875873238
20
3.36602540378444
30
5.63035766035637e-15
11
724.0375066324262
21
3.4659258262890673
31
5.630423027217765e-15
 62
256
 0
LINE
 8
Layer0_S_
10
724.0375066324262
20
3.4659258262890673
30
5.630423027217765e-15
11
723.7786875873237
21
3.499999999999999
31
5.630445322636886e-15
 62
256
 0
LINE
 8
Layer0_S_
10
717.2786875873238
20
1.6339745962155618
30
5.629224344578241e-15
11
717.4857943685103
21
1.7928932188134574
31
5.629328328238328e-15
 62
256
 0
LINE
 8
Layer0_S_
10
717.4857943685103
20
1.7928932188134574
30
5.629328328238328e-15
11
717.6447129911082
21
2.0000000000000018
31
5.629463842382515e-15
 62
256
 0
LINE
 8
Layer0_S_
10
717.6447129911082
20
2.0000000000000018
30
5.629463842382515e-15
11
717.7446134136128
21
2.2411809548974784
31
5.629621651945824e-15
 62
256
 0
LINE
 8
Layer0_S_
10
717.7446134136128
20
2.2411809548974784
30
5.629621651945824e-15
11
717.7786875873237
21
2.500000000000001
31
5.6297910024673054e-15
 62
256
 0
LINE
 8
Layer0_S_
10
717.7786875873237
20
2.500000000000001
30
5.6297910024673054e-15
11
717.7446134136128
21
2.758819045102524
31
5.629960352988787e-15
 62
256
 0
LINE
 8
Layer0_S_
10
717.7446134136128
20
2.758819045102524
30
5.629960352988787e-15
11
717.6447129911082
21
3.0
31
5.6301181625520956e-15
 62
256
 0
LINE
 8
Layer0_S_
10
717.6447129911082
20
3.0
30
5.6301181625520956e-15
11
717.4857943685103
21
3.207106781186545
31
5.6302536766962825e-15
 62
256
 0
LINE
 8
Layer0_S_
10
717.4857943685103
20
3.207106781186545
30
5.6302536766962825e-15
11
717.2786875873238
21
3.36602540378444
31
5.63035766035637e-15
 62
256
 0
LINE
 8
Layer0_S_
10
717.2786875873238
20
3.36602540378444
30
5.63035766035637e-15
11
717.0375066324264
21
3.4659258262890673
31
5.630423027217765e-15
 62
256
 0
LINE
 8
Layer0_S_
10
717.0375066324264
20
3.4659258262890673
30
5.630423027217765e-15
11
716.7786875873238
21
3.499999999999999
31
5.630445322636886e-15
 62
256
 0
LINE
 8
Layer0_S_
10
716.7786875873238
20
3.499999999999999
30
5.630445322636886e-15
11
716.5198685422213
21
3.4659258262890673
31
5.630423027217765e-15
 62
256
 0
LINE
 8
Layer0_S_
10
716.5198685422213
20
3.4659258262890673
30
5.630423027217765e-15
11
716.2786875873237
21
3.36602540378444
31
5.63035766035637e-15
 62
256
 0
LINE
 8
Layer0_S_
10
716.2786875873237
20
3.36602540378444
30
5.63035766035637e-15
11
716.0715808061373
21
3.20710678118655
31
5.6302536766962825e-15
 62
256
 0
LINE
 8
Layer0_S_
10
716.0715808061373
20
3.20710678118655
30
5.6302536766962825e-15
11
715.9126621835393
21
3.0
31
5.630118162552095e-15
 62
256
 0
LINE
 8
Layer0_S_
10
715.9126621835393
20
3.0
30
5.630118162552095e-15
11
715.8127617610347
21
2.758819045102524
31
5.629960352988787e-15
 62
256
 0
LINE
 8
Layer0_S_
10
715.8127617610347
20
2.758819045102524
30
5.629960352988787e-15
11
715.7786875873237
21
2.500000000000001
31
5.6297910024673054e-15
 62
256
 0
LINE
 8
Layer0_S_
10
715.7786875873237
20
2.500000000000001
30
5.6297910024673054e-15
11
715.8127617610347
21
2.241180954897484
31
5.629621651945824e-15
 62
256
 0
LINE
 8
Layer0_S_
10
715.8127617610347
20
2.241180954897484
30
5.629621651945824e-15
11
715.9126621835393
21
2.0000000000000018
31
5.629463842382515e-15
 62
256
 0
LINE
 8
Layer0_S_
10
715.9126621835393
20
2.0000000000000018
30
5.629463842382515e-15
11
716.0715808061373
21
1.7928932188134574
31
5.629328328238328e-15
 62
256
 0
LINE
 8
Layer0_S_
10
716.0715808061373
20
1.7928932188134574
30
5.629328328238328e-15
11
716.2786875873237
21
1.6339745962155618
31
5.629224344578241e-15
 62
256
 0
LINE
 8
Layer0_S_
10
716.2786875873237
20
1.6339745962155618
30
5.629224344578241e-15
11
716.5198685422213
21
1.5340741737109347
31
5.629158977716846e-15
 62
256
 0
LINE
 8
Layer0_S_
10
716.5198685422213
20
1.5340741737109347
30
5.629158977716846e-15
11
716.7786875873238
21
1.5000000000000029
31
5.629136682297725e-15
 62
256
 0
LINE
 8
Layer0_S_
10
716.7786875873238
20
1.5000000000000029
30
5.629136682297725e-15
11
717.0375066324262
21
1.5340741737109347
31
5.629158977716846e-15
 62
256
 0
LINE
 8
Layer0_S_
10
717.0375066324262
20
1.5340741737109347
30
5.629158977716846e-15
11
717.2786875873238
21
1.6339745962155618
31
5.629224344578241e-15
 62
256
 0
LINE
 8
Layer0_S_
10
710.6447129911082
20
2.0000000000000018
30
5.629463842382515e-15
11
710.7446134136128
21
2.241180954897484
31
5.629621651945824e-15
 62
256
 0
LINE
 8
Layer0_S_
10
710.7446134136128
20
2.241180954897484
30
5.629621651945824e-15
11
710.7786875873238
21
2.500000000000001
31
5.6297910024673054e-15
 62
256
 0
LINE
 8
Layer0_S_
10
710.7786875873238
20
2.500000000000001
30
5.6297910024673054e-15
11
710.7446134136128
21
2.758819045102524
31
5.629960352988787e-15
 62
256
 0
LINE
 8
Layer0_S_
10
710.7446134136128
20
2.758819045102524
30
5.629960352988787e-15
11
710.6447129911082
21
3.0
31
5.6301181625520956e-15
 62
256
 0
LINE
 8
Layer0_S_
10
710.6447129911082
20
3.0
30
5.6301181625520956e-15
11
710.4857943685103
21
3.20710678118655
31
5.6302536766962825e-15
 62
256
 0
LINE
 8
Layer0_S_
10
710.4857943685103
20
3.20710678118655
30
5.6302536766962825e-15
11
710.2786875873237
21
3.36602540378444
31
5.63035766035637e-15
 62
256
 0
LINE
 8
Layer0_S_
10
710.2786875873237
20
3.36602540378444
30
5.63035766035637e-15
11
710.0375066324264
21
3.4659258262890673
31
5.630423027217765e-15
 62
256
 0
LINE
 8
Layer0_S_
10
710.0375066324264
20
3.4659258262890673
30
5.630423027217765e-15
11
709.7786875873238
21
3.499999999999999
31
5.630445322636886e-15
 62
256
 0
LINE
 8
Layer0_S_
10
709.7786875873238
20
3.499999999999999
30
5.630445322636886e-15
11
709.5198685422213
21
3.4659258262890673
31
5.630423027217765e-15
 62
256
 0
LINE
 8
Layer0_S_
10
709.5198685422213
20
3.4659258262890673
30
5.630423027217765e-15
11
709.2786875873238
21
3.3660254037844344
31
5.63035766035637e-15
 62
256
 0
LINE
 8
Layer0_S_
10
709.2786875873238
20
3.3660254037844344
30
5.63035766035637e-15
11
709.0715808061373
21
3.207106781186545
31
5.6302536766962825e-15
 62
256
 0
LINE
 8
Layer0_S_
10
709.0715808061373
20
3.207106781186545
30
5.6302536766962825e-15
11
708.9126621835393
21
3.0
31
5.6301181625520956e-15
 62
256
 0
LINE
 8
Layer0_S_
10
708.9126621835393
20
3.0
30
5.6301181625520956e-15
11
708.8127617610347
21
2.758819045102518
31
5.629960352988787e-15
 62
256
 0
LINE
 8
Layer0_S_
10
708.8127617610347
20
2.758819045102518
30
5.629960352988787e-15
11
708.7786875873238
21
2.500000000000001
31
5.6297910024673054e-15
 62
256
 0
LINE
 8
Layer0_S_
10
708.7786875873238
20
2.500000000000001
30
5.6297910024673054e-15
11
708.8127617610347
21
2.2411809548974784
31
5.629621651945824e-15
 62
256
 0
LINE
 8
Layer0_S_
10
708.8127617610347
20
2.2411809548974784
30
5.629621651945824e-15
11
708.9126621835393
21
2.0000000000000018
31
5.629463842382515e-15
 62
256
 0
LINE
 8
Layer0_S_
10
708.9126621835393
20
2.0000000000000018
30
5.629463842382515e-15
11
709.0715808061373
21
1.7928932188134574
31
5.629328328238328e-15
 62
256
 0
LINE
 8
Layer0_S_
10
709.0715808061373
20
1.7928932188134574
30
5.629328328238328e-15
11
709.2786875873238
21
1.6339745962155618
31
5.629224344578241e-15
 62
256
 0
LINE
 8
Layer0_S_
10
709.2786875873238
20
1.6339745962155618
30
5.629224344578241e-15
11
709.5198685422213
21
1.5340741737109347
31
5.629158977716846e-15
 62
256
 0
LINE
 8
Layer0_S_
10
709.5198685422213
20
1.5340741737109347
30
5.629158977716846e-15
11
709.7786875873238
21
1.5000000000000029
31
5.629136682297725e-15
 62
256
 0
LINE
 8
Layer0_S_
10
709.7786875873238
20
1.5000000000000029
30
5.629136682297725e-15
11
710.0375066324264
21
1.5340741737109347
31
5.629158977716846e-15
 62
256
 0
LINE
 8
Layer0_S_
10
710.0375066324264
20
1.5340741737109347
30
5.629158977716846e-15
11
710.2786875873237
21
1.6339745962155676
31
5.629224344578241e-15
 62
256
 0
LINE
 8
Layer0_S_
10
710.2786875873237
20
1.6339745962155676
30
5.629224344578241e-15
11
710.4857943685103
21
1.7928932188134574
31
5.629328328238328e-15
 62
256
 0
LINE
 8
Layer0_S_
10
710.4857943685103
20
1.7928932188134574
30
5.629328328238328e-15
11
710.6447129911082
21
2.0000000000000018
31
5.629463842382515e-15
 62
256
 0
LINE
 8
Layer0_S_
10
701.9126621835394
20
2.0000000000000018
30
5.629463842382515e-15
11
702.0715808061373
21
1.7928932188134519
31
5.629328328238328e-15
 62
256
 0
LINE
 8
Layer0_S_
10
702.0715808061373
20
1.7928932188134519
30
5.629328328238328e-15
11
702.2786875873238
21
1.6339745962155618
31
5.629224344578241e-15
 62
256
 0
LINE
 8
Layer0_S_
10
702.2786875873238
20
1.6339745962155618
30
5.629224344578241e-15
11
702.5198685422213
21
1.5340741737109347
31
5.629158977716846e-15
 62
256
 0
LINE
 8
Layer0_S_
10
702.5198685422213
20
1.5340741737109347
30
5.629158977716846e-15
11
702.7786875873237
21
1.5000000000000029
31
5.629136682297725e-15
 62
256
 0
LINE
 8
Layer0_S_
10
702.7786875873237
20
1.5000000000000029
30
5.629136682297725e-15
11
703.0375066324262
21
1.5340741737109347
31
5.629158977716846e-15
 62
256
 0
LINE
 8
Layer0_S_
10
703.0375066324262
20
1.5340741737109347
30
5.629158977716846e-15
11
703.2786875873238
21
1.6339745962155676
31
5.629224344578241e-15
 62
256
 0
LINE
 8
Layer0_S_
10
703.2786875873238
20
1.6339745962155676
30
5.629224344578241e-15
11
703.4857943685104
21
1.7928932188134574
31
5.629328328238328e-15
 62
256
 0
LINE
 8
Layer0_S_
10
703.4857943685104
20
1.7928932188134574
30
5.629328328238328e-15
11
703.6447129911082
21
2.0000000000000018
31
5.629463842382515e-15
 62
256
 0
LINE
 8
Layer0_S_
10
703.6447129911082
20
2.0000000000000018
30
5.629463842382515e-15
11
703.7446134136129
21
2.241180954897484
31
5.629621651945824e-15
 62
256
 0
LINE
 8
Layer0_S_
10
703.7446134136129
20
2.241180954897484
30
5.629621651945824e-15
11
703.7786875873238
21
2.500000000000001
31
5.6297910024673054e-15
 62
256
 0
LINE
 8
Layer0_S_
10
703.7786875873238
20
2.500000000000001
30
5.6297910024673054e-15
11
703.7446134136129
21
2.758819045102524
31
5.629960352988787e-15
 62
256
 0
LINE
 8
Layer0_S_
10
703.7446134136129
20
2.758819045102524
30
5.629960352988787e-15
11
703.6447129911082
21
3.0
31
5.6301181625520956e-15
 62
256
 0
LINE
 8
Layer0_S_
10
703.6447129911082
20
3.0
30
5.6301181625520956e-15
11
703.4857943685104
21
3.20710678118655
31
5.6302536766962825e-15
 62
256
 0
LINE
 8
Layer0_S_
10
703.4857943685104
20
3.20710678118655
30
5.6302536766962825e-15
11
703.2786875873238
21
3.36602540378444
31
5.63035766035637e-15
 62
256
 0
LINE
 8
Layer0_S_
10
703.2786875873238
20
3.36602540378444
30
5.63035766035637e-15
11
703.0375066324262
21
3.4659258262890673
31
5.630423027217765e-15
 62
256
 0
LINE
 8
Layer0_S_
10
703.0375066324262
20
3.4659258262890673
30
5.630423027217765e-15
11
702.7786875873237
21
3.499999999999999
31
5.630445322636886e-15
 62
256
 0
LINE
 8
Layer0_S_
10
702.7786875873237
20
3.499999999999999
30
5.630445322636886e-15
11
702.5198685422213
21
3.4659258262890673
31
5.630423027217765e-15
 62
256
 0
LINE
 8
Layer0_S_
10
702.5198685422213
20
3.4659258262890673
30
5.630423027217765e-15
11
702.2786875873238
21
3.3660254037844344
31
5.63035766035637e-15
 62
256
 0
LINE
 8
Layer0_S_
10
702.2786875873238
20
3.3660254037844344
30
5.63035766035637e-15
11
702.0715808061373
21
3.207106781186545
31
5.6302536766962825e-15
 62
256
 0
LINE
 8
Layer0_S_
10
702.0715808061373
20
3.207106781186545
30
5.6302536766962825e-15
11
701.9126621835394
21
3.0
31
5.6301181625520956e-15
 62
256
 0
LINE
 8
Layer0_S_
10
701.9126621835394
20
3.0
30
5.6301181625520956e-15
11
701.8127617610347
21
2.758819045102518
31
5.629960352988787e-15
 62
256
 0
LINE
 8
Layer0_S_
10
701.8127617610347
20
2.758819045102518
30
5.629960352988787e-15
11
701.7786875873238
21
2.500000000000001
31
5.6297910024673054e-15
 62
256
 0
LINE
 8
Layer0_S_
10
701.7786875873238
20
2.500000000000001
30
5.6297910024673054e-15
11
701.8127617610347
21
2.2411809548974784
31
5.629621651945824e-15
 62
256
 0
LINE
 8
Layer0_S_
10
701.8127617610347
20
2.2411809548974784
30
5.629621651945824e-15
11
701.9126621835394
21
2.0000000000000018
31
5.629463842382515e-15
 62
256
 0
LINE
 8
Layer0_S_
10
696.0375066324264
20
3.4659258262890673
30
5.630423027217765e-15
11
695.7786875873238
21
3.499999999999999
31
5.630445322636886e-15
 62
256
 0
LINE
 8
Layer0_S_
10
695.7786875873238
20
3.499999999999999
30
5.630445322636886e-15
11
695.5198685422213
21
3.4659258262890673
31
5.630423027217765e-15
 62
256
 0
LINE
 8
Layer0_S_
10
695.5198685422213
20
3.4659258262890673
30
5.630423027217765e-15
11
695.2786875873238
21
3.36602540378444
31
5.63035766035637e-15
 62
256
 0
LINE
 8
Layer0_S_
10
695.2786875873238
20
3.36602540378444
30
5.63035766035637e-15
11
695.0715808061371
21
3.20710678118655
31
5.6302536766962825e-15
 62
256
 0
LINE
 8
Layer0_S_
10
695.0715808061371
20
3.20710678118655
30
5.6302536766962825e-15
11
694.9126621835393
21
3.0
31
5.6301181625520956e-15
 62
256
 0
LINE
 8
Layer0_S_
10
694.9126621835393
20
3.0
30
5.6301181625520956e-15
11
694.8127617610347
21
2.758819045102524
31
5.629960352988787e-15
 62
256
 0
LINE
 8
Layer0_S_
10
694.8127617610347
20
2.758819045102524
30
5.629960352988787e-15
11
694.7786875873237
21
2.500000000000001
31
5.6297910024673054e-15
 62
256
 0
LINE
 8
Layer0_S_
10
694.7786875873237
20
2.500000000000001
30
5.6297910024673054e-15
11
694.8127617610347
21
2.241180954897484
31
5.629621651945824e-15
 62
256
 0
LINE
 8
Layer0_S_
10
694.8127617610347
20
2.241180954897484
30
5.629621651945824e-15
11
694.9126621835393
21
2.0000000000000018
31
5.629463842382515e-15
 62
256
 0
LINE
 8
Layer0_S_
10
694.9126621835393
20
2.0000000000000018
30
5.629463842382515e-15
11
695.0715808061371
21
1.7928932188134574
31
5.629328328238328e-15
 62
256
 0
LINE
 8
Layer0_S_
10
695.0715808061371
20
1.7928932188134574
30
5.629328328238328e-15
11
695.2786875873237
21
1.6339745962155676
31
5.629224344578241e-15
 62
256
 0
LINE
 8
Layer0_S_
10
695.2786875873237
20
1.6339745962155676
30
5.629224344578241e-15
11
695.5198685422213
21
1.5340741737109347
31
5.629158977716846e-15
 62
256
 0
LINE
 8
Layer0_S_
10
695.5198685422213
20
1.5340741737109347
30
5.629158977716846e-15
11
695.7786875873238
21
1.5000000000000029
31
5.629136682297725e-15
 62
256
 0
LINE
 8
Layer0_S_
10
695.7786875873238
20
1.5000000000000029
30
5.629136682297725e-15
11
696.0375066324264
21
1.5340741737109347
31
5.629158977716846e-15
 62
256
 0
LINE
 8
Layer0_S_
10
696.0375066324264
20
1.5340741737109347
30
5.629158977716846e-15
11
696.2786875873238
21
1.6339745962155618
31
5.629224344578241e-15
 62
256
 0
LINE
 8
Layer0_S_
10
696.2786875873238
20
1.6339745962155618
30
5.629224344578241e-15
11
696.4857943685103
21
1.7928932188134519
31
5.629328328238328e-15
 62
256
 0
LINE
 8
Layer0_S_
10
696.4857943685103
20
1.7928932188134519
30
5.629328328238328e-15
11
696.6447129911082
21
2.0000000000000018
31
5.629463842382515e-15
 62
256
 0
LINE
 8
Layer0_S_
10
696.6447129911082
20
2.0000000000000018
30
5.629463842382515e-15
11
696.7446134136128
21
2.2411809548974784
31
5.629621651945824e-15
 62
256
 0
LINE
 8
Layer0_S_
10
696.7446134136128
20
2.2411809548974784
30
5.629621651945824e-15
11
696.7786875873237
21
2.4999999999999956
31
5.6297910024673054e-15
 62
256
 0
LINE
 8
Layer0_S_
10
696.7786875873237
20
2.4999999999999956
30
5.6297910024673054e-15
11
696.7446134136128
21
2.758819045102518
31
5.629960352988787e-15
 62
256
 0
LINE
 8
Layer0_S_
10
696.7446134136128
20
2.758819045102518
30
5.629960352988787e-15
11
696.6447129911082
21
3.0
31
5.6301181625520956e-15
 62
256
 0
LINE
 8
Layer0_S_
10
696.6447129911082
20
3.0
30
5.6301181625520956e-15
11
696.4857943685103
21
3.207106781186545
31
5.6302536766962825e-15
 62
256
 0
LINE
 8
Layer0_S_
10
696.4857943685103
20
3.207106781186545
30
5.6302536766962825e-15
11
696.2786875873238
21
3.3660254037844344
31
5.63035766035637e-15
 62
256
 0
LINE
 8
Layer0_S_
10
696.2786875873238
20
3.3660254037844344
30
5.63035766035637e-15
11
696.0375066324264
21
3.4659258262890673
31
5.630423027217765e-15
 62
256
 0
LINE
 8
Layer0_S_
10
687.9126621835394
20
2.0000000000000018
30
5.629463842382515e-15
11
688.0715808061373
21
1.7928932188134519
31
5.629328328238328e-15
 62
256
 0
LINE
 8
Layer0_S_
10
688.0715808061373
20
1.7928932188134519
30
5.629328328238328e-15
11
688.2786875873238
21
1.6339745962155618
31
5.629224344578241e-15
 62
256
 0
LINE
 8
Layer0_S_
10
688.2786875873238
20
1.6339745962155618
30
5.629224344578241e-15
11
688.5198685422213
21
1.5340741737109347
31
5.629158977716846e-15
 62
256
 0
LINE
 8
Layer0_S_
10
688.5198685422213
20
1.5340741737109347
30
5.629158977716846e-15
11
688.7786875873238
21
1.5000000000000029
31
5.629136682297725e-15
 62
256
 0
LINE
 8
Layer0_S_
10
688.7786875873238
20
1.5000000000000029
30
5.629136682297725e-15
11
689.0375066324262
21
1.5340741737109347
31
5.629158977716846e-15
 62
256
 0
LINE
 8
Layer0_S_
10
689.0375066324262
20
1.5340741737109347
30
5.629158977716846e-15
11
689.2786875873237
21
1.6339745962155676
31
5.629224344578241e-15
 62
256
 0
LINE
 8
Layer0_S_
10
689.2786875873237
20
1.6339745962155676
30
5.629224344578241e-15
11
689.4857943685104
21
1.7928932188134574
31
5.629328328238328e-15
 62
256
 0
LINE
 8
Layer0_S_
10
689.4857943685104
20
1.7928932188134574
30
5.629328328238328e-15
11
689.6447129911082
21
2.0000000000000018
31
5.629463842382515e-15
 62
256
 0
LINE
 8
Layer0_S_
10
689.6447129911082
20
2.0000000000000018
30
5.629463842382515e-15
11
689.7446134136128
21
2.241180954897484
31
5.629621651945824e-15
 62
256
 0
LINE
 8
Layer0_S_
10
689.7446134136128
20
2.241180954897484
30
5.629621651945824e-15
11
689.7786875873238
21
2.500000000000001
31
5.6297910024673054e-15
 62
256
 0
LINE
 8
Layer0_S_
10
689.7786875873238
20
2.500000000000001
30
5.6297910024673054e-15
11
689.7446134136128
21
2.758819045102524
31
5.629960352988787e-15
 62
256
 0
LINE
 8
Layer0_S_
10
689.7446134136128
20
2.758819045102524
30
5.629960352988787e-15
11
689.6447129911082
21
3.0
31
5.6301181625520956e-15
 62
256
 0
LINE
 8
Layer0_S_
10
689.6447129911082
20
3.0
30
5.6301181625520956e-15
11
689.4857943685104
21
3.20710678118655
31
5.6302536766962825e-15
 62
256
 0
LINE
 8
Layer0_S_
10
689.4857943685104
20
3.20710678118655
30
5.6302536766962825e-15
11
689.2786875873237
21
3.36602540378444
31
5.63035766035637e-15
 62
256
 0
LINE
 8
Layer0_S_
10
689.2786875873237
20
3.36602540378444
30
5.63035766035637e-15
11
689.0375066324262
21
3.4659258262890673
31
5.630423027217765e-15
 62
256
 0
LINE
 8
Layer0_S_
10
689.0375066324262
20
3.4659258262890673
30
5.630423027217765e-15
11
688.7786875873238
21
3.499999999999999
31
5.630445322636886e-15
 62
256
 0
LINE
 8
Layer0_S_
10
688.7786875873238
20
3.499999999999999
30
5.630445322636886e-15
11
688.5198685422213
21
3.4659258262890673
31
5.630423027217765e-15
 62
256
 0
LINE
 8
Layer0_S_
10
688.5198685422213
20
3.4659258262890673
30
5.630423027217765e-15
11
688.2786875873238
21
3.36602540378444
31
5.63035766035637e-15
 62
256
 0
LINE
 8
Layer0_S_
10
688.2786875873238
20
3.36602540378444
30
5.63035766035637e-15
11
688.0715808061373
21
3.207106781186545
31
5.6302536766962825e-15
 62
256
 0
LINE
 8
Layer0_S_
10
688.0715808061373
20
3.207106781186545
30
5.6302536766962825e-15
11
687.9126621835394
21
3.0
31
5.6301181625520956e-15
 62
256
 0
LINE
 8
Layer0_S_
10
687.9126621835394
20
3.0
30
5.6301181625520956e-15
11
687.8127617610347
21
2.758819045102518
31
5.629960352988787e-15
 62
256
 0
LINE
 8
Layer0_S_
10
687.8127617610347
20
2.758819045102518
30
5.629960352988787e-15
11
687.7786875873238
21
2.500000000000001
31
5.6297910024673054e-15
 62
256
 0
LINE
 8
Layer0_S_
10
687.7786875873238
20
2.500000000000001
30
5.6297910024673054e-15
11
687.8127617610347
21
2.2411809548974784
31
5.629621651945824e-15
 62
256
 0
LINE
 8
Layer0_S_
10
687.8127617610347
20
2.2411809548974784
30
5.629621651945824e-15
11
687.9126621835394
21
2.0000000000000018
31
5.629463842382515e-15
 62
256
 0
LINE
 8
Layer0_S_
10
680.7786875873238
20
2.500000000000001
30
5.6297910024673054e-15
11
680.8127617610347
21
2.2411809548974784
31
5.629621651945824e-15
 62
256
 0
LINE
 8
Layer0_S_
10
680.8127617610347
20
2.2411809548974784
30
5.629621651945824e-15
11
680.9126621835394
21
2.0000000000000018
31
5.629463842382515e-15
 62
256
 0
LINE
 8
Layer0_S_
10
680.9126621835394
20
2.0000000000000018
30
5.629463842382515e-15
11
681.0715808061373
21
1.7928932188134519
31
5.629328328238328e-15
 62
256
 0
LINE
 8
Layer0_S_
10
681.0715808061373
20
1.7928932188134519
30
5.629328328238328e-15
11
681.2786875873237
21
1.6339745962155618
31
5.629224344578241e-15
 62
256
 0
LINE
 8
Layer0_S_
10
681.2786875873237
20
1.6339745962155618
30
5.629224344578241e-15
11
681.5198685422213
21
1.5340741737109347
31
5.629158977716846e-15
 62
256
 0
LINE
 8
Layer0_S_
10
681.5198685422213
20
1.5340741737109347
30
5.629158977716846e-15
11
681.7786875873237
21
1.5000000000000029
31
5.629136682297725e-15
 62
256
 0
LINE
 8
Layer0_S_
10
681.7786875873237
20
1.5000000000000029
30
5.629136682297725e-15
11
682.0375066324262
21
1.5340741737109347
31
5.629158977716846e-15
 62
256
 0
LINE
 8
Layer0_S_
10
682.0375066324262
20
1.5340741737109347
30
5.629158977716846e-15
11
682.2786875873238
21
1.6339745962155618
31
5.629224344578241e-15
 62
256
 0
LINE
 8
Layer0_S_
10
682.2786875873238
20
1.6339745962155618
30
5.629224344578241e-15
11
682.4857943685104
21
1.7928932188134574
31
5.629328328238328e-15
 62
256
 0
LINE
 8
Layer0_S_
10
682.4857943685104
20
1.7928932188134574
30
5.629328328238328e-15
11
682.6447129911082
21
2.0000000000000018
31
5.629463842382515e-15
 62
256
 0
LINE
 8
Layer0_S_
10
682.6447129911082
20
2.0000000000000018
30
5.629463842382515e-15
11
682.7446134136129
21
2.2411809548974784
31
5.629621651945824e-15
 62
256
 0
LINE
 8
Layer0_S_
10
682.7446134136129
20
2.2411809548974784
30
5.629621651945824e-15
11
682.7786875873238
21
2.500000000000001
31
5.6297910024673054e-15
 62
256
 0
LINE
 8
Layer0_S_
10
682.7786875873238
20
2.500000000000001
30
5.6297910024673054e-15
11
682.7446134136129
21
2.758819045102524
31
5.629960352988787e-15
 62
256
 0
LINE
 8
Layer0_S_
10
682.7446134136129
20
2.758819045102524
30
5.629960352988787e-15
11
682.6447129911082
21
3.0
31
5.6301181625520956e-15
 62
256
 0
LINE
 8
Layer0_S_
10
682.6447129911082
20
3.0
30
5.6301181625520956e-15
11
682.4857943685104
21
3.207106781186545
31
5.6302536766962825e-15
 62
256
 0
LINE
 8
Layer0_S_
10
682.4857943685104
20
3.207106781186545
30
5.6302536766962825e-15
11
682.2786875873238
21
3.36602540378444
31
5.63035766035637e-15
 62
256
 0
LINE
 8
Layer0_S_
10
682.2786875873238
20
3.36602540378444
30
5.63035766035637e-15
11
682.0375066324262
21
3.4659258262890673
31
5.630423027217765e-15
 62
256
 0
LINE
 8
Layer0_S_
10
682.0375066324262
20
3.4659258262890673
30
5.630423027217765e-15
11
681.7786875873237
21
3.499999999999999
31
5.630445322636886e-15
 62
256
 0
LINE
 8
Layer0_S_
10
681.7786875873237
20
3.499999999999999
30
5.630445322636886e-15
11
681.5198685422213
21
3.4659258262890673
31
5.630423027217765e-15
 62
256
 0
LINE
 8
Layer0_S_
10
681.5198685422213
20
3.4659258262890673
30
5.630423027217765e-15
11
681.2786875873237
21
3.36602540378444
31
5.63035766035637e-15
 62
256
 0
LINE
 8
Layer0_S_
10
681.2786875873237
20
3.36602540378444
30
5.63035766035637e-15
11
681.0715808061373
21
3.207106781186545
31
5.6302536766962825e-15
 62
256
 0
LINE
 8
Layer0_S_
10
681.0715808061373
20
3.207106781186545
30
5.6302536766962825e-15
11
680.9126621835394
21
3.0
31
5.6301181625520956e-15
 62
256
 0
LINE
 8
Layer0_S_
10
680.9126621835394
20
3.0
30
5.6301181625520956e-15
11
680.8127617610347
21
2.758819045102524
31
5.629960352988787e-15
 62
256
 0
LINE
 8
Layer0_S_
10
680.8127617610347
20
2.758819045102524
30
5.629960352988787e-15
11
680.7786875873238
21
2.500000000000001
31
5.6297910024673054e-15
 62
256
 0
LINE
 8
Layer0_S_
10
674.2786875873238
20
3.36602540378444
30
5.63035766035637e-15
11
674.0715808061371
21
3.20710678118655
31
5.6302536766962825e-15
 62
256
 0
LINE
 8
Layer0_S_
10
674.0715808061371
20
3.20710678118655
30
5.6302536766962825e-15
11
673.9126621835393
21
3.0
31
5.630118162552095e-15
 62
256
 0
LINE
 8
Layer0_S_
10
673.9126621835393
20
3.0
30
5.630118162552095e-15
11
673.8127617610347
21
2.758819045102524
31
5.629960352988787e-15
 62
256
 0
LINE
 8
Layer0_S_
10
673.8127617610347
20
2.758819045102524
30
5.629960352988787e-15
11
673.7786875873237
21
2.500000000000001
31
5.6297910024673054e-15
 62
256
 0
LINE
 8
Layer0_S_
10
673.7786875873237
20
2.500000000000001
30
5.6297910024673054e-15
11
673.8127617610347
21
2.241180954897484
31
5.629621651945824e-15
 62
256
 0
LINE
 8
Layer0_S_
10
673.8127617610347
20
2.241180954897484
30
5.629621651945824e-15
11
673.9126621835393
21
2.0000000000000018
31
5.629463842382515e-15
 62
256
 0
LINE
 8
Layer0_S_
10
673.9126621835393
20
2.0000000000000018
30
5.629463842382515e-15
11
674.0715808061371
21
1.7928932188134574
31
5.629328328238328e-15
 62
256
 0
LINE
 8
Layer0_S_
10
674.0715808061371
20
1.7928932188134574
30
5.629328328238328e-15
11
674.2786875873238
21
1.6339745962155618
31
5.629224344578241e-15
 62
256
 0
LINE
 8
Layer0_S_
10
674.2786875873238
20
1.6339745962155618
30
5.629224344578241e-15
11
674.5198685422213
21
1.5340741737109347
31
5.629158977716846e-15
 62
256
 0
LINE
 8
Layer0_S_
10
674.5198685422213
20
1.5340741737109347
30
5.629158977716846e-15
11
674.7786875873238
21
1.5000000000000029
31
5.629136682297725e-15
 62
256
 0
LINE
 8
Layer0_S_
10
674.7786875873238
20
1.5000000000000029
30
5.629136682297725e-15
11
675.0375066324264
21
1.5340741737109347
31
5.629158977716846e-15
 62
256
 0
LINE
 8
Layer0_S_
10
675.0375066324264
20
1.5340741737109347
30
5.629158977716846e-15
11
675.2786875873238
21
1.6339745962155618
31
5.629224344578241e-15
 62
256
 0
LINE
 8
Layer0_S_
10
675.2786875873238
20
1.6339745962155618
30
5.629224344578241e-15
11
675.4857943685103
21
1.7928932188134519
31
5.629328328238328e-15
 62
256
 0
LINE
 8
Layer0_S_
10
675.4857943685103
20
1.7928932188134519
30
5.629328328238328e-15
11
675.6447129911081
21
2.0000000000000018
31
5.629463842382515e-15
 62
256
 0
LINE
 8
Layer0_S_
10
675.6447129911081
20
2.0000000000000018
30
5.629463842382515e-15
11
675.7446134136128
21
2.2411809548974784
31
5.629621651945824e-15
 62
256
 0
LINE
 8
Layer0_S_
10
675.7446134136128
20
2.2411809548974784
30
5.629621651945824e-15
11
675.7786875873237
21
2.500000000000001
31
5.6297910024673054e-15
 62
256
 0
LINE
 8
Layer0_S_
10
675.7786875873237
20
2.500000000000001
30
5.6297910024673054e-15
11
675.7446134136128
21
2.758819045102518
31
5.629960352988787e-15
 62
256
 0
LINE
 8
Layer0_S_
10
675.7446134136128
20
2.758819045102518
30
5.629960352988787e-15
11
675.6447129911081
21
3.0
31
5.6301181625520956e-15
 62
256
 0
LINE
 8
Layer0_S_
10
675.6447129911081
20
3.0
30
5.6301181625520956e-15
11
675.4857943685103
21
3.207106781186545
31
5.6302536766962825e-15
 62
256
 0
LINE
 8
Layer0_S_
10
675.4857943685103
20
3.207106781186545
30
5.6302536766962825e-15
11
675.2786875873238
21
3.3660254037844344
31
5.63035766035637e-15
 62
256
 0
LINE
 8
Layer0_S_
10
675.2786875873238
20
3.3660254037844344
30
5.63035766035637e-15
11
675.0375066324264
21
3.4659258262890673
31
5.630423027217765e-15
 62
256
 0
LINE
 8
Layer0_S_
10
675.0375066324264
20
3.4659258262890673
30
5.630423027217765e-15
11
674.7786875873238
21
3.499999999999999
31
5.630445322636886e-15
 62
256
 0
LINE
 8
Layer0_S_
10
674.7786875873238
20
3.499999999999999
30
5.630445322636886e-15
11
674.5198685422213
21
3.4659258262890673
31
5.630423027217765e-15
 62
256
 0
LINE
 8
Layer0_S_
10
674.5198685422213
20
3.4659258262890673
30
5.630423027217765e-15
11
674.2786875873238
21
3.36602540378444
31
5.63035766035637e-15
 62
256
 0
LINE
 8
Layer0_S_
10
668.0375066324262
20
1.5340741737109347
30
5.629158977716846e-15
11
668.2786875873238
21
1.6339745962155676
31
5.629224344578241e-15
 62
256
 0
LINE
 8
Layer0_S_
10
668.2786875873238
20
1.6339745962155676
30
5.629224344578241e-15
11
668.4857943685104
21
1.7928932188134574
31
5.629328328238328e-15
 62
256
 0
LINE
 8
Layer0_S_
10
668.4857943685104
20
1.7928932188134574
30
5.629328328238328e-15
11
668.6447129911082
21
2.0000000000000018
31
5.629463842382515e-15
 62
256
 0
LINE
 8
Layer0_S_
10
668.6447129911082
20
2.0000000000000018
30
5.629463842382515e-15
11
668.7446134136129
21
2.241180954897484
31
5.629621651945824e-15
 62
256
 0
LINE
 8
Layer0_S_
10
668.7446134136129
20
2.241180954897484
30
5.629621651945824e-15
11
668.7786875873238
21
2.500000000000001
31
5.6297910024673054e-15
 62
256
 0
LINE
 8
Layer0_S_
10
668.7786875873238
20
2.500000000000001
30
5.6297910024673054e-15
11
668.7446134136129
21
2.758819045102524
31
5.629960352988787e-15
 62
256
 0
LINE
 8
Layer0_S_
10
668.7446134136129
20
2.758819045102524
30
5.629960352988787e-15
11
668.6447129911082
21
3.0
31
5.6301181625520956e-15
 62
256
 0
LINE
 8
Layer0_S_
10
668.6447129911082
20
3.0
30
5.6301181625520956e-15
11
668.4857943685104
21
3.20710678118655
31
5.6302536766962825e-15
 62
256
 0
LINE
 8
Layer0_S_
10
668.4857943685104
20
3.20710678118655
30
5.6302536766962825e-15
11
668.2786875873237
21
3.36602540378444
31
5.63035766035637e-15
 62
256
 0
LINE
 8
Layer0_S_
10
668.2786875873237
20
3.36602540378444
30
5.63035766035637e-15
11
668.0375066324262
21
3.4659258262890673
31
5.630423027217765e-15
 62
256
 0
LINE
 8
Layer0_S_
10
668.0375066324262
20
3.4659258262890673
30
5.630423027217765e-15
11
667.7786875873237
21
3.499999999999999
31
5.630445322636886e-15
 62
256
 0
LINE
 8
Layer0_S_
10
667.7786875873237
20
3.499999999999999
30
5.630445322636886e-15
11
667.5198685422213
21
3.4659258262890673
31
5.630423027217765e-15
 62
256
 0
LINE
 8
Layer0_S_
10
667.5198685422213
20
3.4659258262890673
30
5.630423027217765e-15
11
667.2786875873238
21
3.3660254037844344
31
5.63035766035637e-15
 62
256
 0
LINE
 8
Layer0_S_
10
667.2786875873238
20
3.3660254037844344
30
5.63035766035637e-15
11
667.0715808061373
21
3.207106781186545
31
5.6302536766962825e-15
 62
256
 0
LINE
 8
Layer0_S_
10
667.0715808061373
20
3.207106781186545
30
5.6302536766962825e-15
11
666.9126621835394
21
3.0
31
5.6301181625520956e-15
 62
256
 0
LINE
 8
Layer0_S_
10
666.9126621835394
20
3.0
30
5.6301181625520956e-15
11
666.8127617610347
21
2.758819045102518
31
5.629960352988787e-15
 62
256
 0
LINE
 8
Layer0_S_
10
666.8127617610347
20
2.758819045102518
30
5.629960352988787e-15
11
666.7786875873238
21
2.500000000000001
31
5.6297910024673054e-15
 62
256
 0
LINE
 8
Layer0_S_
10
666.7786875873238
20
2.500000000000001
30
5.6297910024673054e-15
11
666.8127617610347
21
2.2411809548974784
31
5.629621651945824e-15
 62
256
 0
LINE
 8
Layer0_S_
10
666.8127617610347
20
2.2411809548974784
30
5.629621651945824e-15
11
666.9126621835394
21
2.0000000000000018
31
5.629463842382515e-15
 62
256
 0
LINE
 8
Layer0_S_
10
666.9126621835394
20
2.0000000000000018
30
5.629463842382515e-15
11
667.0715808061373
21
1.7928932188134519
31
5.629328328238328e-15
 62
256
 0
LINE
 8
Layer0_S_
10
667.0715808061373
20
1.7928932188134519
30
5.629328328238328e-15
11
667.2786875873238
21
1.6339745962155618
31
5.629224344578241e-15
 62
256
 0
LINE
 8
Layer0_S_
10
667.2786875873238
20
1.6339745962155618
30
5.629224344578241e-15
11
667.5198685422213
21
1.5340741737109347
31
5.629158977716846e-15
 62
256
 0
LINE
 8
Layer0_S_
10
667.5198685422213
20
1.5340741737109347
30
5.629158977716846e-15
11
667.7786875873237
21
1.5000000000000029
31
5.629136682297725e-15
 62
256
 0
LINE
 8
Layer0_S_
10
667.7786875873237
20
1.5000000000000029
30
5.629136682297725e-15
11
668.0375066324262
21
1.5340741737109347
31
5.629158977716846e-15
 62
256
 0
LINE
 8
Layer0_S_
10
661.0375066324264
20
3.4659258262890673
30
5.630423027217765e-15
11
660.7786875873238
21
3.499999999999999
31
5.630445322636886e-15
 62
256
 0
LINE
 8
Layer0_S_
10
660.7786875873238
20
3.499999999999999
30
5.630445322636886e-15
11
660.5198685422213
21
3.4659258262890673
31
5.630423027217765e-15
 62
256
 0
LINE
 8
Layer0_S_
10
660.5198685422213
20
3.4659258262890673
30
5.630423027217765e-15
11
660.2786875873237
21
3.36602540378444
31
5.63035766035637e-15
 62
256
 0
LINE
 8
Layer0_S_
10
660.2786875873237
20
3.36602540378444
30
5.63035766035637e-15
11
660.0715808061373
21
3.20710678118655
31
5.6302536766962825e-15
 62
256
 0
LINE
 8
Layer0_S_
10
660.0715808061373
20
3.20710678118655
30
5.6302536766962825e-15
11
659.9126621835393
21
3.0
31
5.6301181625520956e-15
 62
256
 0
LINE
 8
Layer0_S_
10
659.9126621835393
20
3.0
30
5.6301181625520956e-15
11
659.8127617610347
21
2.758819045102524
31
5.629960352988787e-15
 62
256
 0
LINE
 8
Layer0_S_
10
659.8127617610347
20
2.758819045102524
30
5.629960352988787e-15
11
659.7786875873238
21
2.500000000000001
31
5.6297910024673054e-15
 62
256
 0
LINE
 8
Layer0_S_
10
659.7786875873238
20
2.500000000000001
30
5.6297910024673054e-15
11
659.8127617610347
21
2.241180954897484
31
5.629621651945824e-15
 62
256
 0
LINE
 8
Layer0_S_
10
659.8127617610347
20
2.241180954897484
30
5.629621651945824e-15
11
659.9126621835393
21
2.0000000000000018
31
5.629463842382515e-15
 62
256
 0
LINE
 8
Layer0_S_
10
659.9126621835393
20
2.0000000000000018
30
5.629463842382515e-15
11
660.0715808061373
21
1.7928932188134574
31
5.629328328238328e-15
 62
256
 0
LINE
 8
Layer0_S_
10
660.0715808061373
20
1.7928932188134574
30
5.629328328238328e-15
11
660.2786875873237
21
1.6339745962155676
31
5.629224344578241e-15
 62
256
 0
LINE
 8
Layer0_S_
10
660.2786875873237
20
1.6339745962155676
30
5.629224344578241e-15
11
660.5198685422213
21
1.5340741737109347
31
5.629158977716846e-15
 62
256
 0
LINE
 8
Layer0_S_
10
660.5198685422213
20
1.5340741737109347
30
5.629158977716846e-15
11
660.7786875873238
21
1.5000000000000029
31
5.629136682297725e-15
 62
256
 0
LINE
 8
Layer0_S_
10
660.7786875873238
20
1.5000000000000029
30
5.629136682297725e-15
11
661.0375066324262
21
1.5340741737109347
31
5.629158977716846e-15
 62
256
 0
LINE
 8
Layer0_S_
10
661.0375066324262
20
1.5340741737109347
30
5.629158977716846e-15
11
661.2786875873238
21
1.6339745962155618
31
5.629224344578241e-15
 62
256
 0
LINE
 8
Layer0_S_
10
661.2786875873238
20
1.6339745962155618
30
5.629224344578241e-15
11
661.4857943685104
21
1.7928932188134519
31
5.629328328238328e-15
 62
256
 0
LINE
 8
Layer0_S_
10
661.4857943685104
20
1.7928932188134519
30
5.629328328238328e-15
11
661.6447129911082
21
2.0000000000000018
31
5.629463842382515e-15
 62
256
 0
LINE
 8
Layer0_S_
10
661.6447129911082
20
2.0000000000000018
30
5.629463842382515e-15
11
661.7446134136128
21
2.2411809548974784
31
5.629621651945824e-15
 62
256
 0
LINE
 8
Layer0_S_
10
661.7446134136128
20
2.2411809548974784
30
5.629621651945824e-15
11
661.7786875873238
21
2.4999999999999956
31
5.6297910024673054e-15
 62
256
 0
LINE
 8
Layer0_S_
10
661.7786875873238
20
2.4999999999999956
30
5.6297910024673054e-15
11
661.7446134136128
21
2.758819045102518
31
5.629960352988787e-15
 62
256
 0
LINE
 8
Layer0_S_
10
661.7446134136128
20
2.758819045102518
30
5.629960352988787e-15
11
661.6447129911082
21
3.0
31
5.6301181625520956e-15
 62
256
 0
LINE
 8
Layer0_S_
10
661.6447129911082
20
3.0
30
5.6301181625520956e-15
11
661.4857943685104
21
3.207106781186545
31
5.6302536766962825e-15
 62
256
 0
LINE
 8
Layer0_S_
10
661.4857943685104
20
3.207106781186545
30
5.6302536766962825e-15
11
661.2786875873238
21
3.3660254037844344
31
5.63035766035637e-15
 62
256
 0
LINE
 8
Layer0_S_
10
661.2786875873238
20
3.3660254037844344
30
5.63035766035637e-15
11
661.0375066324264
21
3.4659258262890673
31
5.630423027217765e-15
 62
256
 0
LINE
 8
Layer0_S_
10
652.8127617610347
20
2.758819045102524
30
5.629960352988787e-15
11
652.7786875873238
21
2.500000000000001
31
5.6297910024673054e-15
 62
256
 0
LINE
 8
Layer0_S_
10
652.7786875873238
20
2.500000000000001
30
5.6297910024673054e-15
11
652.8127617610347
21
2.241180954897484
31
5.629621651945824e-15
 62
256
 0
LINE
 8
Layer0_S_
10
652.8127617610347
20
2.241180954897484
30
5.629621651945824e-15
11
652.9126621835393
21
2.0000000000000018
31
5.629463842382515e-15
 62
256
 0
LINE
 8
Layer0_S_
10
652.9126621835393
20
2.0000000000000018
30
5.629463842382515e-15
11
653.0715808061373
21
1.7928932188134574
31
5.629328328238328e-15
 62
256
 0
LINE
 8
Layer0_S_
10
653.0715808061373
20
1.7928932188134574
30
5.629328328238328e-15
11
653.2786875873238
21
1.6339745962155676
31
5.629224344578241e-15
 62
256
 0
LINE
 8
Layer0_S_
10
653.2786875873238
20
1.6339745962155676
30
5.629224344578241e-15
11
653.5198685422213
21
1.5340741737109347
31
5.629158977716846e-15
 62
256
 0
LINE
 8
Layer0_S_
10
653.5198685422213
20
1.5340741737109347
30
5.629158977716846e-15
11
653.7786875873238
21
1.5000000000000029
31
5.629136682297725e-15
 62
256
 0
LINE
 8
Layer0_S_
10
653.7786875873238
20
1.5000000000000029
30
5.629136682297725e-15
11
654.0375066324264
21
1.5340741737109347
31
5.629158977716846e-15
 62
256
 0
LINE
 8
Layer0_S_
10
654.0375066324264
20
1.5340741737109347
30
5.629158977716846e-15
11
654.2786875873237
21
1.6339745962155618
31
5.629224344578241e-15
 62
256
 0
LINE
 8
Layer0_S_
10
654.2786875873237
20
1.6339745962155618
30
5.629224344578241e-15
11
654.4857943685103
21
1.7928932188134519
31
5.629328328238328e-15
 62
256
 0
LINE
 8
Layer0_S_
10
654.4857943685103
20
1.7928932188134519
30
5.629328328238328e-15
11
654.6447129911082
21
2.0000000000000018
31
5.629463842382515e-15
 62
256
 0
LINE
 8
Layer0_S_
10
654.6447129911082
20
2.0000000000000018
30
5.629463842382515e-15
11
654.7446134136128
21
2.2411809548974784
31
5.629621651945824e-15
 62
256
 0
LINE
 8
Layer0_S_
10
654.7446134136128
20
2.2411809548974784
30
5.629621651945824e-15
11
654.7786875873237
21
2.500000000000001
31
5.6297910024673054e-15
 62
256
 0
LINE
 8
Layer0_S_
10
654.7786875873237
20
2.500000000000001
30
5.6297910024673054e-15
11
654.7446134136128
21
2.758819045102518
31
5.629960352988787e-15
 62
256
 0
LINE
 8
Layer0_S_
10
654.7446134136128
20
2.758819045102518
30
5.629960352988787e-15
11
654.6447129911082
21
3.0
31
5.6301181625520956e-15
 62
256
 0
LINE
 8
Layer0_S_
10
654.6447129911082
20
3.0
30
5.6301181625520956e-15
11
654.4857943685104
21
3.207106781186545
31
5.6302536766962825e-15
 62
256
 0
LINE
 8
Layer0_S_
10
654.4857943685104
20
3.207106781186545
30
5.6302536766962825e-15
11
654.2786875873237
21
3.3660254037844344
31
5.63035766035637e-15
 62
256
 0
LINE
 8
Layer0_S_
10
654.2786875873237
20
3.3660254037844344
30
5.63035766035637e-15
11
654.0375066324264
21
3.4659258262890673
31
5.630423027217765e-15
 62
256
 0
LINE
 8
Layer0_S_
10
654.0375066324264
20
3.4659258262890673
30
5.630423027217765e-15
11
653.7786875873238
21
3.499999999999999
31
5.630445322636886e-15
 62
256
 0
LINE
 8
Layer0_S_
10
653.7786875873238
20
3.499999999999999
30
5.630445322636886e-15
11
653.5198685422213
21
3.4659258262890673
31
5.630423027217765e-15
 62
256
 0
LINE
 8
Layer0_S_
10
653.5198685422213
20
3.4659258262890673
30
5.630423027217765e-15
11
653.2786875873238
21
3.36602540378444
31
5.63035766035637e-15
 62
256
 0
LINE
 8
Layer0_S_
10
653.2786875873238
20
3.36602540378444
30
5.63035766035637e-15
11
653.0715808061373
21
3.20710678118655
31
5.6302536766962825e-15
 62
256
 0
LINE
 8
Layer0_S_
10
653.0715808061373
20
3.20710678118655
30
5.6302536766962825e-15
11
652.9126621835393
21
3.0
31
5.6301181625520956e-15
 62
256
 0
LINE
 8
Layer0_S_
10
652.9126621835393
20
3.0
30
5.6301181625520956e-15
11
652.8127617610347
21
2.758819045102524
31
5.629960352988787e-15
 62
256
 0
LINE
 8
Layer0_S_
10
646.0715808061373
20
1.7928932188134574
30
5.629328328238328e-15
11
646.2786875873238
21
1.6339745962155676
31
5.629224344578241e-15
 62
256
 0
LINE
 8
Layer0_S_
10
646.2786875873238
20
1.6339745962155676
30
5.629224344578241e-15
11
646.5198685422212
21
1.5340741737109347
31
5.629158977716846e-15
 62
256
 0
LINE
 8
Layer0_S_
10
646.5198685422212
20
1.5340741737109347
30
5.629158977716846e-15
11
646.7786875873237
21
1.5000000000000029
31
5.629136682297725e-15
 62
256
 0
LINE
 8
Layer0_S_
10
646.7786875873237
20
1.5000000000000029
30
5.629136682297725e-15
11
647.0375066324262
21
1.5340741737109347
31
5.629158977716846e-15
 62
256
 0
LINE
 8
Layer0_S_
10
647.0375066324262
20
1.5340741737109347
30
5.629158977716846e-15
11
647.2786875873238
21
1.6339745962155618
31
5.629224344578241e-15
 62
256
 0
LINE
 8
Layer0_S_
10
647.2786875873238
20
1.6339745962155618
30
5.629224344578241e-15
11
647.4857943685104
21
1.7928932188134519
31
5.629328328238328e-15
 62
256
 0
LINE
 8
Layer0_S_
10
647.4857943685104
20
1.7928932188134519
30
5.629328328238328e-15
11
647.6447129911082
21
2.0000000000000018
31
5.629463842382515e-15
 62
256
 0
LINE
 8
Layer0_S_
10
647.6447129911082
20
2.0000000000000018
30
5.629463842382515e-15
11
647.7446134136129
21
2.2411809548974784
31
5.629621651945824e-15
 62
256
 0
LINE
 8
Layer0_S_
10
647.7446134136129
20
2.2411809548974784
30
5.629621651945824e-15
11
647.7786875873238
21
2.500000000000001
31
5.6297910024673054e-15
 62
256
 0
LINE
 8
Layer0_S_
10
647.7786875873238
20
2.500000000000001
30
5.6297910024673054e-15
11
647.7446134136129
21
2.758819045102518
31
5.629960352988787e-15
 62
256
 0
LINE
 8
Layer0_S_
10
647.7446134136129
20
2.758819045102518
30
5.629960352988787e-15
11
647.6447129911082
21
3.0
31
5.6301181625520956e-15
 62
256
 0
LINE
 8
Layer0_S_
10
647.6447129911082
20
3.0
30
5.6301181625520956e-15
11
647.4857943685104
21
3.207106781186545
31
5.6302536766962825e-15
 62
256
 0
LINE
 8
Layer0_S_
10
647.4857943685104
20
3.207106781186545
30
5.6302536766962825e-15
11
647.2786875873238
21
3.3660254037844344
31
5.63035766035637e-15
 62
256
 0
LINE
 8
Layer0_S_
10
647.2786875873238
20
3.3660254037844344
30
5.63035766035637e-15
11
647.0375066324262
21
3.4659258262890673
31
5.630423027217765e-15
 62
256
 0
LINE
 8
Layer0_S_
10
647.0375066324262
20
3.4659258262890673
30
5.630423027217765e-15
11
646.7786875873237
21
3.499999999999999
31
5.630445322636886e-15
 62
256
 0
LINE
 8
Layer0_S_
10
646.7786875873237
20
3.499999999999999
30
5.630445322636886e-15
11
646.5198685422212
21
3.4659258262890673
31
5.630423027217765e-15
 62
256
 0
LINE
 8
Layer0_S_
10
646.5198685422212
20
3.4659258262890673
30
5.630423027217765e-15
11
646.2786875873238
21
3.36602540378444
31
5.63035766035637e-15
 62
256
 0
LINE
 8
Layer0_S_
10
646.2786875873238
20
3.36602540378444
30
5.63035766035637e-15
11
646.0715808061373
21
3.20710678118655
31
5.6302536766962825e-15
 62
256
 0
LINE
 8
Layer0_S_
10
646.0715808061373
20
3.20710678118655
30
5.6302536766962825e-15
11
645.9126621835394
21
3.0
31
5.6301181625520956e-15
 62
256
 0
LINE
 8
Layer0_S_
10
645.9126621835394
20
3.0
30
5.6301181625520956e-15
11
645.8127617610347
21
2.758819045102524
31
5.629960352988787e-15
 62
256
 0
LINE
 8
Layer0_S_
10
645.8127617610347
20
2.758819045102524
30
5.629960352988787e-15
11
645.7786875873238
21
2.500000000000001
31
5.6297910024673054e-15
 62
256
 0
LINE
 8
Layer0_S_
10
645.7786875873238
20
2.500000000000001
30
5.6297910024673054e-15
11
645.8127617610347
21
2.241180954897484
31
5.629621651945824e-15
 62
256
 0
LINE
 8
Layer0_S_
10
645.8127617610347
20
2.241180954897484
30
5.629621651945824e-15
11
645.9126621835394
21
2.0000000000000018
31
5.629463842382515e-15
 62
256
 0
LINE
 8
Layer0_S_
10
645.9126621835394
20
2.0000000000000018
30
5.629463842382515e-15
11
646.0715808061373
21
1.7928932188134574
31
5.629328328238328e-15
 62
256
 0
LINE
 8
Layer0_S_
10
579.2786875873238
20
12.0
30
5.636007044078315e-15
11
579.3809101084566
21
12.77645713530756
31
5.636515095642761e-15
 62
256
 0
LINE
 8
Layer0_S_
10
579.3809101084566
20
12.77645713530756
30
5.636515095642761e-15
11
579.6806113759704
21
13.499999999999995
31
5.636988524332685e-15
 62
256
 0
LINE
 8
Layer0_S_
10
579.6806113759704
20
13.499999999999995
30
5.636988524332685e-15
11
580.1573672437642
21
14.121320343559637
31
5.6373950667652464e-15
 62
256
 0
LINE
 8
Layer0_S_
10
580.1573672437642
20
14.121320343559637
30
5.6373950667652464e-15
11
580.7786875873238
21
14.598076211353309
31
5.637707017745509e-15
 62
256
 0
LINE
 8
Layer0_S_
10
580.7786875873238
20
14.598076211353309
30
5.637707017745509e-15
11
581.5022304520162
21
14.897777478867196
31
5.6379031183296925e-15
 62
256
 0
LINE
 8
Layer0_S_
10
581.5022304520162
20
14.897777478867196
30
5.6379031183296925e-15
11
582.2786875873238
21
14.999999999999993
31
5.6379700045870546e-15
 62
256
 0
LINE
 8
Layer0_S_
10
582.2786875873238
20
14.999999999999993
30
5.6379700045870546e-15
11
583.0551447226314
21
14.897777478867196
31
5.6379031183296925e-15
 62
256
 0
LINE
 8
Layer0_S_
10
583.0551447226314
20
14.897777478867196
30
5.6379031183296925e-15
11
583.7786875873238
21
14.598076211353309
31
5.637707017745509e-15
 62
256
 0
LINE
 8
Layer0_S_
10
583.7786875873238
20
14.598076211353309
30
5.637707017745509e-15
11
584.4000079308834
21
14.121320343559637
31
5.6373950667652464e-15
 62
256
 0
LINE
 8
Layer0_S_
10
584.4000079308834
20
14.121320343559637
30
5.6373950667652464e-15
11
584.8767637986772
21
13.499999999999998
31
5.636988524332685e-15
 62
256
 0
LINE
 8
Layer0_S_
10
584.8767637986772
20
13.499999999999998
30
5.636988524332685e-15
11
585.176465066191
21
12.77645713530756
31
5.636515095642761e-15
 62
256
 0
LINE
 8
Layer0_S_
10
585.176465066191
20
12.77645713530756
30
5.636515095642761e-15
11
585.2786875873238
21
12.0
31
5.636007044078315e-15
 62
256
 0
LINE
 8
Layer0_S_
10
585.2786875873238
20
12.0
30
5.636007044078315e-15
11
585.176465066191
21
11.22354286469244
31
5.635498992513869e-15
 62
256
 0
LINE
 8
Layer0_S_
10
585.176465066191
20
11.22354286469244
30
5.635498992513869e-15
11
584.8767637986772
21
10.500000000000005
31
5.635025563823945e-15
 62
256
 0
LINE
 8
Layer0_S_
10
584.8767637986772
20
10.500000000000005
30
5.635025563823945e-15
11
584.4000079308834
21
9.878679656440363
31
5.634619021391384e-15
 62
256
 0
LINE
 8
Layer0_S_
10
584.4000079308834
20
9.878679656440363
30
5.634619021391384e-15
11
583.7786875873238
21
9.401923788646691
31
5.634307070411121e-15
 62
256
 0
LINE
 8
Layer0_S_
10
583.7786875873238
20
9.401923788646691
30
5.634307070411121e-15
11
583.0551447226314
21
9.102222521132804
31
5.634110969826938e-15
 62
256
 0
LINE
 8
Layer0_S_
10
583.0551447226314
20
9.102222521132804
30
5.634110969826938e-15
11
582.2786875873238
21
9.000000000000009
31
5.634044083569575e-15
 62
256
 0
LINE
 8
Layer0_S_
10
582.2786875873238
20
9.000000000000009
30
5.634044083569575e-15
11
581.5022304520162
21
9.102222521132804
31
5.634110969826938e-15
 62
256
 0
LINE
 8
Layer0_S_
10
581.5022304520162
20
9.102222521132804
30
5.634110969826938e-15
11
580.7786875873238
21
9.401923788646691
31
5.634307070411121e-15
 62
256
 0
LINE
 8
Layer0_S_
10
580.7786875873238
20
9.401923788646691
30
5.634307070411121e-15
11
580.1573672437642
21
9.878679656440363
31
5.634619021391384e-15
 62
256
 0
LINE
 8
Layer0_S_
10
580.1573672437642
20
9.878679656440363
30
5.634619021391384e-15
11
579.6806113759704
21
10.500000000000004
31
5.635025563823945e-15
 62
256
 0
LINE
 8
Layer0_S_
10
579.6806113759704
20
10.500000000000004
30
5.635025563823945e-15
11
579.3809101084566
21
11.223542864692439
31
5.635498992513869e-15
 62
256
 0
LINE
 8
Layer0_S_
10
579.3809101084566
20
11.223542864692439
30
5.635498992513869e-15
11
579.2786875873238
21
12.0
31
5.636007044078315e-15
 62
256
 0
LINE
 8
Layer0_S_
10
740.2786875873238
20
12.0
30
5.636007044078315e-15
11
740.3809101084566
21
12.776457135307563
31
5.636515095642761e-15
 62
256
 0
LINE
 8
Layer0_S_
10
740.3809101084566
20
12.776457135307563
30
5.636515095642761e-15
11
740.6806113759704
21
13.499999999999998
31
5.636988524332685e-15
 62
256
 0
LINE
 8
Layer0_S_
10
740.6806113759704
20
13.499999999999998
30
5.636988524332685e-15
11
741.1573672437642
21
14.12132034355964
31
5.6373950667652464e-15
 62
256
 0
LINE
 8
Layer0_S_
10
741.1573672437642
20
14.12132034355964
30
5.6373950667652464e-15
11
741.7786875873238
21
14.598076211353316
31
5.637707017745509e-15
 62
256
 0
LINE
 8
Layer0_S_
10
741.7786875873238
20
14.598076211353316
30
5.637707017745509e-15
11
742.5022304520162
21
14.897777478867203
31
5.6379031183296925e-15
 62
256
 0
LINE
 8
Layer0_S_
10
742.5022304520162
20
14.897777478867203
30
5.6379031183296925e-15
11
743.2786875873238
21
14.999999999999998
31
5.6379700045870546e-15
 62
256
 0
LINE
 8
Layer0_S_
10
743.2786875873238
20
14.999999999999998
30
5.6379700045870546e-15
11
744.0551447226313
21
14.897777478867203
31
5.6379031183296925e-15
 62
256
 0
LINE
 8
Layer0_S_
10
744.0551447226313
20
14.897777478867203
30
5.6379031183296925e-15
11
744.7786875873237
21
14.598076211353316
31
5.637707017745509e-15
 62
256
 0
LINE
 8
Layer0_S_
10
744.7786875873237
20
14.598076211353316
30
5.637707017745509e-15
11
745.4000079308835
21
14.121320343559642
31
5.6373950667652464e-15
 62
256
 0
LINE
 8
Layer0_S_
10
745.4000079308835
20
14.121320343559642
30
5.6373950667652464e-15
11
745.8767637986771
21
13.5
31
5.636988524332685e-15
 62
256
 0
LINE
 8
Layer0_S_
10
745.8767637986771
20
13.5
30
5.636988524332685e-15
11
746.176465066191
21
12.776457135307563
31
5.636515095642761e-15
 62
256
 0
LINE
 8
Layer0_S_
10
746.176465066191
20
12.776457135307563
30
5.636515095642761e-15
11
746.2786875873238
21
12.0
31
5.636007044078315e-15
 62
256
 0
LINE
 8
Layer0_S_
10
746.2786875873238
20
12.0
30
5.636007044078315e-15
11
746.176465066191
21
11.22354286469244
31
5.635498992513869e-15
 62
256
 0
LINE
 8
Layer0_S_
10
746.176465066191
20
11.22354286469244
30
5.635498992513869e-15
11
745.8767637986771
21
10.500000000000004
31
5.635025563823945e-15
 62
256
 0
LINE
 8
Layer0_S_
10
745.8767637986771
20
10.500000000000004
30
5.635025563823945e-15
11
745.4000079308835
21
9.878679656440362
31
5.634619021391384e-15
 62
256
 0
LINE
 8
Layer0_S_
10
745.4000079308835
20
9.878679656440362
30
5.634619021391384e-15
11
744.7786875873237
21
9.40192378864669
31
5.634307070411121e-15
 62
256
 0
LINE
 8
Layer0_S_
10
744.7786875873237
20
9.40192378864669
30
5.634307070411121e-15
11
744.0551447226313
21
9.102222521132799
31
5.634110969826938e-15
 62
256
 0
LINE
 8
Layer0_S_
10
744.0551447226313
20
9.102222521132799
30
5.634110969826938e-15
11
743.2786875873238
21
9.000000000000004
31
5.634044083569575e-15
 62
256
 0
LINE
 8
Layer0_S_
10
743.2786875873238
20
9.000000000000004
30
5.634044083569575e-15
11
742.5022304520162
21
9.102222521132799
31
5.634110969826938e-15
 62
256
 0
LINE
 8
Layer0_S_
10
742.5022304520162
20
9.102222521132799
30
5.634110969826938e-15
11
741.7786875873238
21
9.401923788646686
31
5.634307070411121e-15
 62
256
 0
LINE
 8
Layer0_S_
10
741.7786875873238
20
9.401923788646686
30
5.634307070411121e-15
11
741.1573672437642
21
9.878679656440358
31
5.634619021391384e-15
 62
256
 0
LINE
 8
Layer0_S_
10
741.1573672437642
20
9.878679656440358
30
5.634619021391384e-15
11
740.6806113759704
21
10.5
31
5.635025563823945e-15
 62
256
 0
LINE
 8
Layer0_S_
10
740.6806113759704
20
10.5
30
5.635025563823945e-15
11
740.3809101084566
21
11.223542864692439
31
5.635498992513869e-15
 62
256
 0
LINE
 8
Layer0_S_
10
740.3809101084566
20
11.223542864692439
30
5.635498992513869e-15
11
740.2786875873238
21
12.0
31
5.636007044078315e-15
 62
256
 0
LINE
 8
Layer0_S_
10
632.2786875873238
20
28.0
30
5.646476166791595e-15
11
632.2786875873238
21
18.00000000000001
31
5.639932965095795e-15
 62
256
 0
LINE
 8
Layer0_S_
10
682.2786875873238
20
18.000000000000053
30
0.0
11
632.2786875873238
21
18.00000000000001
31
5.639932965095795e-15
 62
256
 0
LINE
 8
Layer0_S_
10
682.2786875873236
20
50.5
30
2.8412318880592463e-15
11
682.2786875873238
21
18.000000000000053
31
0.0
 62
256
 0
LINE
 8
Layer0_S_
10
686.2786875873239
20
50.5
30
5.661198370607143e-15
11
682.2786875873236
21
50.5
31
2.8412318880592463e-15
 62
256
 0
LINE
 8
Layer0_S_
10
686.2786875873239
20
24.000000000000004
30
5.643858886113274e-15
11
686.2786875873239
21
50.5
31
5.661198370607143e-15
 62
256
 0
LINE
 8
Layer0_S_
10
731.2786875873237
20
18.0
30
5.639932965095795e-15
11
692.2786875873238
21
18.0
31
5.639932965095795e-15
 62
256
 0
LINE
 8
Layer0_S_
10
737.2786875873237
20
115.99999999999993
30
5.7040563417146315e-15
11
737.2786875873237
21
24.000000000000004
31
5.643858886113274e-15
 62
256
 0
LINE
 8
Layer0_S_
10
731.2786875873237
20
121.99999999999991
30
5.7079822627321106e-15
11
594.2786875873238
21
121.99999999999993
31
5.7079822627321106e-15
 62
256
 0
LINE
 8
Layer0_S_
10
588.2786875873238
20
115.99999999999993
30
5.7040563417146315e-15
11
588.2786875873238
21
34.000000000000014
31
5.650402087809074e-15
 62
256
 0
LINE
 8
Layer0_S_
10
632.2786875873238
20
28.0
30
5.646476166791595e-15
11
594.2786875873238
21
28.0
31
5.646476166791595e-15
 62
256
 0
LINE
 8
Layer0_S_
10
692.2786875873238
20
18.0
30
5.639932965095795e-15
11
691.4955304340036
21
18.05133083175714
31
5.639966551894335e-15
 62
256
 0
LINE
 8
Layer0_S_
10
691.4955304340036
20
18.05133083175714
30
5.639966551894335e-15
11
690.7257733167088
21
18.204445042265593
31
5.64006673761052e-15
 62
256
 0
LINE
 8
Layer0_S_
10
690.7257733167088
20
18.204445042265593
30
5.64006673761052e-15
11
689.9825869931333
21
18.456722804932284
31
5.6402318080389685e-15
 62
256
 0
LINE
 8
Layer0_S_
10
689.9825869931333
20
18.456722804932284
30
5.6402318080389685e-15
11
689.2786875873239
21
18.80384757729337
31
5.640458938778886e-15
 62
256
 0
LINE
 8
Layer0_S_
10
689.2786875873239
20
18.80384757729337
30
5.640458938778886e-15
11
688.6261190132716
21
19.239879958252594
31
5.640744243560337e-15
 62
256
 0
LINE
 8
Layer0_S_
10
688.6261190132716
20
19.239879958252594
30
5.640744243560337e-15
11
688.0360469002046
21
19.75735931288072
31
5.641082840739411e-15
 62
256
 0
LINE
 8
Layer0_S_
10
688.0360469002046
20
19.75735931288072
30
5.641082840739411e-15
11
687.5185675455765
21
20.34743142594768
31
5.641468936824498e-15
 62
256
 0
LINE
 8
Layer0_S_
10
687.5185675455765
20
20.34743142594768
30
5.641468936824498e-15
11
687.0825351646173
21
21.000000000000004
31
5.6418959256045345e-15
 62
256
 0
LINE
 8
Layer0_S_
10
687.0825351646173
20
21.000000000000004
30
5.6418959256045345e-15
11
686.7354103922562
21
21.703899405809466
31
5.642356501183111e-15
 62
256
 0
LINE
 8
Layer0_S_
10
686.7354103922562
20
21.703899405809466
30
5.642356501183111e-15
11
686.4831326295896
21
22.44708572938488
31
5.6428427829843826e-15
 62
256
 0
LINE
 8
Layer0_S_
10
686.4831326295896
20
22.44708572938488
30
5.6428427829843826e-15
11
686.3300184190811
21
23.216842846679693
31
5.6433464505919055e-15
 62
256
 0
LINE
 8
Layer0_S_
10
686.3300184190811
20
23.216842846679693
30
5.6433464505919055e-15
11
686.2786875873239
21
24.000000000000004
31
5.643858886113274e-15
 62
256
 0
LINE
 8
Layer0_S_
10
731.2786875873237
20
18.0
30
5.639932965095795e-15
11
732.0618447406441
21
18.051330831757145
31
5.639966551894335e-15
 62
256
 0
LINE
 8
Layer0_S_
10
732.0618447406441
20
18.051330831757145
30
5.639966551894335e-15
11
732.8316018579388
21
18.204445042265597
31
5.64006673761052e-15
 62
256
 0
LINE
 8
Layer0_S_
10
732.8316018579388
20
18.204445042265597
30
5.64006673761052e-15
11
733.5747881815142
21
18.456722804932287
31
5.6402318080389685e-15
 62
256
 0
LINE
 8
Layer0_S_
10
733.5747881815142
20
18.456722804932287
30
5.6402318080389685e-15
11
734.2786875873238
21
18.803847577293375
31
5.640458938778886e-15
 62
256
 0
LINE
 8
Layer0_S_
10
734.2786875873238
20
18.803847577293375
30
5.640458938778886e-15
11
734.931256161376
21
19.239879958252597
31
5.640744243560337e-15
 62
256
 0
LINE
 8
Layer0_S_
10
734.931256161376
20
19.239879958252597
30
5.640744243560337e-15
11
735.521328274443
21
19.75735931288072
31
5.641082840739413e-15
 62
256
 0
LINE
 8
Layer0_S_
10
735.521328274443
20
19.75735931288072
30
5.641082840739413e-15
11
736.0388076290712
21
20.347431425947683
31
5.641468936824498e-15
 62
256
 0
LINE
 8
Layer0_S_
10
736.0388076290712
20
20.347431425947683
30
5.641468936824498e-15
11
736.4748400100303
21
21.000000000000007
31
5.6418959256045345e-15
 62
256
 0
LINE
 8
Layer0_S_
10
736.4748400100303
20
21.000000000000007
30
5.6418959256045345e-15
11
736.8219647823914
21
21.703899405809466
31
5.642356501183111e-15
 62
256
 0
LINE
 8
Layer0_S_
10
736.8219647823914
20
21.703899405809466
30
5.642356501183111e-15
11
737.0742425450582
21
22.44708572938488
31
5.6428427829843826e-15
 62
256
 0
LINE
 8
Layer0_S_
10
737.0742425450582
20
22.44708572938488
30
5.6428427829843826e-15
11
737.2273567555666
21
23.216842846679697
31
5.6433464505919055e-15
 62
256
 0
LINE
 8
Layer0_S_
10
737.2273567555666
20
23.216842846679697
30
5.6433464505919055e-15
11
737.2786875873237
21
24.000000000000004
31
5.643858886113274e-15
 62
256
 0
LINE
 8
Layer0_S_
10
737.2786875873237
20
115.99999999999993
30
5.7040563417146315e-15
11
737.2273567555666
21
116.78315715332023
31
5.704568777236e-15
 62
256
 0
LINE
 8
Layer0_S_
10
737.2273567555666
20
116.78315715332023
30
5.704568777236e-15
11
737.0742425450582
21
117.55291427061503
31
5.705072444843523e-15
 62
256
 0
LINE
 8
Layer0_S_
10
737.0742425450582
20
117.55291427061503
30
5.705072444843523e-15
11
736.8219647823914
21
118.29610059419046
31
5.7055587266447945e-15
 62
256
 0
LINE
 8
Layer0_S_
10
736.8219647823914
20
118.29610059419046
30
5.7055587266447945e-15
11
736.4748400100303
21
118.99999999999991
31
5.706019302223371e-15
 62
256
 0
LINE
 8
Layer0_S_
10
736.4748400100303
20
118.99999999999991
30
5.706019302223371e-15
11
736.0388076290712
21
119.65256857405225
31
5.7064462910034075e-15
 62
256
 0
LINE
 8
Layer0_S_
10
736.0388076290712
20
119.65256857405225
30
5.7064462910034075e-15
11
735.521328274443
21
120.24264068711919
31
5.706832387088493e-15
 62
256
 0
LINE
 8
Layer0_S_
10
735.521328274443
20
120.24264068711919
30
5.706832387088493e-15
11
734.931256161376
21
120.76012004174733
31
5.7071709842675685e-15
 62
256
 0
LINE
 8
Layer0_S_
10
734.931256161376
20
120.76012004174733
30
5.7071709842675685e-15
11
734.2786875873238
21
121.19615242270655
31
5.707456289049019e-15
 62
256
 0
LINE
 8
Layer0_S_
10
734.2786875873238
20
121.19615242270655
30
5.707456289049019e-15
11
733.5747881815142
21
121.54327719506765
31
5.707683419788937e-15
 62
256
 0
LINE
 8
Layer0_S_
10
733.5747881815142
20
121.54327719506765
30
5.707683419788937e-15
11
732.8316018579388
21
121.79555495773434
31
5.707848490217386e-15
 62
256
 0
LINE
 8
Layer0_S_
10
732.8316018579388
20
121.79555495773434
30
5.707848490217386e-15
11
732.0618447406441
21
121.94866916824279
31
5.7079486759335706e-15
 62
256
 0
LINE
 8
Layer0_S_
10
732.0618447406441
20
121.94866916824279
30
5.7079486759335706e-15
11
731.2786875873237
21
121.99999999999991
31
5.7079822627321106e-15
 62
256
 0
LINE
 8
Layer0_S_
10
588.2786875873238
20
115.99999999999993
30
5.7040563417146315e-15
11
588.330018419081
21
116.78315715332023
31
5.704568777236e-15
 62
256
 0
LINE
 8
Layer0_S_
10
588.330018419081
20
116.78315715332023
30
5.704568777236e-15
11
588.4831326295894
21
117.55291427061503
31
5.705072444843523e-15
 62
256
 0
LINE
 8
Layer0_S_
10
588.4831326295894
20
117.55291427061503
30
5.705072444843523e-15
11
588.7354103922561
21
118.29610059419046
31
5.7055587266447945e-15
 62
256
 0
LINE
 8
Layer0_S_
10
588.7354103922561
20
118.29610059419046
30
5.7055587266447945e-15
11
589.0825351646172
21
118.99999999999991
31
5.706019302223371e-15
 62
256
 0
LINE
 8
Layer0_S_
10
589.0825351646172
20
118.99999999999991
30
5.706019302223371e-15
11
589.5185675455764
21
119.65256857405225
31
5.7064462910034075e-15
 62
256
 0
LINE
 8
Layer0_S_
10
589.5185675455764
20
119.65256857405225
30
5.7064462910034075e-15
11
590.0360469002045
21
120.24264068711919
31
5.706832387088493e-15
 62
256
 0
LINE
 8
Layer0_S_
10
590.0360469002045
20
120.24264068711919
30
5.706832387088493e-15
11
590.6261190132715
21
120.76012004174733
31
5.7071709842675685e-15
 62
256
 0
LINE
 8
Layer0_S_
10
590.6261190132715
20
120.76012004174733
30
5.7071709842675685e-15
11
591.2786875873238
21
121.19615242270655
31
5.707456289049019e-15
 62
256
 0
LINE
 8
Layer0_S_
10
591.2786875873238
20
121.19615242270655
30
5.707456289049019e-15
11
591.9825869931333
21
121.54327719506765
31
5.707683419788937e-15
 62
256
 0
LINE
 8
Layer0_S_
10
591.9825869931333
20
121.54327719506765
30
5.707683419788937e-15
11
592.7257733167087
21
121.79555495773434
31
5.707848490217386e-15
 62
256
 0
LINE
 8
Layer0_S_
10
592.7257733167087
20
121.79555495773434
30
5.707848490217386e-15
11
593.4955304340034
21
121.94866916824279
31
5.7079486759335706e-15
 62
256
 0
LINE
 8
Layer0_S_
10
593.4955304340034
20
121.94866916824279
30
5.7079486759335706e-15
11
594.2786875873238
21
121.99999999999993
31
5.7079822627321106e-15
 62
256
 0
LINE
 8
Layer0_S_
10
594.2786875873238
20
28.0
30
5.646476166791595e-15
11
593.4955304340034
21
28.051330831757145
31
5.646509753590134e-15
 62
256
 0
LINE
 8
Layer0_S_
10
593.4955304340034
20
28.051330831757145
30
5.646509753590134e-15
11
592.7257733167087
21
28.204445042265597
31
5.6466099393063196e-15
 62
256
 0
LINE
 8
Layer0_S_
10
592.7257733167087
20
28.204445042265597
30
5.6466099393063196e-15
11
591.9825869931333
21
28.456722804932284
31
5.646775009734769e-15
 62
256
 0
LINE
 8
Layer0_S_
10
591.9825869931333
20
28.456722804932284
30
5.646775009734769e-15
11
591.2786875873238
21
28.80384757729337
31
5.647002140474685e-15
 62
256
 0
LINE
 8
Layer0_S_
10
591.2786875873238
20
28.80384757729337
30
5.647002140474685e-15
11
590.6261190132715
21
29.239879958252594
31
5.647287445256137e-15
 62
256
 0
LINE
 8
Layer0_S_
10
590.6261190132715
20
29.239879958252594
30
5.647287445256137e-15
11
590.0360469002045
21
29.75735931288072
31
5.647626042435211e-15
 62
256
 0
LINE
 8
Layer0_S_
10
590.0360469002045
20
29.75735931288072
30
5.647626042435211e-15
11
589.5185675455764
21
30.347431425947683
31
5.648012138520298e-15
 62
256
 0
LINE
 8
Layer0_S_
10
589.5185675455764
20
30.347431425947683
30
5.648012138520298e-15
11
589.0825351646172
21
31.000000000000004
31
5.648439127300334e-15
 62
256
 0
LINE
 8
Layer0_S_
10
589.0825351646172
20
31.000000000000004
30
5.648439127300334e-15
11
588.7354103922561
21
31.703899405809473
31
5.648899702878911e-15
 62
256
 0
LINE
 8
Layer0_S_
10
588.7354103922561
20
31.703899405809473
30
5.648899702878911e-15
11
588.4831326295894
21
32.44708572938489
31
5.649385984680182e-15
 62
256
 0
LINE
 8
Layer0_S_
10
588.4831326295894
20
32.44708572938489
30
5.649385984680182e-15
11
588.330018419081
21
33.2168428466797
31
5.649889652287706e-15
 62
256
 0
LINE
 8
Layer0_S_
10
588.330018419081
20
33.2168428466797
30
5.649889652287706e-15
11
588.2786875873238
21
34.000000000000014
31
5.650402087809074e-15
 62
256
 0
ENDSEC
 0
EOF
