 0
SECTION
 2
HEADER
 9
$ACADVER
 1
AC1006
 9
$LTSCALE
 40
1000.0
 0
ENDSEC
 0
SECTION
 2
TABLES
 0
TABLE
 2
LTYPE
 70
1
 0
LTYPE
 2
SKEMA_SOLID
 70
64
 3
Sketchup - Skema Ltype
 72
65
 73
0
 40
0.000000
 0
LTYPE
 2
SKEMA_DASHED
 70
64
 3
Sketchup - Skema Ltype
 72
65
 73
2
 40
0.1
 49
0.05
 49
-0.05
 0
LTYPE
 2
SKEMA_DOTTED
 70
64
 3
Sketchup - Skema Ltype
 72
65
 73
2
 40
00.1
 49
0.0
 49
-00.1
 0
ENDTAB
 0
TABLE
 2
LAYER
 70
6
 0
LAYER
 2
Layer0_S_
 70
64
 62
20
 6
SKEMA_SOLID
 0
ENDTAB
 0
TABLE
 2
STYLE
 70
0
 0
ENDTAB
 0
ENDSEC
 0
SECTION
 2
BLOCKS
 0
ENDSEC
 0
SECTION
 2
ENTITIES
 0
LINE
 8
Layer0_S_
10
1040.418031380986
20
109.00000000000011
30
6.7841005794213664e-15
11
1040.418031380986
21
127.99999999999993
31
6.697767298874031e-15
 62
256
 0
LINE
 8
Layer0_S_
10
1016.4180313809859
20
109.00000000000011
30
5.374117338147417e-15
11
1040.418031380986
21
109.00000000000011
31
6.7841005794213664e-15
 62
256
 0
LINE
 8
Layer0_S_
10
1022.4180313809859
20
115.99999999999993
30
6.7522935813249795e-15
11
1022.4180313809859
21
115.00000000000013
31
5.3468541969219426e-15
 62
256
 0
LINE
 8
Layer0_S_
10
1016.4180313809859
20
121.99999999999991
30
6.725030440099505e-15
11
879.418031380986
21
121.99999999999993
31
6.725030440099505e-15
 62
256
 0
LINE
 8
Layer0_S_
10
873.4180313809859
20
115.99999999999993
30
6.7522935813249795e-15
11
873.4180313809859
21
34.000000000000014
31
5.71490660346585e-15
 62
256
 0
LINE
 8
Layer0_S_
10
917.418031380986
20
28.0
30
5.742169744691325e-15
11
879.418031380986
21
28.0
31
5.742169744691325e-15
 62
256
 0
LINE
 8
Layer0_S_
10
917.418031380986
20
18.00000000000001
30
4.3776250721265e-15
11
917.418031380986
21
28.0
31
5.742169744691325e-15
 62
256
 0
LINE
 8
Layer0_S_
10
967.418031380986
20
18.000000000000053
30
1.4767534830465495e-16
11
917.418031380986
21
18.00000000000001
31
4.3776250721265e-15
 62
256
 0
LINE
 8
Layer0_S_
10
967.418031380986
20
18.000000000000053
30
1.4767534830465495e-16
11
967.4180313809858
21
50.5
31
0.0
 62
256
 0
LINE
 8
Layer0_S_
10
967.4180313809858
20
50.5
30
0.0
11
971.418031380986
21
50.5
31
5.639932965095795e-15
 62
256
 0
LINE
 8
Layer0_S_
10
971.418031380986
20
50.5
30
5.639932965095795e-15
11
971.418031380986
21
24.000000000000004
31
5.760345172174975e-15
 62
256
 0
LINE
 8
Layer0_S_
10
1016.4180313809859
20
18.0
30
7.197591554674398e-15
11
977.418031380986
21
18.0
31
5.78760831340045e-15
 62
256
 0
LINE
 8
Layer0_S_
10
1022.4180313809859
20
82.99999999999991
30
5.492257616791141e-15
11
1022.4180313809859
21
24.0
31
7.170328413448924e-15
 62
256
 0
LINE
 8
Layer0_S_
10
1040.418031380986
20
88.99999999999993
30
6.874977716839615e-15
11
1016.4180313809859
21
88.99999999999991
31
5.4649944755656666e-15
 62
256
 0
LINE
 8
Layer0_S_
10
1040.418031380986
20
12.0
30
7.224854695899872e-15
11
1040.418031380986
21
88.99999999999993
31
6.874977716839615e-15
 62
256
 0
LINE
 8
Layer0_S_
10
867.418031380986
20
0.0
30
7.279380978350823e-15
11
1028.418031380986
21
0.0
31
7.279380978350823e-15
 62
256
 0
LINE
 8
Layer0_S_
10
855.4180313809858
20
127.99999999999993
30
6.697767298874031e-15
11
855.4180313809858
21
12.0
31
7.224854695899872e-15
 62
256
 0
LINE
 8
Layer0_S_
10
865.4180313809859
20
139.81107288852084
30
6.644099474176677e-15
11
865.403320838293
21
133.65163174925272
31
5.251733042510879e-15
 62
256
 0
LINE
 8
Layer0_S_
10
869.4180313809859
20
139.99999999999991
30
6.6432410164230815e-15
11
869.4327419236788
21
133.65163174925272
31
5.572027502663227e-15
 62
256
 0
LINE
 8
Layer0_S_
10
1026.418031380986
20
139.99999999999991
30
6.6432410164230815e-15
11
869.4180313809859
21
139.99999999999991
31
6.6432410164230815e-15
 62
256
 0
LINE
 8
Layer0_S_
10
1026.418031380986
20
139.99999999999991
30
6.6432410164230815e-15
11
1026.403320838293
21
133.65163174925272
31
5.572027502663231e-15
 62
256
 0
LINE
 8
Layer0_S_
10
1030.418031380986
20
139.81107288852084
30
6.644099474176677e-15
11
1030.4327419236788
21
133.65163174925272
31
5.251733042510878e-15
 62
256
 0
LINE
 8
Layer0_S_
10
1022.4180313809859
20
115.00000000000013
30
5.3468541969219426e-15
11
1022.3667005492288
21
114.21684284667981
31
5.3504127509340614e-15
 62
256
 0
LINE
 8
Layer0_S_
10
1022.3667005492288
20
114.21684284667981
30
5.3504127509340614e-15
11
1022.2135863387202
21
113.447085729385
31
5.353910417100415e-15
 62
256
 0
LINE
 8
Layer0_S_
10
1022.2135863387202
20
113.447085729385
30
5.353910417100415e-15
11
1021.9613085760535
21
112.7038994058096
31
5.357287349383162e-15
 62
256
 0
LINE
 8
Layer0_S_
10
1021.9613085760535
20
112.7038994058096
30
5.357287349383162e-15
11
1021.6141838036925
21
112.00000000000013
31
5.36048576753468e-15
 62
256
 0
LINE
 8
Layer0_S_
10
1021.6141838036925
20
112.00000000000013
30
5.36048576753468e-15
11
1021.1781514227334
21
111.3474314259478
31
5.3634509457336294e-15
 62
256
 0
LINE
 8
Layer0_S_
10
1021.1781514227334
20
111.3474314259478
30
5.3634509457336294e-15
11
1020.6606720681052
21
110.75735931288085
31
5.366132148958923e-15
 62
256
 0
LINE
 8
Layer0_S_
10
1020.6606720681052
20
110.75735931288085
30
5.366132148958923e-15
11
1020.0705999550382
21
110.23987995825273
31
5.3684835010800044e-15
 62
256
 0
LINE
 8
Layer0_S_
10
1020.0705999550382
20
110.23987995825273
30
5.3684835010800044e-15
11
1019.4180313809859
21
109.80384757729351
31
5.370464769810166e-15
 62
256
 0
LINE
 8
Layer0_S_
10
1019.4180313809859
20
109.80384757729351
30
5.370464769810166e-15
11
1018.7141319751764
21
109.45672280493241
31
5.372042055092123e-15
 62
256
 0
LINE
 8
Layer0_S_
10
1018.7141319751764
20
109.45672280493241
30
5.372042055092123e-15
11
1017.970945651601
21
109.20444504226572
31
5.373188369137394e-15
 62
256
 0
LINE
 8
Layer0_S_
10
1017.970945651601
20
109.20444504226572
30
5.373188369137394e-15
11
1017.2011885343062
21
109.05133083175727
31
5.373884098194848e-15
 62
256
 0
LINE
 8
Layer0_S_
10
1017.2011885343062
20
109.05133083175727
30
5.373884098194848e-15
11
1016.4180313809859
21
109.00000000000011
31
5.374117338147417e-15
 62
256
 0
LINE
 8
Layer0_S_
10
1022.4180313809859
20
115.99999999999993
30
6.7522935813249795e-15
11
1022.3667005492288
21
116.78315715332023
31
6.7487350273128615e-15
 62
256
 0
LINE
 8
Layer0_S_
10
1022.3667005492288
20
116.78315715332023
30
6.7487350273128615e-15
11
1022.2135863387202
21
117.55291427061503
31
6.745237361146506e-15
 62
256
 0
LINE
 8
Layer0_S_
10
1022.2135863387202
20
117.55291427061503
30
6.745237361146506e-15
11
1021.9613085760535
21
118.29610059419046
31
6.7418604288637604e-15
 62
256
 0
LINE
 8
Layer0_S_
10
1021.9613085760535
20
118.29610059419046
30
6.7418604288637604e-15
11
1021.6141838036925
21
118.99999999999991
31
6.738662010712243e-15
 62
256
 0
LINE
 8
Layer0_S_
10
1021.6141838036925
20
118.99999999999991
30
6.738662010712243e-15
11
1021.1781514227332
21
119.65256857405225
31
6.7356968325132934e-15
 62
256
 0
LINE
 8
Layer0_S_
10
1021.1781514227332
20
119.65256857405225
30
6.7356968325132934e-15
11
1020.6606720681052
21
120.24264068711922
31
6.733015629287999e-15
 62
256
 0
LINE
 8
Layer0_S_
10
1020.6606720681052
20
120.24264068711922
30
6.733015629287999e-15
11
1020.0705999550382
21
120.76012004174733
31
6.730664277166918e-15
 62
256
 0
LINE
 8
Layer0_S_
10
1020.0705999550382
20
120.76012004174733
30
6.730664277166918e-15
11
1019.4180313809859
21
121.19615242270655
31
6.728683008436756e-15
 62
256
 0
LINE
 8
Layer0_S_
10
1019.4180313809859
20
121.19615242270655
30
6.728683008436756e-15
11
1018.7141319751764
21
121.54327719506765
31
6.7271057231548e-15
 62
256
 0
LINE
 8
Layer0_S_
10
1018.7141319751764
20
121.54327719506765
30
6.7271057231548e-15
11
1017.970945651601
21
121.79555495773434
31
6.725959409109528e-15
 62
256
 0
LINE
 8
Layer0_S_
10
1017.970945651601
20
121.79555495773434
30
6.725959409109528e-15
11
1017.2011885343062
21
121.94866916824279
31
6.725263680052074e-15
 62
256
 0
LINE
 8
Layer0_S_
10
1017.2011885343062
20
121.94866916824279
30
6.725263680052074e-15
11
1016.4180313809859
21
121.99999999999991
31
6.725030440099505e-15
 62
256
 0
LINE
 8
Layer0_S_
10
873.4180313809859
20
115.99999999999993
30
6.7522935813249795e-15
11
873.469362212743
21
116.78315715332023
31
6.7487350273128615e-15
 62
256
 0
LINE
 8
Layer0_S_
10
873.469362212743
20
116.78315715332023
30
6.7487350273128615e-15
11
873.6224764232516
21
117.55291427061503
31
6.745237361146506e-15
 62
256
 0
LINE
 8
Layer0_S_
10
873.6224764232516
20
117.55291427061503
30
6.745237361146506e-15
11
873.8747541859183
21
118.29610059419046
31
6.7418604288637604e-15
 62
256
 0
LINE
 8
Layer0_S_
10
873.8747541859183
20
118.29610059419046
30
6.7418604288637604e-15
11
874.2218789582793
21
118.99999999999991
31
6.738662010712243e-15
 62
256
 0
LINE
 8
Layer0_S_
10
874.2218789582793
20
118.99999999999991
30
6.738662010712243e-15
11
874.6579113392386
21
119.65256857405225
31
6.7356968325132934e-15
 62
256
 0
LINE
 8
Layer0_S_
10
874.6579113392386
20
119.65256857405225
30
6.7356968325132934e-15
11
875.1753906938666
21
120.24264068711922
31
6.733015629287999e-15
 62
256
 0
LINE
 8
Layer0_S_
10
875.1753906938666
20
120.24264068711922
30
6.733015629287999e-15
11
875.7654628069336
21
120.76012004174736
31
6.730664277166918e-15
 62
256
 0
LINE
 8
Layer0_S_
10
875.7654628069336
20
120.76012004174736
30
6.730664277166918e-15
11
876.4180313809859
21
121.19615242270658
31
6.728683008436756e-15
 62
256
 0
LINE
 8
Layer0_S_
10
876.4180313809859
20
121.19615242270658
30
6.728683008436756e-15
11
877.1219307867955
21
121.54327719506765
31
6.727105723154798e-15
 62
256
 0
LINE
 8
Layer0_S_
10
877.1219307867955
20
121.54327719506765
30
6.727105723154798e-15
11
877.8651171103708
21
121.79555495773434
31
6.725959409109528e-15
 62
256
 0
LINE
 8
Layer0_S_
10
877.8651171103708
20
121.79555495773434
30
6.725959409109528e-15
11
878.6348742276656
21
121.9486691682428
31
6.725263680052074e-15
 62
256
 0
LINE
 8
Layer0_S_
10
878.6348742276656
20
121.9486691682428
30
6.725263680052074e-15
11
879.418031380986
21
121.99999999999993
31
6.725030440099505e-15
 62
256
 0
LINE
 8
Layer0_S_
10
873.4180313809859
20
34.000000000000014
30
5.71490660346585e-15
11
873.469362212743
21
33.2168428466797
31
5.718465157477969e-15
 62
256
 0
LINE
 8
Layer0_S_
10
873.469362212743
20
33.2168428466797
30
5.718465157477969e-15
11
873.6224764232516
21
32.44708572938488
31
5.721962823644323e-15
 62
256
 0
LINE
 8
Layer0_S_
10
873.6224764232516
20
32.44708572938488
30
5.721962823644323e-15
11
873.8747541859183
21
31.70389940580946
31
5.7253397559270694e-15
 62
256
 0
LINE
 8
Layer0_S_
10
873.8747541859183
20
31.70389940580946
30
5.7253397559270694e-15
11
874.2218789582793
21
30.999999999999993
31
5.7285381740785885e-15
 62
256
 0
LINE
 8
Layer0_S_
10
874.2218789582793
20
30.999999999999993
30
5.7285381740785885e-15
11
874.6579113392386
21
30.347431425947665
31
5.731503352277537e-15
 62
256
 0
LINE
 8
Layer0_S_
10
874.6579113392386
20
30.347431425947665
30
5.731503352277537e-15
11
875.1753906938666
21
29.757359312880705
31
5.73418455550283e-15
 62
256
 0
LINE
 8
Layer0_S_
10
875.1753906938666
20
29.757359312880705
30
5.73418455550283e-15
11
875.7654628069336
21
29.23987995825258
31
5.736535907623913e-15
 62
256
 0
LINE
 8
Layer0_S_
10
875.7654628069336
20
29.23987995825258
30
5.736535907623913e-15
11
876.4180313809859
21
28.803847577293357
31
5.738517176354075e-15
 62
256
 0
LINE
 8
Layer0_S_
10
876.4180313809859
20
28.803847577293357
30
5.738517176354075e-15
11
877.1219307867955
21
28.45672280493227
31
5.740094461636031e-15
 62
256
 0
LINE
 8
Layer0_S_
10
877.1219307867955
20
28.45672280493227
30
5.740094461636031e-15
11
877.8651171103708
21
28.204445042265583
31
5.741240775681303e-15
 62
256
 0
LINE
 8
Layer0_S_
10
877.8651171103708
20
28.204445042265583
30
5.741240775681303e-15
11
878.6348742276656
21
28.051330831757138
31
5.741936504738756e-15
 62
256
 0
LINE
 8
Layer0_S_
10
878.6348742276656
20
28.051330831757138
30
5.741936504738756e-15
11
879.418031380986
21
28.0
31
5.742169744691325e-15
 62
256
 0
LINE
 8
Layer0_S_
10
971.418031380986
20
24.000000000000004
30
5.760345172174975e-15
11
971.4693622127431
21
23.216842846679693
31
5.763903726187093e-15
 62
256
 0
LINE
 8
Layer0_S_
10
971.4693622127431
20
23.216842846679693
30
5.763903726187093e-15
11
971.6224764232517
21
22.44708572938488
31
5.767401392353448e-15
 62
256
 0
LINE
 8
Layer0_S_
10
971.6224764232517
20
22.44708572938488
30
5.767401392353448e-15
11
971.8747541859183
21
21.703899405809466
31
5.770778324636194e-15
 62
256
 0
LINE
 8
Layer0_S_
10
971.8747541859183
20
21.703899405809466
30
5.770778324636194e-15
11
972.2218789582794
21
21.000000000000007
31
5.773976742787712e-15
 62
256
 0
LINE
 8
Layer0_S_
10
972.2218789582794
20
21.000000000000007
30
5.773976742787712e-15
11
972.6579113392387
21
20.34743142594768
31
5.776941920986661e-15
 62
256
 0
LINE
 8
Layer0_S_
10
972.6579113392387
20
20.34743142594768
30
5.776941920986661e-15
11
973.1753906938668
21
19.75735931288072
31
5.779623124211955e-15
 62
256
 0
LINE
 8
Layer0_S_
10
973.1753906938668
20
19.75735931288072
30
5.779623124211955e-15
11
973.7654628069337
21
19.239879958252594
31
5.7819744763330364e-15
 62
256
 0
LINE
 8
Layer0_S_
10
973.7654628069337
20
19.239879958252594
30
5.7819744763330364e-15
11
974.418031380986
21
18.803847577293375
31
5.783955745063199e-15
 62
256
 0
LINE
 8
Layer0_S_
10
974.418031380986
20
18.803847577293375
30
5.783955745063199e-15
11
975.1219307867955
21
18.456722804932284
31
5.785533030345156e-15
 62
256
 0
LINE
 8
Layer0_S_
10
975.1219307867955
20
18.456722804932284
30
5.785533030345156e-15
11
975.8651171103709
21
18.204445042265597
31
5.786679344390426e-15
 62
256
 0
LINE
 8
Layer0_S_
10
975.8651171103709
20
18.204445042265597
30
5.786679344390426e-15
11
976.6348742276657
21
18.051330831757145
31
5.78737507344788e-15
 62
256
 0
LINE
 8
Layer0_S_
10
976.6348742276657
20
18.051330831757145
30
5.78737507344788e-15
11
977.418031380986
21
18.0
31
5.78760831340045e-15
 62
256
 0
LINE
 8
Layer0_S_
10
1022.4180313809859
20
24.0
30
7.170328413448924e-15
11
1022.3667005492288
21
23.216842846679693
31
7.173886967461043e-15
 62
256
 0
LINE
 8
Layer0_S_
10
1022.3667005492288
20
23.216842846679693
30
7.173886967461043e-15
11
1022.2135863387202
21
22.447085729384877
31
7.177384633627397e-15
 62
256
 0
LINE
 8
Layer0_S_
10
1022.2135863387202
20
22.447085729384877
30
7.177384633627397e-15
11
1021.9613085760535
21
21.703899405809466
31
7.180761565910142e-15
 62
256
 0
LINE
 8
Layer0_S_
10
1021.9613085760535
20
21.703899405809466
30
7.180761565910142e-15
11
1021.6141838036925
21
21.000000000000004
31
7.183959984061661e-15
 62
256
 0
LINE
 8
Layer0_S_
10
1021.6141838036925
20
21.000000000000004
30
7.183959984061661e-15
11
1021.1781514227332
21
20.34743142594768
31
7.186925162260609e-15
 62
256
 0
LINE
 8
Layer0_S_
10
1021.1781514227332
20
20.34743142594768
30
7.186925162260609e-15
11
1020.6606720681052
21
19.75735931288072
31
7.189606365485903e-15
 62
256
 0
LINE
 8
Layer0_S_
10
1020.6606720681052
20
19.75735931288072
30
7.189606365485903e-15
11
1020.0705999550382
21
19.239879958252594
31
7.191957717606986e-15
 62
256
 0
LINE
 8
Layer0_S_
10
1020.0705999550382
20
19.239879958252594
30
7.191957717606986e-15
11
1019.4180313809859
21
18.80384757729337
31
7.193938986337148e-15
 62
256
 0
LINE
 8
Layer0_S_
10
1019.4180313809859
20
18.80384757729337
30
7.193938986337148e-15
11
1018.7141319751764
21
18.456722804932284
31
7.195516271619105e-15
 62
256
 0
LINE
 8
Layer0_S_
10
1018.7141319751764
20
18.456722804932284
30
7.195516271619105e-15
11
1017.970945651601
21
18.204445042265597
31
7.196662585664375e-15
 62
256
 0
LINE
 8
Layer0_S_
10
1017.970945651601
20
18.204445042265597
30
7.196662585664375e-15
11
1017.2011885343062
21
18.051330831757145
31
7.197358314721829e-15
 62
256
 0
LINE
 8
Layer0_S_
10
1017.2011885343062
20
18.051330831757145
30
7.197358314721829e-15
11
1016.4180313809859
21
18.0
31
7.197591554674398e-15
 62
256
 0
LINE
 8
Layer0_S_
10
1016.4180313809859
20
88.99999999999991
30
5.4649944755656666e-15
11
1017.2011885343062
21
88.94866916824277
31
5.465227715518236e-15
 62
256
 0
LINE
 8
Layer0_S_
10
1017.2011885343062
20
88.94866916824277
30
5.465227715518236e-15
11
1017.970945651601
21
88.79555495773432
31
5.4659234445756895e-15
 62
256
 0
LINE
 8
Layer0_S_
10
1017.970945651601
20
88.79555495773432
30
5.4659234445756895e-15
11
1018.7141319751764
21
88.54327719506763
31
5.4670697586209614e-15
 62
256
 0
LINE
 8
Layer0_S_
10
1018.7141319751764
20
88.54327719506763
30
5.4670697586209614e-15
11
1019.4180313809859
21
88.19615242270655
31
5.468647043902918e-15
 62
256
 0
LINE
 8
Layer0_S_
10
1019.4180313809859
20
88.19615242270655
30
5.468647043902918e-15
11
1020.0705999550382
21
87.76012004174731
31
5.4706283126330795e-15
 62
256
 0
LINE
 8
Layer0_S_
10
1020.0705999550382
20
87.76012004174731
30
5.4706283126330795e-15
11
1020.6606720681052
21
87.2426406871192
31
5.472979664754162e-15
 62
256
 0
LINE
 8
Layer0_S_
10
1020.6606720681052
20
87.2426406871192
30
5.472979664754162e-15
11
1021.1781514227332
21
86.65256857405224
31
5.475660867979455e-15
 62
256
 0
LINE
 8
Layer0_S_
10
1021.1781514227332
20
86.65256857405224
30
5.475660867979455e-15
11
1021.6141838036925
21
85.99999999999991
31
5.478626046178405e-15
 62
256
 0
LINE
 8
Layer0_S_
10
1021.6141838036925
20
85.99999999999991
30
5.478626046178405e-15
11
1021.9613085760535
21
85.29610059419045
31
5.481824464329923e-15
 62
256
 0
LINE
 8
Layer0_S_
10
1021.9613085760535
20
85.29610059419045
30
5.481824464329923e-15
11
1022.2135863387202
21
84.55291427061503
31
5.485201396612669e-15
 62
256
 0
LINE
 8
Layer0_S_
10
1022.2135863387202
20
84.55291427061503
30
5.485201396612669e-15
11
1022.3667005492288
21
83.78315715332023
31
5.488699062779023e-15
 62
256
 0
LINE
 8
Layer0_S_
10
1022.3667005492288
20
83.78315715332023
30
5.488699062779023e-15
11
1022.4180313809859
21
82.99999999999991
31
5.492257616791141e-15
 62
256
 0
LINE
 8
Layer0_S_
10
1028.418031380986
20
0.0
30
7.279380978350823e-15
11
1029.9843456876265
21
0.10266166351427745
31
7.278914498445683e-15
 62
256
 0
LINE
 8
Layer0_S_
10
1029.9843456876265
20
0.10266166351427745
30
7.278914498445683e-15
11
1031.5238599222162
21
0.40889008453118103
31
7.277523040330777e-15
 62
256
 0
LINE
 8
Layer0_S_
10
1031.5238599222162
20
0.40889008453118103
30
7.277523040330777e-15
11
1033.010232569367
21
0.9134456098645598
31
7.275230412240234e-15
 62
256
 0
LINE
 8
Layer0_S_
10
1033.010232569367
20
0.9134456098645598
30
7.275230412240234e-15
11
1034.418031380986
21
1.6076951545867362
31
7.27207584167632e-15
 62
256
 0
LINE
 8
Layer0_S_
10
1034.418031380986
20
1.6076951545867362
30
7.27207584167632e-15
11
1035.7231685290906
21
2.4797599165051807
31
7.268113304215997e-15
 62
256
 0
LINE
 8
Layer0_S_
10
1035.7231685290906
20
2.4797599165051807
30
7.268113304215997e-15
11
1036.9033127552243
21
3.514718625761432
31
7.263410599973832e-15
 62
256
 0
LINE
 8
Layer0_S_
10
1036.9033127552243
20
3.514718625761432
30
7.263410599973832e-15
11
1037.9382714644807
21
4.694862851895351
31
7.258048193523245e-15
 62
256
 0
LINE
 8
Layer0_S_
10
1037.9382714644807
20
4.694862851895351
30
7.258048193523245e-15
11
1038.8103362263992
21
6.0
31
7.252117837125348e-15
 62
256
 0
LINE
 8
Layer0_S_
10
1038.8103362263992
20
6.0
30
7.252117837125348e-15
11
1039.5045857711214
21
7.407798811618927
31
7.24572100082231e-15
 62
256
 0
LINE
 8
Layer0_S_
10
1039.5045857711214
20
7.407798811618927
30
7.24572100082231e-15
11
1040.0091412964546
21
8.894171458769755
31
7.238967136256818e-15
 62
256
 0
LINE
 8
Layer0_S_
10
1040.0091412964546
20
8.894171458769755
30
7.238967136256818e-15
11
1040.3153697174716
21
10.433685693359383
31
7.231971803924111e-15
 62
256
 0
LINE
 8
Layer0_S_
10
1040.3153697174716
20
10.433685693359383
30
7.231971803924111e-15
11
1040.418031380986
21
12.0
31
7.224854695899872e-15
 62
256
 0
LINE
 8
Layer0_S_
10
867.418031380986
20
0.0
30
7.279380978350823e-15
11
865.8517170743453
21
0.10266166351427745
31
7.278914498445683e-15
 62
256
 0
LINE
 8
Layer0_S_
10
865.8517170743453
20
0.10266166351427745
30
7.278914498445683e-15
11
864.3122028397557
21
0.40889008453118103
31
7.277523040330777e-15
 62
256
 0
LINE
 8
Layer0_S_
10
864.3122028397557
20
0.40889008453118103
30
7.277523040330777e-15
11
862.8258301926049
21
0.9134456098645598
31
7.275230412240234e-15
 62
256
 0
LINE
 8
Layer0_S_
10
862.8258301926049
20
0.9134456098645598
30
7.275230412240234e-15
11
861.4180313809859
21
1.6076951545867362
31
7.27207584167632e-15
 62
256
 0
LINE
 8
Layer0_S_
10
861.4180313809859
20
1.6076951545867362
30
7.27207584167632e-15
11
860.1128942328812
21
2.4797599165051807
31
7.268113304215997e-15
 62
256
 0
LINE
 8
Layer0_S_
10
860.1128942328812
20
2.4797599165051807
30
7.268113304215997e-15
11
858.9327500067474
21
3.514718625761432
31
7.263410599973832e-15
 62
256
 0
LINE
 8
Layer0_S_
10
858.9327500067474
20
3.514718625761432
30
7.263410599973832e-15
11
857.897791297491
21
4.694862851895351
31
7.258048193523245e-15
 62
256
 0
LINE
 8
Layer0_S_
10
857.897791297491
20
4.694862851895351
30
7.258048193523245e-15
11
857.0257265355726
21
6.0
31
7.252117837125348e-15
 62
256
 0
LINE
 8
Layer0_S_
10
857.0257265355726
20
6.0
30
7.252117837125348e-15
11
856.3314769908505
21
7.407798811618927
31
7.24572100082231e-15
 62
256
 0
LINE
 8
Layer0_S_
10
856.3314769908505
20
7.407798811618927
30
7.24572100082231e-15
11
855.8269214655172
21
8.894171458769755
31
7.238967136256818e-15
 62
256
 0
LINE
 8
Layer0_S_
10
855.8269214655172
20
8.894171458769755
30
7.238967136256818e-15
11
855.5206930445001
21
10.433685693359383
31
7.231971803924111e-15
 62
256
 0
LINE
 8
Layer0_S_
10
855.5206930445001
20
10.433685693359383
30
7.231971803924111e-15
11
855.4180313809858
21
12.0
31
7.224854695899872e-15
 62
256
 0
LINE
 8
Layer0_S_
10
865.4180313809859
20
139.81107288852084
30
6.644099474176677e-15
11
863.9258018339647
21
139.48060681283482
31
6.645601064725287e-15
 62
256
 0
LINE
 8
Layer0_S_
10
863.9258018339647
20
139.48060681283482
30
6.645601064725287e-15
11
862.4937820051885
21
138.94311509968514
31
6.64804335013914e-15
 62
256
 0
LINE
 8
Layer0_S_
10
862.4937820051885
20
138.94311509968514
30
6.64804335013914e-15
11
861.1417668024867
21
138.22782982556296
31
6.651293504046622e-15
 62
256
 0
LINE
 8
Layer0_S_
10
861.1417668024867
20
138.22782982556296
30
6.651293504046622e-15
11
859.8917225119844
21
137.34637228064383
31
6.655298720968522e-15
 62
256
 0
LINE
 8
Layer0_S_
10
859.8917225119844
20
137.34637228064383
30
6.655298720968522e-15
11
858.7639586912211
21
136.3130635676786
31
6.659993927863703e-15
 62
256
 0
LINE
 8
Layer0_S_
10
858.7639586912211
20
136.3130635676786
30
6.659993927863703e-15
11
857.7767981983412
21
135.14469192602948
31
6.6653028413753876e-15
 62
256
 0
LINE
 8
Layer0_S_
10
857.7767981983412
20
135.14469192602948
30
6.6653028413753876e-15
11
856.9462794993285
21
133.86023997196398
31
6.671139207212226e-15
 62
256
 0
LINE
 8
Layer0_S_
10
856.9462794993285
20
133.86023997196398
30
6.671139207212226e-15
11
856.2858960899202
21
132.48057628675267
31
6.677408201527822e-15
 62
256
 0
LINE
 8
Layer0_S_
10
856.2858960899202
20
132.48057628675267
30
6.677408201527822e-15
11
855.8063772658332
21
131.0281163633611
31
6.68400797153045e-15
 62
256
 0
LINE
 8
Layer0_S_
10
855.8063772658332
20
131.0281163633611
30
6.68400797153045e-15
11
855.5155138031406
21
129.52645842035844
31
6.690831290292523e-15
 62
256
 0
LINE
 8
Layer0_S_
10
855.5155138031406
20
129.52645842035844
30
6.690831290292523e-15
11
855.4180313809858
21
127.99999999999993
31
6.697767298874031e-15
 62
256
 0
LINE
 8
Layer0_S_
10
865.403320838293
20
133.65163174925272
30
5.251733042510879e-15
11
864.0455085985507
21
132.96246814417535
31
5.3006038600587365e-15
 62
256
 0
LINE
 8
Layer0_S_
10
864.0455085985507
20
132.96246814417535
30
5.3006038600587365e-15
11
862.9049056140366
21
131.95369394512244
31
5.4394597865457314e-15
 62
256
 0
LINE
 8
Layer0_S_
10
862.9049056140366
20
131.95369394512244
30
5.4394597865457314e-15
11
862.0549730711562
21
130.69027983030884
31
5.659357726751467e-15
 62
256
 0
LINE
 8
Layer0_S_
10
862.0549730711562
20
130.69027983030884
30
5.659357726751467e-15
11
861.5504513605734
21
129.2535967071018
31
5.946135028293858e-15
 62
256
 0
LINE
 8
Layer0_S_
10
861.5504513605734
20
129.2535967071018
30
5.946135028293858e-15
11
861.4238344910976
21
127.73617497227609
31
6.2813216353414645e-15
 62
256
 0
LINE
 8
Layer0_S_
10
861.4238344910976
20
127.73617497227609
30
6.2813216353414645e-15
11
861.6832772944948
21
126.23574503898274
31
6.643329663104161e-15
 62
256
 0
LINE
 8
Layer0_S_
10
861.6832772944948
20
126.23574503898274
30
6.643329663104161e-15
11
862.3120702088924
21
124.84894295369413
31
7.0088437778779064e-15
 62
256
 0
LINE
 8
Layer0_S_
10
862.3120702088924
20
124.84894295369413
30
7.0088437778779064e-15
11
863.2697154676509
21
123.66508649646015
31
7.354322834423029e-15
 62
256
 0
LINE
 8
Layer0_S_
10
863.2697154676509
20
123.66508649646015
30
7.354322834423029e-15
11
864.4945353811456
21
122.76042261829085
31
7.657516056863399e-15
 62
256
 0
LINE
 8
Layer0_S_
10
864.4945353811456
20
122.76042261829085
30
7.657516056863399e-15
11
865.9076447235791
21
122.19321671274636
31
7.898896112610039e-15
 62
256
 0
LINE
 8
Layer0_S_
10
865.9076447235791
20
122.19321671274636
30
7.898896112610039e-15
11
867.418031380986
21
121.99999999999991
31
8.062916781364978e-15
 62
256
 0
LINE
 8
Layer0_S_
10
867.418031380986
20
121.99999999999991
30
8.062916781364978e-15
11
868.9284180383929
21
122.19321671274636
31
8.139014218315114e-15
 62
256
 0
LINE
 8
Layer0_S_
10
868.9284180383929
20
122.19321671274636
30
8.139014218315114e-15
11
870.3415273808264
21
122.76042261829085
31
8.122287324588467e-15
 62
256
 0
LINE
 8
Layer0_S_
10
870.3415273808264
20
122.76042261829085
30
8.122287324588467e-15
11
871.5663472943211
21
123.66508649646015
31
8.013813405325147e-15
 62
256
 0
LINE
 8
Layer0_S_
10
871.5663472943211
20
123.66508649646015
30
8.013813405325147e-15
11
872.5239925530794
21
124.84894295369413
31
7.820578785224749e-15
 62
256
 0
LINE
 8
Layer0_S_
10
872.5239925530794
20
124.84894295369413
30
7.820578785224749e-15
11
873.1527854674771
21
126.23574503898274
31
7.55502885031547e-15
 62
256
 0
LINE
 8
Layer0_S_
10
873.1527854674771
20
126.23574503898274
30
7.55502885031547e-15
11
873.4122282708743
21
127.73617497227609
31
7.234266495761715e-15
 62
256
 0
LINE
 8
Layer0_S_
10
873.4122282708743
20
127.73617497227609
30
7.234266495761715e-15
11
873.2856114013983
21
129.2535967071018
31
6.878950604136711e-15
 62
256
 0
LINE
 8
Layer0_S_
10
873.2856114013983
20
129.2535967071018
30
6.878950604136711e-15
11
872.7810896908156
21
130.69027983030884
31
6.5119654982959106e-15
 62
256
 0
LINE
 8
Layer0_S_
10
872.7810896908156
20
130.69027983030884
30
6.5119654982959106e-15
11
871.9311571479352
21
131.95369394512244
31
6.156947063498469e-15
 62
256
 0
LINE
 8
Layer0_S_
10
871.9311571479352
20
131.95369394512244
30
6.156947063498469e-15
11
870.7905541634211
21
132.96246814417535
31
5.8367604647230354e-15
 62
256
 0
LINE
 8
Layer0_S_
10
870.7905541634211
20
132.96246814417535
30
5.8367604647230354e-15
11
869.4327419236788
21
133.65163174925272
31
5.572027502663227e-15
 62
256
 0
LINE
 8
Layer0_S_
10
1030.4327419236788
20
133.65163174925272
30
5.251733042510878e-15
11
1031.7905541634211
21
132.96246814417532
31
5.300603860058736e-15
 62
256
 0
LINE
 8
Layer0_S_
10
1031.7905541634211
20
132.96246814417532
30
5.300603860058736e-15
11
1032.9311571479352
21
131.9536939451224
31
5.439459786545729e-15
 62
256
 0
LINE
 8
Layer0_S_
10
1032.9311571479352
20
131.9536939451224
30
5.439459786545729e-15
11
1033.7810896908156
21
130.6902798303088
31
5.659357726751466e-15
 62
256
 0
LINE
 8
Layer0_S_
10
1033.7810896908156
20
130.6902798303088
30
5.659357726751466e-15
11
1034.2856114013982
21
129.2535967071018
31
5.9461350282938565e-15
 62
256
 0
LINE
 8
Layer0_S_
10
1034.2856114013982
20
129.2535967071018
30
5.9461350282938565e-15
11
1034.4122282708743
21
127.73617497227609
31
6.281321635341461e-15
 62
256
 0
LINE
 8
Layer0_S_
10
1034.4122282708743
20
127.73617497227609
30
6.281321635341461e-15
11
1034.1527854674769
21
126.23574503898274
31
6.6433296631041604e-15
 62
256
 0
LINE
 8
Layer0_S_
10
1034.1527854674769
20
126.23574503898274
30
6.6433296631041604e-15
11
1033.5239925530793
21
124.84894295369415
31
7.008843777877904e-15
 62
256
 0
LINE
 8
Layer0_S_
10
1033.5239925530793
20
124.84894295369415
30
7.008843777877904e-15
11
1032.5663472943208
21
123.66508649646015
31
7.354322834423027e-15
 62
256
 0
LINE
 8
Layer0_S_
10
1032.5663472943208
20
123.66508649646015
30
7.354322834423027e-15
11
1031.3415273808262
21
122.76042261829085
31
7.657516056863397e-15
 62
256
 0
LINE
 8
Layer0_S_
10
1031.3415273808262
20
122.76042261829085
30
7.657516056863397e-15
11
1029.9284180383927
21
122.19321671274636
31
7.898896112610038e-15
 62
256
 0
LINE
 8
Layer0_S_
10
1029.9284180383927
20
122.19321671274636
30
7.898896112610038e-15
11
1028.418031380986
21
121.99999999999991
31
8.062916781364978e-15
 62
256
 0
LINE
 8
Layer0_S_
10
1028.418031380986
20
121.99999999999991
30
8.062916781364978e-15
11
1026.9076447235789
21
122.19321671274636
31
8.139014218315114e-15
 62
256
 0
LINE
 8
Layer0_S_
10
1026.9076447235789
20
122.19321671274636
30
8.139014218315114e-15
11
1025.4945353811456
21
122.76042261829085
31
8.12228732458847e-15
 62
256
 0
LINE
 8
Layer0_S_
10
1025.4945353811456
20
122.76042261829085
30
8.12228732458847e-15
11
1024.269715467651
21
123.66508649646015
31
8.01381340532515e-15
 62
256
 0
LINE
 8
Layer0_S_
10
1024.269715467651
20
123.66508649646015
30
8.01381340532515e-15
11
1023.3120702088925
21
124.84894295369413
31
7.820578785224752e-15
 62
256
 0
LINE
 8
Layer0_S_
10
1023.3120702088925
20
124.84894295369413
30
7.820578785224752e-15
11
1022.6832772944949
21
126.23574503898274
31
7.555028850315475e-15
 62
256
 0
LINE
 8
Layer0_S_
10
1022.6832772944949
20
126.23574503898274
30
7.555028850315475e-15
11
1022.4238344910976
21
127.73617497227606
31
7.23426649576172e-15
 62
256
 0
LINE
 8
Layer0_S_
10
1022.4238344910976
20
127.73617497227606
30
7.23426649576172e-15
11
1022.5504513605734
21
129.2535967071018
31
6.878950604136717e-15
 62
256
 0
LINE
 8
Layer0_S_
10
1022.5504513605734
20
129.2535967071018
30
6.878950604136717e-15
11
1023.0549730711562
21
130.6902798303088
31
6.511965498295917e-15
 62
256
 0
LINE
 8
Layer0_S_
10
1023.0549730711562
20
130.6902798303088
30
6.511965498295917e-15
11
1023.9049056140366
21
131.9536939451224
31
6.1569470634984756e-15
 62
256
 0
LINE
 8
Layer0_S_
10
1023.9049056140366
20
131.9536939451224
30
6.1569470634984756e-15
11
1025.0455085985507
21
132.9624681441753
31
5.83676046472304e-15
 62
256
 0
LINE
 8
Layer0_S_
10
1025.0455085985507
20
132.9624681441753
30
5.83676046472304e-15
11
1026.403320838293
21
133.65163174925272
31
5.572027502663231e-15
 62
256
 0
LINE
 8
Layer0_S_
10
1030.418031380986
20
139.81107288852084
30
6.644099474176677e-15
11
1031.9102609280073
21
139.48060681283482
31
6.645601064725287e-15
 62
256
 0
LINE
 8
Layer0_S_
10
1031.9102609280073
20
139.48060681283482
30
6.645601064725287e-15
11
1033.3422807567833
21
138.94311509968514
31
6.64804335013914e-15
 62
256
 0
LINE
 8
Layer0_S_
10
1033.3422807567833
20
138.94311509968514
30
6.64804335013914e-15
11
1034.694295959485
21
138.22782982556296
31
6.651293504046622e-15
 62
256
 0
LINE
 8
Layer0_S_
10
1034.694295959485
20
138.22782982556296
30
6.651293504046622e-15
11
1035.9443402499874
21
137.34637228064383
31
6.655298720968522e-15
 62
256
 0
LINE
 8
Layer0_S_
10
1035.9443402499874
20
137.34637228064383
30
6.655298720968522e-15
11
1037.0721040707508
21
136.3130635676786
31
6.659993927863703e-15
 62
256
 0
LINE
 8
Layer0_S_
10
1037.0721040707508
20
136.3130635676786
30
6.659993927863703e-15
11
1038.0592645636307
21
135.14469192602948
31
6.665302841375389e-15
 62
256
 0
LINE
 8
Layer0_S_
10
1038.0592645636307
20
135.14469192602948
30
6.665302841375389e-15
11
1038.8897832626433
21
133.86023997196398
31
6.671139207212226e-15
 62
256
 0
LINE
 8
Layer0_S_
10
1038.8897832626433
20
133.86023997196398
30
6.671139207212226e-15
11
1039.5501666720515
21
132.48057628675267
31
6.677408201527822e-15
 62
256
 0
LINE
 8
Layer0_S_
10
1039.5501666720515
20
132.48057628675267
30
6.677408201527822e-15
11
1040.0296854961387
21
131.0281163633611
31
6.68400797153045e-15
 62
256
 0
LINE
 8
Layer0_S_
10
1040.0296854961387
20
131.0281163633611
30
6.68400797153045e-15
11
1040.3205489588313
21
129.52645842035844
31
6.690831290292523e-15
 62
256
 0
LINE
 8
Layer0_S_
10
1040.3205489588313
20
129.52645842035844
30
6.690831290292523e-15
11
1040.418031380986
21
127.99999999999993
31
6.697767298874031e-15
 62
256
 0
LINE
 8
Layer0_S_
10
1007.918031380986
20
2.500000000000001
30
7.26802133617354e-15
11
1007.9521055546968
21
2.2411809548974784
31
7.269197372869953e-15
 62
256
 0
LINE
 8
Layer0_S_
10
1007.9521055546968
20
2.2411809548974784
30
7.269197372869953e-15
11
1008.0520059772016
21
2.0000000000000018
31
7.270293264608997e-15
 62
256
 0
LINE
 8
Layer0_S_
10
1008.0520059772016
20
2.0000000000000018
30
7.270293264608997e-15
11
1008.2109245997993
21
1.7928932188134574
31
7.271234328179704e-15
 62
256
 0
LINE
 8
Layer0_S_
10
1008.2109245997993
20
1.7928932188134574
30
7.271234328179704e-15
11
1008.4180313809859
21
1.6339745962155618
31
7.271956431654912e-15
 62
256
 0
LINE
 8
Layer0_S_
10
1008.4180313809859
20
1.6339745962155618
30
7.271956431654912e-15
11
1008.6592123358834
21
1.5340741737109347
31
7.272410364876117e-15
 62
256
 0
LINE
 8
Layer0_S_
10
1008.6592123358834
20
1.5340741737109347
30
7.272410364876117e-15
11
1008.9180313809859
21
1.5000000000000029
31
7.272565193044453e-15
 62
256
 0
LINE
 8
Layer0_S_
10
1008.9180313809859
20
1.5000000000000029
30
7.272565193044453e-15
11
1009.1768504260884
21
1.5340741737109347
31
7.272410364876117e-15
 62
256
 0
LINE
 8
Layer0_S_
10
1009.1768504260884
20
1.5340741737109347
30
7.272410364876117e-15
11
1009.4180313809858
21
1.6339745962155618
31
7.271956431654912e-15
 62
256
 0
LINE
 8
Layer0_S_
10
1009.4180313809858
20
1.6339745962155618
30
7.271956431654912e-15
11
1009.6251381621726
21
1.7928932188134574
31
7.271234328179704e-15
 62
256
 0
LINE
 8
Layer0_S_
10
1009.6251381621726
20
1.7928932188134574
30
7.271234328179704e-15
11
1009.7840567847703
21
2.0000000000000018
31
7.270293264608997e-15
 62
256
 0
LINE
 8
Layer0_S_
10
1009.7840567847703
20
2.0000000000000018
30
7.270293264608997e-15
11
1009.8839572072751
21
2.2411809548974784
31
7.269197372869953e-15
 62
256
 0
LINE
 8
Layer0_S_
10
1009.8839572072751
20
2.2411809548974784
30
7.269197372869953e-15
11
1009.9180313809859
21
2.500000000000001
31
7.26802133617354e-15
 62
256
 0
LINE
 8
Layer0_S_
10
1009.9180313809859
20
2.500000000000001
30
7.26802133617354e-15
11
1009.8839572072751
21
2.758819045102518
31
7.266845299477129e-15
 62
256
 0
LINE
 8
Layer0_S_
10
1009.8839572072751
20
2.758819045102518
30
7.266845299477129e-15
11
1009.7840567847703
21
3.0
31
7.265749407738085e-15
 62
256
 0
LINE
 8
Layer0_S_
10
1009.7840567847703
20
3.0
30
7.265749407738085e-15
11
1009.6251381621726
21
3.207106781186545
31
7.264808344167378e-15
 62
256
 0
LINE
 8
Layer0_S_
10
1009.6251381621726
20
3.207106781186545
30
7.264808344167378e-15
11
1009.4180313809858
21
3.36602540378444
31
7.26408624069217e-15
 62
256
 0
LINE
 8
Layer0_S_
10
1009.4180313809858
20
3.36602540378444
30
7.26408624069217e-15
11
1009.1768504260884
21
3.4659258262890673
31
7.263632307470967e-15
 62
256
 0
LINE
 8
Layer0_S_
10
1009.1768504260884
20
3.4659258262890673
30
7.263632307470967e-15
11
1008.9180313809859
21
3.499999999999999
31
7.263477479302629e-15
 62
256
 0
LINE
 8
Layer0_S_
10
1008.9180313809859
20
3.499999999999999
30
7.263477479302629e-15
11
1008.6592123358834
21
3.4659258262890673
31
7.263632307470967e-15
 62
256
 0
LINE
 8
Layer0_S_
10
1008.6592123358834
20
3.4659258262890673
30
7.263632307470967e-15
11
1008.4180313809859
21
3.36602540378444
31
7.26408624069217e-15
 62
256
 0
LINE
 8
Layer0_S_
10
1008.4180313809859
20
3.36602540378444
30
7.26408624069217e-15
11
1008.2109245997993
21
3.207106781186545
31
7.264808344167378e-15
 62
256
 0
LINE
 8
Layer0_S_
10
1008.2109245997993
20
3.207106781186545
30
7.264808344167378e-15
11
1008.0520059772016
21
3.0
31
7.265749407738085e-15
 62
256
 0
LINE
 8
Layer0_S_
10
1008.0520059772016
20
3.0
30
7.265749407738085e-15
11
1007.9521055546968
21
2.758819045102524
31
7.266845299477129e-15
 62
256
 0
LINE
 8
Layer0_S_
10
1007.9521055546968
20
2.758819045102524
30
7.266845299477129e-15
11
1007.918031380986
21
2.500000000000001
31
7.26802133617354e-15
 62
256
 0
LINE
 8
Layer0_S_
10
1000.9180313809859
20
2.500000000000001
30
7.26802133617354e-15
11
1000.9521055546968
21
2.2411809548974784
31
7.269197372869953e-15
 62
256
 0
LINE
 8
Layer0_S_
10
1000.9521055546968
20
2.2411809548974784
30
7.269197372869953e-15
11
1001.0520059772015
21
2.0000000000000018
31
7.270293264608997e-15
 62
256
 0
LINE
 8
Layer0_S_
10
1001.0520059772015
20
2.0000000000000018
30
7.270293264608997e-15
11
1001.2109245997993
21
1.7928932188134574
31
7.271234328179704e-15
 62
256
 0
LINE
 8
Layer0_S_
10
1001.2109245997993
20
1.7928932188134574
30
7.271234328179704e-15
11
1001.4180313809858
21
1.6339745962155618
31
7.271956431654912e-15
 62
256
 0
LINE
 8
Layer0_S_
10
1001.4180313809858
20
1.6339745962155618
30
7.271956431654912e-15
11
1001.6592123358834
21
1.5340741737109347
31
7.272410364876117e-15
 62
256
 0
LINE
 8
Layer0_S_
10
1001.6592123358834
20
1.5340741737109347
30
7.272410364876117e-15
11
1001.9180313809859
21
1.5000000000000029
31
7.272565193044453e-15
 62
256
 0
LINE
 8
Layer0_S_
10
1001.9180313809859
20
1.5000000000000029
30
7.272565193044453e-15
11
1002.1768504260884
21
1.5340741737109347
31
7.272410364876117e-15
 62
256
 0
LINE
 8
Layer0_S_
10
1002.1768504260884
20
1.5340741737109347
30
7.272410364876117e-15
11
1002.418031380986
21
1.6339745962155618
31
7.271956431654912e-15
 62
256
 0
LINE
 8
Layer0_S_
10
1002.418031380986
20
1.6339745962155618
30
7.271956431654912e-15
11
1002.6251381621724
21
1.7928932188134574
31
7.271234328179704e-15
 62
256
 0
LINE
 8
Layer0_S_
10
1002.6251381621724
20
1.7928932188134574
30
7.271234328179704e-15
11
1002.7840567847703
21
2.0000000000000018
31
7.270293264608997e-15
 62
256
 0
LINE
 8
Layer0_S_
10
1002.7840567847703
20
2.0000000000000018
30
7.270293264608997e-15
11
1002.883957207275
21
2.2411809548974784
31
7.269197372869953e-15
 62
256
 0
LINE
 8
Layer0_S_
10
1002.883957207275
20
2.2411809548974784
30
7.269197372869953e-15
11
1002.9180313809859
21
2.500000000000001
31
7.26802133617354e-15
 62
256
 0
LINE
 8
Layer0_S_
10
1002.9180313809859
20
2.500000000000001
30
7.26802133617354e-15
11
1002.883957207275
21
2.758819045102518
31
7.266845299477129e-15
 62
256
 0
LINE
 8
Layer0_S_
10
1002.883957207275
20
2.758819045102518
30
7.266845299477129e-15
11
1002.7840567847703
21
3.0
31
7.265749407738085e-15
 62
256
 0
LINE
 8
Layer0_S_
10
1002.7840567847703
20
3.0
30
7.265749407738085e-15
11
1002.6251381621724
21
3.207106781186545
31
7.264808344167378e-15
 62
256
 0
LINE
 8
Layer0_S_
10
1002.6251381621724
20
3.207106781186545
30
7.264808344167378e-15
11
1002.418031380986
21
3.36602540378444
31
7.26408624069217e-15
 62
256
 0
LINE
 8
Layer0_S_
10
1002.418031380986
20
3.36602540378444
30
7.26408624069217e-15
11
1002.1768504260884
21
3.4659258262890673
31
7.263632307470967e-15
 62
256
 0
LINE
 8
Layer0_S_
10
1002.1768504260884
20
3.4659258262890673
30
7.263632307470967e-15
11
1001.9180313809859
21
3.499999999999999
31
7.263477479302629e-15
 62
256
 0
LINE
 8
Layer0_S_
10
1001.9180313809859
20
3.499999999999999
30
7.263477479302629e-15
11
1001.6592123358834
21
3.4659258262890673
31
7.263632307470967e-15
 62
256
 0
LINE
 8
Layer0_S_
10
1001.6592123358834
20
3.4659258262890673
30
7.263632307470967e-15
11
1001.4180313809858
21
3.36602540378444
31
7.26408624069217e-15
 62
256
 0
LINE
 8
Layer0_S_
10
1001.4180313809858
20
3.36602540378444
30
7.26408624069217e-15
11
1001.2109245997993
21
3.207106781186545
31
7.264808344167378e-15
 62
256
 0
LINE
 8
Layer0_S_
10
1001.2109245997993
20
3.207106781186545
30
7.264808344167378e-15
11
1001.0520059772015
21
3.0
31
7.265749407738085e-15
 62
256
 0
LINE
 8
Layer0_S_
10
1001.0520059772015
20
3.0
30
7.265749407738085e-15
11
1000.9521055546968
21
2.758819045102524
31
7.266845299477129e-15
 62
256
 0
LINE
 8
Layer0_S_
10
1000.9521055546968
20
2.758819045102524
30
7.266845299477129e-15
11
1000.9180313809859
21
2.500000000000001
31
7.26802133617354e-15
 62
256
 0
LINE
 8
Layer0_S_
10
993.9180313809859
20
2.500000000000001
30
7.26802133617354e-15
11
993.9521055546969
21
2.2411809548974784
31
7.269197372869953e-15
 62
256
 0
LINE
 8
Layer0_S_
10
993.9521055546969
20
2.2411809548974784
30
7.269197372869953e-15
11
994.0520059772015
21
2.0000000000000018
31
7.270293264608997e-15
 62
256
 0
LINE
 8
Layer0_S_
10
994.0520059772015
20
2.0000000000000018
30
7.270293264608997e-15
11
994.2109245997995
21
1.7928932188134574
31
7.271234328179704e-15
 62
256
 0
LINE
 8
Layer0_S_
10
994.2109245997995
20
1.7928932188134574
30
7.271234328179704e-15
11
994.418031380986
21
1.6339745962155618
31
7.271956431654912e-15
 62
256
 0
LINE
 8
Layer0_S_
10
994.418031380986
20
1.6339745962155618
30
7.271956431654912e-15
11
994.6592123358834
21
1.5340741737109347
31
7.272410364876117e-15
 62
256
 0
LINE
 8
Layer0_S_
10
994.6592123358834
20
1.5340741737109347
30
7.272410364876117e-15
11
994.9180313809859
21
1.5000000000000029
31
7.272565193044453e-15
 62
256
 0
LINE
 8
Layer0_S_
10
994.9180313809859
20
1.5000000000000029
30
7.272565193044453e-15
11
995.1768504260884
21
1.5340741737109347
31
7.272410364876117e-15
 62
256
 0
LINE
 8
Layer0_S_
10
995.1768504260884
20
1.5340741737109347
30
7.272410364876117e-15
11
995.4180313809859
21
1.6339745962155618
31
7.271956431654912e-15
 62
256
 0
LINE
 8
Layer0_S_
10
995.4180313809859
20
1.6339745962155618
30
7.271956431654912e-15
11
995.6251381621724
21
1.7928932188134574
31
7.271234328179704e-15
 62
256
 0
LINE
 8
Layer0_S_
10
995.6251381621724
20
1.7928932188134574
30
7.271234328179704e-15
11
995.7840567847702
21
2.0000000000000018
31
7.270293264608997e-15
 62
256
 0
LINE
 8
Layer0_S_
10
995.7840567847702
20
2.0000000000000018
30
7.270293264608997e-15
11
995.883957207275
21
2.2411809548974784
31
7.269197372869953e-15
 62
256
 0
LINE
 8
Layer0_S_
10
995.883957207275
20
2.2411809548974784
30
7.269197372869953e-15
11
995.9180313809858
21
2.500000000000001
31
7.26802133617354e-15
 62
256
 0
LINE
 8
Layer0_S_
10
995.9180313809858
20
2.500000000000001
30
7.26802133617354e-15
11
995.883957207275
21
2.758819045102524
31
7.266845299477129e-15
 62
256
 0
LINE
 8
Layer0_S_
10
995.883957207275
20
2.758819045102524
30
7.266845299477129e-15
11
995.7840567847702
21
3.0
31
7.265749407738085e-15
 62
256
 0
LINE
 8
Layer0_S_
10
995.7840567847702
20
3.0
30
7.265749407738085e-15
11
995.6251381621724
21
3.207106781186545
31
7.264808344167378e-15
 62
256
 0
LINE
 8
Layer0_S_
10
995.6251381621724
20
3.207106781186545
30
7.264808344167378e-15
11
995.4180313809859
21
3.36602540378444
31
7.264086240692172e-15
 62
256
 0
LINE
 8
Layer0_S_
10
995.4180313809859
20
3.36602540378444
30
7.264086240692172e-15
11
995.1768504260884
21
3.4659258262890673
31
7.263632307470967e-15
 62
256
 0
LINE
 8
Layer0_S_
10
995.1768504260884
20
3.4659258262890673
30
7.263632307470967e-15
11
994.9180313809859
21
3.499999999999999
31
7.263477479302629e-15
 62
256
 0
LINE
 8
Layer0_S_
10
994.9180313809859
20
3.499999999999999
30
7.263477479302629e-15
11
994.6592123358834
21
3.4659258262890673
31
7.263632307470967e-15
 62
256
 0
LINE
 8
Layer0_S_
10
994.6592123358834
20
3.4659258262890673
30
7.263632307470967e-15
11
994.418031380986
21
3.36602540378444
31
7.264086240692172e-15
 62
256
 0
LINE
 8
Layer0_S_
10
994.418031380986
20
3.36602540378444
30
7.264086240692172e-15
11
994.2109245997995
21
3.207106781186545
31
7.264808344167378e-15
 62
256
 0
LINE
 8
Layer0_S_
10
994.2109245997995
20
3.207106781186545
30
7.264808344167378e-15
11
994.0520059772015
21
3.0
31
7.265749407738085e-15
 62
256
 0
LINE
 8
Layer0_S_
10
994.0520059772015
20
3.0
30
7.265749407738085e-15
11
993.9521055546969
21
2.758819045102524
31
7.266845299477129e-15
 62
256
 0
LINE
 8
Layer0_S_
10
993.9521055546969
20
2.758819045102524
30
7.266845299477129e-15
11
993.9180313809859
21
2.500000000000001
31
7.26802133617354e-15
 62
256
 0
LINE
 8
Layer0_S_
10
986.9180313809859
20
2.500000000000001
30
7.26802133617354e-15
11
986.9521055546969
21
2.2411809548974784
31
7.269197372869953e-15
 62
256
 0
LINE
 8
Layer0_S_
10
986.9521055546969
20
2.2411809548974784
30
7.269197372869953e-15
11
987.0520059772015
21
2.0000000000000018
31
7.270293264608997e-15
 62
256
 0
LINE
 8
Layer0_S_
10
987.0520059772015
20
2.0000000000000018
30
7.270293264608997e-15
11
987.2109245997995
21
1.7928932188134574
31
7.271234328179704e-15
 62
256
 0
LINE
 8
Layer0_S_
10
987.2109245997995
20
1.7928932188134574
30
7.271234328179704e-15
11
987.4180313809859
21
1.6339745962155618
31
7.271956431654912e-15
 62
256
 0
LINE
 8
Layer0_S_
10
987.4180313809859
20
1.6339745962155618
30
7.271956431654912e-15
11
987.6592123358832
21
1.5340741737109347
31
7.272410364876117e-15
 62
256
 0
LINE
 8
Layer0_S_
10
987.6592123358832
20
1.5340741737109347
30
7.272410364876117e-15
11
987.9180313809858
21
1.5000000000000029
31
7.272565193044453e-15
 62
256
 0
LINE
 8
Layer0_S_
10
987.9180313809858
20
1.5000000000000029
30
7.272565193044453e-15
11
988.1768504260883
21
1.5340741737109347
31
7.272410364876117e-15
 62
256
 0
LINE
 8
Layer0_S_
10
988.1768504260883
20
1.5340741737109347
30
7.272410364876117e-15
11
988.4180313809859
21
1.6339745962155618
31
7.271956431654912e-15
 62
256
 0
LINE
 8
Layer0_S_
10
988.4180313809859
20
1.6339745962155618
30
7.271956431654912e-15
11
988.6251381621724
21
1.7928932188134574
31
7.271234328179704e-15
 62
256
 0
LINE
 8
Layer0_S_
10
988.6251381621724
20
1.7928932188134574
30
7.271234328179704e-15
11
988.7840567847704
21
2.0000000000000018
31
7.270293264608997e-15
 62
256
 0
LINE
 8
Layer0_S_
10
988.7840567847704
20
2.0000000000000018
30
7.270293264608997e-15
11
988.883957207275
21
2.2411809548974784
31
7.269197372869953e-15
 62
256
 0
LINE
 8
Layer0_S_
10
988.883957207275
20
2.2411809548974784
30
7.269197372869953e-15
11
988.918031380986
21
2.500000000000001
31
7.26802133617354e-15
 62
256
 0
LINE
 8
Layer0_S_
10
988.918031380986
20
2.500000000000001
30
7.26802133617354e-15
11
988.883957207275
21
2.758819045102524
31
7.266845299477129e-15
 62
256
 0
LINE
 8
Layer0_S_
10
988.883957207275
20
2.758819045102524
30
7.266845299477129e-15
11
988.7840567847704
21
3.0
31
7.265749407738085e-15
 62
256
 0
LINE
 8
Layer0_S_
10
988.7840567847704
20
3.0
30
7.265749407738085e-15
11
988.6251381621724
21
3.207106781186545
31
7.264808344167378e-15
 62
256
 0
LINE
 8
Layer0_S_
10
988.6251381621724
20
3.207106781186545
30
7.264808344167378e-15
11
988.4180313809859
21
3.36602540378444
31
7.264086240692172e-15
 62
256
 0
LINE
 8
Layer0_S_
10
988.4180313809859
20
3.36602540378444
30
7.264086240692172e-15
11
988.1768504260883
21
3.4659258262890673
31
7.263632307470967e-15
 62
256
 0
LINE
 8
Layer0_S_
10
988.1768504260883
20
3.4659258262890673
30
7.263632307470967e-15
11
987.9180313809858
21
3.499999999999999
31
7.263477479302629e-15
 62
256
 0
LINE
 8
Layer0_S_
10
987.9180313809858
20
3.499999999999999
30
7.263477479302629e-15
11
987.6592123358832
21
3.4659258262890673
31
7.263632307470967e-15
 62
256
 0
LINE
 8
Layer0_S_
10
987.6592123358832
20
3.4659258262890673
30
7.263632307470967e-15
11
987.4180313809859
21
3.36602540378444
31
7.264086240692172e-15
 62
256
 0
LINE
 8
Layer0_S_
10
987.4180313809859
20
3.36602540378444
30
7.264086240692172e-15
11
987.2109245997995
21
3.207106781186545
31
7.264808344167378e-15
 62
256
 0
LINE
 8
Layer0_S_
10
987.2109245997995
20
3.207106781186545
30
7.264808344167378e-15
11
987.0520059772015
21
3.0
31
7.265749407738085e-15
 62
256
 0
LINE
 8
Layer0_S_
10
987.0520059772015
20
3.0
30
7.265749407738085e-15
11
986.9521055546969
21
2.758819045102524
31
7.266845299477129e-15
 62
256
 0
LINE
 8
Layer0_S_
10
986.9521055546969
20
2.758819045102524
30
7.266845299477129e-15
11
986.9180313809859
21
2.500000000000001
31
7.26802133617354e-15
 62
256
 0
LINE
 8
Layer0_S_
10
979.9180313809859
20
2.500000000000001
30
7.26802133617354e-15
11
979.9521055546968
21
2.2411809548974784
31
7.269197372869953e-15
 62
256
 0
LINE
 8
Layer0_S_
10
979.9521055546968
20
2.2411809548974784
30
7.269197372869953e-15
11
980.0520059772014
21
2.0000000000000018
31
7.270293264608997e-15
 62
256
 0
LINE
 8
Layer0_S_
10
980.0520059772014
20
2.0000000000000018
30
7.270293264608997e-15
11
980.2109245997993
21
1.7928932188134574
31
7.271234328179704e-15
 62
256
 0
LINE
 8
Layer0_S_
10
980.2109245997993
20
1.7928932188134574
30
7.271234328179704e-15
11
980.4180313809859
21
1.6339745962155618
31
7.271956431654912e-15
 62
256
 0
LINE
 8
Layer0_S_
10
980.4180313809859
20
1.6339745962155618
30
7.271956431654912e-15
11
980.6592123358835
21
1.5340741737109347
31
7.272410364876117e-15
 62
256
 0
LINE
 8
Layer0_S_
10
980.6592123358835
20
1.5340741737109347
30
7.272410364876117e-15
11
980.918031380986
21
1.5000000000000029
31
7.272565193044453e-15
 62
256
 0
LINE
 8
Layer0_S_
10
980.918031380986
20
1.5000000000000029
30
7.272565193044453e-15
11
981.1768504260883
21
1.5340741737109347
31
7.272410364876117e-15
 62
256
 0
LINE
 8
Layer0_S_
10
981.1768504260883
20
1.5340741737109347
30
7.272410364876117e-15
11
981.4180313809859
21
1.6339745962155618
31
7.271956431654912e-15
 62
256
 0
LINE
 8
Layer0_S_
10
981.4180313809859
20
1.6339745962155618
30
7.271956431654912e-15
11
981.6251381621724
21
1.7928932188134574
31
7.271234328179704e-15
 62
256
 0
LINE
 8
Layer0_S_
10
981.6251381621724
20
1.7928932188134574
30
7.271234328179704e-15
11
981.7840567847703
21
2.0000000000000018
31
7.270293264608997e-15
 62
256
 0
LINE
 8
Layer0_S_
10
981.7840567847703
20
2.0000000000000018
30
7.270293264608997e-15
11
981.8839572072749
21
2.2411809548974784
31
7.269197372869953e-15
 62
256
 0
LINE
 8
Layer0_S_
10
981.8839572072749
20
2.2411809548974784
30
7.269197372869953e-15
11
981.9180313809859
21
2.500000000000001
31
7.26802133617354e-15
 62
256
 0
LINE
 8
Layer0_S_
10
981.9180313809859
20
2.500000000000001
30
7.26802133617354e-15
11
981.8839572072749
21
2.758819045102518
31
7.266845299477129e-15
 62
256
 0
LINE
 8
Layer0_S_
10
981.8839572072749
20
2.758819045102518
30
7.266845299477129e-15
11
981.7840567847703
21
3.0
31
7.265749407738085e-15
 62
256
 0
LINE
 8
Layer0_S_
10
981.7840567847703
20
3.0
30
7.265749407738085e-15
11
981.6251381621724
21
3.207106781186545
31
7.264808344167378e-15
 62
256
 0
LINE
 8
Layer0_S_
10
981.6251381621724
20
3.207106781186545
30
7.264808344167378e-15
11
981.4180313809859
21
3.36602540378444
31
7.26408624069217e-15
 62
256
 0
LINE
 8
Layer0_S_
10
981.4180313809859
20
3.36602540378444
30
7.26408624069217e-15
11
981.1768504260883
21
3.4659258262890673
31
7.263632307470967e-15
 62
256
 0
LINE
 8
Layer0_S_
10
981.1768504260883
20
3.4659258262890673
30
7.263632307470967e-15
11
980.918031380986
21
3.499999999999999
31
7.263477479302629e-15
 62
256
 0
LINE
 8
Layer0_S_
10
980.918031380986
20
3.499999999999999
30
7.263477479302629e-15
11
980.6592123358835
21
3.4659258262890673
31
7.263632307470967e-15
 62
256
 0
LINE
 8
Layer0_S_
10
980.6592123358835
20
3.4659258262890673
30
7.263632307470967e-15
11
980.4180313809859
21
3.36602540378444
31
7.26408624069217e-15
 62
256
 0
LINE
 8
Layer0_S_
10
980.4180313809859
20
3.36602540378444
30
7.26408624069217e-15
11
980.2109245997993
21
3.207106781186545
31
7.264808344167378e-15
 62
256
 0
LINE
 8
Layer0_S_
10
980.2109245997993
20
3.207106781186545
30
7.264808344167378e-15
11
980.0520059772014
21
3.0
31
7.265749407738085e-15
 62
256
 0
LINE
 8
Layer0_S_
10
980.0520059772014
20
3.0
30
7.265749407738085e-15
11
979.9521055546968
21
2.758819045102524
31
7.266845299477129e-15
 62
256
 0
LINE
 8
Layer0_S_
10
979.9521055546968
20
2.758819045102524
30
7.266845299477129e-15
11
979.9180313809859
21
2.500000000000001
31
7.26802133617354e-15
 62
256
 0
LINE
 8
Layer0_S_
10
972.9180313809858
20
2.500000000000001
30
7.26802133617354e-15
11
972.9521055546968
21
2.2411809548974784
31
7.269197372869953e-15
 62
256
 0
LINE
 8
Layer0_S_
10
972.9521055546968
20
2.2411809548974784
30
7.269197372869953e-15
11
973.0520059772014
21
2.0000000000000018
31
7.270293264608997e-15
 62
256
 0
LINE
 8
Layer0_S_
10
973.0520059772014
20
2.0000000000000018
30
7.270293264608997e-15
11
973.2109245997993
21
1.7928932188134574
31
7.271234328179704e-15
 62
256
 0
LINE
 8
Layer0_S_
10
973.2109245997993
20
1.7928932188134574
30
7.271234328179704e-15
11
973.4180313809859
21
1.6339745962155618
31
7.271956431654912e-15
 62
256
 0
LINE
 8
Layer0_S_
10
973.4180313809859
20
1.6339745962155618
30
7.271956431654912e-15
11
973.6592123358835
21
1.5340741737109347
31
7.272410364876117e-15
 62
256
 0
LINE
 8
Layer0_S_
10
973.6592123358835
20
1.5340741737109347
30
7.272410364876117e-15
11
973.9180313809859
21
1.5000000000000029
31
7.272565193044453e-15
 62
256
 0
LINE
 8
Layer0_S_
10
973.9180313809859
20
1.5000000000000029
30
7.272565193044453e-15
11
974.1768504260884
21
1.5340741737109347
31
7.272410364876117e-15
 62
256
 0
LINE
 8
Layer0_S_
10
974.1768504260884
20
1.5340741737109347
30
7.272410364876117e-15
11
974.4180313809858
21
1.6339745962155618
31
7.271956431654912e-15
 62
256
 0
LINE
 8
Layer0_S_
10
974.4180313809858
20
1.6339745962155618
30
7.271956431654912e-15
11
974.6251381621723
21
1.7928932188134574
31
7.271234328179704e-15
 62
256
 0
LINE
 8
Layer0_S_
10
974.6251381621723
20
1.7928932188134574
30
7.271234328179704e-15
11
974.7840567847703
21
2.0000000000000018
31
7.270293264608997e-15
 62
256
 0
LINE
 8
Layer0_S_
10
974.7840567847703
20
2.0000000000000018
30
7.270293264608997e-15
11
974.8839572072749
21
2.2411809548974784
31
7.269197372869953e-15
 62
256
 0
LINE
 8
Layer0_S_
10
974.8839572072749
20
2.2411809548974784
30
7.269197372869953e-15
11
974.9180313809859
21
2.500000000000001
31
7.26802133617354e-15
 62
256
 0
LINE
 8
Layer0_S_
10
974.9180313809859
20
2.500000000000001
30
7.26802133617354e-15
11
974.8839572072749
21
2.758819045102518
31
7.266845299477129e-15
 62
256
 0
LINE
 8
Layer0_S_
10
974.8839572072749
20
2.758819045102518
30
7.266845299477129e-15
11
974.7840567847703
21
3.0
31
7.265749407738085e-15
 62
256
 0
LINE
 8
Layer0_S_
10
974.7840567847703
20
3.0
30
7.265749407738085e-15
11
974.6251381621723
21
3.207106781186545
31
7.264808344167378e-15
 62
256
 0
LINE
 8
Layer0_S_
10
974.6251381621723
20
3.207106781186545
30
7.264808344167378e-15
11
974.4180313809858
21
3.36602540378444
31
7.264086240692172e-15
 62
256
 0
LINE
 8
Layer0_S_
10
974.4180313809858
20
3.36602540378444
30
7.264086240692172e-15
11
974.1768504260884
21
3.4659258262890673
31
7.263632307470967e-15
 62
256
 0
LINE
 8
Layer0_S_
10
974.1768504260884
20
3.4659258262890673
30
7.263632307470967e-15
11
973.9180313809859
21
3.499999999999999
31
7.263477479302629e-15
 62
256
 0
LINE
 8
Layer0_S_
10
973.9180313809859
20
3.499999999999999
30
7.263477479302629e-15
11
973.6592123358835
21
3.4659258262890673
31
7.263632307470967e-15
 62
256
 0
LINE
 8
Layer0_S_
10
973.6592123358835
20
3.4659258262890673
30
7.263632307470967e-15
11
973.4180313809859
21
3.36602540378444
31
7.264086240692172e-15
 62
256
 0
LINE
 8
Layer0_S_
10
973.4180313809859
20
3.36602540378444
30
7.264086240692172e-15
11
973.2109245997993
21
3.207106781186545
31
7.264808344167378e-15
 62
256
 0
LINE
 8
Layer0_S_
10
973.2109245997993
20
3.207106781186545
30
7.264808344167378e-15
11
973.0520059772014
21
3.0
31
7.265749407738085e-15
 62
256
 0
LINE
 8
Layer0_S_
10
973.0520059772014
20
3.0
30
7.265749407738085e-15
11
972.9521055546968
21
2.758819045102524
31
7.266845299477129e-15
 62
256
 0
LINE
 8
Layer0_S_
10
972.9521055546968
20
2.758819045102524
30
7.266845299477129e-15
11
972.9180313809858
21
2.500000000000001
31
7.26802133617354e-15
 62
256
 0
LINE
 8
Layer0_S_
10
965.918031380986
20
2.500000000000001
30
7.26802133617354e-15
11
965.9521055546968
21
2.2411809548974784
31
7.269197372869953e-15
 62
256
 0
LINE
 8
Layer0_S_
10
965.9521055546968
20
2.2411809548974784
30
7.269197372869953e-15
11
966.0520059772015
21
2.0000000000000018
31
7.270293264608997e-15
 62
256
 0
LINE
 8
Layer0_S_
10
966.0520059772015
20
2.0000000000000018
30
7.270293264608997e-15
11
966.2109245997993
21
1.7928932188134574
31
7.271234328179704e-15
 62
256
 0
LINE
 8
Layer0_S_
10
966.2109245997993
20
1.7928932188134574
30
7.271234328179704e-15
11
966.4180313809859
21
1.6339745962155618
31
7.271956431654912e-15
 62
256
 0
LINE
 8
Layer0_S_
10
966.4180313809859
20
1.6339745962155618
30
7.271956431654912e-15
11
966.6592123358834
21
1.5340741737109347
31
7.272410364876117e-15
 62
256
 0
LINE
 8
Layer0_S_
10
966.6592123358834
20
1.5340741737109347
30
7.272410364876117e-15
11
966.9180313809859
21
1.5000000000000029
31
7.272565193044453e-15
 62
256
 0
LINE
 8
Layer0_S_
10
966.9180313809859
20
1.5000000000000029
30
7.272565193044453e-15
11
967.1768504260884
21
1.5340741737109347
31
7.272410364876117e-15
 62
256
 0
LINE
 8
Layer0_S_
10
967.1768504260884
20
1.5340741737109347
30
7.272410364876117e-15
11
967.418031380986
21
1.6339745962155618
31
7.271956431654912e-15
 62
256
 0
LINE
 8
Layer0_S_
10
967.418031380986
20
1.6339745962155618
30
7.271956431654912e-15
11
967.6251381621726
21
1.7928932188134574
31
7.271234328179704e-15
 62
256
 0
LINE
 8
Layer0_S_
10
967.6251381621726
20
1.7928932188134574
30
7.271234328179704e-15
11
967.7840567847703
21
2.0000000000000018
31
7.270293264608997e-15
 62
256
 0
LINE
 8
Layer0_S_
10
967.7840567847703
20
2.0000000000000018
30
7.270293264608997e-15
11
967.883957207275
21
2.2411809548974784
31
7.269197372869953e-15
 62
256
 0
LINE
 8
Layer0_S_
10
967.883957207275
20
2.2411809548974784
30
7.269197372869953e-15
11
967.9180313809859
21
2.500000000000001
31
7.26802133617354e-15
 62
256
 0
LINE
 8
Layer0_S_
10
967.9180313809859
20
2.500000000000001
30
7.26802133617354e-15
11
967.883957207275
21
2.758819045102524
31
7.266845299477129e-15
 62
256
 0
LINE
 8
Layer0_S_
10
967.883957207275
20
2.758819045102524
30
7.266845299477129e-15
11
967.7840567847703
21
3.0
31
7.265749407738085e-15
 62
256
 0
LINE
 8
Layer0_S_
10
967.7840567847703
20
3.0
30
7.265749407738085e-15
11
967.6251381621726
21
3.207106781186545
31
7.264808344167378e-15
 62
256
 0
LINE
 8
Layer0_S_
10
967.6251381621726
20
3.207106781186545
30
7.264808344167378e-15
11
967.418031380986
21
3.36602540378444
31
7.264086240692172e-15
 62
256
 0
LINE
 8
Layer0_S_
10
967.418031380986
20
3.36602540378444
30
7.264086240692172e-15
11
967.1768504260884
21
3.4659258262890673
31
7.263632307470967e-15
 62
256
 0
LINE
 8
Layer0_S_
10
967.1768504260884
20
3.4659258262890673
30
7.263632307470967e-15
11
966.9180313809859
21
3.499999999999999
31
7.263477479302629e-15
 62
256
 0
LINE
 8
Layer0_S_
10
966.9180313809859
20
3.499999999999999
30
7.263477479302629e-15
11
966.6592123358834
21
3.4659258262890673
31
7.263632307470967e-15
 62
256
 0
LINE
 8
Layer0_S_
10
966.6592123358834
20
3.4659258262890673
30
7.263632307470967e-15
11
966.4180313809859
21
3.36602540378444
31
7.264086240692172e-15
 62
256
 0
LINE
 8
Layer0_S_
10
966.4180313809859
20
3.36602540378444
30
7.264086240692172e-15
11
966.2109245997993
21
3.207106781186545
31
7.264808344167378e-15
 62
256
 0
LINE
 8
Layer0_S_
10
966.2109245997993
20
3.207106781186545
30
7.264808344167378e-15
11
966.0520059772015
21
3.0
31
7.265749407738085e-15
 62
256
 0
LINE
 8
Layer0_S_
10
966.0520059772015
20
3.0
30
7.265749407738085e-15
11
965.9521055546968
21
2.758819045102524
31
7.266845299477129e-15
 62
256
 0
LINE
 8
Layer0_S_
10
965.9521055546968
20
2.758819045102524
30
7.266845299477129e-15
11
965.918031380986
21
2.500000000000001
31
7.26802133617354e-15
 62
256
 0
LINE
 8
Layer0_S_
10
958.9180313809859
20
2.500000000000001
30
7.26802133617354e-15
11
958.9521055546968
21
2.241180954897484
31
7.269197372869953e-15
 62
256
 0
LINE
 8
Layer0_S_
10
958.9521055546968
20
2.241180954897484
30
7.269197372869953e-15
11
959.0520059772015
21
2.0000000000000018
31
7.270293264608997e-15
 62
256
 0
LINE
 8
Layer0_S_
10
959.0520059772015
20
2.0000000000000018
30
7.270293264608997e-15
11
959.2109245997993
21
1.7928932188134574
31
7.271234328179704e-15
 62
256
 0
LINE
 8
Layer0_S_
10
959.2109245997993
20
1.7928932188134574
30
7.271234328179704e-15
11
959.418031380986
21
1.6339745962155618
31
7.271956431654912e-15
 62
256
 0
LINE
 8
Layer0_S_
10
959.418031380986
20
1.6339745962155618
30
7.271956431654912e-15
11
959.6592123358834
21
1.5340741737109347
31
7.272410364876117e-15
 62
256
 0
LINE
 8
Layer0_S_
10
959.6592123358834
20
1.5340741737109347
30
7.272410364876117e-15
11
959.9180313809859
21
1.5000000000000029
31
7.272565193044453e-15
 62
256
 0
LINE
 8
Layer0_S_
10
959.9180313809859
20
1.5000000000000029
30
7.272565193044453e-15
11
960.1768504260884
21
1.5340741737109347
31
7.272410364876117e-15
 62
256
 0
LINE
 8
Layer0_S_
10
960.1768504260884
20
1.5340741737109347
30
7.272410364876117e-15
11
960.4180313809859
21
1.6339745962155618
31
7.271956431654912e-15
 62
256
 0
LINE
 8
Layer0_S_
10
960.4180313809859
20
1.6339745962155618
30
7.271956431654912e-15
11
960.6251381621724
21
1.7928932188134519
31
7.271234328179704e-15
 62
256
 0
LINE
 8
Layer0_S_
10
960.6251381621724
20
1.7928932188134519
30
7.271234328179704e-15
11
960.7840567847703
21
2.0000000000000018
31
7.270293264608997e-15
 62
256
 0
LINE
 8
Layer0_S_
10
960.7840567847703
20
2.0000000000000018
30
7.270293264608997e-15
11
960.883957207275
21
2.2411809548974784
31
7.269197372869953e-15
 62
256
 0
LINE
 8
Layer0_S_
10
960.883957207275
20
2.2411809548974784
30
7.269197372869953e-15
11
960.9180313809858
21
2.500000000000001
31
7.26802133617354e-15
 62
256
 0
LINE
 8
Layer0_S_
10
960.9180313809858
20
2.500000000000001
30
7.26802133617354e-15
11
960.883957207275
21
2.758819045102518
31
7.266845299477129e-15
 62
256
 0
LINE
 8
Layer0_S_
10
960.883957207275
20
2.758819045102518
30
7.266845299477129e-15
11
960.7840567847703
21
3.0
31
7.265749407738085e-15
 62
256
 0
LINE
 8
Layer0_S_
10
960.7840567847703
20
3.0
30
7.265749407738085e-15
11
960.6251381621724
21
3.207106781186545
31
7.264808344167378e-15
 62
256
 0
LINE
 8
Layer0_S_
10
960.6251381621724
20
3.207106781186545
30
7.264808344167378e-15
11
960.4180313809859
21
3.36602540378444
31
7.26408624069217e-15
 62
256
 0
LINE
 8
Layer0_S_
10
960.4180313809859
20
3.36602540378444
30
7.26408624069217e-15
11
960.1768504260884
21
3.4659258262890673
31
7.263632307470967e-15
 62
256
 0
LINE
 8
Layer0_S_
10
960.1768504260884
20
3.4659258262890673
30
7.263632307470967e-15
11
959.9180313809859
21
3.499999999999999
31
7.263477479302629e-15
 62
256
 0
LINE
 8
Layer0_S_
10
959.9180313809859
20
3.499999999999999
30
7.263477479302629e-15
11
959.6592123358834
21
3.4659258262890673
31
7.263632307470967e-15
 62
256
 0
LINE
 8
Layer0_S_
10
959.6592123358834
20
3.4659258262890673
30
7.263632307470967e-15
11
959.418031380986
21
3.36602540378444
31
7.26408624069217e-15
 62
256
 0
LINE
 8
Layer0_S_
10
959.418031380986
20
3.36602540378444
30
7.26408624069217e-15
11
959.2109245997993
21
3.20710678118655
31
7.264808344167378e-15
 62
256
 0
LINE
 8
Layer0_S_
10
959.2109245997993
20
3.20710678118655
30
7.264808344167378e-15
11
959.0520059772015
21
3.0
31
7.265749407738085e-15
 62
256
 0
LINE
 8
Layer0_S_
10
959.0520059772015
20
3.0
30
7.265749407738085e-15
11
958.9521055546968
21
2.758819045102524
31
7.266845299477129e-15
 62
256
 0
LINE
 8
Layer0_S_
10
958.9521055546968
20
2.758819045102524
30
7.266845299477129e-15
11
958.9180313809859
21
2.500000000000001
31
7.26802133617354e-15
 62
256
 0
LINE
 8
Layer0_S_
10
951.9180313809859
20
2.500000000000001
30
7.26802133617354e-15
11
951.9521055546969
21
2.2411809548974784
31
7.269197372869953e-15
 62
256
 0
LINE
 8
Layer0_S_
10
951.9521055546969
20
2.2411809548974784
30
7.269197372869953e-15
11
952.0520059772015
21
2.0000000000000018
31
7.270293264608997e-15
 62
256
 0
LINE
 8
Layer0_S_
10
952.0520059772015
20
2.0000000000000018
30
7.270293264608997e-15
11
952.2109245997995
21
1.7928932188134574
31
7.271234328179704e-15
 62
256
 0
LINE
 8
Layer0_S_
10
952.2109245997995
20
1.7928932188134574
30
7.271234328179704e-15
11
952.418031380986
21
1.6339745962155618
31
7.271956431654912e-15
 62
256
 0
LINE
 8
Layer0_S_
10
952.418031380986
20
1.6339745962155618
30
7.271956431654912e-15
11
952.6592123358834
21
1.5340741737109347
31
7.272410364876117e-15
 62
256
 0
LINE
 8
Layer0_S_
10
952.6592123358834
20
1.5340741737109347
30
7.272410364876117e-15
11
952.9180313809859
21
1.5000000000000029
31
7.272565193044453e-15
 62
256
 0
LINE
 8
Layer0_S_
10
952.9180313809859
20
1.5000000000000029
30
7.272565193044453e-15
11
953.1768504260884
21
1.5340741737109347
31
7.272410364876117e-15
 62
256
 0
LINE
 8
Layer0_S_
10
953.1768504260884
20
1.5340741737109347
30
7.272410364876117e-15
11
953.4180313809859
21
1.6339745962155618
31
7.271956431654912e-15
 62
256
 0
LINE
 8
Layer0_S_
10
953.4180313809859
20
1.6339745962155618
30
7.271956431654912e-15
11
953.6251381621724
21
1.7928932188134574
31
7.271234328179704e-15
 62
256
 0
LINE
 8
Layer0_S_
10
953.6251381621724
20
1.7928932188134574
30
7.271234328179704e-15
11
953.7840567847704
21
2.0000000000000018
31
7.270293264608997e-15
 62
256
 0
LINE
 8
Layer0_S_
10
953.7840567847704
20
2.0000000000000018
30
7.270293264608997e-15
11
953.883957207275
21
2.2411809548974784
31
7.269197372869953e-15
 62
256
 0
LINE
 8
Layer0_S_
10
953.883957207275
20
2.2411809548974784
30
7.269197372869953e-15
11
953.918031380986
21
2.500000000000001
31
7.26802133617354e-15
 62
256
 0
LINE
 8
Layer0_S_
10
953.918031380986
20
2.500000000000001
30
7.26802133617354e-15
11
953.883957207275
21
2.758819045102524
31
7.266845299477129e-15
 62
256
 0
LINE
 8
Layer0_S_
10
953.883957207275
20
2.758819045102524
30
7.266845299477129e-15
11
953.7840567847704
21
3.0
31
7.265749407738085e-15
 62
256
 0
LINE
 8
Layer0_S_
10
953.7840567847704
20
3.0
30
7.265749407738085e-15
11
953.6251381621724
21
3.207106781186545
31
7.264808344167378e-15
 62
256
 0
LINE
 8
Layer0_S_
10
953.6251381621724
20
3.207106781186545
30
7.264808344167378e-15
11
953.4180313809859
21
3.36602540378444
31
7.26408624069217e-15
 62
256
 0
LINE
 8
Layer0_S_
10
953.4180313809859
20
3.36602540378444
30
7.26408624069217e-15
11
953.1768504260884
21
3.4659258262890673
31
7.263632307470967e-15
 62
256
 0
LINE
 8
Layer0_S_
10
953.1768504260884
20
3.4659258262890673
30
7.263632307470967e-15
11
952.9180313809859
21
3.499999999999999
31
7.263477479302629e-15
 62
256
 0
LINE
 8
Layer0_S_
10
952.9180313809859
20
3.499999999999999
30
7.263477479302629e-15
11
952.6592123358834
21
3.4659258262890673
31
7.263632307470967e-15
 62
256
 0
LINE
 8
Layer0_S_
10
952.6592123358834
20
3.4659258262890673
30
7.263632307470967e-15
11
952.418031380986
21
3.36602540378444
31
7.26408624069217e-15
 62
256
 0
LINE
 8
Layer0_S_
10
952.418031380986
20
3.36602540378444
30
7.26408624069217e-15
11
952.2109245997995
21
3.207106781186545
31
7.264808344167378e-15
 62
256
 0
LINE
 8
Layer0_S_
10
952.2109245997995
20
3.207106781186545
30
7.264808344167378e-15
11
952.0520059772015
21
3.0
31
7.265749407738085e-15
 62
256
 0
LINE
 8
Layer0_S_
10
952.0520059772015
20
3.0
30
7.265749407738085e-15
11
951.9521055546969
21
2.758819045102524
31
7.266845299477129e-15
 62
256
 0
LINE
 8
Layer0_S_
10
951.9521055546969
20
2.758819045102524
30
7.266845299477129e-15
11
951.9180313809859
21
2.500000000000001
31
7.26802133617354e-15
 62
256
 0
LINE
 8
Layer0_S_
10
944.9180313809859
20
2.500000000000001
30
7.26802133617354e-15
11
944.9521055546969
21
2.2411809548974784
31
7.269197372869953e-15
 62
256
 0
LINE
 8
Layer0_S_
10
944.9521055546969
20
2.2411809548974784
30
7.269197372869953e-15
11
945.0520059772015
21
2.0000000000000018
31
7.270293264608997e-15
 62
256
 0
LINE
 8
Layer0_S_
10
945.0520059772015
20
2.0000000000000018
30
7.270293264608997e-15
11
945.2109245997995
21
1.7928932188134574
31
7.271234328179704e-15
 62
256
 0
LINE
 8
Layer0_S_
10
945.2109245997995
20
1.7928932188134574
30
7.271234328179704e-15
11
945.4180313809859
21
1.6339745962155618
31
7.271956431654912e-15
 62
256
 0
LINE
 8
Layer0_S_
10
945.4180313809859
20
1.6339745962155618
30
7.271956431654912e-15
11
945.6592123358835
21
1.5340741737109347
31
7.272410364876117e-15
 62
256
 0
LINE
 8
Layer0_S_
10
945.6592123358835
20
1.5340741737109347
30
7.272410364876117e-15
11
945.9180313809858
21
1.5000000000000029
31
7.272565193044453e-15
 62
256
 0
LINE
 8
Layer0_S_
10
945.9180313809858
20
1.5000000000000029
30
7.272565193044453e-15
11
946.1768504260883
21
1.5340741737109347
31
7.272410364876117e-15
 62
256
 0
LINE
 8
Layer0_S_
10
946.1768504260883
20
1.5340741737109347
30
7.272410364876117e-15
11
946.4180313809859
21
1.6339745962155618
31
7.271956431654912e-15
 62
256
 0
LINE
 8
Layer0_S_
10
946.4180313809859
20
1.6339745962155618
30
7.271956431654912e-15
11
946.6251381621724
21
1.7928932188134574
31
7.271234328179704e-15
 62
256
 0
LINE
 8
Layer0_S_
10
946.6251381621724
20
1.7928932188134574
30
7.271234328179704e-15
11
946.7840567847704
21
2.0000000000000018
31
7.270293264608997e-15
 62
256
 0
LINE
 8
Layer0_S_
10
946.7840567847704
20
2.0000000000000018
30
7.270293264608997e-15
11
946.883957207275
21
2.2411809548974784
31
7.269197372869953e-15
 62
256
 0
LINE
 8
Layer0_S_
10
946.883957207275
20
2.2411809548974784
30
7.269197372869953e-15
11
946.9180313809859
21
2.500000000000001
31
7.26802133617354e-15
 62
256
 0
LINE
 8
Layer0_S_
10
946.9180313809859
20
2.500000000000001
30
7.26802133617354e-15
11
946.883957207275
21
2.758819045102518
31
7.266845299477129e-15
 62
256
 0
LINE
 8
Layer0_S_
10
946.883957207275
20
2.758819045102518
30
7.266845299477129e-15
11
946.7840567847704
21
3.0
31
7.265749407738085e-15
 62
256
 0
LINE
 8
Layer0_S_
10
946.7840567847704
20
3.0
30
7.265749407738085e-15
11
946.6251381621724
21
3.207106781186545
31
7.264808344167378e-15
 62
256
 0
LINE
 8
Layer0_S_
10
946.6251381621724
20
3.207106781186545
30
7.264808344167378e-15
11
946.4180313809859
21
3.36602540378444
31
7.26408624069217e-15
 62
256
 0
LINE
 8
Layer0_S_
10
946.4180313809859
20
3.36602540378444
30
7.26408624069217e-15
11
946.1768504260883
21
3.4659258262890673
31
7.263632307470967e-15
 62
256
 0
LINE
 8
Layer0_S_
10
946.1768504260883
20
3.4659258262890673
30
7.263632307470967e-15
11
945.9180313809858
21
3.499999999999999
31
7.263477479302629e-15
 62
256
 0
LINE
 8
Layer0_S_
10
945.9180313809858
20
3.499999999999999
30
7.263477479302629e-15
11
945.6592123358835
21
3.4659258262890673
31
7.263632307470967e-15
 62
256
 0
LINE
 8
Layer0_S_
10
945.6592123358835
20
3.4659258262890673
30
7.263632307470967e-15
11
945.4180313809859
21
3.36602540378444
31
7.26408624069217e-15
 62
256
 0
LINE
 8
Layer0_S_
10
945.4180313809859
20
3.36602540378444
30
7.26408624069217e-15
11
945.2109245997995
21
3.207106781186545
31
7.264808344167378e-15
 62
256
 0
LINE
 8
Layer0_S_
10
945.2109245997995
20
3.207106781186545
30
7.264808344167378e-15
11
945.0520059772015
21
3.0
31
7.265749407738085e-15
 62
256
 0
LINE
 8
Layer0_S_
10
945.0520059772015
20
3.0
30
7.265749407738085e-15
11
944.9521055546969
21
2.758819045102524
31
7.266845299477129e-15
 62
256
 0
LINE
 8
Layer0_S_
10
944.9521055546969
20
2.758819045102524
30
7.266845299477129e-15
11
944.9180313809859
21
2.500000000000001
31
7.26802133617354e-15
 62
256
 0
LINE
 8
Layer0_S_
10
937.9180313809858
20
2.500000000000001
30
7.26802133617354e-15
11
937.9521055546968
21
2.2411809548974784
31
7.269197372869953e-15
 62
256
 0
LINE
 8
Layer0_S_
10
937.9521055546968
20
2.2411809548974784
30
7.269197372869953e-15
11
938.0520059772014
21
2.0000000000000018
31
7.270293264608997e-15
 62
256
 0
LINE
 8
Layer0_S_
10
938.0520059772014
20
2.0000000000000018
30
7.270293264608997e-15
11
938.2109245997993
21
1.7928932188134574
31
7.271234328179704e-15
 62
256
 0
LINE
 8
Layer0_S_
10
938.2109245997993
20
1.7928932188134574
30
7.271234328179704e-15
11
938.4180313809859
21
1.6339745962155618
31
7.271956431654912e-15
 62
256
 0
LINE
 8
Layer0_S_
10
938.4180313809859
20
1.6339745962155618
30
7.271956431654912e-15
11
938.6592123358835
21
1.5340741737109347
31
7.272410364876117e-15
 62
256
 0
LINE
 8
Layer0_S_
10
938.6592123358835
20
1.5340741737109347
30
7.272410364876117e-15
11
938.918031380986
21
1.5000000000000029
31
7.272565193044453e-15
 62
256
 0
LINE
 8
Layer0_S_
10
938.918031380986
20
1.5000000000000029
30
7.272565193044453e-15
11
939.1768504260885
21
1.5340741737109347
31
7.272410364876117e-15
 62
256
 0
LINE
 8
Layer0_S_
10
939.1768504260885
20
1.5340741737109347
30
7.272410364876117e-15
11
939.4180313809859
21
1.6339745962155618
31
7.271956431654912e-15
 62
256
 0
LINE
 8
Layer0_S_
10
939.4180313809859
20
1.6339745962155618
30
7.271956431654912e-15
11
939.6251381621723
21
1.7928932188134574
31
7.271234328179704e-15
 62
256
 0
LINE
 8
Layer0_S_
10
939.6251381621723
20
1.7928932188134574
30
7.271234328179704e-15
11
939.7840567847703
21
2.0000000000000018
31
7.270293264608997e-15
 62
256
 0
LINE
 8
Layer0_S_
10
939.7840567847703
20
2.0000000000000018
30
7.270293264608997e-15
11
939.8839572072749
21
2.2411809548974784
31
7.269197372869953e-15
 62
256
 0
LINE
 8
Layer0_S_
10
939.8839572072749
20
2.2411809548974784
30
7.269197372869953e-15
11
939.9180313809859
21
2.500000000000001
31
7.26802133617354e-15
 62
256
 0
LINE
 8
Layer0_S_
10
939.9180313809859
20
2.500000000000001
30
7.26802133617354e-15
11
939.8839572072749
21
2.758819045102524
31
7.266845299477129e-15
 62
256
 0
LINE
 8
Layer0_S_
10
939.8839572072749
20
2.758819045102524
30
7.266845299477129e-15
11
939.7840567847703
21
3.0
31
7.265749407738085e-15
 62
256
 0
LINE
 8
Layer0_S_
10
939.7840567847703
20
3.0
30
7.265749407738085e-15
11
939.6251381621723
21
3.207106781186545
31
7.264808344167378e-15
 62
256
 0
LINE
 8
Layer0_S_
10
939.6251381621723
20
3.207106781186545
30
7.264808344167378e-15
11
939.4180313809859
21
3.36602540378444
31
7.26408624069217e-15
 62
256
 0
LINE
 8
Layer0_S_
10
939.4180313809859
20
3.36602540378444
30
7.26408624069217e-15
11
939.1768504260885
21
3.4659258262890673
31
7.263632307470967e-15
 62
256
 0
LINE
 8
Layer0_S_
10
939.1768504260885
20
3.4659258262890673
30
7.263632307470967e-15
11
938.918031380986
21
3.499999999999999
31
7.263477479302629e-15
 62
256
 0
LINE
 8
Layer0_S_
10
938.918031380986
20
3.499999999999999
30
7.263477479302629e-15
11
938.6592123358835
21
3.4659258262890673
31
7.263632307470967e-15
 62
256
 0
LINE
 8
Layer0_S_
10
938.6592123358835
20
3.4659258262890673
30
7.263632307470967e-15
11
938.4180313809859
21
3.36602540378444
31
7.26408624069217e-15
 62
256
 0
LINE
 8
Layer0_S_
10
938.4180313809859
20
3.36602540378444
30
7.26408624069217e-15
11
938.2109245997993
21
3.207106781186545
31
7.264808344167378e-15
 62
256
 0
LINE
 8
Layer0_S_
10
938.2109245997993
20
3.207106781186545
30
7.264808344167378e-15
11
938.0520059772014
21
3.0
31
7.265749407738085e-15
 62
256
 0
LINE
 8
Layer0_S_
10
938.0520059772014
20
3.0
30
7.265749407738085e-15
11
937.9521055546968
21
2.758819045102524
31
7.266845299477129e-15
 62
256
 0
LINE
 8
Layer0_S_
10
937.9521055546968
20
2.758819045102524
30
7.266845299477129e-15
11
937.9180313809858
21
2.500000000000001
31
7.26802133617354e-15
 62
256
 0
LINE
 8
Layer0_S_
10
930.918031380986
20
2.500000000000001
30
7.26802133617354e-15
11
930.9521055546968
21
2.2411809548974784
31
7.269197372869953e-15
 62
256
 0
LINE
 8
Layer0_S_
10
930.9521055546968
20
2.2411809548974784
30
7.269197372869953e-15
11
931.0520059772016
21
2.0000000000000018
31
7.270293264608997e-15
 62
256
 0
LINE
 8
Layer0_S_
10
931.0520059772016
20
2.0000000000000018
30
7.270293264608997e-15
11
931.2109245997993
21
1.7928932188134574
31
7.271234328179704e-15
 62
256
 0
LINE
 8
Layer0_S_
10
931.2109245997993
20
1.7928932188134574
30
7.271234328179704e-15
11
931.4180313809859
21
1.6339745962155618
31
7.271956431654912e-15
 62
256
 0
LINE
 8
Layer0_S_
10
931.4180313809859
20
1.6339745962155618
30
7.271956431654912e-15
11
931.6592123358834
21
1.5340741737109347
31
7.272410364876117e-15
 62
256
 0
LINE
 8
Layer0_S_
10
931.6592123358834
20
1.5340741737109347
30
7.272410364876117e-15
11
931.9180313809859
21
1.5000000000000029
31
7.272565193044453e-15
 62
256
 0
LINE
 8
Layer0_S_
10
931.9180313809859
20
1.5000000000000029
30
7.272565193044453e-15
11
932.1768504260884
21
1.5340741737109347
31
7.272410364876117e-15
 62
256
 0
LINE
 8
Layer0_S_
10
932.1768504260884
20
1.5340741737109347
30
7.272410364876117e-15
11
932.4180313809858
21
1.6339745962155618
31
7.271956431654912e-15
 62
256
 0
LINE
 8
Layer0_S_
10
932.4180313809858
20
1.6339745962155618
30
7.271956431654912e-15
11
932.6251381621726
21
1.7928932188134574
31
7.271234328179704e-15
 62
256
 0
LINE
 8
Layer0_S_
10
932.6251381621726
20
1.7928932188134574
30
7.271234328179704e-15
11
932.7840567847703
21
2.0000000000000018
31
7.270293264608997e-15
 62
256
 0
LINE
 8
Layer0_S_
10
932.7840567847703
20
2.0000000000000018
30
7.270293264608997e-15
11
932.8839572072749
21
2.2411809548974784
31
7.269197372869953e-15
 62
256
 0
LINE
 8
Layer0_S_
10
932.8839572072749
20
2.2411809548974784
30
7.269197372869953e-15
11
932.9180313809859
21
2.500000000000001
31
7.26802133617354e-15
 62
256
 0
LINE
 8
Layer0_S_
10
932.9180313809859
20
2.500000000000001
30
7.26802133617354e-15
11
932.8839572072749
21
2.758819045102518
31
7.266845299477129e-15
 62
256
 0
LINE
 8
Layer0_S_
10
932.8839572072749
20
2.758819045102518
30
7.266845299477129e-15
11
932.7840567847703
21
3.0
31
7.265749407738085e-15
 62
256
 0
LINE
 8
Layer0_S_
10
932.7840567847703
20
3.0
30
7.265749407738085e-15
11
932.6251381621726
21
3.207106781186545
31
7.264808344167378e-15
 62
256
 0
LINE
 8
Layer0_S_
10
932.6251381621726
20
3.207106781186545
30
7.264808344167378e-15
11
932.4180313809858
21
3.36602540378444
31
7.26408624069217e-15
 62
256
 0
LINE
 8
Layer0_S_
10
932.4180313809858
20
3.36602540378444
30
7.26408624069217e-15
11
932.1768504260884
21
3.4659258262890673
31
7.263632307470967e-15
 62
256
 0
LINE
 8
Layer0_S_
10
932.1768504260884
20
3.4659258262890673
30
7.263632307470967e-15
11
931.9180313809859
21
3.499999999999999
31
7.263477479302629e-15
 62
256
 0
LINE
 8
Layer0_S_
10
931.9180313809859
20
3.499999999999999
30
7.263477479302629e-15
11
931.6592123358834
21
3.4659258262890673
31
7.263632307470967e-15
 62
256
 0
LINE
 8
Layer0_S_
10
931.6592123358834
20
3.4659258262890673
30
7.263632307470967e-15
11
931.4180313809859
21
3.36602540378444
31
7.26408624069217e-15
 62
256
 0
LINE
 8
Layer0_S_
10
931.4180313809859
20
3.36602540378444
30
7.26408624069217e-15
11
931.2109245997993
21
3.207106781186545
31
7.264808344167378e-15
 62
256
 0
LINE
 8
Layer0_S_
10
931.2109245997993
20
3.207106781186545
30
7.264808344167378e-15
11
931.0520059772016
21
3.0
31
7.265749407738085e-15
 62
256
 0
LINE
 8
Layer0_S_
10
931.0520059772016
20
3.0
30
7.265749407738085e-15
11
930.9521055546968
21
2.758819045102524
31
7.266845299477129e-15
 62
256
 0
LINE
 8
Layer0_S_
10
930.9521055546968
20
2.758819045102524
30
7.266845299477129e-15
11
930.918031380986
21
2.500000000000001
31
7.26802133617354e-15
 62
256
 0
LINE
 8
Layer0_S_
10
864.4180313809859
20
12.0
30
7.224854695899872e-15
11
864.5202539021187
21
12.77645713530756
31
7.221326585810637e-15
 62
256
 0
LINE
 8
Layer0_S_
10
864.5202539021187
20
12.77645713530756
30
7.221326585810637e-15
11
864.8199551696326
21
13.499999999999995
31
7.218038910593504e-15
 62
256
 0
LINE
 8
Layer0_S_
10
864.8199551696326
20
13.499999999999995
30
7.218038910593504e-15
11
865.2967110374263
21
14.121320343559637
31
7.215215719881383e-15
 62
256
 0
LINE
 8
Layer0_S_
10
865.2967110374263
20
14.121320343559637
30
7.215215719881383e-15
11
865.918031380986
21
14.598076211353309
31
7.213049409455762e-15
 62
256
 0
LINE
 8
Layer0_S_
10
865.918031380986
20
14.598076211353309
30
7.213049409455762e-15
11
866.6415742456784
21
14.897777478867196
31
7.211687609792147e-15
 62
256
 0
LINE
 8
Layer0_S_
10
866.6415742456784
20
14.897777478867196
30
7.211687609792147e-15
11
867.418031380986
21
14.999999999999993
31
7.211223125287136e-15
 62
256
 0
LINE
 8
Layer0_S_
10
867.418031380986
20
14.999999999999993
30
7.211223125287136e-15
11
868.1944885162934
21
14.897777478867196
31
7.211687609792147e-15
 62
256
 0
LINE
 8
Layer0_S_
10
868.1944885162934
20
14.897777478867196
30
7.211687609792147e-15
11
868.918031380986
21
14.598076211353309
31
7.213049409455762e-15
 62
256
 0
LINE
 8
Layer0_S_
10
868.918031380986
20
14.598076211353309
30
7.213049409455762e-15
11
869.5393517245456
21
14.121320343559637
31
7.215215719881383e-15
 62
256
 0
LINE
 8
Layer0_S_
10
869.5393517245456
20
14.121320343559637
30
7.215215719881383e-15
11
870.0161075923392
21
13.499999999999998
31
7.218038910593504e-15
 62
256
 0
LINE
 8
Layer0_S_
10
870.0161075923392
20
13.499999999999998
30
7.218038910593504e-15
11
870.3158088598532
21
12.77645713530756
31
7.221326585810637e-15
 62
256
 0
LINE
 8
Layer0_S_
10
870.3158088598532
20
12.77645713530756
30
7.221326585810637e-15
11
870.4180313809859
21
12.0
31
7.224854695899872e-15
 62
256
 0
LINE
 8
Layer0_S_
10
870.4180313809859
20
12.0
30
7.224854695899872e-15
11
870.3158088598532
21
11.22354286469244
31
7.22838280598911e-15
 62
256
 0
LINE
 8
Layer0_S_
10
870.3158088598532
20
11.22354286469244
30
7.22838280598911e-15
11
870.0161075923392
21
10.500000000000005
31
7.231670481206243e-15
 62
256
 0
LINE
 8
Layer0_S_
10
870.0161075923392
20
10.500000000000005
30
7.231670481206243e-15
11
869.5393517245456
21
9.878679656440363
31
7.234493671918363e-15
 62
256
 0
LINE
 8
Layer0_S_
10
869.5393517245456
20
9.878679656440363
30
7.234493671918363e-15
11
868.918031380986
21
9.401923788646691
31
7.236659982343985e-15
 62
256
 0
LINE
 8
Layer0_S_
10
868.918031380986
20
9.401923788646691
30
7.236659982343985e-15
11
868.1944885162934
21
9.102222521132804
31
7.2380217820076e-15
 62
256
 0
LINE
 8
Layer0_S_
10
868.1944885162934
20
9.102222521132804
30
7.2380217820076e-15
11
867.418031380986
21
9.000000000000009
31
7.23848626651261e-15
 62
256
 0
LINE
 8
Layer0_S_
10
867.418031380986
20
9.000000000000009
30
7.23848626651261e-15
11
866.6415742456784
21
9.102222521132804
31
7.2380217820076e-15
 62
256
 0
LINE
 8
Layer0_S_
10
866.6415742456784
20
9.102222521132804
30
7.2380217820076e-15
11
865.918031380986
21
9.401923788646691
31
7.236659982343985e-15
 62
256
 0
LINE
 8
Layer0_S_
10
865.918031380986
20
9.401923788646691
30
7.236659982343985e-15
11
865.2967110374263
21
9.878679656440363
31
7.234493671918363e-15
 62
256
 0
LINE
 8
Layer0_S_
10
865.2967110374263
20
9.878679656440363
30
7.234493671918363e-15
11
864.8199551696326
21
10.500000000000004
31
7.231670481206243e-15
 62
256
 0
LINE
 8
Layer0_S_
10
864.8199551696326
20
10.500000000000004
30
7.231670481206243e-15
11
864.5202539021187
21
11.223542864692439
31
7.22838280598911e-15
 62
256
 0
LINE
 8
Layer0_S_
10
864.5202539021187
20
11.223542864692439
30
7.22838280598911e-15
11
864.4180313809859
21
12.0
31
7.224854695899872e-15
 62
256
 0
LINE
 8
Layer0_S_
10
1025.418031380986
20
12.0
30
7.224854695899872e-15
11
1025.5202539021186
21
12.776457135307563
31
7.221326585810637e-15
 62
256
 0
LINE
 8
Layer0_S_
10
1025.5202539021186
20
12.776457135307563
30
7.221326585810637e-15
11
1025.8199551696327
21
13.499999999999998
31
7.218038910593504e-15
 62
256
 0
LINE
 8
Layer0_S_
10
1025.8199551696327
20
13.499999999999998
30
7.218038910593504e-15
11
1026.2967110374261
21
14.12132034355964
31
7.215215719881383e-15
 62
256
 0
LINE
 8
Layer0_S_
10
1026.2967110374261
20
14.12132034355964
30
7.215215719881383e-15
11
1026.918031380986
21
14.598076211353316
31
7.213049409455762e-15
 62
256
 0
LINE
 8
Layer0_S_
10
1026.918031380986
20
14.598076211353316
30
7.213049409455762e-15
11
1027.6415742456784
21
14.897777478867203
31
7.211687609792147e-15
 62
256
 0
LINE
 8
Layer0_S_
10
1027.6415742456784
20
14.897777478867203
30
7.211687609792147e-15
11
1028.418031380986
21
14.999999999999998
31
7.211223125287136e-15
 62
256
 0
LINE
 8
Layer0_S_
10
1028.418031380986
20
14.999999999999998
30
7.211223125287136e-15
11
1029.1944885162934
21
14.897777478867203
31
7.211687609792147e-15
 62
256
 0
LINE
 8
Layer0_S_
10
1029.1944885162934
20
14.897777478867203
30
7.211687609792147e-15
11
1029.918031380986
21
14.598076211353316
31
7.213049409455762e-15
 62
256
 0
LINE
 8
Layer0_S_
10
1029.918031380986
20
14.598076211353316
30
7.213049409455762e-15
11
1030.5393517245457
21
14.121320343559642
31
7.215215719881383e-15
 62
256
 0
LINE
 8
Layer0_S_
10
1030.5393517245457
20
14.121320343559642
30
7.215215719881383e-15
11
1031.0161075923393
21
13.5
31
7.218038910593504e-15
 62
256
 0
LINE
 8
Layer0_S_
10
1031.0161075923393
20
13.5
30
7.218038910593504e-15
11
1031.315808859853
21
12.776457135307563
31
7.221326585810637e-15
 62
256
 0
LINE
 8
Layer0_S_
10
1031.315808859853
20
12.776457135307563
30
7.221326585810637e-15
11
1031.418031380986
21
12.0
31
7.224854695899872e-15
 62
256
 0
LINE
 8
Layer0_S_
10
1031.418031380986
20
12.0
30
7.224854695899872e-15
11
1031.315808859853
21
11.22354286469244
31
7.22838280598911e-15
 62
256
 0
LINE
 8
Layer0_S_
10
1031.315808859853
20
11.22354286469244
30
7.22838280598911e-15
11
1031.0161075923393
21
10.500000000000004
31
7.231670481206243e-15
 62
256
 0
LINE
 8
Layer0_S_
10
1031.0161075923393
20
10.500000000000004
30
7.231670481206243e-15
11
1030.5393517245457
21
9.878679656440362
31
7.234493671918363e-15
 62
256
 0
LINE
 8
Layer0_S_
10
1030.5393517245457
20
9.878679656440362
30
7.234493671918363e-15
11
1029.918031380986
21
9.40192378864669
31
7.236659982343985e-15
 62
256
 0
LINE
 8
Layer0_S_
10
1029.918031380986
20
9.40192378864669
30
7.236659982343985e-15
11
1029.1944885162934
21
9.102222521132799
31
7.2380217820076e-15
 62
256
 0
LINE
 8
Layer0_S_
10
1029.1944885162934
20
9.102222521132799
30
7.2380217820076e-15
11
1028.418031380986
21
9.000000000000004
31
7.23848626651261e-15
 62
256
 0
LINE
 8
Layer0_S_
10
1028.418031380986
20
9.000000000000004
30
7.23848626651261e-15
11
1027.6415742456784
21
9.102222521132799
31
7.2380217820076e-15
 62
256
 0
LINE
 8
Layer0_S_
10
1027.6415742456784
20
9.102222521132799
30
7.2380217820076e-15
11
1026.918031380986
21
9.401923788646686
31
7.236659982343985e-15
 62
256
 0
LINE
 8
Layer0_S_
10
1026.918031380986
20
9.401923788646686
30
7.236659982343985e-15
11
1026.2967110374261
21
9.878679656440358
31
7.234493671918363e-15
 62
256
 0
LINE
 8
Layer0_S_
10
1026.2967110374261
20
9.878679656440358
30
7.234493671918363e-15
11
1025.8199551696327
21
10.5
31
7.231670481206243e-15
 62
256
 0
LINE
 8
Layer0_S_
10
1025.8199551696327
20
10.5
30
7.231670481206243e-15
11
1025.5202539021186
21
11.223542864692439
31
7.22838280598911e-15
 62
256
 0
LINE
 8
Layer0_S_
10
1025.5202539021186
20
11.223542864692439
30
7.22838280598911e-15
11
1025.418031380986
21
12.0
31
7.224854695899872e-15
 62
256
 0
ENDSEC
 0
EOF
