 0
SECTION
 2
HEADER
 9
$ACADVER
 1
AC1006
 9
$LTSCALE
 40
1000.0
 0
ENDSEC
 0
SECTION
 2
TABLES
 0
TABLE
 2
LTYPE
 70
1
 0
LTYPE
 2
SKEMA_SOLID
 70
64
 3
Sketchup - Skema Ltype
 72
65
 73
0
 40
0.000000
 0
LTYPE
 2
SKEMA_DASHED
 70
64
 3
Sketchup - Skema Ltype
 72
65
 73
2
 40
0.1
 49
0.05
 49
-0.05
 0
LTYPE
 2
SKEMA_DOTTED
 70
64
 3
Sketchup - Skema Ltype
 72
65
 73
2
 40
00.1
 49
0.0
 49
-00.1
 0
ENDTAB
 0
TABLE
 2
LAYER
 70
6
 0
LAYER
 2
Layer0_S_
 70
64
 62
20
 6
SKEMA_SOLID
 0
ENDTAB
 0
TABLE
 2
STYLE
 70
0
 0
ENDTAB
 0
ENDSEC
 0
SECTION
 2
BLOCKS
 0
ENDSEC
 0
SECTION
 2
ENTITIES
 0
LINE
 8
Layer0_S_
10
1307.5573751746479
20
82.99999999999991
30
1.5653958587979452e-31
11
1307.5573751746479
21
24.0
31
7.826979293989726e-32
 62
256
 0
LINE
 8
Layer0_S_
10
1301.557375174648
20
88.99999999999991
30
2.3480937881969176e-31
11
1325.557375174648
21
88.99999999999991
31
2.3480937881969176e-31
 62
256
 0
LINE
 8
Layer0_S_
10
1325.557375174648
20
12.0
30
7.826979293989726e-32
11
1325.557375174648
21
88.99999999999991
31
2.3480937881969176e-31
 62
256
 0
LINE
 8
Layer0_S_
10
1152.557375174648
20
0.0
30
7.826979293989726e-32
11
1313.557375174648
21
0.0
31
7.826979293989726e-32
 62
256
 0
LINE
 8
Layer0_S_
10
1140.557375174648
20
127.99999999999993
30
2.3480937881969176e-31
11
1140.557375174648
21
12.0
31
7.826979293989726e-32
 62
256
 0
LINE
 8
Layer0_S_
10
1150.5573751746479
20
139.81107288852084
30
2.3480937881969176e-31
11
1150.5426646319552
21
133.6516317492527
31
2.3480937881969176e-31
 62
256
 0
LINE
 8
Layer0_S_
10
1154.557375174648
20
139.99999999999991
30
2.3480937881969176e-31
11
1154.5720857173408
21
133.6516317492527
31
2.3480937881969176e-31
 62
256
 0
LINE
 8
Layer0_S_
10
1311.5573751746479
20
139.99999999999991
30
2.3480937881969176e-31
11
1154.557375174648
21
139.99999999999991
31
2.3480937881969176e-31
 62
256
 0
LINE
 8
Layer0_S_
10
1311.5573751746479
20
139.99999999999991
30
2.3480937881969176e-31
11
1311.5426646319552
21
133.65163174925272
31
2.3480937881969176e-31
 62
256
 0
LINE
 8
Layer0_S_
10
1315.5573751746479
20
139.81107288852084
30
2.3480937881969176e-31
11
1315.5720857173408
21
133.65163174925272
31
2.3480937881969176e-31
 62
256
 0
LINE
 8
Layer0_S_
10
1325.557375174648
20
109.00000000000014
30
2.3480937881969176e-31
11
1325.557375174648
21
127.99999999999993
31
2.3480937881969176e-31
 62
256
 0
LINE
 8
Layer0_S_
10
1301.557375174648
20
109.00000000000011
30
2.3480937881969176e-31
11
1325.557375174648
21
109.00000000000014
31
2.3480937881969176e-31
 62
256
 0
LINE
 8
Layer0_S_
10
1307.5573751746479
20
115.99999999999993
30
2.3480937881969176e-31
11
1307.5573751746479
21
115.00000000000013
31
2.3480937881969176e-31
 62
256
 0
LINE
 8
Layer0_S_
10
1301.557375174648
20
121.99999999999991
30
2.3480937881969176e-31
11
1164.5573751746479
21
121.99999999999993
31
2.3480937881969176e-31
 62
256
 0
LINE
 8
Layer0_S_
10
1158.5573751746479
20
115.99999999999993
30
2.3480937881969176e-31
11
1158.5573751746479
21
50.5
31
1.5653958587979452e-31
 62
256
 0
LINE
 8
Layer0_S_
10
1158.5573751746479
20
50.5
30
1.5653958587979452e-31
11
1256.557375174648
21
50.5
31
1.5653958587979452e-31
 62
256
 0
LINE
 8
Layer0_S_
10
1256.557375174648
20
50.5
30
1.5653958587979452e-31
11
1256.557375174648
21
24.0
31
7.826979293989726e-32
 62
256
 0
LINE
 8
Layer0_S_
10
1301.557375174648
20
18.0
30
7.826979293989726e-32
11
1262.557375174648
21
17.999999999999996
31
7.826979293989726e-32
 62
256
 0
LINE
 8
Layer0_S_
10
1301.557375174648
20
88.99999999999991
30
2.3480937881969176e-31
11
1302.3405323279683
21
88.94866916824277
31
1.5653958587979452e-31
 62
256
 0
LINE
 8
Layer0_S_
10
1302.3405323279683
20
88.94866916824277
30
1.5653958587979452e-31
11
1303.110289445263
21
88.79555495773432
31
1.5653958587979452e-31
 62
256
 0
LINE
 8
Layer0_S_
10
1303.110289445263
20
88.79555495773432
30
1.5653958587979452e-31
11
1303.8534757688385
21
88.54327719506763
31
1.5653958587979452e-31
 62
256
 0
LINE
 8
Layer0_S_
10
1303.8534757688385
20
88.54327719506763
30
1.5653958587979452e-31
11
1304.5573751746479
21
88.19615242270653
31
1.5653958587979452e-31
 62
256
 0
LINE
 8
Layer0_S_
10
1304.5573751746479
20
88.19615242270653
30
1.5653958587979452e-31
11
1305.2099437487002
21
87.76012004174731
31
1.5653958587979452e-31
 62
256
 0
LINE
 8
Layer0_S_
10
1305.2099437487002
20
87.76012004174731
30
1.5653958587979452e-31
11
1305.8000158617672
21
87.2426406871192
31
1.5653958587979452e-31
 62
256
 0
LINE
 8
Layer0_S_
10
1305.8000158617672
20
87.2426406871192
30
1.5653958587979452e-31
11
1306.3174952163954
21
86.65256857405224
31
1.5653958587979452e-31
 62
256
 0
LINE
 8
Layer0_S_
10
1306.3174952163954
20
86.65256857405224
30
1.5653958587979452e-31
11
1306.7535275973546
21
85.99999999999991
31
1.5653958587979452e-31
 62
256
 0
LINE
 8
Layer0_S_
10
1306.7535275973546
20
85.99999999999991
30
1.5653958587979452e-31
11
1307.1006523697158
21
85.29610059419045
31
1.5653958587979452e-31
 62
256
 0
LINE
 8
Layer0_S_
10
1307.1006523697158
20
85.29610059419045
30
1.5653958587979452e-31
11
1307.3529301323824
21
84.55291427061503
31
1.5653958587979452e-31
 62
256
 0
LINE
 8
Layer0_S_
10
1307.3529301323824
20
84.55291427061503
30
1.5653958587979452e-31
11
1307.5060443428908
21
83.78315715332023
31
1.5653958587979452e-31
 62
256
 0
LINE
 8
Layer0_S_
10
1307.5060443428908
20
83.78315715332023
30
1.5653958587979452e-31
11
1307.5573751746479
21
82.99999999999991
31
1.5653958587979452e-31
 62
256
 0
LINE
 8
Layer0_S_
10
1313.557375174648
20
0.0
30
7.826979293989726e-32
11
1315.1236894812885
21
0.10266166351427745
31
7.826979293989726e-32
 62
256
 0
LINE
 8
Layer0_S_
10
1315.1236894812885
20
0.10266166351427745
30
7.826979293989726e-32
11
1316.6632037158781
21
0.40889008453118103
31
7.826979293989726e-32
 62
256
 0
LINE
 8
Layer0_S_
10
1316.6632037158781
20
0.40889008453118103
30
7.826979293989726e-32
11
1318.1495763630292
21
0.9134456098645598
31
7.826979293989726e-32
 62
256
 0
LINE
 8
Layer0_S_
10
1318.1495763630292
20
0.9134456098645598
30
7.826979293989726e-32
11
1319.5573751746479
21
1.6076951545867362
31
7.826979293989726e-32
 62
256
 0
LINE
 8
Layer0_S_
10
1319.5573751746479
20
1.6076951545867362
30
7.826979293989726e-32
11
1320.8625123227525
21
2.4797599165051807
31
7.826979293989726e-32
 62
256
 0
LINE
 8
Layer0_S_
10
1320.8625123227525
20
2.4797599165051807
30
7.826979293989726e-32
11
1322.0426565488865
21
3.514718625761432
31
7.826979293989726e-32
 62
256
 0
LINE
 8
Layer0_S_
10
1322.0426565488865
20
3.514718625761432
30
7.826979293989726e-32
11
1323.0776152581427
21
4.694862851895351
31
7.826979293989726e-32
 62
256
 0
LINE
 8
Layer0_S_
10
1323.0776152581427
20
4.694862851895351
30
7.826979293989726e-32
11
1323.9496800200611
21
6.0
31
7.826979293989726e-32
 62
256
 0
LINE
 8
Layer0_S_
10
1323.9496800200611
20
6.0
30
7.826979293989726e-32
11
1324.6439295647835
21
7.407798811618927
31
7.826979293989726e-32
 62
256
 0
LINE
 8
Layer0_S_
10
1324.6439295647835
20
7.407798811618927
30
7.826979293989726e-32
11
1325.1484850901168
21
8.894171458769755
31
7.826979293989726e-32
 62
256
 0
LINE
 8
Layer0_S_
10
1325.1484850901168
20
8.894171458769755
30
7.826979293989726e-32
11
1325.4547135111336
21
10.433685693359385
31
7.826979293989726e-32
 62
256
 0
LINE
 8
Layer0_S_
10
1325.4547135111336
20
10.433685693359385
30
7.826979293989726e-32
11
1325.557375174648
21
12.0
31
7.826979293989726e-32
 62
256
 0
LINE
 8
Layer0_S_
10
1152.557375174648
20
0.0
30
7.826979293989726e-32
11
1150.9910608680073
21
0.10266166351427745
31
7.826979293989726e-32
 62
256
 0
LINE
 8
Layer0_S_
10
1150.9910608680073
20
0.10266166351427745
30
7.826979293989726e-32
11
1149.4515466334178
21
0.40889008453118103
31
7.826979293989726e-32
 62
256
 0
LINE
 8
Layer0_S_
10
1149.4515466334178
20
0.40889008453118103
30
7.826979293989726e-32
11
1147.965173986267
21
0.9134456098645598
31
7.826979293989726e-32
 62
256
 0
LINE
 8
Layer0_S_
10
1147.965173986267
20
0.9134456098645598
30
7.826979293989726e-32
11
1146.5573751746479
21
1.6076951545867362
31
7.826979293989726e-32
 62
256
 0
LINE
 8
Layer0_S_
10
1146.5573751746479
20
1.6076951545867362
30
7.826979293989726e-32
11
1145.2522380265434
21
2.4797599165051807
31
7.826979293989726e-32
 62
256
 0
LINE
 8
Layer0_S_
10
1145.2522380265434
20
2.4797599165051807
30
7.826979293989726e-32
11
1144.0720938004094
21
3.514718625761432
31
7.826979293989726e-32
 62
256
 0
LINE
 8
Layer0_S_
10
1144.0720938004094
20
3.514718625761432
30
7.826979293989726e-32
11
1143.0371350911532
21
4.694862851895351
31
7.826979293989726e-32
 62
256
 0
LINE
 8
Layer0_S_
10
1143.0371350911532
20
4.694862851895351
30
7.826979293989726e-32
11
1142.1650703292348
21
6.0
31
7.826979293989726e-32
 62
256
 0
LINE
 8
Layer0_S_
10
1142.1650703292348
20
6.0
30
7.826979293989726e-32
11
1141.4708207845126
21
7.407798811618927
31
7.826979293989726e-32
 62
256
 0
LINE
 8
Layer0_S_
10
1141.4708207845126
20
7.407798811618927
30
7.826979293989726e-32
11
1140.9662652591792
21
8.894171458769755
31
7.826979293989726e-32
 62
256
 0
LINE
 8
Layer0_S_
10
1140.9662652591792
20
8.894171458769755
30
7.826979293989726e-32
11
1140.6600368381623
21
10.433685693359385
31
7.826979293989726e-32
 62
256
 0
LINE
 8
Layer0_S_
10
1140.6600368381623
20
10.433685693359385
30
7.826979293989726e-32
11
1140.557375174648
21
12.0
31
7.826979293989726e-32
 62
256
 0
LINE
 8
Layer0_S_
10
1150.5573751746479
20
139.81107288852084
30
2.3480937881969176e-31
11
1149.0651456276266
21
139.48060681283482
31
2.3480937881969176e-31
 62
256
 0
LINE
 8
Layer0_S_
10
1149.0651456276266
20
139.48060681283482
30
2.3480937881969176e-31
11
1147.6331257988506
21
138.94311509968512
31
2.3480937881969176e-31
 62
256
 0
LINE
 8
Layer0_S_
10
1147.6331257988506
20
138.94311509968512
30
2.3480937881969176e-31
11
1146.281110596149
21
138.22782982556296
31
2.3480937881969176e-31
 62
256
 0
LINE
 8
Layer0_S_
10
1146.281110596149
20
138.22782982556296
30
2.3480937881969176e-31
11
1145.0310663056464
21
137.34637228064383
31
2.3480937881969176e-31
 62
256
 0
LINE
 8
Layer0_S_
10
1145.0310663056464
20
137.34637228064383
30
2.3480937881969176e-31
11
1143.903302484883
21
136.31306356767857
31
2.3480937881969176e-31
 62
256
 0
LINE
 8
Layer0_S_
10
1143.903302484883
20
136.31306356767857
30
2.3480937881969176e-31
11
1142.9161419920033
21
135.14469192602948
31
2.3480937881969176e-31
 62
256
 0
LINE
 8
Layer0_S_
10
1142.9161419920033
20
135.14469192602948
30
2.3480937881969176e-31
11
1142.0856232929905
21
133.86023997196398
31
2.3480937881969176e-31
 62
256
 0
LINE
 8
Layer0_S_
10
1142.0856232929905
20
133.86023997196398
30
2.3480937881969176e-31
11
1141.4252398835824
21
132.48057628675267
31
2.3480937881969176e-31
 62
256
 0
LINE
 8
Layer0_S_
10
1141.4252398835824
20
132.48057628675267
30
2.3480937881969176e-31
11
1140.945721059495
21
131.0281163633611
31
2.3480937881969176e-31
 62
256
 0
LINE
 8
Layer0_S_
10
1140.945721059495
20
131.0281163633611
30
2.3480937881969176e-31
11
1140.6548575968027
21
129.52645842035844
31
2.3480937881969176e-31
 62
256
 0
LINE
 8
Layer0_S_
10
1140.6548575968027
20
129.52645842035844
30
2.3480937881969176e-31
11
1140.557375174648
21
127.99999999999993
31
2.3480937881969176e-31
 62
256
 0
LINE
 8
Layer0_S_
10
1150.5426646319552
20
133.6516317492527
30
2.3480937881969176e-31
11
1149.1848523922129
21
132.9624681441753
31
2.3480937881969176e-31
 62
256
 0
LINE
 8
Layer0_S_
10
1149.1848523922129
20
132.9624681441753
30
2.3480937881969176e-31
11
1148.0442494076988
21
131.9536939451224
31
2.3480937881969176e-31
 62
256
 0
LINE
 8
Layer0_S_
10
1148.0442494076988
20
131.9536939451224
30
2.3480937881969176e-31
11
1147.1943168648183
21
130.6902798303088
31
2.3480937881969176e-31
 62
256
 0
LINE
 8
Layer0_S_
10
1147.1943168648183
20
130.6902798303088
30
2.3480937881969176e-31
11
1146.6897951542355
21
129.2535967071018
31
2.3480937881969176e-31
 62
256
 0
LINE
 8
Layer0_S_
10
1146.6897951542355
20
129.2535967071018
30
2.3480937881969176e-31
11
1146.5631782847597
21
127.73617497227609
31
2.3480937881969176e-31
 62
256
 0
LINE
 8
Layer0_S_
10
1146.5631782847597
20
127.73617497227609
30
2.3480937881969176e-31
11
1146.822621088157
21
126.23574503898274
31
2.3480937881969176e-31
 62
256
 0
LINE
 8
Layer0_S_
10
1146.822621088157
20
126.23574503898274
30
2.3480937881969176e-31
11
1147.4514140025544
21
124.84894295369415
31
2.3480937881969176e-31
 62
256
 0
LINE
 8
Layer0_S_
10
1147.4514140025544
20
124.84894295369415
30
2.3480937881969176e-31
11
1148.409059261313
21
123.66508649646015
31
2.3480937881969176e-31
 62
256
 0
LINE
 8
Layer0_S_
10
1148.409059261313
20
123.66508649646015
30
2.3480937881969176e-31
11
1149.6338791748076
21
122.76042261829085
31
2.3480937881969176e-31
 62
256
 0
LINE
 8
Layer0_S_
10
1149.6338791748076
20
122.76042261829085
30
2.3480937881969176e-31
11
1151.046988517241
21
122.19321671274639
31
2.3480937881969176e-31
 62
256
 0
LINE
 8
Layer0_S_
10
1151.046988517241
20
122.19321671274639
30
2.3480937881969176e-31
11
1152.557375174648
21
121.99999999999993
31
2.3480937881969176e-31
 62
256
 0
LINE
 8
Layer0_S_
10
1152.557375174648
20
121.99999999999993
30
2.3480937881969176e-31
11
1154.0677618320549
21
122.19321671274636
31
2.3480937881969176e-31
 62
256
 0
LINE
 8
Layer0_S_
10
1154.0677618320549
20
122.19321671274636
30
2.3480937881969176e-31
11
1155.4808711744884
21
122.76042261829085
31
2.3480937881969176e-31
 62
256
 0
LINE
 8
Layer0_S_
10
1155.4808711744884
20
122.76042261829085
30
2.3480937881969176e-31
11
1156.705691087983
21
123.66508649646015
31
2.3480937881969176e-31
 62
256
 0
LINE
 8
Layer0_S_
10
1156.705691087983
20
123.66508649646015
30
2.3480937881969176e-31
11
1157.6633363467415
21
124.84894295369415
31
2.3480937881969176e-31
 62
256
 0
LINE
 8
Layer0_S_
10
1157.6633363467415
20
124.84894295369415
30
2.3480937881969176e-31
11
1158.292129261139
21
126.23574503898271
31
2.3480937881969176e-31
 62
256
 0
LINE
 8
Layer0_S_
10
1158.292129261139
20
126.23574503898271
30
2.3480937881969176e-31
11
1158.5515720645362
21
127.73617497227606
31
2.3480937881969176e-31
 62
256
 0
LINE
 8
Layer0_S_
10
1158.5515720645362
20
127.73617497227606
30
2.3480937881969176e-31
11
1158.4249551950604
21
129.25359670710176
31
2.3480937881969176e-31
 62
256
 0
LINE
 8
Layer0_S_
10
1158.4249551950604
20
129.25359670710176
30
2.3480937881969176e-31
11
1157.9204334844776
21
130.6902798303088
31
2.3480937881969176e-31
 62
256
 0
LINE
 8
Layer0_S_
10
1157.9204334844776
20
130.6902798303088
30
2.3480937881969176e-31
11
1157.0705009415974
21
131.9536939451224
31
2.3480937881969176e-31
 62
256
 0
LINE
 8
Layer0_S_
10
1157.0705009415974
20
131.9536939451224
30
2.3480937881969176e-31
11
1155.929897957083
21
132.9624681441753
31
2.3480937881969176e-31
 62
256
 0
LINE
 8
Layer0_S_
10
1155.929897957083
20
132.9624681441753
30
2.3480937881969176e-31
11
1154.5720857173408
21
133.6516317492527
31
2.3480937881969176e-31
 62
256
 0
LINE
 8
Layer0_S_
10
1311.5426646319552
20
133.65163174925272
30
2.3480937881969176e-31
11
1310.1848523922126
21
132.96246814417532
31
2.3480937881969176e-31
 62
256
 0
LINE
 8
Layer0_S_
10
1310.1848523922126
20
132.96246814417532
30
2.3480937881969176e-31
11
1309.0442494076985
21
131.9536939451224
31
2.3480937881969176e-31
 62
256
 0
LINE
 8
Layer0_S_
10
1309.0442494076985
20
131.9536939451224
30
2.3480937881969176e-31
11
1308.1943168648183
21
130.6902798303088
31
2.3480937881969176e-31
 62
256
 0
LINE
 8
Layer0_S_
10
1308.1943168648183
20
130.6902798303088
30
2.3480937881969176e-31
11
1307.6897951542355
21
129.2535967071018
31
2.3480937881969176e-31
 62
256
 0
LINE
 8
Layer0_S_
10
1307.6897951542355
20
129.2535967071018
30
2.3480937881969176e-31
11
1307.5631782847597
21
127.73617497227609
31
2.3480937881969176e-31
 62
256
 0
LINE
 8
Layer0_S_
10
1307.5631782847597
20
127.73617497227609
30
2.3480937881969176e-31
11
1307.822621088157
21
126.23574503898271
31
2.3480937881969176e-31
 62
256
 0
LINE
 8
Layer0_S_
10
1307.822621088157
20
126.23574503898271
30
2.3480937881969176e-31
11
1308.4514140025544
21
124.84894295369413
31
2.3480937881969176e-31
 62
256
 0
LINE
 8
Layer0_S_
10
1308.4514140025544
20
124.84894295369413
30
2.3480937881969176e-31
11
1309.409059261313
21
123.66508649646015
31
2.3480937881969176e-31
 62
256
 0
LINE
 8
Layer0_S_
10
1309.409059261313
20
123.66508649646015
30
2.3480937881969176e-31
11
1310.6338791748076
21
122.76042261829085
31
2.3480937881969176e-31
 62
256
 0
LINE
 8
Layer0_S_
10
1310.6338791748076
20
122.76042261829085
30
2.3480937881969176e-31
11
1312.046988517241
21
122.19321671274636
31
2.3480937881969176e-31
 62
256
 0
LINE
 8
Layer0_S_
10
1312.046988517241
20
122.19321671274636
30
2.3480937881969176e-31
11
1313.557375174648
21
121.99999999999991
31
2.3480937881969176e-31
 62
256
 0
LINE
 8
Layer0_S_
10
1313.557375174648
20
121.99999999999991
30
2.3480937881969176e-31
11
1315.0677618320549
21
122.19321671274636
31
2.3480937881969176e-31
 62
256
 0
LINE
 8
Layer0_S_
10
1315.0677618320549
20
122.19321671274636
30
2.3480937881969176e-31
11
1316.4808711744884
21
122.76042261829085
31
2.3480937881969176e-31
 62
256
 0
LINE
 8
Layer0_S_
10
1316.4808711744884
20
122.76042261829085
30
2.3480937881969176e-31
11
1317.705691087983
21
123.66508649646015
31
2.3480937881969176e-31
 62
256
 0
LINE
 8
Layer0_S_
10
1317.705691087983
20
123.66508649646015
30
2.3480937881969176e-31
11
1318.6633363467415
21
124.84894295369413
31
2.3480937881969176e-31
 62
256
 0
LINE
 8
Layer0_S_
10
1318.6633363467415
20
124.84894295369413
30
2.3480937881969176e-31
11
1319.292129261139
21
126.23574503898271
31
2.3480937881969176e-31
 62
256
 0
LINE
 8
Layer0_S_
10
1319.292129261139
20
126.23574503898271
30
2.3480937881969176e-31
11
1319.5515720645362
21
127.73617497227606
31
2.3480937881969176e-31
 62
256
 0
LINE
 8
Layer0_S_
10
1319.5515720645362
20
127.73617497227606
30
2.3480937881969176e-31
11
1319.4249551950604
21
129.2535967071018
31
2.3480937881969176e-31
 62
256
 0
LINE
 8
Layer0_S_
10
1319.4249551950604
20
129.2535967071018
30
2.3480937881969176e-31
11
1318.9204334844776
21
130.6902798303088
31
2.3480937881969176e-31
 62
256
 0
LINE
 8
Layer0_S_
10
1318.9204334844776
20
130.6902798303088
30
2.3480937881969176e-31
11
1318.0705009415972
21
131.9536939451224
31
2.3480937881969176e-31
 62
256
 0
LINE
 8
Layer0_S_
10
1318.0705009415972
20
131.9536939451224
30
2.3480937881969176e-31
11
1316.929897957083
21
132.96246814417532
31
2.3480937881969176e-31
 62
256
 0
LINE
 8
Layer0_S_
10
1316.929897957083
20
132.96246814417532
30
2.3480937881969176e-31
11
1315.5720857173408
21
133.65163174925272
31
2.3480937881969176e-31
 62
256
 0
LINE
 8
Layer0_S_
10
1315.5573751746479
20
139.81107288852084
30
2.3480937881969176e-31
11
1317.0496047216693
21
139.48060681283482
31
2.3480937881969176e-31
 62
256
 0
LINE
 8
Layer0_S_
10
1317.0496047216693
20
139.48060681283482
30
2.3480937881969176e-31
11
1318.4816245504453
21
138.94311509968512
31
2.3480937881969176e-31
 62
256
 0
LINE
 8
Layer0_S_
10
1318.4816245504453
20
138.94311509968512
30
2.3480937881969176e-31
11
1319.833639753147
21
138.22782982556296
31
2.3480937881969176e-31
 62
256
 0
LINE
 8
Layer0_S_
10
1319.833639753147
20
138.22782982556296
30
2.3480937881969176e-31
11
1321.0836840436496
21
137.34637228064383
31
2.3480937881969176e-31
 62
256
 0
LINE
 8
Layer0_S_
10
1321.0836840436496
20
137.34637228064383
30
2.3480937881969176e-31
11
1322.2114478644128
21
136.31306356767857
31
2.3480937881969176e-31
 62
256
 0
LINE
 8
Layer0_S_
10
1322.2114478644128
20
136.31306356767857
30
2.3480937881969176e-31
11
1323.1986083572926
21
135.14469192602948
31
2.3480937881969176e-31
 62
256
 0
LINE
 8
Layer0_S_
10
1323.1986083572926
20
135.14469192602948
30
2.3480937881969176e-31
11
1324.0291270563052
21
133.86023997196398
31
2.3480937881969176e-31
 62
256
 0
LINE
 8
Layer0_S_
10
1324.0291270563052
20
133.86023997196398
30
2.3480937881969176e-31
11
1324.6895104657135
21
132.48057628675267
31
2.3480937881969176e-31
 62
256
 0
LINE
 8
Layer0_S_
10
1324.6895104657135
20
132.48057628675267
30
2.3480937881969176e-31
11
1325.1690292898008
21
131.0281163633611
31
2.3480937881969176e-31
 62
256
 0
LINE
 8
Layer0_S_
10
1325.1690292898008
20
131.0281163633611
30
2.3480937881969176e-31
11
1325.4598927524933
21
129.5264584203584
31
2.3480937881969176e-31
 62
256
 0
LINE
 8
Layer0_S_
10
1325.4598927524933
20
129.5264584203584
30
2.3480937881969176e-31
11
1325.557375174648
21
127.99999999999993
31
2.3480937881969176e-31
 62
256
 0
LINE
 8
Layer0_S_
10
1307.5573751746479
20
115.00000000000013
30
2.3480937881969176e-31
11
1307.5060443428908
21
114.21684284667981
31
2.3480937881969176e-31
 62
256
 0
LINE
 8
Layer0_S_
10
1307.5060443428908
20
114.21684284667981
30
2.3480937881969176e-31
11
1307.3529301323824
21
113.447085729385
31
2.3480937881969176e-31
 62
256
 0
LINE
 8
Layer0_S_
10
1307.3529301323824
20
113.447085729385
30
2.3480937881969176e-31
11
1307.1006523697158
21
112.7038994058096
31
2.3480937881969176e-31
 62
256
 0
LINE
 8
Layer0_S_
10
1307.1006523697158
20
112.7038994058096
30
2.3480937881969176e-31
11
1306.7535275973546
21
112.00000000000013
31
2.3480937881969176e-31
 62
256
 0
LINE
 8
Layer0_S_
10
1306.7535275973546
20
112.00000000000013
30
2.3480937881969176e-31
11
1306.3174952163954
21
111.3474314259478
31
2.3480937881969176e-31
 62
256
 0
LINE
 8
Layer0_S_
10
1306.3174952163954
20
111.3474314259478
30
2.3480937881969176e-31
11
1305.8000158617672
21
110.75735931288084
31
2.3480937881969176e-31
 62
256
 0
LINE
 8
Layer0_S_
10
1305.8000158617672
20
110.75735931288084
30
2.3480937881969176e-31
11
1305.2099437487002
21
110.23987995825273
31
2.3480937881969176e-31
 62
256
 0
LINE
 8
Layer0_S_
10
1305.2099437487002
20
110.23987995825273
30
2.3480937881969176e-31
11
1304.5573751746479
21
109.80384757729348
31
2.3480937881969176e-31
 62
256
 0
LINE
 8
Layer0_S_
10
1304.5573751746479
20
109.80384757729348
30
2.3480937881969176e-31
11
1303.8534757688385
21
109.45672280493241
31
2.3480937881969176e-31
 62
256
 0
LINE
 8
Layer0_S_
10
1303.8534757688385
20
109.45672280493241
30
2.3480937881969176e-31
11
1303.110289445263
21
109.20444504226572
31
2.3480937881969176e-31
 62
256
 0
LINE
 8
Layer0_S_
10
1303.110289445263
20
109.20444504226572
30
2.3480937881969176e-31
11
1302.3405323279683
21
109.05133083175727
31
2.3480937881969176e-31
 62
256
 0
LINE
 8
Layer0_S_
10
1302.3405323279683
20
109.05133083175727
30
2.3480937881969176e-31
11
1301.557375174648
21
109.00000000000011
31
2.3480937881969176e-31
 62
256
 0
LINE
 8
Layer0_S_
10
1307.5573751746479
20
115.99999999999993
30
2.3480937881969176e-31
11
1307.5060443428908
21
116.78315715332023
31
2.3480937881969176e-31
 62
256
 0
LINE
 8
Layer0_S_
10
1307.5060443428908
20
116.78315715332023
30
2.3480937881969176e-31
11
1307.3529301323824
21
117.55291427061503
31
2.3480937881969176e-31
 62
256
 0
LINE
 8
Layer0_S_
10
1307.3529301323824
20
117.55291427061503
30
2.3480937881969176e-31
11
1307.1006523697158
21
118.29610059419046
31
2.3480937881969176e-31
 62
256
 0
LINE
 8
Layer0_S_
10
1307.1006523697158
20
118.29610059419046
30
2.3480937881969176e-31
11
1306.7535275973546
21
118.99999999999991
31
2.3480937881969176e-31
 62
256
 0
LINE
 8
Layer0_S_
10
1306.7535275973546
20
118.99999999999991
30
2.3480937881969176e-31
11
1306.3174952163954
21
119.65256857405225
31
2.3480937881969176e-31
 62
256
 0
LINE
 8
Layer0_S_
10
1306.3174952163954
20
119.65256857405225
30
2.3480937881969176e-31
11
1305.8000158617672
21
120.24264068711919
31
2.3480937881969176e-31
 62
256
 0
LINE
 8
Layer0_S_
10
1305.8000158617672
20
120.24264068711919
30
2.3480937881969176e-31
11
1305.2099437487002
21
120.76012004174733
31
2.3480937881969176e-31
 62
256
 0
LINE
 8
Layer0_S_
10
1305.2099437487002
20
120.76012004174733
30
2.3480937881969176e-31
11
1304.5573751746479
21
121.19615242270655
31
2.3480937881969176e-31
 62
256
 0
LINE
 8
Layer0_S_
10
1304.5573751746479
20
121.19615242270655
30
2.3480937881969176e-31
11
1303.8534757688385
21
121.54327719506765
31
2.3480937881969176e-31
 62
256
 0
LINE
 8
Layer0_S_
10
1303.8534757688385
20
121.54327719506765
30
2.3480937881969176e-31
11
1303.110289445263
21
121.79555495773434
31
2.3480937881969176e-31
 62
256
 0
LINE
 8
Layer0_S_
10
1303.110289445263
20
121.79555495773434
30
2.3480937881969176e-31
11
1302.3405323279683
21
121.94866916824279
31
2.3480937881969176e-31
 62
256
 0
LINE
 8
Layer0_S_
10
1302.3405323279683
20
121.94866916824279
30
2.3480937881969176e-31
11
1301.557375174648
21
121.99999999999991
31
2.3480937881969176e-31
 62
256
 0
LINE
 8
Layer0_S_
10
1158.5573751746479
20
115.99999999999993
30
2.3480937881969176e-31
11
1158.608706006405
21
116.78315715332023
31
2.3480937881969176e-31
 62
256
 0
LINE
 8
Layer0_S_
10
1158.608706006405
20
116.78315715332023
30
2.3480937881969176e-31
11
1158.7618202169135
21
117.55291427061503
31
2.3480937881969176e-31
 62
256
 0
LINE
 8
Layer0_S_
10
1158.7618202169135
20
117.55291427061503
30
2.3480937881969176e-31
11
1159.0140979795804
21
118.29610059419046
31
2.3480937881969176e-31
 62
256
 0
LINE
 8
Layer0_S_
10
1159.0140979795804
20
118.29610059419046
30
2.3480937881969176e-31
11
1159.3612227519413
21
118.99999999999991
31
2.3480937881969176e-31
 62
256
 0
LINE
 8
Layer0_S_
10
1159.3612227519413
20
118.99999999999991
30
2.3480937881969176e-31
11
1159.7972551329005
21
119.65256857405225
31
2.3480937881969176e-31
 62
256
 0
LINE
 8
Layer0_S_
10
1159.7972551329005
20
119.65256857405225
30
2.3480937881969176e-31
11
1160.3147344875288
21
120.24264068711919
31
2.3480937881969176e-31
 62
256
 0
LINE
 8
Layer0_S_
10
1160.3147344875288
20
120.24264068711919
30
2.3480937881969176e-31
11
1160.9048066005955
21
120.76012004174733
31
2.3480937881969176e-31
 62
256
 0
LINE
 8
Layer0_S_
10
1160.9048066005955
20
120.76012004174733
30
2.3480937881969176e-31
11
1161.5573751746479
21
121.19615242270655
31
2.3480937881969176e-31
 62
256
 0
LINE
 8
Layer0_S_
10
1161.5573751746479
20
121.19615242270655
30
2.3480937881969176e-31
11
1162.2612745804574
21
121.54327719506765
31
2.3480937881969176e-31
 62
256
 0
LINE
 8
Layer0_S_
10
1162.2612745804574
20
121.54327719506765
30
2.3480937881969176e-31
11
1163.0044609040328
21
121.79555495773434
31
2.3480937881969176e-31
 62
256
 0
LINE
 8
Layer0_S_
10
1163.0044609040328
20
121.79555495773434
30
2.3480937881969176e-31
11
1163.7742180213277
21
121.94866916824279
31
2.3480937881969176e-31
 62
256
 0
LINE
 8
Layer0_S_
10
1163.7742180213277
20
121.94866916824279
30
2.3480937881969176e-31
11
1164.5573751746479
21
121.99999999999993
31
2.3480937881969176e-31
 62
256
 0
LINE
 8
Layer0_S_
10
1256.557375174648
20
24.0
30
7.826979293989726e-32
11
1256.6087060064053
21
23.21684284667969
31
7.826979293989726e-32
 62
256
 0
LINE
 8
Layer0_S_
10
1256.6087060064053
20
23.21684284667969
30
7.826979293989726e-32
11
1256.7618202169137
21
22.447085729384877
31
7.826979293989726e-32
 62
256
 0
LINE
 8
Layer0_S_
10
1256.7618202169137
20
22.447085729384877
30
7.826979293989726e-32
11
1257.0140979795804
21
21.703899405809466
31
7.826979293989726e-32
 62
256
 0
LINE
 8
Layer0_S_
10
1257.0140979795804
20
21.703899405809466
30
7.826979293989726e-32
11
1257.3612227519416
21
21.0
31
7.826979293989726e-32
 62
256
 0
LINE
 8
Layer0_S_
10
1257.3612227519416
20
21.0
30
7.826979293989726e-32
11
1257.7972551329008
21
20.34743142594768
31
7.826979293989726e-32
 62
256
 0
LINE
 8
Layer0_S_
10
1257.7972551329008
20
20.34743142594768
30
7.826979293989726e-32
11
1258.3147344875288
21
19.757359312880716
31
7.826979293989726e-32
 62
256
 0
LINE
 8
Layer0_S_
10
1258.3147344875288
20
19.757359312880716
30
7.826979293989726e-32
11
1258.9048066005957
21
19.23987995825259
31
7.826979293989726e-32
 62
256
 0
LINE
 8
Layer0_S_
10
1258.9048066005957
20
19.23987995825259
30
7.826979293989726e-32
11
1259.557375174648
21
18.80384757729337
31
7.826979293989726e-32
 62
256
 0
LINE
 8
Layer0_S_
10
1259.557375174648
20
18.80384757729337
30
7.826979293989726e-32
11
1260.2612745804574
21
18.456722804932284
31
7.826979293989726e-32
 62
256
 0
LINE
 8
Layer0_S_
10
1260.2612745804574
20
18.456722804932284
30
7.826979293989726e-32
11
1261.004460904033
21
18.20444504226559
31
7.826979293989726e-32
 62
256
 0
LINE
 8
Layer0_S_
10
1261.004460904033
20
18.20444504226559
30
7.826979293989726e-32
11
1261.7742180213277
21
18.051330831757138
31
7.826979293989726e-32
 62
256
 0
LINE
 8
Layer0_S_
10
1261.7742180213277
20
18.051330831757138
30
7.826979293989726e-32
11
1262.557375174648
21
17.999999999999996
31
7.826979293989726e-32
 62
256
 0
LINE
 8
Layer0_S_
10
1307.5573751746479
20
24.0
30
7.826979293989726e-32
11
1307.5060443428908
21
23.216842846679693
31
7.826979293989726e-32
 62
256
 0
LINE
 8
Layer0_S_
10
1307.5060443428908
20
23.216842846679693
30
7.826979293989726e-32
11
1307.3529301323824
21
22.447085729384877
31
7.826979293989726e-32
 62
256
 0
LINE
 8
Layer0_S_
10
1307.3529301323824
20
22.447085729384877
30
7.826979293989726e-32
11
1307.1006523697158
21
21.703899405809466
31
7.826979293989726e-32
 62
256
 0
LINE
 8
Layer0_S_
10
1307.1006523697158
20
21.703899405809466
30
7.826979293989726e-32
11
1306.7535275973546
21
21.000000000000004
31
7.826979293989726e-32
 62
256
 0
LINE
 8
Layer0_S_
10
1306.7535275973546
20
21.000000000000004
30
7.826979293989726e-32
11
1306.3174952163954
21
20.34743142594768
31
7.826979293989726e-32
 62
256
 0
LINE
 8
Layer0_S_
10
1306.3174952163954
20
20.34743142594768
30
7.826979293989726e-32
11
1305.8000158617672
21
19.75735931288072
31
7.826979293989726e-32
 62
256
 0
LINE
 8
Layer0_S_
10
1305.8000158617672
20
19.75735931288072
30
7.826979293989726e-32
11
1305.2099437487002
21
19.239879958252594
31
7.826979293989726e-32
 62
256
 0
LINE
 8
Layer0_S_
10
1305.2099437487002
20
19.239879958252594
30
7.826979293989726e-32
11
1304.5573751746479
21
18.80384757729337
31
7.826979293989726e-32
 62
256
 0
LINE
 8
Layer0_S_
10
1304.5573751746479
20
18.80384757729337
30
7.826979293989726e-32
11
1303.8534757688385
21
18.456722804932284
31
7.826979293989726e-32
 62
256
 0
LINE
 8
Layer0_S_
10
1303.8534757688385
20
18.456722804932284
30
7.826979293989726e-32
11
1303.110289445263
21
18.204445042265597
31
7.826979293989726e-32
 62
256
 0
LINE
 8
Layer0_S_
10
1303.110289445263
20
18.204445042265597
30
7.826979293989726e-32
11
1302.3405323279683
21
18.051330831757145
31
7.826979293989726e-32
 62
256
 0
LINE
 8
Layer0_S_
10
1302.3405323279683
20
18.051330831757145
30
7.826979293989726e-32
11
1301.557375174648
21
18.0
31
7.826979293989726e-32
 62
256
 0
LINE
 8
Layer0_S_
10
1216.057375174648
20
18.000000000000004
30
5.639932965095795e-15
11
1164.5573751746479
21
18.00000000000001
31
7.826979293989726e-32
 62
256
 0
LINE
 8
Layer0_S_
10
1216.057375174648
20
2.500000000000001
30
7.826979293989726e-32
11
1216.057375174648
21
18.000000000000004
31
5.639932965095795e-15
 62
256
 0
LINE
 8
Layer0_S_
10
1223.057375174648
20
2.500000000000001
30
7.826979293989726e-32
11
1218.0573751746479
21
2.500000000000001
31
7.826979293989726e-32
 62
256
 0
LINE
 8
Layer0_S_
10
1230.057375174648
20
2.500000000000001
30
7.826979293989726e-32
11
1225.0573751746479
21
2.500000000000001
31
7.826979293989726e-32
 62
256
 0
LINE
 8
Layer0_S_
10
1237.0573751746479
20
2.500000000000001
30
7.826979293989726e-32
11
1232.0573751746479
21
2.500000000000001
31
7.826979293989726e-32
 62
256
 0
LINE
 8
Layer0_S_
10
1244.0573751746479
20
2.500000000000001
30
7.826979293989726e-32
11
1239.057375174648
21
2.500000000000001
31
7.826979293989726e-32
 62
256
 0
LINE
 8
Layer0_S_
10
1251.0573751746479
20
2.500000000000001
30
7.826979293989726e-32
11
1246.057375174648
21
2.500000000000001
31
7.826979293989726e-32
 62
256
 0
LINE
 8
Layer0_S_
10
1258.057375174648
20
2.500000000000001
30
7.826979293989726e-32
11
1253.057375174648
21
2.500000000000001
31
7.826979293989726e-32
 62
256
 0
LINE
 8
Layer0_S_
10
1265.057375174648
20
2.500000000000001
30
7.826979293989726e-32
11
1260.0573751746479
21
2.500000000000001
31
7.826979293989726e-32
 62
256
 0
LINE
 8
Layer0_S_
10
1272.0573751746479
20
2.500000000000001
30
7.826979293989726e-32
11
1267.0573751746479
21
2.500000000000001
31
7.826979293989726e-32
 62
256
 0
LINE
 8
Layer0_S_
10
1279.0573751746479
20
2.500000000000001
30
7.826979293989726e-32
11
1274.0573751746479
21
2.500000000000001
31
7.826979293989726e-32
 62
256
 0
LINE
 8
Layer0_S_
10
1286.0573751746479
20
2.500000000000001
30
7.826979293989726e-32
11
1281.057375174648
21
2.500000000000001
31
7.826979293989726e-32
 62
256
 0
LINE
 8
Layer0_S_
10
1293.057375174648
20
2.500000000000001
30
7.826979293989726e-32
11
1288.057375174648
21
2.500000000000001
31
7.826979293989726e-32
 62
256
 0
LINE
 8
Layer0_S_
10
1295.0573751746479
20
2.500000000000001
30
7.826979293989726e-32
11
1295.0573751746479
21
7.5000000000000036
31
7.826979293989726e-32
 62
256
 0
LINE
 8
Layer0_S_
10
1295.0573751746479
20
7.5000000000000036
30
7.826979293989726e-32
11
1240.557375174648
21
7.5000000000000036
31
7.826979293989726e-32
 62
256
 0
LINE
 8
Layer0_S_
10
1240.557375174648
20
7.5000000000000036
30
7.826979293989726e-32
11
1240.557375174648
21
17.999999999999996
31
1.127986593019159e-14
 62
256
 0
LINE
 8
Layer0_S_
10
1246.557375174648
20
34.50000000000001
30
5.639932965095795e-15
11
1246.557375174648
21
24.0
31
1.127986593019159e-14
 62
256
 0
LINE
 8
Layer0_S_
10
1240.557375174648
20
40.50000000000001
30
5.639932965095795e-15
11
1164.5573751746479
21
40.49999999999999
31
5.639932965095795e-15
 62
256
 0
LINE
 8
Layer0_S_
10
1158.557375174648
20
34.5
30
5.639932965095795e-15
11
1158.5573751746479
21
24.0
31
7.826979293989726e-32
 62
256
 0
LINE
 8
Layer0_S_
10
1216.057375174648
20
2.500000000000001
30
7.826979293989726e-32
11
1216.0914493483588
21
2.241180954897484
31
7.826979293989726e-32
 62
256
 0
LINE
 8
Layer0_S_
10
1216.0914493483588
20
2.241180954897484
30
7.826979293989726e-32
11
1216.1913497708636
21
2.0000000000000018
31
7.826979293989726e-32
 62
256
 0
LINE
 8
Layer0_S_
10
1216.1913497708636
20
2.0000000000000018
30
7.826979293989726e-32
11
1216.3502683934614
21
1.7928932188134574
31
7.826979293989726e-32
 62
256
 0
LINE
 8
Layer0_S_
10
1216.3502683934614
20
1.7928932188134574
30
7.826979293989726e-32
11
1216.557375174648
21
1.6339745962155676
31
7.826979293989726e-32
 62
256
 0
LINE
 8
Layer0_S_
10
1216.557375174648
20
1.6339745962155676
30
7.826979293989726e-32
11
1216.7985561295454
21
1.5340741737109347
31
7.826979293989726e-32
 62
256
 0
LINE
 8
Layer0_S_
10
1216.7985561295454
20
1.5340741737109347
30
7.826979293989726e-32
11
1217.0573751746479
21
1.5000000000000029
31
7.826979293989726e-32
 62
256
 0
LINE
 8
Layer0_S_
10
1217.0573751746479
20
1.5000000000000029
30
7.826979293989726e-32
11
1217.3161942197505
21
1.5340741737109347
31
0.0
 62
256
 0
LINE
 8
Layer0_S_
10
1217.3161942197505
20
1.5340741737109347
30
0.0
11
1217.557375174648
21
1.6339745962155618
31
0.0
 62
256
 0
LINE
 8
Layer0_S_
10
1217.557375174648
20
1.6339745962155618
30
0.0
11
1217.7644819558345
21
1.7928932188134519
31
0.0
 62
256
 0
LINE
 8
Layer0_S_
10
1217.7644819558345
20
1.7928932188134519
30
0.0
11
1217.9234005784324
21
2.0000000000000018
31
0.0
 62
256
 0
LINE
 8
Layer0_S_
10
1217.9234005784324
20
2.0000000000000018
30
0.0
11
1218.023301000937
21
2.2411809548974784
31
0.0
 62
256
 0
LINE
 8
Layer0_S_
10
1218.023301000937
20
2.2411809548974784
30
0.0
11
1218.0573751746479
21
2.500000000000001
31
7.826979293989726e-32
 62
256
 0
LINE
 8
Layer0_S_
10
1223.057375174648
20
2.500000000000001
30
7.826979293989726e-32
11
1223.0914493483588
21
2.2411809548974784
31
7.826979293989726e-32
 62
256
 0
LINE
 8
Layer0_S_
10
1223.0914493483588
20
2.2411809548974784
30
7.826979293989726e-32
11
1223.1913497708636
21
2.0000000000000018
31
7.826979293989726e-32
 62
256
 0
LINE
 8
Layer0_S_
10
1223.1913497708636
20
2.0000000000000018
30
7.826979293989726e-32
11
1223.3502683934614
21
1.7928932188134519
31
7.826979293989726e-32
 62
256
 0
LINE
 8
Layer0_S_
10
1223.3502683934614
20
1.7928932188134519
30
7.826979293989726e-32
11
1223.5573751746479
21
1.6339745962155618
31
7.826979293989726e-32
 62
256
 0
LINE
 8
Layer0_S_
10
1223.5573751746479
20
1.6339745962155618
30
7.826979293989726e-32
11
1223.7985561295454
21
1.5340741737109347
31
7.826979293989726e-32
 62
256
 0
LINE
 8
Layer0_S_
10
1223.7985561295454
20
1.5340741737109347
30
7.826979293989726e-32
11
1224.0573751746479
21
1.5000000000000029
31
7.826979293989726e-32
 62
256
 0
LINE
 8
Layer0_S_
10
1224.0573751746479
20
1.5000000000000029
30
7.826979293989726e-32
11
1224.3161942197505
21
1.5340741737109347
31
7.826979293989726e-32
 62
256
 0
LINE
 8
Layer0_S_
10
1224.3161942197505
20
1.5340741737109347
30
7.826979293989726e-32
11
1224.557375174648
21
1.6339745962155618
31
7.826979293989726e-32
 62
256
 0
LINE
 8
Layer0_S_
10
1224.557375174648
20
1.6339745962155618
30
7.826979293989726e-32
11
1224.7644819558345
21
1.7928932188134574
31
7.826979293989726e-32
 62
256
 0
LINE
 8
Layer0_S_
10
1224.7644819558345
20
1.7928932188134574
30
7.826979293989726e-32
11
1224.9234005784324
21
2.0000000000000018
31
7.826979293989726e-32
 62
256
 0
LINE
 8
Layer0_S_
10
1224.9234005784324
20
2.0000000000000018
30
7.826979293989726e-32
11
1225.0233010009372
21
2.2411809548974784
31
7.826979293989726e-32
 62
256
 0
LINE
 8
Layer0_S_
10
1225.0233010009372
20
2.2411809548974784
30
7.826979293989726e-32
11
1225.0573751746479
21
2.500000000000001
31
7.826979293989726e-32
 62
256
 0
LINE
 8
Layer0_S_
10
1230.057375174648
20
2.500000000000001
30
7.826979293989726e-32
11
1230.0914493483588
21
2.2411809548974784
31
7.826979293989726e-32
 62
256
 0
LINE
 8
Layer0_S_
10
1230.0914493483588
20
2.2411809548974784
30
7.826979293989726e-32
11
1230.1913497708636
21
2.0000000000000018
31
7.826979293989726e-32
 62
256
 0
LINE
 8
Layer0_S_
10
1230.1913497708636
20
2.0000000000000018
30
7.826979293989726e-32
11
1230.3502683934614
21
1.7928932188134574
31
7.826979293989726e-32
 62
256
 0
LINE
 8
Layer0_S_
10
1230.3502683934614
20
1.7928932188134574
30
7.826979293989726e-32
11
1230.5573751746479
21
1.6339745962155618
31
7.826979293989726e-32
 62
256
 0
LINE
 8
Layer0_S_
10
1230.5573751746479
20
1.6339745962155618
30
7.826979293989726e-32
11
1230.7985561295454
21
1.5340741737109347
31
7.826979293989726e-32
 62
256
 0
LINE
 8
Layer0_S_
10
1230.7985561295454
20
1.5340741737109347
30
7.826979293989726e-32
11
1231.057375174648
21
1.5000000000000029
31
7.826979293989726e-32
 62
256
 0
LINE
 8
Layer0_S_
10
1231.057375174648
20
1.5000000000000029
30
7.826979293989726e-32
11
1231.3161942197505
21
1.5340741737109347
31
7.826979293989726e-32
 62
256
 0
LINE
 8
Layer0_S_
10
1231.3161942197505
20
1.5340741737109347
30
7.826979293989726e-32
11
1231.5573751746479
21
1.6339745962155618
31
7.826979293989726e-32
 62
256
 0
LINE
 8
Layer0_S_
10
1231.5573751746479
20
1.6339745962155618
30
7.826979293989726e-32
11
1231.7644819558345
21
1.7928932188134574
31
7.826979293989726e-32
 62
256
 0
LINE
 8
Layer0_S_
10
1231.7644819558345
20
1.7928932188134574
30
7.826979293989726e-32
11
1231.9234005784324
21
2.0000000000000018
31
7.826979293989726e-32
 62
256
 0
LINE
 8
Layer0_S_
10
1231.9234005784324
20
2.0000000000000018
30
7.826979293989726e-32
11
1232.023301000937
21
2.2411809548974784
31
7.826979293989726e-32
 62
256
 0
LINE
 8
Layer0_S_
10
1232.023301000937
20
2.2411809548974784
30
7.826979293989726e-32
11
1232.0573751746479
21
2.500000000000001
31
7.826979293989726e-32
 62
256
 0
LINE
 8
Layer0_S_
10
1237.0573751746479
20
2.500000000000001
30
7.826979293989726e-32
11
1237.091449348359
21
2.2411809548974784
31
7.826979293989726e-32
 62
256
 0
LINE
 8
Layer0_S_
10
1237.091449348359
20
2.2411809548974784
30
7.826979293989726e-32
11
1237.1913497708636
21
2.0000000000000018
31
7.826979293989726e-32
 62
256
 0
LINE
 8
Layer0_S_
10
1237.1913497708636
20
2.0000000000000018
30
7.826979293989726e-32
11
1237.3502683934614
21
1.7928932188134519
31
7.826979293989726e-32
 62
256
 0
LINE
 8
Layer0_S_
10
1237.3502683934614
20
1.7928932188134519
30
7.826979293989726e-32
11
1237.5573751746479
21
1.6339745962155618
31
7.826979293989726e-32
 62
256
 0
LINE
 8
Layer0_S_
10
1237.5573751746479
20
1.6339745962155618
30
7.826979293989726e-32
11
1237.7985561295454
21
1.5340741737109347
31
7.826979293989726e-32
 62
256
 0
LINE
 8
Layer0_S_
10
1237.7985561295454
20
1.5340741737109347
30
7.826979293989726e-32
11
1238.057375174648
21
1.5000000000000029
31
7.826979293989726e-32
 62
256
 0
LINE
 8
Layer0_S_
10
1238.057375174648
20
1.5000000000000029
30
7.826979293989726e-32
11
1238.3161942197505
21
1.5340741737109347
31
7.826979293989726e-32
 62
256
 0
LINE
 8
Layer0_S_
10
1238.3161942197505
20
1.5340741737109347
30
7.826979293989726e-32
11
1238.5573751746479
21
1.6339745962155676
31
7.826979293989726e-32
 62
256
 0
LINE
 8
Layer0_S_
10
1238.5573751746479
20
1.6339745962155676
30
7.826979293989726e-32
11
1238.7644819558345
21
1.7928932188134574
31
7.826979293989726e-32
 62
256
 0
LINE
 8
Layer0_S_
10
1238.7644819558345
20
1.7928932188134574
30
7.826979293989726e-32
11
1238.9234005784324
21
2.0000000000000018
31
7.826979293989726e-32
 62
256
 0
LINE
 8
Layer0_S_
10
1238.9234005784324
20
2.0000000000000018
30
7.826979293989726e-32
11
1239.023301000937
21
2.241180954897484
31
7.826979293989726e-32
 62
256
 0
LINE
 8
Layer0_S_
10
1239.023301000937
20
2.241180954897484
30
7.826979293989726e-32
11
1239.057375174648
21
2.500000000000001
31
7.826979293989726e-32
 62
256
 0
LINE
 8
Layer0_S_
10
1244.0573751746479
20
2.500000000000001
30
7.826979293989726e-32
11
1244.091449348359
21
2.241180954897484
31
7.826979293989726e-32
 62
256
 0
LINE
 8
Layer0_S_
10
1244.091449348359
20
2.241180954897484
30
7.826979293989726e-32
11
1244.1913497708636
21
2.0000000000000018
31
7.826979293989726e-32
 62
256
 0
LINE
 8
Layer0_S_
10
1244.1913497708636
20
2.0000000000000018
30
7.826979293989726e-32
11
1244.3502683934614
21
1.7928932188134574
31
7.826979293989726e-32
 62
256
 0
LINE
 8
Layer0_S_
10
1244.3502683934614
20
1.7928932188134574
30
7.826979293989726e-32
11
1244.557375174648
21
1.6339745962155618
31
7.826979293989726e-32
 62
256
 0
LINE
 8
Layer0_S_
10
1244.557375174648
20
1.6339745962155618
30
7.826979293989726e-32
11
1244.7985561295454
21
1.5340741737109347
31
7.826979293989726e-32
 62
256
 0
LINE
 8
Layer0_S_
10
1244.7985561295454
20
1.5340741737109347
30
7.826979293989726e-32
11
1245.0573751746479
21
1.5000000000000029
31
7.826979293989726e-32
 62
256
 0
LINE
 8
Layer0_S_
10
1245.0573751746479
20
1.5000000000000029
30
7.826979293989726e-32
11
1245.3161942197505
21
1.5340741737109347
31
7.826979293989726e-32
 62
256
 0
LINE
 8
Layer0_S_
10
1245.3161942197505
20
1.5340741737109347
30
7.826979293989726e-32
11
1245.5573751746479
21
1.6339745962155618
31
7.826979293989726e-32
 62
256
 0
LINE
 8
Layer0_S_
10
1245.5573751746479
20
1.6339745962155618
30
7.826979293989726e-32
11
1245.7644819558345
21
1.7928932188134519
31
7.826979293989726e-32
 62
256
 0
LINE
 8
Layer0_S_
10
1245.7644819558345
20
1.7928932188134519
30
7.826979293989726e-32
11
1245.9234005784324
21
2.0000000000000018
31
7.826979293989726e-32
 62
256
 0
LINE
 8
Layer0_S_
10
1245.9234005784324
20
2.0000000000000018
30
7.826979293989726e-32
11
1246.023301000937
21
2.2411809548974784
31
7.826979293989726e-32
 62
256
 0
LINE
 8
Layer0_S_
10
1246.023301000937
20
2.2411809548974784
30
7.826979293989726e-32
11
1246.057375174648
21
2.500000000000001
31
7.826979293989726e-32
 62
256
 0
LINE
 8
Layer0_S_
10
1251.0573751746479
20
2.500000000000001
30
7.826979293989726e-32
11
1251.091449348359
21
2.2411809548974784
31
7.826979293989726e-32
 62
256
 0
LINE
 8
Layer0_S_
10
1251.091449348359
20
2.2411809548974784
30
7.826979293989726e-32
11
1251.1913497708636
21
2.0000000000000018
31
7.826979293989726e-32
 62
256
 0
LINE
 8
Layer0_S_
10
1251.1913497708636
20
2.0000000000000018
30
7.826979293989726e-32
11
1251.3502683934614
21
1.7928932188134519
31
0.0
 62
256
 0
LINE
 8
Layer0_S_
10
1251.3502683934614
20
1.7928932188134519
30
0.0
11
1251.557375174648
21
1.6339745962155618
31
0.0
 62
256
 0
LINE
 8
Layer0_S_
10
1251.557375174648
20
1.6339745962155618
30
0.0
11
1251.7985561295454
21
1.5340741737109347
31
0.0
 62
256
 0
LINE
 8
Layer0_S_
10
1251.7985561295454
20
1.5340741737109347
30
0.0
11
1252.0573751746479
21
1.5000000000000029
31
0.0
 62
256
 0
LINE
 8
Layer0_S_
10
1252.0573751746479
20
1.5000000000000029
30
0.0
11
1252.3161942197505
21
1.5340741737109347
31
0.0
 62
256
 0
LINE
 8
Layer0_S_
10
1252.3161942197505
20
1.5340741737109347
30
0.0
11
1252.557375174648
21
1.6339745962155618
31
0.0
 62
256
 0
LINE
 8
Layer0_S_
10
1252.557375174648
20
1.6339745962155618
30
0.0
11
1252.7644819558345
21
1.7928932188134574
31
0.0
 62
256
 0
LINE
 8
Layer0_S_
10
1252.7644819558345
20
1.7928932188134574
30
0.0
11
1252.9234005784324
21
2.0000000000000018
31
7.826979293989726e-32
 62
256
 0
LINE
 8
Layer0_S_
10
1252.9234005784324
20
2.0000000000000018
30
7.826979293989726e-32
11
1253.023301000937
21
2.2411809548974784
31
7.826979293989726e-32
 62
256
 0
LINE
 8
Layer0_S_
10
1253.023301000937
20
2.2411809548974784
30
7.826979293989726e-32
11
1253.057375174648
21
2.500000000000001
31
7.826979293989726e-32
 62
256
 0
LINE
 8
Layer0_S_
10
1258.057375174648
20
2.500000000000001
30
7.826979293989726e-32
11
1258.0914493483588
21
2.2411809548974784
31
7.826979293989726e-32
 62
256
 0
LINE
 8
Layer0_S_
10
1258.0914493483588
20
2.2411809548974784
30
7.826979293989726e-32
11
1258.1913497708636
21
2.0000000000000018
31
7.826979293989726e-32
 62
256
 0
LINE
 8
Layer0_S_
10
1258.1913497708636
20
2.0000000000000018
30
7.826979293989726e-32
11
1258.3502683934614
21
1.7928932188134519
31
7.826979293989726e-32
 62
256
 0
LINE
 8
Layer0_S_
10
1258.3502683934614
20
1.7928932188134519
30
7.826979293989726e-32
11
1258.5573751746479
21
1.6339745962155618
31
7.826979293989726e-32
 62
256
 0
LINE
 8
Layer0_S_
10
1258.5573751746479
20
1.6339745962155618
30
7.826979293989726e-32
11
1258.7985561295454
21
1.5340741737109347
31
0.0
 62
256
 0
LINE
 8
Layer0_S_
10
1258.7985561295454
20
1.5340741737109347
30
0.0
11
1259.0573751746479
21
1.5000000000000029
31
0.0
 62
256
 0
LINE
 8
Layer0_S_
10
1259.0573751746479
20
1.5000000000000029
30
0.0
11
1259.3161942197505
21
1.5340741737109347
31
0.0
 62
256
 0
LINE
 8
Layer0_S_
10
1259.3161942197505
20
1.5340741737109347
30
0.0
11
1259.557375174648
21
1.6339745962155618
31
0.0
 62
256
 0
LINE
 8
Layer0_S_
10
1259.557375174648
20
1.6339745962155618
30
0.0
11
1259.7644819558345
21
1.7928932188134574
31
0.0
 62
256
 0
LINE
 8
Layer0_S_
10
1259.7644819558345
20
1.7928932188134574
30
0.0
11
1259.9234005784324
21
2.0000000000000018
31
0.0
 62
256
 0
LINE
 8
Layer0_S_
10
1259.9234005784324
20
2.0000000000000018
30
0.0
11
1260.0233010009372
21
2.2411809548974784
31
0.0
 62
256
 0
LINE
 8
Layer0_S_
10
1260.0233010009372
20
2.2411809548974784
30
0.0
11
1260.0573751746479
21
2.500000000000001
31
7.826979293989726e-32
 62
256
 0
LINE
 8
Layer0_S_
10
1265.057375174648
20
2.500000000000001
30
7.826979293989726e-32
11
1265.0914493483588
21
2.2411809548974784
31
7.826979293989726e-32
 62
256
 0
LINE
 8
Layer0_S_
10
1265.0914493483588
20
2.2411809548974784
30
7.826979293989726e-32
11
1265.1913497708636
21
2.0000000000000018
31
7.826979293989726e-32
 62
256
 0
LINE
 8
Layer0_S_
10
1265.1913497708636
20
2.0000000000000018
30
7.826979293989726e-32
11
1265.3502683934614
21
1.7928932188134574
31
7.826979293989726e-32
 62
256
 0
LINE
 8
Layer0_S_
10
1265.3502683934614
20
1.7928932188134574
30
7.826979293989726e-32
11
1265.5573751746479
21
1.6339745962155618
31
7.826979293989726e-32
 62
256
 0
LINE
 8
Layer0_S_
10
1265.5573751746479
20
1.6339745962155618
30
7.826979293989726e-32
11
1265.7985561295454
21
1.5340741737109347
31
7.826979293989726e-32
 62
256
 0
LINE
 8
Layer0_S_
10
1265.7985561295454
20
1.5340741737109347
30
7.826979293989726e-32
11
1266.057375174648
21
1.5000000000000029
31
7.826979293989726e-32
 62
256
 0
LINE
 8
Layer0_S_
10
1266.057375174648
20
1.5000000000000029
30
7.826979293989726e-32
11
1266.3161942197505
21
1.5340741737109347
31
7.826979293989726e-32
 62
256
 0
LINE
 8
Layer0_S_
10
1266.3161942197505
20
1.5340741737109347
30
7.826979293989726e-32
11
1266.5573751746479
21
1.6339745962155618
31
7.826979293989726e-32
 62
256
 0
LINE
 8
Layer0_S_
10
1266.5573751746479
20
1.6339745962155618
30
7.826979293989726e-32
11
1266.7644819558345
21
1.7928932188134574
31
7.826979293989726e-32
 62
256
 0
LINE
 8
Layer0_S_
10
1266.7644819558345
20
1.7928932188134574
30
7.826979293989726e-32
11
1266.9234005784324
21
2.0000000000000018
31
7.826979293989726e-32
 62
256
 0
LINE
 8
Layer0_S_
10
1266.9234005784324
20
2.0000000000000018
30
7.826979293989726e-32
11
1267.0233010009372
21
2.2411809548974784
31
7.826979293989726e-32
 62
256
 0
LINE
 8
Layer0_S_
10
1267.0233010009372
20
2.2411809548974784
30
7.826979293989726e-32
11
1267.0573751746479
21
2.500000000000001
31
7.826979293989726e-32
 62
256
 0
LINE
 8
Layer0_S_
10
1272.0573751746479
20
2.500000000000001
30
7.826979293989726e-32
11
1272.091449348359
21
2.2411809548974784
31
7.826979293989726e-32
 62
256
 0
LINE
 8
Layer0_S_
10
1272.091449348359
20
2.2411809548974784
30
7.826979293989726e-32
11
1272.1913497708636
21
2.0000000000000018
31
7.826979293989726e-32
 62
256
 0
LINE
 8
Layer0_S_
10
1272.1913497708636
20
2.0000000000000018
30
7.826979293989726e-32
11
1272.3502683934614
21
1.7928932188134519
31
7.826979293989726e-32
 62
256
 0
LINE
 8
Layer0_S_
10
1272.3502683934614
20
1.7928932188134519
30
7.826979293989726e-32
11
1272.5573751746479
21
1.6339745962155618
31
7.826979293989726e-32
 62
256
 0
LINE
 8
Layer0_S_
10
1272.5573751746479
20
1.6339745962155618
30
7.826979293989726e-32
11
1272.7985561295454
21
1.5340741737109347
31
0.0
 62
256
 0
LINE
 8
Layer0_S_
10
1272.7985561295454
20
1.5340741737109347
30
0.0
11
1273.057375174648
21
1.5000000000000029
31
0.0
 62
256
 0
LINE
 8
Layer0_S_
10
1273.057375174648
20
1.5000000000000029
30
0.0
11
1273.3161942197505
21
1.5340741737109347
31
0.0
 62
256
 0
LINE
 8
Layer0_S_
10
1273.3161942197505
20
1.5340741737109347
30
0.0
11
1273.5573751746479
21
1.6339745962155618
31
0.0
 62
256
 0
LINE
 8
Layer0_S_
10
1273.5573751746479
20
1.6339745962155618
30
0.0
11
1273.7644819558345
21
1.7928932188134574
31
0.0
 62
256
 0
LINE
 8
Layer0_S_
10
1273.7644819558345
20
1.7928932188134574
30
0.0
11
1273.9234005784324
21
2.0000000000000018
31
0.0
 62
256
 0
LINE
 8
Layer0_S_
10
1273.9234005784324
20
2.0000000000000018
30
0.0
11
1274.023301000937
21
2.2411809548974784
31
0.0
 62
256
 0
LINE
 8
Layer0_S_
10
1274.023301000937
20
2.2411809548974784
30
0.0
11
1274.0573751746479
21
2.500000000000001
31
7.826979293989726e-32
 62
256
 0
LINE
 8
Layer0_S_
10
1279.0573751746479
20
2.500000000000001
30
7.826979293989726e-32
11
1279.091449348359
21
2.2411809548974784
31
7.826979293989726e-32
 62
256
 0
LINE
 8
Layer0_S_
10
1279.091449348359
20
2.2411809548974784
30
7.826979293989726e-32
11
1279.1913497708636
21
2.0000000000000018
31
7.826979293989726e-32
 62
256
 0
LINE
 8
Layer0_S_
10
1279.1913497708636
20
2.0000000000000018
30
7.826979293989726e-32
11
1279.3502683934614
21
1.7928932188134574
31
7.826979293989726e-32
 62
256
 0
LINE
 8
Layer0_S_
10
1279.3502683934614
20
1.7928932188134574
30
7.826979293989726e-32
11
1279.557375174648
21
1.6339745962155618
31
0.0
 62
256
 0
LINE
 8
Layer0_S_
10
1279.557375174648
20
1.6339745962155618
30
0.0
11
1279.7985561295454
21
1.5340741737109347
31
0.0
 62
256
 0
LINE
 8
Layer0_S_
10
1279.7985561295454
20
1.5340741737109347
30
0.0
11
1280.057375174648
21
1.5000000000000029
31
0.0
 62
256
 0
LINE
 8
Layer0_S_
10
1280.057375174648
20
1.5000000000000029
30
0.0
11
1280.3161942197503
21
1.5340741737109347
31
0.0
 62
256
 0
LINE
 8
Layer0_S_
10
1280.3161942197503
20
1.5340741737109347
30
0.0
11
1280.5573751746479
21
1.6339745962155676
31
0.0
 62
256
 0
LINE
 8
Layer0_S_
10
1280.5573751746479
20
1.6339745962155676
30
0.0
11
1280.7644819558345
21
1.7928932188134574
31
7.826979293989726e-32
 62
256
 0
LINE
 8
Layer0_S_
10
1280.7644819558345
20
1.7928932188134574
30
7.826979293989726e-32
11
1280.9234005784324
21
2.0000000000000018
31
7.826979293989726e-32
 62
256
 0
LINE
 8
Layer0_S_
10
1280.9234005784324
20
2.0000000000000018
30
7.826979293989726e-32
11
1281.023301000937
21
2.241180954897484
31
7.826979293989726e-32
 62
256
 0
LINE
 8
Layer0_S_
10
1281.023301000937
20
2.241180954897484
30
7.826979293989726e-32
11
1281.057375174648
21
2.500000000000001
31
7.826979293989726e-32
 62
256
 0
LINE
 8
Layer0_S_
10
1286.0573751746479
20
2.500000000000001
30
7.826979293989726e-32
11
1286.091449348359
21
2.2411809548974784
31
7.826979293989726e-32
 62
256
 0
LINE
 8
Layer0_S_
10
1286.091449348359
20
2.2411809548974784
30
7.826979293989726e-32
11
1286.1913497708636
21
2.0000000000000018
31
7.826979293989726e-32
 62
256
 0
LINE
 8
Layer0_S_
10
1286.1913497708636
20
2.0000000000000018
30
7.826979293989726e-32
11
1286.3502683934614
21
1.7928932188134574
31
7.826979293989726e-32
 62
256
 0
LINE
 8
Layer0_S_
10
1286.3502683934614
20
1.7928932188134574
30
7.826979293989726e-32
11
1286.557375174648
21
1.6339745962155618
31
7.826979293989726e-32
 62
256
 0
LINE
 8
Layer0_S_
10
1286.557375174648
20
1.6339745962155618
30
7.826979293989726e-32
11
1286.7985561295454
21
1.5340741737109347
31
7.826979293989726e-32
 62
256
 0
LINE
 8
Layer0_S_
10
1286.7985561295454
20
1.5340741737109347
30
7.826979293989726e-32
11
1287.0573751746479
21
1.5000000000000029
31
7.826979293989726e-32
 62
256
 0
LINE
 8
Layer0_S_
10
1287.0573751746479
20
1.5000000000000029
30
7.826979293989726e-32
11
1287.3161942197505
21
1.5340741737109347
31
7.826979293989726e-32
 62
256
 0
LINE
 8
Layer0_S_
10
1287.3161942197505
20
1.5340741737109347
30
7.826979293989726e-32
11
1287.5573751746479
21
1.6339745962155618
31
7.826979293989726e-32
 62
256
 0
LINE
 8
Layer0_S_
10
1287.5573751746479
20
1.6339745962155618
30
7.826979293989726e-32
11
1287.7644819558345
21
1.7928932188134574
31
7.826979293989726e-32
 62
256
 0
LINE
 8
Layer0_S_
10
1287.7644819558345
20
1.7928932188134574
30
7.826979293989726e-32
11
1287.9234005784324
21
2.0000000000000018
31
7.826979293989726e-32
 62
256
 0
LINE
 8
Layer0_S_
10
1287.9234005784324
20
2.0000000000000018
30
7.826979293989726e-32
11
1288.023301000937
21
2.2411809548974784
31
7.826979293989726e-32
 62
256
 0
LINE
 8
Layer0_S_
10
1288.023301000937
20
2.2411809548974784
30
7.826979293989726e-32
11
1288.057375174648
21
2.500000000000001
31
7.826979293989726e-32
 62
256
 0
LINE
 8
Layer0_S_
10
1293.057375174648
20
2.500000000000001
30
7.826979293989726e-32
11
1293.091449348359
21
2.2411809548974784
31
7.826979293989726e-32
 62
256
 0
LINE
 8
Layer0_S_
10
1293.091449348359
20
2.2411809548974784
30
7.826979293989726e-32
11
1293.1913497708636
21
2.0000000000000018
31
7.826979293989726e-32
 62
256
 0
LINE
 8
Layer0_S_
10
1293.1913497708636
20
2.0000000000000018
30
7.826979293989726e-32
11
1293.3502683934614
21
1.7928932188134574
31
7.826979293989726e-32
 62
256
 0
LINE
 8
Layer0_S_
10
1293.3502683934614
20
1.7928932188134574
30
7.826979293989726e-32
11
1293.557375174648
21
1.6339745962155618
31
7.826979293989726e-32
 62
256
 0
LINE
 8
Layer0_S_
10
1293.557375174648
20
1.6339745962155618
30
7.826979293989726e-32
11
1293.7985561295454
21
1.5340741737109347
31
7.826979293989726e-32
 62
256
 0
LINE
 8
Layer0_S_
10
1293.7985561295454
20
1.5340741737109347
30
7.826979293989726e-32
11
1294.0573751746479
21
1.5000000000000029
31
7.826979293989726e-32
 62
256
 0
LINE
 8
Layer0_S_
10
1294.0573751746479
20
1.5000000000000029
30
7.826979293989726e-32
11
1294.3161942197505
21
1.5340741737109347
31
7.826979293989726e-32
 62
256
 0
LINE
 8
Layer0_S_
10
1294.3161942197505
20
1.5340741737109347
30
7.826979293989726e-32
11
1294.557375174648
21
1.6339745962155618
31
7.826979293989726e-32
 62
256
 0
LINE
 8
Layer0_S_
10
1294.557375174648
20
1.6339745962155618
30
7.826979293989726e-32
11
1294.7644819558345
21
1.7928932188134574
31
7.826979293989726e-32
 62
256
 0
LINE
 8
Layer0_S_
10
1294.7644819558345
20
1.7928932188134574
30
7.826979293989726e-32
11
1294.9234005784324
21
2.0000000000000018
31
7.826979293989726e-32
 62
256
 0
LINE
 8
Layer0_S_
10
1294.9234005784324
20
2.0000000000000018
30
7.826979293989726e-32
11
1295.023301000937
21
2.2411809548974784
31
7.826979293989726e-32
 62
256
 0
LINE
 8
Layer0_S_
10
1295.023301000937
20
2.2411809548974784
30
7.826979293989726e-32
11
1295.0573751746479
21
2.500000000000001
31
7.826979293989726e-32
 62
256
 0
LINE
 8
Layer0_S_
10
1246.557375174648
20
24.0
30
1.127986593019159e-14
11
1246.5060443428908
21
23.21684284667969
31
1.127986593019159e-14
 62
256
 0
LINE
 8
Layer0_S_
10
1246.5060443428908
20
23.21684284667969
30
1.127986593019159e-14
11
1246.3529301323824
21
22.447085729384877
31
1.127986593019159e-14
 62
256
 0
LINE
 8
Layer0_S_
10
1246.3529301323824
20
22.447085729384877
30
1.127986593019159e-14
11
1246.1006523697158
21
21.703899405809462
31
1.127986593019159e-14
 62
256
 0
LINE
 8
Layer0_S_
10
1246.1006523697158
20
21.703899405809462
30
1.127986593019159e-14
11
1245.7535275973546
21
21.0
31
1.127986593019159e-14
 62
256
 0
LINE
 8
Layer0_S_
10
1245.7535275973546
20
21.0
30
1.127986593019159e-14
11
1245.3174952163956
21
20.34743142594768
31
1.127986593019159e-14
 62
256
 0
LINE
 8
Layer0_S_
10
1245.3174952163956
20
20.34743142594768
30
1.127986593019159e-14
11
1244.8000158617674
21
19.757359312880716
31
1.127986593019159e-14
 62
256
 0
LINE
 8
Layer0_S_
10
1244.8000158617674
20
19.757359312880716
30
1.127986593019159e-14
11
1244.2099437487004
21
19.23987995825259
31
1.127986593019159e-14
 62
256
 0
LINE
 8
Layer0_S_
10
1244.2099437487004
20
19.23987995825259
30
1.127986593019159e-14
11
1243.557375174648
21
18.80384757729337
31
1.127986593019159e-14
 62
256
 0
LINE
 8
Layer0_S_
10
1243.557375174648
20
18.80384757729337
30
1.127986593019159e-14
11
1242.8534757688387
21
18.456722804932284
31
1.127986593019159e-14
 62
256
 0
LINE
 8
Layer0_S_
10
1242.8534757688387
20
18.456722804932284
30
1.127986593019159e-14
11
1242.110289445263
21
18.204445042265593
31
1.127986593019159e-14
 62
256
 0
LINE
 8
Layer0_S_
10
1242.110289445263
20
18.204445042265593
30
1.127986593019159e-14
11
1241.3405323279683
21
18.051330831757138
31
1.127986593019159e-14
 62
256
 0
LINE
 8
Layer0_S_
10
1241.3405323279683
20
18.051330831757138
30
1.127986593019159e-14
11
1240.557375174648
21
17.999999999999996
31
1.127986593019159e-14
 62
256
 0
LINE
 8
Layer0_S_
10
1240.557375174648
20
40.50000000000001
30
5.639932965095795e-15
11
1241.3405323279683
21
40.448669168242866
31
5.643693090805117e-15
 62
256
 0
LINE
 8
Layer0_S_
10
1241.3405323279683
20
40.448669168242866
30
5.643693090805117e-15
11
1242.110289445263
21
40.29555495773442
31
5.647388879721049e-15
 62
256
 0
LINE
 8
Layer0_S_
10
1242.110289445263
20
40.29555495773442
30
5.647388879721049e-15
11
1242.8534757688385
21
40.04327719506772
31
5.650957095870574e-15
 62
256
 0
LINE
 8
Layer0_S_
10
1242.8534757688385
20
40.04327719506772
30
5.650957095870574e-15
11
1243.557375174648
21
39.69615242270663
31
5.6543366860860746e-15
 62
256
 0
LINE
 8
Layer0_S_
10
1243.557375174648
20
39.69615242270663
30
5.6543366860860746e-15
11
1244.2099437487004
21
39.26012004174741
31
5.657469824641966e-15
 62
256
 0
LINE
 8
Layer0_S_
10
1244.2099437487004
20
39.26012004174741
30
5.657469824641966e-15
11
1244.8000158617674
21
38.74264068711929
31
5.6603029026688864e-15
 62
256
 0
LINE
 8
Layer0_S_
10
1244.8000158617674
20
38.74264068711929
30
5.6603029026688864e-15
11
1245.3174952163956
21
38.15256857405233
31
5.662787445416317e-15
 62
256
 0
LINE
 8
Layer0_S_
10
1245.3174952163956
20
38.15256857405233
30
5.662787445416317e-15
11
1245.7535275973546
21
37.50000000000001
31
5.664880941669005e-15
 62
256
 0
LINE
 8
Layer0_S_
10
1245.7535275973546
20
37.50000000000001
30
5.664880941669005e-15
11
1246.1006523697158
21
36.79610059419054
31
5.666547571125639e-15
 62
256
 0
LINE
 8
Layer0_S_
10
1246.1006523697158
20
36.79610059419054
30
5.666547571125639e-15
11
1246.3529301323824
21
36.05291427061513
31
5.667758817294141e-15
 62
256
 0
LINE
 8
Layer0_S_
10
1246.3529301323824
20
36.05291427061513
30
5.667758817294141e-15
11
1246.5060443428908
21
35.28315715332032
31
5.668493955416744e-15
 62
256
 0
LINE
 8
Layer0_S_
10
1246.5060443428908
20
35.28315715332032
30
5.668493955416744e-15
11
1246.557375174648
21
34.50000000000001
31
5.639932965095795e-15
 62
256
 0
LINE
 8
Layer0_S_
10
1164.5573751746479
20
40.49999999999999
30
5.639932965095795e-15
11
1163.7742180213277
21
40.44866916824285
31
5.636172839386473e-15
 62
256
 0
LINE
 8
Layer0_S_
10
1163.7742180213277
20
40.44866916824285
30
5.636172839386473e-15
11
1163.0044609040328
21
40.295554957734396
31
5.632477050470541e-15
 62
256
 0
LINE
 8
Layer0_S_
10
1163.0044609040328
20
40.295554957734396
30
5.632477050470541e-15
11
1162.2612745804574
21
40.04327719506771
31
5.628908834321016e-15
 62
256
 0
LINE
 8
Layer0_S_
10
1162.2612745804574
20
40.04327719506771
30
5.628908834321016e-15
11
1161.5573751746479
21
39.696152422706625
31
5.625529244105516e-15
 62
256
 0
LINE
 8
Layer0_S_
10
1161.5573751746479
20
39.696152422706625
30
5.625529244105516e-15
11
1160.9048066005957
21
39.260120041747406
31
5.6223961055496246e-15
 62
256
 0
LINE
 8
Layer0_S_
10
1160.9048066005957
20
39.260120041747406
30
5.6223961055496246e-15
11
1160.3147344875288
21
38.74264068711928
31
5.6195630275227034e-15
 62
256
 0
LINE
 8
Layer0_S_
10
1160.3147344875288
20
38.74264068711928
30
5.6195630275227034e-15
11
1159.7972551329005
21
38.15256857405232
31
5.617078484775273e-15
 62
256
 0
LINE
 8
Layer0_S_
10
1159.7972551329005
20
38.15256857405232
30
5.617078484775273e-15
11
1159.3612227519413
21
37.49999999999999
31
5.6149849885225845e-15
 62
256
 0
LINE
 8
Layer0_S_
10
1159.3612227519413
20
37.49999999999999
30
5.6149849885225845e-15
11
1159.0140979795804
21
36.796100594190534
31
5.6133183590659506e-15
 62
256
 0
LINE
 8
Layer0_S_
10
1159.0140979795804
20
36.796100594190534
30
5.6133183590659506e-15
11
1158.7618202169135
21
36.05291427061512
31
5.612107112897449e-15
 62
256
 0
LINE
 8
Layer0_S_
10
1158.7618202169135
20
36.05291427061512
30
5.612107112897449e-15
11
1158.608706006405
21
35.2831571533203
31
5.611371974774846e-15
 62
256
 0
LINE
 8
Layer0_S_
10
1158.608706006405
20
35.2831571533203
30
5.611371974774846e-15
11
1158.557375174648
21
34.5
31
5.639932965095795e-15
 62
256
 0
LINE
 8
Layer0_S_
10
1158.5573751746479
20
24.0
30
7.826979293989726e-32
11
1158.608706006405
21
23.216842846679693
31
7.826979293989726e-32
 62
256
 0
LINE
 8
Layer0_S_
10
1158.608706006405
20
23.216842846679693
30
7.826979293989726e-32
11
1158.7618202169135
21
22.44708572938488
31
7.826979293989726e-32
 62
256
 0
LINE
 8
Layer0_S_
10
1158.7618202169135
20
22.44708572938488
30
7.826979293989726e-32
11
1159.0140979795804
21
21.70389940580947
31
7.826979293989726e-32
 62
256
 0
LINE
 8
Layer0_S_
10
1159.0140979795804
20
21.70389940580947
30
7.826979293989726e-32
11
1159.3612227519413
21
21.00000000000001
31
7.826979293989726e-32
 62
256
 0
LINE
 8
Layer0_S_
10
1159.3612227519413
20
21.00000000000001
30
7.826979293989726e-32
11
1159.7972551329005
21
20.347431425947686
31
7.826979293989726e-32
 62
256
 0
LINE
 8
Layer0_S_
10
1159.7972551329005
20
20.347431425947686
30
7.826979293989726e-32
11
1160.3147344875288
21
19.757359312880727
31
7.826979293989726e-32
 62
256
 0
LINE
 8
Layer0_S_
10
1160.3147344875288
20
19.757359312880727
30
7.826979293989726e-32
11
1160.9048066005955
21
19.2398799582526
31
7.826979293989726e-32
 62
256
 0
LINE
 8
Layer0_S_
10
1160.9048066005955
20
19.2398799582526
30
7.826979293989726e-32
11
1161.5573751746479
21
18.803847577293382
31
7.826979293989726e-32
 62
256
 0
LINE
 8
Layer0_S_
10
1161.5573751746479
20
18.803847577293382
30
7.826979293989726e-32
11
1162.2612745804574
21
18.456722804932294
31
7.826979293989726e-32
 62
256
 0
LINE
 8
Layer0_S_
10
1162.2612745804574
20
18.456722804932294
30
7.826979293989726e-32
11
1163.0044609040328
21
18.204445042265608
31
7.826979293989726e-32
 62
256
 0
LINE
 8
Layer0_S_
10
1163.0044609040328
20
18.204445042265608
30
7.826979293989726e-32
11
1163.7742180213277
21
18.051330831757156
31
7.826979293989726e-32
 62
256
 0
LINE
 8
Layer0_S_
10
1163.7742180213277
20
18.051330831757156
30
7.826979293989726e-32
11
1164.5573751746479
21
18.00000000000001
31
7.826979293989726e-32
 62
256
 0
LINE
 8
Layer0_S_
10
1149.5573751746479
20
12.0
30
7.826979293989726e-32
11
1149.6595976957808
21
12.776457135307563
31
7.826979293989726e-32
 62
256
 0
LINE
 8
Layer0_S_
10
1149.6595976957808
20
12.776457135307563
30
7.826979293989726e-32
11
1149.9592989632947
21
13.499999999999998
31
7.826979293989726e-32
 62
256
 0
LINE
 8
Layer0_S_
10
1149.9592989632947
20
13.499999999999998
30
7.826979293989726e-32
11
1150.4360548310883
21
14.121320343559637
31
7.826979293989726e-32
 62
256
 0
LINE
 8
Layer0_S_
10
1150.4360548310883
20
14.121320343559637
30
7.826979293989726e-32
11
1151.0573751746479
21
14.598076211353307
31
7.826979293989726e-32
 62
256
 0
LINE
 8
Layer0_S_
10
1151.0573751746479
20
14.598076211353307
30
7.826979293989726e-32
11
1151.7809180393403
21
14.8977774788672
31
7.826979293989726e-32
 62
256
 0
LINE
 8
Layer0_S_
10
1151.7809180393403
20
14.8977774788672
30
7.826979293989726e-32
11
1152.557375174648
21
14.99999999999999
31
7.826979293989726e-32
 62
256
 0
LINE
 8
Layer0_S_
10
1152.557375174648
20
14.99999999999999
30
7.826979293989726e-32
11
1153.3338323099556
21
14.8977774788672
31
7.826979293989726e-32
 62
256
 0
LINE
 8
Layer0_S_
10
1153.3338323099556
20
14.8977774788672
30
7.826979293989726e-32
11
1154.057375174648
21
14.598076211353312
31
7.826979293989726e-32
 62
256
 0
LINE
 8
Layer0_S_
10
1154.057375174648
20
14.598076211353312
30
7.826979293989726e-32
11
1154.6786955182076
21
14.121320343559637
31
7.826979293989726e-32
 62
256
 0
LINE
 8
Layer0_S_
10
1154.6786955182076
20
14.121320343559637
30
7.826979293989726e-32
11
1155.1554513860012
21
13.499999999999998
31
7.826979293989726e-32
 62
256
 0
LINE
 8
Layer0_S_
10
1155.1554513860012
20
13.499999999999998
30
7.826979293989726e-32
11
1155.4551526535151
21
12.776457135307563
31
7.826979293989726e-32
 62
256
 0
LINE
 8
Layer0_S_
10
1155.4551526535151
20
12.776457135307563
30
7.826979293989726e-32
11
1155.557375174648
21
12.0
31
7.826979293989726e-32
 62
256
 0
LINE
 8
Layer0_S_
10
1155.557375174648
20
12.0
30
7.826979293989726e-32
11
1155.4551526535151
21
11.223542864692444
31
7.826979293989726e-32
 62
256
 0
LINE
 8
Layer0_S_
10
1155.4551526535151
20
11.223542864692444
30
7.826979293989726e-32
11
1155.1554513860012
21
10.500000000000004
31
7.826979293989726e-32
 62
256
 0
LINE
 8
Layer0_S_
10
1155.1554513860012
20
10.500000000000004
30
7.826979293989726e-32
11
1154.6786955182076
21
9.878679656440363
31
7.826979293989726e-32
 62
256
 0
LINE
 8
Layer0_S_
10
1154.6786955182076
20
9.878679656440363
30
7.826979293989726e-32
11
1154.057375174648
21
9.401923788646695
31
7.826979293989726e-32
 62
256
 0
LINE
 8
Layer0_S_
10
1154.057375174648
20
9.401923788646695
30
7.826979293989726e-32
11
1153.3338323099556
21
9.102222521132807
31
7.826979293989726e-32
 62
256
 0
LINE
 8
Layer0_S_
10
1153.3338323099556
20
9.102222521132807
30
7.826979293989726e-32
11
1152.557375174648
21
9.000000000000012
31
7.826979293989726e-32
 62
256
 0
LINE
 8
Layer0_S_
10
1152.557375174648
20
9.000000000000012
30
7.826979293989726e-32
11
1151.7809180393403
21
9.102222521132802
31
7.826979293989726e-32
 62
256
 0
LINE
 8
Layer0_S_
10
1151.7809180393403
20
9.102222521132802
30
7.826979293989726e-32
11
1151.0573751746479
21
9.40192378864669
31
7.826979293989726e-32
 62
256
 0
LINE
 8
Layer0_S_
10
1151.0573751746479
20
9.40192378864669
30
7.826979293989726e-32
11
1150.4360548310883
21
9.878679656440363
31
7.826979293989726e-32
 62
256
 0
LINE
 8
Layer0_S_
10
1150.4360548310883
20
9.878679656440363
30
7.826979293989726e-32
11
1149.9592989632947
21
10.500000000000004
31
7.826979293989726e-32
 62
256
 0
LINE
 8
Layer0_S_
10
1149.9592989632947
20
10.500000000000004
30
7.826979293989726e-32
11
1149.6595976957808
21
11.223542864692439
31
7.826979293989726e-32
 62
256
 0
LINE
 8
Layer0_S_
10
1149.6595976957808
20
11.223542864692439
30
7.826979293989726e-32
11
1149.5573751746479
21
12.0
31
7.826979293989726e-32
 62
256
 0
LINE
 8
Layer0_S_
10
1310.5573751746479
20
12.0
30
7.826979293989726e-32
11
1310.6595976957808
21
12.776457135307563
31
7.826979293989726e-32
 62
256
 0
LINE
 8
Layer0_S_
10
1310.6595976957808
20
12.776457135307563
30
7.826979293989726e-32
11
1310.9592989632947
21
13.499999999999998
31
7.826979293989726e-32
 62
256
 0
LINE
 8
Layer0_S_
10
1310.9592989632947
20
13.499999999999998
30
7.826979293989726e-32
11
1311.4360548310883
21
14.121320343559642
31
7.826979293989726e-32
 62
256
 0
LINE
 8
Layer0_S_
10
1311.4360548310883
20
14.121320343559642
30
7.826979293989726e-32
11
1312.057375174648
21
14.598076211353312
31
7.826979293989726e-32
 62
256
 0
LINE
 8
Layer0_S_
10
1312.057375174648
20
14.598076211353312
30
7.826979293989726e-32
11
1312.7809180393403
21
14.897777478867205
31
7.826979293989726e-32
 62
256
 0
LINE
 8
Layer0_S_
10
1312.7809180393403
20
14.897777478867205
30
7.826979293989726e-32
11
1313.557375174648
21
15.0
31
7.826979293989726e-32
 62
256
 0
LINE
 8
Layer0_S_
10
1313.557375174648
20
15.0
30
7.826979293989726e-32
11
1314.3338323099554
21
14.897777478867205
31
7.826979293989726e-32
 62
256
 0
LINE
 8
Layer0_S_
10
1314.3338323099554
20
14.897777478867205
30
7.826979293989726e-32
11
1315.057375174648
21
14.598076211353312
31
7.826979293989726e-32
 62
256
 0
LINE
 8
Layer0_S_
10
1315.057375174648
20
14.598076211353312
30
7.826979293989726e-32
11
1315.6786955182076
21
14.121320343559642
31
7.826979293989726e-32
 62
256
 0
LINE
 8
Layer0_S_
10
1315.6786955182076
20
14.121320343559642
30
7.826979293989726e-32
11
1316.1554513860015
21
13.499999999999998
31
7.826979293989726e-32
 62
256
 0
LINE
 8
Layer0_S_
10
1316.1554513860015
20
13.499999999999998
30
7.826979293989726e-32
11
1316.4551526535151
21
12.776457135307563
31
7.826979293989726e-32
 62
256
 0
LINE
 8
Layer0_S_
10
1316.4551526535151
20
12.776457135307563
30
7.826979293989726e-32
11
1316.557375174648
21
12.0
31
7.826979293989726e-32
 62
256
 0
LINE
 8
Layer0_S_
10
1316.557375174648
20
12.0
30
7.826979293989726e-32
11
1316.4551526535151
21
11.223542864692439
31
7.826979293989726e-32
 62
256
 0
LINE
 8
Layer0_S_
10
1316.4551526535151
20
11.223542864692439
30
7.826979293989726e-32
11
1316.1554513860015
21
10.500000000000004
31
7.826979293989726e-32
 62
256
 0
LINE
 8
Layer0_S_
10
1316.1554513860015
20
10.500000000000004
30
7.826979293989726e-32
11
1315.6786955182076
21
9.878679656440358
31
7.826979293989726e-32
 62
256
 0
LINE
 8
Layer0_S_
10
1315.6786955182076
20
9.878679656440358
30
7.826979293989726e-32
11
1315.057375174648
21
9.40192378864669
31
7.826979293989726e-32
 62
256
 0
LINE
 8
Layer0_S_
10
1315.057375174648
20
9.40192378864669
30
7.826979293989726e-32
11
1314.3338323099556
21
9.102222521132802
31
7.826979293989726e-32
 62
256
 0
LINE
 8
Layer0_S_
10
1314.3338323099556
20
9.102222521132802
30
7.826979293989726e-32
11
1313.557375174648
21
9.0
31
7.826979293989726e-32
 62
256
 0
LINE
 8
Layer0_S_
10
1313.557375174648
20
9.0
30
7.826979293989726e-32
11
1312.7809180393403
21
9.102222521132795
31
7.826979293989726e-32
 62
256
 0
LINE
 8
Layer0_S_
10
1312.7809180393403
20
9.102222521132795
30
7.826979293989726e-32
11
1312.057375174648
21
9.401923788646682
31
7.826979293989726e-32
 62
256
 0
LINE
 8
Layer0_S_
10
1312.057375174648
20
9.401923788646682
30
7.826979293989726e-32
11
1311.4360548310883
21
9.878679656440358
31
7.826979293989726e-32
 62
256
 0
LINE
 8
Layer0_S_
10
1311.4360548310883
20
9.878679656440358
30
7.826979293989726e-32
11
1310.9592989632947
21
10.499999999999998
31
7.826979293989726e-32
 62
256
 0
LINE
 8
Layer0_S_
10
1310.9592989632947
20
10.499999999999998
30
7.826979293989726e-32
11
1310.6595976957808
21
11.223542864692439
31
7.826979293989726e-32
 62
256
 0
LINE
 8
Layer0_S_
10
1310.6595976957808
20
11.223542864692439
30
7.826979293989726e-32
11
1310.5573751746479
21
12.0
31
7.826979293989726e-32
 62
256
 0
ENDSEC
 0
EOF
