 0
SECTION
 2
HEADER
 9
$ACADVER
 1
AC1006
 9
$LTSCALE
 40
1000.0
 0
ENDSEC
 0
SECTION
 2
TABLES
 0
TABLE
 2
LTYPE
 70
1
 0
LTYPE
 2
SKEMA_SOLID
 70
64
 3
Sketchup - Skema Ltype
 72
65
 73
0
 40
0.000000
 0
LTYPE
 2
SKEMA_DASHED
 70
64
 3
Sketchup - Skema Ltype
 72
65
 73
2
 40
0.1
 49
0.05
 49
-0.05
 0
LTYPE
 2
SKEMA_DOTTED
 70
64
 3
Sketchup - Skema Ltype
 72
65
 73
2
 40
00.1
 49
0.0
 49
-00.1
 0
ENDTAB
 0
TABLE
 2
LAYER
 70
6
 0
LAYER
 2
Layer0_S_
 70
64
 62
20
 6
SKEMA_SOLID
 0
ENDTAB
 0
TABLE
 2
STYLE
 70
0
 0
ENDTAB
 0
ENDSEC
 0
SECTION
 2
BLOCKS
 0
ENDSEC
 0
SECTION
 2
ENTITIES
 0
LINE
 8
Layer0_S_
10
1435.69671896831
20
139.81107288852084
30
1.1631430026892443e-14
11
1435.6820084256171
21
133.6516317492527
31
1.1631430026892443e-14
 62
256
 0
LINE
 8
Layer0_S_
10
1439.69671896831
20
139.99999999999991
30
1.1631430026892443e-14
11
1439.711429511003
21
133.6516317492527
31
1.1631430026892443e-14
 62
256
 0
LINE
 8
Layer0_S_
10
1596.69671896831
20
139.99999999999991
30
1.1631430026892443e-14
11
1439.69671896831
21
139.99999999999991
31
1.1631430026892443e-14
 62
256
 0
LINE
 8
Layer0_S_
10
1596.69671896831
20
139.99999999999991
30
1.1631430026892443e-14
11
1596.6820084256171
21
133.65163174925272
31
1.1631430026892443e-14
 62
256
 0
LINE
 8
Layer0_S_
10
1600.69671896831
20
139.81107288852084
30
1.1631430026892443e-14
11
1600.711429511003
21
133.65163174925272
31
1.1631430026892443e-14
 62
256
 0
LINE
 8
Layer0_S_
10
1610.69671896831
20
12.0
30
1.1631430026892443e-14
11
1610.69671896831
21
127.99999999999993
31
1.1631430026892443e-14
 62
256
 0
LINE
 8
Layer0_S_
10
1437.6967189683103
20
0.0
30
1.1631430026892443e-14
11
1598.69671896831
21
0.0
31
1.1631430026892443e-14
 62
256
 0
LINE
 8
Layer0_S_
10
1425.69671896831
20
127.99999999999993
30
1.1631430026892443e-14
11
1425.69671896831
21
12.0
31
1.1631430026892443e-14
 62
256
 0
LINE
 8
Layer0_S_
10
1435.69671896831
20
139.81107288852084
30
1.1631430026892443e-14
11
1434.2044894212886
21
139.48060681283482
31
1.1631430026892443e-14
 62
256
 0
LINE
 8
Layer0_S_
10
1434.2044894212886
20
139.48060681283482
30
1.1631430026892443e-14
11
1432.7724695925126
21
138.94311509968514
31
1.1631430026892443e-14
 62
256
 0
LINE
 8
Layer0_S_
10
1432.7724695925126
20
138.94311509968514
30
1.1631430026892443e-14
11
1431.4204543898109
21
138.22782982556296
31
1.1631430026892443e-14
 62
256
 0
LINE
 8
Layer0_S_
10
1431.4204543898109
20
138.22782982556296
30
1.1631430026892443e-14
11
1430.1704100993086
21
137.34637228064383
31
1.1631430026892443e-14
 62
256
 0
LINE
 8
Layer0_S_
10
1430.1704100993086
20
137.34637228064383
30
1.1631430026892443e-14
11
1429.0426462785451
21
136.3130635676786
31
1.1631430026892443e-14
 62
256
 0
LINE
 8
Layer0_S_
10
1429.0426462785451
20
136.3130635676786
30
1.1631430026892443e-14
11
1428.0554857856655
21
135.14469192602948
31
1.1631430026892443e-14
 62
256
 0
LINE
 8
Layer0_S_
10
1428.0554857856655
20
135.14469192602948
30
1.1631430026892443e-14
11
1427.2249670866527
21
133.86023997196398
31
1.1631430026892443e-14
 62
256
 0
LINE
 8
Layer0_S_
10
1427.2249670866527
20
133.86023997196398
30
1.1631430026892443e-14
11
1426.5645836772444
21
132.48057628675267
31
1.1631430026892443e-14
 62
256
 0
LINE
 8
Layer0_S_
10
1426.5645836772444
20
132.48057628675267
30
1.1631430026892443e-14
11
1426.0850648531573
21
131.0281163633611
31
1.1631430026892443e-14
 62
256
 0
LINE
 8
Layer0_S_
10
1426.0850648531573
20
131.0281163633611
30
1.1631430026892443e-14
11
1425.7942013904647
21
129.52645842035844
31
1.1631430026892443e-14
 62
256
 0
LINE
 8
Layer0_S_
10
1425.7942013904647
20
129.52645842035844
30
1.1631430026892443e-14
11
1425.69671896831
21
127.99999999999993
31
1.1631430026892443e-14
 62
256
 0
LINE
 8
Layer0_S_
10
1439.711429511003
20
133.6516317492527
30
1.1631430026892443e-14
11
1441.0692417507453
21
132.9624681441753
31
1.1631430026892443e-14
 62
256
 0
LINE
 8
Layer0_S_
10
1441.0692417507453
20
132.9624681441753
30
1.1631430026892443e-14
11
1442.2098447352594
21
131.9536939451224
31
1.1631430026892443e-14
 62
256
 0
LINE
 8
Layer0_S_
10
1442.2098447352594
20
131.9536939451224
30
1.1631430026892443e-14
11
1443.0597772781398
21
130.6902798303088
31
1.1631430026892443e-14
 62
256
 0
LINE
 8
Layer0_S_
10
1443.0597772781398
20
130.6902798303088
30
1.1631430026892443e-14
11
1443.5642989887224
21
129.2535967071018
31
1.1631430026892443e-14
 62
256
 0
LINE
 8
Layer0_S_
10
1443.5642989887224
20
129.2535967071018
30
1.1631430026892443e-14
11
1443.6909158581984
21
127.73617497227609
31
1.1631430026892443e-14
 62
256
 0
LINE
 8
Layer0_S_
10
1443.6909158581984
20
127.73617497227609
30
1.1631430026892443e-14
11
1443.431473054801
21
126.23574503898274
31
1.1631430026892443e-14
 62
256
 0
LINE
 8
Layer0_S_
10
1443.431473054801
20
126.23574503898274
30
1.1631430026892443e-14
11
1442.8026801404035
21
124.84894295369415
31
1.1631430026892443e-14
 62
256
 0
LINE
 8
Layer0_S_
10
1442.8026801404035
20
124.84894295369415
30
1.1631430026892443e-14
11
1441.845034881645
21
123.66508649646015
31
1.1631430026892443e-14
 62
256
 0
LINE
 8
Layer0_S_
10
1441.845034881645
20
123.66508649646015
30
1.1631430026892443e-14
11
1440.6202149681503
21
122.76042261829085
31
1.1631430026892443e-14
 62
256
 0
LINE
 8
Layer0_S_
10
1440.6202149681503
20
122.76042261829085
30
1.1631430026892443e-14
11
1439.2071056257168
21
122.19321671274639
31
1.1631430026892443e-14
 62
256
 0
LINE
 8
Layer0_S_
10
1439.2071056257168
20
122.19321671274639
30
1.1631430026892443e-14
11
1437.6967189683103
21
121.99999999999993
31
1.1631430026892443e-14
 62
256
 0
LINE
 8
Layer0_S_
10
1437.6967189683103
20
121.99999999999993
30
1.1631430026892443e-14
11
1436.1863323109033
21
122.19321671274639
31
1.1631430026892443e-14
 62
256
 0
LINE
 8
Layer0_S_
10
1436.1863323109033
20
122.19321671274639
30
1.1631430026892443e-14
11
1434.7732229684698
21
122.76042261829085
31
1.1631430026892443e-14
 62
256
 0
LINE
 8
Layer0_S_
10
1434.7732229684698
20
122.76042261829085
30
1.1631430026892443e-14
11
1433.548403054975
21
123.66508649646015
31
1.1631430026892443e-14
 62
256
 0
LINE
 8
Layer0_S_
10
1433.548403054975
20
123.66508649646015
30
1.1631430026892443e-14
11
1432.5907577962166
21
124.84894295369415
31
1.1631430026892443e-14
 62
256
 0
LINE
 8
Layer0_S_
10
1432.5907577962166
20
124.84894295369415
30
1.1631430026892443e-14
11
1431.961964881819
21
126.23574503898274
31
1.1631430026892443e-14
 62
256
 0
LINE
 8
Layer0_S_
10
1431.961964881819
20
126.23574503898274
30
1.1631430026892443e-14
11
1431.702522078422
21
127.73617497227609
31
1.1631430026892443e-14
 62
256
 0
LINE
 8
Layer0_S_
10
1431.702522078422
20
127.73617497227609
30
1.1631430026892443e-14
11
1431.8291389478977
21
129.2535967071018
31
1.1631430026892443e-14
 62
256
 0
LINE
 8
Layer0_S_
10
1431.8291389478977
20
129.2535967071018
30
1.1631430026892443e-14
11
1432.3336606584803
21
130.6902798303088
31
1.1631430026892443e-14
 62
256
 0
LINE
 8
Layer0_S_
10
1432.3336606584803
20
130.6902798303088
30
1.1631430026892443e-14
11
1433.1835932013607
21
131.9536939451224
31
1.1631430026892443e-14
 62
256
 0
LINE
 8
Layer0_S_
10
1433.1835932013607
20
131.9536939451224
30
1.1631430026892443e-14
11
1434.3241961858748
21
132.9624681441753
31
1.1631430026892443e-14
 62
256
 0
LINE
 8
Layer0_S_
10
1434.3241961858748
20
132.9624681441753
30
1.1631430026892443e-14
11
1435.6820084256171
21
133.6516317492527
31
1.1631430026892443e-14
 62
256
 0
LINE
 8
Layer0_S_
10
1596.6820084256171
20
133.65163174925272
30
1.1631430026892443e-14
11
1595.3241961858748
21
132.96246814417532
31
1.1631430026892443e-14
 62
256
 0
LINE
 8
Layer0_S_
10
1595.3241961858748
20
132.96246814417532
30
1.1631430026892443e-14
11
1594.1835932013607
21
131.9536939451224
31
1.1631430026892443e-14
 62
256
 0
LINE
 8
Layer0_S_
10
1594.1835932013607
20
131.9536939451224
30
1.1631430026892443e-14
11
1593.3336606584803
21
130.6902798303088
31
1.1631430026892443e-14
 62
256
 0
LINE
 8
Layer0_S_
10
1593.3336606584803
20
130.6902798303088
30
1.1631430026892443e-14
11
1592.8291389478977
21
129.2535967071018
31
1.1631430026892443e-14
 62
256
 0
LINE
 8
Layer0_S_
10
1592.8291389478977
20
129.2535967071018
30
1.1631430026892443e-14
11
1592.702522078422
21
127.73617497227609
31
1.1631430026892443e-14
 62
256
 0
LINE
 8
Layer0_S_
10
1592.702522078422
20
127.73617497227609
30
1.1631430026892443e-14
11
1592.9619648818189
21
126.23574503898274
31
1.1631430026892443e-14
 62
256
 0
LINE
 8
Layer0_S_
10
1592.9619648818189
20
126.23574503898274
30
1.1631430026892443e-14
11
1593.5907577962166
21
124.84894295369413
31
1.1631430026892443e-14
 62
256
 0
LINE
 8
Layer0_S_
10
1593.5907577962166
20
124.84894295369413
30
1.1631430026892443e-14
11
1594.5484030549749
21
123.66508649646015
31
1.1631430026892443e-14
 62
256
 0
LINE
 8
Layer0_S_
10
1594.5484030549749
20
123.66508649646015
30
1.1631430026892443e-14
11
1595.7732229684696
21
122.76042261829085
31
1.1631430026892443e-14
 62
256
 0
LINE
 8
Layer0_S_
10
1595.7732229684696
20
122.76042261829085
30
1.1631430026892443e-14
11
1597.186332310903
21
122.19321671274636
31
1.1631430026892443e-14
 62
256
 0
LINE
 8
Layer0_S_
10
1597.186332310903
20
122.19321671274636
30
1.1631430026892443e-14
11
1598.69671896831
21
121.99999999999991
31
1.1631430026892443e-14
 62
256
 0
LINE
 8
Layer0_S_
10
1598.69671896831
20
121.99999999999991
30
1.1631430026892443e-14
11
1600.2071056257168
21
122.19321671274636
31
1.1631430026892443e-14
 62
256
 0
LINE
 8
Layer0_S_
10
1600.2071056257168
20
122.19321671274636
30
1.1631430026892443e-14
11
1601.6202149681503
21
122.76042261829085
31
1.1631430026892443e-14
 62
256
 0
LINE
 8
Layer0_S_
10
1601.6202149681503
20
122.76042261829085
30
1.1631430026892443e-14
11
1602.845034881645
21
123.66508649646015
31
1.1631430026892443e-14
 62
256
 0
LINE
 8
Layer0_S_
10
1602.845034881645
20
123.66508649646015
30
1.1631430026892443e-14
11
1603.8026801404035
21
124.84894295369413
31
1.1631430026892443e-14
 62
256
 0
LINE
 8
Layer0_S_
10
1603.8026801404035
20
124.84894295369413
30
1.1631430026892443e-14
11
1604.431473054801
21
126.23574503898274
31
1.1631430026892443e-14
 62
256
 0
LINE
 8
Layer0_S_
10
1604.431473054801
20
126.23574503898274
30
1.1631430026892443e-14
11
1604.6909158581984
21
127.73617497227606
31
1.1631430026892443e-14
 62
256
 0
LINE
 8
Layer0_S_
10
1604.6909158581984
20
127.73617497227606
30
1.1631430026892443e-14
11
1604.5642989887226
21
129.2535967071018
31
1.1631430026892443e-14
 62
256
 0
LINE
 8
Layer0_S_
10
1604.5642989887226
20
129.2535967071018
30
1.1631430026892443e-14
11
1604.0597772781398
21
130.6902798303088
31
1.1631430026892443e-14
 62
256
 0
LINE
 8
Layer0_S_
10
1604.0597772781398
20
130.6902798303088
30
1.1631430026892443e-14
11
1603.2098447352594
21
131.9536939451224
31
1.1631430026892443e-14
 62
256
 0
LINE
 8
Layer0_S_
10
1603.2098447352594
20
131.9536939451224
30
1.1631430026892443e-14
11
1602.0692417507453
21
132.96246814417532
31
1.1631430026892443e-14
 62
256
 0
LINE
 8
Layer0_S_
10
1602.0692417507453
20
132.96246814417532
30
1.1631430026892443e-14
11
1600.711429511003
21
133.65163174925272
31
1.1631430026892443e-14
 62
256
 0
LINE
 8
Layer0_S_
10
1600.69671896831
20
139.81107288852084
30
1.1631430026892443e-14
11
1602.1889485153313
21
139.48060681283482
31
1.1631430026892443e-14
 62
256
 0
LINE
 8
Layer0_S_
10
1602.1889485153313
20
139.48060681283482
30
1.1631430026892443e-14
11
1603.6209683441075
21
138.94311509968514
31
1.1631430026892443e-14
 62
256
 0
LINE
 8
Layer0_S_
10
1603.6209683441075
20
138.94311509968514
30
1.1631430026892443e-14
11
1604.9729835468092
21
138.22782982556296
31
1.1631430026892443e-14
 62
256
 0
LINE
 8
Layer0_S_
10
1604.9729835468092
20
138.22782982556296
30
1.1631430026892443e-14
11
1606.2230278373115
21
137.34637228064383
31
1.1631430026892443e-14
 62
256
 0
LINE
 8
Layer0_S_
10
1606.2230278373115
20
137.34637228064383
30
1.1631430026892443e-14
11
1607.350791658075
21
136.3130635676786
31
1.1631430026892443e-14
 62
256
 0
LINE
 8
Layer0_S_
10
1607.350791658075
20
136.3130635676786
30
1.1631430026892443e-14
11
1608.3379521509548
21
135.14469192602948
31
1.1631430026892443e-14
 62
256
 0
LINE
 8
Layer0_S_
10
1608.3379521509548
20
135.14469192602948
30
1.1631430026892443e-14
11
1609.1684708499674
21
133.86023997196398
31
1.1631430026892443e-14
 62
256
 0
LINE
 8
Layer0_S_
10
1609.1684708499674
20
133.86023997196398
30
1.1631430026892443e-14
11
1609.8288542593757
21
132.48057628675267
31
1.1631430026892443e-14
 62
256
 0
LINE
 8
Layer0_S_
10
1609.8288542593757
20
132.48057628675267
30
1.1631430026892443e-14
11
1610.3083730834628
21
131.0281163633611
31
1.1631430026892443e-14
 62
256
 0
LINE
 8
Layer0_S_
10
1610.3083730834628
20
131.0281163633611
30
1.1631430026892443e-14
11
1610.5992365461555
21
129.52645842035844
31
1.1631430026892443e-14
 62
256
 0
LINE
 8
Layer0_S_
10
1610.5992365461555
20
129.52645842035844
30
1.1631430026892443e-14
11
1610.69671896831
21
127.99999999999993
31
1.1631430026892443e-14
 62
256
 0
LINE
 8
Layer0_S_
10
1598.69671896831
20
0.0
30
1.1631430026892443e-14
11
1600.2630332749507
21
0.10266166351427745
31
1.1631430026892443e-14
 62
256
 0
LINE
 8
Layer0_S_
10
1600.2630332749507
20
0.10266166351427745
30
1.1631430026892443e-14
11
1601.8025475095403
21
0.40889008453118103
31
1.1631430026892443e-14
 62
256
 0
LINE
 8
Layer0_S_
10
1601.8025475095403
20
0.40889008453118103
30
1.1631430026892443e-14
11
1603.2889201566911
21
0.9134456098645655
31
1.1631430026892443e-14
 62
256
 0
LINE
 8
Layer0_S_
10
1603.2889201566911
20
0.9134456098645655
30
1.1631430026892443e-14
11
1604.69671896831
21
1.6076951545867417
31
1.1631430026892443e-14
 62
256
 0
LINE
 8
Layer0_S_
10
1604.69671896831
20
1.6076951545867417
30
1.1631430026892443e-14
11
1606.0018561164147
21
2.4797599165051807
31
1.1631430026892443e-14
 62
256
 0
LINE
 8
Layer0_S_
10
1606.0018561164147
20
2.4797599165051807
30
1.1631430026892443e-14
11
1607.1820003425487
21
3.514718625761432
31
1.1631430026892443e-14
 62
256
 0
LINE
 8
Layer0_S_
10
1607.1820003425487
20
3.514718625761432
30
1.1631430026892443e-14
11
1608.216959051805
21
4.694862851895357
31
1.1631430026892443e-14
 62
256
 0
LINE
 8
Layer0_S_
10
1608.216959051805
20
4.694862851895357
30
1.1631430026892443e-14
11
1609.0890238137233
21
6.0
31
1.1631430026892443e-14
 62
256
 0
LINE
 8
Layer0_S_
10
1609.0890238137233
20
6.0
30
1.1631430026892443e-14
11
1609.7832733584455
21
7.407798811618921
31
1.1631430026892443e-14
 62
256
 0
LINE
 8
Layer0_S_
10
1609.7832733584455
20
7.407798811618921
30
1.1631430026892443e-14
11
1610.2878288837787
21
8.89417145876975
31
1.1631430026892443e-14
 62
256
 0
LINE
 8
Layer0_S_
10
1610.2878288837787
20
8.89417145876975
30
1.1631430026892443e-14
11
1610.5940573047958
21
10.433685693359385
31
1.1631430026892443e-14
 62
256
 0
LINE
 8
Layer0_S_
10
1610.5940573047958
20
10.433685693359385
30
1.1631430026892443e-14
11
1610.69671896831
21
12.0
31
1.1631430026892443e-14
 62
256
 0
LINE
 8
Layer0_S_
10
1437.6967189683103
20
0.0
30
1.1631430026892443e-14
11
1436.1304046616694
21
0.10266166351427745
31
1.1631430026892443e-14
 62
256
 0
LINE
 8
Layer0_S_
10
1436.1304046616694
20
0.10266166351427745
30
1.1631430026892443e-14
11
1434.5908904270798
21
0.40889008453118103
31
1.1631430026892443e-14
 62
256
 0
LINE
 8
Layer0_S_
10
1434.5908904270798
20
0.40889008453118103
30
1.1631430026892443e-14
11
1433.104517779929
21
0.9134456098645655
31
1.1631430026892443e-14
 62
256
 0
LINE
 8
Layer0_S_
10
1433.104517779929
20
0.9134456098645655
30
1.1631430026892443e-14
11
1431.69671896831
21
1.6076951545867417
31
1.1631430026892443e-14
 62
256
 0
LINE
 8
Layer0_S_
10
1431.69671896831
20
1.6076951545867417
30
1.1631430026892443e-14
11
1430.3915818202054
21
2.4797599165051807
31
1.1631430026892443e-14
 62
256
 0
LINE
 8
Layer0_S_
10
1430.3915818202054
20
2.4797599165051807
30
1.1631430026892443e-14
11
1429.2114375940716
21
3.514718625761432
31
1.1631430026892443e-14
 62
256
 0
LINE
 8
Layer0_S_
10
1429.2114375940716
20
3.514718625761432
30
1.1631430026892443e-14
11
1428.1764788848152
21
4.694862851895357
31
1.1631430026892443e-14
 62
256
 0
LINE
 8
Layer0_S_
10
1428.1764788848152
20
4.694862851895357
30
1.1631430026892443e-14
11
1427.3044141228968
21
6.0
31
1.1631430026892443e-14
 62
256
 0
LINE
 8
Layer0_S_
10
1427.3044141228968
20
6.0
30
1.1631430026892443e-14
11
1426.6101645781746
21
7.407798811618921
31
1.1631430026892443e-14
 62
256
 0
LINE
 8
Layer0_S_
10
1426.6101645781746
20
7.407798811618921
30
1.1631430026892443e-14
11
1426.1056090528414
21
8.89417145876975
31
1.1631430026892443e-14
 62
256
 0
LINE
 8
Layer0_S_
10
1426.1056090528414
20
8.89417145876975
30
1.1631430026892443e-14
11
1425.7993806318243
21
10.433685693359385
31
1.1631430026892443e-14
 62
256
 0
LINE
 8
Layer0_S_
10
1425.7993806318243
20
10.433685693359385
30
1.1631430026892443e-14
11
1425.69671896831
21
12.0
31
1.1631430026892443e-14
 62
256
 0
LINE
 8
Layer0_S_
10
1541.69671896831
20
24.0
30
1.1631430026892443e-14
11
1541.69671896831
21
83.0
31
1.7271362991988236e-14
 62
256
 0
LINE
 8
Layer0_S_
10
1547.6967189683103
20
18.0
30
1.1631430026892443e-14
11
1586.69671896831
21
18.0
31
1.1631430026892443e-14
 62
256
 0
LINE
 8
Layer0_S_
10
1592.69671896831
20
24.0
30
1.1631430026892443e-14
11
1592.69671896831
21
82.99999999999993
31
3.515640967008528e-16
 62
256
 0
LINE
 8
Layer0_S_
10
1586.69671896831
20
88.99999999999993
30
3.515640967008528e-16
11
1547.69671896831
21
89.0
31
1.7271362991988236e-14
 62
256
 0
LINE
 8
Layer0_S_
10
1547.6967189683103
20
18.0
30
1.1631430026892443e-14
11
1546.9135618149899
21
18.051330831757138
31
1.1631430026892443e-14
 62
256
 0
LINE
 8
Layer0_S_
10
1546.9135618149899
20
18.051330831757138
30
1.1631430026892443e-14
11
1546.143804697695
21
18.20444504226559
31
1.1631430026892443e-14
 62
256
 0
LINE
 8
Layer0_S_
10
1546.143804697695
20
18.20444504226559
30
1.1631430026892443e-14
11
1545.4006183741196
21
18.456722804932284
31
1.1631430026892443e-14
 62
256
 0
LINE
 8
Layer0_S_
10
1545.4006183741196
20
18.456722804932284
30
1.1631430026892443e-14
11
1544.6967189683103
21
18.80384757729338
31
1.1631430026892443e-14
 62
256
 0
LINE
 8
Layer0_S_
10
1544.6967189683103
20
18.80384757729338
30
1.1631430026892443e-14
11
1544.044150394258
21
19.239879958252597
31
1.1631430026892443e-14
 62
256
 0
LINE
 8
Layer0_S_
10
1544.044150394258
20
19.239879958252597
30
1.1631430026892443e-14
11
1543.454078281191
21
19.757359312880716
31
1.1631430026892443e-14
 62
256
 0
LINE
 8
Layer0_S_
10
1543.454078281191
20
19.757359312880716
30
1.1631430026892443e-14
11
1542.936598926563
21
20.347431425947686
31
1.1631430026892443e-14
 62
256
 0
LINE
 8
Layer0_S_
10
1542.936598926563
20
20.347431425947686
30
1.1631430026892443e-14
11
1542.5005665456035
21
21.000000000000007
31
1.1631430026892443e-14
 62
256
 0
LINE
 8
Layer0_S_
10
1542.5005665456035
20
21.000000000000007
30
1.1631430026892443e-14
11
1542.1534417732425
21
21.703899405809466
31
1.1631430026892443e-14
 62
256
 0
LINE
 8
Layer0_S_
10
1542.1534417732425
20
21.703899405809466
30
1.1631430026892443e-14
11
1541.9011640105757
21
22.44708572938488
31
1.1631430026892443e-14
 62
256
 0
LINE
 8
Layer0_S_
10
1541.9011640105757
20
22.44708572938488
30
1.1631430026892443e-14
11
1541.7480498000673
21
23.216842846679693
31
1.1631430026892443e-14
 62
256
 0
LINE
 8
Layer0_S_
10
1541.7480498000673
20
23.216842846679693
30
1.1631430026892443e-14
11
1541.69671896831
21
24.0
31
1.1631430026892443e-14
 62
256
 0
LINE
 8
Layer0_S_
10
1592.69671896831
20
24.0
30
1.1631430026892443e-14
11
1592.645388136553
21
23.216842846679693
31
1.1631430026892443e-14
 62
256
 0
LINE
 8
Layer0_S_
10
1592.645388136553
20
23.216842846679693
30
1.1631430026892443e-14
11
1592.4922739260444
21
22.447085729384877
31
1.1631430026892443e-14
 62
256
 0
LINE
 8
Layer0_S_
10
1592.4922739260444
20
22.447085729384877
30
1.1631430026892443e-14
11
1592.2399961633778
21
21.703899405809466
31
1.1631430026892443e-14
 62
256
 0
LINE
 8
Layer0_S_
10
1592.2399961633778
20
21.703899405809466
30
1.1631430026892443e-14
11
1591.8928713910168
21
21.000000000000007
31
1.1631430026892443e-14
 62
256
 0
LINE
 8
Layer0_S_
10
1591.8928713910168
20
21.000000000000007
30
1.1631430026892443e-14
11
1591.4568390100574
21
20.347431425947672
31
1.1631430026892443e-14
 62
256
 0
LINE
 8
Layer0_S_
10
1591.4568390100574
20
20.347431425947672
30
1.1631430026892443e-14
11
1590.9393596554294
21
19.757359312880716
31
1.1631430026892443e-14
 62
256
 0
LINE
 8
Layer0_S_
10
1590.9393596554294
20
19.757359312880716
30
1.1631430026892443e-14
11
1590.3492875423624
21
19.239879958252597
31
1.1631430026892443e-14
 62
256
 0
LINE
 8
Layer0_S_
10
1590.3492875423624
20
19.239879958252597
30
1.1631430026892443e-14
11
1589.69671896831
21
18.80384757729338
31
1.1631430026892443e-14
 62
256
 0
LINE
 8
Layer0_S_
10
1589.69671896831
20
18.80384757729338
30
1.1631430026892443e-14
11
1588.9928195625005
21
18.456722804932284
31
1.1631430026892443e-14
 62
256
 0
LINE
 8
Layer0_S_
10
1588.9928195625005
20
18.456722804932284
30
1.1631430026892443e-14
11
1588.2496332389253
21
18.20444504226559
31
1.1631430026892443e-14
 62
256
 0
LINE
 8
Layer0_S_
10
1588.2496332389253
20
18.20444504226559
30
1.1631430026892443e-14
11
1587.4798761216305
21
18.051330831757138
31
1.1631430026892443e-14
 62
256
 0
LINE
 8
Layer0_S_
10
1587.4798761216305
20
18.051330831757138
30
1.1631430026892443e-14
11
1586.69671896831
21
18.0
31
1.1631430026892443e-14
 62
256
 0
LINE
 8
Layer0_S_
10
1592.69671896831
20
82.99999999999993
30
3.515640967008528e-16
11
1592.645388136553
21
83.78315715332025
31
3.052798053081288e-16
 62
256
 0
LINE
 8
Layer0_S_
10
1592.645388136553
20
83.78315715332025
30
3.052798053081288e-16
11
1592.4922739260444
21
84.55291427061505
31
2.5978745097356533e-16
 62
256
 0
LINE
 8
Layer0_S_
10
1592.4922739260444
20
84.55291427061505
30
2.5978745097356533e-16
11
1592.2399961633778
21
85.29610059419046
31
2.1586542049268646e-16
 62
256
 0
LINE
 8
Layer0_S_
10
1592.2399961633778
20
85.29610059419046
30
2.1586542049268646e-16
11
1591.8928713910168
21
85.99999999999993
31
1.7426523198451264e-16
 62
256
 0
LINE
 8
Layer0_S_
10
1591.8928713910168
20
85.99999999999993
30
1.7426523198451264e-16
11
1591.4568390100574
21
86.65256857405225
31
1.356986762081663e-16
 62
256
 0
LINE
 8
Layer0_S_
10
1591.4568390100574
20
86.65256857405225
30
1.356986762081663e-16
11
1590.9393596554294
21
87.2426406871192
31
1.0082563762565168e-16
 62
256
 0
LINE
 8
Layer0_S_
10
1590.9393596554294
20
87.2426406871192
30
1.0082563762565168e-16
11
1590.3492875423624
21
87.76012004174734
31
7.0242803595747e-17
 62
256
 0
LINE
 8
Layer0_S_
10
1590.3492875423624
20
87.76012004174734
30
7.0242803595747e-17
11
1589.69671896831
21
88.19615242270656
31
4.447345488787097e-17
 62
256
 0
LINE
 8
Layer0_S_
10
1589.69671896831
20
88.19615242270656
30
4.447345488787097e-17
11
1588.9928195625005
21
88.54327719506765
31
2.3958512203023028e-17
 62
256
 0
LINE
 8
Layer0_S_
10
1588.9928195625005
20
88.54327719506765
30
2.3958512203023028e-17
11
1588.2496332389253
21
88.79555495773434
31
9.048991898361743e-18
 62
256
 0
LINE
 8
Layer0_S_
10
1588.2496332389253
20
88.79555495773434
30
9.048991898361743e-18
11
1587.4798761216305
21
88.94866916824279
31
0.0
 62
256
 0
LINE
 8
Layer0_S_
10
1587.4798761216305
20
88.94866916824279
30
0.0
11
1586.69671896831
21
88.99999999999993
31
3.515640967008528e-16
 62
256
 0
LINE
 8
Layer0_S_
10
1547.69671896831
20
89.0
30
1.7271362991988236e-14
11
1546.9135618149896
21
88.94866916824284
31
1.7271362991988236e-14
 62
256
 0
LINE
 8
Layer0_S_
10
1546.9135618149896
20
88.94866916824284
30
1.7271362991988236e-14
11
1546.143804697695
21
88.7955549577344
31
1.7271362991988236e-14
 62
256
 0
LINE
 8
Layer0_S_
10
1546.143804697695
20
88.7955549577344
30
1.7271362991988236e-14
11
1545.4006183741196
21
88.54327719506772
31
1.7271362991988236e-14
 62
256
 0
LINE
 8
Layer0_S_
10
1545.4006183741196
20
88.54327719506772
30
1.7271362991988236e-14
11
1544.6967189683103
21
88.19615242270662
31
1.7271362991988236e-14
 62
256
 0
LINE
 8
Layer0_S_
10
1544.6967189683103
20
88.19615242270662
30
1.7271362991988236e-14
11
1544.044150394258
21
87.7601200417474
31
1.7271362991988236e-14
 62
256
 0
LINE
 8
Layer0_S_
10
1544.044150394258
20
87.7601200417474
30
1.7271362991988236e-14
11
1543.454078281191
21
87.24264068711928
31
1.7271362991988236e-14
 62
256
 0
LINE
 8
Layer0_S_
10
1543.454078281191
20
87.24264068711928
30
1.7271362991988236e-14
11
1542.9365989265627
21
86.65256857405231
31
1.7271362991988236e-14
 62
256
 0
LINE
 8
Layer0_S_
10
1542.9365989265627
20
86.65256857405231
30
1.7271362991988236e-14
11
1542.5005665456035
21
85.99999999999999
31
1.7271362991988236e-14
 62
256
 0
LINE
 8
Layer0_S_
10
1542.5005665456035
20
85.99999999999999
30
1.7271362991988236e-14
11
1542.1534417732423
21
85.29610059419053
31
1.7271362991988236e-14
 62
256
 0
LINE
 8
Layer0_S_
10
1542.1534417732423
20
85.29610059419053
30
1.7271362991988236e-14
11
1541.9011640105757
21
84.55291427061512
31
1.7271362991988236e-14
 62
256
 0
LINE
 8
Layer0_S_
10
1541.9011640105757
20
84.55291427061512
30
1.7271362991988236e-14
11
1541.7480498000673
21
83.7831571533203
31
1.7271362991988236e-14
 62
256
 0
LINE
 8
Layer0_S_
10
1541.7480498000673
20
83.7831571533203
30
1.7271362991988236e-14
11
1541.69671896831
21
83.0
31
1.7271362991988236e-14
 62
256
 0
LINE
 8
Layer0_S_
10
1525.6967189683103
20
40.50000000000001
30
1.7271362991988236e-14
11
1449.69671896831
21
40.49999999999999
31
1.7271362991988236e-14
 62
256
 0
LINE
 8
Layer0_S_
10
1443.69671896831
20
34.5
30
2.2911295957084036e-14
11
1443.69671896831
21
24.0
31
1.1631430026892443e-14
 62
256
 0
LINE
 8
Layer0_S_
10
1449.69671896831
20
18.0
30
1.1631430026892443e-14
11
1525.6967189683103
21
18.0
31
2.2911295957084036e-14
 62
256
 0
LINE
 8
Layer0_S_
10
1531.6967189683103
20
34.50000000000001
30
1.7271362991988236e-14
11
1531.6967189683103
21
24.0
31
2.2911295957084036e-14
 62
256
 0
LINE
 8
Layer0_S_
10
1443.69671896831
20
34.5
30
2.2911295957084036e-14
11
1443.7480498000673
21
35.2831571533203
31
2.2863045548725216e-14
 62
256
 0
LINE
 8
Layer0_S_
10
1443.7480498000673
20
35.2831571533203
30
2.2863045548725216e-14
11
1443.9011640105757
21
36.05291427061512
31
2.2719119901513342e-14
 62
256
 0
LINE
 8
Layer0_S_
10
1443.9011640105757
20
36.05291427061512
30
2.2719119901513342e-14
11
1444.1534417732423
21
36.796100594190534
31
2.248198162317593e-14
 62
256
 0
LINE
 8
Layer0_S_
10
1444.1534417732423
20
36.796100594190534
30
2.248198162317593e-14
11
1444.5005665456035
21
37.49999999999999
31
2.2155688215402484e-14
 62
256
 0
LINE
 8
Layer0_S_
10
1444.5005665456035
20
37.49999999999999
30
2.2155688215402484e-14
11
1444.9365989265627
21
38.15256857405232
31
2.174582264886563e-14
 62
256
 0
LINE
 8
Layer0_S_
10
1444.9365989265627
20
38.15256857405232
30
2.174582264886563e-14
11
1445.4540782811907
21
38.74264068711928
31
2.1259397837045022e-14
 62
256
 0
LINE
 8
Layer0_S_
10
1445.4540782811907
20
38.74264068711928
30
2.1259397837045022e-14
11
1446.0441503942577
21
39.260120041747406
31
2.070473664333334e-14
 62
256
 0
LINE
 8
Layer0_S_
10
1446.0441503942577
20
39.260120041747406
30
2.070473664333334e-14
11
1446.69671896831
21
39.696152422706625
31
2.0091329474536128e-14
 62
256
 0
LINE
 8
Layer0_S_
10
1446.69671896831
20
39.696152422706625
30
2.0091329474536128e-14
11
1447.4006183741196
21
40.04327719506771
31
1.942967189738011e-14
 62
256
 0
LINE
 8
Layer0_S_
10
1447.4006183741196
20
40.04327719506771
30
1.942967189738011e-14
11
1448.143804697695
21
40.295554957734396
31
1.8731085056456553e-14
 62
256
 0
LINE
 8
Layer0_S_
10
1448.143804697695
20
40.295554957734396
30
1.8731085056456553e-14
11
1448.9135618149899
21
40.44866916824285
31
1.8007521966298532e-14
 62
256
 0
LINE
 8
Layer0_S_
10
1448.9135618149899
20
40.44866916824285
30
1.8007521966298532e-14
11
1449.69671896831
21
40.49999999999999
31
1.7271362991988236e-14
 62
256
 0
LINE
 8
Layer0_S_
10
1449.69671896831
20
18.0
30
1.1631430026892443e-14
11
1448.9135618149899
21
18.051330831757138
31
1.1631430026892443e-14
 62
256
 0
LINE
 8
Layer0_S_
10
1448.9135618149899
20
18.051330831757138
30
1.1631430026892443e-14
11
1448.143804697695
21
18.20444504226559
31
1.1631430026892443e-14
 62
256
 0
LINE
 8
Layer0_S_
10
1448.143804697695
20
18.20444504226559
30
1.1631430026892443e-14
11
1447.4006183741196
21
18.456722804932284
31
1.1631430026892443e-14
 62
256
 0
LINE
 8
Layer0_S_
10
1447.4006183741196
20
18.456722804932284
30
1.1631430026892443e-14
11
1446.69671896831
21
18.80384757729338
31
1.1631430026892443e-14
 62
256
 0
LINE
 8
Layer0_S_
10
1446.69671896831
20
18.80384757729338
30
1.1631430026892443e-14
11
1446.0441503942577
21
19.239879958252597
31
1.1631430026892443e-14
 62
256
 0
LINE
 8
Layer0_S_
10
1446.0441503942577
20
19.239879958252597
30
1.1631430026892443e-14
11
1445.4540782811907
21
19.757359312880716
31
1.1631430026892443e-14
 62
256
 0
LINE
 8
Layer0_S_
10
1445.4540782811907
20
19.757359312880716
30
1.1631430026892443e-14
11
1444.9365989265627
21
20.347431425947686
31
1.1631430026892443e-14
 62
256
 0
LINE
 8
Layer0_S_
10
1444.9365989265627
20
20.347431425947686
30
1.1631430026892443e-14
11
1444.5005665456035
21
21.000000000000007
31
1.1631430026892443e-14
 62
256
 0
LINE
 8
Layer0_S_
10
1444.5005665456035
20
21.000000000000007
30
1.1631430026892443e-14
11
1444.1534417732423
21
21.703899405809466
31
1.1631430026892443e-14
 62
256
 0
LINE
 8
Layer0_S_
10
1444.1534417732423
20
21.703899405809466
30
1.1631430026892443e-14
11
1443.9011640105757
21
22.447085729384877
31
1.1631430026892443e-14
 62
256
 0
LINE
 8
Layer0_S_
10
1443.9011640105757
20
22.447085729384877
30
1.1631430026892443e-14
11
1443.7480498000673
21
23.216842846679693
31
1.1631430026892443e-14
 62
256
 0
LINE
 8
Layer0_S_
10
1443.7480498000673
20
23.216842846679693
30
1.1631430026892443e-14
11
1443.69671896831
21
24.0
31
1.1631430026892443e-14
 62
256
 0
LINE
 8
Layer0_S_
10
1531.6967189683103
20
24.0
30
2.2911295957084036e-14
11
1531.645388136553
21
23.216842846679693
31
2.2911295957084036e-14
 62
256
 0
LINE
 8
Layer0_S_
10
1531.645388136553
20
23.216842846679693
30
2.2911295957084036e-14
11
1531.4922739260446
21
22.447085729384877
31
2.2911295957084036e-14
 62
256
 0
LINE
 8
Layer0_S_
10
1531.4922739260446
20
22.447085729384877
30
2.2911295957084036e-14
11
1531.239996163378
21
21.703899405809466
31
2.2911295957084036e-14
 62
256
 0
LINE
 8
Layer0_S_
10
1531.239996163378
20
21.703899405809466
30
2.2911295957084036e-14
11
1530.8928713910168
21
21.000000000000007
31
2.2911295957084036e-14
 62
256
 0
LINE
 8
Layer0_S_
10
1530.8928713910168
20
21.000000000000007
30
2.2911295957084036e-14
11
1530.4568390100576
21
20.347431425947686
31
2.2911295957084036e-14
 62
256
 0
LINE
 8
Layer0_S_
10
1530.4568390100576
20
20.347431425947686
30
2.2911295957084036e-14
11
1529.9393596554294
21
19.757359312880716
31
2.2911295957084036e-14
 62
256
 0
LINE
 8
Layer0_S_
10
1529.9393596554294
20
19.757359312880716
30
2.2911295957084036e-14
11
1529.3492875423626
21
19.239879958252597
31
2.2911295957084036e-14
 62
256
 0
LINE
 8
Layer0_S_
10
1529.3492875423626
20
19.239879958252597
30
2.2911295957084036e-14
11
1528.6967189683103
21
18.80384757729338
31
2.2911295957084036e-14
 62
256
 0
LINE
 8
Layer0_S_
10
1528.6967189683103
20
18.80384757729338
30
2.2911295957084036e-14
11
1527.9928195625007
21
18.456722804932284
31
2.2911295957084036e-14
 62
256
 0
LINE
 8
Layer0_S_
10
1527.9928195625007
20
18.456722804932284
30
2.2911295957084036e-14
11
1527.2496332389253
21
18.20444504226559
31
2.2911295957084036e-14
 62
256
 0
LINE
 8
Layer0_S_
10
1527.2496332389253
20
18.20444504226559
30
2.2911295957084036e-14
11
1526.4798761216305
21
18.051330831757138
31
2.2911295957084036e-14
 62
256
 0
LINE
 8
Layer0_S_
10
1526.4798761216305
20
18.051330831757138
30
2.2911295957084036e-14
11
1525.6967189683103
21
18.0
31
2.2911295957084036e-14
 62
256
 0
LINE
 8
Layer0_S_
10
1531.6967189683103
20
34.50000000000001
30
1.7271362991988236e-14
11
1531.645388136553
21
35.28315715332031
31
1.7271362991988236e-14
 62
256
 0
LINE
 8
Layer0_S_
10
1531.645388136553
20
35.28315715332031
30
1.7271362991988236e-14
11
1531.4922739260446
21
36.05291427061513
31
1.7271362991988236e-14
 62
256
 0
LINE
 8
Layer0_S_
10
1531.4922739260446
20
36.05291427061513
30
1.7271362991988236e-14
11
1531.239996163378
21
36.79610059419054
31
1.7271362991988236e-14
 62
256
 0
LINE
 8
Layer0_S_
10
1531.239996163378
20
36.79610059419054
30
1.7271362991988236e-14
11
1530.8928713910168
21
37.5
31
1.7271362991988236e-14
 62
256
 0
LINE
 8
Layer0_S_
10
1530.8928713910168
20
37.5
30
1.7271362991988236e-14
11
1530.4568390100576
21
38.152568574052324
31
1.7271362991988236e-14
 62
256
 0
LINE
 8
Layer0_S_
10
1530.4568390100576
20
38.152568574052324
30
1.7271362991988236e-14
11
1529.9393596554294
21
38.74264068711929
31
1.7271362991988236e-14
 62
256
 0
LINE
 8
Layer0_S_
10
1529.9393596554294
20
38.74264068711929
30
1.7271362991988236e-14
11
1529.3492875423626
21
39.260120041747406
31
1.7271362991988236e-14
 62
256
 0
LINE
 8
Layer0_S_
10
1529.3492875423626
20
39.260120041747406
30
1.7271362991988236e-14
11
1528.6967189683103
21
39.69615242270663
31
1.7271362991988236e-14
 62
256
 0
LINE
 8
Layer0_S_
10
1528.6967189683103
20
39.69615242270663
30
1.7271362991988236e-14
11
1527.9928195625007
21
40.04327719506772
31
1.7271362991988236e-14
 62
256
 0
LINE
 8
Layer0_S_
10
1527.9928195625007
20
40.04327719506772
30
1.7271362991988236e-14
11
1527.2496332389253
21
40.29555495773441
31
1.7271362991988236e-14
 62
256
 0
LINE
 8
Layer0_S_
10
1527.2496332389253
20
40.29555495773441
30
1.7271362991988236e-14
11
1526.4798761216305
21
40.44866916824286
31
1.7271362991988236e-14
 62
256
 0
LINE
 8
Layer0_S_
10
1526.4798761216305
20
40.44866916824286
30
1.7271362991988236e-14
11
1525.6967189683103
21
40.50000000000001
31
1.7271362991988236e-14
 62
256
 0
LINE
 8
Layer0_S_
10
1501.69671896831
20
50.5
30
5.6750893747658796e-14
11
1525.6967189683103
21
50.5
31
1.7271362991988236e-14
 62
256
 0
LINE
 8
Layer0_S_
10
1531.6967189683103
20
82.99999999999993
30
1.7271362991988236e-14
11
1531.6967189683103
21
56.50000000000001
31
1.7271362991988236e-14
 62
256
 0
LINE
 8
Layer0_S_
10
1501.69671896831
20
88.99999999999994
30
4.54710278174672e-14
11
1525.6967189683103
21
88.99999999999993
31
1.7271362991988236e-14
 62
256
 0
LINE
 8
Layer0_S_
10
1495.69671896831
20
82.99999999999993
30
4.54710278174672e-14
11
1495.69671896831
21
56.5
31
5.6750893747658796e-14
 62
256
 0
LINE
 8
Layer0_S_
10
1525.6967189683103
20
50.5
30
1.7271362991988236e-14
11
1526.4798761216305
21
50.55133083175714
31
1.7271362991988236e-14
 62
256
 0
LINE
 8
Layer0_S_
10
1526.4798761216305
20
50.55133083175714
30
1.7271362991988236e-14
11
1527.2496332389253
21
50.7044450422656
31
1.7271362991988236e-14
 62
256
 0
LINE
 8
Layer0_S_
10
1527.2496332389253
20
50.7044450422656
30
1.7271362991988236e-14
11
1527.9928195625007
21
50.956722804932284
31
1.7271362991988236e-14
 62
256
 0
LINE
 8
Layer0_S_
10
1527.9928195625007
20
50.956722804932284
30
1.7271362991988236e-14
11
1528.6967189683103
21
51.303847577293375
31
1.7271362991988236e-14
 62
256
 0
LINE
 8
Layer0_S_
10
1528.6967189683103
20
51.303847577293375
30
1.7271362991988236e-14
11
1529.3492875423626
21
51.739879958252594
31
1.7271362991988236e-14
 62
256
 0
LINE
 8
Layer0_S_
10
1529.3492875423626
20
51.739879958252594
30
1.7271362991988236e-14
11
1529.9393596554294
21
52.257359312880716
31
1.7271362991988236e-14
 62
256
 0
LINE
 8
Layer0_S_
10
1529.9393596554294
20
52.257359312880716
30
1.7271362991988236e-14
11
1530.4568390100576
21
52.84743142594768
31
1.7271362991988236e-14
 62
256
 0
LINE
 8
Layer0_S_
10
1530.4568390100576
20
52.84743142594768
30
1.7271362991988236e-14
11
1530.8928713910168
21
53.5
31
1.7271362991988236e-14
 62
256
 0
LINE
 8
Layer0_S_
10
1530.8928713910168
20
53.5
30
1.7271362991988236e-14
11
1531.239996163378
21
54.203899405809466
31
1.7271362991988236e-14
 62
256
 0
LINE
 8
Layer0_S_
10
1531.239996163378
20
54.203899405809466
30
1.7271362991988236e-14
11
1531.4922739260446
21
54.94708572938488
31
1.7271362991988236e-14
 62
256
 0
LINE
 8
Layer0_S_
10
1531.4922739260446
20
54.94708572938488
30
1.7271362991988236e-14
11
1531.645388136553
21
55.7168428466797
31
1.7271362991988236e-14
 62
256
 0
LINE
 8
Layer0_S_
10
1531.645388136553
20
55.7168428466797
30
1.7271362991988236e-14
11
1531.6967189683103
21
56.50000000000001
31
1.7271362991988236e-14
 62
256
 0
LINE
 8
Layer0_S_
10
1525.6967189683103
20
88.99999999999993
30
1.7271362991988236e-14
11
1526.4798761216305
21
88.94866916824277
31
1.7271362991988236e-14
 62
256
 0
LINE
 8
Layer0_S_
10
1526.4798761216305
20
88.94866916824277
30
1.7271362991988236e-14
11
1527.2496332389253
21
88.79555495773432
31
1.7271362991988236e-14
 62
256
 0
LINE
 8
Layer0_S_
10
1527.2496332389253
20
88.79555495773432
30
1.7271362991988236e-14
11
1527.9928195625007
21
88.54327719506765
31
1.7271362991988236e-14
 62
256
 0
LINE
 8
Layer0_S_
10
1527.9928195625007
20
88.54327719506765
30
1.7271362991988236e-14
11
1528.6967189683103
21
88.19615242270655
31
1.7271362991988236e-14
 62
256
 0
LINE
 8
Layer0_S_
10
1528.6967189683103
20
88.19615242270655
30
1.7271362991988236e-14
11
1529.3492875423626
21
87.76012004174733
31
1.7271362991988236e-14
 62
256
 0
LINE
 8
Layer0_S_
10
1529.3492875423626
20
87.76012004174733
30
1.7271362991988236e-14
11
1529.9393596554294
21
87.2426406871192
31
1.7271362991988236e-14
 62
256
 0
LINE
 8
Layer0_S_
10
1529.9393596554294
20
87.2426406871192
30
1.7271362991988236e-14
11
1530.4568390100576
21
86.65256857405224
31
1.7271362991988236e-14
 62
256
 0
LINE
 8
Layer0_S_
10
1530.4568390100576
20
86.65256857405224
30
1.7271362991988236e-14
11
1530.8928713910168
21
85.99999999999991
31
1.7271362991988236e-14
 62
256
 0
LINE
 8
Layer0_S_
10
1530.8928713910168
20
85.99999999999991
30
1.7271362991988236e-14
11
1531.239996163378
21
85.29610059419046
31
1.7271362991988236e-14
 62
256
 0
LINE
 8
Layer0_S_
10
1531.239996163378
20
85.29610059419046
30
1.7271362991988236e-14
11
1531.4922739260446
21
84.55291427061505
31
1.7271362991988236e-14
 62
256
 0
LINE
 8
Layer0_S_
10
1531.4922739260446
20
84.55291427061505
30
1.7271362991988236e-14
11
1531.645388136553
21
83.78315715332025
31
1.7271362991988236e-14
 62
256
 0
LINE
 8
Layer0_S_
10
1531.645388136553
20
83.78315715332025
30
1.7271362991988236e-14
11
1531.6967189683103
21
82.99999999999993
31
1.7271362991988236e-14
 62
256
 0
LINE
 8
Layer0_S_
10
1495.69671896831
20
82.99999999999993
30
4.54710278174672e-14
11
1495.7480498000673
21
83.78315715332025
31
4.54710278174672e-14
 62
256
 0
LINE
 8
Layer0_S_
10
1495.7480498000673
20
83.78315715332025
30
4.54710278174672e-14
11
1495.9011640105757
21
84.55291427061505
31
4.54710278174672e-14
 62
256
 0
LINE
 8
Layer0_S_
10
1495.9011640105757
20
84.55291427061505
30
4.54710278174672e-14
11
1496.1534417732423
21
85.29610059419048
31
4.54710278174672e-14
 62
256
 0
LINE
 8
Layer0_S_
10
1496.1534417732423
20
85.29610059419048
30
4.54710278174672e-14
11
1496.5005665456035
21
85.99999999999993
31
4.54710278174672e-14
 62
256
 0
LINE
 8
Layer0_S_
10
1496.5005665456035
20
85.99999999999993
30
4.54710278174672e-14
11
1496.9365989265627
21
86.65256857405225
31
4.54710278174672e-14
 62
256
 0
LINE
 8
Layer0_S_
10
1496.9365989265627
20
86.65256857405225
30
4.54710278174672e-14
11
1497.4540782811907
21
87.2426406871192
31
4.54710278174672e-14
 62
256
 0
LINE
 8
Layer0_S_
10
1497.4540782811907
20
87.2426406871192
30
4.54710278174672e-14
11
1498.044150394258
21
87.76012004174734
31
4.54710278174672e-14
 62
256
 0
LINE
 8
Layer0_S_
10
1498.044150394258
20
87.76012004174734
30
4.54710278174672e-14
11
1498.6967189683103
21
88.19615242270656
31
4.54710278174672e-14
 62
256
 0
LINE
 8
Layer0_S_
10
1498.6967189683103
20
88.19615242270656
30
4.54710278174672e-14
11
1499.4006183741194
21
88.54327719506766
31
4.54710278174672e-14
 62
256
 0
LINE
 8
Layer0_S_
10
1499.4006183741194
20
88.54327719506766
30
4.54710278174672e-14
11
1500.143804697695
21
88.79555495773435
31
4.54710278174672e-14
 62
256
 0
LINE
 8
Layer0_S_
10
1500.143804697695
20
88.79555495773435
30
4.54710278174672e-14
11
1500.9135618149899
21
88.9486691682428
31
4.54710278174672e-14
 62
256
 0
LINE
 8
Layer0_S_
10
1500.9135618149899
20
88.9486691682428
30
4.54710278174672e-14
11
1501.69671896831
21
88.99999999999994
31
4.54710278174672e-14
 62
256
 0
LINE
 8
Layer0_S_
10
1501.69671896831
20
50.5
30
5.6750893747658796e-14
11
1500.9135618149896
21
50.55133083175714
31
5.6750893747658796e-14
 62
256
 0
LINE
 8
Layer0_S_
10
1500.9135618149896
20
50.55133083175714
30
5.6750893747658796e-14
11
1500.143804697695
21
50.7044450422656
31
5.6750893747658796e-14
 62
256
 0
LINE
 8
Layer0_S_
10
1500.143804697695
20
50.7044450422656
30
5.6750893747658796e-14
11
1499.4006183741194
21
50.956722804932284
31
5.6750893747658796e-14
 62
256
 0
LINE
 8
Layer0_S_
10
1499.4006183741194
20
50.956722804932284
30
5.6750893747658796e-14
11
1498.6967189683103
21
51.303847577293375
31
5.6750893747658796e-14
 62
256
 0
LINE
 8
Layer0_S_
10
1498.6967189683103
20
51.303847577293375
30
5.6750893747658796e-14
11
1498.044150394258
21
51.739879958252594
31
5.6750893747658796e-14
 62
256
 0
LINE
 8
Layer0_S_
10
1498.044150394258
20
51.739879958252594
30
5.6750893747658796e-14
11
1497.4540782811907
21
52.257359312880716
31
5.6750893747658796e-14
 62
256
 0
LINE
 8
Layer0_S_
10
1497.4540782811907
20
52.257359312880716
30
5.6750893747658796e-14
11
1496.9365989265627
21
52.84743142594768
31
5.6750893747658796e-14
 62
256
 0
LINE
 8
Layer0_S_
10
1496.9365989265627
20
52.84743142594768
30
5.6750893747658796e-14
11
1496.5005665456035
21
53.5
31
5.6750893747658796e-14
 62
256
 0
LINE
 8
Layer0_S_
10
1496.5005665456035
20
53.5
30
5.6750893747658796e-14
11
1496.1534417732423
21
54.203899405809466
31
5.6750893747658796e-14
 62
256
 0
LINE
 8
Layer0_S_
10
1496.1534417732423
20
54.203899405809466
30
5.6750893747658796e-14
11
1495.9011640105757
21
54.947085729384874
31
5.6750893747658796e-14
 62
256
 0
LINE
 8
Layer0_S_
10
1495.9011640105757
20
54.947085729384874
30
5.6750893747658796e-14
11
1495.7480498000673
21
55.71684284667968
31
5.6750893747658796e-14
 62
256
 0
LINE
 8
Layer0_S_
10
1495.7480498000673
20
55.71684284667968
30
5.6750893747658796e-14
11
1495.69671896831
21
56.5
31
5.6750893747658796e-14
 62
256
 0
LINE
 8
Layer0_S_
10
1443.69671896831
20
56.5
30
1.7271362991988236e-14
11
1443.69671896831
21
82.99999999999993
31
2.855122892217983e-14
 62
256
 0
LINE
 8
Layer0_S_
10
1479.6967189683103
20
50.5
30
1.7271362991988236e-14
11
1449.69671896831
21
50.5
31
1.7271362991988236e-14
 62
256
 0
LINE
 8
Layer0_S_
10
1485.69671896831
20
82.99999999999993
30
4.54710278174672e-14
11
1485.69671896831
21
56.50000000000001
31
1.7271362991988236e-14
 62
256
 0
LINE
 8
Layer0_S_
10
1449.69671896831
20
88.99999999999993
30
2.855122892217983e-14
11
1479.6967189683103
21
88.99999999999993
31
4.54710278174672e-14
 62
256
 0
LINE
 8
Layer0_S_
10
1449.69671896831
20
50.5
30
1.7271362991988236e-14
11
1448.9135618149899
21
50.55133083175714
31
1.7271362991988236e-14
 62
256
 0
LINE
 8
Layer0_S_
10
1448.9135618149899
20
50.55133083175714
30
1.7271362991988236e-14
11
1448.143804697695
21
50.7044450422656
31
1.7271362991988236e-14
 62
256
 0
LINE
 8
Layer0_S_
10
1448.143804697695
20
50.7044450422656
30
1.7271362991988236e-14
11
1447.4006183741196
21
50.956722804932284
31
1.7271362991988236e-14
 62
256
 0
LINE
 8
Layer0_S_
10
1447.4006183741196
20
50.956722804932284
30
1.7271362991988236e-14
11
1446.69671896831
21
51.303847577293375
31
1.7271362991988236e-14
 62
256
 0
LINE
 8
Layer0_S_
10
1446.69671896831
20
51.303847577293375
30
1.7271362991988236e-14
11
1446.0441503942577
21
51.739879958252594
31
1.7271362991988236e-14
 62
256
 0
LINE
 8
Layer0_S_
10
1446.0441503942577
20
51.739879958252594
30
1.7271362991988236e-14
11
1445.4540782811907
21
52.257359312880716
31
1.7271362991988236e-14
 62
256
 0
LINE
 8
Layer0_S_
10
1445.4540782811907
20
52.257359312880716
30
1.7271362991988236e-14
11
1444.9365989265627
21
52.84743142594768
31
1.7271362991988236e-14
 62
256
 0
LINE
 8
Layer0_S_
10
1444.9365989265627
20
52.84743142594768
30
1.7271362991988236e-14
11
1444.5005665456035
21
53.5
31
1.7271362991988236e-14
 62
256
 0
LINE
 8
Layer0_S_
10
1444.5005665456035
20
53.5
30
1.7271362991988236e-14
11
1444.1534417732423
21
54.203899405809466
31
1.7271362991988236e-14
 62
256
 0
LINE
 8
Layer0_S_
10
1444.1534417732423
20
54.203899405809466
30
1.7271362991988236e-14
11
1443.9011640105757
21
54.947085729384874
31
1.7271362991988236e-14
 62
256
 0
LINE
 8
Layer0_S_
10
1443.9011640105757
20
54.947085729384874
30
1.7271362991988236e-14
11
1443.7480498000673
21
55.71684284667968
31
1.7271362991988236e-14
 62
256
 0
LINE
 8
Layer0_S_
10
1443.7480498000673
20
55.71684284667968
30
1.7271362991988236e-14
11
1443.69671896831
21
56.5
31
1.7271362991988236e-14
 62
256
 0
LINE
 8
Layer0_S_
10
1479.6967189683103
20
50.5
30
1.7271362991988236e-14
11
1480.4798761216305
21
50.55133083175714
31
1.7271362991988236e-14
 62
256
 0
LINE
 8
Layer0_S_
10
1480.4798761216305
20
50.55133083175714
30
1.7271362991988236e-14
11
1481.2496332389253
21
50.7044450422656
31
1.7271362991988236e-14
 62
256
 0
LINE
 8
Layer0_S_
10
1481.2496332389253
20
50.7044450422656
30
1.7271362991988236e-14
11
1481.9928195625007
21
50.956722804932284
31
1.7271362991988236e-14
 62
256
 0
LINE
 8
Layer0_S_
10
1481.9928195625007
20
50.956722804932284
30
1.7271362991988236e-14
11
1482.69671896831
21
51.303847577293375
31
1.7271362991988236e-14
 62
256
 0
LINE
 8
Layer0_S_
10
1482.69671896831
20
51.303847577293375
30
1.7271362991988236e-14
11
1483.3492875423624
21
51.739879958252594
31
1.7271362991988236e-14
 62
256
 0
LINE
 8
Layer0_S_
10
1483.3492875423624
20
51.739879958252594
30
1.7271362991988236e-14
11
1483.9393596554294
21
52.257359312880716
31
1.7271362991988236e-14
 62
256
 0
LINE
 8
Layer0_S_
10
1483.9393596554294
20
52.257359312880716
30
1.7271362991988236e-14
11
1484.4568390100576
21
52.84743142594768
31
1.7271362991988236e-14
 62
256
 0
LINE
 8
Layer0_S_
10
1484.4568390100576
20
52.84743142594768
30
1.7271362991988236e-14
11
1484.8928713910168
21
53.5
31
1.7271362991988236e-14
 62
256
 0
LINE
 8
Layer0_S_
10
1484.8928713910168
20
53.5
30
1.7271362991988236e-14
11
1485.239996163378
21
54.203899405809466
31
1.7271362991988236e-14
 62
256
 0
LINE
 8
Layer0_S_
10
1485.239996163378
20
54.203899405809466
30
1.7271362991988236e-14
11
1485.4922739260446
21
54.94708572938488
31
1.7271362991988236e-14
 62
256
 0
LINE
 8
Layer0_S_
10
1485.4922739260446
20
54.94708572938488
30
1.7271362991988236e-14
11
1485.645388136553
21
55.7168428466797
31
1.7271362991988236e-14
 62
256
 0
LINE
 8
Layer0_S_
10
1485.645388136553
20
55.7168428466797
30
1.7271362991988236e-14
11
1485.69671896831
21
56.50000000000001
31
1.7271362991988236e-14
 62
256
 0
LINE
 8
Layer0_S_
10
1479.6967189683103
20
88.99999999999993
30
4.54710278174672e-14
11
1480.4798761216302
21
88.94866916824277
31
4.54710278174672e-14
 62
256
 0
LINE
 8
Layer0_S_
10
1480.4798761216302
20
88.94866916824277
30
4.54710278174672e-14
11
1481.2496332389253
21
88.79555495773432
31
4.54710278174672e-14
 62
256
 0
LINE
 8
Layer0_S_
10
1481.2496332389253
20
88.79555495773432
30
4.54710278174672e-14
11
1481.9928195625007
21
88.54327719506765
31
4.54710278174672e-14
 62
256
 0
LINE
 8
Layer0_S_
10
1481.9928195625007
20
88.54327719506765
30
4.54710278174672e-14
11
1482.69671896831
21
88.19615242270655
31
4.54710278174672e-14
 62
256
 0
LINE
 8
Layer0_S_
10
1482.69671896831
20
88.19615242270655
30
4.54710278174672e-14
11
1483.3492875423624
21
87.76012004174733
31
4.54710278174672e-14
 62
256
 0
LINE
 8
Layer0_S_
10
1483.3492875423624
20
87.76012004174733
30
4.54710278174672e-14
11
1483.9393596554294
21
87.2426406871192
31
4.54710278174672e-14
 62
256
 0
LINE
 8
Layer0_S_
10
1483.9393596554294
20
87.2426406871192
30
4.54710278174672e-14
11
1484.4568390100576
21
86.65256857405224
31
4.54710278174672e-14
 62
256
 0
LINE
 8
Layer0_S_
10
1484.4568390100576
20
86.65256857405224
30
4.54710278174672e-14
11
1484.8928713910168
21
85.99999999999991
31
4.54710278174672e-14
 62
256
 0
LINE
 8
Layer0_S_
10
1484.8928713910168
20
85.99999999999991
30
4.54710278174672e-14
11
1485.239996163378
21
85.29610059419046
31
4.54710278174672e-14
 62
256
 0
LINE
 8
Layer0_S_
10
1485.239996163378
20
85.29610059419046
30
4.54710278174672e-14
11
1485.4922739260446
21
84.55291427061505
31
4.54710278174672e-14
 62
256
 0
LINE
 8
Layer0_S_
10
1485.4922739260446
20
84.55291427061505
30
4.54710278174672e-14
11
1485.645388136553
21
83.78315715332025
31
4.54710278174672e-14
 62
256
 0
LINE
 8
Layer0_S_
10
1485.645388136553
20
83.78315715332025
30
4.54710278174672e-14
11
1485.69671896831
21
82.99999999999993
31
4.54710278174672e-14
 62
256
 0
LINE
 8
Layer0_S_
10
1449.69671896831
20
88.99999999999993
30
2.855122892217983e-14
11
1448.9135618149899
21
88.94866916824277
31
2.855122892217983e-14
 62
256
 0
LINE
 8
Layer0_S_
10
1448.9135618149899
20
88.94866916824277
30
2.855122892217983e-14
11
1448.143804697695
21
88.79555495773432
31
2.855122892217983e-14
 62
256
 0
LINE
 8
Layer0_S_
10
1448.143804697695
20
88.79555495773432
30
2.855122892217983e-14
11
1447.4006183741196
21
88.54327719506765
31
2.855122892217983e-14
 62
256
 0
LINE
 8
Layer0_S_
10
1447.4006183741196
20
88.54327719506765
30
2.855122892217983e-14
11
1446.69671896831
21
88.19615242270655
31
2.855122892217983e-14
 62
256
 0
LINE
 8
Layer0_S_
10
1446.69671896831
20
88.19615242270655
30
2.855122892217983e-14
11
1446.0441503942577
21
87.76012004174733
31
2.855122892217983e-14
 62
256
 0
LINE
 8
Layer0_S_
10
1446.0441503942577
20
87.76012004174733
30
2.855122892217983e-14
11
1445.4540782811907
21
87.2426406871192
31
2.855122892217983e-14
 62
256
 0
LINE
 8
Layer0_S_
10
1445.4540782811907
20
87.2426406871192
30
2.855122892217983e-14
11
1444.9365989265627
21
86.65256857405224
31
2.855122892217983e-14
 62
256
 0
LINE
 8
Layer0_S_
10
1444.9365989265627
20
86.65256857405224
30
2.855122892217983e-14
11
1444.5005665456035
21
85.99999999999991
31
2.855122892217983e-14
 62
256
 0
LINE
 8
Layer0_S_
10
1444.5005665456035
20
85.99999999999991
30
2.855122892217983e-14
11
1444.1534417732423
21
85.29610059419046
31
2.855122892217983e-14
 62
256
 0
LINE
 8
Layer0_S_
10
1444.1534417732423
20
85.29610059419046
30
2.855122892217983e-14
11
1443.9011640105757
21
84.55291427061505
31
2.855122892217983e-14
 62
256
 0
LINE
 8
Layer0_S_
10
1443.9011640105757
20
84.55291427061505
30
2.855122892217983e-14
11
1443.7480498000673
21
83.78315715332025
31
2.855122892217983e-14
 62
256
 0
LINE
 8
Layer0_S_
10
1443.7480498000673
20
83.78315715332025
30
2.855122892217983e-14
11
1443.69671896831
21
82.99999999999993
31
2.855122892217983e-14
 62
256
 0
LINE
 8
Layer0_S_
10
1449.69671896831
20
98.99999999999993
30
2.855122892217983e-14
11
1537.6430188721115
21
99.00000000000007
31
1.1631430026892443e-14
 62
256
 0
LINE
 8
Layer0_S_
10
1543.6430188721113
20
115.99999999999993
30
1.1631430026892443e-14
11
1543.6430188721113
21
105.00000000000009
31
1.1631430026892443e-14
 62
256
 0
LINE
 8
Layer0_S_
10
1449.69671896831
20
121.99999999999991
30
1.1631430026892443e-14
11
1537.6430188721115
21
121.99999999999991
31
5.9914970617966474e-15
 62
256
 0
LINE
 8
Layer0_S_
10
1443.69671896831
20
115.99999999999993
30
1.1631430026892443e-14
11
1443.69671896831
21
104.99999999999994
31
2.855122892217983e-14
 62
256
 0
LINE
 8
Layer0_S_
10
1543.6430188721113
20
105.00000000000009
30
1.1631430026892443e-14
11
1543.5916880403543
21
104.21684284667977
31
1.1837597160768045e-14
 62
256
 0
LINE
 8
Layer0_S_
10
1543.5916880403543
20
104.21684284667977
30
1.1837597160768045e-14
11
1543.4385738298458
21
103.44708572938497
31
1.2040236717822709e-14
 62
256
 0
LINE
 8
Layer0_S_
10
1543.4385738298458
20
103.44708572938497
30
1.2040236717822709e-14
11
1543.1862960671792
21
102.70389940580955
31
1.223588147905293e-14
 62
256
 0
LINE
 8
Layer0_S_
10
1543.1862960671792
20
102.70389940580955
30
1.223588147905293e-14
11
1542.839171294818
21
102.00000000000009
31
1.2421183908351078e-14
 62
256
 0
LINE
 8
Layer0_S_
10
1542.839171294818
20
102.00000000000009
30
1.2421183908351078e-14
11
1542.4031389138588
21
101.34743142594775
31
1.2592973429776329e-14
 62
256
 0
LINE
 8
Layer0_S_
10
1542.4031389138588
20
101.34743142594775
30
1.2592973429776329e-14
11
1541.8856595592306
21
100.7573593128808
31
1.2748310676988038e-14
 62
256
 0
LINE
 8
Layer0_S_
10
1541.8856595592306
20
100.7573593128808
30
1.2748310676988038e-14
11
1541.2955874461638
21
100.23987995825267
31
1.2884537786618795e-14
 62
256
 0
LINE
 8
Layer0_S_
10
1541.2955874461638
20
100.23987995825267
30
1.2884537786618795e-14
11
1540.6430188721115
21
99.80384757729345
31
1.299932387505353e-14
 62
256
 0
LINE
 8
Layer0_S_
10
1540.6430188721115
20
99.80384757729345
30
1.299932387505353e-14
11
1539.939119466302
21
99.45672280493235
31
1.30907049204944e-14
 62
256
 0
LINE
 8
Layer0_S_
10
1539.939119466302
20
99.45672280493235
30
1.30907049204944e-14
11
1539.1959331427265
21
99.20444504226568
31
1.3157117367918306e-14
 62
256
 0
LINE
 8
Layer0_S_
10
1539.1959331427265
20
99.20444504226568
30
1.3157117367918306e-14
11
1538.4261760254317
21
99.05133083175721
31
1.3197424881936814e-14
 62
256
 0
LINE
 8
Layer0_S_
10
1538.4261760254317
20
99.05133083175721
30
1.3197424881936814e-14
11
1537.6430188721115
21
99.00000000000007
31
1.1631430026892443e-14
 62
256
 0
LINE
 8
Layer0_S_
10
1543.6430188721113
20
115.99999999999993
30
1.1631430026892443e-14
11
1543.5916880403543
21
116.78315715332023
31
1.1424659863836002e-14
 62
256
 0
LINE
 8
Layer0_S_
10
1543.5916880403543
20
116.78315715332023
30
1.1424659863836002e-14
11
1543.4385738298458
21
117.55291427061503
31
1.1221427595596978e-14
 62
256
 0
LINE
 8
Layer0_S_
10
1543.4385738298458
20
117.55291427061503
30
1.1221427595596978e-14
11
1543.1862960671792
21
118.29610059419046
31
1.1025210582631566e-14
 62
256
 0
LINE
 8
Layer0_S_
10
1543.1862960671792
20
118.29610059419046
30
1.1025210582631566e-14
11
1542.839171294818
21
118.99999999999991
31
1.0839366152433245e-14
 62
256
 0
LINE
 8
Layer0_S_
10
1542.839171294818
20
118.99999999999991
30
1.0839366152433245e-14
11
1542.4031389138588
21
119.65256857405225
31
1.0667074154728511e-14
 62
256
 0
LINE
 8
Layer0_S_
10
1542.4031389138588
20
119.65256857405225
30
1.0667074154728511e-14
11
1541.8856595592306
21
120.24264068711922
31
1.0511282553366464e-14
 62
256
 0
LINE
 8
Layer0_S_
10
1541.8856595592306
20
120.24264068711922
30
1.0511282553366464e-14
11
1541.2955874461638
21
120.76012004174733
31
1.0374656985839997e-14
 62
256
 0
LINE
 8
Layer0_S_
10
1541.2955874461638
20
120.76012004174733
30
1.0374656985839997e-14
11
1540.6430188721115
21
121.19615242270655
31
1.0259535153489255e-14
 62
256
 0
LINE
 8
Layer0_S_
10
1540.6430188721115
20
121.19615242270655
30
1.0259535153489255e-14
11
1539.939119466302
21
121.54327719506765
31
1.0167886822783557e-14
 62
256
 0
LINE
 8
Layer0_S_
10
1539.939119466302
20
121.54327719506765
30
1.0167886822783557e-14
11
1539.1959331427265
21
121.79555495773434
31
1.0101280122070997e-14
 62
256
 0
LINE
 8
Layer0_S_
10
1539.1959331427265
20
121.79555495773434
30
1.0101280122070997e-14
11
1538.4261760254317
21
121.94866916824279
31
1.0060854710467636e-14
 62
256
 0
LINE
 8
Layer0_S_
10
1538.4261760254317
20
121.94866916824279
30
1.0060854710467636e-14
11
1537.6430188721115
21
121.99999999999991
31
5.9914970617966474e-15
 62
256
 0
LINE
 8
Layer0_S_
10
1443.69671896831
20
115.99999999999993
30
1.1631430026892443e-14
11
1443.7480498000673
21
116.78315715332023
31
1.1631430026892443e-14
 62
256
 0
LINE
 8
Layer0_S_
10
1443.7480498000673
20
116.78315715332023
30
1.1631430026892443e-14
11
1443.9011640105757
21
117.55291427061503
31
1.1631430026892443e-14
 62
256
 0
LINE
 8
Layer0_S_
10
1443.9011640105757
20
117.55291427061503
30
1.1631430026892443e-14
11
1444.1534417732423
21
118.29610059419046
31
1.1631430026892443e-14
 62
256
 0
LINE
 8
Layer0_S_
10
1444.1534417732423
20
118.29610059419046
30
1.1631430026892443e-14
11
1444.5005665456035
21
118.99999999999991
31
1.1631430026892443e-14
 62
256
 0
LINE
 8
Layer0_S_
10
1444.5005665456035
20
118.99999999999991
30
1.1631430026892443e-14
11
1444.9365989265627
21
119.65256857405222
31
1.1631430026892443e-14
 62
256
 0
LINE
 8
Layer0_S_
10
1444.9365989265627
20
119.65256857405222
30
1.1631430026892443e-14
11
1445.4540782811907
21
120.24264068711919
31
1.1631430026892443e-14
 62
256
 0
LINE
 8
Layer0_S_
10
1445.4540782811907
20
120.24264068711919
30
1.1631430026892443e-14
11
1446.0441503942577
21
120.76012004174733
31
1.1631430026892443e-14
 62
256
 0
LINE
 8
Layer0_S_
10
1446.0441503942577
20
120.76012004174733
30
1.1631430026892443e-14
11
1446.69671896831
21
121.19615242270655
31
1.1631430026892443e-14
 62
256
 0
LINE
 8
Layer0_S_
10
1446.69671896831
20
121.19615242270655
30
1.1631430026892443e-14
11
1447.4006183741196
21
121.54327719506765
31
1.1631430026892443e-14
 62
256
 0
LINE
 8
Layer0_S_
10
1447.4006183741196
20
121.54327719506765
30
1.1631430026892443e-14
11
1448.143804697695
21
121.79555495773431
31
1.1631430026892443e-14
 62
256
 0
LINE
 8
Layer0_S_
10
1448.143804697695
20
121.79555495773431
30
1.1631430026892443e-14
11
1448.9135618149899
21
121.94866916824276
31
1.1631430026892443e-14
 62
256
 0
LINE
 8
Layer0_S_
10
1448.9135618149899
20
121.94866916824276
30
1.1631430026892443e-14
11
1449.69671896831
21
121.99999999999991
31
1.1631430026892443e-14
 62
256
 0
LINE
 8
Layer0_S_
10
1449.69671896831
20
98.99999999999993
30
2.855122892217983e-14
11
1448.9135618149899
21
99.05133083175708
31
2.855801880365815e-14
 62
256
 0
LINE
 8
Layer0_S_
10
1448.9135618149899
20
99.05133083175708
30
2.855801880365815e-14
11
1448.143804697695
21
99.20444504226553
31
2.856469250838187e-14
 62
256
 0
LINE
 8
Layer0_S_
10
1448.143804697695
20
99.20444504226553
30
2.856469250838187e-14
11
1447.4006183741196
21
99.45672280493221
31
2.857113584741286e-14
 62
256
 0
LINE
 8
Layer0_S_
10
1447.4006183741196
20
99.45672280493221
30
2.857113584741286e-14
11
1446.69671896831
21
99.80384757729331
31
2.857723857343387e-14
 62
256
 0
LINE
 8
Layer0_S_
10
1446.69671896831
20
99.80384757729331
30
2.857723857343387e-14
11
1446.0441503942577
21
100.23987995825253
31
2.858289626711068e-14
 62
256
 0
LINE
 8
Layer0_S_
10
1446.0441503942577
20
100.23987995825253
30
2.858289626711068e-14
11
1445.4540782811907
21
100.75735931288065
31
2.858801212373588e-14
 62
256
 0
LINE
 8
Layer0_S_
10
1445.4540782811907
20
100.75735931288065
30
2.858801212373588e-14
11
1444.9365989265627
21
101.34743142594762
31
2.859249860958423e-14
 62
256
 0
LINE
 8
Layer0_S_
10
1444.9365989265627
20
101.34743142594762
30
2.859249860958423e-14
11
1444.5005665456035
21
101.99999999999994
31
2.8596278959638973e-14
 62
256
 0
LINE
 8
Layer0_S_
10
1444.5005665456035
20
101.99999999999994
30
2.8596278959638973e-14
11
1444.1534417732423
21
102.70389940580941
31
2.859928849106256e-14
 62
256
 0
LINE
 8
Layer0_S_
10
1444.1534417732423
20
102.70389940580941
30
2.859928849106256e-14
11
1443.9011640105757
21
103.44708572938482
31
2.860147570993792e-14
 62
256
 0
LINE
 8
Layer0_S_
10
1443.9011640105757
20
103.44708572938482
30
2.860147570993792e-14
11
1443.7480498000673
21
104.21684284667963
31
2.860280319234371e-14
 62
256
 0
LINE
 8
Layer0_S_
10
1443.7480498000673
20
104.21684284667963
30
2.860280319234371e-14
11
1443.69671896831
21
104.99999999999994
31
2.855122892217983e-14
 62
256
 0
LINE
 8
Layer0_S_
10
1598.69671896831
20
14.999999999999995
30
1.1631430026892443e-14
11
1597.9202618330025
21
14.897777478867205
31
1.1631430026892443e-14
 62
256
 0
LINE
 8
Layer0_S_
10
1597.9202618330025
20
14.897777478867205
30
1.1631430026892443e-14
11
1597.19671896831
21
14.598076211353312
31
1.1631430026892443e-14
 62
256
 0
LINE
 8
Layer0_S_
10
1597.19671896831
20
14.598076211353312
30
1.1631430026892443e-14
11
1596.5753986247505
21
14.121320343559637
31
1.1631430026892443e-14
 62
256
 0
LINE
 8
Layer0_S_
10
1596.5753986247505
20
14.121320343559637
30
1.1631430026892443e-14
11
1596.0986427569567
21
13.499999999999998
31
1.1631430026892443e-14
 62
256
 0
LINE
 8
Layer0_S_
10
1596.0986427569567
20
13.499999999999998
30
1.1631430026892443e-14
11
1595.7989414894428
21
12.776457135307558
31
1.1631430026892443e-14
 62
256
 0
LINE
 8
Layer0_S_
10
1595.7989414894428
20
12.776457135307558
30
1.1631430026892443e-14
11
1595.69671896831
21
12.0
31
1.1631430026892443e-14
 62
256
 0
LINE
 8
Layer0_S_
10
1595.69671896831
20
12.0
30
1.1631430026892443e-14
11
1595.7989414894428
21
11.223542864692444
31
1.1631430026892443e-14
 62
256
 0
LINE
 8
Layer0_S_
10
1595.7989414894428
20
11.223542864692444
30
1.1631430026892443e-14
11
1596.0986427569567
21
10.500000000000004
31
1.1631430026892443e-14
 62
256
 0
LINE
 8
Layer0_S_
10
1596.0986427569567
20
10.500000000000004
30
1.1631430026892443e-14
11
1596.5753986247505
21
9.878679656440363
31
1.1631430026892443e-14
 62
256
 0
LINE
 8
Layer0_S_
10
1596.5753986247505
20
9.878679656440363
30
1.1631430026892443e-14
11
1597.19671896831
21
9.40192378864669
31
1.1631430026892443e-14
 62
256
 0
LINE
 8
Layer0_S_
10
1597.19671896831
20
9.40192378864669
30
1.1631430026892443e-14
11
1597.9202618330025
21
9.102222521132795
31
1.1631430026892443e-14
 62
256
 0
LINE
 8
Layer0_S_
10
1597.9202618330025
20
9.102222521132795
30
1.1631430026892443e-14
11
1598.69671896831
21
9.000000000000005
31
1.1631430026892443e-14
 62
256
 0
LINE
 8
Layer0_S_
10
1598.69671896831
20
9.000000000000005
30
1.1631430026892443e-14
11
1599.4731761036176
21
9.102222521132795
31
1.1631430026892443e-14
 62
256
 0
LINE
 8
Layer0_S_
10
1599.4731761036176
20
9.102222521132795
30
1.1631430026892443e-14
11
1600.19671896831
21
9.40192378864669
31
1.1631430026892443e-14
 62
256
 0
LINE
 8
Layer0_S_
10
1600.19671896831
20
9.40192378864669
30
1.1631430026892443e-14
11
1600.8180393118698
21
9.878679656440353
31
1.1631430026892443e-14
 62
256
 0
LINE
 8
Layer0_S_
10
1600.8180393118698
20
9.878679656440353
30
1.1631430026892443e-14
11
1601.2947951796634
21
10.500000000000004
31
1.1631430026892443e-14
 62
256
 0
LINE
 8
Layer0_S_
10
1601.2947951796634
20
10.500000000000004
30
1.1631430026892443e-14
11
1601.594496447177
21
11.223542864692432
31
1.1631430026892443e-14
 62
256
 0
LINE
 8
Layer0_S_
10
1601.594496447177
20
11.223542864692432
30
1.1631430026892443e-14
11
1601.69671896831
21
12.0
31
1.1631430026892443e-14
 62
256
 0
LINE
 8
Layer0_S_
10
1601.69671896831
20
12.0
30
1.1631430026892443e-14
11
1601.594496447177
21
12.776457135307558
31
1.1631430026892443e-14
 62
256
 0
LINE
 8
Layer0_S_
10
1601.594496447177
20
12.776457135307558
30
1.1631430026892443e-14
11
1601.2947951796634
21
13.499999999999998
31
1.1631430026892443e-14
 62
256
 0
LINE
 8
Layer0_S_
10
1601.2947951796634
20
13.499999999999998
30
1.1631430026892443e-14
11
1600.8180393118698
21
14.121320343559637
31
1.1631430026892443e-14
 62
256
 0
LINE
 8
Layer0_S_
10
1600.8180393118698
20
14.121320343559637
30
1.1631430026892443e-14
11
1600.19671896831
21
14.598076211353312
31
1.1631430026892443e-14
 62
256
 0
LINE
 8
Layer0_S_
10
1600.19671896831
20
14.598076211353312
30
1.1631430026892443e-14
11
1599.4731761036176
21
14.897777478867205
31
1.1631430026892443e-14
 62
256
 0
LINE
 8
Layer0_S_
10
1599.4731761036176
20
14.897777478867205
30
1.1631430026892443e-14
11
1598.69671896831
21
14.999999999999995
31
1.1631430026892443e-14
 62
256
 0
LINE
 8
Layer0_S_
10
1434.798941489443
20
11.223542864692444
30
1.1631430026892443e-14
11
1435.098642756957
21
10.500000000000004
31
1.1631430026892443e-14
 62
256
 0
LINE
 8
Layer0_S_
10
1435.098642756957
20
10.500000000000004
30
1.1631430026892443e-14
11
1435.5753986247503
21
9.878679656440363
31
1.1631430026892443e-14
 62
256
 0
LINE
 8
Layer0_S_
10
1435.5753986247503
20
9.878679656440363
30
1.1631430026892443e-14
11
1436.19671896831
21
9.40192378864669
31
1.1631430026892443e-14
 62
256
 0
LINE
 8
Layer0_S_
10
1436.19671896831
20
9.40192378864669
30
1.1631430026892443e-14
11
1436.9202618330025
21
9.102222521132807
31
1.1631430026892443e-14
 62
256
 0
LINE
 8
Layer0_S_
10
1436.9202618330025
20
9.102222521132807
30
1.1631430026892443e-14
11
1437.6967189683103
21
9.000000000000005
31
1.1631430026892443e-14
 62
256
 0
LINE
 8
Layer0_S_
10
1437.6967189683103
20
9.000000000000005
30
1.1631430026892443e-14
11
1438.4731761036176
21
9.102222521132807
31
1.1631430026892443e-14
 62
256
 0
LINE
 8
Layer0_S_
10
1438.4731761036176
20
9.102222521132807
30
1.1631430026892443e-14
11
1439.19671896831
21
9.40192378864669
31
1.1631430026892443e-14
 62
256
 0
LINE
 8
Layer0_S_
10
1439.19671896831
20
9.40192378864669
30
1.1631430026892443e-14
11
1439.8180393118698
21
9.878679656440363
31
1.1631430026892443e-14
 62
256
 0
LINE
 8
Layer0_S_
10
1439.8180393118698
20
9.878679656440363
30
1.1631430026892443e-14
11
1440.2947951796634
21
10.500000000000004
31
1.1631430026892443e-14
 62
256
 0
LINE
 8
Layer0_S_
10
1440.2947951796634
20
10.500000000000004
30
1.1631430026892443e-14
11
1440.5944964471773
21
11.223542864692432
31
1.1631430026892443e-14
 62
256
 0
LINE
 8
Layer0_S_
10
1440.5944964471773
20
11.223542864692432
30
1.1631430026892443e-14
11
1440.69671896831
21
12.0
31
1.1631430026892443e-14
 62
256
 0
LINE
 8
Layer0_S_
10
1440.69671896831
20
12.0
30
1.1631430026892443e-14
11
1440.5944964471773
21
12.776457135307558
31
1.1631430026892443e-14
 62
256
 0
LINE
 8
Layer0_S_
10
1440.5944964471773
20
12.776457135307558
30
1.1631430026892443e-14
11
1440.2947951796634
21
13.499999999999998
31
1.1631430026892443e-14
 62
256
 0
LINE
 8
Layer0_S_
10
1440.2947951796634
20
13.499999999999998
30
1.1631430026892443e-14
11
1439.8180393118698
21
14.121320343559637
31
1.1631430026892443e-14
 62
256
 0
LINE
 8
Layer0_S_
10
1439.8180393118698
20
14.121320343559637
30
1.1631430026892443e-14
11
1439.19671896831
21
14.598076211353312
31
1.1631430026892443e-14
 62
256
 0
LINE
 8
Layer0_S_
10
1439.19671896831
20
14.598076211353312
30
1.1631430026892443e-14
11
1438.4731761036176
21
14.897777478867194
31
1.1631430026892443e-14
 62
256
 0
LINE
 8
Layer0_S_
10
1438.4731761036176
20
14.897777478867194
30
1.1631430026892443e-14
11
1437.6967189683103
21
14.999999999999995
31
1.1631430026892443e-14
 62
256
 0
LINE
 8
Layer0_S_
10
1437.6967189683103
20
14.999999999999995
30
1.1631430026892443e-14
11
1436.9202618330025
21
14.897777478867194
31
1.1631430026892443e-14
 62
256
 0
LINE
 8
Layer0_S_
10
1436.9202618330025
20
14.897777478867194
30
1.1631430026892443e-14
11
1436.19671896831
21
14.598076211353312
31
1.1631430026892443e-14
 62
256
 0
LINE
 8
Layer0_S_
10
1436.19671896831
20
14.598076211353312
30
1.1631430026892443e-14
11
1435.5753986247503
21
14.121320343559637
31
1.1631430026892443e-14
 62
256
 0
LINE
 8
Layer0_S_
10
1435.5753986247503
20
14.121320343559637
30
1.1631430026892443e-14
11
1435.098642756957
21
13.499999999999998
31
1.1631430026892443e-14
 62
256
 0
LINE
 8
Layer0_S_
10
1435.098642756957
20
13.499999999999998
30
1.1631430026892443e-14
11
1434.798941489443
21
12.776457135307568
31
1.1631430026892443e-14
 62
256
 0
LINE
 8
Layer0_S_
10
1434.798941489443
20
12.776457135307568
30
1.1631430026892443e-14
11
1434.69671896831
21
12.0
31
1.1631430026892443e-14
 62
256
 0
LINE
 8
Layer0_S_
10
1434.69671896831
20
12.0
30
1.1631430026892443e-14
11
1434.798941489443
21
11.223542864692444
31
1.1631430026892443e-14
 62
256
 0
LINE
 8
Layer0_S_
10
1592.69671896831
20
115.00000000000016
30
1.1631430026892443e-14
11
1592.69671896831
21
115.99999999999993
31
1.1631430026892443e-14
 62
256
 0
LINE
 8
Layer0_S_
10
1586.69671896831
20
121.99999999999991
30
1.1631430026892443e-14
11
1559.6430188721115
21
121.99999999999991
31
5.9914970617966474e-15
 62
256
 0
LINE
 8
Layer0_S_
10
1553.6430188721115
20
115.99999999999993
30
1.1631430026892443e-14
11
1553.6430188721115
21
114.99999999999994
31
1.1631430026892443e-14
 62
256
 0
LINE
 8
Layer0_S_
10
1559.6430188721115
20
109.0000000000001
30
1.1631430026892443e-14
11
1586.69671896831
21
109.00000000000014
31
5.9914970617966474e-15
 62
256
 0
LINE
 8
Layer0_S_
10
1586.69671896831
20
121.99999999999991
30
1.1631430026892443e-14
11
1587.4798761216305
21
121.94866916824276
31
1.1631430026892443e-14
 62
256
 0
LINE
 8
Layer0_S_
10
1587.4798761216305
20
121.94866916824276
30
1.1631430026892443e-14
11
1588.2496332389253
21
121.79555495773431
31
1.1631430026892443e-14
 62
256
 0
LINE
 8
Layer0_S_
10
1588.2496332389253
20
121.79555495773431
30
1.1631430026892443e-14
11
1588.9928195625005
21
121.54327719506765
31
1.1631430026892443e-14
 62
256
 0
LINE
 8
Layer0_S_
10
1588.9928195625005
20
121.54327719506765
30
1.1631430026892443e-14
11
1589.69671896831
21
121.19615242270655
31
1.1631430026892443e-14
 62
256
 0
LINE
 8
Layer0_S_
10
1589.69671896831
20
121.19615242270655
30
1.1631430026892443e-14
11
1590.3492875423624
21
120.76012004174733
31
1.1631430026892443e-14
 62
256
 0
LINE
 8
Layer0_S_
10
1590.3492875423624
20
120.76012004174733
30
1.1631430026892443e-14
11
1590.9393596554294
21
120.24264068711919
31
1.1631430026892443e-14
 62
256
 0
LINE
 8
Layer0_S_
10
1590.9393596554294
20
120.24264068711919
30
1.1631430026892443e-14
11
1591.4568390100574
21
119.65256857405222
31
1.1631430026892443e-14
 62
256
 0
LINE
 8
Layer0_S_
10
1591.4568390100574
20
119.65256857405222
30
1.1631430026892443e-14
11
1591.8928713910168
21
118.99999999999991
31
1.1631430026892443e-14
 62
256
 0
LINE
 8
Layer0_S_
10
1591.8928713910168
20
118.99999999999991
30
1.1631430026892443e-14
11
1592.2399961633778
21
118.29610059419046
31
1.1631430026892443e-14
 62
256
 0
LINE
 8
Layer0_S_
10
1592.2399961633778
20
118.29610059419046
30
1.1631430026892443e-14
11
1592.4922739260444
21
117.55291427061503
31
1.1631430026892443e-14
 62
256
 0
LINE
 8
Layer0_S_
10
1592.4922739260444
20
117.55291427061503
30
1.1631430026892443e-14
11
1592.645388136553
21
116.78315715332023
31
1.1631430026892443e-14
 62
256
 0
LINE
 8
Layer0_S_
10
1592.645388136553
20
116.78315715332023
30
1.1631430026892443e-14
11
1592.69671896831
21
115.99999999999993
31
1.1631430026892443e-14
 62
256
 0
LINE
 8
Layer0_S_
10
1553.6430188721115
20
115.99999999999993
30
1.1631430026892443e-14
11
1553.6943497038685
21
116.78315715332023
31
1.1423356660999051e-14
 62
256
 0
LINE
 8
Layer0_S_
10
1553.6943497038685
20
116.78315715332023
30
1.1423356660999051e-14
11
1553.8474639143772
21
117.55291427061503
31
1.1218843488084933e-14
 62
256
 0
LINE
 8
Layer0_S_
10
1553.8474639143772
20
117.55291427061503
30
1.1218843488084933e-14
11
1554.0997416770438
21
118.29610059419046
31
1.1021389785240412e-14
 62
256
 0
LINE
 8
Layer0_S_
10
1554.0997416770438
20
118.29610059419046
30
1.1021389785240412e-14
11
1554.4468664494048
21
118.99999999999991
31
1.0834374040065663e-14
 62
256
 0
LINE
 8
Layer0_S_
10
1554.4468664494048
20
118.99999999999991
30
1.0834374040065663e-14
11
1554.8828988303642
21
119.65256857405225
31
1.066099614381119e-14
 62
256
 0
LINE
 8
Layer0_S_
10
1554.8828988303642
20
119.65256857405225
30
1.066099614381119e-14
11
1555.4003781849922
21
120.24264068711922
31
1.0504222640351341e-14
 62
256
 0
LINE
 8
Layer0_S_
10
1555.4003781849922
20
120.24264068711922
30
1.0504222640351341e-14
11
1555.9904502980592
21
120.76012004174733
31
1.036673596779614e-14
 62
256
 0
LINE
 8
Layer0_S_
10
1555.9904502980592
20
120.76012004174733
30
1.036673596779614e-14
11
1556.6430188721115
21
121.19615242270655
31
1.0250888561231513e-14
 62
256
 0
LINE
 8
Layer0_S_
10
1556.6430188721115
20
121.19615242270655
30
1.0250888561231513e-14
11
1557.3469182779208
21
121.54327719506765
31
1.0158662601902749e-14
 62
256
 0
LINE
 8
Layer0_S_
10
1557.3469182779208
20
121.54327719506765
30
1.0158662601902749e-14
11
1558.0901046014963
21
121.79555495773434
31
1.0091636101543832e-14
 62
256
 0
LINE
 8
Layer0_S_
10
1558.0901046014963
20
121.79555495773434
30
1.0091636101543832e-14
11
1558.859861718791
21
121.94866916824279
31
1.005095590215916e-14
 62
256
 0
LINE
 8
Layer0_S_
10
1558.859861718791
20
121.94866916824279
30
1.005095590215916e-14
11
1559.6430188721115
21
121.99999999999991
31
5.9914970617966474e-15
 62
256
 0
LINE
 8
Layer0_S_
10
1559.6430188721115
20
109.0000000000001
30
1.1631430026892443e-14
11
1558.859861718791
21
109.05133083175723
31
1.1631430026892443e-14
 62
256
 0
LINE
 8
Layer0_S_
10
1558.859861718791
20
109.05133083175723
30
1.1631430026892443e-14
11
1558.0901046014963
21
109.20444504226568
31
1.1631430026892443e-14
 62
256
 0
LINE
 8
Layer0_S_
10
1558.0901046014963
20
109.20444504226568
30
1.1631430026892443e-14
11
1557.3469182779208
21
109.45672280493237
31
1.1631430026892443e-14
 62
256
 0
LINE
 8
Layer0_S_
10
1557.3469182779208
20
109.45672280493237
30
1.1631430026892443e-14
11
1556.6430188721115
21
109.80384757729344
31
1.1631430026892443e-14
 62
256
 0
LINE
 8
Layer0_S_
10
1556.6430188721115
20
109.80384757729344
30
1.1631430026892443e-14
11
1555.9904502980592
21
110.23987995825263
31
1.1631430026892443e-14
 62
256
 0
LINE
 8
Layer0_S_
10
1555.9904502980592
20
110.23987995825263
30
1.1631430026892443e-14
11
1555.4003781849922
21
110.75735931288077
31
1.1631430026892443e-14
 62
256
 0
LINE
 8
Layer0_S_
10
1555.4003781849922
20
110.75735931288077
30
1.1631430026892443e-14
11
1554.8828988303642
21
111.3474314259477
31
1.1631430026892443e-14
 62
256
 0
LINE
 8
Layer0_S_
10
1554.8828988303642
20
111.3474314259477
30
1.1631430026892443e-14
11
1554.4468664494048
21
112.00000000000001
31
1.1631430026892443e-14
 62
256
 0
LINE
 8
Layer0_S_
10
1554.4468664494048
20
112.00000000000001
30
1.1631430026892443e-14
11
1554.0997416770438
21
112.70389940580945
31
1.1631430026892443e-14
 62
256
 0
LINE
 8
Layer0_S_
10
1554.0997416770438
20
112.70389940580945
30
1.1631430026892443e-14
11
1553.8474639143772
21
113.44708572938485
31
1.1631430026892443e-14
 62
256
 0
LINE
 8
Layer0_S_
10
1553.8474639143772
20
113.44708572938485
30
1.1631430026892443e-14
11
1553.6943497038685
21
114.21684284667965
31
1.1631430026892443e-14
 62
256
 0
LINE
 8
Layer0_S_
10
1553.6943497038685
20
114.21684284667965
30
1.1631430026892443e-14
11
1553.6430188721115
21
114.99999999999994
31
1.1631430026892443e-14
 62
256
 0
LINE
 8
Layer0_S_
10
1586.69671896831
20
109.00000000000014
30
5.9914970617966474e-15
11
1587.4798761216305
21
109.05133083175727
31
5.9914970617966474e-15
 62
256
 0
LINE
 8
Layer0_S_
10
1587.4798761216305
20
109.05133083175727
30
5.9914970617966474e-15
11
1588.2496332389253
21
109.20444504226575
31
5.9914970617966474e-15
 62
256
 0
LINE
 8
Layer0_S_
10
1588.2496332389253
20
109.20444504226575
30
5.9914970617966474e-15
11
1588.9928195625005
21
109.45672280493243
31
5.9914970617966474e-15
 62
256
 0
LINE
 8
Layer0_S_
10
1588.9928195625005
20
109.45672280493243
30
5.9914970617966474e-15
11
1589.69671896831
21
109.80384757729351
31
5.9914970617966474e-15
 62
256
 0
LINE
 8
Layer0_S_
10
1589.69671896831
20
109.80384757729351
30
5.9914970617966474e-15
11
1590.3492875423624
21
110.23987995825273
31
5.9914970617966474e-15
 62
256
 0
LINE
 8
Layer0_S_
10
1590.3492875423624
20
110.23987995825273
30
5.9914970617966474e-15
11
1590.9393596554291
21
110.75735931288085
31
5.9914970617966474e-15
 62
256
 0
LINE
 8
Layer0_S_
10
1590.9393596554291
20
110.75735931288085
30
5.9914970617966474e-15
11
1591.4568390100574
21
111.34743142594782
31
5.9914970617966474e-15
 62
256
 0
LINE
 8
Layer0_S_
10
1591.4568390100574
20
111.34743142594782
30
5.9914970617966474e-15
11
1591.8928713910168
21
112.00000000000016
31
5.9914970617966474e-15
 62
256
 0
LINE
 8
Layer0_S_
10
1591.8928713910168
20
112.00000000000016
30
5.9914970617966474e-15
11
1592.2399961633778
21
112.70389940580962
31
5.9914970617966474e-15
 62
256
 0
LINE
 8
Layer0_S_
10
1592.2399961633778
20
112.70389940580962
30
5.9914970617966474e-15
11
1592.4922739260444
21
113.44708572938501
31
5.9914970617966474e-15
 62
256
 0
LINE
 8
Layer0_S_
10
1592.4922739260444
20
113.44708572938501
30
5.9914970617966474e-15
11
1592.645388136553
21
114.21684284667984
31
5.9914970617966474e-15
 62
256
 0
LINE
 8
Layer0_S_
10
1592.645388136553
20
114.21684284667984
30
5.9914970617966474e-15
11
1592.69671896831
21
115.00000000000016
31
1.1631430026892443e-14
 62
256
 0
ENDSEC
 0
EOF
