 0
SECTION
 2
HEADER
 9
$ACADVER
 1
AC1006
 9
$LTSCALE
 40
1000.0
 0
ENDSEC
 0
SECTION
 2
TABLES
 0
TABLE
 2
LTYPE
 70
1
 0
LTYPE
 2
SKEMA_SOLID
 70
64
 3
Sketchup - Skema Ltype
 72
65
 73
0
 40
0.000000
 0
LTYPE
 2
SKEMA_DASHED
 70
64
 3
Sketchup - Skema Ltype
 72
65
 73
2
 40
0.1
 49
0.05
 49
-0.05
 0
LTYPE
 2
SKEMA_DOTTED
 70
64
 3
Sketchup - Skema Ltype
 72
65
 73
2
 40
00.1
 49
0.0
 49
-00.1
 0
ENDTAB
 0
TABLE
 2
LAYER
 70
6
 0
LAYER
 2
Layer0_S_
 70
64
 62
20
 6
SKEMA_SOLID
 0
ENDTAB
 0
TABLE
 2
STYLE
 70
0
 0
ENDTAB
 0
ENDSEC
 0
SECTION
 2
BLOCKS
 0
ENDSEC
 0
SECTION
 2
ENTITIES
 0
LINE
 8
Layer0_S_
10
1881.8360627619718
20
139.99999999999991
30
0.0
11
1724.836062761972
21
139.99999999999991
31
1.6914165048078584e-14
 62
256
 0
LINE
 8
Layer0_S_
10
1881.8360627619718
20
139.99999999999991
30
0.0
11
1881.821352219279
21
133.65163174925272
31
1.1746863341204113e-14
 62
256
 0
LINE
 8
Layer0_S_
10
1885.836062761972
20
139.81107288852084
30
1.6935074806355725e-14
11
1885.850773304665
21
133.65163174925272
31
1.0754739865787928e-14
 62
256
 0
LINE
 8
Layer0_S_
10
1895.8360627619718
20
12.0
30
1.0252836207245348e-14
11
1895.8360627619718
21
127.99999999999993
31
9.616586774640386e-16
 62
256
 0
LINE
 8
Layer0_S_
10
1722.8360627619718
20
0.0
30
1.1207784506186803e-14
11
1883.836062761972
21
0.0
31
1.1213561890904108e-14
 62
256
 0
LINE
 8
Layer0_S_
10
1710.836062761972
20
127.99999999999993
30
9.550200676957078e-16
11
1710.836062761972
21
12.0
31
1.0246197597477015e-14
 62
256
 0
LINE
 8
Layer0_S_
10
1720.8360627619718
20
139.81107288852084
30
9.354988842529215e-18
11
1720.8213522192789
21
133.65163174925272
31
1.0748817887804811e-14
 62
256
 0
LINE
 8
Layer0_S_
10
1724.836062761972
20
139.99999999999991
30
1.6914165048078584e-14
11
1724.8507733046647
21
133.65163174925272
31
1.1741230549752643e-14
 62
256
 0
LINE
 8
Layer0_S_
10
1881.821352219279
20
133.65163174925272
30
1.1746863341204113e-14
11
1880.4635399795368
21
132.96246814417532
31
1.2889677612046205e-14
 62
256
 0
LINE
 8
Layer0_S_
10
1880.4635399795368
20
132.96246814417532
30
1.2889677612046205e-14
11
1879.3229369950225
21
131.9536939451224
31
1.435396258729643e-14
 62
256
 0
LINE
 8
Layer0_S_
10
1879.3229369950225
20
131.9536939451224
30
1.435396258729643e-14
11
1878.4730044521423
21
130.69027983030884
31
1.6045410157140825e-14
 62
256
 0
LINE
 8
Layer0_S_
10
1878.4730044521423
20
130.69027983030884
30
1.6045410157140825e-14
11
1877.9684827415592
21
129.2535967071018
31
1.7855081675169967e-14
 62
256
 0
LINE
 8
Layer0_S_
10
1877.9684827415592
20
129.2535967071018
30
1.7855081675169967e-14
11
1877.8418658720836
21
127.73617497227609
31
1.9666424214095704e-14
 62
256
 0
LINE
 8
Layer0_S_
10
1877.8418658720836
20
127.73617497227609
30
1.9666424214095704e-14
11
1878.1013086754808
21
126.23574503898274
31
2.1362777223575025e-14
 62
256
 0
LINE
 8
Layer0_S_
10
1878.1013086754808
20
126.23574503898274
30
2.1362777223575025e-14
11
1878.7301015898784
21
124.84894295369415
31
2.2834886119558215e-14
 62
256
 0
LINE
 8
Layer0_S_
10
1878.7301015898784
20
124.84894295369415
30
2.2834886119558215e-14
11
1879.6877468486368
21
123.66508649646015
31
2.3987938888149724e-14
 62
256
 0
LINE
 8
Layer0_S_
10
1879.6877468486368
20
123.66508649646015
30
2.3987938888149724e-14
11
1880.9125667621315
21
122.76042261829085
31
2.4747672507492744e-14
 62
256
 0
LINE
 8
Layer0_S_
10
1880.9125667621315
20
122.76042261829085
30
2.4747672507492744e-14
11
1882.3256761045652
21
122.19321671274636
31
2.50651559000898e-14
 62
256
 0
LINE
 8
Layer0_S_
10
1882.3256761045652
20
122.19321671274636
30
2.50651559000898e-14
11
1883.836062761972
21
121.99999999999991
31
2.4919941366784485e-14
 62
256
 0
LINE
 8
Layer0_S_
10
1883.836062761972
20
121.99999999999991
30
2.4919941366784485e-14
11
1885.3464494193788
21
122.19321671274636
31
2.4321381532499565e-14
 62
256
 0
LINE
 8
Layer0_S_
10
1885.3464494193788
20
122.19321671274636
30
2.4321381532499565e-14
11
1886.7595587618125
21
122.76042261829085
31
2.3308026985089234e-14
 62
256
 0
LINE
 8
Layer0_S_
10
1886.7595587618125
20
122.76042261829085
30
2.3308026985089234e-14
11
1887.984378675307
21
123.66508649646015
31
2.194514340271925e-14
 62
256
 0
LINE
 8
Layer0_S_
10
1887.984378675307
20
123.66508649646015
30
2.194514340271925e-14
11
1888.9420239340657
21
124.84894295369413
31
2.0320508080603487e-14
 62
256
 0
LINE
 8
Layer0_S_
10
1888.9420239340657
20
124.84894295369413
30
2.0320508080603487e-14
11
1889.5708168484632
21
126.23574503898271
31
1.853875658419227e-14
 62
256
 0
LINE
 8
Layer0_S_
10
1889.5708168484632
20
126.23574503898271
30
1.853875658419227e-14
11
1889.8302596518604
21
127.73617497227606
31
1.6714643635841475e-14
 62
256
 0
LINE
 8
Layer0_S_
10
1889.8302596518604
20
127.73617497227606
30
1.6714643635841475e-14
11
1889.7036427823843
21
129.2535967071018
31
1.4965652271403958e-14
 62
256
 0
LINE
 8
Layer0_S_
10
1889.7036427823843
20
129.2535967071018
30
1.4965652271403958e-14
11
1889.1991210718015
21
130.6902798303088
31
1.340442727823256e-14
 62
256
 0
LINE
 8
Layer0_S_
10
1889.1991210718015
20
130.6902798303088
30
1.340442727823256e-14
11
1888.349188528921
21
131.9536939451224
31
1.2131520243340003e-14
 62
256
 0
LINE
 8
Layer0_S_
10
1888.349188528921
20
131.9536939451224
30
1.2131520243340003e-14
11
1887.208585544407
21
132.9624681441753
31
1.1228913471030877e-14
 62
256
 0
LINE
 8
Layer0_S_
10
1887.208585544407
20
132.9624681441753
30
1.1228913471030877e-14
11
1885.850773304665
21
133.65163174925272
31
1.0754739865787928e-14
 62
256
 0
LINE
 8
Layer0_S_
10
1885.836062761972
20
139.81107288852084
30
1.6935074806355725e-14
11
1887.3282923089932
21
139.48060681283482
31
1.6961597483193625e-14
 62
256
 0
LINE
 8
Layer0_S_
10
1887.3282923089932
20
139.48060681283482
30
1.6961597483193625e-14
11
1888.7603121377692
21
138.94311509968514
31
1.7004699999019938e-14
 62
256
 0
LINE
 8
Layer0_S_
10
1888.7603121377692
20
138.94311509968514
30
1.7004699999019938e-14
11
1890.112327340471
21
138.22782982556296
31
1.7062040260642553e-14
 62
256
 0
LINE
 8
Layer0_S_
10
1890.112327340471
20
138.22782982556296
30
1.7062040260642553e-14
11
1891.3623716309735
21
137.34637228064383
31
1.7132686656796478e-14
 62
256
 0
LINE
 8
Layer0_S_
10
1891.3623716309735
20
137.34637228064383
30
1.7132686656796478e-14
11
1892.4901354517367
21
136.3130635676786
31
1.7215491390512782e-14
 62
256
 0
LINE
 8
Layer0_S_
10
1892.4901354517367
20
136.3130635676786
30
1.7215491390512782e-14
11
1893.4772959446163
21
135.1446919260295
31
1.7309109127456708e-14
 62
256
 0
LINE
 8
Layer0_S_
10
1893.4772959446163
20
135.1446919260295
30
1.7309109127456708e-14
11
1894.3078146436292
21
133.86023997196395
31
1.741201885366927e-14
 62
256
 0
LINE
 8
Layer0_S_
10
1894.3078146436292
20
133.86023997196395
30
1.741201885366927e-14
11
1894.9681980530374
21
132.48057628675267
31
1.7522548587588052e-14
 62
256
 0
LINE
 8
Layer0_S_
10
1894.9681980530374
20
132.48057628675267
30
1.7522548587588052e-14
11
1895.4477168771248
21
131.0281163633611
31
1.76389025448493e-14
 62
256
 0
LINE
 8
Layer0_S_
10
1895.4477168771248
20
131.0281163633611
30
1.76389025448493e-14
11
1895.7385803398172
21
129.52645842035844
31
1.7759190314522834e-14
 62
256
 0
LINE
 8
Layer0_S_
10
1895.7385803398172
20
129.52645842035844
30
1.7759190314522834e-14
11
1895.8360627619718
21
127.99999999999993
31
9.616586774640386e-16
 62
256
 0
LINE
 8
Layer0_S_
10
1883.836062761972
20
0.0
30
1.1213561890904108e-14
11
1885.4023770686126
21
0.10266166351427745
31
1.1350146496838529e-14
 62
256
 0
LINE
 8
Layer0_S_
10
1885.4023770686126
20
0.10266166351427745
30
1.1350146496838529e-14
11
1886.941891303202
21
0.40889008453118103
31
1.1757450901739287e-14
 62
256
 0
LINE
 8
Layer0_S_
10
1886.941891303202
20
0.40889008453118103
30
1.1757450901739287e-14
11
1888.428263950353
21
0.9134456098645543
31
1.2428506014312412e-14
 62
256
 0
LINE
 8
Layer0_S_
10
1888.428263950353
20
0.9134456098645543
30
1.2428506014312412e-14
11
1889.8360627619718
21
1.6076951545867417
31
1.3351829895530163e-14
 62
256
 0
LINE
 8
Layer0_S_
10
1889.8360627619718
20
1.6076951545867417
30
1.3351829895530163e-14
11
1891.1411999100765
21
2.4797599165051807
31
1.451162421779115e-14
 62
256
 0
LINE
 8
Layer0_S_
10
1891.1411999100765
20
2.4797599165051807
30
1.451162421779115e-14
11
1892.3213441362104
21
3.514718625761432
31
1.5888044578685752e-14
 62
256
 0
LINE
 8
Layer0_S_
10
1892.3213441362104
20
3.514718625761432
30
1.5888044578685752e-14
11
1893.3563028454669
21
4.694862851895357
31
1.7457540044223252e-14
 62
256
 0
LINE
 8
Layer0_S_
10
1893.3563028454669
20
4.694862851895357
30
1.7457540044223252e-14
11
1894.228367607385
21
6.0
31
1.9193256111841947e-14
 62
256
 0
LINE
 8
Layer0_S_
10
1894.228367607385
20
6.0
30
1.9193256111841947e-14
11
1894.9226171521075
21
7.407798811618921
31
2.1065494198393468e-14
 62
256
 0
LINE
 8
Layer0_S_
10
1894.9226171521075
20
7.407798811618921
30
2.1065494198393468e-14
11
1895.427172677441
21
8.89417145876975
31
2.3042219791134462e-14
 62
256
 0
LINE
 8
Layer0_S_
10
1895.427172677441
20
8.89417145876975
30
2.3042219791134462e-14
11
1895.7334010984575
21
10.433685693359385
31
2.5089610567121247e-14
 62
256
 0
LINE
 8
Layer0_S_
10
1895.7334010984575
20
10.433685693359385
30
2.5089610567121247e-14
11
1895.8360627619718
21
12.0
31
1.0252836207245348e-14
 62
256
 0
LINE
 8
Layer0_S_
10
1722.8360627619718
20
0.0
30
1.1207784506186803e-14
11
1721.2697484553312
21
0.10266166351427745
31
1.1344256699694669e-14
 62
256
 0
LINE
 8
Layer0_S_
10
1721.2697484553312
20
0.10266166351427745
30
1.1344256699694669e-14
11
1719.7302342207417
21
0.40889008453118103
31
1.1751450615576651e-14
 62
256
 0
LINE
 8
Layer0_S_
10
1719.7302342207417
20
0.40889008453118103
30
1.1751450615576651e-14
11
1718.2438615735907
21
0.9134456098645543
31
1.2422399053036538e-14
 62
256
 0
LINE
 8
Layer0_S_
10
1718.2438615735907
20
0.9134456098645543
30
1.2422399053036538e-14
11
1716.836062761972
21
1.6076951545867417
31
1.3345621898287344e-14
 62
256
 0
LINE
 8
Layer0_S_
10
1716.836062761972
20
1.6076951545867417
30
1.3345621898287344e-14
11
1715.5309256138673
21
2.4797599165051807
31
1.4505322552481082e-14
 62
256
 0
LINE
 8
Layer0_S_
10
1715.5309256138673
20
2.4797599165051807
30
1.4505322552481082e-14
11
1714.3507813877334
21
3.514718625761432
31
1.5881658215894735e-14
 62
256
 0
LINE
 8
Layer0_S_
10
1714.3507813877334
20
3.514718625761432
30
1.5881658215894735e-14
11
1713.315822678477
21
4.694862851895357
31
1.745107940373497e-14
 62
256
 0
LINE
 8
Layer0_S_
10
1713.315822678477
20
4.694862851895357
30
1.745107940373497e-14
11
1712.4437579165588
21
6.0
31
1.9186732884352073e-14
 62
256
 0
LINE
 8
Layer0_S_
10
1712.4437579165588
20
6.0
30
1.9186732884352073e-14
11
1711.7495083718363
21
7.407798811618921
31
2.1058921145478632e-14
 62
256
 0
LINE
 8
Layer0_S_
10
1711.7495083718363
20
7.407798811618921
30
2.1058921145478632e-14
11
1711.2449528465029
21
8.89417145876975
31
2.3035610526898122e-14
 62
256
 0
LINE
 8
Layer0_S_
10
1711.2449528465029
20
8.89417145876975
30
2.3035610526898122e-14
11
1710.9387244254863
21
10.433685693359385
31
2.5082979325252613e-14
 62
256
 0
LINE
 8
Layer0_S_
10
1710.9387244254863
20
10.433685693359385
30
2.5082979325252613e-14
11
1710.836062761972
21
12.0
31
1.0246197597477015e-14
 62
256
 0
LINE
 8
Layer0_S_
10
1720.8360627619718
20
139.81107288852084
30
9.354988842529215e-18
11
1719.3438332149506
21
139.48060681283482
31
1.4409154443482535e-16
 62
256
 0
LINE
 8
Layer0_S_
10
1719.3438332149506
20
139.48060681283482
30
1.4409154443482535e-16
11
1717.9118133861746
21
138.94311509968514
31
5.97915689233039e-16
 62
256
 0
LINE
 8
Layer0_S_
10
1717.9118133861746
20
138.94311509968514
30
5.97915689233039e-16
11
1716.5597981834728
21
138.22782982556296
31
1.3324458932994917e-15
 62
256
 0
LINE
 8
Layer0_S_
10
1716.5597981834728
20
138.22782982556296
30
1.3324458932994917e-15
11
1715.3097538929703
21
137.34637228064383
31
2.335748192727814e-15
 62
256
 0
LINE
 8
Layer0_S_
10
1715.3097538929703
20
137.34637228064383
30
2.335748192727814e-15
11
1714.181990072207
21
136.3130635676786
31
3.591521864467738e-15
 62
256
 0
LINE
 8
Layer0_S_
10
1714.181990072207
20
136.3130635676786
30
3.591521864467738e-15
11
1713.1948295793275
21
135.1446919260295
31
5.0793642653193764e-15
 62
256
 0
LINE
 8
Layer0_S_
10
1713.1948295793275
20
135.1446919260295
30
5.0793642653193764e-15
11
1712.3643108803146
21
133.86023997196398
31
6.7751023151128264e-15
 62
256
 0
LINE
 8
Layer0_S_
10
1712.3643108803146
20
133.86023997196398
30
6.7751023151128264e-15
11
1711.7039274709064
21
132.48057628675267
31
8.65118523844246e-15
 62
256
 0
LINE
 8
Layer0_S_
10
1711.7039274709064
20
132.48057628675267
30
8.65118523844246e-15
11
1711.224408646819
21
131.0281163633611
31
1.0677132184053409e-14
 62
256
 0
LINE
 8
Layer0_S_
10
1711.224408646819
20
131.0281163633611
30
1.0677132184053409e-14
11
1710.9335451841266
21
129.52645842035844
31
1.2820027449376499e-14
 62
256
 0
LINE
 8
Layer0_S_
10
1710.9335451841266
20
129.52645842035844
30
1.2820027449376499e-14
11
1710.836062761972
21
127.99999999999993
31
9.550200676957078e-16
 62
256
 0
LINE
 8
Layer0_S_
10
1724.8507733046647
20
133.65163174925272
30
1.1741230549752643e-14
11
1726.208585544407
21
132.96246814417535
31
1.2884142269087689e-14
 62
256
 0
LINE
 8
Layer0_S_
10
1726.208585544407
20
132.96246814417535
30
1.2884142269087689e-14
11
1727.3491885289213
21
131.95369394512244
31
1.43485091039932e-14
 62
256
 0
LINE
 8
Layer0_S_
10
1727.3491885289213
20
131.95369394512244
30
1.43485091039932e-14
11
1728.1991210718015
21
130.69027983030884
31
1.6040017672437396e-14
 62
256
 0
LINE
 8
Layer0_S_
10
1728.1991210718015
20
130.69027983030884
30
1.6040017672437396e-14
11
1728.7036427823846
21
129.2535967071018
31
1.7849725399361196e-14
 62
256
 0
LINE
 8
Layer0_S_
10
1728.7036427823846
20
129.2535967071018
30
1.7849725399361196e-14
11
1728.8302596518602
21
127.73617497227609
31
1.966107702542192e-14
 62
256
 0
LINE
 8
Layer0_S_
10
1728.8302596518602
20
127.73617497227609
30
1.966107702542192e-14
11
1728.570816848463
21
126.23574503898274
31
2.1357411415014436e-14
 62
256
 0
LINE
 8
Layer0_S_
10
1728.570816848463
20
126.23574503898274
30
2.1357411415014436e-14
11
1727.9420239340654
21
124.84894295369413
31
2.282947518331348e-14
 62
256
 0
LINE
 8
Layer0_S_
10
1727.9420239340654
20
124.84894295369413
30
2.282947518331348e-14
11
1726.984378675307
21
123.66508649646015
31
2.3982459222897756e-14
 62
256
 0
LINE
 8
Layer0_S_
10
1726.984378675307
20
123.66508649646015
30
2.3982459222897756e-14
11
1725.7595587618123
21
122.76042261829085
31
2.4742104938441397e-14
 62
256
 0
LINE
 8
Layer0_S_
10
1725.7595587618123
20
122.76042261829085
30
2.4742104938441397e-14
11
1724.3464494193788
21
122.19321671274636
31
2.5059486913941318e-14
 62
256
 0
LINE
 8
Layer0_S_
10
1724.3464494193788
20
122.19321671274636
30
2.5059486913941318e-14
11
1722.8360627619718
21
121.99999999999991
31
2.4914163982067162e-14
 62
256
 0
LINE
 8
Layer0_S_
10
1722.8360627619718
20
121.99999999999991
30
2.4914163982067162e-14
11
1721.325676104565
21
122.19321671274636
31
2.43154957492134e-14
 62
256
 0
LINE
 8
Layer0_S_
10
1721.325676104565
20
122.19321671274636
30
2.43154957492134e-14
11
1719.9125667621315
21
122.76042261829085
31
2.330203978470594e-14
 62
256
 0
LINE
 8
Layer0_S_
10
1719.9125667621315
20
122.76042261829085
30
2.330203978470594e-14
11
1718.6877468486368
21
123.66508649646015
31
2.1939068298536584e-14
 62
256
 0
LINE
 8
Layer0_S_
10
1718.6877468486368
20
123.66508649646015
30
2.1939068298536584e-14
11
1717.7301015898781
21
124.84894295369413
31
2.0314364247413586e-14
 62
256
 0
LINE
 8
Layer0_S_
10
1717.7301015898781
20
124.84894295369413
30
2.0314364247413586e-14
11
1717.1013086754806
21
126.23574503898274
31
1.853256762331822e-14
 62
256
 0
LINE
 8
Layer0_S_
10
1717.1013086754806
20
126.23574503898274
30
1.853256762331822e-14
11
1716.8418658720834
21
127.73617497227609
31
1.6708436055080635e-14
 62
256
 0
LINE
 8
Layer0_S_
10
1716.8418658720834
20
127.73617497227609
30
1.6708436055080635e-14
11
1716.9684827415595
21
129.2535967071018
31
1.4959453777778104e-14
 62
256
 0
LINE
 8
Layer0_S_
10
1716.9684827415595
20
129.2535967071018
30
1.4959453777778104e-14
11
1717.4730044521423
21
130.69027983030884
31
1.3398264993501373e-14
 62
256
 0
LINE
 8
Layer0_S_
10
1717.4730044521423
20
130.69027983030884
30
1.3398264993501373e-14
11
1718.3229369950227
21
131.95369394512247
31
1.2125418957208624e-14
 62
256
 0
LINE
 8
Layer0_S_
10
1718.3229369950227
20
131.95369394512247
30
1.2125418957208624e-14
11
1719.4635399795368
21
132.96246814417535
31
1.1222894044554797e-14
 62
256
 0
LINE
 8
Layer0_S_
10
1719.4635399795368
20
132.96246814417535
30
1.1222894044554797e-14
11
1720.8213522192789
21
133.65163174925272
31
1.0748817887804811e-14
 62
256
 0
LINE
 8
Layer0_S_
10
1880.836062761972
20
12.0
30
1.0252297941588455e-14
11
1880.9382852831047
21
12.776457135307558
31
1.0190110221086783e-14
 62
256
 0
LINE
 8
Layer0_S_
10
1880.9382852831047
20
12.776457135307558
30
1.0190110221086783e-14
11
1881.2379865506184
21
13.499999999999998
31
1.013216782735023e-14
 62
256
 0
LINE
 8
Layer0_S_
10
1881.2379865506184
20
13.499999999999998
30
1.013216782735023e-14
11
1881.7147424184125
21
14.121320343559637
31
1.008241943875761e-14
 62
256
 0
LINE
 8
Layer0_S_
10
1881.7147424184125
20
14.121320343559637
30
1.008241943875761e-14
11
1882.336062761972
21
14.598076211353312
31
1.0044255325778409e-14
 62
256
 0
LINE
 8
Layer0_S_
10
1882.336062761972
20
14.598076211353312
30
1.0044255325778409e-14
11
1883.0596056266643
21
14.897777478867205
31
1.0020276309642985e-14
 62
256
 0
LINE
 8
Layer0_S_
10
1883.0596056266643
20
14.897777478867205
30
1.0020276309642985e-14
11
1883.836062761972
21
14.999999999999995
31
1.0012116520673765e-14
 62
256
 0
LINE
 8
Layer0_S_
10
1883.836062761972
20
14.999999999999995
30
1.0012116520673765e-14
11
1884.6125198972795
21
14.897777478867205
31
1.0020332035004316e-14
 62
256
 0
LINE
 8
Layer0_S_
10
1884.6125198972795
20
14.897777478867205
30
1.0020332035004316e-14
11
1885.336062761972
21
14.598076211353312
31
1.0044362978909789e-14
 62
256
 0
LINE
 8
Layer0_S_
10
1885.336062761972
20
14.598076211353312
30
1.0044362978909789e-14
11
1885.9573831055316
21
14.121320343559637
31
1.0082571683276036e-14
 62
256
 0
LINE
 8
Layer0_S_
10
1885.9573831055316
20
14.121320343559637
30
1.0082571683276036e-14
11
1886.4341389733252
21
13.499999999999998
31
1.013235428804337e-14
 62
256
 0
LINE
 8
Layer0_S_
10
1886.4341389733252
20
13.499999999999998
30
1.013235428804337e-14
11
1886.733840240839
21
12.776457135307558
31
1.019031819096654e-14
 62
256
 0
LINE
 8
Layer0_S_
10
1886.733840240839
20
12.776457135307558
30
1.019031819096654e-14
11
1886.836062761972
21
12.0
31
1.0252513247851212e-14
 62
256
 0
LINE
 8
Layer0_S_
10
1886.836062761972
20
12.0
30
1.0252513247851212e-14
11
1886.733840240839
21
11.223542864692444
31
1.0314700968352885e-14
 62
256
 0
LINE
 8
Layer0_S_
10
1886.733840240839
20
11.223542864692444
30
1.0314700968352885e-14
11
1886.4341389733252
21
10.500000000000004
31
1.0372643362089438e-14
 62
256
 0
LINE
 8
Layer0_S_
10
1886.4341389733252
20
10.500000000000004
30
1.0372643362089438e-14
11
1885.9573831055316
21
9.878679656440363
31
1.042239175068206e-14
 62
256
 0
LINE
 8
Layer0_S_
10
1885.9573831055316
20
9.878679656440363
30
1.042239175068206e-14
11
1885.336062761972
21
9.40192378864669
31
1.0460555863661258e-14
 62
256
 0
LINE
 8
Layer0_S_
10
1885.336062761972
20
9.40192378864669
30
1.0460555863661258e-14
11
1884.6125198972795
21
9.102222521132795
31
1.0484534879796683e-14
 62
256
 0
LINE
 8
Layer0_S_
10
1884.6125198972795
20
9.102222521132795
30
1.0484534879796683e-14
11
1883.836062761972
21
9.000000000000005
31
1.0492694668765903e-14
 62
256
 0
LINE
 8
Layer0_S_
10
1883.836062761972
20
9.000000000000005
30
1.0492694668765903e-14
11
1883.0596056266643
21
9.102222521132795
31
1.0484479154435353e-14
 62
256
 0
LINE
 8
Layer0_S_
10
1883.0596056266643
20
9.102222521132795
30
1.0484479154435353e-14
11
1882.336062761972
21
9.40192378864669
31
1.046044821052988e-14
 62
256
 0
LINE
 8
Layer0_S_
10
1882.336062761972
20
9.40192378864669
30
1.046044821052988e-14
11
1881.7147424184125
21
9.878679656440363
31
1.0422239506163631e-14
 62
256
 0
LINE
 8
Layer0_S_
10
1881.7147424184125
20
9.878679656440363
30
1.0422239506163631e-14
11
1881.2379865506184
21
10.500000000000004
31
1.0372456901396297e-14
 62
256
 0
LINE
 8
Layer0_S_
10
1881.2379865506184
20
10.500000000000004
30
1.0372456901396297e-14
11
1880.9382852831047
21
11.223542864692432
31
1.0314492998473128e-14
 62
256
 0
LINE
 8
Layer0_S_
10
1880.9382852831047
20
11.223542864692432
30
1.0314492998473128e-14
11
1880.836062761972
21
12.0
31
1.0252297941588455e-14
 62
256
 0
LINE
 8
Layer0_S_
10
1719.8360627619718
20
12.0
30
1.024652055687115e-14
11
1719.9382852831047
21
12.776457135307558
31
1.0184332836369477e-14
 62
256
 0
LINE
 8
Layer0_S_
10
1719.9382852831047
20
12.776457135307558
30
1.0184332836369477e-14
11
1720.2379865506186
21
13.499999999999998
31
1.0126390442632924e-14
 62
256
 0
LINE
 8
Layer0_S_
10
1720.2379865506186
20
13.499999999999998
30
1.0126390442632924e-14
11
1720.7147424184122
21
14.121320343559637
31
1.0076642054040304e-14
 62
256
 0
LINE
 8
Layer0_S_
10
1720.7147424184122
20
14.121320343559637
30
1.0076642054040304e-14
11
1721.3360627619718
21
14.598076211353312
31
1.0038477941061105e-14
 62
256
 0
LINE
 8
Layer0_S_
10
1721.3360627619718
20
14.598076211353312
30
1.0038477941061105e-14
11
1722.0596056266643
21
14.897777478867194
31
1.0014498924925681e-14
 62
256
 0
LINE
 8
Layer0_S_
10
1722.0596056266643
20
14.897777478867194
30
1.0014498924925681e-14
11
1722.8360627619718
21
14.999999999999995
31
1.0006339135956461e-14
 62
256
 0
LINE
 8
Layer0_S_
10
1722.8360627619718
20
14.999999999999995
30
1.0006339135956461e-14
11
1723.6125198972795
21
14.897777478867194
31
1.0014554650287011e-14
 62
256
 0
LINE
 8
Layer0_S_
10
1723.6125198972795
20
14.897777478867194
30
1.0014554650287011e-14
11
1724.3360627619718
21
14.598076211353312
31
1.0038585594192485e-14
 62
256
 0
LINE
 8
Layer0_S_
10
1724.3360627619718
20
14.598076211353312
30
1.0038585594192485e-14
11
1724.9573831055313
21
14.121320343559637
31
1.0076794298558732e-14
 62
256
 0
LINE
 8
Layer0_S_
10
1724.9573831055313
20
14.121320343559637
30
1.0076794298558732e-14
11
1725.4341389733254
21
13.499999999999998
31
1.0126576903326066e-14
 62
256
 0
LINE
 8
Layer0_S_
10
1725.4341389733254
20
13.499999999999998
30
1.0126576903326066e-14
11
1725.7338402408393
21
12.776457135307558
31
1.0184540806249236e-14
 62
256
 0
LINE
 8
Layer0_S_
10
1725.7338402408393
20
12.776457135307558
30
1.0184540806249236e-14
11
1725.8360627619718
21
12.0
31
1.0246735863133907e-14
 62
256
 0
LINE
 8
Layer0_S_
10
1725.8360627619718
20
12.0
30
1.0246735863133907e-14
11
1725.7338402408393
21
11.223542864692444
31
1.0308923583635581e-14
 62
256
 0
LINE
 8
Layer0_S_
10
1725.7338402408393
20
11.223542864692444
30
1.0308923583635581e-14
11
1725.4341389733254
21
10.500000000000004
31
1.0366865977372134e-14
 62
256
 0
LINE
 8
Layer0_S_
10
1725.4341389733254
20
10.500000000000004
30
1.0366865977372134e-14
11
1724.9573831055313
21
9.878679656440363
31
1.0416614365964754e-14
 62
256
 0
LINE
 8
Layer0_S_
10
1724.9573831055313
20
9.878679656440363
30
1.0416614365964754e-14
11
1724.3360627619718
21
9.40192378864669
31
1.0454778478943952e-14
 62
256
 0
LINE
 8
Layer0_S_
10
1724.3360627619718
20
9.40192378864669
30
1.0454778478943952e-14
11
1723.6125198972795
21
9.102222521132807
31
1.0478757495079377e-14
 62
256
 0
LINE
 8
Layer0_S_
10
1723.6125198972795
20
9.102222521132807
30
1.0478757495079377e-14
11
1722.8360627619718
21
9.000000000000005
31
1.0486917284048598e-14
 62
256
 0
LINE
 8
Layer0_S_
10
1722.8360627619718
20
9.000000000000005
30
1.0486917284048598e-14
11
1722.0596056266643
21
9.102222521132807
31
1.0478701769718047e-14
 62
256
 0
LINE
 8
Layer0_S_
10
1722.0596056266643
20
9.102222521132807
30
1.0478701769718047e-14
11
1721.3360627619718
21
9.40192378864669
31
1.0454670825812574e-14
 62
256
 0
LINE
 8
Layer0_S_
10
1721.3360627619718
20
9.40192378864669
30
1.0454670825812574e-14
11
1720.7147424184122
21
9.878679656440363
31
1.0416462121446327e-14
 62
256
 0
LINE
 8
Layer0_S_
10
1720.7147424184122
20
9.878679656440363
30
1.0416462121446327e-14
11
1720.2379865506186
21
10.500000000000004
31
1.0366679516678993e-14
 62
256
 0
LINE
 8
Layer0_S_
10
1720.2379865506186
20
10.500000000000004
30
1.0366679516678993e-14
11
1719.9382852831047
21
11.223542864692444
31
1.0308715613755822e-14
 62
256
 0
LINE
 8
Layer0_S_
10
1719.9382852831047
20
11.223542864692444
30
1.0308715613755822e-14
11
1719.8360627619718
21
12.0
31
1.024652055687115e-14
 62
256
 0
LINE
 8
Layer0_S_
10
1871.8360627619718
20
18.0
30
9.771396834102182e-15
11
1734.836062761972
21
18.00000000000001
31
9.766480674435904e-15
 62
256
 0
LINE
 8
Layer0_S_
10
1877.836062761972
20
115.99999999999993
30
1.9221690548600423e-15
11
1877.836062761972
21
23.999999999999996
31
9.291033992272804e-15
 62
256
 0
LINE
 8
Layer0_S_
10
1871.8360627619718
20
121.99999999999991
30
1.4413756005051494e-15
11
1734.836062761972
21
121.99999999999993
31
1.4364594408388707e-15
 62
256
 0
LINE
 8
Layer0_S_
10
1728.8360627619718
20
115.99999999999993
30
1.9168222826682516e-15
11
1728.8360627619718
21
23.999999999999996
31
9.28568722008101e-15
 62
256
 0
LINE
 8
Layer0_S_
10
1734.836062761972
20
18.00000000000001
30
9.766480674435904e-15
11
1734.0529056086514
21
18.051330831757152
31
9.90709238372807e-15
 62
256
 0
LINE
 8
Layer0_S_
10
1734.0529056086514
20
18.051330831757152
30
9.90709238372807e-15
11
1733.2831484913568
21
18.204445042265604
31
1.0326577812486872e-14
 62
256
 0
LINE
 8
Layer0_S_
10
1733.2831484913568
20
18.204445042265604
30
1.0326577812486872e-14
11
1732.5399621677814
21
18.456722804932294
31
1.1017759448722933e-14
 62
256
 0
LINE
 8
Layer0_S_
10
1732.5399621677814
20
18.456722804932294
30
1.1017759448722933e-14
11
1731.836062761972
21
18.80384757729338
31
1.1968810983008496e-14
 62
256
 0
LINE
 8
Layer0_S_
10
1731.836062761972
20
18.80384757729338
30
1.1968810983008496e-14
11
1731.1834941879197
21
19.239879958252597
31
1.3163459659910645e-14
 62
256
 0
LINE
 8
Layer0_S_
10
1731.1834941879197
20
19.239879958252597
30
1.3163459659910645e-14
11
1730.5934220748527
21
19.757359312880723
31
1.4581264709348386e-14
 62
256
 0
LINE
 8
Layer0_S_
10
1730.5934220748527
20
19.757359312880723
30
1.4581264709348386e-14
11
1730.0759427202245
21
20.347431425947686
31
1.6197967093836017e-14
 62
256
 0
LINE
 8
Layer0_S_
10
1730.0759427202245
20
20.347431425947686
30
1.6197967093836017e-14
11
1729.6399103392653
21
21.000000000000007
31
1.7985904587340376e-14
 62
256
 0
LINE
 8
Layer0_S_
10
1729.6399103392653
20
21.000000000000007
30
1.7985904587340376e-14
11
1729.292785566904
21
21.703899405809462
31
1.991448508363768e-14
 62
256
 0
LINE
 8
Layer0_S_
10
1729.292785566904
20
21.703899405809462
30
1.991448508363768e-14
11
1729.0405078042374
21
22.447085729384877
31
2.195071003573275e-14
 62
256
 0
LINE
 8
Layer0_S_
10
1729.0405078042374
20
22.447085729384877
30
2.195071003573275e-14
11
1728.887393593729
21
23.216842846679686
31
2.4059739070147026e-14
 62
256
 0
LINE
 8
Layer0_S_
10
1728.887393593729
20
23.216842846679686
30
2.4059739070147026e-14
11
1728.8360627619718
21
23.999999999999996
31
9.28568722008101e-15
 62
256
 0
LINE
 8
Layer0_S_
10
1877.836062761972
20
23.999999999999996
30
9.291033992272804e-15
11
1877.7847319302148
21
23.216842846679686
31
9.498511411108962e-15
 62
256
 0
LINE
 8
Layer0_S_
10
1877.7847319302148
20
23.216842846679686
30
9.498511411108962e-15
11
1877.6316177197064
21
22.44708572938487
31
9.991937599988224e-15
 62
256
 0
LINE
 8
Layer0_S_
10
1877.6316177197064
20
22.44708572938487
30
9.991937599988224e-15
11
1877.3793399570397
21
21.703899405809455
31
1.0762869900015295e-14
 62
256
 0
LINE
 8
Layer0_S_
10
1877.3793399570397
20
21.703899405809455
30
1.0762869900015295e-14
11
1877.0322151846785
21
20.999999999999996
31
1.1798117445793905e-14
 62
256
 0
LINE
 8
Layer0_S_
10
1877.0322151846785
20
20.999999999999996
30
1.1798117445793905e-14
11
1876.5961828037193
21
20.347431425947672
31
1.3079966864790934e-14
 62
256
 0
LINE
 8
Layer0_S_
10
1876.5961828037193
20
20.347431425947672
30
1.3079966864790934e-14
11
1876.078703449091
21
19.757359312880716
31
1.4586485358051535e-14
 62
256
 0
LINE
 8
Layer0_S_
10
1876.078703449091
20
19.757359312880716
30
1.4586485358051535e-14
11
1875.4886313360244
21
19.239879958252587
31
1.629189597647019e-14
 62
256
 0
LINE
 8
Layer0_S_
10
1875.4886313360244
20
19.239879958252587
30
1.629189597647019e-14
11
1874.8360627619718
21
18.803847577293364
31
1.8167018671536605e-14
 62
256
 0
LINE
 8
Layer0_S_
10
1874.8360627619718
20
18.803847577293364
30
1.8167018671536605e-14
11
1874.1321633561624
21
18.456722804932284
31
2.017976957405596e-14
 62
256
 0
LINE
 8
Layer0_S_
10
1874.1321633561624
20
18.456722804932284
30
2.017976957405596e-14
11
1873.388977032587
21
18.20444504226559
31
2.229570995804618e-14
 62
256
 0
LINE
 8
Layer0_S_
10
1873.388977032587
20
18.20444504226559
30
2.229570995804618e-14
11
1872.6192199152924
21
18.051330831757138
31
2.4478635496887675e-14
 62
256
 0
LINE
 8
Layer0_S_
10
1872.6192199152924
20
18.051330831757138
30
2.4478635496887675e-14
11
1871.8360627619718
21
18.0
31
9.771396834102182e-15
 62
256
 0
LINE
 8
Layer0_S_
10
1877.836062761972
20
115.99999999999993
30
1.9221690548600423e-15
11
1877.7847319302148
21
116.78315715332022
31
2.0041904022269372e-15
 62
256
 0
LINE
 8
Layer0_S_
10
1877.7847319302148
20
116.78315715332022
30
2.0041904022269372e-15
11
1877.6316177197064
21
117.55291427061503
31
2.3743071078027694e-15
 62
256
 0
LINE
 8
Layer0_S_
10
1877.6316177197064
20
117.55291427061503
30
2.3743071078027694e-15
11
1877.3793399570397
21
118.29610059419046
31
3.0261863721394182e-15
 62
256
 0
LINE
 8
Layer0_S_
10
1877.3793399570397
20
118.29610059419046
30
3.0261863721394182e-15
11
1877.0322151846785
21
118.99999999999991
31
3.948674360289002e-15
 62
256
 0
LINE
 8
Layer0_S_
10
1877.0322151846785
20
118.99999999999991
30
3.948674360289002e-15
11
1876.5961828037193
21
119.65256857405222
31
5.1259870470123006e-15
 62
256
 0
LINE
 8
Layer0_S_
10
1876.5961828037193
20
119.65256857405222
30
5.1259870470123006e-15
11
1876.078703449091
21
120.24264068711919
31
6.537980285826726e-15
 62
256
 0
LINE
 8
Layer0_S_
10
1876.078703449091
20
120.24264068711919
30
6.537980285826726e-15
11
1875.4886313360244
21
120.76012004174733
31
8.160494480937682e-15
 62
256
 0
LINE
 8
Layer0_S_
10
1875.4886313360244
20
120.76012004174733
30
8.160494480937682e-15
11
1874.8360627619718
21
121.19615242270655
31
9.9657679646209e-15
 62
256
 0
LINE
 8
Layer0_S_
10
1874.8360627619718
20
121.19615242270655
30
9.9657679646209e-15
11
1874.1321633561624
21
121.54327719506765
31
1.192291200705419e-14
 62
256
 0
LINE
 8
Layer0_S_
10
1874.1321633561624
20
121.54327719506765
30
1.192291200705419e-14
11
1873.388977032587
21
121.79555495773434
31
1.399843933104868e-14
 62
256
 0
LINE
 8
Layer0_S_
10
1873.388977032587
20
121.79555495773434
30
1.399843933104868e-14
11
1872.6192199152924
21
121.94866916824276
31
1.615683708864593e-14
 62
256
 0
LINE
 8
Layer0_S_
10
1872.6192199152924
20
121.94866916824276
30
1.615683708864593e-14
11
1871.8360627619718
21
121.99999999999991
31
1.4413756005051494e-15
 62
256
 0
LINE
 8
Layer0_S_
10
1728.8360627619718
20
115.99999999999993
30
1.9168222826682516e-15
11
1728.887393593729
21
116.78315715332022
31
1.9988473139849958e-15
 62
256
 0
LINE
 8
Layer0_S_
10
1728.887393593729
20
116.78315715332022
30
1.9988473139849958e-15
11
1729.0405078042374
21
117.55291427061503
31
2.368975008376973e-15
 62
256
 0
LINE
 8
Layer0_S_
10
1729.0405078042374
20
117.55291427061503
30
2.368975008376973e-15
11
1729.292785566904
21
118.29610059419046
31
3.0208723783743727e-15
 62
256
 0
LINE
 8
Layer0_S_
10
1729.292785566904
20
118.29610059419046
30
3.0208723783743727e-15
11
1729.6399103392653
21
118.99999999999991
31
3.943385279236441e-15
 62
256
 0
LINE
 8
Layer0_S_
10
1729.6399103392653
20
118.99999999999991
30
3.943385279236441e-15
11
1730.0759427202245
21
119.65256857405225
31
5.120729259460529e-15
 62
256
 0
LINE
 8
Layer0_S_
10
1730.0759427202245
20
119.65256857405225
30
5.120729259460529e-15
11
1730.5934220748527
21
120.24264068711922
31
6.532759637123588e-15
 62
256
 0
LINE
 8
Layer0_S_
10
1730.5934220748527
20
120.24264068711922
30
6.532759637123588e-15
11
1731.1834941879197
21
120.76012004174733
31
8.155316180975016e-15
 62
256
 0
LINE
 8
Layer0_S_
10
1731.1834941879197
20
120.76012004174733
30
8.155316180975016e-15
11
1731.836062761972
21
121.19615242270658
31
9.960636498691856e-15
 62
256
 0
LINE
 8
Layer0_S_
10
1731.836062761972
20
121.19615242270658
30
9.960636498691856e-15
11
1732.5399621677814
21
121.54327719506765
31
1.191783105910862e-14
 62
256
 0
LINE
 8
Layer0_S_
10
1732.5399621677814
20
121.54327719506765
30
1.191783105910862e-14
11
1733.2831484913568
21
121.79555495773434
31
1.3993411720659726e-14
 62
256
 0
LINE
 8
Layer0_S_
10
1733.2831484913568
20
121.79555495773434
30
1.3993411720659726e-14
11
1734.0529056086514
21
121.94866916824279
31
1.6151864722766366e-14
 62
256
 0
LINE
 8
Layer0_S_
10
1734.0529056086514
20
121.94866916824279
30
1.6151864722766366e-14
11
1734.836062761972
21
121.99999999999993
31
1.4364594408388707e-15
 62
256
 0
ENDSEC
 0
EOF
