 0
SECTION
 2
HEADER
 9
$ACADVER
 1
AC1006
 9
$LTSCALE
 40
1000.0
 0
ENDSEC
 0
SECTION
 2
TABLES
 0
TABLE
 2
LTYPE
 70
1
 0
LTYPE
 2
SKEMA_SOLID
 70
64
 3
Sketchup - Skema Ltype
 72
65
 73
0
 40
0.000000
 0
LTYPE
 2
SKEMA_DASHED
 70
64
 3
Sketchup - Skema Ltype
 72
65
 73
2
 40
0.1
 49
0.05
 49
-0.05
 0
LTYPE
 2
SKEMA_DOTTED
 70
64
 3
Sketchup - Skema Ltype
 72
65
 73
2
 40
00.1
 49
0.0
 49
-00.1
 0
ENDTAB
 0
TABLE
 2
LAYER
 70
6
 0
LAYER
 2
Layer0_S_
 70
64
 62
20
 6
SKEMA_SOLID
 0
ENDTAB
 0
TABLE
 2
STYLE
 70
0
 0
ENDTAB
 0
ENDSEC
 0
SECTION
 2
BLOCKS
 0
ENDSEC
 0
SECTION
 2
ENTITIES
 0
LINE
 8
Layer0_S_
10
2005.9754065556338
20
139.81107288852084
30
1.7502574513213613e-17
11
2005.9606960129408
21
133.65163174925272
31
1.1826507856451902e-14
 62
256
 0
LINE
 8
Layer0_S_
10
2009.975406555634
20
139.99999999999991
30
1.6919798895287383e-14
11
2009.9901170983264
21
133.6516317492527
31
1.310768569706131e-14
 62
256
 0
LINE
 8
Layer0_S_
10
2166.9754065556335
20
139.99999999999991
30
0.0
11
2009.975406555634
21
139.99999999999991
31
1.6919798895287383e-14
 62
256
 0
LINE
 8
Layer0_S_
10
2166.9754065556335
20
139.99999999999991
30
0.0
11
2166.960696012941
21
133.65163174925272
31
1.1826507856451886e-14
 62
256
 0
LINE
 8
Layer0_S_
10
2170.9754065556335
20
139.81107288852084
30
1.6937301469800598e-14
11
2170.9901170983267
21
133.65163174925272
31
1.3107685697061298e-14
 62
256
 0
LINE
 8
Layer0_S_
10
2180.9754065556335
20
12.0
30
1.185816858232938e-14
11
2180.9754065556335
21
127.99999999999993
31
1.1117033045933798e-15
 62
256
 0
LINE
 8
Layer0_S_
10
2007.9754065556335
20
0.0
30
1.296987188692276e-14
11
2168.975406555634
21
0.0
31
1.296987188692276e-14
 62
256
 0
LINE
 8
Layer0_S_
10
1995.9754065556338
20
127.99999999999993
30
1.1117033045933798e-15
11
1995.9754065556338
21
12.0
31
1.185816858232938e-14
 62
256
 0
LINE
 8
Layer0_S_
10
2005.9606960129408
20
133.65163174925272
30
1.1826507856451902e-14
11
2004.6028837731988
21
132.9624681441753
31
1.2073310738279046e-14
 62
256
 0
LINE
 8
Layer0_S_
10
2004.6028837731988
20
132.9624681441753
30
1.2073310738279046e-14
11
2003.4622807886844
21
131.9536939451224
31
1.2703854342814395e-14
 62
256
 0
LINE
 8
Layer0_S_
10
2003.4622807886844
20
131.9536939451224
30
1.2703854342814395e-14
11
2002.612348245804
21
130.6902798303088
31
1.3677528149220741e-14
 62
256
 0
LINE
 8
Layer0_S_
10
2002.612348245804
20
130.6902798303088
30
1.3677528149220741e-14
11
2002.1078265352212
21
129.2535967071018
31
1.4931622140111038e-14
 62
256
 0
LINE
 8
Layer0_S_
10
2002.1078265352212
20
129.2535967071018
30
1.4931622140111038e-14
11
2001.9812096657454
21
127.73617497227609
31
1.6385365676020315e-14
 62
256
 0
LINE
 8
Layer0_S_
10
2001.9812096657454
20
127.73617497227609
30
1.6385365676020315e-14
11
2002.2406524691426
21
126.23574503898274
31
1.7945129574553652e-14
 62
256
 0
LINE
 8
Layer0_S_
10
2002.2406524691426
20
126.23574503898274
30
1.7945129574553652e-14
11
2002.86944538354
21
124.84894295369418
31
1.951045635133265e-14
 62
256
 0
LINE
 8
Layer0_S_
10
2002.86944538354
20
124.84894295369418
30
1.951045635133265e-14
11
2003.8270906422988
21
123.66508649646015
31
2.0980530241629567e-14
 62
256
 0
LINE
 8
Layer0_S_
10
2003.8270906422988
20
123.66508649646015
30
2.0980530241629567e-14
11
2005.0519105557933
21
122.76042261829085
31
2.226067029725189e-14
 62
256
 0
LINE
 8
Layer0_S_
10
2005.0519105557933
20
122.76042261829085
30
2.226067029725189e-14
11
2006.4650198982267
21
122.19321671274639
31
2.326842836706549e-14
 62
256
 0
LINE
 8
Layer0_S_
10
2006.4650198982267
20
122.19321671274639
30
2.326842836706549e-14
11
2007.9754065556335
21
121.99999999999993
31
2.3938899217239337e-14
 62
256
 0
LINE
 8
Layer0_S_
10
2007.9754065556335
20
121.99999999999993
30
2.3938899217239337e-14
11
2009.4857932130406
21
122.19321671274636
31
2.422890078988579e-14
 62
256
 0
LINE
 8
Layer0_S_
10
2009.4857932130406
20
122.19321671274636
30
2.422890078988579e-14
11
2010.898902555474
21
122.76042261829085
31
2.4119755368152176e-14
 62
256
 0
LINE
 8
Layer0_S_
10
2010.898902555474
20
122.76042261829085
30
2.4119755368152176e-14
11
2012.123722468969
21
123.66508649646015
31
2.3618492525238057e-14
 62
256
 0
LINE
 8
Layer0_S_
10
2012.123722468969
20
123.66508649646015
30
2.3618492525238057e-14
11
2013.0813677277272
21
124.84894295369413
31
2.275739638072003e-14
 62
256
 0
LINE
 8
Layer0_S_
10
2013.0813677277272
20
124.84894295369413
30
2.275739638072003e-14
11
2013.7101606421247
21
126.23574503898274
31
2.15919263233989e-14
 62
256
 0
LINE
 8
Layer0_S_
10
2013.7101606421247
20
126.23574503898274
30
2.15919263233989e-14
11
2013.969603445522
21
127.73617497227606
31
2.0197145117701343e-14
 62
256
 0
LINE
 8
Layer0_S_
10
2013.969603445522
20
127.73617497227606
30
2.0197145117701343e-14
11
2013.8429865760463
21
129.25359670710176
31
1.8662884443482475e-14
 62
256
 0
LINE
 8
Layer0_S_
10
2013.8429865760463
20
129.25359670710176
30
1.8662884443482475e-14
11
2013.3384648654633
21
130.6902798303088
31
1.7087959235398544e-14
 62
256
 0
LINE
 8
Layer0_S_
10
2013.3384648654633
20
130.6902798303088
30
1.7087959235398544e-14
11
2012.4885323225833
21
131.9536939451224
31
1.5573803450625373e-14
 62
256
 0
LINE
 8
Layer0_S_
10
2012.4885323225833
20
131.9536939451224
30
1.5573803450625373e-14
11
2011.347929338069
21
132.9624681441753
31
1.421793715693626e-14
 62
256
 0
LINE
 8
Layer0_S_
10
2011.347929338069
20
132.9624681441753
30
1.421793715693626e-14
11
2009.9901170983264
21
133.6516317492527
31
1.310768569706131e-14
 62
256
 0
LINE
 8
Layer0_S_
10
2166.960696012941
20
133.65163174925272
30
1.1826507856451886e-14
11
2165.6028837731988
21
132.96246814417532
31
1.2073310738279033e-14
 62
256
 0
LINE
 8
Layer0_S_
10
2165.6028837731988
20
132.96246814417532
30
1.2073310738279033e-14
11
2164.4622807886844
21
131.9536939451224
31
1.2703854342814382e-14
 62
256
 0
LINE
 8
Layer0_S_
10
2164.4622807886844
20
131.9536939451224
30
1.2703854342814382e-14
11
2163.6123482458042
21
130.69027983030884
31
1.3677528149220732e-14
 62
256
 0
LINE
 8
Layer0_S_
10
2163.6123482458042
20
130.69027983030884
30
1.3677528149220732e-14
11
2163.107826535221
21
129.2535967071018
31
1.4931622140111028e-14
 62
256
 0
LINE
 8
Layer0_S_
10
2163.107826535221
20
129.2535967071018
30
1.4931622140111028e-14
11
2162.9812096657456
21
127.73617497227609
31
1.638536567602031e-14
 62
256
 0
LINE
 8
Layer0_S_
10
2162.9812096657456
20
127.73617497227609
30
1.638536567602031e-14
11
2163.240652469143
21
126.23574503898274
31
1.7945129574553652e-14
 62
256
 0
LINE
 8
Layer0_S_
10
2163.240652469143
20
126.23574503898274
30
1.7945129574553652e-14
11
2163.86944538354
21
124.84894295369415
31
1.9510456351332656e-14
 62
256
 0
LINE
 8
Layer0_S_
10
2163.86944538354
20
124.84894295369415
30
1.9510456351332656e-14
11
2164.8270906422986
21
123.66508649646015
31
2.0980530241629574e-14
 62
256
 0
LINE
 8
Layer0_S_
10
2164.8270906422986
20
123.66508649646015
30
2.0980530241629574e-14
11
2166.0519105557933
21
122.76042261829085
31
2.22606702972519e-14
 62
256
 0
LINE
 8
Layer0_S_
10
2166.0519105557933
20
122.76042261829085
30
2.22606702972519e-14
11
2167.4650198982267
21
122.19321671274636
31
2.3268428367065503e-14
 62
256
 0
LINE
 8
Layer0_S_
10
2167.4650198982267
20
122.19321671274636
30
2.3268428367065503e-14
11
2168.975406555634
21
121.99999999999991
31
2.3938899217239352e-14
 62
256
 0
LINE
 8
Layer0_S_
10
2168.975406555634
20
121.99999999999991
30
2.3938899217239352e-14
11
2170.485793213041
21
122.19321671274636
31
2.4228900789885806e-14
 62
256
 0
LINE
 8
Layer0_S_
10
2170.485793213041
20
122.19321671274636
30
2.4228900789885806e-14
11
2171.8989025554743
21
122.76042261829085
31
2.4119755368152192e-14
 62
256
 0
LINE
 8
Layer0_S_
10
2171.8989025554743
20
122.76042261829085
30
2.4119755368152192e-14
11
2173.1237224689685
21
123.66508649646015
31
2.3618492525238072e-14
 62
256
 0
LINE
 8
Layer0_S_
10
2173.1237224689685
20
123.66508649646015
30
2.3618492525238072e-14
11
2174.0813677277274
21
124.84894295369413
31
2.275739638072004e-14
 62
256
 0
LINE
 8
Layer0_S_
10
2174.0813677277274
20
124.84894295369413
30
2.275739638072004e-14
11
2174.7101606421247
21
126.23574503898271
31
2.159192632339891e-14
 62
256
 0
LINE
 8
Layer0_S_
10
2174.7101606421247
20
126.23574503898271
30
2.159192632339891e-14
11
2174.9696034455224
21
127.73617497227606
31
2.0197145117701346e-14
 62
256
 0
LINE
 8
Layer0_S_
10
2174.9696034455224
20
127.73617497227606
30
2.0197145117701346e-14
11
2174.8429865760463
21
129.2535967071018
31
1.8662884443482475e-14
 62
256
 0
LINE
 8
Layer0_S_
10
2174.8429865760463
20
129.2535967071018
30
1.8662884443482475e-14
11
2174.3384648654633
21
130.6902798303088
31
1.7087959235398537e-14
 62
256
 0
LINE
 8
Layer0_S_
10
2174.3384648654633
20
130.6902798303088
30
1.7087959235398537e-14
11
2173.488532322583
21
131.9536939451224
31
1.5573803450625366e-14
 62
256
 0
LINE
 8
Layer0_S_
10
2173.488532322583
20
131.9536939451224
30
1.5573803450625366e-14
11
2172.3479293380688
21
132.9624681441753
31
1.4217937156936254e-14
 62
256
 0
LINE
 8
Layer0_S_
10
2172.3479293380688
20
132.9624681441753
30
1.4217937156936254e-14
11
2170.9901170983267
21
133.65163174925272
31
1.3107685697061298e-14
 62
256
 0
LINE
 8
Layer0_S_
10
2170.9754065556335
20
139.81107288852084
30
1.6937301469800598e-14
11
2172.467636102655
21
139.48060681283482
31
1.696791648883361e-14
 62
256
 0
LINE
 8
Layer0_S_
10
2172.467636102655
20
139.48060681283482
30
1.696791648883361e-14
11
2173.899655931431
21
138.94311509968514
31
1.7017710764975284e-14
 62
256
 0
LINE
 8
Layer0_S_
10
2173.899655931431
20
138.94311509968514
30
1.7017710764975284e-14
11
2175.2516711341327
21
138.22782982556296
31
1.7083976181889333e-14
 62
256
 0
LINE
 8
Layer0_S_
10
2175.2516711341327
20
138.22782982556296
30
1.7083976181889333e-14
11
2176.501715424635
21
137.34637228064383
31
1.716563612068478e-14
 62
256
 0
LINE
 8
Layer0_S_
10
2176.501715424635
20
137.34637228064383
30
1.716563612068478e-14
11
2177.6294792453987
21
136.3130635676786
31
1.7261363846590495e-14
 62
256
 0
LINE
 8
Layer0_S_
10
2177.6294792453987
20
136.3130635676786
30
1.7261363846590495e-14
11
2178.616639738278
21
135.1446919260295
31
1.7369604064508373e-14
 62
256
 0
LINE
 8
Layer0_S_
10
2178.616639738278
20
135.1446919260295
30
1.7369604064508373e-14
11
2179.447158437291
21
133.86023997196398
31
1.748859818800221e-14
 62
256
 0
LINE
 8
Layer0_S_
10
2179.447158437291
20
133.86023997196398
30
1.748859818800221e-14
11
2180.1075418466994
21
132.48057628675267
31
1.7616412911175285e-14
 62
256
 0
LINE
 8
Layer0_S_
10
2180.1075418466994
20
132.48057628675267
30
1.7616412911175285e-14
11
2180.5870606707867
21
131.0281163633611
31
1.7750971619227275e-14
 62
256
 0
LINE
 8
Layer0_S_
10
2180.5870606707867
20
131.0281163633611
30
1.7750971619227275e-14
11
2180.877924133479
21
129.52645842035844
31
1.789008812736102e-14
 62
256
 0
LINE
 8
Layer0_S_
10
2180.877924133479
20
129.52645842035844
30
1.789008812736102e-14
11
2180.9754065556335
21
127.99999999999993
31
1.1117033045933798e-15
 62
256
 0
LINE
 8
Layer0_S_
10
2168.975406555634
20
0.0
30
1.296987188692276e-14
11
2170.5417208622744
21
0.10266166351427745
31
1.3105112336117206e-14
 62
256
 0
LINE
 8
Layer0_S_
10
2170.5417208622744
20
0.10266166351427745
30
1.3105112336117206e-14
11
2172.081235096864
21
0.40889008453118103
31
1.3508519682119081e-14
 62
256
 0
LINE
 8
Layer0_S_
10
2172.081235096864
20
0.40889008453118103
30
1.3508519682119081e-14
11
2173.567607744015
21
0.9134456098645543
31
1.417319151339265e-14
 62
256
 0
LINE
 8
Layer0_S_
10
2173.567607744015
20
0.9134456098645543
30
1.417319151339265e-14
11
2174.9754065556335
21
1.6076951545867417
31
1.5087755110622986e-14
 62
256
 0
LINE
 8
Layer0_S_
10
2174.9754065556335
20
1.6076951545867417
30
1.5087755110622986e-14
11
2176.280543703738
21
2.4797599165051807
31
1.6236562037096534e-14
 62
256
 0
LINE
 8
Layer0_S_
10
2176.280543703738
20
2.4797599165051807
30
1.6236562037096534e-14
11
2177.460687929872
21
3.514718625761432
31
1.7599955887791873e-14
 62
256
 0
LINE
 8
Layer0_S_
10
2177.460687929872
20
3.514718625761432
30
1.7599955887791873e-14
11
2178.4956466391286
21
4.694862851895357
31
1.9154608615919427e-14
 62
256
 0
LINE
 8
Layer0_S_
10
2178.4956466391286
20
4.694862851895357
30
1.9154608615919427e-14
11
2179.367711401047
21
6.0
31
2.087391968226976e-14
 62
256
 0
LINE
 8
Layer0_S_
10
2179.367711401047
20
6.0
30
2.087391968226976e-14
11
2180.0619609457694
21
7.407798811618921
31
2.2728471197814542e-14
 62
256
 0
LINE
 8
Layer0_S_
10
2180.0619609457694
20
7.407798811618921
30
2.2728471197814542e-14
11
2180.5665164711027
21
8.89417145876975
31
2.4686531271943972e-14
 62
256
 0
LINE
 8
Layer0_S_
10
2180.5665164711027
20
8.89417145876975
30
2.4686531271943972e-14
11
2180.8727448921195
21
10.433685693359385
31
2.671459695391289e-14
 62
256
 0
LINE
 8
Layer0_S_
10
2180.8727448921195
20
10.433685693359385
30
2.671459695391289e-14
11
2180.9754065556335
21
12.0
31
1.185816858232938e-14
 62
256
 0
LINE
 8
Layer0_S_
10
2007.9754065556335
20
0.0
30
1.296987188692276e-14
11
2006.409092248993
21
0.10266166351427745
31
1.3105112336117206e-14
 62
256
 0
LINE
 8
Layer0_S_
10
2006.409092248993
20
0.10266166351427745
30
1.3105112336117206e-14
11
2004.8695780144035
21
0.40889008453118103
31
1.3508519682119081e-14
 62
256
 0
LINE
 8
Layer0_S_
10
2004.8695780144035
20
0.40889008453118103
30
1.3508519682119081e-14
11
2003.3832053672525
21
0.9134456098645543
31
1.417319151339265e-14
 62
256
 0
LINE
 8
Layer0_S_
10
2003.3832053672525
20
0.9134456098645543
30
1.417319151339265e-14
11
2001.975406555634
21
1.6076951545867417
31
1.5087755110622986e-14
 62
256
 0
LINE
 8
Layer0_S_
10
2001.975406555634
20
1.6076951545867417
30
1.5087755110622986e-14
11
2000.6702694075293
21
2.4797599165051807
31
1.6236562037096534e-14
 62
256
 0
LINE
 8
Layer0_S_
10
2000.6702694075293
20
2.4797599165051807
30
1.6236562037096534e-14
11
1999.4901251813951
21
3.514718625761432
31
1.7599955887791873e-14
 62
256
 0
LINE
 8
Layer0_S_
10
1999.4901251813951
20
3.514718625761432
30
1.7599955887791873e-14
11
1998.455166472139
21
4.694862851895357
31
1.9154608615919427e-14
 62
256
 0
LINE
 8
Layer0_S_
10
1998.455166472139
20
4.694862851895357
30
1.9154608615919427e-14
11
1997.5831017102207
21
6.0
31
2.087391968226976e-14
 62
256
 0
LINE
 8
Layer0_S_
10
1997.5831017102207
20
6.0
30
2.087391968226976e-14
11
1996.8888521654983
21
7.407798811618921
31
2.2728471197814542e-14
 62
256
 0
LINE
 8
Layer0_S_
10
1996.8888521654983
20
7.407798811618921
30
2.2728471197814542e-14
11
1996.3842966401648
21
8.89417145876975
31
2.4686531271943972e-14
 62
256
 0
LINE
 8
Layer0_S_
10
1996.3842966401648
20
8.89417145876975
30
2.4686531271943972e-14
11
1996.0780682191482
21
10.433685693359385
31
2.671459695391289e-14
 62
256
 0
LINE
 8
Layer0_S_
10
1996.0780682191482
20
10.433685693359385
30
2.671459695391289e-14
11
1995.9754065556338
21
12.0
31
1.185816858232938e-14
 62
256
 0
LINE
 8
Layer0_S_
10
2005.9754065556338
20
139.81107288852084
30
1.7502574513213613e-17
11
2004.4831770086125
21
139.48060681283482
31
1.5643856775626582e-16
 62
256
 0
LINE
 8
Layer0_S_
10
2004.4831770086125
20
139.48060681283482
30
1.5643856775626582e-16
11
2003.0511571798363
21
138.94311509968514
31
6.170572471490156e-16
 62
256
 0
LINE
 8
Layer0_S_
10
2003.0511571798363
20
138.94311509968514
30
6.170572471490156e-16
11
2001.6991419771346
21
138.22782982556296
31
1.3606096389537293e-15
 62
256
 0
LINE
 8
Layer0_S_
10
2001.6991419771346
20
138.22782982556296
30
1.3606096389537293e-15
11
2000.4490976866323
21
137.34637228064383
31
2.375015195145063e-15
 62
256
 0
LINE
 8
Layer0_S_
10
2000.4490976866323
20
137.34637228064383
30
2.375015195145063e-15
11
1999.3213338658688
21
136.3130635676786
31
3.6437927972789074e-15
 62
256
 0
LINE
 8
Layer0_S_
10
1999.3213338658688
20
136.3130635676786
30
3.6437927972789074e-15
11
1998.3341733729892
21
135.1446919260295
31
5.146328526383315e-15
 62
256
 0
LINE
 8
Layer0_S_
10
1998.3341733729892
20
135.1446919260295
30
5.146328526383315e-15
11
1997.5036546739764
21
133.86023997196398
31
6.858210578750453e-15
 62
256
 0
LINE
 8
Layer0_S_
10
1997.5036546739764
20
133.86023997196398
30
6.858210578750453e-15
11
1996.8432712645683
21
132.48057628675267
31
8.751625886229003e-15
 62
256
 0
LINE
 8
Layer0_S_
10
1996.8432712645683
20
132.48057628675267
30
8.751625886229003e-15
11
1996.3637524404808
21
131.0281163633611
31
1.0795811997099335e-14
 62
256
 0
LINE
 8
Layer0_S_
10
1996.3637524404808
20
131.0281163633611
30
1.0795811997099335e-14
11
1996.0728889777884
21
129.52645842035844
31
1.2957556875791014e-14
 62
256
 0
LINE
 8
Layer0_S_
10
1996.0728889777884
20
129.52645842035844
30
1.2957556875791014e-14
11
1995.9754065556338
21
127.99999999999993
31
1.1117033045933798e-15
 62
256
 0
LINE
 8
Layer0_S_
10
2156.9754065556335
20
18.0
30
1.1302316930032688e-14
11
2019.9754065556338
21
18.00000000000001
31
1.1302316930032688e-14
 62
256
 0
LINE
 8
Layer0_S_
10
2162.9754065556335
20
115.99999999999993
30
2.2234066091867595e-15
11
2162.9754065556335
21
24.0
31
1.0746465277736e-14
 62
256
 0
LINE
 8
Layer0_S_
10
2156.9754065556335
20
121.99999999999991
30
1.6675549568900708e-15
11
2019.9754065556338
21
121.99999999999993
31
1.6675549568900683e-15
 62
256
 0
LINE
 8
Layer0_S_
10
2013.9754065556338
20
115.99999999999993
30
2.2234066091867595e-15
11
2013.9754065556338
21
24.0
31
1.0746465277736e-14
 62
256
 0
LINE
 8
Layer0_S_
10
2019.9754065556338
20
18.00000000000001
30
1.1302316930032688e-14
11
2019.1922494023133
21
18.051330831757163
31
1.1442312767168144e-14
 62
256
 0
LINE
 8
Layer0_S_
10
2019.1922494023133
20
18.051330831757163
30
1.1442312767168144e-14
11
2018.4224922850185
21
18.204445042265615
31
1.1859904910986893e-14
 62
256
 0
LINE
 8
Layer0_S_
10
2018.4224922850185
20
18.204445042265615
30
1.1859904910986893e-14
11
2017.6793059614433
21
18.456722804932294
31
1.2547948244129795e-14
 62
256
 0
LINE
 8
Layer0_S_
10
2017.6793059614433
20
18.456722804932294
30
1.2547948244129795e-14
11
2016.9754065556338
21
18.80384757729339
31
1.3494670154405128e-14
 62
256
 0
LINE
 8
Layer0_S_
10
2016.9754065556338
20
18.80384757729339
30
1.3494670154405128e-14
11
2016.3228379815814
21
19.239879958252608
31
1.4683871967447173e-14
 62
256
 0
LINE
 8
Layer0_S_
10
2016.3228379815814
20
19.239879958252608
30
1.4683871967447173e-14
11
2015.7327658685147
21
19.757359312880727
31
1.609520611052576e-14
 62
256
 0
LINE
 8
Layer0_S_
10
2015.7327658685147
20
19.757359312880727
30
1.609520611052576e-14
11
2015.2152865138864
21
20.34743142594769
31
1.770452426515705e-14
 62
256
 0
LINE
 8
Layer0_S_
10
2015.2152865138864
20
20.34743142594769
30
1.770452426515705e-14
11
2014.779254132927
21
21.00000000000001
31
1.9484290551528028e-14
 62
256
 0
LINE
 8
Layer0_S_
10
2014.779254132927
20
21.00000000000001
30
1.9484290551528028e-14
11
2014.4321293605658
21
21.703899405809466
31
2.140405267503444e-14
 62
256
 0
LINE
 8
Layer0_S_
10
2014.4321293605658
20
21.703899405809466
30
2.140405267503444e-14
11
2014.1798515978994
21
22.44708572938488
31
2.3430962973484483e-14
 62
256
 0
LINE
 8
Layer0_S_
10
2014.1798515978994
20
22.44708572938488
30
2.3430962973484483e-14
11
2014.0267373873908
21
23.216842846679693
31
2.5530340449705972e-14
 62
256
 0
LINE
 8
Layer0_S_
10
2014.0267373873908
20
23.216842846679693
30
2.5530340449705972e-14
11
2013.9754065556338
21
24.0
31
1.0746465277736e-14
 62
256
 0
LINE
 8
Layer0_S_
10
2162.9754065556335
20
24.0
30
1.0746465277736e-14
11
2162.9240757238767
21
23.216842846679693
31
1.0963769702425965e-14
 62
256
 0
LINE
 8
Layer0_S_
10
2162.9240757238767
20
23.216842846679693
30
1.0963769702425965e-14
11
2162.770961513368
21
22.447085729384877
31
1.1466858438314163e-14
 62
256
 0
LINE
 8
Layer0_S_
10
2162.770961513368
20
22.447085729384877
30
1.1466858438314163e-14
11
2162.5186837507017
21
21.703899405809466
31
1.2247123497647014e-14
 62
256
 0
LINE
 8
Layer0_S_
10
2162.5186837507017
20
21.703899405809466
30
1.2247123497647014e-14
11
2162.1715589783403
21
21.000000000000007
31
1.3291214328928994e-14
 62
256
 0
LINE
 8
Layer0_S_
10
2162.1715589783403
20
21.000000000000007
30
1.3291214328928994e-14
11
2161.735526597381
21
20.34743142594768
31
1.4581266248560197e-14
 62
256
 0
LINE
 8
Layer0_S_
10
2161.735526597381
20
20.34743142594768
30
1.4581266248560197e-14
11
2161.218047242753
21
19.757359312880716
31
1.6095206110525772e-14
 62
256
 0
LINE
 8
Layer0_S_
10
2161.218047242753
20
19.757359312880716
30
1.6095206110525772e-14
11
2160.627975129686
21
19.239879958252597
31
1.780712998404406e-14
 62
256
 0
LINE
 8
Layer0_S_
10
2160.627975129686
20
19.239879958252597
30
1.780712998404406e-14
11
2159.9754065556335
21
18.80384757729337
31
1.9687746377004195e-14
 62
256
 0
LINE
 8
Layer0_S_
10
2159.9754065556335
20
18.80384757729337
30
1.9687746377004195e-14
11
2159.271507149824
21
18.456722804932284
31
2.170487742151726e-14
 62
256
 0
LINE
 8
Layer0_S_
10
2159.271507149824
20
18.456722804932284
30
2.170487742151726e-14
11
2158.528320826249
21
18.204445042265604
31
2.3824009446157255e-14
 62
256
 0
LINE
 8
Layer0_S_
10
2158.528320826249
20
18.204445042265604
30
2.3824009446157255e-14
11
2157.758563708954
21
18.051330831757152
31
2.6008883514448196e-14
 62
256
 0
LINE
 8
Layer0_S_
10
2157.758563708954
20
18.051330831757152
30
2.6008883514448196e-14
11
2156.9754065556335
21
18.0
31
1.1302316930032688e-14
 62
256
 0
LINE
 8
Layer0_S_
10
2162.9754065556335
20
115.99999999999993
30
2.2234066091867595e-15
11
2162.9240757238767
21
116.78315715332023
31
2.2956046346497e-15
 62
256
 0
LINE
 8
Layer0_S_
10
2162.9240757238767
20
116.78315715332023
30
2.2956046346497e-15
11
2162.770961513368
21
117.55291427061503
31
2.6560697820327425e-15
 62
256
 0
LINE
 8
Layer0_S_
10
2162.770961513368
20
117.55291427061503
30
2.6560697820327425e-15
11
2162.5186837507017
21
118.29610059419046
31
3.2986343927243644e-15
 62
256
 0
LINE
 8
Layer0_S_
10
2162.5186837507017
20
118.29610059419046
30
3.2986343927243644e-15
11
2162.1715589783403
21
118.99999999999991
31
4.21230400808306e-15
 62
256
 0
LINE
 8
Layer0_S_
10
2162.1715589783403
20
118.99999999999991
30
4.21230400808306e-15
11
2161.735526597381
21
119.65256857405225
31
5.381445487672975e-15
 62
256
 0
LINE
 8
Layer0_S_
10
2161.735526597381
20
119.65256857405225
30
5.381445487672975e-15
11
2161.218047242753
21
120.24264068711922
31
6.786054496631055e-15
 62
256
 0
LINE
 8
Layer0_S_
10
2161.218047242753
20
120.24264068711922
30
6.786054496631055e-15
11
2160.627975129686
21
120.76012004174733
31
8.402097785382857e-15
 62
256
 0
LINE
 8
Layer0_S_
10
2160.627975129686
20
120.76012004174733
30
8.402097785382857e-15
11
2159.9754065556335
21
121.19615242270655
31
1.0201924405205978e-14
 62
256
 0
LINE
 8
Layer0_S_
10
2159.9754065556335
20
121.19615242270655
30
1.0201924405205978e-14
11
2159.271507149824
21
121.54327719506765
31
1.2154738823629036e-14
 62
256
 0
LINE
 8
Layer0_S_
10
2159.271507149824
20
121.54327719506765
30
1.2154738823629036e-14
11
2158.528320826249
21
121.79555495773434
31
1.4227127844530368e-14
 62
256
 0
LINE
 8
Layer0_S_
10
2158.528320826249
20
121.79555495773434
30
1.4227127844530368e-14
11
2157.758563708954
21
121.94866916824276
31
1.6383632317187564e-14
 62
256
 0
LINE
 8
Layer0_S_
10
2157.758563708954
20
121.94866916824276
30
1.6383632317187564e-14
11
2156.9754065556335
21
121.99999999999991
31
1.6675549568900708e-15
 62
256
 0
LINE
 8
Layer0_S_
10
2013.9754065556338
20
115.99999999999993
30
2.2234066091867595e-15
11
2014.0267373873908
21
116.78315715332023
31
2.2956046346497e-15
 62
256
 0
LINE
 8
Layer0_S_
10
2014.0267373873908
20
116.78315715332023
30
2.2956046346497e-15
11
2014.1798515978994
21
117.55291427061503
31
2.65606978203274e-15
 62
256
 0
LINE
 8
Layer0_S_
10
2014.1798515978994
20
117.55291427061503
30
2.65606978203274e-15
11
2014.4321293605658
21
118.29610059419046
31
3.2986343927243616e-15
 62
256
 0
LINE
 8
Layer0_S_
10
2014.4321293605658
20
118.29610059419046
30
3.2986343927243616e-15
11
2014.779254132927
21
118.99999999999991
31
4.212304008083057e-15
 62
256
 0
LINE
 8
Layer0_S_
10
2014.779254132927
20
118.99999999999991
30
4.212304008083057e-15
11
2015.2152865138864
21
119.65256857405225
31
5.38144548767297e-15
 62
256
 0
LINE
 8
Layer0_S_
10
2015.2152865138864
20
119.65256857405225
30
5.38144548767297e-15
11
2015.7327658685147
21
120.24264068711922
31
6.786054496631053e-15
 62
256
 0
LINE
 8
Layer0_S_
10
2015.7327658685147
20
120.24264068711922
30
6.786054496631053e-15
11
2016.3228379815814
21
120.76012004174736
31
8.402097785382851e-15
 62
256
 0
LINE
 8
Layer0_S_
10
2016.3228379815814
20
120.76012004174736
30
8.402097785382851e-15
11
2016.9754065556338
21
121.19615242270658
31
1.020192440520597e-14
 62
256
 0
LINE
 8
Layer0_S_
10
2016.9754065556338
20
121.19615242270658
30
1.020192440520597e-14
11
2017.6793059614433
21
121.54327719506765
31
1.2154738823629028e-14
 62
256
 0
LINE
 8
Layer0_S_
10
2017.6793059614433
20
121.54327719506765
30
1.2154738823629028e-14
11
2018.4224922850185
21
121.79555495773434
31
1.4227127844530355e-14
 62
256
 0
LINE
 8
Layer0_S_
10
2018.4224922850185
20
121.79555495773434
30
1.4227127844530355e-14
11
2019.1922494023133
21
121.94866916824279
31
1.6383632317187548e-14
 62
256
 0
LINE
 8
Layer0_S_
10
2019.1922494023133
20
121.94866916824279
30
1.6383632317187548e-14
11
2019.9754065556338
21
121.99999999999993
31
1.6675549568900683e-15
 62
256
 0
LINE
 8
Layer0_S_
10
2004.9754065556335
20
12.0
30
1.185816858232938e-14
11
2005.0776290767667
21
12.776457135307558
31
1.1786236085396336e-14
 62
256
 0
LINE
 8
Layer0_S_
10
2005.0776290767667
20
12.776457135307558
30
1.1786236085396336e-14
11
2005.3773303442804
21
13.499999999999998
31
1.1719205669255207e-14
 62
256
 0
LINE
 8
Layer0_S_
10
2005.3773303442804
20
13.499999999999998
30
1.1719205669255207e-14
11
2005.854086212074
21
14.121320343559637
31
1.1661645345993012e-14
 62
256
 0
LINE
 8
Layer0_S_
10
2005.854086212074
20
14.121320343559637
30
1.1661645345993012e-14
11
2006.4754065556335
21
14.598076211353312
31
1.1617477756517137e-14
 62
256
 0
LINE
 8
Layer0_S_
10
2006.4754065556335
20
14.598076211353312
30
1.1617477756517137e-14
11
2007.1989494203262
21
14.897777478867194
31
1.1589712849059969e-14
 62
256
 0
LINE
 8
Layer0_S_
10
2007.1989494203262
20
14.897777478867194
30
1.1589712849059969e-14
11
2007.9754065556335
21
14.999999999999995
31
1.1580242756181035e-14
 62
256
 0
LINE
 8
Layer0_S_
10
2007.9754065556335
20
14.999999999999995
30
1.1580242756181035e-14
11
2008.7518636909415
21
14.897777478867194
31
1.1589712849059969e-14
 62
256
 0
LINE
 8
Layer0_S_
10
2008.7518636909415
20
14.897777478867194
30
1.1589712849059969e-14
11
2009.4754065556338
21
14.598076211353312
31
1.1617477756517137e-14
 62
256
 0
LINE
 8
Layer0_S_
10
2009.4754065556338
20
14.598076211353312
30
1.1617477756517137e-14
11
2010.0967268991933
21
14.121320343559637
31
1.1661645345993012e-14
 62
256
 0
LINE
 8
Layer0_S_
10
2010.0967268991933
20
14.121320343559637
30
1.1661645345993012e-14
11
2010.5734827669871
21
13.499999999999998
31
1.1719205669255207e-14
 62
256
 0
LINE
 8
Layer0_S_
10
2010.5734827669871
20
13.499999999999998
30
1.1719205669255207e-14
11
2010.873184034501
21
12.776457135307558
31
1.1786236085396336e-14
 62
256
 0
LINE
 8
Layer0_S_
10
2010.873184034501
20
12.776457135307558
30
1.1786236085396336e-14
11
2010.9754065556338
21
12.0
31
1.185816858232938e-14
 62
256
 0
LINE
 8
Layer0_S_
10
2010.9754065556338
20
12.0
30
1.185816858232938e-14
11
2010.873184034501
21
11.223542864692444
31
1.1930101079262423e-14
 62
256
 0
LINE
 8
Layer0_S_
10
2010.873184034501
20
11.223542864692444
30
1.1930101079262423e-14
11
2010.5734827669871
21
10.500000000000004
31
1.1997131495403552e-14
 62
256
 0
LINE
 8
Layer0_S_
10
2010.5734827669871
20
10.500000000000004
30
1.1997131495403552e-14
11
2010.0967268991933
21
9.878679656440363
31
1.2054691818665747e-14
 62
256
 0
LINE
 8
Layer0_S_
10
2010.0967268991933
20
9.878679656440363
30
1.2054691818665747e-14
11
2009.4754065556338
21
9.40192378864669
31
1.2098859408141622e-14
 62
256
 0
LINE
 8
Layer0_S_
10
2009.4754065556338
20
9.40192378864669
30
1.2098859408141622e-14
11
2008.7518636909415
21
9.102222521132807
31
1.212662431559879e-14
 62
256
 0
LINE
 8
Layer0_S_
10
2008.7518636909415
20
9.102222521132807
30
1.212662431559879e-14
11
2007.9754065556335
21
9.000000000000005
31
1.2136094408477723e-14
 62
256
 0
LINE
 8
Layer0_S_
10
2007.9754065556335
20
9.000000000000005
30
1.2136094408477723e-14
11
2007.1989494203262
21
9.102222521132807
31
1.212662431559879e-14
 62
256
 0
LINE
 8
Layer0_S_
10
2007.1989494203262
20
9.102222521132807
30
1.212662431559879e-14
11
2006.4754065556335
21
9.40192378864669
31
1.2098859408141622e-14
 62
256
 0
LINE
 8
Layer0_S_
10
2006.4754065556335
20
9.40192378864669
30
1.2098859408141622e-14
11
2005.854086212074
21
9.878679656440363
31
1.2054691818665747e-14
 62
256
 0
LINE
 8
Layer0_S_
10
2005.854086212074
20
9.878679656440363
30
1.2054691818665747e-14
11
2005.3773303442804
21
10.500000000000004
31
1.1997131495403552e-14
 62
256
 0
LINE
 8
Layer0_S_
10
2005.3773303442804
20
10.500000000000004
30
1.1997131495403552e-14
11
2005.0776290767667
21
11.223542864692444
31
1.1930101079262423e-14
 62
256
 0
LINE
 8
Layer0_S_
10
2005.0776290767667
20
11.223542864692444
30
1.1930101079262423e-14
11
2004.9754065556335
21
12.0
31
1.185816858232938e-14
 62
256
 0
LINE
 8
Layer0_S_
10
2165.975406555634
20
12.0
30
1.185816858232938e-14
11
2166.0776290767662
21
12.776457135307558
31
1.1786236085396336e-14
 62
256
 0
LINE
 8
Layer0_S_
10
2166.0776290767662
20
12.776457135307558
30
1.1786236085396336e-14
11
2166.3773303442804
21
13.499999999999998
31
1.1719205669255207e-14
 62
256
 0
LINE
 8
Layer0_S_
10
2166.3773303442804
20
13.499999999999998
30
1.1719205669255207e-14
11
2166.8540862120744
21
14.121320343559637
31
1.1661645345993012e-14
 62
256
 0
LINE
 8
Layer0_S_
10
2166.8540862120744
20
14.121320343559637
30
1.1661645345993012e-14
11
2167.475406555634
21
14.598076211353312
31
1.1617477756517135e-14
 62
256
 0
LINE
 8
Layer0_S_
10
2167.475406555634
20
14.598076211353312
30
1.1617477756517135e-14
11
2168.1989494203262
21
14.897777478867205
31
1.1589712849059967e-14
 62
256
 0
LINE
 8
Layer0_S_
10
2168.1989494203262
20
14.897777478867205
30
1.1589712849059967e-14
11
2168.975406555634
21
14.999999999999995
31
1.1580242756181035e-14
 62
256
 0
LINE
 8
Layer0_S_
10
2168.975406555634
20
14.999999999999995
30
1.1580242756181035e-14
11
2169.7518636909413
21
14.897777478867205
31
1.1589712849059967e-14
 62
256
 0
LINE
 8
Layer0_S_
10
2169.7518636909413
20
14.897777478867205
30
1.1589712849059967e-14
11
2170.475406555634
21
14.598076211353312
31
1.1617477756517135e-14
 62
256
 0
LINE
 8
Layer0_S_
10
2170.475406555634
20
14.598076211353312
30
1.1617477756517135e-14
11
2171.0967268991935
21
14.121320343559637
31
1.1661645345993012e-14
 62
256
 0
LINE
 8
Layer0_S_
10
2171.0967268991935
20
14.121320343559637
30
1.1661645345993012e-14
11
2171.573482766987
21
13.499999999999998
31
1.1719205669255207e-14
 62
256
 0
LINE
 8
Layer0_S_
10
2171.573482766987
20
13.499999999999998
30
1.1719205669255207e-14
11
2171.873184034501
21
12.776457135307558
31
1.1786236085396336e-14
 62
256
 0
LINE
 8
Layer0_S_
10
2171.873184034501
20
12.776457135307558
30
1.1786236085396336e-14
11
2171.975406555634
21
12.0
31
1.185816858232938e-14
 62
256
 0
LINE
 8
Layer0_S_
10
2171.975406555634
20
12.0
30
1.185816858232938e-14
11
2171.873184034501
21
11.223542864692444
31
1.1930101079262423e-14
 62
256
 0
LINE
 8
Layer0_S_
10
2171.873184034501
20
11.223542864692444
30
1.1930101079262423e-14
11
2171.573482766987
21
10.500000000000004
31
1.1997131495403552e-14
 62
256
 0
LINE
 8
Layer0_S_
10
2171.573482766987
20
10.500000000000004
30
1.1997131495403552e-14
11
2171.0967268991935
21
9.878679656440363
31
1.2054691818665747e-14
 62
256
 0
LINE
 8
Layer0_S_
10
2171.0967268991935
20
9.878679656440363
30
1.2054691818665747e-14
11
2170.475406555634
21
9.40192378864669
31
1.2098859408141622e-14
 62
256
 0
LINE
 8
Layer0_S_
10
2170.475406555634
20
9.40192378864669
30
1.2098859408141622e-14
11
2169.7518636909413
21
9.102222521132795
31
1.212662431559879e-14
 62
256
 0
LINE
 8
Layer0_S_
10
2169.7518636909413
20
9.102222521132795
30
1.212662431559879e-14
11
2168.975406555634
21
9.000000000000005
31
1.2136094408477723e-14
 62
256
 0
LINE
 8
Layer0_S_
10
2168.975406555634
20
9.000000000000005
30
1.2136094408477723e-14
11
2168.1989494203262
21
9.102222521132795
31
1.212662431559879e-14
 62
256
 0
LINE
 8
Layer0_S_
10
2168.1989494203262
20
9.102222521132795
30
1.212662431559879e-14
11
2167.475406555634
21
9.40192378864669
31
1.2098859408141622e-14
 62
256
 0
LINE
 8
Layer0_S_
10
2167.475406555634
20
9.40192378864669
30
1.2098859408141622e-14
11
2166.8540862120744
21
9.878679656440363
31
1.2054691818665747e-14
 62
256
 0
LINE
 8
Layer0_S_
10
2166.8540862120744
20
9.878679656440363
30
1.2054691818665747e-14
11
2166.3773303442804
21
10.500000000000004
31
1.1997131495403552e-14
 62
256
 0
LINE
 8
Layer0_S_
10
2166.3773303442804
20
10.500000000000004
30
1.1997131495403552e-14
11
2166.0776290767662
21
11.223542864692432
31
1.1930101079262423e-14
 62
256
 0
LINE
 8
Layer0_S_
10
2166.0776290767662
20
11.223542864692432
30
1.1930101079262423e-14
11
2165.975406555634
21
12.0
31
1.185816858232938e-14
 62
256
 0
ENDSEC
 0
EOF
