 0
SECTION
 2
HEADER
 9
$ACADVER
 1
AC1006
 9
$LTSCALE
 40
1000.0
 0
ENDSEC
 0
SECTION
 2
TABLES
 0
TABLE
 2
LTYPE
 70
1
 0
LTYPE
 2
SKEMA_SOLID
 70
64
 3
Sketchup - Skema Ltype
 72
65
 73
0
 40
0.000000
 0
LTYPE
 2
SKEMA_DASHED
 70
64
 3
Sketchup - Skema Ltype
 72
65
 73
2
 40
0.1
 49
0.05
 49
-0.05
 0
LTYPE
 2
SKEMA_DOTTED
 70
64
 3
Sketchup - Skema Ltype
 72
65
 73
2
 40
00.1
 49
0.0
 49
-00.1
 0
ENDTAB
 0
TABLE
 2
LAYER
 70
6
 0
LAYER
 2
Layer0_S_
 70
64
 62
20
 6
SKEMA_SOLID
 0
ENDTAB
 0
TABLE
 2
STYLE
 70
0
 0
ENDTAB
 0
ENDSEC
 0
SECTION
 2
BLOCKS
 0
ENDSEC
 0
SECTION
 2
ENTITIES
 0
LINE
 8
Layer0_S_
10
2281.1147503492957
20
127.99999999999993
30
1.2639543480852395e-32
11
2281.1147503492957
21
12.0
31
1.2639543480852395e-32
 62
256
 0
LINE
 8
Layer0_S_
10
2454.1147503492957
20
139.99999999999991
30
1.2639543480852395e-32
11
2293.1147503492957
21
139.99999999999991
31
1.2639543480852395e-32
 62
256
 0
LINE
 8
Layer0_S_
10
2466.1147503492957
20
12.0
30
1.2639543480852395e-32
11
2466.1147503492957
21
127.99999999999993
31
1.2639543480852395e-32
 62
256
 0
LINE
 8
Layer0_S_
10
2293.1147503492957
20
0.0
30
1.2639543480852395e-32
11
2454.1147503492957
21
0.0
31
1.2639543480852395e-32
 62
256
 0
LINE
 8
Layer0_S_
10
2293.1147503492957
20
139.99999999999991
30
1.2639543480852395e-32
11
2291.5484360426553
21
139.89733833648563
31
7.423562665014458e-32
 62
256
 0
LINE
 8
Layer0_S_
10
2291.5484360426553
20
139.89733833648563
30
7.423562665014458e-32
11
2290.008921808065
21
139.5911099154687
31
1.3477778375874958e-31
 62
256
 0
LINE
 8
Layer0_S_
10
2290.008921808065
20
139.5911099154687
30
1.3477778375874958e-31
11
2288.522549160915
21
139.08655439013535
31
1.9323012171308205e-31
 62
256
 0
LINE
 8
Layer0_S_
10
2288.522549160915
20
139.08655439013535
30
1.9323012171308205e-31
11
2287.1147503492957
21
138.3923048454132
31
2.485925048046936e-31
 62
256
 0
LINE
 8
Layer0_S_
10
2287.1147503492957
20
138.3923048454132
30
2.485925048046936e-31
11
2285.809613201191
21
137.52024008349474
31
2.9991766730953433e-31
 62
256
 0
LINE
 8
Layer0_S_
10
2285.809613201191
20
137.52024008349474
30
2.9991766730953433e-31
11
2284.6294689750575
21
136.4852813742385
31
3.463274214671231e-31
 62
256
 0
LINE
 8
Layer0_S_
10
2284.6294689750575
20
136.4852813742385
30
3.463274214671231e-31
11
2283.594510265801
21
135.30513714810456
31
3.870276835166085e-31
 62
256
 0
LINE
 8
Layer0_S_
10
2283.594510265801
20
135.30513714810456
30
3.870276835166085e-31
11
2282.722445503882
21
133.99999999999994
31
4.213220606900797e-31
 62
256
 0
LINE
 8
Layer0_S_
10
2282.722445503882
20
133.99999999999994
30
4.213220606900797e-31
11
2282.0281959591603
21
132.592201188381
31
4.486237666859008e-31
 62
256
 0
LINE
 8
Layer0_S_
10
2282.0281959591603
20
132.592201188381
30
4.486237666859008e-31
11
2281.523640433827
21
131.10582854123018
31
4.684656617450202e-31
 62
256
 0
LINE
 8
Layer0_S_
10
2281.523640433827
20
131.10582854123018
30
4.684656617450202e-31
11
2281.2174120128097
21
129.56631430664052
31
4.805082455417641e-31
 62
256
 0
LINE
 8
Layer0_S_
10
2281.2174120128097
20
129.56631430664052
30
4.805082455417641e-31
11
2281.1147503492957
21
127.99999999999993
31
1.2639543480852395e-32
 62
256
 0
LINE
 8
Layer0_S_
10
2454.1147503492957
20
139.99999999999991
30
1.2639543480852395e-32
11
2455.5611905123596
21
139.91250648917656
31
1.2639543480852395e-32
 62
256
 0
LINE
 8
Layer0_S_
10
2455.5611905123596
20
139.91250648917656
30
1.2639543480852395e-32
11
2456.986538320746
21
139.65130180911257
31
1.2639543480852395e-32
 62
256
 0
LINE
 8
Layer0_S_
10
2456.986538320746
20
139.65130180911257
30
1.2639543480852395e-32
11
2458.370008993806
21
139.22019491222488
31
1.2639543480852395e-32
 62
256
 0
LINE
 8
Layer0_S_
10
2458.370008993806
20
139.22019491222488
30
1.2639543480852395e-32
11
2459.691428413821
21
138.62547230783844
31
1.2639543480852395e-32
 62
256
 0
LINE
 8
Layer0_S_
10
2459.691428413821
20
138.62547230783844
30
1.2639543480852395e-32
11
2460.9315273100697
21
137.8758063907238
31
1.2639543480852395e-32
 62
256
 0
LINE
 8
Layer0_S_
10
2460.9315273100697
20
137.8758063907238
30
1.2639543480852395e-32
11
2462.0722222481854
21
136.98212897805314
31
1.2639543480852395e-32
 62
256
 0
LINE
 8
Layer0_S_
10
2462.0722222481854
20
136.98212897805314
30
1.2639543480852395e-32
11
2463.096879327349
21
135.95747189888945
31
1.2639543480852395e-32
 62
256
 0
LINE
 8
Layer0_S_
10
2463.096879327349
20
135.95747189888945
30
1.2639543480852395e-32
11
2463.9905567400197
21
134.8167769607738
31
1.2639543480852395e-32
 62
256
 0
LINE
 8
Layer0_S_
10
2463.9905567400197
20
134.8167769607738
30
1.2639543480852395e-32
11
2464.7402226571344
21
133.57667806452514
31
1.2639543480852395e-32
 62
256
 0
LINE
 8
Layer0_S_
10
2464.7402226571344
20
133.57667806452514
30
1.2639543480852395e-32
11
2465.3349452615207
21
132.25525864451035
31
1.2639543480852395e-32
 62
256
 0
LINE
 8
Layer0_S_
10
2465.3349452615207
20
132.25525864451035
30
1.2639543480852395e-32
11
2465.7660521584085
21
130.8717879714506
31
1.2639543480852395e-32
 62
256
 0
LINE
 8
Layer0_S_
10
2465.7660521584085
20
130.8717879714506
30
1.2639543480852395e-32
11
2466.0272568384726
21
129.44644016306378
31
1.2639543480852395e-32
 62
256
 0
LINE
 8
Layer0_S_
10
2466.0272568384726
20
129.44644016306378
30
1.2639543480852395e-32
11
2466.1147503492957
21
127.99999999999993
31
1.2639543480852395e-32
 62
256
 0
LINE
 8
Layer0_S_
10
2454.1147503492957
20
0.0
30
1.2639543480852395e-32
11
2455.681064655936
21
0.10266166351427745
31
1.2639543480852395e-32
 62
256
 0
LINE
 8
Layer0_S_
10
2455.681064655936
20
0.10266166351427745
30
1.2639543480852395e-32
11
2457.220578890526
21
0.40889008453118103
31
1.2639543480852395e-32
 62
256
 0
LINE
 8
Layer0_S_
10
2457.220578890526
20
0.40889008453118103
30
1.2639543480852395e-32
11
2458.7069515376766
21
0.9134456098645543
31
1.2639543480852395e-32
 62
256
 0
LINE
 8
Layer0_S_
10
2458.7069515376766
20
0.9134456098645543
30
1.2639543480852395e-32
11
2460.1147503492957
21
1.6076951545867417
31
1.2639543480852395e-32
 62
256
 0
LINE
 8
Layer0_S_
10
2460.1147503492957
20
1.6076951545867417
30
1.2639543480852395e-32
11
2461.4198874974004
21
2.4797599165051807
31
1.2639543480852395e-32
 62
256
 0
LINE
 8
Layer0_S_
10
2461.4198874974004
20
2.4797599165051807
30
1.2639543480852395e-32
11
2462.6000317235344
21
3.514718625761432
31
1.2639543480852395e-32
 62
256
 0
LINE
 8
Layer0_S_
10
2462.6000317235344
20
3.514718625761432
30
1.2639543480852395e-32
11
2463.6349904327903
21
4.694862851895357
31
1.2639543480852395e-32
 62
256
 0
LINE
 8
Layer0_S_
10
2463.6349904327903
20
4.694862851895357
30
1.2639543480852395e-32
11
2464.507055194709
21
6.0
31
1.2639543480852395e-32
 62
256
 0
LINE
 8
Layer0_S_
10
2464.507055194709
20
6.0
30
1.2639543480852395e-32
11
2465.201304739431
21
7.407798811618921
31
1.2639543480852395e-32
 62
256
 0
LINE
 8
Layer0_S_
10
2465.201304739431
20
7.407798811618921
30
1.2639543480852395e-32
11
2465.7058602647644
21
8.89417145876975
31
1.2639543480852395e-32
 62
256
 0
LINE
 8
Layer0_S_
10
2465.7058602647644
20
8.89417145876975
30
1.2639543480852395e-32
11
2466.0120886857817
21
10.433685693359385
31
1.2639543480852395e-32
 62
256
 0
LINE
 8
Layer0_S_
10
2466.0120886857817
20
10.433685693359385
30
1.2639543480852395e-32
11
2466.1147503492957
21
12.0
31
1.2639543480852395e-32
 62
256
 0
LINE
 8
Layer0_S_
10
2293.1147503492957
20
0.0
30
1.2639543480852395e-32
11
2291.5484360426553
21
0.10266166351427745
31
1.2639543480852395e-32
 62
256
 0
LINE
 8
Layer0_S_
10
2291.5484360426553
20
0.10266166351427745
30
1.2639543480852395e-32
11
2290.008921808065
21
0.40889008453118103
31
1.2639543480852395e-32
 62
256
 0
LINE
 8
Layer0_S_
10
2290.008921808065
20
0.40889008453118103
30
1.2639543480852395e-32
11
2288.522549160915
21
0.9134456098645543
31
1.2639543480852395e-32
 62
256
 0
LINE
 8
Layer0_S_
10
2288.522549160915
20
0.9134456098645543
30
1.2639543480852395e-32
11
2287.1147503492957
21
1.6076951545867417
31
1.2639543480852395e-32
 62
256
 0
LINE
 8
Layer0_S_
10
2287.1147503492957
20
1.6076951545867417
30
1.2639543480852395e-32
11
2285.809613201191
21
2.4797599165051807
31
1.2639543480852395e-32
 62
256
 0
LINE
 8
Layer0_S_
10
2285.809613201191
20
2.4797599165051807
30
1.2639543480852395e-32
11
2284.6294689750575
21
3.514718625761432
31
1.2639543480852395e-32
 62
256
 0
LINE
 8
Layer0_S_
10
2284.6294689750575
20
3.514718625761432
30
1.2639543480852395e-32
11
2283.594510265801
21
4.694862851895357
31
1.2639543480852395e-32
 62
256
 0
LINE
 8
Layer0_S_
10
2283.594510265801
20
4.694862851895357
30
1.2639543480852395e-32
11
2282.722445503882
21
6.0
31
1.2639543480852395e-32
 62
256
 0
LINE
 8
Layer0_S_
10
2282.722445503882
20
6.0
30
1.2639543480852395e-32
11
2282.0281959591603
21
7.407798811618921
31
1.2639543480852395e-32
 62
256
 0
LINE
 8
Layer0_S_
10
2282.0281959591603
20
7.407798811618921
30
1.2639543480852395e-32
11
2281.523640433827
21
8.89417145876975
31
1.2639543480852395e-32
 62
256
 0
LINE
 8
Layer0_S_
10
2281.523640433827
20
8.89417145876975
30
1.2639543480852395e-32
11
2281.2174120128097
21
10.433685693359385
31
1.2639543480852395e-32
 62
256
 0
LINE
 8
Layer0_S_
10
2281.2174120128097
20
10.433685693359385
30
1.2639543480852395e-32
11
2281.1147503492957
21
12.0
31
1.2639543480852395e-32
 62
256
 0
LINE
 8
Layer0_S_
10
2299.1147503492957
20
115.99999999999993
30
1.2639543480852395e-32
11
2299.1147503492957
21
24.0
31
1.2639543480852395e-32
 62
256
 0
LINE
 8
Layer0_S_
10
2442.1147503492957
20
18.0
30
1.2639543480852395e-32
11
2305.1147503492957
21
18.00000000000001
31
1.2639543480852395e-32
 62
256
 0
LINE
 8
Layer0_S_
10
2448.1147503492957
20
115.99999999999993
30
1.2639543480852395e-32
11
2448.1147503492957
21
24.0
31
1.2639543480852395e-32
 62
256
 0
LINE
 8
Layer0_S_
10
2442.1147503492957
20
121.99999999999991
30
1.2639543480852395e-32
11
2305.114750349296
21
121.99999999999993
31
1.2639543480852395e-32
 62
256
 0
LINE
 8
Layer0_S_
10
2299.1147503492957
20
24.0
30
1.2639543480852395e-32
11
2299.166081181053
21
23.216842846679693
31
1.4303570948471097e-32
 62
256
 0
LINE
 8
Layer0_S_
10
2299.166081181053
20
23.216842846679693
30
1.4303570948471097e-32
11
2299.3191953915616
21
22.44708572938488
31
1.5939126444763264e-32
 62
256
 0
LINE
 8
Layer0_S_
10
2299.3191953915616
20
22.44708572938488
30
1.5939126444763264e-32
11
2299.571473154228
21
21.703899405809466
31
1.7518225161725692e-32
 62
256
 0
LINE
 8
Layer0_S_
10
2299.571473154228
20
21.703899405809466
30
1.7518225161725692e-32
11
2299.9185979265894
21
21.00000000000001
31
1.9013848282502273e-32
 62
256
 0
LINE
 8
Layer0_S_
10
2299.9185979265894
20
21.00000000000001
30
1.9013848282502273e-32
11
2300.354630307548
21
20.347431425947686
31
2.0400405280831454e-32
 62
256
 0
LINE
 8
Layer0_S_
10
2300.354630307548
20
20.347431425947686
30
2.0400405280831454e-32
11
2300.8721096621766
21
19.757359312880727
31
2.1654171782045594e-32
 62
256
 0
LINE
 8
Layer0_S_
10
2300.8721096621766
20
19.757359312880727
30
2.1654171782045594e-32
11
2301.4621817752436
21
19.239879958252608
31
2.2753695493699175e-32
 62
256
 0
LINE
 8
Layer0_S_
10
2301.4621817752436
20
19.239879958252608
30
2.2753695493699175e-32
11
2302.1147503492957
21
18.80384757729339
31
2.3680163260240238e-32
 62
256
 0
LINE
 8
Layer0_S_
10
2302.1147503492957
20
18.80384757729339
30
2.3680163260240238e-32
11
2302.818649755105
21
18.456722804932294
31
2.441772296131787e-32
 62
256
 0
LINE
 8
Layer0_S_
10
2302.818649755105
20
18.456722804932294
30
2.441772296131787e-32
11
2303.5618360786807
21
18.204445042265604
31
2.495375474595646e-32
 62
256
 0
LINE
 8
Layer0_S_
10
2303.5618360786807
20
18.204445042265604
30
2.495375474595646e-32
11
2304.3315931959755
21
18.051330831757152
31
2.5279086961704747e-32
 62
256
 0
LINE
 8
Layer0_S_
10
2304.3315931959755
20
18.051330831757152
30
2.5279086961704747e-32
11
2305.1147503492957
21
18.00000000000001
31
1.2639543480852395e-32
 62
256
 0
LINE
 8
Layer0_S_
10
2448.1147503492957
20
24.0
30
1.2639543480852395e-32
11
2448.063419517539
21
23.216842846679693
31
1.43035709484711e-32
 62
256
 0
LINE
 8
Layer0_S_
10
2448.063419517539
20
23.216842846679693
30
1.43035709484711e-32
11
2447.9103053070303
21
22.447085729384877
31
1.5939126444763272e-32
 62
256
 0
LINE
 8
Layer0_S_
10
2447.9103053070303
20
22.447085729384877
30
1.5939126444763272e-32
11
2447.6580275443634
21
21.703899405809466
31
1.75182251617257e-32
 62
256
 0
LINE
 8
Layer0_S_
10
2447.6580275443634
20
21.703899405809466
30
1.75182251617257e-32
11
2447.3109027720025
21
21.0
31
1.9013848282502286e-32
 62
256
 0
LINE
 8
Layer0_S_
10
2447.3109027720025
20
21.0
30
1.9013848282502286e-32
11
2446.8748703910433
21
20.347431425947686
31
2.040040528083147e-32
 62
256
 0
LINE
 8
Layer0_S_
10
2446.8748703910433
20
20.347431425947686
30
2.040040528083147e-32
11
2446.3573910364153
21
19.757359312880716
31
2.165417178204561e-32
 62
256
 0
LINE
 8
Layer0_S_
10
2446.3573910364153
20
19.757359312880716
30
2.165417178204561e-32
11
2445.7673189233483
21
19.239879958252597
31
2.2753695493699192e-32
 62
256
 0
LINE
 8
Layer0_S_
10
2445.7673189233483
20
19.239879958252597
30
2.2753695493699192e-32
11
2445.1147503492957
21
18.80384757729338
31
2.3680163260240257e-32
 62
256
 0
LINE
 8
Layer0_S_
10
2445.1147503492957
20
18.80384757729338
30
2.3680163260240257e-32
11
2444.4108509434864
21
18.456722804932284
31
2.4417722961317896e-32
 62
256
 0
LINE
 8
Layer0_S_
10
2444.4108509434864
20
18.456722804932284
30
2.4417722961317896e-32
11
2443.667664619911
21
18.20444504226559
31
2.4953754745956485e-32
 62
256
 0
LINE
 8
Layer0_S_
10
2443.667664619911
20
18.20444504226559
30
2.4953754745956485e-32
11
2442.897907502616
21
18.051330831757138
31
2.527908696170477e-32
 62
256
 0
LINE
 8
Layer0_S_
10
2442.897907502616
20
18.051330831757138
30
2.527908696170477e-32
11
2442.1147503492957
21
18.0
31
1.2639543480852395e-32
 62
256
 0
LINE
 8
Layer0_S_
10
2448.1147503492957
20
115.99999999999993
30
1.2639543480852395e-32
11
2448.063419517539
21
116.78315715332023
31
1.0975516013233694e-32
 62
256
 0
LINE
 8
Layer0_S_
10
2448.063419517539
20
116.78315715332023
30
1.0975516013233694e-32
11
2447.9103053070303
21
117.55291427061503
31
9.33996051694152e-33
 62
256
 0
LINE
 8
Layer0_S_
10
2447.9103053070303
20
117.55291427061503
30
9.33996051694152e-33
11
2447.6580275443634
21
118.29610059419046
31
7.760861799979092e-33
 62
256
 0
LINE
 8
Layer0_S_
10
2447.6580275443634
20
118.29610059419046
30
7.760861799979092e-33
11
2447.3109027720025
21
118.99999999999991
31
6.265238679202507e-33
 62
256
 0
LINE
 8
Layer0_S_
10
2447.3109027720025
20
118.99999999999991
30
6.265238679202507e-33
11
2446.8748703910433
21
119.65256857405225
31
4.8786816808733236e-33
 62
256
 0
LINE
 8
Layer0_S_
10
2446.8748703910433
20
119.65256857405225
30
4.8786816808733236e-33
11
2446.3573910364153
21
120.24264068711922
31
3.6249151796591816e-33
 62
256
 0
LINE
 8
Layer0_S_
10
2446.3573910364153
20
120.24264068711922
30
3.6249151796591816e-33
11
2445.7673189233483
21
120.76012004174733
31
2.5253914680056007e-33
 62
256
 0
LINE
 8
Layer0_S_
10
2445.7673189233483
20
120.76012004174733
30
2.5253914680056007e-33
11
2445.1147503492957
21
121.19615242270655
31
1.598923701464535e-33
 62
256
 0
LINE
 8
Layer0_S_
10
2445.1147503492957
20
121.19615242270655
30
1.598923701464535e-33
11
2444.4108509434864
21
121.54327719506765
31
8.613640003868963e-34
 62
256
 0
LINE
 8
Layer0_S_
10
2444.4108509434864
20
121.54327719506765
30
8.613640003868963e-34
11
2443.667664619911
21
121.79555495773434
31
3.25332215748307e-34
 62
256
 0
LINE
 8
Layer0_S_
10
2443.667664619911
20
121.79555495773434
30
3.25332215748307e-34
11
2442.897907502616
21
121.94866916824279
31
2.1724231563629366e-47
 62
256
 0
LINE
 8
Layer0_S_
10
2442.897907502616
20
121.94866916824279
30
2.1724231563629366e-47
11
2442.1147503492957
21
121.99999999999991
31
1.2639543480852395e-32
 62
256
 0
LINE
 8
Layer0_S_
10
2299.1147503492957
20
115.99999999999993
30
1.2639543480852395e-32
11
2299.166081181053
21
116.78315715332023
31
1.0975516013233693e-32
 62
256
 0
LINE
 8
Layer0_S_
10
2299.166081181053
20
116.78315715332023
30
1.0975516013233693e-32
11
2299.3191953915616
21
117.55291427061503
31
9.339960516941516e-33
 62
256
 0
LINE
 8
Layer0_S_
10
2299.3191953915616
20
117.55291427061503
30
9.339960516941516e-33
11
2299.571473154228
21
118.29610059419046
31
7.760861799979084e-33
 62
256
 0
LINE
 8
Layer0_S_
10
2299.571473154228
20
118.29610059419046
30
7.760861799979084e-33
11
2299.9185979265894
21
118.99999999999991
31
6.265238679202498e-33
 62
256
 0
LINE
 8
Layer0_S_
10
2299.9185979265894
20
118.99999999999991
30
6.265238679202498e-33
11
2300.354630307548
21
119.65256857405225
31
4.8786816808733126e-33
 62
256
 0
LINE
 8
Layer0_S_
10
2300.354630307548
20
119.65256857405225
30
4.8786816808733126e-33
11
2300.8721096621766
21
120.24264068711922
31
3.624915179659168e-33
 62
256
 0
LINE
 8
Layer0_S_
10
2300.8721096621766
20
120.24264068711922
30
3.624915179659168e-33
11
2301.4621817752436
21
120.76012004174736
31
2.5253914680055833e-33
 62
256
 0
LINE
 8
Layer0_S_
10
2301.4621817752436
20
120.76012004174736
30
2.5253914680055833e-33
11
2302.1147503492957
21
121.19615242270658
31
1.5989237014645153e-33
 62
256
 0
LINE
 8
Layer0_S_
10
2302.1147503492957
20
121.19615242270658
30
1.5989237014645153e-33
11
2302.818649755105
21
121.54327719506765
31
8.613640003868768e-34
 62
256
 0
LINE
 8
Layer0_S_
10
2302.818649755105
20
121.54327719506765
30
8.613640003868768e-34
11
2303.5618360786807
21
121.79555495773434
31
3.253322157482874e-34
 62
256
 0
LINE
 8
Layer0_S_
10
2303.5618360786807
20
121.79555495773434
30
3.253322157482874e-34
11
2304.3315931959755
21
121.94866916824279
31
0.0
 62
256
 0
LINE
 8
Layer0_S_
10
2304.3315931959755
20
121.94866916824279
30
0.0
11
2305.114750349296
21
121.99999999999993
31
1.2639543480852395e-32
 62
256
 0
LINE
 8
Layer0_S_
10
2290.1147503492957
20
12.0
30
1.2639543480852395e-32
11
2290.216972870429
21
12.776457135307558
31
1.2639543480852395e-32
 62
256
 0
LINE
 8
Layer0_S_
10
2290.216972870429
20
12.776457135307558
30
1.2639543480852395e-32
11
2290.5166741379426
21
13.499999999999998
31
1.2639543480852395e-32
 62
256
 0
LINE
 8
Layer0_S_
10
2290.5166741379426
20
13.499999999999998
30
1.2639543480852395e-32
11
2290.993430005736
21
14.121320343559637
31
1.2639543480852395e-32
 62
256
 0
LINE
 8
Layer0_S_
10
2290.993430005736
20
14.121320343559637
30
1.2639543480852395e-32
11
2291.6147503492957
21
14.598076211353312
31
1.2639543480852395e-32
 62
256
 0
LINE
 8
Layer0_S_
10
2291.6147503492957
20
14.598076211353312
30
1.2639543480852395e-32
11
2292.3382932139884
21
14.897777478867194
31
1.2639543480852395e-32
 62
256
 0
LINE
 8
Layer0_S_
10
2292.3382932139884
20
14.897777478867194
30
1.2639543480852395e-32
11
2293.1147503492957
21
14.999999999999995
31
1.2639543480852395e-32
 62
256
 0
LINE
 8
Layer0_S_
10
2293.1147503492957
20
14.999999999999995
30
1.2639543480852395e-32
11
2293.8912074846035
21
14.897777478867194
31
1.2639543480852395e-32
 62
256
 0
LINE
 8
Layer0_S_
10
2293.8912074846035
20
14.897777478867194
30
1.2639543480852395e-32
11
2294.6147503492957
21
14.598076211353312
31
1.2639543480852395e-32
 62
256
 0
LINE
 8
Layer0_S_
10
2294.6147503492957
20
14.598076211353312
30
1.2639543480852395e-32
11
2295.2360706928553
21
14.121320343559637
31
1.2639543480852395e-32
 62
256
 0
LINE
 8
Layer0_S_
10
2295.2360706928553
20
14.121320343559637
30
1.2639543480852395e-32
11
2295.712826560649
21
13.499999999999998
31
1.2639543480852395e-32
 62
256
 0
LINE
 8
Layer0_S_
10
2295.712826560649
20
13.499999999999998
30
1.2639543480852395e-32
11
2296.012527828163
21
12.776457135307558
31
1.2639543480852395e-32
 62
256
 0
LINE
 8
Layer0_S_
10
2296.012527828163
20
12.776457135307558
30
1.2639543480852395e-32
11
2296.1147503492957
21
12.0
31
1.2639543480852395e-32
 62
256
 0
LINE
 8
Layer0_S_
10
2296.1147503492957
20
12.0
30
1.2639543480852395e-32
11
2296.012527828163
21
11.223542864692444
31
1.2639543480852395e-32
 62
256
 0
LINE
 8
Layer0_S_
10
2296.012527828163
20
11.223542864692444
30
1.2639543480852395e-32
11
2295.712826560649
21
10.500000000000004
31
1.2639543480852395e-32
 62
256
 0
LINE
 8
Layer0_S_
10
2295.712826560649
20
10.500000000000004
30
1.2639543480852395e-32
11
2295.2360706928553
21
9.878679656440363
31
1.2639543480852395e-32
 62
256
 0
LINE
 8
Layer0_S_
10
2295.2360706928553
20
9.878679656440363
30
1.2639543480852395e-32
11
2294.6147503492957
21
9.40192378864669
31
1.2639543480852395e-32
 62
256
 0
LINE
 8
Layer0_S_
10
2294.6147503492957
20
9.40192378864669
30
1.2639543480852395e-32
11
2293.8912074846035
21
9.102222521132807
31
1.2639543480852395e-32
 62
256
 0
LINE
 8
Layer0_S_
10
2293.8912074846035
20
9.102222521132807
30
1.2639543480852395e-32
11
2293.1147503492957
21
9.000000000000005
31
1.2639543480852395e-32
 62
256
 0
LINE
 8
Layer0_S_
10
2293.1147503492957
20
9.000000000000005
30
1.2639543480852395e-32
11
2292.3382932139884
21
9.102222521132807
31
1.2639543480852395e-32
 62
256
 0
LINE
 8
Layer0_S_
10
2292.3382932139884
20
9.102222521132807
30
1.2639543480852395e-32
11
2291.6147503492957
21
9.40192378864669
31
1.2639543480852395e-32
 62
256
 0
LINE
 8
Layer0_S_
10
2291.6147503492957
20
9.40192378864669
30
1.2639543480852395e-32
11
2290.993430005736
21
9.878679656440363
31
1.2639543480852395e-32
 62
256
 0
LINE
 8
Layer0_S_
10
2290.993430005736
20
9.878679656440363
30
1.2639543480852395e-32
11
2290.5166741379426
21
10.500000000000004
31
1.2639543480852395e-32
 62
256
 0
LINE
 8
Layer0_S_
10
2290.5166741379426
20
10.500000000000004
30
1.2639543480852395e-32
11
2290.216972870429
21
11.223542864692444
31
1.2639543480852395e-32
 62
256
 0
LINE
 8
Layer0_S_
10
2290.216972870429
20
11.223542864692444
30
1.2639543480852395e-32
11
2290.1147503492957
21
12.0
31
1.2639543480852395e-32
 62
256
 0
LINE
 8
Layer0_S_
10
2451.1147503492957
20
12.0
30
1.2639543480852395e-32
11
2451.2169728704284
21
12.776457135307558
31
1.2639543480852395e-32
 62
256
 0
LINE
 8
Layer0_S_
10
2451.2169728704284
20
12.776457135307558
30
1.2639543480852395e-32
11
2451.5166741379426
21
13.499999999999998
31
1.2639543480852395e-32
 62
256
 0
LINE
 8
Layer0_S_
10
2451.5166741379426
20
13.499999999999998
30
1.2639543480852395e-32
11
2451.993430005736
21
14.121320343559637
31
1.2639543480852395e-32
 62
256
 0
LINE
 8
Layer0_S_
10
2451.993430005736
20
14.121320343559637
30
1.2639543480852395e-32
11
2452.6147503492957
21
14.598076211353312
31
1.2639543480852395e-32
 62
256
 0
LINE
 8
Layer0_S_
10
2452.6147503492957
20
14.598076211353312
30
1.2639543480852395e-32
11
2453.3382932139884
21
14.897777478867205
31
1.2639543480852395e-32
 62
256
 0
LINE
 8
Layer0_S_
10
2453.3382932139884
20
14.897777478867205
30
1.2639543480852395e-32
11
2454.1147503492957
21
14.999999999999995
31
1.2639543480852395e-32
 62
256
 0
LINE
 8
Layer0_S_
10
2454.1147503492957
20
14.999999999999995
30
1.2639543480852395e-32
11
2454.8912074846035
21
14.897777478867205
31
1.2639543480852395e-32
 62
256
 0
LINE
 8
Layer0_S_
10
2454.8912074846035
20
14.897777478867205
30
1.2639543480852395e-32
11
2455.6147503492957
21
14.598076211353312
31
1.2639543480852395e-32
 62
256
 0
LINE
 8
Layer0_S_
10
2455.6147503492957
20
14.598076211353312
30
1.2639543480852395e-32
11
2456.2360706928553
21
14.121320343559637
31
1.2639543480852395e-32
 62
256
 0
LINE
 8
Layer0_S_
10
2456.2360706928553
20
14.121320343559637
30
1.2639543480852395e-32
11
2456.7128265606493
21
13.499999999999998
31
1.2639543480852395e-32
 62
256
 0
LINE
 8
Layer0_S_
10
2456.7128265606493
20
13.499999999999998
30
1.2639543480852395e-32
11
2457.012527828163
21
12.776457135307558
31
1.2639543480852395e-32
 62
256
 0
LINE
 8
Layer0_S_
10
2457.012527828163
20
12.776457135307558
30
1.2639543480852395e-32
11
2457.1147503492957
21
12.0
31
1.2639543480852395e-32
 62
256
 0
LINE
 8
Layer0_S_
10
2457.1147503492957
20
12.0
30
1.2639543480852395e-32
11
2457.012527828163
21
11.223542864692444
31
1.2639543480852395e-32
 62
256
 0
LINE
 8
Layer0_S_
10
2457.012527828163
20
11.223542864692444
30
1.2639543480852395e-32
11
2456.7128265606493
21
10.500000000000004
31
1.2639543480852395e-32
 62
256
 0
LINE
 8
Layer0_S_
10
2456.7128265606493
20
10.500000000000004
30
1.2639543480852395e-32
11
2456.2360706928553
21
9.878679656440363
31
1.2639543480852395e-32
 62
256
 0
LINE
 8
Layer0_S_
10
2456.2360706928553
20
9.878679656440363
30
1.2639543480852395e-32
11
2455.6147503492957
21
9.40192378864669
31
1.2639543480852395e-32
 62
256
 0
LINE
 8
Layer0_S_
10
2455.6147503492957
20
9.40192378864669
30
1.2639543480852395e-32
11
2454.8912074846035
21
9.102222521132795
31
1.2639543480852395e-32
 62
256
 0
LINE
 8
Layer0_S_
10
2454.8912074846035
20
9.102222521132795
30
1.2639543480852395e-32
11
2454.1147503492957
21
9.000000000000005
31
1.2639543480852395e-32
 62
256
 0
LINE
 8
Layer0_S_
10
2454.1147503492957
20
9.000000000000005
30
1.2639543480852395e-32
11
2453.3382932139884
21
9.102222521132795
31
1.2639543480852395e-32
 62
256
 0
LINE
 8
Layer0_S_
10
2453.3382932139884
20
9.102222521132795
30
1.2639543480852395e-32
11
2452.6147503492957
21
9.40192378864669
31
1.2639543480852395e-32
 62
256
 0
LINE
 8
Layer0_S_
10
2452.6147503492957
20
9.40192378864669
30
1.2639543480852395e-32
11
2451.993430005736
21
9.878679656440363
31
1.2639543480852395e-32
 62
256
 0
LINE
 8
Layer0_S_
10
2451.993430005736
20
9.878679656440363
30
1.2639543480852395e-32
11
2451.5166741379426
21
10.500000000000004
31
1.2639543480852395e-32
 62
256
 0
LINE
 8
Layer0_S_
10
2451.5166741379426
20
10.500000000000004
30
1.2639543480852395e-32
11
2451.2169728704284
21
11.223542864692432
31
1.2639543480852395e-32
 62
256
 0
LINE
 8
Layer0_S_
10
2451.2169728704284
20
11.223542864692432
30
1.2639543480852395e-32
11
2451.1147503492957
21
12.0
31
1.2639543480852395e-32
 62
256
 0
LINE
 8
Layer0_S_
10
2456.1255456073695
20
130.22636529574697
30
1.2639543480852395e-32
11
2455.52586196632
21
130.6474070341184
31
1.2639543480852395e-32
 62
256
 0
LINE
 8
Layer0_S_
10
2455.52586196632
20
130.6474070341184
30
1.2639543480852395e-32
11
2454.841998208572
21
130.91051723086758
31
1.2639543480852395e-32
 62
256
 0
LINE
 8
Layer0_S_
10
2454.841998208572
20
130.91051723086758
30
1.2639543480852395e-32
11
2454.1147503492957
21
130.99999999999991
31
1.2639543480852395e-32
 62
256
 0
LINE
 8
Layer0_S_
10
2454.1147503492957
20
130.99999999999991
30
1.2639543480852395e-32
11
2453.387502490019
21
130.91051723086758
31
1.2639543480852395e-32
 62
256
 0
LINE
 8
Layer0_S_
10
2453.387502490019
20
130.91051723086758
30
1.2639543480852395e-32
11
2452.703638732272
21
130.6474070341184
31
1.2639543480852395e-32
 62
256
 0
LINE
 8
Layer0_S_
10
2452.703638732272
20
130.6474070341184
30
1.2639543480852395e-32
11
2452.1039550912215
21
130.22636529574697
31
1.2639543480852395e-32
 62
256
 0
LINE
 8
Layer0_S_
10
2456.1255456073695
20
130.22636529574697
30
1.2639543480852395e-32
11
2456.598308117461
21
129.68283713180628
31
1.2639543480852395e-32
 62
256
 0
LINE
 8
Layer0_S_
10
2456.598308117461
20
129.68283713180628
30
1.2639543480852395e-32
11
2456.9278722033728
21
129.04227896175342
31
1.2639543480852395e-32
 62
256
 0
LINE
 8
Layer0_S_
10
2456.9278722033728
20
129.04227896175342
30
1.2639543480852395e-32
11
2457.0952356665766
21
128.34162446263932
31
1.2639543480852395e-32
 62
256
 0
LINE
 8
Layer0_S_
10
2457.0952356665766
20
128.34162446263932
30
1.2639543480852395e-32
11
2457.0907485667713
21
127.62127238075176
31
1.2639543480852395e-32
 62
256
 0
LINE
 8
Layer0_S_
10
2457.0907485667713
20
127.62127238075176
30
1.2639543480852395e-32
11
2456.9146696237785
21
126.9227571971094
31
1.2639543480852395e-32
 62
256
 0
LINE
 8
Layer0_S_
10
2456.9146696237785
20
126.9227571971094
30
1.2639543480852395e-32
11
2456.577151300122
21
126.28635430809926
31
1.2639543480852395e-32
 62
256
 0
LINE
 8
Layer0_S_
10
2456.577151300122
20
126.28635430809926
30
1.2639543480852395e-32
11
2456.097654424416
21
125.7487578031512
31
1.2639543480852395e-32
 62
256
 0
LINE
 8
Layer0_S_
10
2456.097654424416
20
125.7487578031512
30
1.2639543480852395e-32
11
2455.5038261075424
21
125.34096473550059
31
1.2639543480852395e-32
 62
256
 0
LINE
 8
Layer0_S_
10
2455.5038261075424
20
125.34096473550059
30
1.2639543480852395e-32
11
2454.829905649389
21
125.08648787599066
31
1.2639543480852395e-32
 62
256
 0
LINE
 8
Layer0_S_
10
2454.829905649389
20
125.08648787599066
30
1.2639543480852395e-32
11
2454.1147503492957
21
124.99999999999993
31
1.2639543480852395e-32
 62
256
 0
LINE
 8
Layer0_S_
10
2454.1147503492957
20
124.99999999999993
30
1.2639543480852395e-32
11
2453.399595049203
21
125.08648787599066
31
1.2639543480852395e-32
 62
256
 0
LINE
 8
Layer0_S_
10
2453.399595049203
20
125.08648787599066
30
1.2639543480852395e-32
11
2452.7256745910486
21
125.34096473550059
31
1.2639543480852395e-32
 62
256
 0
LINE
 8
Layer0_S_
10
2452.7256745910486
20
125.34096473550059
30
1.2639543480852395e-32
11
2452.131846274176
21
125.7487578031512
31
1.2639543480852395e-32
 62
256
 0
LINE
 8
Layer0_S_
10
2452.131846274176
20
125.7487578031512
30
1.2639543480852395e-32
11
2451.6523493984696
21
126.28635430809926
31
1.2639543480852395e-32
 62
256
 0
LINE
 8
Layer0_S_
10
2451.6523493984696
20
126.28635430809926
30
1.2639543480852395e-32
11
2451.314831074813
21
126.9227571971094
31
1.2639543480852395e-32
 62
256
 0
LINE
 8
Layer0_S_
10
2451.314831074813
20
126.9227571971094
30
1.2639543480852395e-32
11
2451.13875213182
21
127.62127238075176
31
1.2639543480852395e-32
 62
256
 0
LINE
 8
Layer0_S_
10
2451.13875213182
20
127.62127238075176
30
1.2639543480852395e-32
11
2451.134265032015
21
128.34162446263932
31
1.2639543480852395e-32
 62
256
 0
LINE
 8
Layer0_S_
10
2451.134265032015
20
128.34162446263932
30
1.2639543480852395e-32
11
2451.3016284952187
21
129.04227896175342
31
1.2639543480852395e-32
 62
256
 0
LINE
 8
Layer0_S_
10
2451.3016284952187
20
129.04227896175342
30
1.2639543480852395e-32
11
2451.6311925811306
21
129.68283713180628
31
1.2639543480852395e-32
 62
256
 0
LINE
 8
Layer0_S_
10
2451.6311925811306
20
129.68283713180628
30
1.2639543480852395e-32
11
2452.1039550912215
21
130.22636529574697
31
1.2639543480852395e-32
 62
256
 0
LINE
 8
Layer0_S_
10
2295.12554560737
20
130.226365295747
30
1.2639543480852395e-32
11
2295.6160473109308
21
129.65635549013962
31
1.2639543480852395e-32
 62
256
 0
LINE
 8
Layer0_S_
10
2295.6160473109308
20
129.65635549013962
30
1.2639543480852395e-32
11
2295.9493833272654
21
128.9822707774374
31
1.2639543480852395e-32
 62
256
 0
LINE
 8
Layer0_S_
10
2295.9493833272654
20
128.9822707774374
30
1.2639543480852395e-32
11
2296.1046089285433
21
128.2464663792496
31
1.2639543480852395e-32
 62
256
 0
LINE
 8
Layer0_S_
10
2296.1046089285433
20
128.2464663792496
30
1.2639543480852395e-32
11
2296.0719707193566
21
127.49517559201358
31
1.2639543480852395e-32
 62
256
 0
LINE
 8
Layer0_S_
10
2296.0719707193566
20
127.49517559201358
30
1.2639543480852395e-32
11
2295.8535194784226
21
126.77560477894563
31
1.2639543480852395e-32
 62
256
 0
LINE
 8
Layer0_S_
10
2295.8535194784226
20
126.77560477894563
30
1.2639543480852395e-32
11
2295.462981300618
21
126.1329672206272
31
1.2639543480852395e-32
 62
256
 0
LINE
 8
Layer0_S_
10
2295.462981300618
20
126.1329672206272
30
1.2639543480852395e-32
11
2294.9248951359523
21
125.60764219830295
31
1.2639543480852395e-32
 62
256
 0
LINE
 8
Layer0_S_
10
2294.9248951359523
20
125.60764219830295
30
1.2639543480852395e-32
11
2294.273070917094
21
125.23263781513587
31
1.2639543480852395e-32
 62
256
 0
LINE
 8
Layer0_S_
10
2294.273070917094
20
125.23263781513587
30
1.2639543480852395e-32
11
2293.548465156956
21
125.03151697568998
31
1.2639543480852395e-32
 62
256
 0
LINE
 8
Layer0_S_
10
2293.548465156956
20
125.03151697568998
30
1.2639543480852395e-32
11
2292.7966075003615
21
125.01691684197837
31
1.2639543480852395e-32
 62
256
 0
LINE
 8
Layer0_S_
10
2292.7966075003615
20
125.01691684197837
30
1.2639543480852395e-32
11
2292.0647399290124
21
125.18975479409768
31
1.2639543480852395e-32
 62
256
 0
LINE
 8
Layer0_S_
10
2292.0647399290124
20
125.18975479409768
30
1.2639543480852395e-32
11
2291.398848374038
21
125.53917078786272
31
1.2639543480852395e-32
 62
256
 0
LINE
 8
Layer0_S_
10
2291.398848374038
20
125.53917078786272
30
1.2639543480852395e-32
11
2290.840773250816
21
126.0432097313231
31
1.2639543480852395e-32
 62
256
 0
LINE
 8
Layer0_S_
10
2290.840773250816
20
126.0432097313231
30
1.2639543480852395e-32
11
2290.4255804717936
21
126.67020100393567
31
1.2639543480852395e-32
 62
256
 0
LINE
 8
Layer0_S_
10
2290.4255804717936
20
126.67020100393567
30
1.2639543480852395e-32
11
2290.1793581262496
21
127.38074843812953
31
1.2639543480852395e-32
 62
256
 0
LINE
 8
Layer0_S_
10
2290.1793581262496
20
127.38074843812953
30
1.2639543480852395e-32
11
2290.117577269697
21
128.13020572540364
31
1.2639543480852395e-32
 62
256
 0
LINE
 8
Layer0_S_
10
2290.117577269697
20
128.13020572540364
30
1.2639543480852395e-32
11
2290.244119820567
21
128.8714817080875
31
1.2639543480852395e-32
 62
256
 0
LINE
 8
Layer0_S_
10
2290.244119820567
20
128.8714817080875
30
1.2639543480852395e-32
11
2290.5510346449983
21
129.55799928996666
31
1.2639543480852395e-32
 62
256
 0
LINE
 8
Layer0_S_
10
2290.5510346449983
20
129.55799928996666
30
1.2639543480852395e-32
11
2291.019037155817
21
130.14662204653666
31
1.2639543480852395e-32
 62
256
 0
LINE
 8
Layer0_S_
10
2291.019037155817
20
130.14662204653666
30
1.2639543480852395e-32
11
2291.6187210340754
21
130.6003646451991
31
1.2639543480852395e-32
 62
256
 0
LINE
 8
Layer0_S_
10
2291.6187210340754
20
130.6003646451991
30
1.2639543480852395e-32
11
2292.312405936221
21
130.8907167697315
31
1.2639543480852395e-32
 62
256
 0
LINE
 8
Layer0_S_
10
2292.312405936221
20
130.8907167697315
30
1.2639543480852395e-32
11
2293.0565050886557
21
130.99943452830905
31
1.2639543480852395e-32
 62
256
 0
LINE
 8
Layer0_S_
10
2293.0565050886557
20
130.99943452830905
30
1.2639543480852395e-32
11
2293.804264005028
21
130.9196867843244
31
1.2639543480852395e-32
 62
256
 0
LINE
 8
Layer0_S_
10
2293.804264005028
20
130.9196867843244
30
1.2639543480852395e-32
11
2294.5086982425564
21
130.65648438182373
31
1.2639543480852395e-32
 62
256
 0
LINE
 8
Layer0_S_
10
2294.5086982425564
20
130.65648438182373
30
1.2639543480852395e-32
11
2295.12554560737
21
130.226365295747
31
1.2639543480852395e-32
 62
256
 0
ENDSEC
 0
EOF
