  0
SECTION
  2
HEADER
  9
$ACADVER
  1
AC1014
  9
$HANDSEED
  5
FFFF
  9
$MEASUREMENT
 70
     1
  0
ENDSEC
  0
SECTION
  2
TABLES
  0
TABLE
  2
VPORT
  5
8
330
0
100
AcDbSymbolTable
 70
     4
  0
VPORT
  5
2E
330
8
100
AcDbSymbolTableRecord
100
AcDbViewportTableRecord
  2
*ACTIVE
 70
     0
 10
0.0
 20
0.0
 11
1.0
 21
1.0
 12
210.0
 22
148.5
 13
0.0
 23
0.0
 14
10.0
 24
10.0
 15
10.0
 25
10.0
 16
0.0
 26
0.0
 36
1.0
 17
0.0
 27
0.0
 37
0.0
 40
341.0
 41
1.24
 42
50.0
 43
0.0
 44
0.0
 50
0.0
 51
0.0
 71
     0
 72
   100
 73
     1
 74
     3
 75
     0
 76
     0
 77
     0
 78
     0
  0
ENDTAB
  0
TABLE
  2
LTYPE
  5
5
330
0
100
AcDbSymbolTable
 70
     1
  0
LTYPE
  5
14
330
5
100
AcDbSymbolTableRecord
100
AcDbLinetypeTableRecord
  2
BYBLOCK
 70
     0
  3

 72
    65
 73
     0
 40
0.0
  0
LTYPE
  5
15
330
5
100
AcDbSymbolTableRecord
100
AcDbLinetypeTableRecord
  2
BYLAYER
 70
     0
  3

 72
    65
 73
     0
 40
0.0
  0
LTYPE
  5
16
330
5
100
AcDbSymbolTableRecord
100
AcDbLinetypeTableRecord
  2
CONTINUOUS
 70
     0
  3
Solid line
 72
    65
 73
     0
 40
0.0
  0
ENDTAB
  0
TABLE
  2
LAYER
  5
2
100
AcDbSymbolTable
 70
2
  0
LAYER
  5
50
100
AcDbSymbolTableRecord
100
AcDbLayerTableRecord
  2
0
 70
0
  6
CONTINUOUS
  0
LAYER
  5
51
100
AcDbSymbolTableRecord
100
AcDbLayerTableRecord
  2
Layer_1
 70
0
  6
CONTINUOUS
  0
ENDTAB
  0
TABLE
  2
STYLE
  5
3
330
0
100
AcDbSymbolTable
 70
     1
  0
STYLE
  5
11
330
3
100
AcDbSymbolTableRecord
100
AcDbTextStyleTableRecord
  2
STANDARD
 70
     0
 40
0.0
 41
1.0
 50
0.0
 71
     0
 42
2.5
  3
txt
  4

  0
ENDTAB
  0
TABLE
  2
VIEW
  5
6
330
0
100
AcDbSymbolTable
 70
     0
  0
ENDTAB
  0
TABLE
  2
UCS
  5
7
330
0
100
AcDbSymbolTable
 70
     0
  0
ENDTAB
  0
TABLE
  2
APPID
  5
9
330
0
100
AcDbSymbolTable
 70
     2
  0
APPID
  5
12
330
9
100
AcDbSymbolTableRecord
100
AcDbRegAppTableRecord
  2
ACAD
 70
     0
  0
ENDTAB
  0
TABLE
  2
DIMSTYLE
  5
A
330
0
100
AcDbSymbolTable
 70
     1
  0
DIMSTYLE
105
27
330
A
100
AcDbSymbolTableRecord
100
AcDbDimStyleTableRecord
  2
ISO-25
 70
     0
  3

  4

  5

  6

  7

 40
1.0
 41
2.5
 42
0.625
 43
3.75
 44
1.25
 45
0.0
 46
0.0
 47
0.0
 48
0.0
140
2.5
141
2.5
142
0.0
143
0.03937007874016
144
1.0
145
0.0
146
1.0
147
0.625
 71
     0
 72
     0
 73
     0
 74
     0
 75
     0
 76
     0
 77
     1
 78
     8
170
     0
171
     3
172
     1
173
     0
174
     0
175
     0
176
     0
177
     0
178
     0
270
     2
271
     2
272
     2
273
     2
274
     3
340
11
275
     0
280
     0
281
     0
282
     0
283
     0
284
     8
285
     0
286
     0
287
     3
288
     0
  0
ENDTAB
  0
TABLE
  2
BLOCK_RECORD
  5
1
330
0
100
AcDbSymbolTable
 70
     1
  0
BLOCK_RECORD
  5
1F
330
1
100
AcDbSymbolTableRecord
100
AcDbBlockTableRecord
  2
*MODEL_SPACE
  0
BLOCK_RECORD
  5
1B
330
1
100
AcDbSymbolTableRecord
100
AcDbBlockTableRecord
  2
*PAPER_SPACE
  0
ENDTAB
  0
ENDSEC
  0
SECTION
  2
BLOCKS
  0
BLOCK
  5
20
330
1F
100
AcDbEntity
  8
0
100
AcDbBlockBegin
  2
*MODEL_SPACE
 70
     0
 10
0.0
 20
0.0
 30
0.0
  3
*MODEL_SPACE
  1

  0
ENDBLK
  5
21
330
1F
100
AcDbEntity
  8
0
100
AcDbBlockEnd
  0
BLOCK
  5
1C
330
1B
100
AcDbEntity
 67
     1
  8
0
100
AcDbBlockBegin
  2
*PAPER_SPACE
  1

  0
ENDBLK
  5
1D
330
1B
100
AcDbEntity
 67
     1
  8
0
100
AcDbBlockEnd
  0
ENDSEC
  0
SECTION
  2
ENTITIES
  0
LWPOLYLINE
  5
100
100
AcDbEntity
  8
Layer_1
 62
7
100
AcDbPolyline
 90
2
 70
0
 10
178.132435
 20
5.132292
 30
0.0
 10
121.132455
 20
5.132292
 30
0.0
  0
LWPOLYLINE
  5
101
100
AcDbEntity
  8
Layer_1
 62
7
100
AcDbPolyline
 90
14
 70
0
 10
17.132421
 20
5.132292
 30
0.0
 10
15.566087
 20
5.234950
 30
0.0
 10
14.026477
 20
5.541179
 30
0.0
 10
12.540048
 20
6.045739
 30
0.0
 10
11.132464
 20
6.739979
 30
0.0
 10
9.827275
 20
7.612046
 30
0.0
 10
8.646969
 20
8.647017
 30
0.0
 10
7.612183
 20
9.827164
 30
0.0
 10
6.740117
 20
11.132301
 30
0.0
 10
6.045850
 20
12.540096
 30
0.0
 10
5.541290
 20
14.026472
 30
0.0
 10
5.234902
 20
15.565977
 30
0.0
 10
5.132244
 20
17.132283
 30
0.0
 10
5.132244
 20
133.132293
 30
0.0
  0
LWPOLYLINE
  5
102
100
AcDbEntity
  8
Layer_1
 62
7
100
AcDbPolyline
 90
2
 70
0
 10
5.234902
 20
134.698608
 30
0.0
 10
5.132244
 20
133.132293
 30
0.0
  0
LWPOLYLINE
  5
103
100
AcDbEntity
  8
Layer_1
 62
7
100
AcDbPolyline
 90
2
 70
0
 10
5.541290
 20
136.238123
 30
0.0
 10
5.234902
 20
134.698608
 30
0.0
  0
LWPOLYLINE
  5
104
100
AcDbEntity
  8
Layer_1
 62
7
100
AcDbPolyline
 90
2
 70
0
 10
6.045850
 20
137.724494
 30
0.0
 10
5.541290
 20
136.238123
 30
0.0
  0
LWPOLYLINE
  5
105
100
AcDbEntity
  8
Layer_1
 62
7
100
AcDbPolyline
 90
2
 70
0
 10
6.740117
 20
139.132295
 30
0.0
 10
6.045850
 20
137.724494
 30
0.0
  0
LWPOLYLINE
  5
106
100
AcDbEntity
  8
Layer_1
 62
7
100
AcDbPolyline
 90
2
 70
0
 10
7.612183
 20
140.437431
 30
0.0
 10
6.740117
 20
139.132295
 30
0.0
  0
LWPOLYLINE
  5
107
100
AcDbEntity
  8
Layer_1
 62
7
100
AcDbPolyline
 90
2
 70
0
 10
8.646969
 20
141.617576
 30
0.0
 10
7.612183
 20
140.437431
 30
0.0
  0
LWPOLYLINE
  5
108
100
AcDbEntity
  8
Layer_1
 62
7
100
AcDbPolyline
 90
2
 70
0
 10
9.827275
 20
142.652533
 30
0.0
 10
8.646969
 20
141.617576
 30
0.0
  0
LWPOLYLINE
  5
109
100
AcDbEntity
  8
Layer_1
 62
7
100
AcDbPolyline
 90
2
 70
0
 10
11.132464
 20
143.524597
 30
0.0
 10
9.827275
 20
142.652533
 30
0.0
  0
LWPOLYLINE
  5
10a
100
AcDbEntity
  8
Layer_1
 62
7
100
AcDbPolyline
 90
2
 70
0
 10
12.540048
 20
144.218848
 30
0.0
 10
11.132464
 20
143.524597
 30
0.0
  0
LWPOLYLINE
  5
10b
100
AcDbEntity
  8
Layer_1
 62
7
100
AcDbPolyline
 90
2
 70
0
 10
14.026477
 20
144.723403
 30
0.0
 10
12.540048
 20
144.218848
 30
0.0
  0
LWPOLYLINE
  5
10c
100
AcDbEntity
  8
Layer_1
 62
7
100
AcDbPolyline
 90
2
 70
0
 10
15.566087
 20
145.029632
 30
0.0
 10
14.026477
 20
144.723403
 30
0.0
  0
LWPOLYLINE
  5
10d
100
AcDbEntity
  8
Layer_1
 62
7
100
AcDbPolyline
 90
2
 70
0
 10
17.132421
 20
145.132293
 30
0.0
 10
15.566087
 20
145.029632
 30
0.0
  0
LWPOLYLINE
  5
10e
100
AcDbEntity
  8
Layer_1
 62
7
100
AcDbPolyline
 90
15
 70
0
 10
17.132421
 20
145.132293
 30
0.0
 10
178.132435
 20
145.132293
 30
0.0
 10
179.698769
 20
145.029632
 30
0.0
 10
181.238114
 20
144.723403
 30
0.0
 10
182.724544
 20
144.218848
 30
0.0
 10
184.132391
 20
143.524597
 30
0.0
 10
185.437581
 20
142.652533
 30
0.0
 10
186.617623
 20
141.617576
 30
0.0
 10
187.652673
 20
140.437431
 30
0.0
 10
188.524739
 20
139.132295
 30
0.0
 10
189.219006
 20
137.724494
 30
0.0
 10
189.723566
 20
136.238123
 30
0.0
 10
190.029689
 20
134.698608
 30
0.0
 10
190.132348
 20
133.132293
 30
0.0
 10
190.132348
 20
17.132283
 30
0.0
  0
LWPOLYLINE
  5
10f
100
AcDbEntity
  8
Layer_1
 62
7
100
AcDbPolyline
 90
2
 70
0
 10
190.029689
 20
15.565977
 30
0.0
 10
190.132348
 20
17.132283
 30
0.0
  0
LWPOLYLINE
  5
110
100
AcDbEntity
  8
Layer_1
 62
7
100
AcDbPolyline
 90
2
 70
0
 10
189.723566
 20
14.026472
 30
0.0
 10
190.029689
 20
15.565977
 30
0.0
  0
LWPOLYLINE
  5
111
100
AcDbEntity
  8
Layer_1
 62
7
100
AcDbPolyline
 90
2
 70
0
 10
189.219006
 20
12.540096
 30
0.0
 10
189.723566
 20
14.026472
 30
0.0
  0
LWPOLYLINE
  5
112
100
AcDbEntity
  8
Layer_1
 62
7
100
AcDbPolyline
 90
2
 70
0
 10
188.524739
 20
11.132301
 30
0.0
 10
189.219006
 20
12.540096
 30
0.0
  0
LWPOLYLINE
  5
113
100
AcDbEntity
  8
Layer_1
 62
7
100
AcDbPolyline
 90
2
 70
0
 10
187.652673
 20
9.827164
 30
0.0
 10
188.524739
 20
11.132301
 30
0.0
  0
LWPOLYLINE
  5
114
100
AcDbEntity
  8
Layer_1
 62
7
100
AcDbPolyline
 90
2
 70
0
 10
186.617623
 20
8.647017
 30
0.0
 10
187.652673
 20
9.827164
 30
0.0
  0
LWPOLYLINE
  5
115
100
AcDbEntity
  8
Layer_1
 62
7
100
AcDbPolyline
 90
2
 70
0
 10
185.437581
 20
7.612046
 30
0.0
 10
186.617623
 20
8.647017
 30
0.0
  0
LWPOLYLINE
  5
116
100
AcDbEntity
  8
Layer_1
 62
7
100
AcDbPolyline
 90
2
 70
0
 10
184.132391
 20
6.739979
 30
0.0
 10
185.437581
 20
7.612046
 30
0.0
  0
LWPOLYLINE
  5
117
100
AcDbEntity
  8
Layer_1
 62
7
100
AcDbPolyline
 90
2
 70
0
 10
182.724544
 20
6.045739
 30
0.0
 10
184.132391
 20
6.739979
 30
0.0
  0
LWPOLYLINE
  5
118
100
AcDbEntity
  8
Layer_1
 62
7
100
AcDbPolyline
 90
2
 70
0
 10
181.238114
 20
5.541179
 30
0.0
 10
182.724544
 20
6.045739
 30
0.0
  0
LWPOLYLINE
  5
119
100
AcDbEntity
  8
Layer_1
 62
7
100
AcDbPolyline
 90
2
 70
0
 10
179.698769
 20
5.234950
 30
0.0
 10
181.238114
 20
5.541179
 30
0.0
  0
LWPOLYLINE
  5
11a
100
AcDbEntity
  8
Layer_1
 62
7
100
AcDbPolyline
 90
2
 70
0
 10
178.132435
 20
5.132292
 30
0.0
 10
179.698769
 20
5.234950
 30
0.0
  0
LWPOLYLINE
  5
11b
100
AcDbEntity
  8
Layer_1
 62
7
100
AcDbPolyline
 90
24
 70
1
 10
17.132421
 20
136.132295
 30
0.0
 10
16.355869
 20
136.030071
 30
0.0
 10
15.632233
 20
135.730369
 30
0.0
 10
15.010991
 20
135.253614
 30
0.0
 10
14.534212
 20
134.632293
 30
0.0
 10
14.234704
 20
133.908750
 30
0.0
 10
14.132310
 20
133.132293
 30
0.0
 10
14.234704
 20
132.355837
 30
0.0
 10
14.534212
 20
131.632294
 30
0.0
 10
15.010991
 20
131.010973
 30
0.0
 10
15.632233
 20
130.534217
 30
0.0
 10
16.355869
 20
130.234516
 30
0.0
 10
17.132421
 20
130.132294
 30
0.0
 10
17.908708
 20
130.234516
 30
0.0
 10
18.632344
 20
130.534217
 30
0.0
 10
19.253585
 20
131.010973
 30
0.0
 10
19.730364
 20
131.632294
 30
0.0
 10
20.030137
 20
132.355837
 30
0.0
 10
20.132266
 20
133.132293
 30
0.0
 10
20.030137
 20
133.908750
 30
0.0
 10
19.730364
 20
134.632293
 30
0.0
 10
19.253585
 20
135.253614
 30
0.0
 10
18.632344
 20
135.730369
 30
0.0
 10
17.908708
 20
136.030071
 30
0.0
  0
LWPOLYLINE
  5
11c
100
AcDbEntity
  8
Layer_1
 62
7
100
AcDbPolyline
 90
24
 70
1
 10
18.632344
 20
19.730359
 30
0.0
 10
17.908708
 20
20.030079
 30
0.0
 10
17.132421
 20
20.132288
 30
0.0
 10
16.355869
 20
20.030079
 30
0.0
 10
15.632233
 20
19.730359
 30
0.0
 10
15.010991
 20
19.253607
 30
0.0
 10
14.534212
 20
18.632286
 30
0.0
 10
14.234704
 20
17.908756
 30
0.0
 10
14.132310
 20
17.132283
 30
0.0
 10
14.234704
 20
16.355837
 30
0.0
 10
14.534212
 20
15.632308
 30
0.0
 10
15.010991
 20
15.010987
 30
0.0
 10
15.632233
 20
14.534207
 30
0.0
 10
16.355869
 20
14.234514
 30
0.0
 10
17.132421
 20
14.132305
 30
0.0
 10
17.908708
 20
14.234514
 30
0.0
 10
18.632344
 20
14.534207
 30
0.0
 10
19.253585
 20
15.010987
 30
0.0
 10
19.730364
 20
15.632308
 30
0.0
 10
20.030137
 20
16.355837
 30
0.0
 10
20.132266
 20
17.132283
 30
0.0
 10
20.030137
 20
17.908756
 30
0.0
 10
19.730364
 20
18.632286
 30
0.0
 10
19.253585
 20
19.253607
 30
0.0
  0
LWPOLYLINE
  5
11d
100
AcDbEntity
  8
Layer_1
 62
7
100
AcDbPolyline
 90
24
 70
1
 10
181.132281
 20
17.132283
 30
0.0
 10
181.030152
 20
17.908756
 30
0.0
 10
180.730379
 20
18.632286
 30
0.0
 10
180.253600
 20
19.253607
 30
0.0
 10
179.632358
 20
19.730359
 30
0.0
 10
178.908723
 20
20.030079
 30
0.0
 10
178.132435
 20
20.132288
 30
0.0
 10
177.355883
 20
20.030079
 30
0.0
 10
176.632248
 20
19.730359
 30
0.0
 10
176.011006
 20
19.253607
 30
0.0
 10
175.534227
 20
18.632286
 30
0.0
 10
175.234454
 20
17.908756
 30
0.0
 10
175.132325
 20
17.132283
 30
0.0
 10
175.234454
 20
16.355837
 30
0.0
 10
175.534227
 20
15.632308
 30
0.0
 10
176.011006
 20
15.010987
 30
0.0
 10
176.632248
 20
14.534207
 30
0.0
 10
177.355883
 20
14.234514
 30
0.0
 10
178.132435
 20
14.132305
 30
0.0
 10
178.908723
 20
14.234514
 30
0.0
 10
179.632358
 20
14.534207
 30
0.0
 10
180.253600
 20
15.010987
 30
0.0
 10
180.730379
 20
15.632308
 30
0.0
 10
181.030152
 20
16.355837
 30
0.0
  0
LWPOLYLINE
  5
11e
100
AcDbEntity
  8
Layer_1
 62
7
100
AcDbPolyline
 90
24
 70
1
 10
175.234454
 20
132.355837
 30
0.0
 10
175.534227
 20
131.632294
 30
0.0
 10
176.011006
 20
131.010973
 30
0.0
 10
176.632248
 20
130.534217
 30
0.0
 10
177.355883
 20
130.234516
 30
0.0
 10
178.132435
 20
130.132294
 30
0.0
 10
178.908723
 20
130.234516
 30
0.0
 10
179.632358
 20
130.534217
 30
0.0
 10
180.253600
 20
131.010973
 30
0.0
 10
180.730379
 20
131.632294
 30
0.0
 10
181.030152
 20
132.355837
 30
0.0
 10
181.132281
 20
133.132293
 30
0.0
 10
181.030152
 20
133.908750
 30
0.0
 10
180.730379
 20
134.632293
 30
0.0
 10
180.253600
 20
135.253614
 30
0.0
 10
179.632358
 20
135.730369
 30
0.0
 10
178.908723
 20
136.030071
 30
0.0
 10
178.132435
 20
136.132295
 30
0.0
 10
177.355883
 20
136.030071
 30
0.0
 10
176.632248
 20
135.730369
 30
0.0
 10
176.011006
 20
135.253614
 30
0.0
 10
175.534227
 20
134.632293
 30
0.0
 10
175.234454
 20
133.908750
 30
0.0
 10
175.132325
 20
133.132293
 30
0.0
  0
LWPOLYLINE
  5
11f
100
AcDbEntity
  8
Layer_1
 62
7
100
AcDbPolyline
 90
2
 70
0
 10
121.089592
 20
5.784939
 30
0.0
 10
121.132455
 20
5.132292
 30
0.0
  0
LWPOLYLINE
  5
120
100
AcDbEntity
  8
Layer_1
 62
7
100
AcDbPolyline
 90
2
 70
0
 10
120.962063
 20
6.426395
 30
0.0
 10
121.089592
 20
5.784939
 30
0.0
  0
LWPOLYLINE
  5
121
100
AcDbEntity
  8
Layer_1
 62
7
100
AcDbPolyline
 90
2
 70
0
 10
120.751719
 20
7.045705
 30
0.0
 10
120.962063
 20
6.426395
 30
0.0
  0
LWPOLYLINE
  5
122
100
AcDbEntity
  8
Layer_1
 62
7
100
AcDbPolyline
 90
2
 70
0
 10
120.462530
 20
7.632287
 30
0.0
 10
120.751719
 20
7.045705
 30
0.0
  0
LWPOLYLINE
  5
123
100
AcDbEntity
  8
Layer_1
 62
7
100
AcDbPolyline
 90
2
 70
0
 10
120.098992
 20
8.176111
 30
0.0
 10
120.462530
 20
7.632287
 30
0.0
  0
LWPOLYLINE
  5
124
100
AcDbEntity
  8
Layer_1
 62
7
100
AcDbPolyline
 90
2
 70
0
 10
119.667986
 20
8.667839
 30
0.0
 10
120.098992
 20
8.176111
 30
0.0
  0
LWPOLYLINE
  5
125
100
AcDbEntity
  8
Layer_1
 62
7
100
AcDbPolyline
 90
2
 70
0
 10
119.176126
 20
9.099057
 30
0.0
 10
119.667986
 20
8.667839
 30
0.0
  0
LWPOLYLINE
  5
126
100
AcDbEntity
  8
Layer_1
 62
7
100
AcDbPolyline
 90
2
 70
0
 10
118.632407
 20
9.462410
 30
0.0
 10
119.176126
 20
9.099057
 30
0.0
  0
LWPOLYLINE
  5
127
100
AcDbEntity
  8
Layer_1
 62
7
100
AcDbPolyline
 90
2
 70
0
 10
118.045826
 20
9.751705
 30
0.0
 10
118.632407
 20
9.462410
 30
0.0
  0
LWPOLYLINE
  5
128
100
AcDbEntity
  8
Layer_1
 62
7
100
AcDbPolyline
 90
2
 70
0
 10
117.426436
 20
9.961916
 30
0.0
 10
118.045826
 20
9.751705
 30
0.0
  0
LWPOLYLINE
  5
129
100
AcDbEntity
  8
Layer_1
 62
7
100
AcDbPolyline
 90
2
 70
0
 10
116.785086
 20
10.089525
 30
0.0
 10
117.426436
 20
9.961916
 30
0.0
  0
LWPOLYLINE
  5
12a
100
AcDbEntity
  8
Layer_1
 62
7
100
AcDbPolyline
 90
2
 70
0
 10
116.132359
 20
10.132308
 30
0.0
 10
116.785086
 20
10.089525
 30
0.0
  0
LWPOLYLINE
  5
12b
100
AcDbEntity
  8
Layer_1
 62
7
100
AcDbPolyline
 90
14
 70
0
 10
34.132429
 20
10.132308
 30
0.0
 10
33.479702
 20
10.089525
 30
0.0
 10
32.838352
 20
9.961916
 30
0.0
 10
32.218962
 20
9.751705
 30
0.0
 10
31.632381
 20
9.462410
 30
0.0
 10
31.088662
 20
9.099057
 30
0.0
 10
30.596802
 20
8.667839
 30
0.0
 10
30.165531
 20
8.176111
 30
0.0
 10
29.802258
 20
7.632287
 30
0.0
 10
29.513068
 20
7.045705
 30
0.0
 10
29.302725
 20
6.426395
 30
0.0
 10
29.175195
 20
5.784939
 30
0.0
 10
29.132333
 20
5.132292
 30
0.0
 10
17.132421
 20
5.132292
 30
0.0
  0
LWPOLYLINE
  5
12c
100
AcDbEntity
  8
Layer_1
 62
7
100
AcDbPolyline
 90
2
 70
0
 10
37.144181
 20
101.212291
 30
0.0
 10
44.132356
 20
102.132295
 30
0.0
  0
LWPOLYLINE
  5
12d
100
AcDbEntity
  8
Layer_1
 62
7
100
AcDbPolyline
 90
2
 70
0
 10
30.632256
 20
98.514980
 30
0.0
 10
37.144181
 20
101.212291
 30
0.0
  0
LWPOLYLINE
  5
12e
100
AcDbEntity
  8
Layer_1
 62
7
100
AcDbPolyline
 90
2
 70
0
 10
25.040552
 20
94.224177
 30
0.0
 10
30.632256
 20
98.514980
 30
0.0
  0
LWPOLYLINE
  5
12f
100
AcDbEntity
  8
Layer_1
 62
7
100
AcDbPolyline
 90
2
 70
0
 10
20.749804
 20
88.632296
 30
0.0
 10
25.040552
 20
94.224177
 30
0.0
  0
LWPOLYLINE
  5
130
100
AcDbEntity
  8
Layer_1
 62
7
100
AcDbPolyline
 90
2
 70
0
 10
18.052377
 20
82.120408
 30
0.0
 10
20.749804
 20
88.632296
 30
0.0
  0
LWPOLYLINE
  5
131
100
AcDbEntity
  8
Layer_1
 62
7
100
AcDbPolyline
 90
2
 70
0
 10
17.132421
 20
75.132294
 30
0.0
 10
18.052377
 20
82.120408
 30
0.0
  0
LWPOLYLINE
  5
132
100
AcDbEntity
  8
Layer_1
 62
7
100
AcDbPolyline
 90
2
 70
0
 10
18.052377
 20
68.144180
 30
0.0
 10
17.132421
 20
75.132294
 30
0.0
  0
LWPOLYLINE
  5
133
100
AcDbEntity
  8
Layer_1
 62
7
100
AcDbPolyline
 90
2
 70
0
 10
20.749804
 20
61.632294
 30
0.0
 10
18.052377
 20
68.144180
 30
0.0
  0
LWPOLYLINE
  5
134
100
AcDbEntity
  8
Layer_1
 62
7
100
AcDbPolyline
 90
2
 70
0
 10
25.040552
 20
56.040413
 30
0.0
 10
20.749804
 20
61.632294
 30
0.0
  0
LWPOLYLINE
  5
135
100
AcDbEntity
  8
Layer_1
 62
7
100
AcDbPolyline
 90
2
 70
0
 10
30.632256
 20
51.749610
 30
0.0
 10
25.040552
 20
56.040413
 30
0.0
  0
LWPOLYLINE
  5
136
100
AcDbEntity
  8
Layer_1
 62
7
100
AcDbPolyline
 90
2
 70
0
 10
37.144181
 20
49.052299
 30
0.0
 10
30.632256
 20
51.749610
 30
0.0
  0
LWPOLYLINE
  5
137
100
AcDbEntity
  8
Layer_1
 62
7
100
AcDbPolyline
 90
2
 70
0
 10
44.132356
 20
48.132295
 30
0.0
 10
37.144181
 20
49.052299
 30
0.0
  0
LWPOLYLINE
  5
138
100
AcDbEntity
  8
Layer_1
 62
7
100
AcDbPolyline
 90
2
 70
0
 10
51.120531
 20
49.052299
 30
0.0
 10
44.132356
 20
48.132295
 30
0.0
  0
LWPOLYLINE
  5
139
100
AcDbEntity
  8
Layer_1
 62
7
100
AcDbPolyline
 90
2
 70
0
 10
57.632456
 20
51.749610
 30
0.0
 10
51.120531
 20
49.052299
 30
0.0
  0
LWPOLYLINE
  5
13a
100
AcDbEntity
  8
Layer_1
 62
7
100
AcDbPolyline
 90
2
 70
0
 10
63.224160
 20
56.040413
 30
0.0
 10
57.632456
 20
51.749610
 30
0.0
  0
LWPOLYLINE
  5
13b
100
AcDbEntity
  8
Layer_1
 62
7
100
AcDbPolyline
 90
2
 70
0
 10
67.515172
 20
61.632294
 30
0.0
 10
63.224160
 20
56.040413
 30
0.0
  0
LWPOLYLINE
  5
13c
100
AcDbEntity
  8
Layer_1
 62
7
100
AcDbPolyline
 90
2
 70
0
 10
70.212335
 20
68.144180
 30
0.0
 10
67.515172
 20
61.632294
 30
0.0
  0
LWPOLYLINE
  5
13d
100
AcDbEntity
  8
Layer_1
 62
7
100
AcDbPolyline
 90
2
 70
0
 10
71.132291
 20
75.132294
 30
0.0
 10
70.212335
 20
68.144180
 30
0.0
  0
LWPOLYLINE
  5
13e
100
AcDbEntity
  8
Layer_1
 62
7
100
AcDbPolyline
 90
2
 70
0
 10
70.212335
 20
82.120408
 30
0.0
 10
71.132291
 20
75.132294
 30
0.0
  0
LWPOLYLINE
  5
13f
100
AcDbEntity
  8
Layer_1
 62
7
100
AcDbPolyline
 90
2
 70
0
 10
67.515172
 20
88.632296
 30
0.0
 10
70.212335
 20
82.120408
 30
0.0
  0
LWPOLYLINE
  5
140
100
AcDbEntity
  8
Layer_1
 62
7
100
AcDbPolyline
 90
2
 70
0
 10
63.224160
 20
94.224177
 30
0.0
 10
67.515172
 20
88.632296
 30
0.0
  0
LWPOLYLINE
  5
141
100
AcDbEntity
  8
Layer_1
 62
7
100
AcDbPolyline
 90
2
 70
0
 10
57.632456
 20
98.514980
 30
0.0
 10
63.224160
 20
94.224177
 30
0.0
  0
LWPOLYLINE
  5
142
100
AcDbEntity
  8
Layer_1
 62
7
100
AcDbPolyline
 90
2
 70
0
 10
51.120531
 20
101.212291
 30
0.0
 10
57.632456
 20
98.514980
 30
0.0
  0
LWPOLYLINE
  5
143
100
AcDbEntity
  8
Layer_1
 62
7
100
AcDbPolyline
 90
2
 70
0
 10
44.132356
 20
102.132295
 30
0.0
 10
51.120531
 20
101.212291
 30
0.0
  0
LWPOLYLINE
  5
144
100
AcDbEntity
  8
Layer_1
 62
7
100
AcDbPolyline
 90
2
 70
0
 10
178.132435
 20
75.132294
 30
0.0
 10
177.212479
 20
68.144180
 30
0.0
  0
LWPOLYLINE
  5
145
100
AcDbEntity
  8
Layer_1
 62
7
100
AcDbPolyline
 90
2
 70
0
 10
177.212479
 20
82.120408
 30
0.0
 10
178.132435
 20
75.132294
 30
0.0
  0
LWPOLYLINE
  5
146
100
AcDbEntity
  8
Layer_1
 62
7
100
AcDbPolyline
 90
2
 70
0
 10
174.515052
 20
88.632296
 30
0.0
 10
177.212479
 20
82.120408
 30
0.0
  0
LWPOLYLINE
  5
147
100
AcDbEntity
  8
Layer_1
 62
7
100
AcDbPolyline
 90
2
 70
0
 10
170.224304
 20
94.224177
 30
0.0
 10
174.515052
 20
88.632296
 30
0.0
  0
LWPOLYLINE
  5
148
100
AcDbEntity
  8
Layer_1
 62
7
100
AcDbPolyline
 90
2
 70
0
 10
164.632335
 20
98.514980
 30
0.0
 10
170.224304
 20
94.224177
 30
0.0
  0
LWPOLYLINE
  5
149
100
AcDbEntity
  8
Layer_1
 62
7
100
AcDbPolyline
 90
2
 70
0
 10
158.120411
 20
101.212291
 30
0.0
 10
164.632335
 20
98.514980
 30
0.0
  0
LWPOLYLINE
  5
14a
100
AcDbEntity
  8
Layer_1
 62
7
100
AcDbPolyline
 90
2
 70
0
 10
151.132236
 20
102.132295
 30
0.0
 10
158.120411
 20
101.212291
 30
0.0
  0
LWPOLYLINE
  5
14b
100
AcDbEntity
  8
Layer_1
 62
7
100
AcDbPolyline
 90
2
 70
0
 10
144.144325
 20
101.212291
 30
0.0
 10
151.132236
 20
102.132295
 30
0.0
  0
LWPOLYLINE
  5
14c
100
AcDbEntity
  8
Layer_1
 62
7
100
AcDbPolyline
 90
2
 70
0
 10
137.632400
 20
98.514980
 30
0.0
 10
144.144325
 20
101.212291
 30
0.0
  0
LWPOLYLINE
  5
14d
100
AcDbEntity
  8
Layer_1
 62
7
100
AcDbPolyline
 90
2
 70
0
 10
132.040432
 20
94.224177
 30
0.0
 10
137.632400
 20
98.514980
 30
0.0
  0
LWPOLYLINE
  5
14e
100
AcDbEntity
  8
Layer_1
 62
7
100
AcDbPolyline
 90
2
 70
0
 10
127.749684
 20
88.632296
 30
0.0
 10
132.040432
 20
94.224177
 30
0.0
  0
LWPOLYLINE
  5
14f
100
AcDbEntity
  8
Layer_1
 62
7
100
AcDbPolyline
 90
2
 70
0
 10
125.052257
 20
82.120408
 30
0.0
 10
127.749684
 20
88.632296
 30
0.0
  0
LWPOLYLINE
  5
150
100
AcDbEntity
  8
Layer_1
 62
7
100
AcDbPolyline
 90
2
 70
0
 10
124.132301
 20
75.132294
 30
0.0
 10
125.052257
 20
82.120408
 30
0.0
  0
LWPOLYLINE
  5
151
100
AcDbEntity
  8
Layer_1
 62
7
100
AcDbPolyline
 90
2
 70
0
 10
125.052257
 20
68.144180
 30
0.0
 10
124.132301
 20
75.132294
 30
0.0
  0
LWPOLYLINE
  5
152
100
AcDbEntity
  8
Layer_1
 62
7
100
AcDbPolyline
 90
2
 70
0
 10
127.749684
 20
61.632294
 30
0.0
 10
125.052257
 20
68.144180
 30
0.0
  0
LWPOLYLINE
  5
153
100
AcDbEntity
  8
Layer_1
 62
7
100
AcDbPolyline
 90
2
 70
0
 10
132.040432
 20
56.040413
 30
0.0
 10
127.749684
 20
61.632294
 30
0.0
  0
LWPOLYLINE
  5
154
100
AcDbEntity
  8
Layer_1
 62
7
100
AcDbPolyline
 90
2
 70
0
 10
137.632400
 20
51.749610
 30
0.0
 10
132.040432
 20
56.040413
 30
0.0
  0
LWPOLYLINE
  5
155
100
AcDbEntity
  8
Layer_1
 62
7
100
AcDbPolyline
 90
2
 70
0
 10
144.144325
 20
49.052299
 30
0.0
 10
137.632400
 20
51.749610
 30
0.0
  0
LWPOLYLINE
  5
156
100
AcDbEntity
  8
Layer_1
 62
7
100
AcDbPolyline
 90
2
 70
0
 10
151.132236
 20
48.132295
 30
0.0
 10
144.144325
 20
49.052299
 30
0.0
  0
LWPOLYLINE
  5
157
100
AcDbEntity
  8
Layer_1
 62
7
100
AcDbPolyline
 90
2
 70
0
 10
158.120411
 20
49.052299
 30
0.0
 10
151.132236
 20
48.132295
 30
0.0
  0
LWPOLYLINE
  5
158
100
AcDbEntity
  8
Layer_1
 62
7
100
AcDbPolyline
 90
2
 70
0
 10
164.632335
 20
51.749610
 30
0.0
 10
158.120411
 20
49.052299
 30
0.0
  0
LWPOLYLINE
  5
159
100
AcDbEntity
  8
Layer_1
 62
7
100
AcDbPolyline
 90
2
 70
0
 10
170.224304
 20
56.040413
 30
0.0
 10
164.632335
 20
51.749610
 30
0.0
  0
LWPOLYLINE
  5
15a
100
AcDbEntity
  8
Layer_1
 62
7
100
AcDbPolyline
 90
2
 70
0
 10
174.515052
 20
61.632294
 30
0.0
 10
170.224304
 20
56.040413
 30
0.0
  0
LWPOLYLINE
  5
15b
100
AcDbEntity
  8
Layer_1
 62
7
100
AcDbPolyline
 90
2
 70
0
 10
177.212479
 20
68.144180
 30
0.0
 10
174.515052
 20
61.632294
 30
0.0
  0
LWPOLYLINE
  5
15c
100
AcDbEntity
  8
Layer_1
 62
7
100
AcDbPolyline
 90
2
 70
0
 10
34.132429
 20
10.132308
 30
0.0
 10
116.132359
 20
10.132308
 30
0.0
  0
LWPOLYLINE
  5
15d
100
AcDbEntity
  8
Layer_1
 62
7
100
AcDbPolyline
 90
2
 70
0
 10
153.132486
 20
72.917882
 30
0.0
 10
153.132486
 20
55.395600
 30
0.0
  0
LWPOLYLINE
  5
15e
100
AcDbEntity
  8
Layer_1
 62
7
100
AcDbPolyline
 90
2
 70
0
 10
157.861648
 20
100.246366
 30
0.0
 10
164.132273
 20
97.648954
 30
0.0
  0
LWPOLYLINE
  5
15f
100
AcDbEntity
  8
Layer_1
 62
7
100
AcDbPolyline
 90
2
 70
0
 10
169.517073
 20
56.747517
 30
0.0
 10
164.132273
 20
52.615633
 30
0.0
  0
LWPOLYLINE
  5
160
100
AcDbEntity
  8
Layer_1
 62
7
100
AcDbPolyline
 90
2
 70
0
 10
170.450787
 20
69.955914
 30
0.0
 10
170.869094
 20
73.132295
 30
0.0
  0
LWPOLYLINE
  5
161
100
AcDbEntity
  8
Layer_1
 62
7
100
AcDbPolyline
 90
2
 70
0
 10
151.132236
 20
101.132294
 30
0.0
 10
157.861648
 20
100.246366
 30
0.0
  0
LWPOLYLINE
  5
162
100
AcDbEntity
  8
Layer_1
 62
7
100
AcDbPolyline
 90
3
 70
0
 10
176.246485
 20
68.403000
 30
0.0
 10
173.649071
 20
62.132296
 30
0.0
 10
169.517073
 20
56.747517
 30
0.0
  0
LWPOLYLINE
  5
163
100
AcDbEntity
  8
Layer_1
 62
7
100
AcDbPolyline
 90
3
 70
0
 10
128.615665
 20
62.132296
 30
0.0
 10
126.018251
 20
68.403000
 30
0.0
 10
125.132426
 20
75.132294
 30
0.0
  0
LWPOLYLINE
  5
164
100
AcDbEntity
  8
Layer_1
 62
7
100
AcDbPolyline
 90
2
 70
0
 10
148.917938
 20
73.132295
 30
0.0
 10
149.011071
 20
73.010976
 30
0.0
  0
LWPOLYLINE
  5
165
100
AcDbEntity
  8
Layer_1
 62
7
100
AcDbPolyline
 90
2
 70
0
 10
148.917938
 20
73.132295
 30
0.0
 10
131.395642
 20
73.132295
 30
0.0
  0
LWPOLYLINE
  5
166
100
AcDbEntity
  8
Layer_1
 62
7
100
AcDbPolyline
 90
2
 70
0
 10
176.246485
 20
81.861590
 30
0.0
 10
177.132310
 20
75.132294
 30
0.0
  0
LWPOLYLINE
  5
167
100
AcDbEntity
  8
Layer_1
 62
7
100
AcDbPolyline
 90
2
 70
0
 10
153.346798
 20
73.132295
 30
0.0
 10
170.869094
 20
73.132295
 30
0.0
  0
LWPOLYLINE
  5
168
100
AcDbEntity
  8
Layer_1
 62
7
100
AcDbPolyline
 90
2
 70
0
 10
144.403088
 20
100.246366
 30
0.0
 10
151.132236
 20
101.132294
 30
0.0
  0
LWPOLYLINE
  5
169
100
AcDbEntity
  8
Layer_1
 62
7
100
AcDbPolyline
 90
2
 70
0
 10
177.132310
 20
75.132294
 30
0.0
 10
176.246485
 20
68.403000
 30
0.0
  0
LWPOLYLINE
  5
16a
100
AcDbEntity
  8
Layer_1
 62
7
100
AcDbPolyline
 90
2
 70
0
 10
173.649071
 20
88.132294
 30
0.0
 10
176.246485
 20
81.861590
 30
0.0
  0
LWPOLYLINE
  5
16b
100
AcDbEntity
  8
Layer_1
 62
7
100
AcDbPolyline
 90
2
 70
0
 10
131.813948
 20
69.955914
 30
0.0
 10
133.811817
 20
65.132295
 30
0.0
  0
LWPOLYLINE
  5
16c
100
AcDbEntity
  8
Layer_1
 62
7
100
AcDbPolyline
 90
3
 70
0
 10
126.018251
 20
81.861590
 30
0.0
 10
128.615665
 20
88.132294
 30
0.0
 10
132.747663
 20
93.517070
 30
0.0
  0
LWPOLYLINE
  5
16d
100
AcDbEntity
  8
Layer_1
 62
7
100
AcDbPolyline
 90
2
 70
0
 10
125.132426
 20
75.132294
 30
0.0
 10
126.018251
 20
81.861590
 30
0.0
  0
LWPOLYLINE
  5
16e
100
AcDbEntity
  8
Layer_1
 62
7
100
AcDbPolyline
 90
2
 70
0
 10
153.253665
 20
73.010976
 30
0.0
 10
153.346798
 20
73.132295
 30
0.0
  0
LWPOLYLINE
  5
16f
100
AcDbEntity
  8
Layer_1
 62
7
100
AcDbPolyline
 90
2
 70
0
 10
153.132486
 20
72.917882
 30
0.0
 10
153.253665
 20
73.010976
 30
0.0
  0
LWPOLYLINE
  5
170
100
AcDbEntity
  8
Layer_1
 62
7
100
AcDbPolyline
 90
2
 70
0
 10
153.132486
 20
77.346708
 30
0.0
 10
153.132486
 20
94.868990
 30
0.0
  0
LWPOLYLINE
  5
171
100
AcDbEntity
  8
Layer_1
 62
7
100
AcDbPolyline
 90
2
 70
0
 10
153.253665
 20
77.253614
 30
0.0
 10
153.132486
 20
77.346708
 30
0.0
  0
LWPOLYLINE
  5
172
100
AcDbEntity
  8
Layer_1
 62
7
100
AcDbPolyline
 90
2
 70
0
 10
153.346798
 20
77.132295
 30
0.0
 10
153.253665
 20
77.253614
 30
0.0
  0
LWPOLYLINE
  5
173
100
AcDbEntity
  8
Layer_1
 62
7
100
AcDbPolyline
 90
5
 70
0
 10
153.346798
 20
77.132295
 30
0.0
 10
170.869094
 20
77.132295
 30
0.0
 10
170.450787
 20
80.308676
 30
0.0
 10
168.452919
 20
85.132295
 30
0.0
 10
165.274479
 20
89.274431
 30
0.0
  0
LWPOLYLINE
  5
174
100
AcDbEntity
  8
Layer_1
 62
7
100
AcDbPolyline
 90
6
 70
0
 10
153.132486
 20
55.395600
 30
0.0
 10
156.308808
 20
55.813779
 30
0.0
 10
161.132427
 20
57.811788
 30
0.0
 10
165.274479
 20
60.990159
 30
0.0
 10
168.452919
 20
65.132295
 30
0.0
 10
170.450787
 20
69.955914
 30
0.0
  0
LWPOLYLINE
  5
175
100
AcDbEntity
  8
Layer_1
 62
7
100
AcDbPolyline
 90
2
 70
0
 10
156.308808
 20
94.450811
 30
0.0
 10
153.132486
 20
94.868990
 30
0.0
  0
LWPOLYLINE
  5
176
100
AcDbEntity
  8
Layer_1
 62
7
100
AcDbPolyline
 90
3
 70
0
 10
164.132273
 20
97.648954
 30
0.0
 10
169.517073
 20
93.517070
 30
0.0
 10
173.649071
 20
88.132294
 30
0.0
  0
LWPOLYLINE
  5
177
100
AcDbEntity
  8
Layer_1
 62
7
100
AcDbPolyline
 90
7
 70
0
 10
164.132273
 20
52.615633
 30
0.0
 10
157.861648
 20
50.018224
 30
0.0
 10
151.132236
 20
49.132296
 30
0.0
 10
144.403088
 20
50.018224
 30
0.0
 10
138.132463
 20
52.615633
 30
0.0
 10
132.747663
 20
56.747517
 30
0.0
 10
128.615665
 20
62.132296
 30
0.0
  0
LWPOLYLINE
  5
178
100
AcDbEntity
  8
Layer_1
 62
7
100
AcDbPolyline
 90
3
 70
0
 10
132.747663
 20
93.517070
 30
0.0
 10
138.132463
 20
97.648954
 30
0.0
 10
144.403088
 20
100.246366
 30
0.0
  0
LWPOLYLINE
  5
179
100
AcDbEntity
  8
Layer_1
 62
7
100
AcDbPolyline
 90
8
 70
0
 10
149.132250
 20
77.346708
 30
0.0
 10
149.132250
 20
94.868990
 30
0.0
 10
145.955927
 20
94.450811
 30
0.0
 10
141.132309
 20
92.452802
 30
0.0
 10
136.990257
 20
89.274431
 30
0.0
 10
133.811817
 20
85.132295
 30
0.0
 10
131.813948
 20
80.308676
 30
0.0
 10
131.395642
 20
77.132295
 30
0.0
  0
LWPOLYLINE
  5
17a
100
AcDbEntity
  8
Layer_1
 62
7
100
AcDbPolyline
 90
2
 70
0
 10
148.917938
 20
77.132295
 30
0.0
 10
131.395642
 20
77.132295
 30
0.0
  0
LWPOLYLINE
  5
17b
100
AcDbEntity
  8
Layer_1
 62
7
100
AcDbPolyline
 90
2
 70
0
 10
149.011071
 20
77.253614
 30
0.0
 10
148.917938
 20
77.132295
 30
0.0
  0
LWPOLYLINE
  5
17c
100
AcDbEntity
  8
Layer_1
 62
7
100
AcDbPolyline
 90
2
 70
0
 10
149.132250
 20
77.346708
 30
0.0
 10
149.011071
 20
77.253614
 30
0.0
  0
LWPOLYLINE
  5
17d
100
AcDbEntity
  8
Layer_1
 62
7
100
AcDbPolyline
 90
2
 70
0
 10
149.132250
 20
72.917882
 30
0.0
 10
149.132250
 20
55.395600
 30
0.0
  0
LWPOLYLINE
  5
17e
100
AcDbEntity
  8
Layer_1
 62
7
100
AcDbPolyline
 90
2
 70
0
 10
149.011071
 20
73.010976
 30
0.0
 10
149.132250
 20
72.917882
 30
0.0
  0
LWPOLYLINE
  5
17f
100
AcDbEntity
  8
Layer_1
 62
7
100
AcDbPolyline
 90
2
 70
0
 10
131.395642
 20
73.132295
 30
0.0
 10
131.813948
 20
69.955914
 30
0.0
  0
LWPOLYLINE
  5
180
100
AcDbEntity
  8
Layer_1
 62
7
100
AcDbPolyline
 90
5
 70
0
 10
133.811817
 20
65.132295
 30
0.0
 10
136.990257
 20
60.990159
 30
0.0
 10
141.132309
 20
57.811788
 30
0.0
 10
145.955927
 20
55.813779
 30
0.0
 10
149.132250
 20
55.395600
 30
0.0
  0
LWPOLYLINE
  5
181
100
AcDbEntity
  8
Layer_1
 62
7
100
AcDbPolyline
 90
3
 70
0
 10
165.274479
 20
89.274431
 30
0.0
 10
161.132427
 20
92.452802
 30
0.0
 10
156.308808
 20
94.450811
 30
0.0
  0
LWPOLYLINE
  5
182
100
AcDbEntity
  8
Layer_1
 62
7
100
AcDbPolyline
 90
24
 70
1
 10
37.402943
 20
100.246366
 30
0.0
 10
44.132356
 20
101.132294
 30
0.0
 10
50.861768
 20
100.246366
 30
0.0
 10
57.132393
 20
97.648954
 30
0.0
 10
62.517193
 20
93.517070
 30
0.0
 10
66.648926
 20
88.132294
 30
0.0
 10
69.246341
 20
81.861590
 30
0.0
 10
70.132430
 20
75.132294
 30
0.0
 10
69.246341
 20
68.403000
 30
0.0
 10
66.648926
 20
62.132296
 30
0.0
 10
62.517193
 20
56.747517
 30
0.0
 10
57.132393
 20
52.615633
 30
0.0
 10
50.861768
 20
50.018224
 30
0.0
 10
44.132356
 20
49.132296
 30
0.0
 10
37.402943
 20
50.018224
 30
0.0
 10
31.132318
 20
52.615633
 30
0.0
 10
25.747518
 20
56.747517
 30
0.0
 10
21.615785
 20
62.132296
 30
0.0
 10
19.018371
 20
68.403000
 30
0.0
 10
18.132281
 20
75.132294
 30
0.0
 10
19.018371
 20
81.861590
 30
0.0
 10
21.615785
 20
88.132294
 30
0.0
 10
25.747518
 20
93.517070
 30
0.0
 10
31.132318
 20
97.648954
 30
0.0
  0
LWPOLYLINE
  5
183
100
AcDbEntity
  8
Layer_1
 62
7
100
AcDbPolyline
 90
8
 70
0
 10
42.132370
 20
77.346708
 30
0.0
 10
42.132370
 20
94.868990
 30
0.0
 10
38.956047
 20
94.450811
 30
0.0
 10
34.132429
 20
92.452802
 30
0.0
 10
29.990112
 20
89.274431
 30
0.0
 10
26.811937
 20
85.132295
 30
0.0
 10
24.813804
 20
80.308676
 30
0.0
 10
24.395762
 20
77.132295
 30
0.0
  0
LWPOLYLINE
  5
184
100
AcDbEntity
  8
Layer_1
 62
7
100
AcDbPolyline
 90
2
 70
0
 10
41.918058
 20
77.132295
 30
0.0
 10
24.395762
 20
77.132295
 30
0.0
  0
LWPOLYLINE
  5
185
100
AcDbEntity
  8
Layer_1
 62
7
100
AcDbPolyline
 90
2
 70
0
 10
42.010927
 20
77.253614
 30
0.0
 10
41.918058
 20
77.132295
 30
0.0
  0
LWPOLYLINE
  5
186
100
AcDbEntity
  8
Layer_1
 62
7
100
AcDbPolyline
 90
2
 70
0
 10
42.132370
 20
77.346708
 30
0.0
 10
42.010927
 20
77.253614
 30
0.0
  0
LWPOLYLINE
  5
187
100
AcDbEntity
  8
Layer_1
 62
7
100
AcDbPolyline
 90
2
 70
0
 10
42.132370
 20
72.917882
 30
0.0
 10
42.132370
 20
55.395600
 30
0.0
  0
LWPOLYLINE
  5
188
100
AcDbEntity
  8
Layer_1
 62
7
100
AcDbPolyline
 90
2
 70
0
 10
42.010927
 20
73.010976
 30
0.0
 10
42.132370
 20
72.917882
 30
0.0
  0
LWPOLYLINE
  5
189
100
AcDbEntity
  8
Layer_1
 62
7
100
AcDbPolyline
 90
2
 70
0
 10
41.918058
 20
73.132295
 30
0.0
 10
42.010927
 20
73.010976
 30
0.0
  0
LWPOLYLINE
  5
18a
100
AcDbEntity
  8
Layer_1
 62
7
100
AcDbPolyline
 90
8
 70
0
 10
41.918058
 20
73.132295
 30
0.0
 10
24.395762
 20
73.132295
 30
0.0
 10
24.813804
 20
69.955914
 30
0.0
 10
26.811937
 20
65.132295
 30
0.0
 10
29.990112
 20
60.990159
 30
0.0
 10
34.132429
 20
57.811788
 30
0.0
 10
38.956047
 20
55.813779
 30
0.0
 10
42.132370
 20
55.395600
 30
0.0
  0
LWPOLYLINE
  5
18b
100
AcDbEntity
  8
Layer_1
 62
7
100
AcDbPolyline
 90
2
 70
0
 10
63.450908
 20
69.955914
 30
0.0
 10
63.868949
 20
73.132295
 30
0.0
  0
LWPOLYLINE
  5
18c
100
AcDbEntity
  8
Layer_1
 62
7
100
AcDbPolyline
 90
2
 70
0
 10
46.346654
 20
73.132295
 30
0.0
 10
63.868949
 20
73.132295
 30
0.0
  0
LWPOLYLINE
  5
18d
100
AcDbEntity
  8
Layer_1
 62
7
100
AcDbPolyline
 90
2
 70
0
 10
46.253785
 20
73.010976
 30
0.0
 10
46.346654
 20
73.132295
 30
0.0
  0
LWPOLYLINE
  5
18e
100
AcDbEntity
  8
Layer_1
 62
7
100
AcDbPolyline
 90
2
 70
0
 10
46.132341
 20
72.917882
 30
0.0
 10
46.253785
 20
73.010976
 30
0.0
  0
LWPOLYLINE
  5
18f
100
AcDbEntity
  8
Layer_1
 62
7
100
AcDbPolyline
 90
7
 70
0
 10
46.132341
 20
72.917882
 30
0.0
 10
46.132341
 20
55.395600
 30
0.0
 10
49.308664
 20
55.813779
 30
0.0
 10
54.132283
 20
57.811788
 30
0.0
 10
58.274599
 20
60.990159
 30
0.0
 10
61.452774
 20
65.132295
 30
0.0
 10
63.450908
 20
69.955914
 30
0.0
  0
LWPOLYLINE
  5
190
100
AcDbEntity
  8
Layer_1
 62
7
100
AcDbPolyline
 90
2
 70
0
 10
49.308664
 20
94.450811
 30
0.0
 10
46.132341
 20
94.868990
 30
0.0
  0
LWPOLYLINE
  5
191
100
AcDbEntity
  8
Layer_1
 62
7
100
AcDbPolyline
 90
2
 70
0
 10
46.132341
 20
77.346708
 30
0.0
 10
46.132341
 20
94.868990
 30
0.0
  0
LWPOLYLINE
  5
192
100
AcDbEntity
  8
Layer_1
 62
7
100
AcDbPolyline
 90
2
 70
0
 10
46.253785
 20
77.253614
 30
0.0
 10
46.132341
 20
77.346708
 30
0.0
  0
LWPOLYLINE
  5
193
100
AcDbEntity
  8
Layer_1
 62
7
100
AcDbPolyline
 90
2
 70
0
 10
46.346654
 20
77.132295
 30
0.0
 10
46.253785
 20
77.253614
 30
0.0
  0
LWPOLYLINE
  5
194
100
AcDbEntity
  8
Layer_1
 62
7
100
AcDbPolyline
 90
7
 70
0
 10
46.346654
 20
77.132295
 30
0.0
 10
63.868949
 20
77.132295
 30
0.0
 10
63.450908
 20
80.308676
 30
0.0
 10
61.452774
 20
85.132295
 30
0.0
 10
58.274599
 20
89.274431
 30
0.0
 10
54.132283
 20
92.452802
 30
0.0
 10
49.308664
 20
94.450811
 30
0.0
  0
LWPOLYLINE
  5
195
100
AcDbEntity
  8
Layer_1
 62
7
100
AcDbPolyline
 90
2
 70
0
 10
373.132300
 20
5.132292
 30
0.0
 10
212.132286
 20
5.132292
 30
0.0
  0
LWPOLYLINE
  5
196
100
AcDbEntity
  8
Layer_1
 62
7
100
AcDbPolyline
 90
2
 70
0
 10
385.132292
 20
133.132293
 30
0.0
 10
385.132292
 20
17.132283
 30
0.0
  0
LWPOLYLINE
  5
197
100
AcDbEntity
  8
Layer_1
 62
7
100
AcDbPolyline
 90
2
 70
0
 10
212.132286
 20
145.132293
 30
0.0
 10
373.132300
 20
145.132293
 30
0.0
  0
LWPOLYLINE
  5
198
100
AcDbEntity
  8
Layer_1
 62
7
100
AcDbPolyline
 90
2
 70
0
 10
200.132294
 20
17.132283
 30
0.0
 10
200.132294
 20
133.132293
 30
0.0
  0
LWPOLYLINE
  5
199
100
AcDbEntity
  8
Layer_1
 62
7
100
AcDbPolyline
 90
13
 70
0
 10
212.132286
 20
5.132292
 30
0.0
 10
210.565979
 20
5.234950
 30
0.0
 10
209.026474
 20
5.541179
 30
0.0
 10
207.540098
 20
6.045739
 30
0.0
 10
206.132303
 20
6.739979
 30
0.0
 10
204.827166
 20
7.612046
 30
0.0
 10
203.647019
 20
8.647017
 30
0.0
 10
202.612048
 20
9.827164
 30
0.0
 10
201.739982
 20
11.132301
 30
0.0
 10
201.045741
 20
12.540096
 30
0.0
 10
200.541181
 20
14.026472
 30
0.0
 10
200.234952
 20
15.565977
 30
0.0
 10
200.132294
 20
17.132283
 30
0.0
  0
LWPOLYLINE
  5
19a
100
AcDbEntity
  8
Layer_1
 62
7
100
AcDbPolyline
 90
13
 70
0
 10
373.132300
 20
5.132292
 30
0.0
 10
374.698607
 20
5.234950
 30
0.0
 10
376.238112
 20
5.541179
 30
0.0
 10
377.724488
 20
6.045739
 30
0.0
 10
379.132283
 20
6.739979
 30
0.0
 10
380.437419
 20
7.612046
 30
0.0
 10
381.617567
 20
8.647017
 30
0.0
 10
382.652538
 20
9.827164
 30
0.0
 10
383.524604
 20
11.132301
 30
0.0
 10
384.218844
 20
12.540096
 30
0.0
 10
384.723405
 20
14.026472
 30
0.0
 10
385.029634
 20
15.565977
 30
0.0
 10
385.132292
 20
17.132283
 30
0.0
  0
LWPOLYLINE
  5
19b
100
AcDbEntity
  8
Layer_1
 62
7
100
AcDbPolyline
 90
13
 70
0
 10
373.132300
 20
145.132293
 30
0.0
 10
374.698607
 20
145.029632
 30
0.0
 10
376.238112
 20
144.723403
 30
0.0
 10
377.724488
 20
144.218848
 30
0.0
 10
379.132283
 20
143.524597
 30
0.0
 10
380.437419
 20
142.652533
 30
0.0
 10
381.617567
 20
141.617576
 30
0.0
 10
382.652538
 20
140.437431
 30
0.0
 10
383.524604
 20
139.132295
 30
0.0
 10
384.218844
 20
137.724494
 30
0.0
 10
384.723405
 20
136.238123
 30
0.0
 10
385.029634
 20
134.698608
 30
0.0
 10
385.132292
 20
133.132293
 30
0.0
  0
LWPOLYLINE
  5
19c
100
AcDbEntity
  8
Layer_1
 62
7
100
AcDbPolyline
 90
13
 70
0
 10
212.132286
 20
145.132293
 30
0.0
 10
210.565979
 20
145.029632
 30
0.0
 10
209.026474
 20
144.723403
 30
0.0
 10
207.540098
 20
144.218848
 30
0.0
 10
206.132303
 20
143.524597
 30
0.0
 10
204.827166
 20
142.652533
 30
0.0
 10
203.647019
 20
141.617576
 30
0.0
 10
202.612048
 20
140.437431
 30
0.0
 10
201.739982
 20
139.132295
 30
0.0
 10
201.045741
 20
137.724494
 30
0.0
 10
200.541181
 20
136.238123
 30
0.0
 10
200.234952
 20
134.698608
 30
0.0
 10
200.132294
 20
133.132293
 30
0.0
  0
LWPOLYLINE
  5
19d
100
AcDbEntity
  8
Layer_1
 62
7
100
AcDbPolyline
 90
24
 70
1
 10
212.132286
 20
136.132295
 30
0.0
 10
211.355839
 20
136.030071
 30
0.0
 10
210.632283
 20
135.730369
 30
0.0
 10
210.010962
 20
135.253614
 30
0.0
 10
209.534210
 20
134.632293
 30
0.0
 10
209.234516
 20
133.908750
 30
0.0
 10
209.132281
 20
133.132293
 30
0.0
 10
209.234516
 20
132.355837
 30
0.0
 10
209.534210
 20
131.632294
 30
0.0
 10
210.010962
 20
131.010973
 30
0.0
 10
210.632283
 20
130.534217
 30
0.0
 10
211.355839
 20
130.234516
 30
0.0
 10
212.132286
 20
130.132294
 30
0.0
 10
212.908758
 20
130.234516
 30
0.0
 10
213.632288
 20
130.534217
 30
0.0
 10
214.253609
 20
131.010973
 30
0.0
 10
214.730362
 20
131.632294
 30
0.0
 10
215.030082
 20
132.355837
 30
0.0
 10
215.132290
 20
133.132293
 30
0.0
 10
215.030082
 20
133.908750
 30
0.0
 10
214.730362
 20
134.632293
 30
0.0
 10
214.253609
 20
135.253614
 30
0.0
 10
213.632288
 20
135.730369
 30
0.0
 10
212.908758
 20
136.030071
 30
0.0
  0
LWPOLYLINE
  5
19e
100
AcDbEntity
  8
Layer_1
 62
7
100
AcDbPolyline
 90
24
 70
1
 10
213.632288
 20
19.730359
 30
0.0
 10
212.908758
 20
20.030079
 30
0.0
 10
212.132286
 20
20.132288
 30
0.0
 10
211.355839
 20
20.030079
 30
0.0
 10
210.632283
 20
19.730359
 30
0.0
 10
210.010962
 20
19.253607
 30
0.0
 10
209.534210
 20
18.632286
 30
0.0
 10
209.234516
 20
17.908756
 30
0.0
 10
209.132281
 20
17.132283
 30
0.0
 10
209.234516
 20
16.355837
 30
0.0
 10
209.534210
 20
15.632308
 30
0.0
 10
210.010962
 20
15.010987
 30
0.0
 10
210.632283
 20
14.534207
 30
0.0
 10
211.355839
 20
14.234514
 30
0.0
 10
212.132286
 20
14.132305
 30
0.0
 10
212.908758
 20
14.234514
 30
0.0
 10
213.632288
 20
14.534207
 30
0.0
 10
214.253609
 20
15.010987
 30
0.0
 10
214.730362
 20
15.632308
 30
0.0
 10
215.030082
 20
16.355837
 30
0.0
 10
215.132290
 20
17.132283
 30
0.0
 10
215.030082
 20
17.908756
 30
0.0
 10
214.730362
 20
18.632286
 30
0.0
 10
214.253609
 20
19.253607
 30
0.0
  0
LWPOLYLINE
  5
19f
100
AcDbEntity
  8
Layer_1
 62
7
100
AcDbPolyline
 90
24
 70
1
 10
376.132278
 20
17.132283
 30
0.0
 10
376.030070
 20
17.908756
 30
0.0
 10
375.730376
 20
18.632286
 30
0.0
 10
375.253597
 20
19.253607
 30
0.0
 10
374.632302
 20
19.730359
 30
0.0
 10
373.908746
 20
20.030079
 30
0.0
 10
373.132300
 20
20.132288
 30
0.0
 10
372.355828
 20
20.030079
 30
0.0
 10
371.632298
 20
19.730359
 30
0.0
 10
371.010977
 20
19.253607
 30
0.0
 10
370.534224
 20
18.632286
 30
0.0
 10
370.234504
 20
17.908756
 30
0.0
 10
370.132296
 20
17.132283
 30
0.0
 10
370.234504
 20
16.355837
 30
0.0
 10
370.534224
 20
15.632308
 30
0.0
 10
371.010977
 20
15.010987
 30
0.0
 10
371.632298
 20
14.534207
 30
0.0
 10
372.355828
 20
14.234514
 30
0.0
 10
373.132300
 20
14.132305
 30
0.0
 10
373.908746
 20
14.234514
 30
0.0
 10
374.632302
 20
14.534207
 30
0.0
 10
375.253597
 20
15.010987
 30
0.0
 10
375.730376
 20
15.632308
 30
0.0
 10
376.030070
 20
16.355837
 30
0.0
  0
LWPOLYLINE
  5
1a0
100
AcDbEntity
  8
Layer_1
 62
7
100
AcDbPolyline
 90
24
 70
1
 10
370.234504
 20
132.355837
 30
0.0
 10
370.534224
 20
131.632294
 30
0.0
 10
371.010977
 20
131.010973
 30
0.0
 10
371.632298
 20
130.534217
 30
0.0
 10
372.355828
 20
130.234516
 30
0.0
 10
373.132300
 20
130.132294
 30
0.0
 10
373.908746
 20
130.234516
 30
0.0
 10
374.632302
 20
130.534217
 30
0.0
 10
375.253597
 20
131.010973
 30
0.0
 10
375.730376
 20
131.632294
 30
0.0
 10
376.030070
 20
132.355837
 30
0.0
 10
376.132278
 20
133.132293
 30
0.0
 10
376.030070
 20
133.908750
 30
0.0
 10
375.730376
 20
134.632293
 30
0.0
 10
375.253597
 20
135.253614
 30
0.0
 10
374.632302
 20
135.730369
 30
0.0
 10
373.908746
 20
136.030071
 30
0.0
 10
373.132300
 20
136.132295
 30
0.0
 10
372.355828
 20
136.030071
 30
0.0
 10
371.632298
 20
135.730369
 30
0.0
 10
371.010977
 20
135.253614
 30
0.0
 10
370.534224
 20
134.632293
 30
0.0
 10
370.234504
 20
133.908750
 30
0.0
 10
370.132296
 20
133.132293
 30
0.0
  0
LWPOLYLINE
  5
1a1
100
AcDbEntity
  8
Layer_1
 62
7
100
AcDbPolyline
 90
2
 70
0
 10
232.132298
 20
50.132294
 30
0.0
 10
256.132282
 20
50.132294
 30
0.0
  0
LWPOLYLINE
  5
1a2
100
AcDbEntity
  8
Layer_1
 62
7
100
AcDbPolyline
 90
2
 70
0
 10
232.132298
 20
47.132294
 30
0.0
 10
256.132282
 20
47.132294
 30
0.0
  0
LWPOLYLINE
  5
1a3
100
AcDbEntity
  8
Layer_1
 62
7
100
AcDbPolyline
 90
13
 70
0
 10
256.132282
 20
50.132294
 30
0.0
 10
256.520531
 20
50.081184
 30
0.0
 10
256.882296
 20
49.931332
 30
0.0
 10
257.192943
 20
49.692956
 30
0.0
 10
257.431333
 20
49.382295
 30
0.0
 10
257.581193
 20
49.020523
 30
0.0
 10
257.632284
 20
48.632294
 30
0.0
 10
257.581193
 20
48.244066
 30
0.0
 10
257.431333
 20
47.882296
 30
0.0
 10
257.192943
 20
47.571635
 30
0.0
 10
256.882296
 20
47.333256
 30
0.0
 10
256.520531
 20
47.183407
 30
0.0
 10
256.132282
 20
47.132294
 30
0.0
  0
LWPOLYLINE
  5
1a4
100
AcDbEntity
  8
Layer_1
 62
7
100
AcDbPolyline
 90
13
 70
0
 10
232.132298
 20
50.132294
 30
0.0
 10
231.744075
 20
50.081184
 30
0.0
 10
231.382284
 20
49.931332
 30
0.0
 10
231.071637
 20
49.692956
 30
0.0
 10
230.833247
 20
49.382295
 30
0.0
 10
230.683413
 20
49.020523
 30
0.0
 10
230.632296
 20
48.632294
 30
0.0
 10
230.683413
 20
48.244066
 30
0.0
 10
230.833247
 20
47.882296
 30
0.0
 10
231.071637
 20
47.571635
 30
0.0
 10
231.382284
 20
47.333256
 30
0.0
 10
231.744075
 20
47.183407
 30
0.0
 10
232.132298
 20
47.132294
 30
0.0
  0
LWPOLYLINE
  5
1a5
100
AcDbEntity
  8
Layer_1
 62
7
100
AcDbPolyline
 90
2
 70
0
 10
232.132298
 20
30.132294
 30
0.0
 10
256.132282
 20
30.132294
 30
0.0
  0
LWPOLYLINE
  5
1a6
100
AcDbEntity
  8
Layer_1
 62
7
100
AcDbPolyline
 90
2
 70
0
 10
232.132298
 20
27.132290
 30
0.0
 10
256.132282
 20
27.132290
 30
0.0
  0
LWPOLYLINE
  5
1a7
100
AcDbEntity
  8
Layer_1
 62
7
100
AcDbPolyline
 90
13
 70
0
 10
232.132298
 20
30.132294
 30
0.0
 10
231.744075
 20
30.081177
 30
0.0
 10
231.382284
 20
29.931343
 30
0.0
 10
231.071637
 20
29.692954
 30
0.0
 10
230.833247
 20
29.382306
 30
0.0
 10
230.683413
 20
29.020515
 30
0.0
 10
230.632296
 20
28.632292
 30
0.0
 10
230.683413
 20
28.244069
 30
0.0
 10
230.833247
 20
27.882304
 30
0.0
 10
231.071637
 20
27.571630
 30
0.0
 10
231.382284
 20
27.333267
 30
0.0
 10
231.744075
 20
27.183407
 30
0.0
 10
232.132298
 20
27.132290
 30
0.0
  0
LWPOLYLINE
  5
1a8
100
AcDbEntity
  8
Layer_1
 62
7
100
AcDbPolyline
 90
13
 70
0
 10
256.132282
 20
30.132294
 30
0.0
 10
256.520531
 20
30.081177
 30
0.0
 10
256.882296
 20
29.931343
 30
0.0
 10
257.192943
 20
29.692954
 30
0.0
 10
257.431333
 20
29.382306
 30
0.0
 10
257.581193
 20
29.020515
 30
0.0
 10
257.632284
 20
28.632292
 30
0.0
 10
257.581193
 20
28.244069
 30
0.0
 10
257.431333
 20
27.882304
 30
0.0
 10
257.192943
 20
27.571630
 30
0.0
 10
256.882296
 20
27.333267
 30
0.0
 10
256.520531
 20
27.183407
 30
0.0
 10
256.132282
 20
27.132290
 30
0.0
  0
LWPOLYLINE
  5
1a9
100
AcDbEntity
  8
Layer_1
 62
7
100
AcDbPolyline
 90
24
 70
1
 10
254.132296
 20
75.132294
 30
0.0
 10
253.621174
 20
71.250010
 30
0.0
 10
252.122680
 20
67.632296
 30
0.0
 10
249.738890
 20
64.525693
 30
0.0
 10
246.632285
 20
62.141914
 30
0.0
 10
243.014584
 20
60.643409
 30
0.0
 10
239.132300
 20
60.132295
 30
0.0
 10
235.250016
 20
60.643409
 30
0.0
 10
231.632289
 20
62.141914
 30
0.0
 10
228.525683
 20
64.525693
 30
0.0
 10
226.141920
 20
67.632296
 30
0.0
 10
224.643399
 20
71.250010
 30
0.0
 10
224.132304
 20
75.132294
 30
0.0
 10
224.643399
 20
79.014580
 30
0.0
 10
226.141920
 20
82.632294
 30
0.0
 10
228.525683
 20
85.738897
 30
0.0
 10
231.632289
 20
88.122676
 30
0.0
 10
235.250016
 20
89.621181
 30
0.0
 10
239.132300
 20
90.132295
 30
0.0
 10
243.014584
 20
89.621181
 30
0.0
 10
246.632285
 20
88.122676
 30
0.0
 10
249.738890
 20
85.738897
 30
0.0
 10
252.122680
 20
82.632294
 30
0.0
 10
253.621174
 20
79.014580
 30
0.0
  0
LWPOLYLINE
  5
1aa
100
AcDbEntity
  8
Layer_1
 62
7
100
AcDbPolyline
 90
24
 70
1
 10
254.095466
 20
90.095468
 30
0.0
 10
254.278214
 20
89.857295
 30
0.0
 10
254.393096
 20
89.579938
 30
0.0
 10
254.432281
 20
89.282295
 30
0.0
 10
254.393096
 20
88.984652
 30
0.0
 10
254.278214
 20
88.707294
 30
0.0
 10
254.095466
 20
88.469122
 30
0.0
 10
253.857288
 20
88.286366
 30
0.0
 10
253.579926
 20
88.171479
 30
0.0
 10
253.282296
 20
88.132294
 30
0.0
 10
252.984640
 20
88.171479
 30
0.0
 10
252.707303
 20
88.286366
 30
0.0
 10
252.469125
 20
88.469122
 30
0.0
 10
252.286351
 20
88.707294
 30
0.0
 10
252.171469
 20
88.984652
 30
0.0
 10
252.132284
 20
89.282295
 30
0.0
 10
252.171469
 20
89.579938
 30
0.0
 10
252.286351
 20
89.857295
 30
0.0
 10
252.469125
 20
90.095468
 30
0.0
 10
252.707303
 20
90.278224
 30
0.0
 10
252.984640
 20
90.393108
 30
0.0
 10
253.282296
 20
90.432296
 30
0.0
 10
253.579926
 20
90.393108
 30
0.0
 10
253.857288
 20
90.278224
 30
0.0
  0
LWPOLYLINE
  5
1ab
100
AcDbEntity
  8
Layer_1
 62
7
100
AcDbPolyline
 90
24
 70
1
 10
254.095466
 20
60.169122
 30
0.0
 10
253.857288
 20
59.986366
 30
0.0
 10
253.579926
 20
59.871479
 30
0.0
 10
253.282296
 20
59.832294
 30
0.0
 10
252.984640
 20
59.871479
 30
0.0
 10
252.707303
 20
59.986366
 30
0.0
 10
252.469125
 20
60.169122
 30
0.0
 10
252.286351
 20
60.407295
 30
0.0
 10
252.171469
 20
60.684652
 30
0.0
 10
252.132284
 20
60.982295
 30
0.0
 10
252.171469
 20
61.279936
 30
0.0
 10
252.286351
 20
61.557296
 30
0.0
 10
252.469125
 20
61.795468
 30
0.0
 10
252.707303
 20
61.978224
 30
0.0
 10
252.984640
 20
62.093109
 30
0.0
 10
253.282296
 20
62.132296
 30
0.0
 10
253.579926
 20
62.093109
 30
0.0
 10
253.857288
 20
61.978224
 30
0.0
 10
254.095466
 20
61.795468
 30
0.0
 10
254.278214
 20
61.557296
 30
0.0
 10
254.393096
 20
61.279936
 30
0.0
 10
254.432281
 20
60.982295
 30
0.0
 10
254.393096
 20
60.684652
 30
0.0
 10
254.278214
 20
60.407295
 30
0.0
  0
LWPOLYLINE
  5
1ac
100
AcDbEntity
  8
Layer_1
 62
7
100
AcDbPolyline
 90
24
 70
1
 10
226.132289
 20
60.982295
 30
0.0
 10
226.093104
 20
60.684652
 30
0.0
 10
225.978222
 20
60.407295
 30
0.0
 10
225.795475
 20
60.169122
 30
0.0
 10
225.557297
 20
59.986366
 30
0.0
 10
225.279934
 20
59.871479
 30
0.0
 10
224.982304
 20
59.832294
 30
0.0
 10
224.684648
 20
59.871479
 30
0.0
 10
224.407285
 20
59.986366
 30
0.0
 10
224.169107
 20
60.169122
 30
0.0
 10
223.986360
 20
60.407295
 30
0.0
 10
223.871478
 20
60.684652
 30
0.0
 10
223.832293
 20
60.982295
 30
0.0
 10
223.871478
 20
61.279936
 30
0.0
 10
223.986360
 20
61.557296
 30
0.0
 10
224.169107
 20
61.795468
 30
0.0
 10
224.407285
 20
61.978224
 30
0.0
 10
224.684648
 20
62.093109
 30
0.0
 10
224.982304
 20
62.132296
 30
0.0
 10
225.279934
 20
62.093109
 30
0.0
 10
225.557297
 20
61.978224
 30
0.0
 10
225.795475
 20
61.795468
 30
0.0
 10
225.978222
 20
61.557296
 30
0.0
 10
226.093104
 20
61.279936
 30
0.0
  0
LWPOLYLINE
  5
1ad
100
AcDbEntity
  8
Layer_1
 62
7
100
AcDbPolyline
 90
24
 70
1
 10
225.557297
 20
88.286366
 30
0.0
 10
225.279934
 20
88.171479
 30
0.0
 10
224.982304
 20
88.132294
 30
0.0
 10
224.684648
 20
88.171479
 30
0.0
 10
224.407285
 20
88.286366
 30
0.0
 10
224.169107
 20
88.469122
 30
0.0
 10
223.986360
 20
88.707294
 30
0.0
 10
223.871478
 20
88.984652
 30
0.0
 10
223.832293
 20
89.282295
 30
0.0
 10
223.871478
 20
89.579938
 30
0.0
 10
223.986360
 20
89.857295
 30
0.0
 10
224.169107
 20
90.095468
 30
0.0
 10
224.407285
 20
90.278224
 30
0.0
 10
224.684648
 20
90.393108
 30
0.0
 10
224.982304
 20
90.432296
 30
0.0
 10
225.279934
 20
90.393108
 30
0.0
 10
225.557297
 20
90.278224
 30
0.0
 10
225.795475
 20
90.095468
 30
0.0
 10
225.978222
 20
89.857295
 30
0.0
 10
226.093104
 20
89.579938
 30
0.0
 10
226.132289
 20
89.282295
 30
0.0
 10
226.093104
 20
88.984652
 30
0.0
 10
225.978222
 20
88.707294
 30
0.0
 10
225.795475
 20
88.469122
 30
0.0
  0
LWPOLYLINE
  5
1ae
100
AcDbEntity
  8
Layer_1
 62
7
100
AcDbPolyline
 90
24
 70
1
 10
360.857301
 20
59.986366
 30
0.0
 10
360.579938
 20
59.871479
 30
0.0
 10
360.282282
 20
59.832294
 30
0.0
 10
359.984652
 20
59.871479
 30
0.0
 10
359.707289
 20
59.986366
 30
0.0
 10
359.469111
 20
60.169122
 30
0.0
 10
359.286364
 20
60.407295
 30
0.0
 10
359.171481
 20
60.684652
 30
0.0
 10
359.132297
 20
60.982295
 30
0.0
 10
359.171481
 20
61.279936
 30
0.0
 10
359.286364
 20
61.557296
 30
0.0
 10
359.469111
 20
61.795468
 30
0.0
 10
359.707289
 20
61.978224
 30
0.0
 10
359.984652
 20
62.093109
 30
0.0
 10
360.282282
 20
62.132296
 30
0.0
 10
360.579938
 20
62.093109
 30
0.0
 10
360.857301
 20
61.978224
 30
0.0
 10
361.095452
 20
61.795468
 30
0.0
 10
361.278226
 20
61.557296
 30
0.0
 10
361.393108
 20
61.279936
 30
0.0
 10
361.432293
 20
60.982295
 30
0.0
 10
361.393108
 20
60.684652
 30
0.0
 10
361.278226
 20
60.407295
 30
0.0
 10
361.095452
 20
60.169122
 30
0.0
  0
LWPOLYLINE
  5
1af
100
AcDbEntity
  8
Layer_1
 62
7
100
AcDbPolyline
 90
24
 70
1
 10
332.795460
 20
60.169122
 30
0.0
 10
332.557282
 20
59.986366
 30
0.0
 10
332.279920
 20
59.871479
 30
0.0
 10
331.982290
 20
59.832294
 30
0.0
 10
331.684660
 20
59.871479
 30
0.0
 10
331.407297
 20
59.986366
 30
0.0
 10
331.169119
 20
60.169122
 30
0.0
 10
330.986372
 20
60.407295
 30
0.0
 10
330.871463
 20
60.684652
 30
0.0
 10
330.832278
 20
60.982295
 30
0.0
 10
330.871463
 20
61.279936
 30
0.0
 10
330.986372
 20
61.557296
 30
0.0
 10
331.169119
 20
61.795468
 30
0.0
 10
331.407297
 20
61.978224
 30
0.0
 10
331.684660
 20
62.093109
 30
0.0
 10
331.982290
 20
62.132296
 30
0.0
 10
332.279920
 20
62.093109
 30
0.0
 10
332.557282
 20
61.978224
 30
0.0
 10
332.795460
 20
61.795468
 30
0.0
 10
332.978208
 20
61.557296
 30
0.0
 10
333.093117
 20
61.279936
 30
0.0
 10
333.132301
 20
60.982295
 30
0.0
 10
333.093117
 20
60.684652
 30
0.0
 10
332.978208
 20
60.407295
 30
0.0
  0
LWPOLYLINE
  5
1b0
100
AcDbEntity
  8
Layer_1
 62
7
100
AcDbPolyline
 90
24
 70
1
 10
332.978208
 20
88.707294
 30
0.0
 10
332.795460
 20
88.469122
 30
0.0
 10
332.557282
 20
88.286366
 30
0.0
 10
332.279920
 20
88.171479
 30
0.0
 10
331.982290
 20
88.132294
 30
0.0
 10
331.684660
 20
88.171479
 30
0.0
 10
331.407297
 20
88.286366
 30
0.0
 10
331.169119
 20
88.469122
 30
0.0
 10
330.986372
 20
88.707294
 30
0.0
 10
330.871463
 20
88.984652
 30
0.0
 10
330.832278
 20
89.282295
 30
0.0
 10
330.871463
 20
89.579938
 30
0.0
 10
330.986372
 20
89.857295
 30
0.0
 10
331.169119
 20
90.095468
 30
0.0
 10
331.407297
 20
90.278224
 30
0.0
 10
331.684660
 20
90.393108
 30
0.0
 10
331.982290
 20
90.432296
 30
0.0
 10
332.279920
 20
90.393108
 30
0.0
 10
332.557282
 20
90.278224
 30
0.0
 10
332.795460
 20
90.095468
 30
0.0
 10
332.978208
 20
89.857295
 30
0.0
 10
333.093117
 20
89.579938
 30
0.0
 10
333.132301
 20
89.282295
 30
0.0
 10
333.093117
 20
88.984652
 30
0.0
  0
LWPOLYLINE
  5
1b1
100
AcDbEntity
  8
Layer_1
 62
7
100
AcDbPolyline
 90
24
 70
1
 10
360.857301
 20
90.278224
 30
0.0
 10
361.095452
 20
90.095468
 30
0.0
 10
361.278226
 20
89.857295
 30
0.0
 10
361.393108
 20
89.579938
 30
0.0
 10
361.432293
 20
89.282295
 30
0.0
 10
361.393108
 20
88.984652
 30
0.0
 10
361.278226
 20
88.707294
 30
0.0
 10
361.095452
 20
88.469122
 30
0.0
 10
360.857301
 20
88.286366
 30
0.0
 10
360.579938
 20
88.171479
 30
0.0
 10
360.282282
 20
88.132294
 30
0.0
 10
359.984652
 20
88.171479
 30
0.0
 10
359.707289
 20
88.286366
 30
0.0
 10
359.469111
 20
88.469122
 30
0.0
 10
359.286364
 20
88.707294
 30
0.0
 10
359.171481
 20
88.984652
 30
0.0
 10
359.132297
 20
89.282295
 30
0.0
 10
359.171481
 20
89.579938
 30
0.0
 10
359.286364
 20
89.857295
 30
0.0
 10
359.469111
 20
90.095468
 30
0.0
 10
359.707289
 20
90.278224
 30
0.0
 10
359.984652
 20
90.393108
 30
0.0
 10
360.282282
 20
90.432296
 30
0.0
 10
360.579938
 20
90.393108
 30
0.0
  0
LWPOLYLINE
  5
1b2
100
AcDbEntity
  8
Layer_1
 62
7
100
AcDbPolyline
 90
24
 70
1
 10
360.621186
 20
79.014580
 30
0.0
 10
361.132282
 20
75.132294
 30
0.0
 10
360.621186
 20
71.250010
 30
0.0
 10
359.122666
 20
67.632296
 30
0.0
 10
356.738902
 20
64.525693
 30
0.0
 10
353.632297
 20
62.141914
 30
0.0
 10
350.014570
 20
60.643409
 30
0.0
 10
346.132286
 20
60.132295
 30
0.0
 10
342.250002
 20
60.643409
 30
0.0
 10
338.632301
 20
62.141914
 30
0.0
 10
335.525696
 20
64.525693
 30
0.0
 10
333.141906
 20
67.632296
 30
0.0
 10
331.643412
 20
71.250010
 30
0.0
 10
331.132289
 20
75.132294
 30
0.0
 10
331.643412
 20
79.014580
 30
0.0
 10
333.141906
 20
82.632294
 30
0.0
 10
335.525696
 20
85.738897
 30
0.0
 10
338.632301
 20
88.122676
 30
0.0
 10
342.250002
 20
89.621181
 30
0.0
 10
346.132286
 20
90.132295
 30
0.0
 10
350.014570
 20
89.621181
 30
0.0
 10
353.632297
 20
88.122676
 30
0.0
 10
356.738902
 20
85.738897
 30
0.0
 10
359.122666
 20
82.632294
 30
0.0
  0
LWPOLYLINE
  5
1b3
100
AcDbEntity
  8
Layer_1
 62
7
100
AcDbPolyline
 90
24
 70
1
 10
309.339407
 20
6.925188
 30
0.0
 10
309.132291
 20
6.766279
 30
0.0
 10
308.891097
 20
6.666372
 30
0.0
 10
308.632282
 20
6.632294
 30
0.0
 10
308.373466
 20
6.666372
 30
0.0
 10
308.132299
 20
6.766279
 30
0.0
 10
307.925183
 20
6.925188
 30
0.0
 10
307.766274
 20
7.132304
 30
0.0
 10
307.666367
 20
7.373471
 30
0.0
 10
307.632289
 20
7.632287
 30
0.0
 10
307.666367
 20
7.891102
 30
0.0
 10
307.766274
 20
8.132296
 30
0.0
 10
307.925183
 20
8.339412
 30
0.0
 10
308.132299
 20
8.498321
 30
0.0
 10
308.373466
 20
8.598227
 30
0.0
 10
308.632282
 20
8.632306
 30
0.0
 10
308.891097
 20
8.598227
 30
0.0
 10
309.132291
 20
8.498321
 30
0.0
 10
309.339407
 20
8.339412
 30
0.0
 10
309.498316
 20
8.132296
 30
0.0
 10
309.598223
 20
7.891102
 30
0.0
 10
309.632301
 20
7.632287
 30
0.0
 10
309.598223
 20
7.373471
 30
0.0
 10
309.498316
 20
7.132304
 30
0.0
  0
LWPOLYLINE
  5
1b4
100
AcDbEntity
  8
Layer_1
 62
7
100
AcDbPolyline
 90
24
 70
1
 10
302.598221
 20
7.891102
 30
0.0
 10
302.632299
 20
7.632287
 30
0.0
 10
302.598221
 20
7.373471
 30
0.0
 10
302.498314
 20
7.132304
 30
0.0
 10
302.339405
 20
6.925188
 30
0.0
 10
302.132290
 20
6.766279
 30
0.0
 10
301.891122
 20
6.666372
 30
0.0
 10
301.632280
 20
6.632294
 30
0.0
 10
301.373465
 20
6.666372
 30
0.0
 10
301.132297
 20
6.766279
 30
0.0
 10
300.925181
 20
6.925188
 30
0.0
 10
300.766272
 20
7.132304
 30
0.0
 10
300.666366
 20
7.373471
 30
0.0
 10
300.632287
 20
7.632287
 30
0.0
 10
300.666366
 20
7.891102
 30
0.0
 10
300.766272
 20
8.132296
 30
0.0
 10
300.925181
 20
8.339412
 30
0.0
 10
301.132297
 20
8.498321
 30
0.0
 10
301.373465
 20
8.598227
 30
0.0
 10
301.632280
 20
8.632306
 30
0.0
 10
301.891122
 20
8.598227
 30
0.0
 10
302.132290
 20
8.498321
 30
0.0
 10
302.339405
 20
8.339412
 30
0.0
 10
302.498314
 20
8.132296
 30
0.0
  0
LWPOLYLINE
  5
1b5
100
AcDbEntity
  8
Layer_1
 62
7
100
AcDbPolyline
 90
24
 70
1
 10
294.373463
 20
8.598227
 30
0.0
 10
294.632278
 20
8.632306
 30
0.0
 10
294.891120
 20
8.598227
 30
0.0
 10
295.132288
 20
8.498321
 30
0.0
 10
295.339404
 20
8.339412
 30
0.0
 10
295.498312
 20
8.132296
 30
0.0
 10
295.598219
 20
7.891102
 30
0.0
 10
295.632297
 20
7.632287
 30
0.0
 10
295.598219
 20
7.373471
 30
0.0
 10
295.498312
 20
7.132304
 30
0.0
 10
295.339404
 20
6.925188
 30
0.0
 10
295.132288
 20
6.766279
 30
0.0
 10
294.891120
 20
6.666372
 30
0.0
 10
294.632278
 20
6.632294
 30
0.0
 10
294.373463
 20
6.666372
 30
0.0
 10
294.132295
 20
6.766279
 30
0.0
 10
293.925179
 20
6.925188
 30
0.0
 10
293.766271
 20
7.132304
 30
0.0
 10
293.666364
 20
7.373471
 30
0.0
 10
293.632286
 20
7.632287
 30
0.0
 10
293.666364
 20
7.891102
 30
0.0
 10
293.766271
 20
8.132296
 30
0.0
 10
293.925179
 20
8.339412
 30
0.0
 10
294.132295
 20
8.498321
 30
0.0
  0
LWPOLYLINE
  5
1b6
100
AcDbEntity
  8
Layer_1
 62
7
100
AcDbPolyline
 90
24
 70
1
 10
287.373461
 20
6.666372
 30
0.0
 10
287.132293
 20
6.766279
 30
0.0
 10
286.925178
 20
6.925188
 30
0.0
 10
286.766269
 20
7.132304
 30
0.0
 10
286.666362
 20
7.373471
 30
0.0
 10
286.632284
 20
7.632287
 30
0.0
 10
286.666362
 20
7.891102
 30
0.0
 10
286.766269
 20
8.132296
 30
0.0
 10
286.925178
 20
8.339412
 30
0.0
 10
287.132293
 20
8.498321
 30
0.0
 10
287.373461
 20
8.598227
 30
0.0
 10
287.632303
 20
8.632306
 30
0.0
 10
287.891118
 20
8.598227
 30
0.0
 10
288.132286
 20
8.498321
 30
0.0
 10
288.339402
 20
8.339412
 30
0.0
 10
288.498311
 20
8.132296
 30
0.0
 10
288.598217
 20
7.891102
 30
0.0
 10
288.632296
 20
7.632287
 30
0.0
 10
288.598217
 20
7.373471
 30
0.0
 10
288.498311
 20
7.132304
 30
0.0
 10
288.339402
 20
6.925188
 30
0.0
 10
288.132286
 20
6.766279
 30
0.0
 10
287.891118
 20
6.666372
 30
0.0
 10
287.632303
 20
6.632294
 30
0.0
  0
LWPOLYLINE
  5
1b7
100
AcDbEntity
  8
Layer_1
 62
7
100
AcDbPolyline
 90
24
 70
1
 10
281.132284
 20
8.498321
 30
0.0
 10
281.339400
 20
8.339412
 30
0.0
 10
281.498309
 20
8.132296
 30
0.0
 10
281.598216
 20
7.891102
 30
0.0
 10
281.632294
 20
7.632287
 30
0.0
 10
281.598216
 20
7.373471
 30
0.0
 10
281.498309
 20
7.132304
 30
0.0
 10
281.339400
 20
6.925188
 30
0.0
 10
281.132284
 20
6.766279
 30
0.0
 10
280.891117
 20
6.666372
 30
0.0
 10
280.632301
 20
6.632294
 30
0.0
 10
280.373459
 20
6.666372
 30
0.0
 10
280.132292
 20
6.766279
 30
0.0
 10
279.925176
 20
6.925188
 30
0.0
 10
279.766267
 20
7.132304
 30
0.0
 10
279.666360
 20
7.373471
 30
0.0
 10
279.632282
 20
7.632287
 30
0.0
 10
279.666360
 20
7.891102
 30
0.0
 10
279.766267
 20
8.132296
 30
0.0
 10
279.925176
 20
8.339412
 30
0.0
 10
280.132292
 20
8.498321
 30
0.0
 10
280.373459
 20
8.598227
 30
0.0
 10
280.632301
 20
8.632306
 30
0.0
 10
280.891117
 20
8.598227
 30
0.0
  0
LWPOLYLINE
  5
1b8
100
AcDbEntity
  8
Layer_1
 62
7
100
AcDbPolyline
 90
24
 70
1
 10
274.632292
 20
7.632287
 30
0.0
 10
274.598214
 20
7.373471
 30
0.0
 10
274.498307
 20
7.132304
 30
0.0
 10
274.339398
 20
6.925188
 30
0.0
 10
274.132282
 20
6.766279
 30
0.0
 10
273.891115
 20
6.666372
 30
0.0
 10
273.632299
 20
6.632294
 30
0.0
 10
273.373484
 20
6.666372
 30
0.0
 10
273.132290
 20
6.766279
 30
0.0
 10
272.925174
 20
6.925188
 30
0.0
 10
272.766265
 20
7.132304
 30
0.0
 10
272.666359
 20
7.373471
 30
0.0
 10
272.632280
 20
7.632287
 30
0.0
 10
272.666359
 20
7.891102
 30
0.0
 10
272.766265
 20
8.132296
 30
0.0
 10
272.925174
 20
8.339412
 30
0.0
 10
273.132290
 20
8.498321
 30
0.0
 10
273.373484
 20
8.598227
 30
0.0
 10
273.632299
 20
8.632306
 30
0.0
 10
273.891115
 20
8.598227
 30
0.0
 10
274.132282
 20
8.498321
 30
0.0
 10
274.339398
 20
8.339412
 30
0.0
 10
274.498307
 20
8.132296
 30
0.0
 10
274.598214
 20
7.891102
 30
0.0
  0
LWPOLYLINE
  5
1b9
100
AcDbEntity
  8
Layer_1
 62
7
100
AcDbPolyline
 90
24
 70
1
 10
267.498305
 20
7.132304
 30
0.0
 10
267.339397
 20
6.925188
 30
0.0
 10
267.132281
 20
6.766279
 30
0.0
 10
266.891113
 20
6.666372
 30
0.0
 10
266.632298
 20
6.632294
 30
0.0
 10
266.373482
 20
6.666372
 30
0.0
 10
266.132288
 20
6.766279
 30
0.0
 10
265.925172
 20
6.925188
 30
0.0
 10
265.766263
 20
7.132304
 30
0.0
 10
265.666357
 20
7.373471
 30
0.0
 10
265.632278
 20
7.632287
 30
0.0
 10
265.666357
 20
7.891102
 30
0.0
 10
265.766263
 20
8.132296
 30
0.0
 10
265.925172
 20
8.339412
 30
0.0
 10
266.132288
 20
8.498321
 30
0.0
 10
266.373482
 20
8.598227
 30
0.0
 10
266.632298
 20
8.632306
 30
0.0
 10
266.891113
 20
8.598227
 30
0.0
 10
267.132281
 20
8.498321
 30
0.0
 10
267.339397
 20
8.339412
 30
0.0
 10
267.498305
 20
8.132296
 30
0.0
 10
267.598212
 20
7.891102
 30
0.0
 10
267.632290
 20
7.632287
 30
0.0
 10
267.598212
 20
7.373471
 30
0.0
  0
LWPOLYLINE
  5
1ba
100
AcDbEntity
  8
Layer_1
 62
7
100
AcDbPolyline
 90
24
 70
1
 10
259.373480
 20
8.598227
 30
0.0
 10
259.632296
 20
8.632306
 30
0.0
 10
259.891111
 20
8.598227
 30
0.0
 10
260.132279
 20
8.498321
 30
0.0
 10
260.339395
 20
8.339412
 30
0.0
 10
260.498304
 20
8.132296
 30
0.0
 10
260.598210
 20
7.891102
 30
0.0
 10
260.632288
 20
7.632287
 30
0.0
 10
260.598210
 20
7.373471
 30
0.0
 10
260.498304
 20
7.132304
 30
0.0
 10
260.339395
 20
6.925188
 30
0.0
 10
260.132279
 20
6.766279
 30
0.0
 10
259.891111
 20
6.666372
 30
0.0
 10
259.632296
 20
6.632294
 30
0.0
 10
259.373480
 20
6.666372
 30
0.0
 10
259.132286
 20
6.766279
 30
0.0
 10
258.925197
 20
6.925188
 30
0.0
 10
258.766262
 20
7.132304
 30
0.0
 10
258.666355
 20
7.373471
 30
0.0
 10
258.632303
 20
7.632287
 30
0.0
 10
258.666355
 20
7.891102
 30
0.0
 10
258.766262
 20
8.132296
 30
0.0
 10
258.925197
 20
8.339412
 30
0.0
 10
259.132286
 20
8.498321
 30
0.0
  0
LWPOLYLINE
  5
1bb
100
AcDbEntity
  8
Layer_1
 62
7
100
AcDbPolyline
 90
24
 70
1
 10
253.498328
 20
7.132304
 30
0.0
 10
253.339393
 20
6.925188
 30
0.0
 10
253.132304
 20
6.766279
 30
0.0
 10
252.891109
 20
6.666372
 30
0.0
 10
252.632294
 20
6.632294
 30
0.0
 10
252.373479
 20
6.666372
 30
0.0
 10
252.132284
 20
6.766279
 30
0.0
 10
251.925195
 20
6.925188
 30
0.0
 10
251.766260
 20
7.132304
 30
0.0
 10
251.666353
 20
7.373471
 30
0.0
 10
251.632301
 20
7.632287
 30
0.0
 10
251.666353
 20
7.891102
 30
0.0
 10
251.766260
 20
8.132296
 30
0.0
 10
251.925195
 20
8.339412
 30
0.0
 10
252.132284
 20
8.498321
 30
0.0
 10
252.373479
 20
8.598227
 30
0.0
 10
252.632294
 20
8.632306
 30
0.0
 10
252.891109
 20
8.598227
 30
0.0
 10
253.132304
 20
8.498321
 30
0.0
 10
253.339393
 20
8.339412
 30
0.0
 10
253.498328
 20
8.132296
 30
0.0
 10
253.598208
 20
7.891102
 30
0.0
 10
253.632287
 20
7.632287
 30
0.0
 10
253.598208
 20
7.373471
 30
0.0
  0
LWPOLYLINE
  5
1bc
100
AcDbEntity
  8
Layer_1
 62
7
100
AcDbPolyline
 90
24
 70
1
 10
244.766258
 20
7.132304
 30
0.0
 10
244.666378
 20
7.373471
 30
0.0
 10
244.632300
 20
7.632287
 30
0.0
 10
244.666378
 20
7.891102
 30
0.0
 10
244.766258
 20
8.132296
 30
0.0
 10
244.925193
 20
8.339412
 30
0.0
 10
245.132283
 20
8.498321
 30
0.0
 10
245.373477
 20
8.598227
 30
0.0
 10
245.632292
 20
8.632306
 30
0.0
 10
245.891108
 20
8.598227
 30
0.0
 10
246.132302
 20
8.498321
 30
0.0
 10
246.339391
 20
8.339412
 30
0.0
 10
246.498326
 20
8.132296
 30
0.0
 10
246.598207
 20
7.891102
 30
0.0
 10
246.632285
 20
7.632287
 30
0.0
 10
246.598207
 20
7.373471
 30
0.0
 10
246.498326
 20
7.132304
 30
0.0
 10
246.339391
 20
6.925188
 30
0.0
 10
246.132302
 20
6.766279
 30
0.0
 10
245.891108
 20
6.666372
 30
0.0
 10
245.632292
 20
6.632294
 30
0.0
 10
245.373477
 20
6.666372
 30
0.0
 10
245.132283
 20
6.766279
 30
0.0
 10
244.925193
 20
6.925188
 30
0.0
  0
LWPOLYLINE
  5
1bd
100
AcDbEntity
  8
Layer_1
 62
7
100
AcDbPolyline
 90
24
 70
1
 10
238.132281
 20
6.766279
 30
0.0
 10
237.925191
 20
6.925188
 30
0.0
 10
237.766256
 20
7.132304
 30
0.0
 10
237.666376
 20
7.373471
 30
0.0
 10
237.632298
 20
7.632287
 30
0.0
 10
237.666376
 20
7.891102
 30
0.0
 10
237.766256
 20
8.132296
 30
0.0
 10
237.925191
 20
8.339412
 30
0.0
 10
238.132281
 20
8.498321
 30
0.0
 10
238.373475
 20
8.598227
 30
0.0
 10
238.632290
 20
8.632306
 30
0.0
 10
238.891106
 20
8.598227
 30
0.0
 10
239.132300
 20
8.498321
 30
0.0
 10
239.339389
 20
8.339412
 30
0.0
 10
239.498325
 20
8.132296
 30
0.0
 10
239.598205
 20
7.891102
 30
0.0
 10
239.632283
 20
7.632287
 30
0.0
 10
239.598205
 20
7.373471
 30
0.0
 10
239.498325
 20
7.132304
 30
0.0
 10
239.339389
 20
6.925188
 30
0.0
 10
239.132300
 20
6.766279
 30
0.0
 10
238.891106
 20
6.666372
 30
0.0
 10
238.632290
 20
6.632294
 30
0.0
 10
238.373475
 20
6.666372
 30
0.0
  0
LWPOLYLINE
  5
1be
100
AcDbEntity
  8
Layer_1
 62
7
100
AcDbPolyline
 90
24
 70
1
 10
231.632289
 20
8.632306
 30
0.0
 10
231.891104
 20
8.598227
 30
0.0
 10
232.132298
 20
8.498321
 30
0.0
 10
232.339388
 20
8.339412
 30
0.0
 10
232.498323
 20
8.132296
 30
0.0
 10
232.598229
 20
7.891102
 30
0.0
 10
232.632281
 20
7.632287
 30
0.0
 10
232.598229
 20
7.373471
 30
0.0
 10
232.498323
 20
7.132304
 30
0.0
 10
232.339388
 20
6.925188
 30
0.0
 10
232.132298
 20
6.766279
 30
0.0
 10
231.891104
 20
6.666372
 30
0.0
 10
231.632289
 20
6.632294
 30
0.0
 10
231.373473
 20
6.666372
 30
0.0
 10
231.132279
 20
6.766279
 30
0.0
 10
230.925190
 20
6.925188
 30
0.0
 10
230.766254
 20
7.132304
 30
0.0
 10
230.666374
 20
7.373471
 30
0.0
 10
230.632296
 20
7.632287
 30
0.0
 10
230.666374
 20
7.891102
 30
0.0
 10
230.766254
 20
8.132296
 30
0.0
 10
230.925190
 20
8.339412
 30
0.0
 10
231.132279
 20
8.498321
 30
0.0
 10
231.373473
 20
8.598227
 30
0.0
  0
LWPOLYLINE
  5
1bf
100
AcDbEntity
  8
Layer_1
 62
7
100
AcDbPolyline
 90
2
 70
0
 10
178.132302
 20
150.132290
 30
0.0
 10
17.132287
 20
150.132290
 30
0.0
  0
LWPOLYLINE
  5
1c0
100
AcDbEntity
  8
Layer_1
 62
7
100
AcDbPolyline
 90
2
 70
0
 10
190.132294
 20
278.132291
 30
0.0
 10
190.132294
 20
162.132282
 30
0.0
  0
LWPOLYLINE
  5
1c1
100
AcDbEntity
  8
Layer_1
 62
7
100
AcDbPolyline
 90
2
 70
0
 10
180.132288
 20
289.943365
 30
0.0
 10
180.147104
 20
283.783924
 30
0.0
  0
LWPOLYLINE
  5
1c2
100
AcDbEntity
  8
Layer_1
 62
7
100
AcDbPolyline
 90
2
 70
0
 10
176.132290
 20
290.132291
 30
0.0
 10
176.117474
 20
283.783924
 30
0.0
  0
LWPOLYLINE
  5
1c3
100
AcDbEntity
  8
Layer_1
 62
7
100
AcDbPolyline
 90
2
 70
0
 10
19.132299
 20
290.132291
 30
0.0
 10
176.132290
 20
290.132291
 30
0.0
  0
LWPOLYLINE
  5
1c4
100
AcDbEntity
  8
Layer_1
 62
7
100
AcDbPolyline
 90
2
 70
0
 10
19.132299
 20
290.132291
 30
0.0
 10
19.147116
 20
283.783924
 30
0.0
  0
LWPOLYLINE
  5
1c5
100
AcDbEntity
  8
Layer_1
 62
7
100
AcDbPolyline
 90
2
 70
0
 10
15.132302
 20
289.943365
 30
0.0
 10
15.117485
 20
283.783924
 30
0.0
  0
LWPOLYLINE
  5
1c6
100
AcDbEntity
  8
Layer_1
 62
7
100
AcDbPolyline
 90
2
 70
0
 10
5.132296
 20
162.132282
 30
0.0
 10
5.132296
 20
278.132291
 30
0.0
  0
LWPOLYLINE
  5
1c7
100
AcDbEntity
  8
Layer_1
 62
7
100
AcDbPolyline
 90
13
 70
0
 10
178.132302
 20
150.132290
 30
0.0
 10
179.698609
 20
150.234948
 30
0.0
 10
181.238114
 20
150.541177
 30
0.0
 10
182.724490
 20
151.045737
 30
0.0
 10
184.132285
 20
151.739977
 30
0.0
 10
185.437421
 20
152.612044
 30
0.0
 10
186.617569
 20
153.647015
 30
0.0
 10
187.652540
 20
154.827162
 30
0.0
 10
188.524606
 20
156.132299
 30
0.0
 10
189.218846
 20
157.540094
 30
0.0
 10
189.723407
 20
159.026470
 30
0.0
 10
190.029636
 20
160.565975
 30
0.0
 10
190.132294
 20
162.132282
 30
0.0
  0
LWPOLYLINE
  5
1c8
100
AcDbEntity
  8
Layer_1
 62
7
100
AcDbPolyline
 90
12
 70
0
 10
180.132288
 20
289.943365
 30
0.0
 10
181.624511
 20
289.612898
 30
0.0
 10
183.056542
 20
289.075408
 30
0.0
 10
184.408563
 20
288.360123
 30
0.0
 10
185.658587
 20
287.478663
 30
0.0
 10
186.786373
 20
286.445357
 30
0.0
 10
187.773533
 20
285.276983
 30
0.0
 10
188.604034
 20
283.992532
 30
0.0
 10
189.264434
 20
282.612867
 30
0.0
 10
189.743938
 20
281.160408
 30
0.0
 10
190.034795
 20
279.658749
 30
0.0
 10
190.132294
 20
278.132291
 30
0.0
  0
LWPOLYLINE
  5
1c9
100
AcDbEntity
  8
Layer_1
 62
7
100
AcDbPolyline
 90
23
 70
0
 10
176.117579
 20
283.783924
 30
0.0
 10
174.759764
 20
283.094761
 30
0.0
 10
173.619172
 20
282.085987
 30
0.0
 10
172.769224
 20
280.822572
 30
0.0
 10
172.264717
 20
279.385890
 30
0.0
 10
172.138087
 20
277.868467
 30
0.0
 10
172.397538
 20
276.368037
 30
0.0
 10
173.026320
 20
274.981236
 30
0.0
 10
173.983979
 20
273.797379
 30
0.0
 10
175.208789
 20
272.892716
 30
0.0
 10
176.621902
 20
272.325510
 30
0.0
 10
178.132302
 20
272.132293
 30
0.0
 10
179.642676
 20
272.325510
 30
0.0
 10
181.055789
 20
272.892716
 30
0.0
 10
182.280598
 20
273.797379
 30
0.0
 10
183.238258
 20
274.981236
 30
0.0
 10
183.867040
 20
276.368037
 30
0.0
 10
184.126490
 20
277.868467
 30
0.0
 10
183.999861
 20
279.385890
 30
0.0
 10
183.495353
 20
280.822572
 30
0.0
 10
182.645406
 20
282.085987
 30
0.0
 10
181.504814
 20
283.094761
 30
0.0
 10
180.146998
 20
283.783924
 30
0.0
  0
LWPOLYLINE
  5
1ca
100
AcDbEntity
  8
Layer_1
 62
7
100
AcDbPolyline
 90
23
 70
0
 10
19.147010
 20
283.783924
 30
0.0
 10
20.504825
 20
283.094761
 30
0.0
 10
21.645418
 20
282.085987
 30
0.0
 10
22.495339
 20
280.822572
 30
0.0
 10
22.999873
 20
279.385890
 30
0.0
 10
23.126476
 20
277.868467
 30
0.0
 10
22.867052
 20
276.368037
 30
0.0
 10
22.238243
 20
274.981236
 30
0.0
 10
21.280610
 20
273.797379
 30
0.0
 10
20.055775
 20
272.892716
 30
0.0
 10
18.642688
 20
272.325510
 30
0.0
 10
17.132287
 20
272.132293
 30
0.0
 10
15.621914
 20
272.325510
 30
0.0
 10
14.208800
 20
272.892716
 30
0.0
 10
12.983965
 20
273.797379
 30
0.0
 10
12.026332
 20
274.981236
 30
0.0
 10
11.397550
 20
276.368037
 30
0.0
 10
11.138099
 20
277.868467
 30
0.0
 10
11.264702
 20
279.385890
 30
0.0
 10
11.769236
 20
280.822572
 30
0.0
 10
12.619157
 20
282.085987
 30
0.0
 10
13.759776
 20
283.094761
 30
0.0
 10
15.117591
 20
283.783924
 30
0.0
  0
LWPOLYLINE
  5
1cb
100
AcDbEntity
  8
Layer_1
 62
7
100
AcDbPolyline
 90
12
 70
0
 10
15.132302
 20
289.943365
 30
0.0
 10
13.640052
 20
289.612898
 30
0.0
 10
12.208048
 20
289.075408
 30
0.0
 10
10.856027
 20
288.360123
 30
0.0
 10
9.605977
 20
287.478663
 30
0.0
 10
8.478217
 20
286.445357
 30
0.0
 10
7.491056
 20
285.276983
 30
0.0
 10
6.660529
 20
283.992532
 30
0.0
 10
6.000156
 20
282.612867
 30
0.0
 10
5.520625
 20
281.160408
 30
0.0
 10
5.229768
 20
279.658749
 30
0.0
 10
5.132296
 20
278.132291
 30
0.0
  0
LWPOLYLINE
  5
1cc
100
AcDbEntity
  8
Layer_1
 62
7
100
AcDbPolyline
 90
13
 70
0
 10
17.132287
 20
150.132290
 30
0.0
 10
15.565981
 20
150.234948
 30
0.0
 10
14.026476
 20
150.541177
 30
0.0
 10
12.540100
 20
151.045737
 30
0.0
 10
11.132305
 20
151.739977
 30
0.0
 10
9.827142
 20
152.612044
 30
0.0
 10
8.647021
 20
153.647015
 30
0.0
 10
7.612050
 20
154.827162
 30
0.0
 10
6.739983
 20
156.132299
 30
0.0
 10
6.045743
 20
157.540094
 30
0.0
 10
5.541183
 20
159.026470
 30
0.0
 10
5.234954
 20
160.565975
 30
0.0
 10
5.132296
 20
162.132282
 30
0.0
  0
LWPOLYLINE
  5
1cd
100
AcDbEntity
  8
Layer_1
 62
7
100
AcDbPolyline
 90
24
 70
1
 10
36.632291
 20
153.632304
 30
0.0
 10
36.891106
 20
153.598226
 30
0.0
 10
37.132300
 20
153.498319
 30
0.0
 10
37.339390
 20
153.339410
 30
0.0
 10
37.498325
 20
153.132294
 30
0.0
 10
37.598205
 20
152.891100
 30
0.0
 10
37.632283
 20
152.632285
 30
0.0
 10
37.598205
 20
152.373469
 30
0.0
 10
37.498325
 20
152.132302
 30
0.0
 10
37.339390
 20
151.925186
 30
0.0
 10
37.132300
 20
151.766277
 30
0.0
 10
36.891106
 20
151.666370
 30
0.0
 10
36.632291
 20
151.632292
 30
0.0
 10
36.373475
 20
151.666370
 30
0.0
 10
36.132281
 20
151.766277
 30
0.0
 10
35.925192
 20
151.925186
 30
0.0
 10
35.766256
 20
152.132302
 30
0.0
 10
35.666376
 20
152.373469
 30
0.0
 10
35.632298
 20
152.632285
 30
0.0
 10
35.666376
 20
152.891100
 30
0.0
 10
35.766256
 20
153.132294
 30
0.0
 10
35.925192
 20
153.339410
 30
0.0
 10
36.132281
 20
153.498319
 30
0.0
 10
36.373475
 20
153.598226
 30
0.0
  0
LWPOLYLINE
  5
1ce
100
AcDbEntity
  8
Layer_1
 62
7
100
AcDbPolyline
 90
24
 70
1
 10
43.132283
 20
151.766277
 30
0.0
 10
42.925193
 20
151.925186
 30
0.0
 10
42.766258
 20
152.132302
 30
0.0
 10
42.666378
 20
152.373469
 30
0.0
 10
42.632300
 20
152.632285
 30
0.0
 10
42.666378
 20
152.891100
 30
0.0
 10
42.766258
 20
153.132294
 30
0.0
 10
42.925193
 20
153.339410
 30
0.0
 10
43.132283
 20
153.498319
 30
0.0
 10
43.373477
 20
153.598226
 30
0.0
 10
43.632292
 20
153.632304
 30
0.0
 10
43.891108
 20
153.598226
 30
0.0
 10
44.132302
 20
153.498319
 30
0.0
 10
44.339391
 20
153.339410
 30
0.0
 10
44.498327
 20
153.132294
 30
0.0
 10
44.598207
 20
152.891100
 30
0.0
 10
44.632285
 20
152.632285
 30
0.0
 10
44.598207
 20
152.373469
 30
0.0
 10
44.498327
 20
152.132302
 30
0.0
 10
44.339391
 20
151.925186
 30
0.0
 10
44.132302
 20
151.766277
 30
0.0
 10
43.891108
 20
151.666370
 30
0.0
 10
43.632292
 20
151.632292
 30
0.0
 10
43.373477
 20
151.666370
 30
0.0
  0
LWPOLYLINE
  5
1cf
100
AcDbEntity
  8
Layer_1
 62
7
100
AcDbPolyline
 90
24
 70
1
 10
49.766260
 20
152.132302
 30
0.0
 10
49.666353
 20
152.373469
 30
0.0
 10
49.632301
 20
152.632285
 30
0.0
 10
49.666353
 20
152.891100
 30
0.0
 10
49.766260
 20
153.132294
 30
0.0
 10
49.925195
 20
153.339410
 30
0.0
 10
50.132285
 20
153.498319
 30
0.0
 10
50.373479
 20
153.598226
 30
0.0
 10
50.632294
 20
153.632304
 30
0.0
 10
50.891110
 20
153.598226
 30
0.0
 10
51.132304
 20
153.498319
 30
0.0
 10
51.339393
 20
153.339410
 30
0.0
 10
51.498328
 20
153.132294
 30
0.0
 10
51.598209
 20
152.891100
 30
0.0
 10
51.632287
 20
152.632285
 30
0.0
 10
51.598209
 20
152.373469
 30
0.0
 10
51.498328
 20
152.132302
 30
0.0
 10
51.339393
 20
151.925186
 30
0.0
 10
51.132304
 20
151.766277
 30
0.0
 10
50.891110
 20
151.666370
 30
0.0
 10
50.632294
 20
151.632292
 30
0.0
 10
50.373479
 20
151.666370
 30
0.0
 10
50.132285
 20
151.766277
 30
0.0
 10
49.925195
 20
151.925186
 30
0.0
  0
LWPOLYLINE
  5
1d0
100
AcDbEntity
  8
Layer_1
 62
7
100
AcDbPolyline
 90
24
 70
1
 10
58.498304
 20
152.132302
 30
0.0
 10
58.339395
 20
151.925186
 30
0.0
 10
58.132279
 20
151.766277
 30
0.0
 10
57.891111
 20
151.666370
 30
0.0
 10
57.632296
 20
151.632292
 30
0.0
 10
57.373481
 20
151.666370
 30
0.0
 10
57.132286
 20
151.766277
 30
0.0
 10
56.925197
 20
151.925186
 30
0.0
 10
56.766262
 20
152.132302
 30
0.0
 10
56.666355
 20
152.373469
 30
0.0
 10
56.632303
 20
152.632285
 30
0.0
 10
56.666355
 20
152.891100
 30
0.0
 10
56.766262
 20
153.132294
 30
0.0
 10
56.925197
 20
153.339410
 30
0.0
 10
57.132286
 20
153.498319
 30
0.0
 10
57.373481
 20
153.598226
 30
0.0
 10
57.632296
 20
153.632304
 30
0.0
 10
57.891111
 20
153.598226
 30
0.0
 10
58.132279
 20
153.498319
 30
0.0
 10
58.339395
 20
153.339410
 30
0.0
 10
58.498304
 20
153.132294
 30
0.0
 10
58.598210
 20
152.891100
 30
0.0
 10
58.632289
 20
152.632285
 30
0.0
 10
58.598210
 20
152.373469
 30
0.0
  0
LWPOLYLINE
  5
1d1
100
AcDbEntity
  8
Layer_1
 62
7
100
AcDbPolyline
 90
24
 70
1
 10
64.373482
 20
153.598226
 30
0.0
 10
64.632298
 20
153.632304
 30
0.0
 10
64.891113
 20
153.598226
 30
0.0
 10
65.132281
 20
153.498319
 30
0.0
 10
65.339397
 20
153.339410
 30
0.0
 10
65.498305
 20
153.132294
 30
0.0
 10
65.598212
 20
152.891100
 30
0.0
 10
65.632290
 20
152.632285
 30
0.0
 10
65.598212
 20
152.373469
 30
0.0
 10
65.498305
 20
152.132302
 30
0.0
 10
65.339397
 20
151.925186
 30
0.0
 10
65.132281
 20
151.766277
 30
0.0
 10
64.891113
 20
151.666370
 30
0.0
 10
64.632298
 20
151.632292
 30
0.0
 10
64.373482
 20
151.666370
 30
0.0
 10
64.132288
 20
151.766277
 30
0.0
 10
63.925172
 20
151.925186
 30
0.0
 10
63.766264
 20
152.132302
 30
0.0
 10
63.666357
 20
152.373469
 30
0.0
 10
63.632279
 20
152.632285
 30
0.0
 10
63.666357
 20
152.891100
 30
0.0
 10
63.766264
 20
153.132294
 30
0.0
 10
63.925172
 20
153.339410
 30
0.0
 10
64.132288
 20
153.498319
 30
0.0
  0
LWPOLYLINE
  5
1d2
100
AcDbEntity
  8
Layer_1
 62
7
100
AcDbPolyline
 90
24
 70
1
 10
72.498307
 20
152.132302
 30
0.0
 10
72.339398
 20
151.925186
 30
0.0
 10
72.132283
 20
151.766277
 30
0.0
 10
71.891115
 20
151.666370
 30
0.0
 10
71.632300
 20
151.632292
 30
0.0
 10
71.373484
 20
151.666370
 30
0.0
 10
71.132290
 20
151.766277
 30
0.0
 10
70.925174
 20
151.925186
 30
0.0
 10
70.766265
 20
152.132302
 30
0.0
 10
70.666359
 20
152.373469
 30
0.0
 10
70.632280
 20
152.632285
 30
0.0
 10
70.666359
 20
152.891100
 30
0.0
 10
70.766265
 20
153.132294
 30
0.0
 10
70.925174
 20
153.339410
 30
0.0
 10
71.132290
 20
153.498319
 30
0.0
 10
71.373484
 20
153.598226
 30
0.0
 10
71.632300
 20
153.632304
 30
0.0
 10
71.891115
 20
153.598226
 30
0.0
 10
72.132283
 20
153.498319
 30
0.0
 10
72.339398
 20
153.339410
 30
0.0
 10
72.498307
 20
153.132294
 30
0.0
 10
72.598214
 20
152.891100
 30
0.0
 10
72.632292
 20
152.632285
 30
0.0
 10
72.598214
 20
152.373469
 30
0.0
  0
LWPOLYLINE
  5
1d3
100
AcDbEntity
  8
Layer_1
 62
7
100
AcDbPolyline
 90
24
 70
1
 10
79.632294
 20
152.632285
 30
0.0
 10
79.598216
 20
152.373469
 30
0.0
 10
79.498309
 20
152.132302
 30
0.0
 10
79.339400
 20
151.925186
 30
0.0
 10
79.132284
 20
151.766277
 30
0.0
 10
78.891117
 20
151.666370
 30
0.0
 10
78.632301
 20
151.632292
 30
0.0
 10
78.373459
 20
151.666370
 30
0.0
 10
78.132292
 20
151.766277
 30
0.0
 10
77.925176
 20
151.925186
 30
0.0
 10
77.766267
 20
152.132302
 30
0.0
 10
77.666360
 20
152.373469
 30
0.0
 10
77.632282
 20
152.632285
 30
0.0
 10
77.666360
 20
152.891100
 30
0.0
 10
77.766267
 20
153.132294
 30
0.0
 10
77.925176
 20
153.339410
 30
0.0
 10
78.132292
 20
153.498319
 30
0.0
 10
78.373459
 20
153.598226
 30
0.0
 10
78.632301
 20
153.632304
 30
0.0
 10
78.891117
 20
153.598226
 30
0.0
 10
79.132284
 20
153.498319
 30
0.0
 10
79.339400
 20
153.339410
 30
0.0
 10
79.498309
 20
153.132294
 30
0.0
 10
79.598216
 20
152.891100
 30
0.0
  0
LWPOLYLINE
  5
1d4
100
AcDbEntity
  8
Layer_1
 62
7
100
AcDbPolyline
 90
24
 70
1
 10
86.132286
 20
153.498319
 30
0.0
 10
86.339402
 20
153.339410
 30
0.0
 10
86.498311
 20
153.132294
 30
0.0
 10
86.598217
 20
152.891100
 30
0.0
 10
86.632296
 20
152.632285
 30
0.0
 10
86.598217
 20
152.373469
 30
0.0
 10
86.498311
 20
152.132302
 30
0.0
 10
86.339402
 20
151.925186
 30
0.0
 10
86.132286
 20
151.766277
 30
0.0
 10
85.891118
 20
151.666370
 30
0.0
 10
85.632303
 20
151.632292
 30
0.0
 10
85.373461
 20
151.666370
 30
0.0
 10
85.132294
 20
151.766277
 30
0.0
 10
84.925178
 20
151.925186
 30
0.0
 10
84.766269
 20
152.132302
 30
0.0
 10
84.666362
 20
152.373469
 30
0.0
 10
84.632284
 20
152.632285
 30
0.0
 10
84.666362
 20
152.891100
 30
0.0
 10
84.766269
 20
153.132294
 30
0.0
 10
84.925178
 20
153.339410
 30
0.0
 10
85.132294
 20
153.498319
 30
0.0
 10
85.373461
 20
153.598226
 30
0.0
 10
85.632303
 20
153.632304
 30
0.0
 10
85.891118
 20
153.598226
 30
0.0
  0
LWPOLYLINE
  5
1d5
100
AcDbEntity
  8
Layer_1
 62
7
100
AcDbPolyline
 90
24
 70
1
 10
92.373463
 20
151.666370
 30
0.0
 10
92.132295
 20
151.766277
 30
0.0
 10
91.925179
 20
151.925186
 30
0.0
 10
91.766271
 20
152.132302
 30
0.0
 10
91.666364
 20
152.373469
 30
0.0
 10
91.632286
 20
152.632285
 30
0.0
 10
91.666364
 20
152.891100
 30
0.0
 10
91.766271
 20
153.132294
 30
0.0
 10
91.925179
 20
153.339410
 30
0.0
 10
92.132295
 20
153.498319
 30
0.0
 10
92.373463
 20
153.598226
 30
0.0
 10
92.632278
 20
153.632304
 30
0.0
 10
92.891120
 20
153.598226
 30
0.0
 10
93.132288
 20
153.498319
 30
0.0
 10
93.339404
 20
153.339410
 30
0.0
 10
93.498313
 20
153.132294
 30
0.0
 10
93.598219
 20
152.891100
 30
0.0
 10
93.632298
 20
152.632285
 30
0.0
 10
93.598219
 20
152.373469
 30
0.0
 10
93.498313
 20
152.132302
 30
0.0
 10
93.339404
 20
151.925186
 30
0.0
 10
93.132288
 20
151.766277
 30
0.0
 10
92.891120
 20
151.666370
 30
0.0
 10
92.632278
 20
151.632292
 30
0.0
  0
LWPOLYLINE
  5
1d6
100
AcDbEntity
  8
Layer_1
 62
7
100
AcDbPolyline
 90
24
 70
1
 10
99.373465
 20
153.598226
 30
0.0
 10
99.632280
 20
153.632304
 30
0.0
 10
99.891122
 20
153.598226
 30
0.0
 10
100.132290
 20
153.498319
 30
0.0
 10
100.339406
 20
153.339410
 30
0.0
 10
100.498314
 20
153.132294
 30
0.0
 10
100.598221
 20
152.891100
 30
0.0
 10
100.632299
 20
152.632285
 30
0.0
 10
100.598221
 20
152.373469
 30
0.0
 10
100.498314
 20
152.132302
 30
0.0
 10
100.339406
 20
151.925186
 30
0.0
 10
100.132290
 20
151.766277
 30
0.0
 10
99.891122
 20
151.666370
 30
0.0
 10
99.632280
 20
151.632292
 30
0.0
 10
99.373465
 20
151.666370
 30
0.0
 10
99.132297
 20
151.766277
 30
0.0
 10
98.925181
 20
151.925186
 30
0.0
 10
98.766273
 20
152.132302
 30
0.0
 10
98.666366
 20
152.373469
 30
0.0
 10
98.632288
 20
152.632285
 30
0.0
 10
98.666366
 20
152.891100
 30
0.0
 10
98.766273
 20
153.132294
 30
0.0
 10
98.925181
 20
153.339410
 30
0.0
 10
99.132297
 20
153.498319
 30
0.0
  0
LWPOLYLINE
  5
1d7
100
AcDbEntity
  8
Layer_1
 62
7
100
AcDbPolyline
 90
24
 70
1
 10
107.598223
 20
152.891100
 30
0.0
 10
107.632301
 20
152.632285
 30
0.0
 10
107.598223
 20
152.373469
 30
0.0
 10
107.498316
 20
152.132302
 30
0.0
 10
107.339407
 20
151.925186
 30
0.0
 10
107.132292
 20
151.766277
 30
0.0
 10
106.891097
 20
151.666370
 30
0.0
 10
106.632282
 20
151.632292
 30
0.0
 10
106.373467
 20
151.666370
 30
0.0
 10
106.132299
 20
151.766277
 30
0.0
 10
105.925183
 20
151.925186
 30
0.0
 10
105.766274
 20
152.132302
 30
0.0
 10
105.666368
 20
152.373469
 30
0.0
 10
105.632289
 20
152.632285
 30
0.0
 10
105.666368
 20
152.891100
 30
0.0
 10
105.766274
 20
153.132294
 30
0.0
 10
105.925183
 20
153.339410
 30
0.0
 10
106.132299
 20
153.498319
 30
0.0
 10
106.373467
 20
153.598226
 30
0.0
 10
106.632282
 20
153.632304
 30
0.0
 10
106.891097
 20
153.598226
 30
0.0
 10
107.132292
 20
153.498319
 30
0.0
 10
107.339407
 20
153.339410
 30
0.0
 10
107.498316
 20
153.132294
 30
0.0
  0
LWPOLYLINE
  5
1d8
100
AcDbEntity
  8
Layer_1
 62
7
100
AcDbPolyline
 90
24
 70
1
 10
114.339409
 20
151.925186
 30
0.0
 10
114.132293
 20
151.766277
 30
0.0
 10
113.891099
 20
151.666370
 30
0.0
 10
113.632284
 20
151.632292
 30
0.0
 10
113.373468
 20
151.666370
 30
0.0
 10
113.132301
 20
151.766277
 30
0.0
 10
112.925185
 20
151.925186
 30
0.0
 10
112.766276
 20
152.132302
 30
0.0
 10
112.666369
 20
152.373469
 30
0.0
 10
112.632291
 20
152.632285
 30
0.0
 10
112.666369
 20
152.891100
 30
0.0
 10
112.766276
 20
153.132294
 30
0.0
 10
112.925185
 20
153.339410
 30
0.0
 10
113.132301
 20
153.498319
 30
0.0
 10
113.373468
 20
153.598226
 30
0.0
 10
113.632284
 20
153.632304
 30
0.0
 10
113.891099
 20
153.598226
 30
0.0
 10
114.132293
 20
153.498319
 30
0.0
 10
114.339409
 20
153.339410
 30
0.0
 10
114.498318
 20
153.132294
 30
0.0
 10
114.598225
 20
152.891100
 30
0.0
 10
114.632303
 20
152.632285
 30
0.0
 10
114.598225
 20
152.373469
 30
0.0
 10
114.498318
 20
152.132302
 30
0.0
  0
LWPOLYLINE
  5
1d9
100
AcDbEntity
  8
Layer_1
 62
7
100
AcDbPolyline
 90
24
 70
1
 10
181.132280
 20
162.132282
 30
0.0
 10
181.030072
 20
162.908754
 30
0.0
 10
180.730378
 20
163.632284
 30
0.0
 10
180.253599
 20
164.253605
 30
0.0
 10
179.632278
 20
164.730358
 30
0.0
 10
178.908748
 20
165.030078
 30
0.0
 10
178.132302
 20
165.132286
 30
0.0
 10
177.355829
 20
165.030078
 30
0.0
 10
176.632300
 20
164.730358
 30
0.0
 10
176.010979
 20
164.253605
 30
0.0
 10
175.534226
 20
163.632284
 30
0.0
 10
175.234506
 20
162.908754
 30
0.0
 10
175.132298
 20
162.132282
 30
0.0
 10
175.234506
 20
161.355835
 30
0.0
 10
175.534226
 20
160.632306
 30
0.0
 10
176.010979
 20
160.010985
 30
0.0
 10
176.632300
 20
159.534206
 30
0.0
 10
177.355829
 20
159.234512
 30
0.0
 10
178.132302
 20
159.132303
 30
0.0
 10
178.908748
 20
159.234512
 30
0.0
 10
179.632278
 20
159.534206
 30
0.0
 10
180.253599
 20
160.010985
 30
0.0
 10
180.730378
 20
160.632306
 30
0.0
 10
181.030072
 20
161.355835
 30
0.0
  0
LWPOLYLINE
  5
1da
100
AcDbEntity
  8
Layer_1
 62
7
100
AcDbPolyline
 90
24
 70
1
 10
20.132292
 20
162.132282
 30
0.0
 10
20.030057
 20
162.908754
 30
0.0
 10
19.730363
 20
163.632284
 30
0.0
 10
19.253611
 20
164.253605
 30
0.0
 10
18.632290
 20
164.730358
 30
0.0
 10
17.908760
 20
165.030078
 30
0.0
 10
17.132287
 20
165.132286
 30
0.0
 10
16.355841
 20
165.030078
 30
0.0
 10
15.632285
 20
164.730358
 30
0.0
 10
15.010964
 20
164.253605
 30
0.0
 10
14.534211
 20
163.632284
 30
0.0
 10
14.234518
 20
162.908754
 30
0.0
 10
14.132283
 20
162.132282
 30
0.0
 10
14.234518
 20
161.355835
 30
0.0
 10
14.534211
 20
160.632306
 30
0.0
 10
15.010964
 20
160.010985
 30
0.0
 10
15.632285
 20
159.534206
 30
0.0
 10
16.355841
 20
159.234512
 30
0.0
 10
17.132287
 20
159.132303
 30
0.0
 10
17.908760
 20
159.234512
 30
0.0
 10
18.632290
 20
159.534206
 30
0.0
 10
19.253611
 20
160.010985
 30
0.0
 10
19.730363
 20
160.632306
 30
0.0
 10
20.030057
 20
161.355835
 30
0.0
  0
LWPOLYLINE
  5
1db
100
AcDbEntity
  8
Layer_1
 62
7
100
AcDbPolyline
 90
2
 70
0
 10
128.132297
 20
178.132297
 30
0.0
 10
128.132297
 20
168.132291
 30
0.0
  0
LWPOLYLINE
  5
1dc
100
AcDbEntity
  8
Layer_1
 62
7
100
AcDbPolyline
 90
2
 70
0
 10
78.132292
 20
168.132291
 30
0.0
 10
128.132297
 20
168.132291
 30
0.0
  0
LWPOLYLINE
  5
1dd
100
AcDbEntity
  8
Layer_1
 62
7
100
AcDbPolyline
 90
2
 70
0
 10
78.132292
 20
200.632294
 30
0.0
 10
78.132292
 20
168.132291
 30
0.0
  0
LWPOLYLINE
  5
1de
100
AcDbEntity
  8
Layer_1
 62
7
100
AcDbPolyline
 90
2
 70
0
 10
74.132294
 20
200.632294
 30
0.0
 10
78.132292
 20
200.632294
 30
0.0
  0
LWPOLYLINE
  5
1df
100
AcDbEntity
  8
Layer_1
 62
7
100
AcDbPolyline
 90
2
 70
0
 10
74.132294
 20
174.132300
 30
0.0
 10
74.132294
 20
200.632294
 30
0.0
  0
LWPOLYLINE
  5
1e0
100
AcDbEntity
  8
Layer_1
 62
7
100
AcDbPolyline
 90
2
 70
0
 10
29.132279
 20
168.132291
 30
0.0
 10
68.132285
 20
168.132291
 30
0.0
  0
LWPOLYLINE
  5
1e1
100
AcDbEntity
  8
Layer_1
 62
7
100
AcDbPolyline
 90
2
 70
0
 10
23.132297
 20
266.132292
 30
0.0
 10
23.132297
 20
174.132300
 30
0.0
  0
LWPOLYLINE
  5
1e2
100
AcDbEntity
  8
Layer_1
 62
7
100
AcDbPolyline
 90
2
 70
0
 10
29.132279
 20
272.132293
 30
0.0
 10
166.132284
 20
272.132293
 30
0.0
  0
LWPOLYLINE
  5
1e3
100
AcDbEntity
  8
Layer_1
 62
7
100
AcDbPolyline
 90
2
 70
0
 10
172.132293
 20
266.132292
 30
0.0
 10
172.132293
 20
184.132293
 30
0.0
  0
LWPOLYLINE
  5
1e4
100
AcDbEntity
  8
Layer_1
 62
7
100
AcDbPolyline
 90
2
 70
0
 10
128.132297
 20
178.132297
 30
0.0
 10
166.132284
 20
178.132297
 30
0.0
  0
LWPOLYLINE
  5
1e5
100
AcDbEntity
  8
Layer_1
 62
7
100
AcDbPolyline
 90
13
 70
0
 10
68.132285
 20
168.132291
 30
0.0
 10
68.915452
 20
168.183620
 30
0.0
 10
69.685204
 20
168.336734
 30
0.0
 10
70.428392
 20
168.589014
 30
0.0
 10
71.132290
 20
168.936148
 30
0.0
 10
71.784858
 20
169.372181
 30
0.0
 10
72.374932
 20
169.889653
 30
0.0
 10
72.892404
 20
170.479727
 30
0.0
 10
73.328437
 20
171.132295
 30
0.0
 10
73.675571
 20
171.836193
 30
0.0
 10
73.927851
 20
172.579381
 30
0.0
 10
74.080965
 20
173.349133
 30
0.0
 10
74.132294
 20
174.132300
 30
0.0
  0
LWPOLYLINE
  5
1e6
100
AcDbEntity
  8
Layer_1
 62
7
100
AcDbPolyline
 90
13
 70
0
 10
29.132279
 20
168.132291
 30
0.0
 10
28.349139
 20
168.183620
 30
0.0
 10
27.579387
 20
168.336734
 30
0.0
 10
26.836199
 20
168.589014
 30
0.0
 10
26.132301
 20
168.936148
 30
0.0
 10
25.479733
 20
169.372181
 30
0.0
 10
24.889659
 20
169.889653
 30
0.0
 10
24.372161
 20
170.479727
 30
0.0
 10
23.936127
 20
171.132295
 30
0.0
 10
23.589020
 20
171.836193
 30
0.0
 10
23.336740
 20
172.579381
 30
0.0
 10
23.183626
 20
173.349133
 30
0.0
 10
23.132297
 20
174.132300
 30
0.0
  0
LWPOLYLINE
  5
1e7
100
AcDbEntity
  8
Layer_1
 62
7
100
AcDbPolyline
 90
13
 70
0
 10
23.132297
 20
266.132292
 30
0.0
 10
23.183626
 20
266.915451
 30
0.0
 10
23.336740
 20
267.685205
 30
0.0
 10
23.589020
 20
268.428394
 30
0.0
 10
23.936127
 20
269.132291
 30
0.0
 10
24.372161
 20
269.784862
 30
0.0
 10
24.889659
 20
270.374933
 30
0.0
 10
25.479733
 20
270.892413
 30
0.0
 10
26.132301
 20
271.328444
 30
0.0
 10
26.836199
 20
271.675569
 30
0.0
 10
27.579387
 20
271.927847
 30
0.0
 10
28.349139
 20
272.080961
 30
0.0
 10
29.132279
 20
272.132293
 30
0.0
  0
LWPOLYLINE
  5
1e8
100
AcDbEntity
  8
Layer_1
 62
7
100
AcDbPolyline
 90
13
 70
0
 10
172.132293
 20
266.132292
 30
0.0
 10
172.080964
 20
266.915451
 30
0.0
 10
171.927850
 20
267.685205
 30
0.0
 10
171.675569
 20
268.428394
 30
0.0
 10
171.328436
 20
269.132291
 30
0.0
 10
170.892403
 20
269.784862
 30
0.0
 10
170.374931
 20
270.374933
 30
0.0
 10
169.784857
 20
270.892413
 30
0.0
 10
169.132288
 20
271.328444
 30
0.0
 10
168.428391
 20
271.675569
 30
0.0
 10
167.685203
 20
271.927847
 30
0.0
 10
166.915451
 20
272.080961
 30
0.0
 10
166.132284
 20
272.132293
 30
0.0
  0
LWPOLYLINE
  5
1e9
100
AcDbEntity
  8
Layer_1
 62
7
100
AcDbPolyline
 90
13
 70
0
 10
166.132284
 20
178.132297
 30
0.0
 10
166.915451
 20
178.183626
 30
0.0
 10
167.685203
 20
178.336740
 30
0.0
 10
168.428391
 20
178.589021
 30
0.0
 10
169.132288
 20
178.936154
 30
0.0
 10
169.784857
 20
179.372161
 30
0.0
 10
170.374931
 20
179.889659
 30
0.0
 10
170.892403
 20
180.479733
 30
0.0
 10
171.328436
 20
181.132301
 30
0.0
 10
171.675569
 20
181.836199
 30
0.0
 10
171.927850
 20
182.579379
 30
0.0
 10
172.080964
 20
183.349137
 30
0.0
 10
172.132293
 20
184.132293
 30
0.0
  0
LWPOLYLINE
  5
1ea
100
AcDbEntity
  8
Layer_1
 62
7
100
AcDbPolyline
 90
2
 70
0
 10
200.132288
 20
259.132293
 30
0.0
 10
200.132288
 20
278.132291
 30
0.0
  0
LWPOLYLINE
  5
1eb
100
AcDbEntity
  8
Layer_1
 62
7
100
AcDbPolyline
 90
2
 70
0
 10
224.132271
 20
259.132293
 30
0.0
 10
200.132288
 20
259.132293
 30
0.0
  0
LWPOLYLINE
  5
1ec
100
AcDbEntity
  8
Layer_1
 62
7
100
AcDbPolyline
 90
2
 70
0
 10
218.132289
 20
266.132292
 30
0.0
 10
218.132289
 20
265.132291
 30
0.0
  0
LWPOLYLINE
  5
1ed
100
AcDbEntity
  8
Layer_1
 62
7
100
AcDbPolyline
 90
2
 70
0
 10
224.132271
 20
272.132293
 30
0.0
 10
361.132276
 20
272.132293
 30
0.0
  0
LWPOLYLINE
  5
1ee
100
AcDbEntity
  8
Layer_1
 62
7
100
AcDbPolyline
 90
2
 70
0
 10
367.132285
 20
266.132292
 30
0.0
 10
367.132285
 20
184.132293
 30
0.0
  0
LWPOLYLINE
  5
1ef
100
AcDbEntity
  8
Layer_1
 62
7
100
AcDbPolyline
 90
2
 70
0
 10
323.132289
 20
178.132297
 30
0.0
 10
361.132276
 20
178.132297
 30
0.0
  0
LWPOLYLINE
  5
1f0
100
AcDbEntity
  8
Layer_1
 62
7
100
AcDbPolyline
 90
2
 70
0
 10
323.132289
 20
168.132291
 30
0.0
 10
323.132289
 20
178.132297
 30
0.0
  0
LWPOLYLINE
  5
1f1
100
AcDbEntity
  8
Layer_1
 62
7
100
AcDbPolyline
 90
2
 70
0
 10
273.132284
 20
168.132291
 30
0.0
 10
323.132289
 20
168.132291
 30
0.0
  0
LWPOLYLINE
  5
1f2
100
AcDbEntity
  8
Layer_1
 62
7
100
AcDbPolyline
 90
4
 70
0
 10
273.132284
 20
168.132291
 30
0.0
 10
273.132284
 20
200.632294
 30
0.0
 10
269.132286
 20
200.632294
 30
0.0
 10
269.132286
 20
174.132300
 30
0.0
  0
LWPOLYLINE
  5
1f3
100
AcDbEntity
  8
Layer_1
 62
7
100
AcDbPolyline
 90
2
 70
0
 10
224.132271
 20
168.132291
 30
0.0
 10
263.132277
 20
168.132291
 30
0.0
  0
LWPOLYLINE
  5
1f4
100
AcDbEntity
  8
Layer_1
 62
7
100
AcDbPolyline
 90
2
 70
0
 10
218.132289
 20
233.132292
 30
0.0
 10
218.132289
 20
174.132300
 30
0.0
  0
LWPOLYLINE
  5
1f5
100
AcDbEntity
  8
Layer_1
 62
7
100
AcDbPolyline
 90
2
 70
0
 10
200.132288
 20
239.132293
 30
0.0
 10
224.132271
 20
239.132293
 30
0.0
  0
LWPOLYLINE
  5
1f6
100
AcDbEntity
  8
Layer_1
 62
7
100
AcDbPolyline
 90
2
 70
0
 10
200.132288
 20
162.132282
 30
0.0
 10
200.132288
 20
239.132293
 30
0.0
  0
LWPOLYLINE
  5
1f7
100
AcDbEntity
  8
Layer_1
 62
7
100
AcDbPolyline
 90
2
 70
0
 10
373.132268
 20
150.132290
 30
0.0
 10
212.132279
 20
150.132290
 30
0.0
  0
LWPOLYLINE
  5
1f8
100
AcDbEntity
  8
Layer_1
 62
7
100
AcDbPolyline
 90
2
 70
0
 10
385.132286
 20
278.132291
 30
0.0
 10
385.132286
 20
162.132282
 30
0.0
  0
LWPOLYLINE
  5
1f9
100
AcDbEntity
  8
Layer_1
 62
7
100
AcDbPolyline
 90
2
 70
0
 10
375.132279
 20
289.943365
 30
0.0
 10
375.147096
 20
283.783924
 30
0.0
  0
LWPOLYLINE
  5
1fa
100
AcDbEntity
  8
Layer_1
 62
7
100
AcDbPolyline
 90
2
 70
0
 10
371.132282
 20
290.132291
 30
0.0
 10
371.117466
 20
283.783924
 30
0.0
  0
LWPOLYLINE
  5
1fb
100
AcDbEntity
  8
Layer_1
 62
7
100
AcDbPolyline
 90
2
 70
0
 10
214.132291
 20
290.132291
 30
0.0
 10
371.132282
 20
290.132291
 30
0.0
  0
LWPOLYLINE
  5
1fc
100
AcDbEntity
  8
Layer_1
 62
7
100
AcDbPolyline
 90
2
 70
0
 10
214.132291
 20
290.132291
 30
0.0
 10
214.147108
 20
283.783924
 30
0.0
  0
LWPOLYLINE
  5
1fd
100
AcDbEntity
  8
Layer_1
 62
7
100
AcDbPolyline
 90
2
 70
0
 10
210.132294
 20
289.943365
 30
0.0
 10
210.117477
 20
283.783924
 30
0.0
  0
LWPOLYLINE
  5
1fe
100
AcDbEntity
  8
Layer_1
 62
7
100
AcDbPolyline
 90
13
 70
0
 10
218.132289
 20
265.132291
 30
0.0
 10
218.183618
 20
264.349135
 30
0.0
 10
218.336732
 20
263.579378
 30
0.0
 10
218.589012
 20
262.836192
 30
0.0
 10
218.936119
 20
262.132292
 30
0.0
 10
219.372152
 20
261.479724
 30
0.0
 10
219.889651
 20
260.889652
 30
0.0
 10
220.479725
 20
260.372172
 30
0.0
 10
221.132293
 20
259.936139
 30
0.0
 10
221.836191
 20
259.589016
 30
0.0
 10
222.579379
 20
259.336739
 30
0.0
 10
223.349131
 20
259.183624
 30
0.0
 10
224.132271
 20
259.132293
 30
0.0
  0
LWPOLYLINE
  5
1ff
100
AcDbEntity
  8
Layer_1
 62
7
100
AcDbPolyline
 90
13
 70
0
 10
218.132289
 20
266.132292
 30
0.0
 10
218.183618
 20
266.915451
 30
0.0
 10
218.336732
 20
267.685205
 30
0.0
 10
218.589012
 20
268.428394
 30
0.0
 10
218.936119
 20
269.132291
 30
0.0
 10
219.372152
 20
269.784862
 30
0.0
 10
219.889651
 20
270.374933
 30
0.0
 10
220.479725
 20
270.892413
 30
0.0
 10
221.132293
 20
271.328444
 30
0.0
 10
221.836191
 20
271.675569
 30
0.0
 10
222.579379
 20
271.927847
 30
0.0
 10
223.349131
 20
272.080961
 30
0.0
 10
224.132271
 20
272.132293
 30
0.0
  0
LWPOLYLINE
  5
200
100
AcDbEntity
  8
Layer_1
 62
7
100
AcDbPolyline
 90
13
 70
0
 10
367.132285
 20
266.132292
 30
0.0
 10
367.080956
 20
266.915451
 30
0.0
 10
366.927841
 20
267.685205
 30
0.0
 10
366.675561
 20
268.428394
 30
0.0
 10
366.328428
 20
269.132291
 30
0.0
 10
365.892395
 20
269.784862
 30
0.0
 10
365.374922
 20
270.374933
 30
0.0
 10
364.784849
 20
270.892413
 30
0.0
 10
364.132280
 20
271.328444
 30
0.0
 10
363.428383
 20
271.675569
 30
0.0
 10
362.685195
 20
271.927847
 30
0.0
 10
361.915443
 20
272.080961
 30
0.0
 10
361.132276
 20
272.132293
 30
0.0
  0
LWPOLYLINE
  5
201
100
AcDbEntity
  8
Layer_1
 62
7
100
AcDbPolyline
 90
13
 70
0
 10
367.132285
 20
184.132293
 30
0.0
 10
367.080956
 20
183.349137
 30
0.0
 10
366.927841
 20
182.579379
 30
0.0
 10
366.675561
 20
181.836199
 30
0.0
 10
366.328428
 20
181.132301
 30
0.0
 10
365.892395
 20
180.479733
 30
0.0
 10
365.374922
 20
179.889659
 30
0.0
 10
364.784849
 20
179.372161
 30
0.0
 10
364.132280
 20
178.936154
 30
0.0
 10
363.428383
 20
178.589021
 30
0.0
 10
362.685195
 20
178.336740
 30
0.0
 10
361.915443
 20
178.183626
 30
0.0
 10
361.132276
 20
178.132297
 30
0.0
  0
LWPOLYLINE
  5
202
100
AcDbEntity
  8
Layer_1
 62
7
100
AcDbPolyline
 90
13
 70
0
 10
269.132286
 20
174.132300
 30
0.0
 10
269.080957
 20
173.349133
 30
0.0
 10
268.927843
 20
172.579381
 30
0.0
 10
268.675563
 20
171.836193
 30
0.0
 10
268.328429
 20
171.132295
 30
0.0
 10
267.892396
 20
170.479727
 30
0.0
 10
267.374924
 20
169.889653
 30
0.0
 10
266.784850
 20
169.372181
 30
0.0
 10
266.132282
 20
168.936148
 30
0.0
 10
265.428384
 20
168.589014
 30
0.0
 10
264.685196
 20
168.336734
 30
0.0
 10
263.915444
 20
168.183620
 30
0.0
 10
263.132277
 20
168.132291
 30
0.0
  0
LWPOLYLINE
  5
203
100
AcDbEntity
  8
Layer_1
 62
7
100
AcDbPolyline
 90
13
 70
0
 10
218.132289
 20
174.132300
 30
0.0
 10
218.183618
 20
173.349133
 30
0.0
 10
218.336732
 20
172.579381
 30
0.0
 10
218.589012
 20
171.836193
 30
0.0
 10
218.936119
 20
171.132295
 30
0.0
 10
219.372152
 20
170.479727
 30
0.0
 10
219.889651
 20
169.889653
 30
0.0
 10
220.479725
 20
169.372181
 30
0.0
 10
221.132293
 20
168.936148
 30
0.0
 10
221.836191
 20
168.589014
 30
0.0
 10
222.579379
 20
168.336734
 30
0.0
 10
223.349131
 20
168.183620
 30
0.0
 10
224.132271
 20
168.132291
 30
0.0
  0
LWPOLYLINE
  5
204
100
AcDbEntity
  8
Layer_1
 62
7
100
AcDbPolyline
 90
13
 70
0
 10
224.132271
 20
239.132293
 30
0.0
 10
223.349131
 20
239.080961
 30
0.0
 10
222.579379
 20
238.927847
 30
0.0
 10
221.836191
 20
238.675569
 30
0.0
 10
221.132293
 20
238.328444
 30
0.0
 10
220.479725
 20
237.892413
 30
0.0
 10
219.889651
 20
237.374933
 30
0.0
 10
219.372152
 20
236.784862
 30
0.0
 10
218.936119
 20
236.132291
 30
0.0
 10
218.589012
 20
235.428394
 30
0.0
 10
218.336732
 20
234.685208
 30
0.0
 10
218.183618
 20
233.915451
 30
0.0
 10
218.132289
 20
233.132292
 30
0.0
  0
LWPOLYLINE
  5
205
100
AcDbEntity
  8
Layer_1
 62
7
100
AcDbPolyline
 90
13
 70
0
 10
212.132279
 20
150.132290
 30
0.0
 10
210.565973
 20
150.234948
 30
0.0
 10
209.026442
 20
150.541177
 30
0.0
 10
207.540092
 20
151.045737
 30
0.0
 10
206.132270
 20
151.739977
 30
0.0
 10
204.827134
 20
152.612044
 30
0.0
 10
203.647013
 20
153.647015
 30
0.0
 10
202.612042
 20
154.827162
 30
0.0
 10
201.739975
 20
156.132299
 30
0.0
 10
201.045735
 20
157.540094
 30
0.0
 10
200.541175
 20
159.026470
 30
0.0
 10
200.234946
 20
160.565975
 30
0.0
 10
200.132288
 20
162.132282
 30
0.0
  0
LWPOLYLINE
  5
206
100
AcDbEntity
  8
Layer_1
 62
7
100
AcDbPolyline
 90
13
 70
0
 10
373.132268
 20
150.132290
 30
0.0
 10
374.698601
 20
150.234948
 30
0.0
 10
376.238105
 20
150.541177
 30
0.0
 10
377.724482
 20
151.045737
 30
0.0
 10
379.132277
 20
151.739977
 30
0.0
 10
380.437413
 20
152.612044
 30
0.0
 10
381.617561
 20
153.647015
 30
0.0
 10
382.652531
 20
154.827162
 30
0.0
 10
383.524572
 20
156.132299
 30
0.0
 10
384.218838
 20
157.540094
 30
0.0
 10
384.723399
 20
159.026470
 30
0.0
 10
385.029627
 20
160.565975
 30
0.0
 10
385.132286
 20
162.132282
 30
0.0
  0
LWPOLYLINE
  5
207
100
AcDbEntity
  8
Layer_1
 62
7
100
AcDbPolyline
 90
12
 70
0
 10
375.132279
 20
289.943365
 30
0.0
 10
376.624503
 20
289.612898
 30
0.0
 10
378.056534
 20
289.075408
 30
0.0
 10
379.408555
 20
288.360123
 30
0.0
 10
380.658579
 20
287.478663
 30
0.0
 10
381.786365
 20
286.445357
 30
0.0
 10
382.773525
 20
285.276983
 30
0.0
 10
383.604026
 20
283.992532
 30
0.0
 10
384.264426
 20
282.612867
 30
0.0
 10
384.743930
 20
281.160408
 30
0.0
 10
385.034787
 20
279.658749
 30
0.0
 10
385.132286
 20
278.132291
 30
0.0
  0
LWPOLYLINE
  5
208
100
AcDbEntity
  8
Layer_1
 62
7
100
AcDbPolyline
 90
23
 70
0
 10
375.146990
 20
283.783924
 30
0.0
 10
376.504805
 20
283.094761
 30
0.0
 10
377.645398
 20
282.085987
 30
0.0
 10
378.495345
 20
280.822572
 30
0.0
 10
378.999853
 20
279.385890
 30
0.0
 10
379.126482
 20
277.868467
 30
0.0
 10
378.867032
 20
276.368037
 30
0.0
 10
378.238250
 20
274.981236
 30
0.0
 10
377.280590
 20
273.797379
 30
0.0
 10
376.055781
 20
272.892716
 30
0.0
 10
374.642668
 20
272.325510
 30
0.0
 10
373.132268
 20
272.132293
 30
0.0
 10
371.621894
 20
272.325510
 30
0.0
 10
370.208781
 20
272.892716
 30
0.0
 10
368.983971
 20
273.797379
 30
0.0
 10
368.026312
 20
274.981236
 30
0.0
 10
367.397530
 20
276.368037
 30
0.0
 10
367.138079
 20
277.868467
 30
0.0
 10
367.264709
 20
279.385890
 30
0.0
 10
367.769216
 20
280.822572
 30
0.0
 10
368.619164
 20
282.085987
 30
0.0
 10
369.759756
 20
283.094761
 30
0.0
 10
371.117571
 20
283.783924
 30
0.0
  0
LWPOLYLINE
  5
209
100
AcDbEntity
  8
Layer_1
 62
7
100
AcDbPolyline
 90
23
 70
0
 10
210.117583
 20
283.783924
 30
0.0
 10
208.759768
 20
283.094761
 30
0.0
 10
207.619149
 20
282.085987
 30
0.0
 10
206.769228
 20
280.822572
 30
0.0
 10
206.264694
 20
279.385890
 30
0.0
 10
206.138091
 20
277.868467
 30
0.0
 10
206.397515
 20
276.368037
 30
0.0
 10
207.026324
 20
274.981236
 30
0.0
 10
207.983957
 20
273.797379
 30
0.0
 10
209.208792
 20
272.892716
 30
0.0
 10
210.621905
 20
272.325510
 30
0.0
 10
212.132279
 20
272.132293
 30
0.0
 10
213.642680
 20
272.325510
 30
0.0
 10
215.055766
 20
272.892716
 30
0.0
 10
216.280602
 20
273.797379
 30
0.0
 10
217.238235
 20
274.981236
 30
0.0
 10
217.867044
 20
276.368037
 30
0.0
 10
218.126468
 20
277.868467
 30
0.0
 10
217.999865
 20
279.385890
 30
0.0
 10
217.495331
 20
280.822572
 30
0.0
 10
216.645410
 20
282.085987
 30
0.0
 10
215.504817
 20
283.094761
 30
0.0
 10
214.147002
 20
283.783924
 30
0.0
  0
LWPOLYLINE
  5
20a
100
AcDbEntity
  8
Layer_1
 62
7
100
AcDbPolyline
 90
12
 70
0
 10
210.132294
 20
289.943365
 30
0.0
 10
208.640044
 20
289.612898
 30
0.0
 10
207.208040
 20
289.075408
 30
0.0
 10
205.856019
 20
288.360123
 30
0.0
 10
204.605968
 20
287.478663
 30
0.0
 10
203.478208
 20
286.445357
 30
0.0
 10
202.491048
 20
285.276983
 30
0.0
 10
201.660521
 20
283.992532
 30
0.0
 10
201.000147
 20
282.612867
 30
0.0
 10
200.520617
 20
281.160408
 30
0.0
 10
200.229760
 20
279.658749
 30
0.0
 10
200.132288
 20
278.132291
 30
0.0
  0
LWPOLYLINE
  5
20b
100
AcDbEntity
  8
Layer_1
 62
7
100
AcDbPolyline
 90
24
 70
1
 10
232.632275
 20
152.632285
 30
0.0
 10
232.598197
 20
152.373469
 30
0.0
 10
232.498317
 20
152.132302
 30
0.0
 10
232.339381
 20
151.925186
 30
0.0
 10
232.132292
 20
151.766277
 30
0.0
 10
231.891098
 20
151.666370
 30
0.0
 10
231.632283
 20
151.632292
 30
0.0
 10
231.373467
 20
151.666370
 30
0.0
 10
231.132273
 20
151.766277
 30
0.0
 10
230.925184
 20
151.925186
 30
0.0
 10
230.766248
 20
152.132302
 30
0.0
 10
230.666368
 20
152.373469
 30
0.0
 10
230.632290
 20
152.632285
 30
0.0
 10
230.666368
 20
152.891100
 30
0.0
 10
230.766248
 20
153.132294
 30
0.0
 10
230.925184
 20
153.339410
 30
0.0
 10
231.132273
 20
153.498319
 30
0.0
 10
231.373467
 20
153.598226
 30
0.0
 10
231.632283
 20
153.632304
 30
0.0
 10
231.891098
 20
153.598226
 30
0.0
 10
232.132292
 20
153.498319
 30
0.0
 10
232.339381
 20
153.339410
 30
0.0
 10
232.498317
 20
153.132294
 30
0.0
 10
232.598197
 20
152.891100
 30
0.0
  0
LWPOLYLINE
  5
20c
100
AcDbEntity
  8
Layer_1
 62
7
100
AcDbPolyline
 90
24
 70
1
 10
239.632277
 20
152.632285
 30
0.0
 10
239.598199
 20
152.373469
 30
0.0
 10
239.498318
 20
152.132302
 30
0.0
 10
239.339383
 20
151.925186
 30
0.0
 10
239.132294
 20
151.766277
 30
0.0
 10
238.891100
 20
151.666370
 30
0.0
 10
238.632284
 20
151.632292
 30
0.0
 10
238.373469
 20
151.666370
 30
0.0
 10
238.132275
 20
151.766277
 30
0.0
 10
237.925185
 20
151.925186
 30
0.0
 10
237.766250
 20
152.132302
 30
0.0
 10
237.666343
 20
152.373469
 30
0.0
 10
237.632292
 20
152.632285
 30
0.0
 10
237.666343
 20
152.891100
 30
0.0
 10
237.766250
 20
153.132294
 30
0.0
 10
237.925185
 20
153.339410
 30
0.0
 10
238.132275
 20
153.498319
 30
0.0
 10
238.373469
 20
153.598226
 30
0.0
 10
238.632284
 20
153.632304
 30
0.0
 10
238.891100
 20
153.598226
 30
0.0
 10
239.132294
 20
153.498319
 30
0.0
 10
239.339383
 20
153.339410
 30
0.0
 10
239.498318
 20
153.132294
 30
0.0
 10
239.598199
 20
152.891100
 30
0.0
  0
LWPOLYLINE
  5
20d
100
AcDbEntity
  8
Layer_1
 62
7
100
AcDbPolyline
 90
24
 70
1
 10
246.632279
 20
152.632285
 30
0.0
 10
246.598200
 20
152.373469
 30
0.0
 10
246.498294
 20
152.132302
 30
0.0
 10
246.339385
 20
151.925186
 30
0.0
 10
246.132269
 20
151.766277
 30
0.0
 10
245.891101
 20
151.666370
 30
0.0
 10
245.632286
 20
151.632292
 30
0.0
 10
245.373471
 20
151.666370
 30
0.0
 10
245.132277
 20
151.766277
 30
0.0
 10
244.925187
 20
151.925186
 30
0.0
 10
244.766252
 20
152.132302
 30
0.0
 10
244.666345
 20
152.373469
 30
0.0
 10
244.632293
 20
152.632285
 30
0.0
 10
244.666345
 20
152.891100
 30
0.0
 10
244.766252
 20
153.132294
 30
0.0
 10
244.925187
 20
153.339410
 30
0.0
 10
245.132277
 20
153.498319
 30
0.0
 10
245.373471
 20
153.598226
 30
0.0
 10
245.632286
 20
153.632304
 30
0.0
 10
245.891101
 20
153.598226
 30
0.0
 10
246.132269
 20
153.498319
 30
0.0
 10
246.339385
 20
153.339410
 30
0.0
 10
246.498294
 20
153.132294
 30
0.0
 10
246.598200
 20
152.891100
 30
0.0
  0
LWPOLYLINE
  5
20e
100
AcDbEntity
  8
Layer_1
 62
7
100
AcDbPolyline
 90
24
 70
1
 10
253.632281
 20
152.632285
 30
0.0
 10
253.598202
 20
152.373469
 30
0.0
 10
253.498296
 20
152.132302
 30
0.0
 10
253.339387
 20
151.925186
 30
0.0
 10
253.132271
 20
151.766277
 30
0.0
 10
252.891103
 20
151.666370
 30
0.0
 10
252.632288
 20
151.632292
 30
0.0
 10
252.373472
 20
151.666370
 30
0.0
 10
252.132278
 20
151.766277
 30
0.0
 10
251.925162
 20
151.925186
 30
0.0
 10
251.766254
 20
152.132302
 30
0.0
 10
251.666347
 20
152.373469
 30
0.0
 10
251.632269
 20
152.632285
 30
0.0
 10
251.666347
 20
152.891100
 30
0.0
 10
251.766254
 20
153.132294
 30
0.0
 10
251.925162
 20
153.339410
 30
0.0
 10
252.132278
 20
153.498319
 30
0.0
 10
252.373472
 20
153.598226
 30
0.0
 10
252.632288
 20
153.632304
 30
0.0
 10
252.891103
 20
153.598226
 30
0.0
 10
253.132271
 20
153.498319
 30
0.0
 10
253.339387
 20
153.339410
 30
0.0
 10
253.498296
 20
153.132294
 30
0.0
 10
253.598202
 20
152.891100
 30
0.0
  0
LWPOLYLINE
  5
20f
100
AcDbEntity
  8
Layer_1
 62
7
100
AcDbPolyline
 90
24
 70
1
 10
260.632282
 20
152.632285
 30
0.0
 10
260.598204
 20
152.373469
 30
0.0
 10
260.498297
 20
152.132302
 30
0.0
 10
260.339389
 20
151.925186
 30
0.0
 10
260.132273
 20
151.766277
 30
0.0
 10
259.891105
 20
151.666370
 30
0.0
 10
259.632290
 20
151.632292
 30
0.0
 10
259.373474
 20
151.666370
 30
0.0
 10
259.132280
 20
151.766277
 30
0.0
 10
258.925164
 20
151.925186
 30
0.0
 10
258.766255
 20
152.132302
 30
0.0
 10
258.666349
 20
152.373469
 30
0.0
 10
258.632271
 20
152.632285
 30
0.0
 10
258.666349
 20
152.891100
 30
0.0
 10
258.766255
 20
153.132294
 30
0.0
 10
258.925164
 20
153.339410
 30
0.0
 10
259.132280
 20
153.498319
 30
0.0
 10
259.373474
 20
153.598226
 30
0.0
 10
259.632290
 20
153.632304
 30
0.0
 10
259.891105
 20
153.598226
 30
0.0
 10
260.132273
 20
153.498319
 30
0.0
 10
260.339389
 20
153.339410
 30
0.0
 10
260.498297
 20
153.132294
 30
0.0
 10
260.598204
 20
152.891100
 30
0.0
  0
LWPOLYLINE
  5
210
100
AcDbEntity
  8
Layer_1
 62
7
100
AcDbPolyline
 90
24
 70
1
 10
267.632284
 20
152.632285
 30
0.0
 10
267.598206
 20
152.373469
 30
0.0
 10
267.498299
 20
152.132302
 30
0.0
 10
267.339390
 20
151.925186
 30
0.0
 10
267.132275
 20
151.766277
 30
0.0
 10
266.891107
 20
151.666370
 30
0.0
 10
266.632291
 20
151.632292
 30
0.0
 10
266.373450
 20
151.666370
 30
0.0
 10
266.132282
 20
151.766277
 30
0.0
 10
265.925166
 20
151.925186
 30
0.0
 10
265.766257
 20
152.132302
 30
0.0
 10
265.666351
 20
152.373469
 30
0.0
 10
265.632272
 20
152.632285
 30
0.0
 10
265.666351
 20
152.891100
 30
0.0
 10
265.766257
 20
153.132294
 30
0.0
 10
265.925166
 20
153.339410
 30
0.0
 10
266.132282
 20
153.498319
 30
0.0
 10
266.373450
 20
153.598226
 30
0.0
 10
266.632291
 20
153.632304
 30
0.0
 10
266.891107
 20
153.598226
 30
0.0
 10
267.132275
 20
153.498319
 30
0.0
 10
267.339390
 20
153.339410
 30
0.0
 10
267.498299
 20
153.132294
 30
0.0
 10
267.598206
 20
152.891100
 30
0.0
  0
LWPOLYLINE
  5
211
100
AcDbEntity
  8
Layer_1
 62
7
100
AcDbPolyline
 90
24
 70
1
 10
274.632286
 20
152.632285
 30
0.0
 10
274.598208
 20
152.373469
 30
0.0
 10
274.498301
 20
152.132302
 30
0.0
 10
274.339392
 20
151.925186
 30
0.0
 10
274.132276
 20
151.766277
 30
0.0
 10
273.891109
 20
151.666370
 30
0.0
 10
273.632293
 20
151.632292
 30
0.0
 10
273.373451
 20
151.666370
 30
0.0
 10
273.132284
 20
151.766277
 30
0.0
 10
272.925168
 20
151.925186
 30
0.0
 10
272.766259
 20
152.132302
 30
0.0
 10
272.666352
 20
152.373469
 30
0.0
 10
272.632274
 20
152.632285
 30
0.0
 10
272.666352
 20
152.891100
 30
0.0
 10
272.766259
 20
153.132294
 30
0.0
 10
272.925168
 20
153.339410
 30
0.0
 10
273.132284
 20
153.498319
 30
0.0
 10
273.373451
 20
153.598226
 30
0.0
 10
273.632293
 20
153.632304
 30
0.0
 10
273.891109
 20
153.598226
 30
0.0
 10
274.132276
 20
153.498319
 30
0.0
 10
274.339392
 20
153.339410
 30
0.0
 10
274.498301
 20
153.132294
 30
0.0
 10
274.598208
 20
152.891100
 30
0.0
  0
LWPOLYLINE
  5
212
100
AcDbEntity
  8
Layer_1
 62
7
100
AcDbPolyline
 90
24
 70
1
 10
281.632288
 20
152.632285
 30
0.0
 10
281.598209
 20
152.373469
 30
0.0
 10
281.498303
 20
152.132302
 30
0.0
 10
281.339394
 20
151.925186
 30
0.0
 10
281.132278
 20
151.766277
 30
0.0
 10
280.891110
 20
151.666370
 30
0.0
 10
280.632269
 20
151.632292
 30
0.0
 10
280.373453
 20
151.666370
 30
0.0
 10
280.132285
 20
151.766277
 30
0.0
 10
279.925170
 20
151.925186
 30
0.0
 10
279.766261
 20
152.132302
 30
0.0
 10
279.666354
 20
152.373469
 30
0.0
 10
279.632276
 20
152.632285
 30
0.0
 10
279.666354
 20
152.891100
 30
0.0
 10
279.766261
 20
153.132294
 30
0.0
 10
279.925170
 20
153.339410
 30
0.0
 10
280.132285
 20
153.498319
 30
0.0
 10
280.373453
 20
153.598226
 30
0.0
 10
280.632269
 20
153.632304
 30
0.0
 10
280.891110
 20
153.598226
 30
0.0
 10
281.132278
 20
153.498319
 30
0.0
 10
281.339394
 20
153.339410
 30
0.0
 10
281.498303
 20
153.132294
 30
0.0
 10
281.598209
 20
152.891100
 30
0.0
  0
LWPOLYLINE
  5
213
100
AcDbEntity
  8
Layer_1
 62
7
100
AcDbPolyline
 90
24
 70
1
 10
288.632289
 20
152.632285
 30
0.0
 10
288.598211
 20
152.373469
 30
0.0
 10
288.498305
 20
152.132302
 30
0.0
 10
288.339396
 20
151.925186
 30
0.0
 10
288.132280
 20
151.766277
 30
0.0
 10
287.891112
 20
151.666370
 30
0.0
 10
287.632270
 20
151.632292
 30
0.0
 10
287.373455
 20
151.666370
 30
0.0
 10
287.132287
 20
151.766277
 30
0.0
 10
286.925171
 20
151.925186
 30
0.0
 10
286.766263
 20
152.132302
 30
0.0
 10
286.666356
 20
152.373469
 30
0.0
 10
286.632278
 20
152.632285
 30
0.0
 10
286.666356
 20
152.891100
 30
0.0
 10
286.766263
 20
153.132294
 30
0.0
 10
286.925171
 20
153.339410
 30
0.0
 10
287.132287
 20
153.498319
 30
0.0
 10
287.373455
 20
153.598226
 30
0.0
 10
287.632270
 20
153.632304
 30
0.0
 10
287.891112
 20
153.598226
 30
0.0
 10
288.132280
 20
153.498319
 30
0.0
 10
288.339396
 20
153.339410
 30
0.0
 10
288.498305
 20
153.132294
 30
0.0
 10
288.598211
 20
152.891100
 30
0.0
  0
LWPOLYLINE
  5
214
100
AcDbEntity
  8
Layer_1
 62
7
100
AcDbPolyline
 90
24
 70
1
 10
295.632291
 20
152.632285
 30
0.0
 10
295.598213
 20
152.373469
 30
0.0
 10
295.498306
 20
152.132302
 30
0.0
 10
295.339398
 20
151.925186
 30
0.0
 10
295.132282
 20
151.766277
 30
0.0
 10
294.891088
 20
151.666370
 30
0.0
 10
294.632272
 20
151.632292
 30
0.0
 10
294.373457
 20
151.666370
 30
0.0
 10
294.132289
 20
151.766277
 30
0.0
 10
293.925173
 20
151.925186
 30
0.0
 10
293.766264
 20
152.132302
 30
0.0
 10
293.666358
 20
152.373469
 30
0.0
 10
293.632279
 20
152.632285
 30
0.0
 10
293.666358
 20
152.891100
 30
0.0
 10
293.766264
 20
153.132294
 30
0.0
 10
293.925173
 20
153.339410
 30
0.0
 10
294.132289
 20
153.498319
 30
0.0
 10
294.373457
 20
153.598226
 30
0.0
 10
294.632272
 20
153.632304
 30
0.0
 10
294.891088
 20
153.598226
 30
0.0
 10
295.132282
 20
153.498319
 30
0.0
 10
295.339398
 20
153.339410
 30
0.0
 10
295.498306
 20
153.132294
 30
0.0
 10
295.598213
 20
152.891100
 30
0.0
  0
LWPOLYLINE
  5
215
100
AcDbEntity
  8
Layer_1
 62
7
100
AcDbPolyline
 90
24
 70
1
 10
302.632293
 20
152.632285
 30
0.0
 10
302.598215
 20
152.373469
 30
0.0
 10
302.498308
 20
152.132302
 30
0.0
 10
302.339399
 20
151.925186
 30
0.0
 10
302.132283
 20
151.766277
 30
0.0
 10
301.891089
 20
151.666370
 30
0.0
 10
301.632274
 20
151.632292
 30
0.0
 10
301.373459
 20
151.666370
 30
0.0
 10
301.132291
 20
151.766277
 30
0.0
 10
300.925175
 20
151.925186
 30
0.0
 10
300.766266
 20
152.132302
 30
0.0
 10
300.666360
 20
152.373469
 30
0.0
 10
300.632281
 20
152.632285
 30
0.0
 10
300.666360
 20
152.891100
 30
0.0
 10
300.766266
 20
153.132294
 30
0.0
 10
300.925175
 20
153.339410
 30
0.0
 10
301.132291
 20
153.498319
 30
0.0
 10
301.373459
 20
153.598226
 30
0.0
 10
301.632274
 20
153.632304
 30
0.0
 10
301.891089
 20
153.598226
 30
0.0
 10
302.132283
 20
153.498319
 30
0.0
 10
302.339399
 20
153.339410
 30
0.0
 10
302.498308
 20
153.132294
 30
0.0
 10
302.598215
 20
152.891100
 30
0.0
  0
LWPOLYLINE
  5
216
100
AcDbEntity
  8
Layer_1
 62
7
100
AcDbPolyline
 90
24
 70
1
 10
309.632268
 20
152.632285
 30
0.0
 10
309.598217
 20
152.373469
 30
0.0
 10
309.498310
 20
152.132302
 30
0.0
 10
309.339375
 20
151.925186
 30
0.0
 10
309.132285
 20
151.766277
 30
0.0
 10
308.891091
 20
151.666370
 30
0.0
 10
308.632276
 20
151.632292
 30
0.0
 10
308.373460
 20
151.666370
 30
0.0
 10
308.132293
 20
151.766277
 30
0.0
 10
307.925177
 20
151.925186
 30
0.0
 10
307.766268
 20
152.132302
 30
0.0
 10
307.666361
 20
152.373469
 30
0.0
 10
307.632283
 20
152.632285
 30
0.0
 10
307.666361
 20
152.891100
 30
0.0
 10
307.766268
 20
153.132294
 30
0.0
 10
307.925177
 20
153.339410
 30
0.0
 10
308.132293
 20
153.498319
 30
0.0
 10
308.373460
 20
153.598226
 30
0.0
 10
308.632276
 20
153.632304
 30
0.0
 10
308.891091
 20
153.598226
 30
0.0
 10
309.132285
 20
153.498319
 30
0.0
 10
309.339375
 20
153.339410
 30
0.0
 10
309.498310
 20
153.132294
 30
0.0
 10
309.598217
 20
152.891100
 30
0.0
  0
LWPOLYLINE
  5
217
100
AcDbEntity
  8
Layer_1
 62
7
100
AcDbPolyline
 90
24
 70
1
 10
376.132272
 20
162.132282
 30
0.0
 10
376.030064
 20
162.908754
 30
0.0
 10
375.730344
 20
163.632284
 30
0.0
 10
375.253591
 20
164.253605
 30
0.0
 10
374.632270
 20
164.730358
 30
0.0
 10
373.908740
 20
165.030078
 30
0.0
 10
373.132268
 20
165.132286
 30
0.0
 10
372.355821
 20
165.030078
 30
0.0
 10
371.632292
 20
164.730358
 30
0.0
 10
371.010971
 20
164.253605
 30
0.0
 10
370.534192
 20
163.632284
 30
0.0
 10
370.234498
 20
162.908754
 30
0.0
 10
370.132290
 20
162.132282
 30
0.0
 10
370.234498
 20
161.355835
 30
0.0
 10
370.534192
 20
160.632306
 30
0.0
 10
371.010971
 20
160.010985
 30
0.0
 10
371.632292
 20
159.534206
 30
0.0
 10
372.355821
 20
159.234512
 30
0.0
 10
373.132268
 20
159.132303
 30
0.0
 10
373.908740
 20
159.234512
 30
0.0
 10
374.632270
 20
159.534206
 30
0.0
 10
375.253591
 20
160.010985
 30
0.0
 10
375.730344
 20
160.632306
 30
0.0
 10
376.030064
 20
161.355835
 30
0.0
  0
LWPOLYLINE
  5
218
100
AcDbEntity
  8
Layer_1
 62
7
100
AcDbPolyline
 90
24
 70
1
 10
215.132284
 20
162.132282
 30
0.0
 10
215.030049
 20
162.908754
 30
0.0
 10
214.730355
 20
163.632284
 30
0.0
 10
214.253603
 20
164.253605
 30
0.0
 10
213.632282
 20
164.730358
 30
0.0
 10
212.908726
 20
165.030078
 30
0.0
 10
212.132279
 20
165.132286
 30
0.0
 10
211.355833
 20
165.030078
 30
0.0
 10
210.632277
 20
164.730358
 30
0.0
 10
210.010956
 20
164.253605
 30
0.0
 10
209.534203
 20
163.632284
 30
0.0
 10
209.234510
 20
162.908754
 30
0.0
 10
209.132275
 20
162.132282
 30
0.0
 10
209.234510
 20
161.355835
 30
0.0
 10
209.534203
 20
160.632306
 30
0.0
 10
210.010956
 20
160.010985
 30
0.0
 10
210.632277
 20
159.534206
 30
0.0
 10
211.355833
 20
159.234512
 30
0.0
 10
212.132279
 20
159.132303
 30
0.0
 10
212.908726
 20
159.234512
 30
0.0
 10
213.632282
 20
159.534206
 30
0.0
 10
214.253603
 20
160.010985
 30
0.0
 10
214.730355
 20
160.632306
 30
0.0
 10
215.030049
 20
161.355835
 30
0.0
  0
LWPOLYLINE
  5
219
100
AcDbEntity
  8
Layer_1
 62
7
100
AcDbPolyline
 90
2
 70
0
 10
210.132297
 20
434.943365
 30
0.0
 10
210.117480
 20
428.783924
 30
0.0
  0
LWPOLYLINE
  5
21a
100
AcDbEntity
  8
Layer_1
 62
7
100
AcDbPolyline
 90
2
 70
0
 10
214.132294
 20
435.132291
 30
0.0
 10
214.147111
 20
428.783924
 30
0.0
  0
LWPOLYLINE
  5
21b
100
AcDbEntity
  8
Layer_1
 62
7
100
AcDbPolyline
 90
2
 70
0
 10
371.132311
 20
435.132291
 30
0.0
 10
214.132294
 20
435.132291
 30
0.0
  0
LWPOLYLINE
  5
21c
100
AcDbEntity
  8
Layer_1
 62
7
100
AcDbPolyline
 90
2
 70
0
 10
371.132311
 20
435.132291
 30
0.0
 10
371.117495
 20
428.783924
 30
0.0
  0
LWPOLYLINE
  5
21d
100
AcDbEntity
  8
Layer_1
 62
7
100
AcDbPolyline
 90
2
 70
0
 10
375.132309
 20
434.943365
 30
0.0
 10
375.147125
 20
428.783924
 30
0.0
  0
LWPOLYLINE
  5
21e
100
AcDbEntity
  8
Layer_1
 62
7
100
AcDbPolyline
 90
2
 70
0
 10
385.132288
 20
307.132282
 30
0.0
 10
385.132288
 20
423.132291
 30
0.0
  0
LWPOLYLINE
  5
21f
100
AcDbEntity
  8
Layer_1
 62
7
100
AcDbPolyline
 90
2
 70
0
 10
212.132309
 20
295.132290
 30
0.0
 10
373.132297
 20
295.132290
 30
0.0
  0
LWPOLYLINE
  5
220
100
AcDbEntity
  8
Layer_1
 62
7
100
AcDbPolyline
 90
2
 70
0
 10
200.132290
 20
423.132291
 30
0.0
 10
200.132290
 20
307.132282
 30
0.0
  0
LWPOLYLINE
  5
221
100
AcDbEntity
  8
Layer_1
 62
7
100
AcDbPolyline
 90
12
 70
0
 10
210.132297
 20
434.943365
 30
0.0
 10
208.640073
 20
434.612898
 30
0.0
 10
207.208042
 20
434.075408
 30
0.0
 10
205.856048
 20
433.360123
 30
0.0
 10
204.605998
 20
432.478663
 30
0.0
 10
203.478238
 20
431.445357
 30
0.0
 10
202.491077
 20
430.276983
 30
0.0
 10
201.660550
 20
428.992532
 30
0.0
 10
201.000177
 20
427.612867
 30
0.0
 10
200.520646
 20
426.160408
 30
0.0
 10
200.229789
 20
424.658749
 30
0.0
 10
200.132290
 20
423.132291
 30
0.0
  0
LWPOLYLINE
  5
222
100
AcDbEntity
  8
Layer_1
 62
7
100
AcDbPolyline
 90
23
 70
0
 10
214.147005
 20
428.783924
 30
0.0
 10
215.504820
 20
428.094761
 30
0.0
 10
216.645439
 20
427.085987
 30
0.0
 10
217.495360
 20
425.822572
 30
0.0
 10
217.999894
 20
424.385890
 30
0.0
 10
218.126497
 20
422.868467
 30
0.0
 10
217.867046
 20
421.368037
 30
0.0
 10
217.238264
 20
419.981236
 30
0.0
 10
216.280605
 20
418.797379
 30
0.0
 10
215.055796
 20
417.892716
 30
0.0
 10
213.642682
 20
417.325510
 30
0.0
 10
212.132309
 20
417.132293
 30
0.0
 10
210.621908
 20
417.325510
 30
0.0
 10
209.208795
 20
417.892716
 30
0.0
 10
207.983986
 20
418.797379
 30
0.0
 10
207.026327
 20
419.981236
 30
0.0
 10
206.397544
 20
421.368037
 30
0.0
 10
206.138094
 20
422.868467
 30
0.0
 10
206.264723
 20
424.385890
 30
0.0
 10
206.769231
 20
425.822572
 30
0.0
 10
207.619178
 20
427.085987
 30
0.0
 10
208.759771
 20
428.094761
 30
0.0
 10
210.117586
 20
428.783924
 30
0.0
  0
LWPOLYLINE
  5
223
100
AcDbEntity
  8
Layer_1
 62
7
100
AcDbPolyline
 90
23
 70
0
 10
371.117601
 20
428.783924
 30
0.0
 10
369.759785
 20
428.094761
 30
0.0
 10
368.619167
 20
427.085987
 30
0.0
 10
367.769246
 20
425.822572
 30
0.0
 10
367.264712
 20
424.385890
 30
0.0
 10
367.138108
 20
422.868467
 30
0.0
 10
367.397532
 20
421.368037
 30
0.0
 10
368.026341
 20
419.981236
 30
0.0
 10
368.983974
 20
418.797379
 30
0.0
 10
370.208810
 20
417.892716
 30
0.0
 10
371.621923
 20
417.325510
 30
0.0
 10
373.132297
 20
417.132293
 30
0.0
 10
374.642697
 20
417.325510
 30
0.0
 10
376.055784
 20
417.892716
 30
0.0
 10
377.280619
 20
418.797379
 30
0.0
 10
378.238252
 20
419.981236
 30
0.0
 10
378.867061
 20
421.368037
 30
0.0
 10
379.126485
 20
422.868467
 30
0.0
 10
378.999882
 20
424.385890
 30
0.0
 10
378.495348
 20
425.822572
 30
0.0
 10
377.645427
 20
427.085987
 30
0.0
 10
376.504835
 20
428.094761
 30
0.0
 10
375.147019
 20
428.783924
 30
0.0
  0
LWPOLYLINE
  5
224
100
AcDbEntity
  8
Layer_1
 62
7
100
AcDbPolyline
 90
12
 70
0
 10
375.132309
 20
434.943365
 30
0.0
 10
376.624532
 20
434.612898
 30
0.0
 10
378.056536
 20
434.075408
 30
0.0
 10
379.408557
 20
433.360123
 30
0.0
 10
380.658608
 20
432.478663
 30
0.0
 10
381.786368
 20
431.445357
 30
0.0
 10
382.773528
 20
430.276983
 30
0.0
 10
383.604055
 20
428.992532
 30
0.0
 10
384.264429
 20
427.612867
 30
0.0
 10
384.743960
 20
426.160408
 30
0.0
 10
385.034816
 20
424.658749
 30
0.0
 10
385.132288
 20
423.132291
 30
0.0
  0
LWPOLYLINE
  5
225
100
AcDbEntity
  8
Layer_1
 62
7
100
AcDbPolyline
 90
13
 70
0
 10
373.132297
 20
295.132290
 30
0.0
 10
374.698604
 20
295.234948
 30
0.0
 10
376.238135
 20
295.541177
 30
0.0
 10
377.724511
 20
296.045737
 30
0.0
 10
379.132306
 20
296.739977
 30
0.0
 10
380.437442
 20
297.612044
 30
0.0
 10
381.617590
 20
298.647015
 30
0.0
 10
382.652534
 20
299.827162
 30
0.0
 10
383.524601
 20
301.132299
 30
0.0
 10
384.218841
 20
302.540094
 30
0.0
 10
384.723401
 20
304.026470
 30
0.0
 10
385.029630
 20
305.565975
 30
0.0
 10
385.132288
 20
307.132282
 30
0.0
  0
LWPOLYLINE
  5
226
100
AcDbEntity
  8
Layer_1
 62
7
100
AcDbPolyline
 90
13
 70
0
 10
212.132309
 20
295.132290
 30
0.0
 10
210.565975
 20
295.234948
 30
0.0
 10
209.026471
 20
295.541177
 30
0.0
 10
207.540094
 20
296.045737
 30
0.0
 10
206.132299
 20
296.739977
 30
0.0
 10
204.827163
 20
297.612044
 30
0.0
 10
203.647015
 20
298.647015
 30
0.0
 10
202.612071
 20
299.827162
 30
0.0
 10
201.740005
 20
301.132299
 30
0.0
 10
201.045738
 20
302.540094
 30
0.0
 10
200.541204
 20
304.026470
 30
0.0
 10
200.234975
 20
305.565975
 30
0.0
 10
200.132290
 20
307.132282
 30
0.0
  0
LWPOLYLINE
  5
227
100
AcDbEntity
  8
Layer_1
 62
7
100
AcDbPolyline
 90
2
 70
0
 10
316.132290
 20
319.132300
 30
0.0
 10
316.132290
 20
378.132292
 30
0.0
  0
LWPOLYLINE
  5
228
100
AcDbEntity
  8
Layer_1
 62
7
100
AcDbPolyline
 90
2
 70
0
 10
322.132299
 20
313.132291
 30
0.0
 10
361.132305
 20
313.132291
 30
0.0
  0
LWPOLYLINE
  5
229
100
AcDbEntity
  8
Layer_1
 62
7
100
AcDbPolyline
 90
2
 70
0
 10
367.132288
 20
319.132300
 30
0.0
 10
367.132288
 20
378.132292
 30
0.0
  0
LWPOLYLINE
  5
22a
100
AcDbEntity
  8
Layer_1
 62
7
100
AcDbPolyline
 90
2
 70
0
 10
361.132305
 20
384.132293
 30
0.0
 10
322.132299
 20
384.132293
 30
0.0
  0
LWPOLYLINE
  5
22b
100
AcDbEntity
  8
Layer_1
 62
7
100
AcDbPolyline
 90
13
 70
0
 10
322.132299
 20
313.132291
 30
0.0
 10
321.349132
 20
313.183620
 30
0.0
 10
320.579380
 20
313.336734
 30
0.0
 10
319.836192
 20
313.589014
 30
0.0
 10
319.132294
 20
313.936148
 30
0.0
 10
318.479726
 20
314.372181
 30
0.0
 10
317.889652
 20
314.889653
 30
0.0
 10
317.372180
 20
315.479727
 30
0.0
 10
316.936147
 20
316.132295
 30
0.0
 10
316.589013
 20
316.836193
 30
0.0
 10
316.336733
 20
317.579381
 30
0.0
 10
316.183619
 20
318.349133
 30
0.0
 10
316.132290
 20
319.132300
 30
0.0
  0
LWPOLYLINE
  5
22c
100
AcDbEntity
  8
Layer_1
 62
7
100
AcDbPolyline
 90
13
 70
0
 10
367.132288
 20
319.132300
 30
0.0
 10
367.080958
 20
318.349133
 30
0.0
 10
366.927844
 20
317.579381
 30
0.0
 10
366.675564
 20
316.836193
 30
0.0
 10
366.328457
 20
316.132295
 30
0.0
 10
365.892424
 20
315.479727
 30
0.0
 10
365.374952
 20
314.889653
 30
0.0
 10
364.784878
 20
314.372181
 30
0.0
 10
364.132310
 20
313.936148
 30
0.0
 10
363.428412
 20
313.589014
 30
0.0
 10
362.685224
 20
313.336734
 30
0.0
 10
361.915445
 20
313.183620
 30
0.0
 10
361.132305
 20
313.132291
 30
0.0
  0
LWPOLYLINE
  5
22d
100
AcDbEntity
  8
Layer_1
 62
7
100
AcDbPolyline
 90
13
 70
0
 10
367.132288
 20
378.132292
 30
0.0
 10
367.080958
 20
378.915451
 30
0.0
 10
366.927844
 20
379.685208
 30
0.0
 10
366.675564
 20
380.428394
 30
0.0
 10
366.328457
 20
381.132291
 30
0.0
 10
365.892424
 20
381.784862
 30
0.0
 10
365.374952
 20
382.374933
 30
0.0
 10
364.784878
 20
382.892413
 30
0.0
 10
364.132310
 20
383.328444
 30
0.0
 10
363.428412
 20
383.675569
 30
0.0
 10
362.685224
 20
383.927847
 30
0.0
 10
361.915445
 20
384.080961
 30
0.0
 10
361.132305
 20
384.132293
 30
0.0
  0
LWPOLYLINE
  5
22e
100
AcDbEntity
  8
Layer_1
 62
7
100
AcDbPolyline
 90
13
 70
0
 10
322.132299
 20
384.132293
 30
0.0
 10
321.349132
 20
384.080961
 30
0.0
 10
320.579380
 20
383.927847
 30
0.0
 10
319.836192
 20
383.675569
 30
0.0
 10
319.132294
 20
383.328444
 30
0.0
 10
318.479726
 20
382.892413
 30
0.0
 10
317.889652
 20
382.374933
 30
0.0
 10
317.372180
 20
381.784862
 30
0.0
 10
316.936147
 20
381.132291
 30
0.0
 10
316.589013
 20
380.428394
 30
0.0
 10
316.336733
 20
379.685208
 30
0.0
 10
316.183619
 20
378.915451
 30
0.0
 10
316.132290
 20
378.132292
 30
0.0
  0
LWPOLYLINE
  5
22f
100
AcDbEntity
  8
Layer_1
 62
7
100
AcDbPolyline
 90
2
 70
0
 10
300.132301
 20
335.632293
 30
0.0
 10
224.132300
 20
335.632293
 30
0.0
  0
LWPOLYLINE
  5
230
100
AcDbEntity
  8
Layer_1
 62
7
100
AcDbPolyline
 90
2
 70
0
 10
218.132291
 20
329.632294
 30
0.0
 10
218.132291
 20
319.132300
 30
0.0
  0
LWPOLYLINE
  5
231
100
AcDbEntity
  8
Layer_1
 62
7
100
AcDbPolyline
 90
2
 70
0
 10
224.132300
 20
313.132291
 30
0.0
 10
300.132301
 20
313.132291
 30
0.0
  0
LWPOLYLINE
  5
232
100
AcDbEntity
  8
Layer_1
 62
7
100
AcDbPolyline
 90
2
 70
0
 10
306.132310
 20
329.632294
 30
0.0
 10
306.132310
 20
319.132300
 30
0.0
  0
LWPOLYLINE
  5
233
100
AcDbEntity
  8
Layer_1
 62
7
100
AcDbPolyline
 90
13
 70
0
 10
218.132291
 20
329.632294
 30
0.0
 10
218.183620
 20
330.415451
 30
0.0
 10
218.336735
 20
331.185208
 30
0.0
 10
218.589015
 20
331.928394
 30
0.0
 10
218.936148
 20
332.632294
 30
0.0
 10
219.372182
 20
333.284862
 30
0.0
 10
219.889654
 20
333.874933
 30
0.0
 10
220.479727
 20
334.392413
 30
0.0
 10
221.132296
 20
334.828446
 30
0.0
 10
221.836193
 20
335.175569
 30
0.0
 10
222.579381
 20
335.427847
 30
0.0
 10
223.349134
 20
335.580961
 30
0.0
 10
224.132300
 20
335.632293
 30
0.0
  0
LWPOLYLINE
  5
234
100
AcDbEntity
  8
Layer_1
 62
7
100
AcDbPolyline
 90
13
 70
0
 10
224.132300
 20
313.132291
 30
0.0
 10
223.349134
 20
313.183620
 30
0.0
 10
222.579381
 20
313.336734
 30
0.0
 10
221.836193
 20
313.589014
 30
0.0
 10
221.132296
 20
313.936148
 30
0.0
 10
220.479727
 20
314.372181
 30
0.0
 10
219.889654
 20
314.889653
 30
0.0
 10
219.372182
 20
315.479727
 30
0.0
 10
218.936148
 20
316.132295
 30
0.0
 10
218.589015
 20
316.836193
 30
0.0
 10
218.336735
 20
317.579381
 30
0.0
 10
218.183620
 20
318.349133
 30
0.0
 10
218.132291
 20
319.132300
 30
0.0
  0
LWPOLYLINE
  5
235
100
AcDbEntity
  8
Layer_1
 62
7
100
AcDbPolyline
 90
13
 70
0
 10
306.132310
 20
319.132300
 30
0.0
 10
306.080981
 20
318.349133
 30
0.0
 10
305.927866
 20
317.579381
 30
0.0
 10
305.675586
 20
316.836193
 30
0.0
 10
305.328453
 20
316.132295
 30
0.0
 10
304.892419
 20
315.479727
 30
0.0
 10
304.374947
 20
314.889653
 30
0.0
 10
303.784874
 20
314.372181
 30
0.0
 10
303.132305
 20
313.936148
 30
0.0
 10
302.428408
 20
313.589014
 30
0.0
 10
301.685220
 20
313.336734
 30
0.0
 10
300.915467
 20
313.183620
 30
0.0
 10
300.132301
 20
313.132291
 30
0.0
  0
LWPOLYLINE
  5
236
100
AcDbEntity
  8
Layer_1
 62
7
100
AcDbPolyline
 90
13
 70
0
 10
306.132310
 20
329.632294
 30
0.0
 10
306.080981
 20
330.415451
 30
0.0
 10
305.927866
 20
331.185208
 30
0.0
 10
305.675586
 20
331.928394
 30
0.0
 10
305.328453
 20
332.632294
 30
0.0
 10
304.892419
 20
333.284862
 30
0.0
 10
304.374947
 20
333.874933
 30
0.0
 10
303.784874
 20
334.392413
 30
0.0
 10
303.132305
 20
334.828446
 30
0.0
 10
302.428408
 20
335.175569
 30
0.0
 10
301.685220
 20
335.427847
 30
0.0
 10
300.915467
 20
335.580961
 30
0.0
 10
300.132301
 20
335.632293
 30
0.0
  0
LWPOLYLINE
  5
237
100
AcDbEntity
  8
Layer_1
 62
7
100
AcDbPolyline
 90
2
 70
0
 10
276.132291
 20
345.632294
 30
0.0
 10
300.132301
 20
345.632294
 30
0.0
  0
LWPOLYLINE
  5
238
100
AcDbEntity
  8
Layer_1
 62
7
100
AcDbPolyline
 90
2
 70
0
 10
306.132310
 20
378.132292
 30
0.0
 10
306.132310
 20
351.632292
 30
0.0
  0
LWPOLYLINE
  5
239
100
AcDbEntity
  8
Layer_1
 62
7
100
AcDbPolyline
 90
2
 70
0
 10
276.132291
 20
384.132293
 30
0.0
 10
300.132301
 20
384.132293
 30
0.0
  0
LWPOLYLINE
  5
23a
100
AcDbEntity
  8
Layer_1
 62
7
100
AcDbPolyline
 90
2
 70
0
 10
270.132308
 20
378.132292
 30
0.0
 10
270.132308
 20
351.632292
 30
0.0
  0
LWPOLYLINE
  5
23b
100
AcDbEntity
  8
Layer_1
 62
7
100
AcDbPolyline
 90
13
 70
0
 10
300.132301
 20
345.632294
 30
0.0
 10
300.915467
 20
345.683623
 30
0.0
 10
301.685220
 20
345.836738
 30
0.0
 10
302.428408
 20
346.089015
 30
0.0
 10
303.132305
 20
346.436140
 30
0.0
 10
303.784874
 20
346.872174
 30
0.0
 10
304.374947
 20
347.389651
 30
0.0
 10
304.892419
 20
347.979725
 30
0.0
 10
305.328453
 20
348.632293
 30
0.0
 10
305.675586
 20
349.336193
 30
0.0
 10
305.927866
 20
350.079379
 30
0.0
 10
306.080981
 20
350.849136
 30
0.0
 10
306.132310
 20
351.632292
 30
0.0
  0
LWPOLYLINE
  5
23c
100
AcDbEntity
  8
Layer_1
 62
7
100
AcDbPolyline
 90
13
 70
0
 10
300.132301
 20
384.132293
 30
0.0
 10
300.915467
 20
384.080961
 30
0.0
 10
301.685220
 20
383.927847
 30
0.0
 10
302.428408
 20
383.675569
 30
0.0
 10
303.132305
 20
383.328444
 30
0.0
 10
303.784874
 20
382.892413
 30
0.0
 10
304.374947
 20
382.374933
 30
0.0
 10
304.892419
 20
381.784862
 30
0.0
 10
305.328453
 20
381.132291
 30
0.0
 10
305.675586
 20
380.428394
 30
0.0
 10
305.927866
 20
379.685208
 30
0.0
 10
306.080981
 20
378.915451
 30
0.0
 10
306.132310
 20
378.132292
 30
0.0
  0
LWPOLYLINE
  5
23d
100
AcDbEntity
  8
Layer_1
 62
7
100
AcDbPolyline
 90
13
 70
0
 10
270.132308
 20
378.132292
 30
0.0
 10
270.183637
 20
378.915451
 30
0.0
 10
270.336752
 20
379.685208
 30
0.0
 10
270.589032
 20
380.428394
 30
0.0
 10
270.936139
 20
381.132291
 30
0.0
 10
271.372172
 20
381.784862
 30
0.0
 10
271.889671
 20
382.374933
 30
0.0
 10
272.479744
 20
382.892413
 30
0.0
 10
273.132313
 20
383.328444
 30
0.0
 10
273.836210
 20
383.675569
 30
0.0
 10
274.579398
 20
383.927847
 30
0.0
 10
275.349151
 20
384.080961
 30
0.0
 10
276.132291
 20
384.132293
 30
0.0
  0
LWPOLYLINE
  5
23e
100
AcDbEntity
  8
Layer_1
 62
7
100
AcDbPolyline
 90
13
 70
0
 10
276.132291
 20
345.632294
 30
0.0
 10
275.349151
 20
345.683623
 30
0.0
 10
274.579398
 20
345.836738
 30
0.0
 10
273.836210
 20
346.089015
 30
0.0
 10
273.132313
 20
346.436140
 30
0.0
 10
272.479744
 20
346.872174
 30
0.0
 10
271.889671
 20
347.389651
 30
0.0
 10
271.372172
 20
347.979725
 30
0.0
 10
270.936139
 20
348.632293
 30
0.0
 10
270.589032
 20
349.336193
 30
0.0
 10
270.336752
 20
350.079379
 30
0.0
 10
270.183637
 20
350.849136
 30
0.0
 10
270.132308
 20
351.632292
 30
0.0
  0
LWPOLYLINE
  5
23f
100
AcDbEntity
  8
Layer_1
 62
7
100
AcDbPolyline
 90
2
 70
0
 10
218.132291
 20
351.632292
 30
0.0
 10
218.132291
 20
378.132292
 30
0.0
  0
LWPOLYLINE
  5
240
100
AcDbEntity
  8
Layer_1
 62
7
100
AcDbPolyline
 90
2
 70
0
 10
254.132293
 20
345.632294
 30
0.0
 10
224.132300
 20
345.632294
 30
0.0
  0
LWPOLYLINE
  5
241
100
AcDbEntity
  8
Layer_1
 62
7
100
AcDbPolyline
 90
2
 70
0
 10
260.132302
 20
378.132292
 30
0.0
 10
260.132302
 20
351.632292
 30
0.0
  0
LWPOLYLINE
  5
242
100
AcDbEntity
  8
Layer_1
 62
7
100
AcDbPolyline
 90
2
 70
0
 10
224.132300
 20
384.132293
 30
0.0
 10
254.132293
 20
384.132293
 30
0.0
  0
LWPOLYLINE
  5
243
100
AcDbEntity
  8
Layer_1
 62
7
100
AcDbPolyline
 90
13
 70
0
 10
224.132300
 20
345.632294
 30
0.0
 10
223.349134
 20
345.683623
 30
0.0
 10
222.579381
 20
345.836738
 30
0.0
 10
221.836193
 20
346.089015
 30
0.0
 10
221.132296
 20
346.436140
 30
0.0
 10
220.479727
 20
346.872174
 30
0.0
 10
219.889654
 20
347.389651
 30
0.0
 10
219.372182
 20
347.979725
 30
0.0
 10
218.936148
 20
348.632293
 30
0.0
 10
218.589015
 20
349.336193
 30
0.0
 10
218.336735
 20
350.079379
 30
0.0
 10
218.183620
 20
350.849136
 30
0.0
 10
218.132291
 20
351.632292
 30
0.0
  0
LWPOLYLINE
  5
244
100
AcDbEntity
  8
Layer_1
 62
7
100
AcDbPolyline
 90
13
 70
0
 10
254.132293
 20
345.632294
 30
0.0
 10
254.915459
 20
345.683623
 30
0.0
 10
255.685212
 20
345.836738
 30
0.0
 10
256.428400
 20
346.089015
 30
0.0
 10
257.132297
 20
346.436140
 30
0.0
 10
257.784866
 20
346.872174
 30
0.0
 10
258.374939
 20
347.389651
 30
0.0
 10
258.892412
 20
347.979725
 30
0.0
 10
259.328445
 20
348.632293
 30
0.0
 10
259.675578
 20
349.336193
 30
0.0
 10
259.927858
 20
350.079379
 30
0.0
 10
260.080973
 20
350.849136
 30
0.0
 10
260.132302
 20
351.632292
 30
0.0
  0
LWPOLYLINE
  5
245
100
AcDbEntity
  8
Layer_1
 62
7
100
AcDbPolyline
 90
13
 70
0
 10
254.132293
 20
384.132293
 30
0.0
 10
254.915459
 20
384.080961
 30
0.0
 10
255.685212
 20
383.927847
 30
0.0
 10
256.428400
 20
383.675569
 30
0.0
 10
257.132297
 20
383.328444
 30
0.0
 10
257.784866
 20
382.892413
 30
0.0
 10
258.374939
 20
382.374933
 30
0.0
 10
258.892412
 20
381.784862
 30
0.0
 10
259.328445
 20
381.132291
 30
0.0
 10
259.675578
 20
380.428394
 30
0.0
 10
259.927858
 20
379.685208
 30
0.0
 10
260.080973
 20
378.915451
 30
0.0
 10
260.132302
 20
378.132292
 30
0.0
  0
LWPOLYLINE
  5
246
100
AcDbEntity
  8
Layer_1
 62
7
100
AcDbPolyline
 90
13
 70
0
 10
224.132300
 20
384.132293
 30
0.0
 10
223.349134
 20
384.080961
 30
0.0
 10
222.579381
 20
383.927847
 30
0.0
 10
221.836193
 20
383.675569
 30
0.0
 10
221.132296
 20
383.328444
 30
0.0
 10
220.479727
 20
382.892413
 30
0.0
 10
219.889654
 20
382.374933
 30
0.0
 10
219.372182
 20
381.784862
 30
0.0
 10
218.936148
 20
381.132291
 30
0.0
 10
218.589015
 20
380.428394
 30
0.0
 10
218.336735
 20
379.685208
 30
0.0
 10
218.183620
 20
378.915451
 30
0.0
 10
218.132291
 20
378.132292
 30
0.0
  0
LWPOLYLINE
  5
247
100
AcDbEntity
  8
Layer_1
 62
7
100
AcDbPolyline
 90
2
 70
0
 10
224.132300
 20
394.132292
 30
0.0
 10
312.078609
 20
394.132292
 30
0.0
  0
LWPOLYLINE
  5
248
100
AcDbEntity
  8
Layer_1
 62
7
100
AcDbPolyline
 90
2
 70
0
 10
318.078591
 20
411.132292
 30
0.0
 10
318.078591
 20
400.132293
 30
0.0
  0
LWPOLYLINE
  5
249
100
AcDbEntity
  8
Layer_1
 62
7
100
AcDbPolyline
 90
2
 70
0
 10
224.132300
 20
417.132293
 30
0.0
 10
312.078609
 20
417.132293
 30
0.0
  0
LWPOLYLINE
  5
24a
100
AcDbEntity
  8
Layer_1
 62
7
100
AcDbPolyline
 90
2
 70
0
 10
218.132291
 20
411.132292
 30
0.0
 10
218.132291
 20
400.132293
 30
0.0
  0
LWPOLYLINE
  5
24b
100
AcDbEntity
  8
Layer_1
 62
7
100
AcDbPolyline
 90
13
 70
0
 10
318.078591
 20
400.132293
 30
0.0
 10
318.027262
 20
399.349137
 30
0.0
 10
317.874148
 20
398.579379
 30
0.0
 10
317.621867
 20
397.836191
 30
0.0
 10
317.274761
 20
397.132294
 30
0.0
 10
316.838727
 20
396.479723
 30
0.0
 10
316.321229
 20
395.889651
 30
0.0
 10
315.731155
 20
395.372171
 30
0.0
 10
315.078587
 20
394.936141
 30
0.0
 10
314.374689
 20
394.589015
 30
0.0
 10
313.631501
 20
394.336738
 30
0.0
 10
312.861749
 20
394.183623
 30
0.0
 10
312.078609
 20
394.132292
 30
0.0
  0
LWPOLYLINE
  5
24c
100
AcDbEntity
  8
Layer_1
 62
7
100
AcDbPolyline
 90
13
 70
0
 10
318.078591
 20
411.132292
 30
0.0
 10
318.027262
 20
411.915451
 30
0.0
 10
317.874148
 20
412.685205
 30
0.0
 10
317.621867
 20
413.428394
 30
0.0
 10
317.274761
 20
414.132291
 30
0.0
 10
316.838727
 20
414.784862
 30
0.0
 10
316.321229
 20
415.374933
 30
0.0
 10
315.731155
 20
415.892413
 30
0.0
 10
315.078587
 20
416.328444
 30
0.0
 10
314.374689
 20
416.675569
 30
0.0
 10
313.631501
 20
416.927847
 30
0.0
 10
312.861749
 20
417.080961
 30
0.0
 10
312.078609
 20
417.132293
 30
0.0
  0
LWPOLYLINE
  5
24d
100
AcDbEntity
  8
Layer_1
 62
7
100
AcDbPolyline
 90
13
 70
0
 10
218.132291
 20
411.132292
 30
0.0
 10
218.183620
 20
411.915451
 30
0.0
 10
218.336735
 20
412.685205
 30
0.0
 10
218.589015
 20
413.428394
 30
0.0
 10
218.936148
 20
414.132291
 30
0.0
 10
219.372182
 20
414.784862
 30
0.0
 10
219.889654
 20
415.374933
 30
0.0
 10
220.479727
 20
415.892413
 30
0.0
 10
221.132296
 20
416.328444
 30
0.0
 10
221.836193
 20
416.675569
 30
0.0
 10
222.579381
 20
416.927847
 30
0.0
 10
223.349134
 20
417.080961
 30
0.0
 10
224.132300
 20
417.132293
 30
0.0
  0
LWPOLYLINE
  5
24e
100
AcDbEntity
  8
Layer_1
 62
7
100
AcDbPolyline
 90
13
 70
0
 10
224.132300
 20
394.132292
 30
0.0
 10
223.349134
 20
394.183623
 30
0.0
 10
222.579381
 20
394.336738
 30
0.0
 10
221.836193
 20
394.589015
 30
0.0
 10
221.132296
 20
394.936141
 30
0.0
 10
220.479727
 20
395.372171
 30
0.0
 10
219.889654
 20
395.889651
 30
0.0
 10
219.372182
 20
396.479723
 30
0.0
 10
218.936148
 20
397.132294
 30
0.0
 10
218.589015
 20
397.836191
 30
0.0
 10
218.336735
 20
398.579379
 30
0.0
 10
218.183620
 20
399.349137
 30
0.0
 10
218.132291
 20
400.132293
 30
0.0
  0
LWPOLYLINE
  5
24f
100
AcDbEntity
  8
Layer_1
 62
7
100
AcDbPolyline
 90
24
 70
1
 10
373.132297
 20
310.132286
 30
0.0
 10
372.355851
 20
310.030078
 30
0.0
 10
371.632294
 20
309.730358
 30
0.0
 10
371.010973
 20
309.253605
 30
0.0
 10
370.534221
 20
308.632284
 30
0.0
 10
370.234527
 20
307.908754
 30
0.0
 10
370.132292
 20
307.132282
 30
0.0
 10
370.234527
 20
306.355835
 30
0.0
 10
370.534221
 20
305.632306
 30
0.0
 10
371.010973
 20
305.010985
 30
0.0
 10
371.632294
 20
304.534206
 30
0.0
 10
372.355851
 20
304.234512
 30
0.0
 10
373.132297
 20
304.132303
 30
0.0
 10
373.908743
 20
304.234512
 30
0.0
 10
374.632299
 20
304.534206
 30
0.0
 10
375.253620
 20
305.010985
 30
0.0
 10
375.730373
 20
305.632306
 30
0.0
 10
376.030066
 20
306.355835
 30
0.0
 10
376.132301
 20
307.132282
 30
0.0
 10
376.030066
 20
307.908754
 30
0.0
 10
375.730373
 20
308.632284
 30
0.0
 10
375.253620
 20
309.253605
 30
0.0
 10
374.632299
 20
309.730358
 30
0.0
 10
373.908743
 20
310.030078
 30
0.0
  0
LWPOLYLINE
  5
250
100
AcDbEntity
  8
Layer_1
 62
7
100
AcDbPolyline
 90
24
 70
1
 10
209.234513
 20
306.355835
 30
0.0
 10
209.534233
 20
305.632306
 30
0.0
 10
210.010985
 20
305.010985
 30
0.0
 10
210.632306
 20
304.534206
 30
0.0
 10
211.355836
 20
304.234512
 30
0.0
 10
212.132309
 20
304.132303
 30
0.0
 10
212.908755
 20
304.234512
 30
0.0
 10
213.632311
 20
304.534206
 30
0.0
 10
214.253632
 20
305.010985
 30
0.0
 10
214.730385
 20
305.632306
 30
0.0
 10
215.030078
 20
306.355835
 30
0.0
 10
215.132313
 20
307.132282
 30
0.0
 10
215.030078
 20
307.908754
 30
0.0
 10
214.730385
 20
308.632284
 30
0.0
 10
214.253632
 20
309.253605
 30
0.0
 10
213.632311
 20
309.730358
 30
0.0
 10
212.908755
 20
310.030078
 30
0.0
 10
212.132309
 20
310.132286
 30
0.0
 10
211.355836
 20
310.030078
 30
0.0
 10
210.632306
 20
309.730358
 30
0.0
 10
210.010985
 20
309.253605
 30
0.0
 10
209.534233
 20
308.632284
 30
0.0
 10
209.234513
 20
307.908754
 30
0.0
 10
209.132304
 20
307.132282
 30
0.0
  0
LWPOLYLINE
  5
251
100
AcDbEntity
  8
Layer_1
 62
7
100
AcDbPolyline
 90
2
 70
0
 10
367.132288
 20
410.132291
 30
0.0
 10
367.132288
 20
411.132292
 30
0.0
  0
LWPOLYLINE
  5
252
100
AcDbEntity
  8
Layer_1
 62
7
100
AcDbPolyline
 90
2
 70
0
 10
361.132305
 20
417.132293
 30
0.0
 10
334.078607
 20
417.132293
 30
0.0
  0
LWPOLYLINE
  5
253
100
AcDbEntity
  8
Layer_1
 62
7
100
AcDbPolyline
 90
2
 70
0
 10
328.078598
 20
411.132292
 30
0.0
 10
328.078598
 20
410.132291
 30
0.0
  0
LWPOLYLINE
  5
254
100
AcDbEntity
  8
Layer_1
 62
7
100
AcDbPolyline
 90
2
 70
0
 10
334.078607
 20
404.132293
 30
0.0
 10
361.132305
 20
404.132293
 30
0.0
  0
LWPOLYLINE
  5
255
100
AcDbEntity
  8
Layer_1
 62
7
100
AcDbPolyline
 90
13
 70
0
 10
361.132305
 20
417.132293
 30
0.0
 10
361.915445
 20
417.080961
 30
0.0
 10
362.685224
 20
416.927847
 30
0.0
 10
363.428412
 20
416.675569
 30
0.0
 10
364.132310
 20
416.328444
 30
0.0
 10
364.784878
 20
415.892413
 30
0.0
 10
365.374952
 20
415.374933
 30
0.0
 10
365.892424
 20
414.784862
 30
0.0
 10
366.328457
 20
414.132291
 30
0.0
 10
366.675564
 20
413.428394
 30
0.0
 10
366.927844
 20
412.685205
 30
0.0
 10
367.080958
 20
411.915451
 30
0.0
 10
367.132288
 20
411.132292
 30
0.0
  0
LWPOLYLINE
  5
256
100
AcDbEntity
  8
Layer_1
 62
7
100
AcDbPolyline
 90
13
 70
0
 10
328.078598
 20
411.132292
 30
0.0
 10
328.129927
 20
411.915451
 30
0.0
 10
328.283041
 20
412.685205
 30
0.0
 10
328.535321
 20
413.428394
 30
0.0
 10
328.882455
 20
414.132291
 30
0.0
 10
329.318488
 20
414.784862
 30
0.0
 10
329.835960
 20
415.374933
 30
0.0
 10
330.426034
 20
415.892413
 30
0.0
 10
331.078602
 20
416.328444
 30
0.0
 10
331.782500
 20
416.675569
 30
0.0
 10
332.525688
 20
416.927847
 30
0.0
 10
333.295440
 20
417.080961
 30
0.0
 10
334.078607
 20
417.132293
 30
0.0
  0
LWPOLYLINE
  5
257
100
AcDbEntity
  8
Layer_1
 62
7
100
AcDbPolyline
 90
13
 70
0
 10
334.078607
 20
404.132293
 30
0.0
 10
333.295440
 20
404.183624
 30
0.0
 10
332.525688
 20
404.336739
 30
0.0
 10
331.782500
 20
404.589016
 30
0.0
 10
331.078602
 20
404.936139
 30
0.0
 10
330.426034
 20
405.372172
 30
0.0
 10
329.835960
 20
405.889653
 30
0.0
 10
329.318488
 20
406.479724
 30
0.0
 10
328.882455
 20
407.132292
 30
0.0
 10
328.535321
 20
407.836192
 30
0.0
 10
328.283041
 20
408.579378
 30
0.0
 10
328.129927
 20
409.349135
 30
0.0
 10
328.078598
 20
410.132291
 30
0.0
  0
LWPOLYLINE
  5
258
100
AcDbEntity
  8
Layer_1
 62
7
100
AcDbPolyline
 90
13
 70
0
 10
361.132305
 20
404.132293
 30
0.0
 10
361.915445
 20
404.183624
 30
0.0
 10
362.685224
 20
404.336739
 30
0.0
 10
363.428412
 20
404.589016
 30
0.0
 10
364.132310
 20
404.936139
 30
0.0
 10
364.784878
 20
405.372172
 30
0.0
 10
365.374952
 20
405.889653
 30
0.0
 10
365.892424
 20
406.479724
 30
0.0
 10
366.328457
 20
407.132292
 30
0.0
 10
366.675564
 20
407.836192
 30
0.0
 10
366.927844
 20
408.579378
 30
0.0
 10
367.080958
 20
409.349135
 30
0.0
 10
367.132288
 20
410.132291
 30
0.0
  0
LWPOLYLINE
  5
259
100
AcDbEntity
  8
Layer_1
 62
7
100
AcDbPolyline
 90
2
 70
0
 10
176.132349
 20
580.132291
 30
0.0
 10
19.132332
 20
580.132291
 30
0.0
  0
LWPOLYLINE
  5
25a
100
AcDbEntity
  8
Layer_1
 62
7
100
AcDbPolyline
 90
2
 70
0
 10
176.132349
 20
580.132291
 30
0.0
 10
176.117533
 20
573.783924
 30
0.0
  0
LWPOLYLINE
  5
25b
100
AcDbEntity
  8
Layer_1
 62
7
100
AcDbPolyline
 90
2
 70
0
 10
180.132347
 20
579.943365
 30
0.0
 10
180.147163
 20
573.783924
 30
0.0
  0
LWPOLYLINE
  5
25c
100
AcDbEntity
  8
Layer_1
 62
7
100
AcDbPolyline
 90
2
 70
0
 10
190.132327
 20
452.132282
 30
0.0
 10
190.132327
 20
568.132291
 30
0.0
  0
LWPOLYLINE
  5
25d
100
AcDbEntity
  8
Layer_1
 62
7
100
AcDbPolyline
 90
2
 70
0
 10
17.132347
 20
440.132290
 30
0.0
 10
178.132335
 20
440.132290
 30
0.0
  0
LWPOLYLINE
  5
25e
100
AcDbEntity
  8
Layer_1
 62
7
100
AcDbPolyline
 90
2
 70
0
 10
5.132328
 20
568.132291
 30
0.0
 10
5.132328
 20
452.132282
 30
0.0
  0
LWPOLYLINE
  5
25f
100
AcDbEntity
  8
Layer_1
 62
7
100
AcDbPolyline
 90
2
 70
0
 10
15.132335
 20
579.943365
 30
0.0
 10
15.117518
 20
573.783924
 30
0.0
  0
LWPOLYLINE
  5
260
100
AcDbEntity
  8
Layer_1
 62
7
100
AcDbPolyline
 90
2
 70
0
 10
19.132332
 20
580.132291
 30
0.0
 10
19.147149
 20
573.783924
 30
0.0
  0
LWPOLYLINE
  5
261
100
AcDbEntity
  8
Layer_1
 62
7
100
AcDbPolyline
 90
23
 70
0
 10
176.117639
 20
573.783924
 30
0.0
 10
174.759823
 20
573.094761
 30
0.0
 10
173.619205
 20
572.085987
 30
0.0
 10
172.769284
 20
570.822572
 30
0.0
 10
172.264750
 20
569.385890
 30
0.0
 10
172.138147
 20
567.868467
 30
0.0
 10
172.397597
 20
566.368037
 30
0.0
 10
173.026379
 20
564.981236
 30
0.0
 10
173.984012
 20
563.797379
 30
0.0
 10
175.208848
 20
562.892716
 30
0.0
 10
176.621961
 20
562.325510
 30
0.0
 10
178.132335
 20
562.132293
 30
0.0
 10
179.642735
 20
562.325510
 30
0.0
 10
181.055822
 20
562.892716
 30
0.0
 10
182.280657
 20
563.797379
 30
0.0
 10
183.238290
 20
564.981236
 30
0.0
 10
183.867099
 20
566.368037
 30
0.0
 10
184.126523
 20
567.868467
 30
0.0
 10
183.999920
 20
569.385890
 30
0.0
 10
183.495386
 20
570.822572
 30
0.0
 10
182.645465
 20
572.085987
 30
0.0
 10
181.504873
 20
573.094761
 30
0.0
 10
180.147057
 20
573.783924
 30
0.0
  0
LWPOLYLINE
  5
262
100
AcDbEntity
  8
Layer_1
 62
7
100
AcDbPolyline
 90
12
 70
0
 10
180.132347
 20
579.943365
 30
0.0
 10
181.624570
 20
579.612898
 30
0.0
 10
183.056601
 20
579.075408
 30
0.0
 10
184.408595
 20
578.360123
 30
0.0
 10
185.658646
 20
577.478663
 30
0.0
 10
186.786406
 20
576.445357
 30
0.0
 10
187.773566
 20
575.276983
 30
0.0
 10
188.604093
 20
573.992532
 30
0.0
 10
189.264467
 20
572.612867
 30
0.0
 10
189.743998
 20
571.160408
 30
0.0
 10
190.034854
 20
569.658749
 30
0.0
 10
190.132327
 20
568.132291
 30
0.0
  0
LWPOLYLINE
  5
263
100
AcDbEntity
  8
Layer_1
 62
7
100
AcDbPolyline
 90
13
 70
0
 10
178.132335
 20
440.132290
 30
0.0
 10
179.698642
 20
440.234948
 30
0.0
 10
181.238173
 20
440.541177
 30
0.0
 10
182.724549
 20
441.045737
 30
0.0
 10
184.132344
 20
441.739977
 30
0.0
 10
185.437481
 20
442.612044
 30
0.0
 10
186.617628
 20
443.647015
 30
0.0
 10
187.652572
 20
444.827162
 30
0.0
 10
188.524639
 20
446.132299
 30
0.0
 10
189.218906
 20
447.540094
 30
0.0
 10
189.723439
 20
449.026470
 30
0.0
 10
190.029668
 20
450.565975
 30
0.0
 10
190.132327
 20
452.132282
 30
0.0
  0
LWPOLYLINE
  5
264
100
AcDbEntity
  8
Layer_1
 62
7
100
AcDbPolyline
 90
13
 70
0
 10
17.132347
 20
440.132290
 30
0.0
 10
15.566040
 20
440.234948
 30
0.0
 10
14.026509
 20
440.541177
 30
0.0
 10
12.540133
 20
441.045737
 30
0.0
 10
11.132338
 20
441.739977
 30
0.0
 10
9.827201
 20
442.612044
 30
0.0
 10
8.647053
 20
443.647015
 30
0.0
 10
7.612109
 20
444.827162
 30
0.0
 10
6.740043
 20
446.132299
 30
0.0
 10
6.045776
 20
447.540094
 30
0.0
 10
5.541242
 20
449.026470
 30
0.0
 10
5.235013
 20
450.565975
 30
0.0
 10
5.132328
 20
452.132282
 30
0.0
  0
LWPOLYLINE
  5
265
100
AcDbEntity
  8
Layer_1
 62
7
100
AcDbPolyline
 90
12
 70
0
 10
15.132335
 20
579.943365
 30
0.0
 10
13.640111
 20
579.612898
 30
0.0
 10
12.208080
 20
579.075408
 30
0.0
 10
10.856086
 20
578.360123
 30
0.0
 10
9.606036
 20
577.478663
 30
0.0
 10
8.478276
 20
576.445357
 30
0.0
 10
7.491115
 20
575.276983
 30
0.0
 10
6.660588
 20
573.992532
 30
0.0
 10
6.000215
 20
572.612867
 30
0.0
 10
5.520684
 20
571.160408
 30
0.0
 10
5.229827
 20
569.658749
 30
0.0
 10
5.132328
 20
568.132291
 30
0.0
  0
LWPOLYLINE
  5
266
100
AcDbEntity
  8
Layer_1
 62
7
100
AcDbPolyline
 90
23
 70
0
 10
19.147043
 20
573.783924
 30
0.0
 10
20.504858
 20
573.094761
 30
0.0
 10
21.645477
 20
572.085987
 30
0.0
 10
22.495398
 20
570.822572
 30
0.0
 10
22.999932
 20
569.385890
 30
0.0
 10
23.126535
 20
567.868467
 30
0.0
 10
22.867084
 20
566.368037
 30
0.0
 10
22.238302
 20
564.981236
 30
0.0
 10
21.280669
 20
563.797379
 30
0.0
 10
20.055834
 20
562.892716
 30
0.0
 10
18.642721
 20
562.325510
 30
0.0
 10
17.132347
 20
562.132293
 30
0.0
 10
15.621946
 20
562.325510
 30
0.0
 10
14.208833
 20
562.892716
 30
0.0
 10
12.984024
 20
563.797379
 30
0.0
 10
12.026391
 20
564.981236
 30
0.0
 10
11.397582
 20
566.368037
 30
0.0
 10
11.138132
 20
567.868467
 30
0.0
 10
11.264761
 20
569.385890
 30
0.0
 10
11.769295
 20
570.822572
 30
0.0
 10
12.619216
 20
572.085987
 30
0.0
 10
13.759809
 20
573.094761
 30
0.0
 10
15.117624
 20
573.783924
 30
0.0
  0
LWPOLYLINE
  5
267
100
AcDbEntity
  8
Layer_1
 62
7
100
AcDbPolyline
 90
24
 70
1
 10
175.132330
 20
452.132282
 30
0.0
 10
175.234565
 20
452.908754
 30
0.0
 10
175.534259
 20
453.632284
 30
0.0
 10
176.011012
 20
454.253605
 30
0.0
 10
176.632333
 20
454.730358
 30
0.0
 10
177.355889
 20
455.030078
 30
0.0
 10
178.132335
 20
455.132286
 30
0.0
 10
178.908808
 20
455.030078
 30
0.0
 10
179.632337
 20
454.730358
 30
0.0
 10
180.253658
 20
454.253605
 30
0.0
 10
180.730411
 20
453.632284
 30
0.0
 10
181.030104
 20
452.908754
 30
0.0
 10
181.132339
 20
452.132282
 30
0.0
 10
181.030104
 20
451.355835
 30
0.0
 10
180.730411
 20
450.632306
 30
0.0
 10
180.253658
 20
450.010985
 30
0.0
 10
179.632337
 20
449.534206
 30
0.0
 10
178.908808
 20
449.234512
 30
0.0
 10
178.132335
 20
449.132303
 30
0.0
 10
177.355889
 20
449.234512
 30
0.0
 10
176.632333
 20
449.534206
 30
0.0
 10
176.011012
 20
450.010985
 30
0.0
 10
175.534259
 20
450.632306
 30
0.0
 10
175.234565
 20
451.355835
 30
0.0
  0
LWPOLYLINE
  5
268
100
AcDbEntity
  8
Layer_1
 62
7
100
AcDbPolyline
 90
24
 70
1
 10
14.132342
 20
452.132282
 30
0.0
 10
14.234551
 20
452.908754
 30
0.0
 10
14.534271
 20
453.632284
 30
0.0
 10
15.011023
 20
454.253605
 30
0.0
 10
15.632344
 20
454.730358
 30
0.0
 10
16.355874
 20
455.030078
 30
0.0
 10
17.132347
 20
455.132286
 30
0.0
 10
17.908793
 20
455.030078
 30
0.0
 10
18.632349
 20
454.730358
 30
0.0
 10
19.253670
 20
454.253605
 30
0.0
 10
19.730423
 20
453.632284
 30
0.0
 10
20.030116
 20
452.908754
 30
0.0
 10
20.132351
 20
452.132282
 30
0.0
 10
20.030116
 20
451.355835
 30
0.0
 10
19.730423
 20
450.632306
 30
0.0
 10
19.253670
 20
450.010985
 30
0.0
 10
18.632349
 20
449.534206
 30
0.0
 10
17.908793
 20
449.234512
 30
0.0
 10
17.132347
 20
449.132303
 30
0.0
 10
16.355874
 20
449.234512
 30
0.0
 10
15.632344
 20
449.534206
 30
0.0
 10
15.011023
 20
450.010985
 30
0.0
 10
14.534271
 20
450.632306
 30
0.0
 10
14.234551
 20
451.355835
 30
0.0
  0
LWPOLYLINE
  5
269
100
AcDbEntity
  8
Layer_1
 62
7
100
AcDbPolyline
 90
2
 70
0
 10
166.132343
 20
458.132291
 30
0.0
 10
29.132338
 20
458.132291
 30
0.0
  0
LWPOLYLINE
  5
26a
100
AcDbEntity
  8
Layer_1
 62
7
100
AcDbPolyline
 90
2
 70
0
 10
172.132352
 20
556.132292
 30
0.0
 10
172.132352
 20
464.132300
 30
0.0
  0
LWPOLYLINE
  5
26b
100
AcDbEntity
  8
Layer_1
 62
7
100
AcDbPolyline
 90
2
 70
0
 10
166.132343
 20
562.132293
 30
0.0
 10
29.132338
 20
562.132293
 30
0.0
  0
LWPOLYLINE
  5
26c
100
AcDbEntity
  8
Layer_1
 62
7
100
AcDbPolyline
 90
2
 70
0
 10
23.132329
 20
556.132292
 30
0.0
 10
23.132329
 20
464.132300
 30
0.0
  0
LWPOLYLINE
  5
26d
100
AcDbEntity
  8
Layer_1
 62
7
100
AcDbPolyline
 90
13
 70
0
 10
29.132338
 20
458.132291
 30
0.0
 10
28.349172
 20
458.183620
 30
0.0
 10
27.579419
 20
458.336734
 30
0.0
 10
26.836231
 20
458.589014
 30
0.0
 10
26.132334
 20
458.936148
 30
0.0
 10
25.479765
 20
459.372181
 30
0.0
 10
24.889692
 20
459.889653
 30
0.0
 10
24.372220
 20
460.479727
 30
0.0
 10
23.936186
 20
461.132295
 30
0.0
 10
23.589053
 20
461.836193
 30
0.0
 10
23.336773
 20
462.579381
 30
0.0
 10
23.183685
 20
463.349133
 30
0.0
 10
23.132329
 20
464.132300
 30
0.0
  0
LWPOLYLINE
  5
26e
100
AcDbEntity
  8
Layer_1
 62
7
100
AcDbPolyline
 90
13
 70
0
 10
172.132352
 20
464.132300
 30
0.0
 10
172.080997
 20
463.349133
 30
0.0
 10
171.927882
 20
462.579381
 30
0.0
 10
171.675628
 20
461.836193
 30
0.0
 10
171.328495
 20
461.132295
 30
0.0
 10
170.892462
 20
460.479727
 30
0.0
 10
170.374990
 20
459.889653
 30
0.0
 10
169.784916
 20
459.372181
 30
0.0
 10
169.132348
 20
458.936148
 30
0.0
 10
168.428450
 20
458.589014
 30
0.0
 10
167.685262
 20
458.336734
 30
0.0
 10
166.915483
 20
458.183620
 30
0.0
 10
166.132343
 20
458.132291
 30
0.0
  0
LWPOLYLINE
  5
26f
100
AcDbEntity
  8
Layer_1
 62
7
100
AcDbPolyline
 90
13
 70
0
 10
172.132352
 20
556.132292
 30
0.0
 10
172.080997
 20
556.915451
 30
0.0
 10
171.927882
 20
557.685205
 30
0.0
 10
171.675628
 20
558.428394
 30
0.0
 10
171.328495
 20
559.132291
 30
0.0
 10
170.892462
 20
559.784862
 30
0.0
 10
170.374990
 20
560.374933
 30
0.0
 10
169.784916
 20
560.892413
 30
0.0
 10
169.132348
 20
561.328444
 30
0.0
 10
168.428450
 20
561.675569
 30
0.0
 10
167.685262
 20
561.927847
 30
0.0
 10
166.915483
 20
562.080961
 30
0.0
 10
166.132343
 20
562.132293
 30
0.0
  0
LWPOLYLINE
  5
270
100
AcDbEntity
  8
Layer_1
 62
7
100
AcDbPolyline
 90
13
 70
0
 10
23.132329
 20
556.132292
 30
0.0
 10
23.183685
 20
556.915451
 30
0.0
 10
23.336773
 20
557.685205
 30
0.0
 10
23.589053
 20
558.428394
 30
0.0
 10
23.936186
 20
559.132291
 30
0.0
 10
24.372220
 20
559.784862
 30
0.0
 10
24.889692
 20
560.374933
 30
0.0
 10
25.479765
 20
560.892413
 30
0.0
 10
26.132334
 20
561.328444
 30
0.0
 10
26.836231
 20
561.675569
 30
0.0
 10
27.579419
 20
561.927847
 30
0.0
 10
28.349172
 20
562.080961
 30
0.0
 10
29.132338
 20
562.132293
 30
0.0
  0
LWPOLYLINE
  5
271
100
AcDbEntity
  8
Layer_1
 62
7
100
AcDbPolyline
 90
2
 70
0
 10
210.132273
 20
579.943365
 30
0.0
 10
210.117456
 20
573.783924
 30
0.0
  0
LWPOLYLINE
  5
272
100
AcDbEntity
  8
Layer_1
 62
7
100
AcDbPolyline
 90
2
 70
0
 10
214.132270
 20
580.132291
 30
0.0
 10
214.147087
 20
573.783924
 30
0.0
  0
LWPOLYLINE
  5
273
100
AcDbEntity
  8
Layer_1
 62
7
100
AcDbPolyline
 90
2
 70
0
 10
371.132287
 20
580.132291
 30
0.0
 10
214.132270
 20
580.132291
 30
0.0
  0
LWPOLYLINE
  5
274
100
AcDbEntity
  8
Layer_1
 62
7
100
AcDbPolyline
 90
2
 70
0
 10
371.132287
 20
580.132291
 30
0.0
 10
371.117471
 20
573.783924
 30
0.0
  0
LWPOLYLINE
  5
275
100
AcDbEntity
  8
Layer_1
 62
7
100
AcDbPolyline
 90
2
 70
0
 10
375.132285
 20
579.943365
 30
0.0
 10
375.147101
 20
573.783924
 30
0.0
  0
LWPOLYLINE
  5
276
100
AcDbEntity
  8
Layer_1
 62
7
100
AcDbPolyline
 90
2
 70
0
 10
385.132291
 20
452.132282
 30
0.0
 10
385.132291
 20
568.132291
 30
0.0
  0
LWPOLYLINE
  5
277
100
AcDbEntity
  8
Layer_1
 62
7
100
AcDbPolyline
 90
2
 70
0
 10
212.132285
 20
440.132290
 30
0.0
 10
373.132273
 20
440.132290
 30
0.0
  0
LWPOLYLINE
  5
278
100
AcDbEntity
  8
Layer_1
 62
7
100
AcDbPolyline
 90
2
 70
0
 10
200.132293
 20
568.132291
 30
0.0
 10
200.132293
 20
452.132282
 30
0.0
  0
LWPOLYLINE
  5
279
100
AcDbEntity
  8
Layer_1
 62
7
100
AcDbPolyline
 90
23
 70
0
 10
210.117562
 20
573.783924
 30
0.0
 10
208.759747
 20
573.094761
 30
0.0
 10
207.619155
 20
572.085987
 30
0.0
 10
206.769234
 20
570.822572
 30
0.0
 10
206.264700
 20
569.385890
 30
0.0
 10
206.138096
 20
567.868467
 30
0.0
 10
206.397520
 20
566.368037
 30
0.0
 10
207.026329
 20
564.981236
 30
0.0
 10
207.983962
 20
563.797379
 30
0.0
 10
209.208798
 20
562.892716
 30
0.0
 10
210.621884
 20
562.325510
 30
0.0
 10
212.132285
 20
562.132293
 30
0.0
 10
213.642659
 20
562.325510
 30
0.0
 10
215.055772
 20
562.892716
 30
0.0
 10
216.280607
 20
563.797379
 30
0.0
 10
217.238240
 20
564.981236
 30
0.0
 10
217.867023
 20
566.368037
 30
0.0
 10
218.126473
 20
567.868467
 30
0.0
 10
217.999870
 20
569.385890
 30
0.0
 10
217.495336
 20
570.822572
 30
0.0
 10
216.645415
 20
572.085987
 30
0.0
 10
215.504796
 20
573.094761
 30
0.0
 10
214.146981
 20
573.783924
 30
0.0
  0
LWPOLYLINE
  5
27a
100
AcDbEntity
  8
Layer_1
 62
7
100
AcDbPolyline
 90
23
 70
0
 10
371.117577
 20
573.783924
 30
0.0
 10
369.759761
 20
573.094761
 30
0.0
 10
368.619143
 20
572.085987
 30
0.0
 10
367.769222
 20
570.822572
 30
0.0
 10
367.264688
 20
569.385890
 30
0.0
 10
367.138085
 20
567.868467
 30
0.0
 10
367.397535
 20
566.368037
 30
0.0
 10
368.026317
 20
564.981236
 30
0.0
 10
368.983950
 20
563.797379
 30
0.0
 10
370.208786
 20
562.892716
 30
0.0
 10
371.621899
 20
562.325510
 30
0.0
 10
373.132273
 20
562.132293
 30
0.0
 10
374.642673
 20
562.325510
 30
0.0
 10
376.055786
 20
562.892716
 30
0.0
 10
377.280596
 20
563.797379
 30
0.0
 10
378.238228
 20
564.981236
 30
0.0
 10
378.867037
 20
566.368037
 30
0.0
 10
379.126488
 20
567.868467
 30
0.0
 10
378.999858
 20
569.385890
 30
0.0
 10
378.495351
 20
570.822572
 30
0.0
 10
377.645403
 20
572.085987
 30
0.0
 10
376.504811
 20
573.094761
 30
0.0
 10
375.146996
 20
573.783924
 30
0.0
  0
LWPOLYLINE
  5
27b
100
AcDbEntity
  8
Layer_1
 62
7
100
AcDbPolyline
 90
12
 70
0
 10
375.132285
 20
579.943365
 30
0.0
 10
376.624508
 20
579.612898
 30
0.0
 10
378.056539
 20
579.075408
 30
0.0
 10
379.408533
 20
578.360123
 30
0.0
 10
380.658584
 20
577.478663
 30
0.0
 10
381.786344
 20
576.445357
 30
0.0
 10
382.773504
 20
575.276983
 30
0.0
 10
383.604031
 20
573.992532
 30
0.0
 10
384.264405
 20
572.612867
 30
0.0
 10
384.743936
 20
571.160408
 30
0.0
 10
385.034792
 20
569.658749
 30
0.0
 10
385.132291
 20
568.132291
 30
0.0
  0
LWPOLYLINE
  5
27c
100
AcDbEntity
  8
Layer_1
 62
7
100
AcDbPolyline
 90
13
 70
0
 10
373.132273
 20
440.132290
 30
0.0
 10
374.698606
 20
440.234948
 30
0.0
 10
376.238111
 20
440.541177
 30
0.0
 10
377.724487
 20
441.045737
 30
0.0
 10
379.132282
 20
441.739977
 30
0.0
 10
380.437419
 20
442.612044
 30
0.0
 10
381.617566
 20
443.647015
 30
0.0
 10
382.652510
 20
444.827162
 30
0.0
 10
383.524577
 20
446.132299
 30
0.0
 10
384.218844
 20
447.540094
 30
0.0
 10
384.723378
 20
449.026470
 30
0.0
 10
385.029606
 20
450.565975
 30
0.0
 10
385.132291
 20
452.132282
 30
0.0
  0
LWPOLYLINE
  5
27d
100
AcDbEntity
  8
Layer_1
 62
7
100
AcDbPolyline
 90
13
 70
0
 10
212.132285
 20
440.132290
 30
0.0
 10
210.565978
 20
440.234948
 30
0.0
 10
209.026447
 20
440.541177
 30
0.0
 10
207.540071
 20
441.045737
 30
0.0
 10
206.132276
 20
441.739977
 30
0.0
 10
204.827139
 20
442.612044
 30
0.0
 10
203.646991
 20
443.647015
 30
0.0
 10
202.612047
 20
444.827162
 30
0.0
 10
201.739981
 20
446.132299
 30
0.0
 10
201.045714
 20
447.540094
 30
0.0
 10
200.541180
 20
449.026470
 30
0.0
 10
200.234951
 20
450.565975
 30
0.0
 10
200.132293
 20
452.132282
 30
0.0
  0
LWPOLYLINE
  5
27e
100
AcDbEntity
  8
Layer_1
 62
7
100
AcDbPolyline
 90
12
 70
0
 10
210.132273
 20
579.943365
 30
0.0
 10
208.640049
 20
579.612898
 30
0.0
 10
207.208045
 20
579.075408
 30
0.0
 10
205.856024
 20
578.360123
 30
0.0
 10
204.605974
 20
577.478663
 30
0.0
 10
203.478214
 20
576.445357
 30
0.0
 10
202.491053
 20
575.276983
 30
0.0
 10
201.660526
 20
573.992532
 30
0.0
 10
201.000153
 20
572.612867
 30
0.0
 10
200.520622
 20
571.160408
 30
0.0
 10
200.229765
 20
569.658749
 30
0.0
 10
200.132293
 20
568.132291
 30
0.0
  0
LWPOLYLINE
  5
27f
100
AcDbEntity
  8
Layer_1
 62
7
100
AcDbPolyline
 90
2
 70
0
 10
361.132281
 20
458.132291
 30
0.0
 10
224.132276
 20
458.132291
 30
0.0
  0
LWPOLYLINE
  5
280
100
AcDbEntity
  8
Layer_1
 62
7
100
AcDbPolyline
 90
2
 70
0
 10
367.132290
 20
556.132292
 30
0.0
 10
367.132290
 20
464.132300
 30
0.0
  0
LWPOLYLINE
  5
281
100
AcDbEntity
  8
Layer_1
 62
7
100
AcDbPolyline
 90
2
 70
0
 10
361.132281
 20
562.132293
 30
0.0
 10
224.132276
 20
562.132293
 30
0.0
  0
LWPOLYLINE
  5
282
100
AcDbEntity
  8
Layer_1
 62
7
100
AcDbPolyline
 90
2
 70
0
 10
218.132294
 20
556.132292
 30
0.0
 10
218.132294
 20
464.132300
 30
0.0
  0
LWPOLYLINE
  5
283
100
AcDbEntity
  8
Layer_1
 62
7
100
AcDbPolyline
 90
13
 70
0
 10
224.132276
 20
458.132291
 30
0.0
 10
223.349136
 20
458.183620
 30
0.0
 10
222.579357
 20
458.336734
 30
0.0
 10
221.836169
 20
458.589014
 30
0.0
 10
221.132272
 20
458.936148
 30
0.0
 10
220.479704
 20
459.372181
 30
0.0
 10
219.889630
 20
459.889653
 30
0.0
 10
219.372158
 20
460.479727
 30
0.0
 10
218.936124
 20
461.132295
 30
0.0
 10
218.588991
 20
461.836193
 30
0.0
 10
218.336737
 20
462.579381
 30
0.0
 10
218.183623
 20
463.349133
 30
0.0
 10
218.132294
 20
464.132300
 30
0.0
  0
LWPOLYLINE
  5
284
100
AcDbEntity
  8
Layer_1
 62
7
100
AcDbPolyline
 90
13
 70
0
 10
367.132290
 20
464.132300
 30
0.0
 10
367.080961
 20
463.349133
 30
0.0
 10
366.927847
 20
462.579381
 30
0.0
 10
366.675567
 20
461.836193
 30
0.0
 10
366.328433
 20
461.132295
 30
0.0
 10
365.892400
 20
460.479727
 30
0.0
 10
365.374928
 20
459.889653
 30
0.0
 10
364.784854
 20
459.372181
 30
0.0
 10
364.132286
 20
458.936148
 30
0.0
 10
363.428388
 20
458.589014
 30
0.0
 10
362.685200
 20
458.336734
 30
0.0
 10
361.915448
 20
458.183620
 30
0.0
 10
361.132281
 20
458.132291
 30
0.0
  0
LWPOLYLINE
  5
285
100
AcDbEntity
  8
Layer_1
 62
7
100
AcDbPolyline
 90
13
 70
0
 10
367.132290
 20
556.132292
 30
0.0
 10
367.080961
 20
556.915451
 30
0.0
 10
366.927847
 20
557.685205
 30
0.0
 10
366.675567
 20
558.428394
 30
0.0
 10
366.328433
 20
559.132291
 30
0.0
 10
365.892400
 20
559.784862
 30
0.0
 10
365.374928
 20
560.374933
 30
0.0
 10
364.784854
 20
560.892413
 30
0.0
 10
364.132286
 20
561.328444
 30
0.0
 10
363.428388
 20
561.675569
 30
0.0
 10
362.685200
 20
561.927847
 30
0.0
 10
361.915448
 20
562.080961
 30
0.0
 10
361.132281
 20
562.132293
 30
0.0
  0
LWPOLYLINE
  5
286
100
AcDbEntity
  8
Layer_1
 62
7
100
AcDbPolyline
 90
13
 70
0
 10
218.132294
 20
556.132292
 30
0.0
 10
218.183623
 20
556.915451
 30
0.0
 10
218.336737
 20
557.685205
 30
0.0
 10
218.588991
 20
558.428394
 30
0.0
 10
218.936124
 20
559.132291
 30
0.0
 10
219.372158
 20
559.784862
 30
0.0
 10
219.889630
 20
560.374933
 30
0.0
 10
220.479704
 20
560.892413
 30
0.0
 10
221.132272
 20
561.328444
 30
0.0
 10
221.836169
 20
561.675569
 30
0.0
 10
222.579357
 20
561.927847
 30
0.0
 10
223.349136
 20
562.080961
 30
0.0
 10
224.132276
 20
562.132293
 30
0.0
  0
LWPOLYLINE
  5
287
100
AcDbEntity
  8
Layer_1
 62
7
100
AcDbPolyline
 90
24
 70
1
 10
209.132280
 20
452.132282
 30
0.0
 10
209.234515
 20
452.908754
 30
0.0
 10
209.534209
 20
453.632284
 30
0.0
 10
210.010961
 20
454.253605
 30
0.0
 10
210.632282
 20
454.730358
 30
0.0
 10
211.355812
 20
455.030078
 30
0.0
 10
212.132285
 20
455.132286
 30
0.0
 10
212.908731
 20
455.030078
 30
0.0
 10
213.632287
 20
454.730358
 30
0.0
 10
214.253608
 20
454.253605
 30
0.0
 10
214.730361
 20
453.632284
 30
0.0
 10
215.030054
 20
452.908754
 30
0.0
 10
215.132289
 20
452.132282
 30
0.0
 10
215.030054
 20
451.355835
 30
0.0
 10
214.730361
 20
450.632306
 30
0.0
 10
214.253608
 20
450.010985
 30
0.0
 10
213.632287
 20
449.534206
 30
0.0
 10
212.908731
 20
449.234512
 30
0.0
 10
212.132285
 20
449.132303
 30
0.0
 10
211.355812
 20
449.234512
 30
0.0
 10
210.632282
 20
449.534206
 30
0.0
 10
210.010961
 20
450.010985
 30
0.0
 10
209.534209
 20
450.632306
 30
0.0
 10
209.234515
 20
451.355835
 30
0.0
  0
LWPOLYLINE
  5
288
100
AcDbEntity
  8
Layer_1
 62
7
100
AcDbPolyline
 90
24
 70
1
 10
370.132268
 20
452.132282
 30
0.0
 10
370.234503
 20
452.908754
 30
0.0
 10
370.534197
 20
453.632284
 30
0.0
 10
371.010950
 20
454.253605
 30
0.0
 10
371.632271
 20
454.730358
 30
0.0
 10
372.355827
 20
455.030078
 30
0.0
 10
373.132273
 20
455.132286
 30
0.0
 10
373.908746
 20
455.030078
 30
0.0
 10
374.632275
 20
454.730358
 30
0.0
 10
375.253596
 20
454.253605
 30
0.0
 10
375.730349
 20
453.632284
 30
0.0
 10
376.030069
 20
452.908754
 30
0.0
 10
376.132277
 20
452.132282
 30
0.0
 10
376.030069
 20
451.355835
 30
0.0
 10
375.730349
 20
450.632306
 30
0.0
 10
375.253596
 20
450.010985
 30
0.0
 10
374.632275
 20
449.534206
 30
0.0
 10
373.908746
 20
449.234512
 30
0.0
 10
373.132273
 20
449.132303
 30
0.0
 10
372.355827
 20
449.234512
 30
0.0
 10
371.632271
 20
449.534206
 30
0.0
 10
371.010950
 20
450.010985
 30
0.0
 10
370.534197
 20
450.632306
 30
0.0
 10
370.234503
 20
451.355835
 30
0.0
  0
LWPOLYLINE
  5
289
100
AcDbEntity
  8
Layer_1
 62
7
100
AcDbPolyline
 90
2
 70
0
 10
172.132250
 20
378.132292
 30
0.0
 10
172.132250
 20
319.132300
 30
0.0
  0
LWPOLYLINE
  5
28a
100
AcDbEntity
  8
Layer_1
 62
7
100
AcDbPolyline
 90
2
 70
0
 10
166.132267
 20
384.132293
 30
0.0
 10
190.132250
 20
384.132293
 30
0.0
  0
LWPOLYLINE
  5
28b
100
AcDbEntity
  8
Layer_1
 62
7
100
AcDbPolyline
 90
2
 70
0
 10
190.132250
 20
307.132282
 30
0.0
 10
190.132250
 20
384.132293
 30
0.0
  0
LWPOLYLINE
  5
28c
100
AcDbEntity
  8
Layer_1
 62
7
100
AcDbPolyline
 90
2
 70
0
 10
17.132270
 20
295.132290
 30
0.0
 10
178.132259
 20
295.132290
 30
0.0
  0
LWPOLYLINE
  5
28d
100
AcDbEntity
  8
Layer_1
 62
7
100
AcDbPolyline
 90
2
 70
0
 10
5.132252
 20
423.132291
 30
0.0
 10
5.132252
 20
307.132282
 30
0.0
  0
LWPOLYLINE
  5
28e
100
AcDbEntity
  8
Layer_1
 62
7
100
AcDbPolyline
 90
2
 70
0
 10
15.132259
 20
434.943365
 30
0.0
 10
15.117442
 20
428.783924
 30
0.0
  0
LWPOLYLINE
  5
28f
100
AcDbEntity
  8
Layer_1
 62
7
100
AcDbPolyline
 90
2
 70
0
 10
19.132256
 20
435.132291
 30
0.0
 10
19.147073
 20
428.783924
 30
0.0
  0
LWPOLYLINE
  5
290
100
AcDbEntity
  8
Layer_1
 62
7
100
AcDbPolyline
 90
2
 70
0
 10
176.132247
 20
435.132291
 30
0.0
 10
19.132256
 20
435.132291
 30
0.0
  0
LWPOLYLINE
  5
291
100
AcDbEntity
  8
Layer_1
 62
7
100
AcDbPolyline
 90
2
 70
0
 10
176.132247
 20
435.132291
 30
0.0
 10
176.117430
 20
428.783924
 30
0.0
  0
LWPOLYLINE
  5
292
100
AcDbEntity
  8
Layer_1
 62
7
100
AcDbPolyline
 90
2
 70
0
 10
180.132271
 20
434.943365
 30
0.0
 10
180.147087
 20
428.783924
 30
0.0
  0
LWPOLYLINE
  5
293
100
AcDbEntity
  8
Layer_1
 62
7
100
AcDbPolyline
 90
2
 70
0
 10
190.132250
 20
404.132293
 30
0.0
 10
190.132250
 20
423.132291
 30
0.0
  0
LWPOLYLINE
  5
294
100
AcDbEntity
  8
Layer_1
 62
7
100
AcDbPolyline
 90
2
 70
0
 10
166.132267
 20
404.132293
 30
0.0
 10
190.132250
 20
404.132293
 30
0.0
  0
LWPOLYLINE
  5
295
100
AcDbEntity
  8
Layer_1
 62
7
100
AcDbPolyline
 90
2
 70
0
 10
172.132250
 20
411.132292
 30
0.0
 10
172.132250
 20
410.132291
 30
0.0
  0
LWPOLYLINE
  5
296
100
AcDbEntity
  8
Layer_1
 62
7
100
AcDbPolyline
 90
2
 70
0
 10
166.132267
 20
417.132293
 30
0.0
 10
29.132262
 20
417.132293
 30
0.0
  0
LWPOLYLINE
  5
297
100
AcDbEntity
  8
Layer_1
 62
7
100
AcDbPolyline
 90
4
 70
0
 10
23.132253
 20
411.132292
 30
0.0
 10
23.132253
 20
345.632294
 30
0.0
 10
121.132252
 20
345.632294
 30
0.0
 10
121.132252
 20
319.132300
 30
0.0
  0
LWPOLYLINE
  5
298
100
AcDbEntity
  8
Layer_1
 62
7
100
AcDbPolyline
 90
2
 70
0
 10
166.132267
 20
313.132291
 30
0.0
 10
127.132261
 20
313.132291
 30
0.0
  0
LWPOLYLINE
  5
299
100
AcDbEntity
  8
Layer_1
 62
7
100
AcDbPolyline
 90
13
 70
0
 10
166.132267
 20
384.132293
 30
0.0
 10
166.915407
 20
384.080961
 30
0.0
 10
167.685186
 20
383.927847
 30
0.0
 10
168.428348
 20
383.675569
 30
0.0
 10
169.132271
 20
383.328444
 30
0.0
 10
169.784840
 20
382.892413
 30
0.0
 10
170.374887
 20
382.374933
 30
0.0
 10
170.892386
 20
381.784862
 30
0.0
 10
171.328419
 20
381.132291
 30
0.0
 10
171.675526
 20
380.428394
 30
0.0
 10
171.927806
 20
379.685208
 30
0.0
 10
172.080920
 20
378.915451
 30
0.0
 10
172.132250
 20
378.132292
 30
0.0
  0
LWPOLYLINE
  5
29a
100
AcDbEntity
  8
Layer_1
 62
7
100
AcDbPolyline
 90
13
 70
0
 10
178.132259
 20
295.132290
 30
0.0
 10
179.698566
 20
295.234948
 30
0.0
 10
181.238097
 20
295.541177
 30
0.0
 10
182.724473
 20
296.045737
 30
0.0
 10
184.132268
 20
296.739977
 30
0.0
 10
185.437404
 20
297.612044
 30
0.0
 10
186.617552
 20
298.647015
 30
0.0
 10
187.652496
 20
299.827162
 30
0.0
 10
188.524563
 20
301.132299
 30
0.0
 10
189.218803
 20
302.540094
 30
0.0
 10
189.723363
 20
304.026470
 30
0.0
 10
190.029592
 20
305.565975
 30
0.0
 10
190.132250
 20
307.132282
 30
0.0
  0
LWPOLYLINE
  5
29b
100
AcDbEntity
  8
Layer_1
 62
7
100
AcDbPolyline
 90
13
 70
0
 10
17.132270
 20
295.132290
 30
0.0
 10
15.565937
 20
295.234948
 30
0.0
 10
14.026433
 20
295.541177
 30
0.0
 10
12.540056
 20
296.045737
 30
0.0
 10
11.132261
 20
296.739977
 30
0.0
 10
9.827125
 20
297.612044
 30
0.0
 10
8.646977
 20
298.647015
 30
0.0
 10
7.612033
 20
299.827162
 30
0.0
 10
6.739966
 20
301.132299
 30
0.0
 10
6.045700
 20
302.540094
 30
0.0
 10
5.541139
 20
304.026470
 30
0.0
 10
5.234911
 20
305.565975
 30
0.0
 10
5.132252
 20
307.132282
 30
0.0
  0
LWPOLYLINE
  5
29c
100
AcDbEntity
  8
Layer_1
 62
7
100
AcDbPolyline
 90
12
 70
0
 10
15.132259
 20
434.943365
 30
0.0
 10
13.640035
 20
434.612898
 30
0.0
 10
12.208004
 20
434.075408
 30
0.0
 10
10.855983
 20
433.360123
 30
0.0
 10
9.605960
 20
432.478663
 30
0.0
 10
8.478200
 20
431.445357
 30
0.0
 10
7.491039
 20
430.276983
 30
0.0
 10
6.660512
 20
428.992532
 30
0.0
 10
6.000139
 20
427.612867
 30
0.0
 10
5.520608
 20
426.160408
 30
0.0
 10
5.229751
 20
424.658749
 30
0.0
 10
5.132252
 20
423.132291
 30
0.0
  0
LWPOLYLINE
  5
29d
100
AcDbEntity
  8
Layer_1
 62
7
100
AcDbPolyline
 90
23
 70
0
 10
15.117548
 20
428.783924
 30
0.0
 10
13.759733
 20
428.094761
 30
0.0
 10
12.619140
 20
427.085987
 30
0.0
 10
11.769193
 20
425.822572
 30
0.0
 10
11.264685
 20
424.385890
 30
0.0
 10
11.138056
 20
422.868467
 30
0.0
 10
11.397506
 20
421.368037
 30
0.0
 10
12.026288
 20
419.981236
 30
0.0
 10
12.983948
 20
418.797379
 30
0.0
 10
14.208757
 20
417.892716
 30
0.0
 10
15.621870
 20
417.325510
 30
0.0
 10
17.132270
 20
417.132293
 30
0.0
 10
18.642644
 20
417.325510
 30
0.0
 10
20.055758
 20
417.892716
 30
0.0
 10
21.280567
 20
418.797379
 30
0.0
 10
22.238226
 20
419.981236
 30
0.0
 10
22.867008
 20
421.368037
 30
0.0
 10
23.126459
 20
422.868467
 30
0.0
 10
22.999829
 20
424.385890
 30
0.0
 10
22.495322
 20
425.822572
 30
0.0
 10
21.645374
 20
427.085987
 30
0.0
 10
20.504782
 20
428.094761
 30
0.0
 10
19.146967
 20
428.783924
 30
0.0
  0
LWPOLYLINE
  5
29e
100
AcDbEntity
  8
Layer_1
 62
7
100
AcDbPolyline
 90
23
 70
0
 10
176.117536
 20
428.783924
 30
0.0
 10
174.759747
 20
428.094761
 30
0.0
 10
173.619129
 20
427.085987
 30
0.0
 10
172.769207
 20
425.822572
 30
0.0
 10
172.264674
 20
424.385890
 30
0.0
 10
172.138070
 20
422.868467
 30
0.0
 10
172.397494
 20
421.368037
 30
0.0
 10
173.026303
 20
419.981236
 30
0.0
 10
173.983936
 20
418.797379
 30
0.0
 10
175.208772
 20
417.892716
 30
0.0
 10
176.621885
 20
417.325510
 30
0.0
 10
178.132259
 20
417.132293
 30
0.0
 10
179.642633
 20
417.325510
 30
0.0
 10
181.055746
 20
417.892716
 30
0.0
 10
182.280581
 20
418.797379
 30
0.0
 10
183.238214
 20
419.981236
 30
0.0
 10
183.867023
 20
421.368037
 30
0.0
 10
184.126447
 20
422.868467
 30
0.0
 10
183.999844
 20
424.385890
 30
0.0
 10
183.495310
 20
425.822572
 30
0.0
 10
182.645389
 20
427.085987
 30
0.0
 10
181.504770
 20
428.094761
 30
0.0
 10
180.146981
 20
428.783924
 30
0.0
  0
LWPOLYLINE
  5
29f
100
AcDbEntity
  8
Layer_1
 62
7
100
AcDbPolyline
 90
12
 70
0
 10
180.132271
 20
434.943365
 30
0.0
 10
181.624494
 20
434.612898
 30
0.0
 10
183.056498
 20
434.075408
 30
0.0
 10
184.408519
 20
433.360123
 30
0.0
 10
185.658570
 20
432.478663
 30
0.0
 10
186.786330
 20
431.445357
 30
0.0
 10
187.773490
 20
430.276983
 30
0.0
 10
188.604017
 20
428.992532
 30
0.0
 10
189.264391
 20
427.612867
 30
0.0
 10
189.743921
 20
426.160408
 30
0.0
 10
190.034778
 20
424.658749
 30
0.0
 10
190.132250
 20
423.132291
 30
0.0
  0
LWPOLYLINE
  5
2a0
100
AcDbEntity
  8
Layer_1
 62
7
100
AcDbPolyline
 90
13
 70
0
 10
172.132250
 20
410.132291
 30
0.0
 10
172.080920
 20
409.349135
 30
0.0
 10
171.927806
 20
408.579378
 30
0.0
 10
171.675526
 20
407.836192
 30
0.0
 10
171.328419
 20
407.132292
 30
0.0
 10
170.892386
 20
406.479724
 30
0.0
 10
170.374887
 20
405.889653
 30
0.0
 10
169.784840
 20
405.372172
 30
0.0
 10
169.132271
 20
404.936139
 30
0.0
 10
168.428348
 20
404.589016
 30
0.0
 10
167.685186
 20
404.336739
 30
0.0
 10
166.915407
 20
404.183624
 30
0.0
 10
166.132267
 20
404.132293
 30
0.0
  0
LWPOLYLINE
  5
2a1
100
AcDbEntity
  8
Layer_1
 62
7
100
AcDbPolyline
 90
13
 70
0
 10
172.132250
 20
411.132292
 30
0.0
 10
172.080920
 20
411.915451
 30
0.0
 10
171.927806
 20
412.685205
 30
0.0
 10
171.675526
 20
413.428394
 30
0.0
 10
171.328419
 20
414.132291
 30
0.0
 10
170.892386
 20
414.784862
 30
0.0
 10
170.374887
 20
415.374933
 30
0.0
 10
169.784840
 20
415.892413
 30
0.0
 10
169.132271
 20
416.328444
 30
0.0
 10
168.428348
 20
416.675569
 30
0.0
 10
167.685186
 20
416.927847
 30
0.0
 10
166.915407
 20
417.080961
 30
0.0
 10
166.132267
 20
417.132293
 30
0.0
  0
LWPOLYLINE
  5
2a2
100
AcDbEntity
  8
Layer_1
 62
7
100
AcDbPolyline
 90
13
 70
0
 10
23.132253
 20
411.132292
 30
0.0
 10
23.183582
 20
411.915451
 30
0.0
 10
23.336697
 20
412.685205
 30
0.0
 10
23.588977
 20
413.428394
 30
0.0
 10
23.936110
 20
414.132291
 30
0.0
 10
24.372144
 20
414.784862
 30
0.0
 10
24.889616
 20
415.374933
 30
0.0
 10
25.479689
 20
415.892413
 30
0.0
 10
26.132258
 20
416.328444
 30
0.0
 10
26.836155
 20
416.675569
 30
0.0
 10
27.579343
 20
416.927847
 30
0.0
 10
28.349096
 20
417.080961
 30
0.0
 10
29.132262
 20
417.132293
 30
0.0
  0
LWPOLYLINE
  5
2a3
100
AcDbEntity
  8
Layer_1
 62
7
100
AcDbPolyline
 90
13
 70
0
 10
121.132252
 20
319.132300
 30
0.0
 10
121.183581
 20
318.349133
 30
0.0
 10
121.336695
 20
317.579381
 30
0.0
 10
121.588975
 20
316.836193
 30
0.0
 10
121.936109
 20
316.132295
 30
0.0
 10
122.372142
 20
315.479727
 30
0.0
 10
122.889614
 20
314.889653
 30
0.0
 10
123.479688
 20
314.372181
 30
0.0
 10
124.132256
 20
313.936148
 30
0.0
 10
124.836154
 20
313.589014
 30
0.0
 10
125.579342
 20
313.336734
 30
0.0
 10
126.349094
 20
313.183620
 30
0.0
 10
127.132261
 20
313.132291
 30
0.0
  0
LWPOLYLINE
  5
2a4
100
AcDbEntity
  8
Layer_1
 62
7
100
AcDbPolyline
 90
13
 70
0
 10
172.132250
 20
319.132300
 30
0.0
 10
172.080920
 20
318.349133
 30
0.0
 10
171.927806
 20
317.579381
 30
0.0
 10
171.675526
 20
316.836193
 30
0.0
 10
171.328419
 20
316.132295
 30
0.0
 10
170.892386
 20
315.479727
 30
0.0
 10
170.374887
 20
314.889653
 30
0.0
 10
169.784840
 20
314.372181
 30
0.0
 10
169.132271
 20
313.936148
 30
0.0
 10
168.428348
 20
313.589014
 30
0.0
 10
167.685186
 20
313.336734
 30
0.0
 10
166.915407
 20
313.183620
 30
0.0
 10
166.132267
 20
313.132291
 30
0.0
  0
LWPOLYLINE
  5
2a5
100
AcDbEntity
  8
Layer_1
 62
7
100
AcDbPolyline
 90
2
 70
0
 10
80.632270
 20
313.132291
 30
0.0
 10
29.132262
 20
313.132291
 30
0.0
  0
LWPOLYLINE
  5
2a6
100
AcDbEntity
  8
Layer_1
 62
7
100
AcDbPolyline
 90
2
 70
0
 10
80.632270
 20
297.632285
 30
0.0
 10
80.632270
 20
313.132291
 30
0.0
  0
LWPOLYLINE
  5
2a7
100
AcDbEntity
  8
Layer_1
 62
7
100
AcDbPolyline
 90
2
 70
0
 10
87.632271
 20
297.632285
 30
0.0
 10
82.632255
 20
297.632285
 30
0.0
  0
LWPOLYLINE
  5
2a8
100
AcDbEntity
  8
Layer_1
 62
7
100
AcDbPolyline
 90
2
 70
0
 10
94.632247
 20
297.632285
 30
0.0
 10
89.632257
 20
297.632285
 30
0.0
  0
LWPOLYLINE
  5
2a9
100
AcDbEntity
  8
Layer_1
 62
7
100
AcDbPolyline
 90
2
 70
0
 10
101.632249
 20
297.632285
 30
0.0
 10
96.632259
 20
297.632285
 30
0.0
  0
LWPOLYLINE
  5
2aa
100
AcDbEntity
  8
Layer_1
 62
7
100
AcDbPolyline
 90
2
 70
0
 10
108.632250
 20
297.632285
 30
0.0
 10
103.632260
 20
297.632285
 30
0.0
  0
LWPOLYLINE
  5
2ab
100
AcDbEntity
  8
Layer_1
 62
7
100
AcDbPolyline
 90
2
 70
0
 10
115.632252
 20
297.632285
 30
0.0
 10
110.632262
 20
297.632285
 30
0.0
  0
LWPOLYLINE
  5
2ac
100
AcDbEntity
  8
Layer_1
 62
7
100
AcDbPolyline
 90
2
 70
0
 10
122.632254
 20
297.632285
 30
0.0
 10
117.632264
 20
297.632285
 30
0.0
  0
LWPOLYLINE
  5
2ad
100
AcDbEntity
  8
Layer_1
 62
7
100
AcDbPolyline
 90
2
 70
0
 10
129.632256
 20
297.632285
 30
0.0
 10
124.632266
 20
297.632285
 30
0.0
  0
LWPOLYLINE
  5
2ae
100
AcDbEntity
  8
Layer_1
 62
7
100
AcDbPolyline
 90
2
 70
0
 10
136.632258
 20
297.632285
 30
0.0
 10
131.632268
 20
297.632285
 30
0.0
  0
LWPOLYLINE
  5
2af
100
AcDbEntity
  8
Layer_1
 62
7
100
AcDbPolyline
 90
2
 70
0
 10
143.632259
 20
297.632285
 30
0.0
 10
138.632269
 20
297.632285
 30
0.0
  0
LWPOLYLINE
  5
2b0
100
AcDbEntity
  8
Layer_1
 62
7
100
AcDbPolyline
 90
2
 70
0
 10
150.632261
 20
297.632285
 30
0.0
 10
145.632271
 20
297.632285
 30
0.0
  0
LWPOLYLINE
  5
2b1
100
AcDbEntity
  8
Layer_1
 62
7
100
AcDbPolyline
 90
2
 70
0
 10
157.632263
 20
297.632285
 30
0.0
 10
152.632246
 20
297.632285
 30
0.0
  0
LWPOLYLINE
  5
2b2
100
AcDbEntity
  8
Layer_1
 62
7
100
AcDbPolyline
 90
4
 70
0
 10
159.632248
 20
297.632285
 30
0.0
 10
159.632248
 20
302.632301
 30
0.0
 10
105.132263
 20
302.632301
 30
0.0
 10
105.132263
 20
313.132291
 30
0.0
  0
LWPOLYLINE
  5
2b3
100
AcDbEntity
  8
Layer_1
 62
7
100
AcDbPolyline
 90
2
 70
0
 10
111.132272
 20
329.632294
 30
0.0
 10
111.132272
 20
319.132300
 30
0.0
  0
LWPOLYLINE
  5
2b4
100
AcDbEntity
  8
Layer_1
 62
7
100
AcDbPolyline
 90
2
 70
0
 10
105.132263
 20
335.632293
 30
0.0
 10
29.132262
 20
335.632293
 30
0.0
  0
LWPOLYLINE
  5
2b5
100
AcDbEntity
  8
Layer_1
 62
7
100
AcDbPolyline
 90
2
 70
0
 10
23.132253
 20
329.632294
 30
0.0
 10
23.132253
 20
319.132300
 30
0.0
  0
LWPOLYLINE
  5
2b6
100
AcDbEntity
  8
Layer_1
 62
7
100
AcDbPolyline
 90
13
 70
0
 10
80.632270
 20
297.632285
 30
0.0
 10
80.666322
 20
297.373469
 30
0.0
 10
80.766228
 20
297.132302
 30
0.0
 10
80.925163
 20
296.925186
 30
0.0
 10
81.132253
 20
296.766277
 30
0.0
 10
81.373447
 20
296.666370
 30
0.0
 10
81.632262
 20
296.632292
 30
0.0
 10
81.891078
 20
296.666370
 30
0.0
 10
82.132272
 20
296.766277
 30
0.0
 10
82.339361
 20
296.925186
 30
0.0
 10
82.498297
 20
297.132302
 30
0.0
 10
82.598177
 20
297.373469
 30
0.0
 10
82.632255
 20
297.632285
 30
0.0
  0
LWPOLYLINE
  5
2b7
100
AcDbEntity
  8
Layer_1
 62
7
100
AcDbPolyline
 90
13
 70
0
 10
87.632271
 20
297.632285
 30
0.0
 10
87.666323
 20
297.373469
 30
0.0
 10
87.766230
 20
297.132302
 30
0.0
 10
87.925165
 20
296.925186
 30
0.0
 10
88.132255
 20
296.766277
 30
0.0
 10
88.373449
 20
296.666370
 30
0.0
 10
88.632264
 20
296.632292
 30
0.0
 10
88.891080
 20
296.666370
 30
0.0
 10
89.132247
 20
296.766277
 30
0.0
 10
89.339363
 20
296.925186
 30
0.0
 10
89.498272
 20
297.132302
 30
0.0
 10
89.598179
 20
297.373469
 30
0.0
 10
89.632257
 20
297.632285
 30
0.0
  0
LWPOLYLINE
  5
2b8
100
AcDbEntity
  8
Layer_1
 62
7
100
AcDbPolyline
 90
13
 70
0
 10
94.632247
 20
297.632285
 30
0.0
 10
94.666325
 20
297.373469
 30
0.0
 10
94.766232
 20
297.132302
 30
0.0
 10
94.925141
 20
296.925186
 30
0.0
 10
95.132256
 20
296.766277
 30
0.0
 10
95.373451
 20
296.666370
 30
0.0
 10
95.632266
 20
296.632292
 30
0.0
 10
95.891081
 20
296.666370
 30
0.0
 10
96.132249
 20
296.766277
 30
0.0
 10
96.339365
 20
296.925186
 30
0.0
 10
96.498274
 20
297.132302
 30
0.0
 10
96.598180
 20
297.373469
 30
0.0
 10
96.632259
 20
297.632285
 30
0.0
  0
LWPOLYLINE
  5
2b9
100
AcDbEntity
  8
Layer_1
 62
7
100
AcDbPolyline
 90
13
 70
0
 10
101.632249
 20
297.632285
 30
0.0
 10
101.666327
 20
297.373469
 30
0.0
 10
101.766234
 20
297.132302
 30
0.0
 10
101.925142
 20
296.925186
 30
0.0
 10
102.132258
 20
296.766277
 30
0.0
 10
102.373452
 20
296.666370
 30
0.0
 10
102.632268
 20
296.632292
 30
0.0
 10
102.891083
 20
296.666370
 30
0.0
 10
103.132251
 20
296.766277
 30
0.0
 10
103.339367
 20
296.925186
 30
0.0
 10
103.498275
 20
297.132302
 30
0.0
 10
103.598182
 20
297.373469
 30
0.0
 10
103.632260
 20
297.632285
 30
0.0
  0
LWPOLYLINE
  5
2ba
100
AcDbEntity
  8
Layer_1
 62
7
100
AcDbPolyline
 90
13
 70
0
 10
108.632250
 20
297.632285
 30
0.0
 10
108.666329
 20
297.373469
 30
0.0
 10
108.766235
 20
297.132302
 30
0.0
 10
108.925144
 20
296.925186
 30
0.0
 10
109.132260
 20
296.766277
 30
0.0
 10
109.373428
 20
296.666370
 30
0.0
 10
109.632270
 20
296.632292
 30
0.0
 10
109.891085
 20
296.666370
 30
0.0
 10
110.132253
 20
296.766277
 30
0.0
 10
110.339368
 20
296.925186
 30
0.0
 10
110.498277
 20
297.132302
 30
0.0
 10
110.598184
 20
297.373469
 30
0.0
 10
110.632262
 20
297.632285
 30
0.0
  0
LWPOLYLINE
  5
2bb
100
AcDbEntity
  8
Layer_1
 62
7
100
AcDbPolyline
 90
13
 70
0
 10
115.632252
 20
297.632285
 30
0.0
 10
115.666330
 20
297.373469
 30
0.0
 10
115.766237
 20
297.132302
 30
0.0
 10
115.925146
 20
296.925186
 30
0.0
 10
116.132262
 20
296.766277
 30
0.0
 10
116.373429
 20
296.666370
 30
0.0
 10
116.632271
 20
296.632292
 30
0.0
 10
116.891087
 20
296.666370
 30
0.0
 10
117.132254
 20
296.766277
 30
0.0
 10
117.339370
 20
296.925186
 30
0.0
 10
117.498279
 20
297.132302
 30
0.0
 10
117.598186
 20
297.373469
 30
0.0
 10
117.632264
 20
297.632285
 30
0.0
  0
LWPOLYLINE
  5
2bc
100
AcDbEntity
  8
Layer_1
 62
7
100
AcDbPolyline
 90
13
 70
0
 10
122.632254
 20
297.632285
 30
0.0
 10
122.666332
 20
297.373469
 30
0.0
 10
122.766239
 20
297.132302
 30
0.0
 10
122.925148
 20
296.925186
 30
0.0
 10
123.132264
 20
296.766277
 30
0.0
 10
123.373431
 20
296.666370
 30
0.0
 10
123.632247
 20
296.632292
 30
0.0
 10
123.891089
 20
296.666370
 30
0.0
 10
124.132256
 20
296.766277
 30
0.0
 10
124.339372
 20
296.925186
 30
0.0
 10
124.498281
 20
297.132302
 30
0.0
 10
124.598187
 20
297.373469
 30
0.0
 10
124.632266
 20
297.632285
 30
0.0
  0
LWPOLYLINE
  5
2bd
100
AcDbEntity
  8
Layer_1
 62
7
100
AcDbPolyline
 90
13
 70
0
 10
129.632256
 20
297.632285
 30
0.0
 10
129.666334
 20
297.373469
 30
0.0
 10
129.766241
 20
297.132302
 30
0.0
 10
129.925149
 20
296.925186
 30
0.0
 10
130.132265
 20
296.766277
 30
0.0
 10
130.373433
 20
296.666370
 30
0.0
 10
130.632248
 20
296.632292
 30
0.0
 10
130.891090
 20
296.666370
 30
0.0
 10
131.132258
 20
296.766277
 30
0.0
 10
131.339374
 20
296.925186
 30
0.0
 10
131.498283
 20
297.132302
 30
0.0
 10
131.598189
 20
297.373469
 30
0.0
 10
131.632268
 20
297.632285
 30
0.0
  0
LWPOLYLINE
  5
2be
100
AcDbEntity
  8
Layer_1
 62
7
100
AcDbPolyline
 90
13
 70
0
 10
136.632258
 20
297.632285
 30
0.0
 10
136.666336
 20
297.373469
 30
0.0
 10
136.766243
 20
297.132302
 30
0.0
 10
136.925151
 20
296.925186
 30
0.0
 10
137.132267
 20
296.766277
 30
0.0
 10
137.373435
 20
296.666370
 30
0.0
 10
137.632250
 20
296.632292
 30
0.0
 10
137.891066
 20
296.666370
 30
0.0
 10
138.132260
 20
296.766277
 30
0.0
 10
138.339376
 20
296.925186
 30
0.0
 10
138.498284
 20
297.132302
 30
0.0
 10
138.598191
 20
297.373469
 30
0.0
 10
138.632269
 20
297.632285
 30
0.0
  0
LWPOLYLINE
  5
2bf
100
AcDbEntity
  8
Layer_1
 62
7
100
AcDbPolyline
 90
13
 70
0
 10
143.632259
 20
297.632285
 30
0.0
 10
143.666338
 20
297.373469
 30
0.0
 10
143.766244
 20
297.132302
 30
0.0
 10
143.925153
 20
296.925186
 30
0.0
 10
144.132269
 20
296.766277
 30
0.0
 10
144.373437
 20
296.666370
 30
0.0
 10
144.632252
 20
296.632292
 30
0.0
 10
144.891067
 20
296.666370
 30
0.0
 10
145.132262
 20
296.766277
 30
0.0
 10
145.339377
 20
296.925186
 30
0.0
 10
145.498286
 20
297.132302
 30
0.0
 10
145.598193
 20
297.373469
 30
0.0
 10
145.632271
 20
297.632285
 30
0.0
  0
LWPOLYLINE
  5
2c0
100
AcDbEntity
  8
Layer_1
 62
7
100
AcDbPolyline
 90
13
 70
0
 10
150.632261
 20
297.632285
 30
0.0
 10
150.666339
 20
297.373469
 30
0.0
 10
150.766246
 20
297.132302
 30
0.0
 10
150.925155
 20
296.925186
 30
0.0
 10
151.132271
 20
296.766277
 30
0.0
 10
151.373438
 20
296.666370
 30
0.0
 10
151.632254
 20
296.632292
 30
0.0
 10
151.891069
 20
296.666370
 30
0.0
 10
152.132263
 20
296.766277
 30
0.0
 10
152.339353
 20
296.925186
 30
0.0
 10
152.498288
 20
297.132302
 30
0.0
 10
152.598195
 20
297.373469
 30
0.0
 10
152.632246
 20
297.632285
 30
0.0
  0
LWPOLYLINE
  5
2c1
100
AcDbEntity
  8
Layer_1
 62
7
100
AcDbPolyline
 90
13
 70
0
 10
157.632263
 20
297.632285
 30
0.0
 10
157.666341
 20
297.373469
 30
0.0
 10
157.766221
 20
297.132302
 30
0.0
 10
157.925157
 20
296.925186
 30
0.0
 10
158.132246
 20
296.766277
 30
0.0
 10
158.373440
 20
296.666370
 30
0.0
 10
158.632256
 20
296.632292
 30
0.0
 10
158.891071
 20
296.666370
 30
0.0
 10
159.132265
 20
296.766277
 30
0.0
 10
159.339355
 20
296.925186
 30
0.0
 10
159.498290
 20
297.132302
 30
0.0
 10
159.598196
 20
297.373469
 30
0.0
 10
159.632248
 20
297.632285
 30
0.0
  0
LWPOLYLINE
  5
2c2
100
AcDbEntity
  8
Layer_1
 62
7
100
AcDbPolyline
 90
13
 70
0
 10
111.132272
 20
319.132300
 30
0.0
 10
111.080916
 20
318.349133
 30
0.0
 10
110.927802
 20
317.579381
 30
0.0
 10
110.675548
 20
316.836193
 30
0.0
 10
110.328415
 20
316.132295
 30
0.0
 10
109.892381
 20
315.479727
 30
0.0
 10
109.374909
 20
314.889653
 30
0.0
 10
108.784836
 20
314.372181
 30
0.0
 10
108.132267
 20
313.936148
 30
0.0
 10
107.428370
 20
313.589014
 30
0.0
 10
106.685182
 20
313.336734
 30
0.0
 10
105.915429
 20
313.183620
 30
0.0
 10
105.132263
 20
313.132291
 30
0.0
  0
LWPOLYLINE
  5
2c3
100
AcDbEntity
  8
Layer_1
 62
7
100
AcDbPolyline
 90
13
 70
0
 10
105.132263
 20
335.632293
 30
0.0
 10
105.915429
 20
335.580961
 30
0.0
 10
106.685182
 20
335.427847
 30
0.0
 10
107.428370
 20
335.175569
 30
0.0
 10
108.132267
 20
334.828446
 30
0.0
 10
108.784836
 20
334.392413
 30
0.0
 10
109.374909
 20
333.874933
 30
0.0
 10
109.892381
 20
333.284862
 30
0.0
 10
110.328415
 20
332.632294
 30
0.0
 10
110.675548
 20
331.928394
 30
0.0
 10
110.927802
 20
331.185208
 30
0.0
 10
111.080916
 20
330.415451
 30
0.0
 10
111.132272
 20
329.632294
 30
0.0
  0
LWPOLYLINE
  5
2c4
100
AcDbEntity
  8
Layer_1
 62
7
100
AcDbPolyline
 90
13
 70
0
 10
29.132262
 20
335.632293
 30
0.0
 10
28.349096
 20
335.580961
 30
0.0
 10
27.579343
 20
335.427847
 30
0.0
 10
26.836155
 20
335.175569
 30
0.0
 10
26.132258
 20
334.828446
 30
0.0
 10
25.479689
 20
334.392413
 30
0.0
 10
24.889616
 20
333.874933
 30
0.0
 10
24.372144
 20
333.284862
 30
0.0
 10
23.936110
 20
332.632294
 30
0.0
 10
23.588977
 20
331.928394
 30
0.0
 10
23.336697
 20
331.185208
 30
0.0
 10
23.183582
 20
330.415451
 30
0.0
 10
23.132253
 20
329.632294
 30
0.0
  0
LWPOLYLINE
  5
2c5
100
AcDbEntity
  8
Layer_1
 62
7
100
AcDbPolyline
 90
13
 70
0
 10
23.132253
 20
319.132300
 30
0.0
 10
23.183582
 20
318.349133
 30
0.0
 10
23.336697
 20
317.579381
 30
0.0
 10
23.588977
 20
316.836193
 30
0.0
 10
23.936110
 20
316.132295
 30
0.0
 10
24.372144
 20
315.479727
 30
0.0
 10
24.889616
 20
314.889653
 30
0.0
 10
25.479689
 20
314.372181
 30
0.0
 10
26.132258
 20
313.936148
 30
0.0
 10
26.836155
 20
313.589014
 30
0.0
 10
27.579343
 20
313.336734
 30
0.0
 10
28.349096
 20
313.183620
 30
0.0
 10
29.132262
 20
313.132291
 30
0.0
  0
LWPOLYLINE
  5
2c6
100
AcDbEntity
  8
Layer_1
 62
7
100
AcDbPolyline
 90
24
 70
1
 10
14.132266
 20
307.132282
 30
0.0
 10
14.234474
 20
307.908754
 30
0.0
 10
14.534194
 20
308.632284
 30
0.0
 10
15.010947
 20
309.253605
 30
0.0
 10
15.632268
 20
309.730358
 30
0.0
 10
16.355798
 20
310.030078
 30
0.0
 10
17.132270
 20
310.132286
 30
0.0
 10
17.908717
 20
310.030078
 30
0.0
 10
18.632273
 20
309.730358
 30
0.0
 10
19.253594
 20
309.253605
 30
0.0
 10
19.730346
 20
308.632284
 30
0.0
 10
20.030040
 20
307.908754
 30
0.0
 10
20.132249
 20
307.132282
 30
0.0
 10
20.030040
 20
306.355835
 30
0.0
 10
19.730346
 20
305.632306
 30
0.0
 10
19.253594
 20
305.010985
 30
0.0
 10
18.632273
 20
304.534206
 30
0.0
 10
17.908717
 20
304.234512
 30
0.0
 10
17.132270
 20
304.132303
 30
0.0
 10
16.355798
 20
304.234512
 30
0.0
 10
15.632268
 20
304.534206
 30
0.0
 10
15.010947
 20
305.010985
 30
0.0
 10
14.534194
 20
305.632306
 30
0.0
 10
14.234474
 20
306.355835
 30
0.0
  0
LWPOLYLINE
  5
2c7
100
AcDbEntity
  8
Layer_1
 62
7
100
AcDbPolyline
 90
24
 70
1
 10
175.132254
 20
307.132282
 30
0.0
 10
175.234489
 20
307.908754
 30
0.0
 10
175.534183
 20
308.632284
 30
0.0
 10
176.010935
 20
309.253605
 30
0.0
 10
176.632256
 20
309.730358
 30
0.0
 10
177.355812
 20
310.030078
 30
0.0
 10
178.132259
 20
310.132286
 30
0.0
 10
178.908705
 20
310.030078
 30
0.0
 10
179.632261
 20
309.730358
 30
0.0
 10
180.253582
 20
309.253605
 30
0.0
 10
180.730335
 20
308.632284
 30
0.0
 10
181.030028
 20
307.908754
 30
0.0
 10
181.132263
 20
307.132282
 30
0.0
 10
181.030028
 20
306.355835
 30
0.0
 10
180.730335
 20
305.632306
 30
0.0
 10
180.253582
 20
305.010985
 30
0.0
 10
179.632261
 20
304.534206
 30
0.0
 10
178.908705
 20
304.234512
 30
0.0
 10
178.132259
 20
304.132303
 30
0.0
 10
177.355812
 20
304.234512
 30
0.0
 10
176.632256
 20
304.534206
 30
0.0
 10
176.010935
 20
305.010985
 30
0.0
 10
175.534183
 20
305.632306
 30
0.0
 10
175.234489
 20
306.355835
 30
0.0
  0
ENDSEC
  0
SECTION
  2
OBJECTS
  0
DICTIONARY
  5
C
330
0
100
AcDbDictionary
  3
ACAD_GROUP
350
D
  3
ACAD_MLINESTYLE
350
17
  0
DICTIONARY
  5
D
330
C
100
AcDbDictionary
  0
DICTIONARY
  5
1A
330
C
100
AcDbDictionary
  0
DICTIONARY
  5
17
330
C
100
AcDbDictionary
  3
STANDARD
350
18
  0
DICTIONARY
  5
19
330
C
100
AcDbDictionary
  0
ENDSEC
  0
EOF
