  0
SECTION
  2
HEADER
  9
$ACADVER
  1
AC1014
  9
$HANDSEED
  5
FFFF
  9
$MEASUREMENT
 70
     1
  0
ENDSEC
  0
SECTION
  2
TABLES
  0
TABLE
  2
VPORT
  5
8
330
0
100
AcDbSymbolTable
 70
     4
  0
VPORT
  5
2E
330
8
100
AcDbSymbolTableRecord
100
AcDbViewportTableRecord
  2
*ACTIVE
 70
     0
 10
0.0
 20
0.0
 11
1.0
 21
1.0
 12
210.0
 22
148.5
 13
0.0
 23
0.0
 14
10.0
 24
10.0
 15
10.0
 25
10.0
 16
0.0
 26
0.0
 36
1.0
 17
0.0
 27
0.0
 37
0.0
 40
341.0
 41
1.24
 42
50.0
 43
0.0
 44
0.0
 50
0.0
 51
0.0
 71
     0
 72
   100
 73
     1
 74
     3
 75
     0
 76
     0
 77
     0
 78
     0
  0
ENDTAB
  0
TABLE
  2
LTYPE
  5
5
330
0
100
AcDbSymbolTable
 70
     1
  0
LTYPE
  5
14
330
5
100
AcDbSymbolTableRecord
100
AcDbLinetypeTableRecord
  2
BYBLOCK
 70
     0
  3

 72
    65
 73
     0
 40
0.0
  0
LTYPE
  5
15
330
5
100
AcDbSymbolTableRecord
100
AcDbLinetypeTableRecord
  2
BYLAYER
 70
     0
  3

 72
    65
 73
     0
 40
0.0
  0
LTYPE
  5
16
330
5
100
AcDbSymbolTableRecord
100
AcDbLinetypeTableRecord
  2
CONTINUOUS
 70
     0
  3
Solid line
 72
    65
 73
     0
 40
0.0
  0
ENDTAB
  0
TABLE
  2
LAYER
  5
2
100
AcDbSymbolTable
 70
2
  0
LAYER
  5
50
100
AcDbSymbolTableRecord
100
AcDbLayerTableRecord
  2
0
 70
0
  6
CONTINUOUS
  0
LAYER
  5
51
100
AcDbSymbolTableRecord
100
AcDbLayerTableRecord
  2
Layer_1
 70
0
  6
CONTINUOUS
  0
ENDTAB
  0
TABLE
  2
STYLE
  5
3
330
0
100
AcDbSymbolTable
 70
     1
  0
STYLE
  5
11
330
3
100
AcDbSymbolTableRecord
100
AcDbTextStyleTableRecord
  2
STANDARD
 70
     0
 40
0.0
 41
1.0
 50
0.0
 71
     0
 42
2.5
  3
txt
  4

  0
ENDTAB
  0
TABLE
  2
VIEW
  5
6
330
0
100
AcDbSymbolTable
 70
     0
  0
ENDTAB
  0
TABLE
  2
UCS
  5
7
330
0
100
AcDbSymbolTable
 70
     0
  0
ENDTAB
  0
TABLE
  2
APPID
  5
9
330
0
100
AcDbSymbolTable
 70
     2
  0
APPID
  5
12
330
9
100
AcDbSymbolTableRecord
100
AcDbRegAppTableRecord
  2
ACAD
 70
     0
  0
ENDTAB
  0
TABLE
  2
DIMSTYLE
  5
A
330
0
100
AcDbSymbolTable
 70
     1
  0
DIMSTYLE
105
27
330
A
100
AcDbSymbolTableRecord
100
AcDbDimStyleTableRecord
  2
ISO-25
 70
     0
  3

  4

  5

  6

  7

 40
1.0
 41
2.5
 42
0.625
 43
3.75
 44
1.25
 45
0.0
 46
0.0
 47
0.0
 48
0.0
140
2.5
141
2.5
142
0.0
143
0.03937007874016
144
1.0
145
0.0
146
1.0
147
0.625
 71
     0
 72
     0
 73
     0
 74
     0
 75
     0
 76
     0
 77
     1
 78
     8
170
     0
171
     3
172
     1
173
     0
174
     0
175
     0
176
     0
177
     0
178
     0
270
     2
271
     2
272
     2
273
     2
274
     3
340
11
275
     0
280
     0
281
     0
282
     0
283
     0
284
     8
285
     0
286
     0
287
     3
288
     0
  0
ENDTAB
  0
TABLE
  2
BLOCK_RECORD
  5
1
330
0
100
AcDbSymbolTable
 70
     1
  0
BLOCK_RECORD
  5
1F
330
1
100
AcDbSymbolTableRecord
100
AcDbBlockTableRecord
  2
*MODEL_SPACE
  0
BLOCK_RECORD
  5
1B
330
1
100
AcDbSymbolTableRecord
100
AcDbBlockTableRecord
  2
*PAPER_SPACE
  0
ENDTAB
  0
ENDSEC
  0
SECTION
  2
BLOCKS
  0
BLOCK
  5
20
330
1F
100
AcDbEntity
  8
0
100
AcDbBlockBegin
  2
*MODEL_SPACE
 70
     0
 10
0.0
 20
0.0
 30
0.0
  3
*MODEL_SPACE
  1

  0
ENDBLK
  5
21
330
1F
100
AcDbEntity
  8
0
100
AcDbBlockEnd
  0
BLOCK
  5
1C
330
1B
100
AcDbEntity
 67
     1
  8
0
100
AcDbBlockBegin
  2
*PAPER_SPACE
  1

  0
ENDBLK
  5
1D
330
1B
100
AcDbEntity
 67
     1
  8
0
100
AcDbBlockEnd
  0
ENDSEC
  0
SECTION
  2
ENTITIES
  0
LWPOLYLINE
  5
100
100
AcDbEntity
  8
Layer_1
 62
7
100
AcDbPolyline
 90
2
 70
0
 10
5.132297
 20
133.132293
 30
0.0
 10
5.132297
 20
17.132283
 30
0.0
  0
LWPOLYLINE
  5
101
100
AcDbEntity
  8
Layer_1
 62
7
100
AcDbPolyline
 90
2
 70
0
 10
178.132277
 20
145.132293
 30
0.0
 10
17.132288
 20
145.132293
 30
0.0
  0
LWPOLYLINE
  5
102
100
AcDbEntity
  8
Layer_1
 62
7
100
AcDbPolyline
 90
2
 70
0
 10
190.132295
 20
17.132283
 30
0.0
 10
190.132295
 20
133.132293
 30
0.0
  0
LWPOLYLINE
  5
103
100
AcDbEntity
  8
Layer_1
 62
7
100
AcDbPolyline
 90
2
 70
0
 10
17.132288
 20
5.132292
 30
0.0
 10
178.132277
 20
5.132292
 30
0.0
  0
LWPOLYLINE
  5
104
100
AcDbEntity
  8
Layer_1
 62
7
100
AcDbPolyline
 90
13
 70
0
 10
17.132288
 20
145.132293
 30
0.0
 10
15.565981
 20
145.029632
 30
0.0
 10
14.026450
 20
144.723403
 30
0.0
 10
12.540074
 20
144.218848
 30
0.0
 10
11.132279
 20
143.524597
 30
0.0
 10
9.827143
 20
142.652533
 30
0.0
 10
8.646995
 20
141.617576
 30
0.0
 10
7.612051
 20
140.437431
 30
0.0
 10
6.739984
 20
139.132295
 30
0.0
 10
6.045744
 20
137.724494
 30
0.0
 10
5.541184
 20
136.238123
 30
0.0
 10
5.234955
 20
134.698608
 30
0.0
 10
5.132297
 20
133.132293
 30
0.0
  0
LWPOLYLINE
  5
105
100
AcDbEntity
  8
Layer_1
 62
7
100
AcDbPolyline
 90
14
 70
0
 10
178.132277
 20
145.132293
 30
0.0
 10
179.578727
 20
145.044801
 30
0.0
 10
181.004064
 20
144.783596
 30
0.0
 10
182.387544
 20
144.352489
 30
0.0
 10
183.708952
 20
143.757767
 30
0.0
 10
184.949054
 20
143.008102
 30
0.0
 10
186.089752
 20
142.114424
 30
0.0
 10
187.114404
 20
141.089767
 30
0.0
 10
188.008087
 20
139.949071
 30
0.0
 10
188.757758
 20
138.708972
 30
0.0
 10
189.352488
 20
137.387553
 30
0.0
 10
189.783574
 20
136.004081
 30
0.0
 10
190.044797
 20
134.578733
 30
0.0
 10
190.132295
 20
133.132293
 30
0.0
  0
LWPOLYLINE
  5
106
100
AcDbEntity
  8
Layer_1
 62
7
100
AcDbPolyline
 90
13
 70
0
 10
178.132277
 20
5.132292
 30
0.0
 10
179.698610
 20
5.234950
 30
0.0
 10
181.238114
 20
5.541179
 30
0.0
 10
182.724491
 20
6.045739
 30
0.0
 10
184.132286
 20
6.739979
 30
0.0
 10
185.437422
 20
7.612046
 30
0.0
 10
186.617570
 20
8.647017
 30
0.0
 10
187.652514
 20
9.827164
 30
0.0
 10
188.524581
 20
11.132301
 30
0.0
 10
189.218847
 20
12.540096
 30
0.0
 10
189.723408
 20
14.026472
 30
0.0
 10
190.029636
 20
15.565977
 30
0.0
 10
190.132295
 20
17.132283
 30
0.0
  0
LWPOLYLINE
  5
107
100
AcDbEntity
  8
Layer_1
 62
7
100
AcDbPolyline
 90
13
 70
0
 10
17.132288
 20
5.132292
 30
0.0
 10
15.565981
 20
5.234950
 30
0.0
 10
14.026450
 20
5.541179
 30
0.0
 10
12.540074
 20
6.045739
 30
0.0
 10
11.132279
 20
6.739979
 30
0.0
 10
9.827143
 20
7.612046
 30
0.0
 10
8.646995
 20
8.647017
 30
0.0
 10
7.612051
 20
9.827164
 30
0.0
 10
6.739984
 20
11.132301
 30
0.0
 10
6.045744
 20
12.540096
 30
0.0
 10
5.541184
 20
14.026472
 30
0.0
 10
5.234955
 20
15.565977
 30
0.0
 10
5.132297
 20
17.132283
 30
0.0
  0
LWPOLYLINE
  5
108
100
AcDbEntity
  8
Layer_1
 62
7
100
AcDbPolyline
 90
2
 70
0
 10
23.132297
 20
121.132294
 30
0.0
 10
23.132297
 20
29.132302
 30
0.0
  0
LWPOLYLINE
  5
109
100
AcDbEntity
  8
Layer_1
 62
7
100
AcDbPolyline
 90
2
 70
0
 10
166.132285
 20
23.132292
 30
0.0
 10
29.132280
 20
23.132292
 30
0.0
  0
LWPOLYLINE
  5
10a
100
AcDbEntity
  8
Layer_1
 62
7
100
AcDbPolyline
 90
2
 70
0
 10
172.132294
 20
121.132294
 30
0.0
 10
172.132294
 20
29.132302
 30
0.0
  0
LWPOLYLINE
  5
10b
100
AcDbEntity
  8
Layer_1
 62
7
100
AcDbPolyline
 90
2
 70
0
 10
166.132285
 20
127.132295
 30
0.0
 10
29.132280
 20
127.132295
 30
0.0
  0
LWPOLYLINE
  5
10c
100
AcDbEntity
  8
Layer_1
 62
7
100
AcDbPolyline
 90
13
 70
0
 10
23.132297
 20
29.132302
 30
0.0
 10
23.183627
 20
28.349135
 30
0.0
 10
23.336741
 20
27.579383
 30
0.0
 10
23.589021
 20
26.836195
 30
0.0
 10
23.936128
 20
26.132297
 30
0.0
 10
24.372161
 20
25.479729
 30
0.0
 10
24.889633
 20
24.889655
 30
0.0
 10
25.479707
 20
24.372183
 30
0.0
 10
26.132276
 20
23.936150
 30
0.0
 10
26.836199
 20
23.589016
 30
0.0
 10
27.579361
 20
23.336736
 30
0.0
 10
28.349140
 20
23.183622
 30
0.0
 10
29.132280
 20
23.132292
 30
0.0
  0
LWPOLYLINE
  5
10d
100
AcDbEntity
  8
Layer_1
 62
7
100
AcDbPolyline
 90
13
 70
0
 10
172.132294
 20
29.132302
 30
0.0
 10
172.080965
 20
28.349135
 30
0.0
 10
171.927850
 20
27.579383
 30
0.0
 10
171.675570
 20
26.836195
 30
0.0
 10
171.328437
 20
26.132297
 30
0.0
 10
170.892403
 20
25.479729
 30
0.0
 10
170.374931
 20
24.889655
 30
0.0
 10
169.784858
 20
24.372183
 30
0.0
 10
169.132289
 20
23.936150
 30
0.0
 10
168.428392
 20
23.589016
 30
0.0
 10
167.685204
 20
23.336736
 30
0.0
 10
166.915451
 20
23.183622
 30
0.0
 10
166.132285
 20
23.132292
 30
0.0
  0
LWPOLYLINE
  5
10e
100
AcDbEntity
  8
Layer_1
 62
7
100
AcDbPolyline
 90
13
 70
0
 10
172.132294
 20
121.132294
 30
0.0
 10
172.080965
 20
121.915452
 30
0.0
 10
171.927850
 20
122.685207
 30
0.0
 10
171.675570
 20
123.428395
 30
0.0
 10
171.328437
 20
124.132293
 30
0.0
 10
170.892403
 20
124.784864
 30
0.0
 10
170.374931
 20
125.374935
 30
0.0
 10
169.784858
 20
125.892415
 30
0.0
 10
169.132289
 20
126.328446
 30
0.0
 10
168.428392
 20
126.675571
 30
0.0
 10
167.685204
 20
126.927849
 30
0.0
 10
166.915451
 20
127.080963
 30
0.0
 10
166.132285
 20
127.132295
 30
0.0
  0
LWPOLYLINE
  5
10f
100
AcDbEntity
  8
Layer_1
 62
7
100
AcDbPolyline
 90
13
 70
0
 10
23.132297
 20
121.132294
 30
0.0
 10
23.183627
 20
121.915452
 30
0.0
 10
23.336741
 20
122.685207
 30
0.0
 10
23.589021
 20
123.428395
 30
0.0
 10
23.936128
 20
124.132293
 30
0.0
 10
24.372161
 20
124.784864
 30
0.0
 10
24.889633
 20
125.374935
 30
0.0
 10
25.479707
 20
125.892415
 30
0.0
 10
26.132276
 20
126.328446
 30
0.0
 10
26.836199
 20
126.675571
 30
0.0
 10
27.579361
 20
126.927849
 30
0.0
 10
28.349140
 20
127.080963
 30
0.0
 10
29.132280
 20
127.132295
 30
0.0
  0
LWPOLYLINE
  5
110
100
AcDbEntity
  8
Layer_1
 62
7
100
AcDbPolyline
 90
24
 70
1
 10
14.132284
 20
17.132283
 30
0.0
 10
14.234519
 20
17.908756
 30
0.0
 10
14.534212
 20
18.632286
 30
0.0
 10
15.010965
 20
19.253607
 30
0.0
 10
15.632286
 20
19.730359
 30
0.0
 10
16.355842
 20
20.030079
 30
0.0
 10
17.132288
 20
20.132288
 30
0.0
 10
17.908735
 20
20.030079
 30
0.0
 10
18.632291
 20
19.730359
 30
0.0
 10
19.253612
 20
19.253607
 30
0.0
 10
19.730364
 20
18.632286
 30
0.0
 10
20.030058
 20
17.908756
 30
0.0
 10
20.132293
 20
17.132283
 30
0.0
 10
20.030058
 20
16.355837
 30
0.0
 10
19.730364
 20
15.632308
 30
0.0
 10
19.253612
 20
15.010987
 30
0.0
 10
18.632291
 20
14.534207
 30
0.0
 10
17.908735
 20
14.234514
 30
0.0
 10
17.132288
 20
14.132305
 30
0.0
 10
16.355842
 20
14.234514
 30
0.0
 10
15.632286
 20
14.534207
 30
0.0
 10
15.010965
 20
15.010987
 30
0.0
 10
14.534212
 20
15.632308
 30
0.0
 10
14.234519
 20
16.355837
 30
0.0
  0
LWPOLYLINE
  5
111
100
AcDbEntity
  8
Layer_1
 62
7
100
AcDbPolyline
 90
24
 70
1
 10
175.132272
 20
17.132283
 30
0.0
 10
175.234507
 20
17.908756
 30
0.0
 10
175.534201
 20
18.632286
 30
0.0
 10
176.010953
 20
19.253607
 30
0.0
 10
176.632274
 20
19.730359
 30
0.0
 10
177.355830
 20
20.030079
 30
0.0
 10
178.132277
 20
20.132288
 30
0.0
 10
178.908749
 20
20.030079
 30
0.0
 10
179.632279
 20
19.730359
 30
0.0
 10
180.253600
 20
19.253607
 30
0.0
 10
180.730353
 20
18.632286
 30
0.0
 10
181.030073
 20
17.908756
 30
0.0
 10
181.132281
 20
17.132283
 30
0.0
 10
181.030073
 20
16.355837
 30
0.0
 10
180.730353
 20
15.632308
 30
0.0
 10
180.253600
 20
15.010987
 30
0.0
 10
179.632279
 20
14.534207
 30
0.0
 10
178.908749
 20
14.234514
 30
0.0
 10
178.132277
 20
14.132305
 30
0.0
 10
177.355830
 20
14.234514
 30
0.0
 10
176.632274
 20
14.534207
 30
0.0
 10
176.010953
 20
15.010987
 30
0.0
 10
175.534201
 20
15.632308
 30
0.0
 10
175.234507
 20
16.355837
 30
0.0
  0
LWPOLYLINE
  5
112
100
AcDbEntity
  8
Layer_1
 62
7
100
AcDbPolyline
 90
7
 70
0
 10
180.143083
 20
135.358659
 30
0.0
 10
179.543405
 20
135.779701
 30
0.0
 10
178.859537
 20
136.042811
 30
0.0
 10
178.132277
 20
136.132295
 30
0.0
 10
177.405043
 20
136.042811
 30
0.0
 10
176.721174
 20
135.779701
 30
0.0
 10
176.121496
 20
135.358659
 30
0.0
  0
LWPOLYLINE
  5
113
100
AcDbEntity
  8
Layer_1
 62
7
100
AcDbPolyline
 90
21
 70
0
 10
180.143083
 20
135.358659
 30
0.0
 10
180.615841
 20
134.815131
 30
0.0
 10
180.945406
 20
134.174574
 30
0.0
 10
181.112781
 20
133.473918
 30
0.0
 10
181.108283
 20
132.753566
 30
0.0
 10
180.932203
 20
132.055050
 30
0.0
 10
180.594674
 20
131.418648
 30
0.0
 10
180.115196
 20
130.881052
 30
0.0
 10
179.521365
 20
130.473257
 30
0.0
 10
178.847445
 20
130.218781
 30
0.0
 10
178.132277
 20
130.132294
 30
0.0
 10
177.417134
 20
130.218781
 30
0.0
 10
176.743214
 20
130.473257
 30
0.0
 10
176.149383
 20
130.881052
 30
0.0
 10
175.669879
 20
131.418648
 30
0.0
 10
175.332376
 20
132.055050
 30
0.0
 10
175.156296
 20
132.753566
 30
0.0
 10
175.151798
 20
133.473918
 30
0.0
 10
175.319174
 20
134.174574
 30
0.0
 10
175.648739
 20
134.815131
 30
0.0
 10
176.121496
 20
135.358659
 30
0.0
  0
LWPOLYLINE
  5
114
100
AcDbEntity
  8
Layer_1
 62
7
100
AcDbPolyline
 90
25
 70
1
 10
19.143095
 20
135.358659
 30
0.0
 10
19.633580
 20
134.788649
 30
0.0
 10
19.966928
 20
134.114564
 30
0.0
 10
20.122133
 20
133.378761
 30
0.0
 10
20.089510
 20
132.627471
 30
0.0
 10
19.871043
 20
131.907900
 30
0.0
 10
19.480518
 20
131.265261
 30
0.0
 10
18.942435
 20
130.739936
 30
0.0
 10
18.290608
 20
130.364932
 30
0.0
 10
17.565993
 20
130.163811
 30
0.0
 10
16.814153
 20
130.149206
 30
0.0
 10
16.082289
 20
130.322048
 30
0.0
 10
15.416386
 20
130.671465
 30
0.0
 10
14.858300
 20
131.175504
 30
0.0
 10
14.443116
 20
131.802495
 30
0.0
 10
14.196895
 20
132.513041
 30
0.0
 10
14.135115
 20
133.262500
 30
0.0
 10
14.261665
 20
134.003775
 30
0.0
 10
14.568582
 20
134.690292
 30
0.0
 10
15.036577
 20
135.278916
 30
0.0
 10
15.636255
 20
135.732658
 30
0.0
 10
16.329939
 20
136.023012
 30
0.0
 10
17.074054
 20
136.131729
 30
0.0
 10
17.821792
 20
136.051981
 30
0.0
 10
18.526246
 20
135.788779
 30
0.0
  0
LWPOLYLINE
  5
115
100
AcDbEntity
  8
Layer_1
 62
7
100
AcDbPolyline
 90
2
 70
0
 10
200.132331
 20
133.132293
 30
0.0
 10
200.132331
 20
17.132283
 30
0.0
  0
LWPOLYLINE
  5
116
100
AcDbEntity
  8
Layer_1
 62
7
100
AcDbPolyline
 90
2
 70
0
 10
373.132311
 20
145.132293
 30
0.0
 10
212.132323
 20
145.132293
 30
0.0
  0
LWPOLYLINE
  5
117
100
AcDbEntity
  8
Layer_1
 62
7
100
AcDbPolyline
 90
2
 70
0
 10
385.132329
 20
17.132283
 30
0.0
 10
385.132329
 20
133.132293
 30
0.0
  0
LWPOLYLINE
  5
118
100
AcDbEntity
  8
Layer_1
 62
7
100
AcDbPolyline
 90
2
 70
0
 10
212.132323
 20
5.132292
 30
0.0
 10
373.132311
 20
5.132292
 30
0.0
  0
LWPOLYLINE
  5
119
100
AcDbEntity
  8
Layer_1
 62
7
100
AcDbPolyline
 90
13
 70
0
 10
212.132323
 20
145.132293
 30
0.0
 10
210.566016
 20
145.029632
 30
0.0
 10
209.026485
 20
144.723403
 30
0.0
 10
207.540109
 20
144.218848
 30
0.0
 10
206.132314
 20
143.524597
 30
0.0
 10
204.827177
 20
142.652533
 30
0.0
 10
203.647030
 20
141.617576
 30
0.0
 10
202.612085
 20
140.437431
 30
0.0
 10
201.740019
 20
139.132295
 30
0.0
 10
201.045779
 20
137.724494
 30
0.0
 10
200.541218
 20
136.238123
 30
0.0
 10
200.234989
 20
134.698608
 30
0.0
 10
200.132331
 20
133.132293
 30
0.0
  0
LWPOLYLINE
  5
11a
100
AcDbEntity
  8
Layer_1
 62
7
100
AcDbPolyline
 90
14
 70
0
 10
373.132311
 20
145.132293
 30
0.0
 10
374.578762
 20
145.044801
 30
0.0
 10
376.004098
 20
144.783596
 30
0.0
 10
377.387578
 20
144.352489
 30
0.0
 10
378.708987
 20
143.757767
 30
0.0
 10
379.949089
 20
143.008102
 30
0.0
 10
381.089787
 20
142.114424
 30
0.0
 10
382.114439
 20
141.089767
 30
0.0
 10
383.008122
 20
139.949071
 30
0.0
 10
383.757792
 20
138.708972
 30
0.0
 10
384.352523
 20
137.387553
 30
0.0
 10
384.783608
 20
136.004081
 30
0.0
 10
385.044831
 20
134.578733
 30
0.0
 10
385.132329
 20
133.132293
 30
0.0
  0
LWPOLYLINE
  5
11b
100
AcDbEntity
  8
Layer_1
 62
7
100
AcDbPolyline
 90
13
 70
0
 10
373.132311
 20
5.132292
 30
0.0
 10
374.698644
 20
5.234950
 30
0.0
 10
376.238149
 20
5.541179
 30
0.0
 10
377.724525
 20
6.045739
 30
0.0
 10
379.132320
 20
6.739979
 30
0.0
 10
380.437457
 20
7.612046
 30
0.0
 10
381.617604
 20
8.647017
 30
0.0
 10
382.652548
 20
9.827164
 30
0.0
 10
383.524615
 20
11.132301
 30
0.0
 10
384.218882
 20
12.540096
 30
0.0
 10
384.723442
 20
14.026472
 30
0.0
 10
385.029671
 20
15.565977
 30
0.0
 10
385.132329
 20
17.132283
 30
0.0
  0
LWPOLYLINE
  5
11c
100
AcDbEntity
  8
Layer_1
 62
7
100
AcDbPolyline
 90
13
 70
0
 10
212.132323
 20
5.132292
 30
0.0
 10
210.566016
 20
5.234950
 30
0.0
 10
209.026485
 20
5.541179
 30
0.0
 10
207.540109
 20
6.045739
 30
0.0
 10
206.132314
 20
6.739979
 30
0.0
 10
204.827177
 20
7.612046
 30
0.0
 10
203.647030
 20
8.647017
 30
0.0
 10
202.612085
 20
9.827164
 30
0.0
 10
201.740019
 20
11.132301
 30
0.0
 10
201.045779
 20
12.540096
 30
0.0
 10
200.541218
 20
14.026472
 30
0.0
 10
200.234989
 20
15.565977
 30
0.0
 10
200.132331
 20
17.132283
 30
0.0
  0
LWPOLYLINE
  5
11d
100
AcDbEntity
  8
Layer_1
 62
7
100
AcDbPolyline
 90
2
 70
0
 10
218.132332
 20
121.132294
 30
0.0
 10
218.132332
 20
29.132302
 30
0.0
  0
LWPOLYLINE
  5
11e
100
AcDbEntity
  8
Layer_1
 62
7
100
AcDbPolyline
 90
2
 70
0
 10
361.132319
 20
23.132292
 30
0.0
 10
224.132315
 20
23.132292
 30
0.0
  0
LWPOLYLINE
  5
11f
100
AcDbEntity
  8
Layer_1
 62
7
100
AcDbPolyline
 90
2
 70
0
 10
367.132328
 20
121.132294
 30
0.0
 10
367.132328
 20
29.132302
 30
0.0
  0
LWPOLYLINE
  5
120
100
AcDbEntity
  8
Layer_1
 62
7
100
AcDbPolyline
 90
2
 70
0
 10
361.132319
 20
127.132295
 30
0.0
 10
224.132315
 20
127.132295
 30
0.0
  0
LWPOLYLINE
  5
121
100
AcDbEntity
  8
Layer_1
 62
7
100
AcDbPolyline
 90
13
 70
0
 10
218.132332
 20
29.132302
 30
0.0
 10
218.183661
 20
28.349135
 30
0.0
 10
218.336775
 20
27.579383
 30
0.0
 10
218.589056
 20
26.836195
 30
0.0
 10
218.936162
 20
26.132297
 30
0.0
 10
219.372196
 20
25.479729
 30
0.0
 10
219.889668
 20
24.889655
 30
0.0
 10
220.479742
 20
24.372183
 30
0.0
 10
221.132310
 20
23.936150
 30
0.0
 10
221.836234
 20
23.589016
 30
0.0
 10
222.579396
 20
23.336736
 30
0.0
 10
223.349174
 20
23.183622
 30
0.0
 10
224.132315
 20
23.132292
 30
0.0
  0
LWPOLYLINE
  5
122
100
AcDbEntity
  8
Layer_1
 62
7
100
AcDbPolyline
 90
13
 70
0
 10
367.132328
 20
29.132302
 30
0.0
 10
367.080999
 20
28.349135
 30
0.0
 10
366.927885
 20
27.579383
 30
0.0
 10
366.675605
 20
26.836195
 30
0.0
 10
366.328471
 20
26.132297
 30
0.0
 10
365.892438
 20
25.479729
 30
0.0
 10
365.374966
 20
24.889655
 30
0.0
 10
364.784892
 20
24.372183
 30
0.0
 10
364.132324
 20
23.936150
 30
0.0
 10
363.428426
 20
23.589016
 30
0.0
 10
362.685238
 20
23.336736
 30
0.0
 10
361.915486
 20
23.183622
 30
0.0
 10
361.132319
 20
23.132292
 30
0.0
  0
LWPOLYLINE
  5
123
100
AcDbEntity
  8
Layer_1
 62
7
100
AcDbPolyline
 90
13
 70
0
 10
367.132328
 20
121.132294
 30
0.0
 10
367.080999
 20
121.915452
 30
0.0
 10
366.927885
 20
122.685207
 30
0.0
 10
366.675605
 20
123.428395
 30
0.0
 10
366.328471
 20
124.132293
 30
0.0
 10
365.892438
 20
124.784864
 30
0.0
 10
365.374966
 20
125.374935
 30
0.0
 10
364.784892
 20
125.892415
 30
0.0
 10
364.132324
 20
126.328446
 30
0.0
 10
363.428426
 20
126.675571
 30
0.0
 10
362.685238
 20
126.927849
 30
0.0
 10
361.915486
 20
127.080963
 30
0.0
 10
361.132319
 20
127.132295
 30
0.0
  0
LWPOLYLINE
  5
124
100
AcDbEntity
  8
Layer_1
 62
7
100
AcDbPolyline
 90
13
 70
0
 10
218.132332
 20
121.132294
 30
0.0
 10
218.183661
 20
121.915452
 30
0.0
 10
218.336775
 20
122.685207
 30
0.0
 10
218.589056
 20
123.428395
 30
0.0
 10
218.936162
 20
124.132293
 30
0.0
 10
219.372196
 20
124.784864
 30
0.0
 10
219.889668
 20
125.374935
 30
0.0
 10
220.479742
 20
125.892415
 30
0.0
 10
221.132310
 20
126.328446
 30
0.0
 10
221.836234
 20
126.675571
 30
0.0
 10
222.579396
 20
126.927849
 30
0.0
 10
223.349174
 20
127.080963
 30
0.0
 10
224.132315
 20
127.132295
 30
0.0
  0
LWPOLYLINE
  5
125
100
AcDbEntity
  8
Layer_1
 62
7
100
AcDbPolyline
 90
24
 70
1
 10
209.132318
 20
17.132283
 30
0.0
 10
209.234553
 20
17.908756
 30
0.0
 10
209.534247
 20
18.632286
 30
0.0
 10
210.010999
 20
19.253607
 30
0.0
 10
210.632321
 20
19.730359
 30
0.0
 10
211.355877
 20
20.030079
 30
0.0
 10
212.132323
 20
20.132288
 30
0.0
 10
212.908769
 20
20.030079
 30
0.0
 10
213.632325
 20
19.730359
 30
0.0
 10
214.253646
 20
19.253607
 30
0.0
 10
214.730399
 20
18.632286
 30
0.0
 10
215.030092
 20
17.908756
 30
0.0
 10
215.132327
 20
17.132283
 30
0.0
 10
215.030092
 20
16.355837
 30
0.0
 10
214.730399
 20
15.632308
 30
0.0
 10
214.253646
 20
15.010987
 30
0.0
 10
213.632325
 20
14.534207
 30
0.0
 10
212.908769
 20
14.234514
 30
0.0
 10
212.132323
 20
14.132305
 30
0.0
 10
211.355877
 20
14.234514
 30
0.0
 10
210.632321
 20
14.534207
 30
0.0
 10
210.010999
 20
15.010987
 30
0.0
 10
209.534247
 20
15.632308
 30
0.0
 10
209.234553
 20
16.355837
 30
0.0
  0
LWPOLYLINE
  5
126
100
AcDbEntity
  8
Layer_1
 62
7
100
AcDbPolyline
 90
24
 70
1
 10
370.132306
 20
17.132283
 30
0.0
 10
370.234541
 20
17.908756
 30
0.0
 10
370.534235
 20
18.632286
 30
0.0
 10
371.010988
 20
19.253607
 30
0.0
 10
371.632309
 20
19.730359
 30
0.0
 10
372.355865
 20
20.030079
 30
0.0
 10
373.132311
 20
20.132288
 30
0.0
 10
373.908784
 20
20.030079
 30
0.0
 10
374.632313
 20
19.730359
 30
0.0
 10
375.253634
 20
19.253607
 30
0.0
 10
375.730387
 20
18.632286
 30
0.0
 10
376.030107
 20
17.908756
 30
0.0
 10
376.132316
 20
17.132283
 30
0.0
 10
376.030107
 20
16.355837
 30
0.0
 10
375.730387
 20
15.632308
 30
0.0
 10
375.253634
 20
15.010987
 30
0.0
 10
374.632313
 20
14.534207
 30
0.0
 10
373.908784
 20
14.234514
 30
0.0
 10
373.132311
 20
14.132305
 30
0.0
 10
372.355865
 20
14.234514
 30
0.0
 10
371.632309
 20
14.534207
 30
0.0
 10
371.010988
 20
15.010987
 30
0.0
 10
370.534235
 20
15.632308
 30
0.0
 10
370.234541
 20
16.355837
 30
0.0
  0
LWPOLYLINE
  5
127
100
AcDbEntity
  8
Layer_1
 62
7
100
AcDbPolyline
 90
7
 70
0
 10
375.143118
 20
135.358659
 30
0.0
 10
374.543440
 20
135.779701
 30
0.0
 10
373.859571
 20
136.042811
 30
0.0
 10
373.132311
 20
136.132295
 30
0.0
 10
372.405077
 20
136.042811
 30
0.0
 10
371.721209
 20
135.779701
 30
0.0
 10
371.121531
 20
135.358659
 30
0.0
  0
LWPOLYLINE
  5
128
100
AcDbEntity
  8
Layer_1
 62
7
100
AcDbPolyline
 90
21
 70
0
 10
375.143118
 20
135.358659
 30
0.0
 10
375.615875
 20
134.815131
 30
0.0
 10
375.945440
 20
134.174574
 30
0.0
 10
376.112816
 20
133.473918
 30
0.0
 10
376.108318
 20
132.753566
 30
0.0
 10
375.932238
 20
132.055050
 30
0.0
 10
375.594709
 20
131.418648
 30
0.0
 10
375.115231
 20
130.881052
 30
0.0
 10
374.521400
 20
130.473257
 30
0.0
 10
373.847480
 20
130.218781
 30
0.0
 10
373.132311
 20
130.132294
 30
0.0
 10
372.417169
 20
130.218781
 30
0.0
 10
371.743248
 20
130.473257
 30
0.0
 10
371.149418
 20
130.881052
 30
0.0
 10
370.669913
 20
131.418648
 30
0.0
 10
370.332411
 20
132.055050
 30
0.0
 10
370.156331
 20
132.753566
 30
0.0
 10
370.151833
 20
133.473918
 30
0.0
 10
370.319208
 20
134.174574
 30
0.0
 10
370.648773
 20
134.815131
 30
0.0
 10
371.121531
 20
135.358659
 30
0.0
  0
LWPOLYLINE
  5
129
100
AcDbEntity
  8
Layer_1
 62
7
100
AcDbPolyline
 90
25
 70
1
 10
214.143130
 20
135.358659
 30
0.0
 10
214.633614
 20
134.788649
 30
0.0
 10
214.966963
 20
134.114564
 30
0.0
 10
215.122167
 20
133.378761
 30
0.0
 10
215.089544
 20
132.627471
 30
0.0
 10
214.871078
 20
131.907900
 30
0.0
 10
214.480553
 20
131.265261
 30
0.0
 10
213.942470
 20
130.739936
 30
0.0
 10
213.290642
 20
130.364932
 30
0.0
 10
212.566028
 20
130.163811
 30
0.0
 10
211.814188
 20
130.149206
 30
0.0
 10
211.082324
 20
130.322048
 30
0.0
 10
210.416421
 20
130.671465
 30
0.0
 10
209.858335
 20
131.175504
 30
0.0
 10
209.443151
 20
131.802495
 30
0.0
 10
209.196929
 20
132.513041
 30
0.0
 10
209.135149
 20
133.262500
 30
0.0
 10
209.261699
 20
134.003775
 30
0.0
 10
209.568616
 20
134.690292
 30
0.0
 10
210.036611
 20
135.278916
 30
0.0
 10
210.636289
 20
135.732658
 30
0.0
 10
211.329974
 20
136.023012
 30
0.0
 10
212.074088
 20
136.131729
 30
0.0
 10
212.821827
 20
136.051981
 30
0.0
 10
213.526280
 20
135.788779
 30
0.0
  0
LWPOLYLINE
  5
12a
100
AcDbEntity
  8
Layer_1
 62
7
100
AcDbPolyline
 90
2
 70
0
 10
178.132435
 20
150.132290
 30
0.0
 10
121.132455
 20
150.132290
 30
0.0
  0
LWPOLYLINE
  5
12b
100
AcDbEntity
  8
Layer_1
 62
7
100
AcDbPolyline
 90
14
 70
0
 10
17.132421
 20
150.132290
 30
0.0
 10
15.566087
 20
150.234948
 30
0.0
 10
14.026477
 20
150.541177
 30
0.0
 10
12.540048
 20
151.045737
 30
0.0
 10
11.132464
 20
151.739977
 30
0.0
 10
9.827275
 20
152.612044
 30
0.0
 10
8.646969
 20
153.647015
 30
0.0
 10
7.612183
 20
154.827162
 30
0.0
 10
6.740117
 20
156.132299
 30
0.0
 10
6.045850
 20
157.540094
 30
0.0
 10
5.541290
 20
159.026470
 30
0.0
 10
5.234902
 20
160.565975
 30
0.0
 10
5.132244
 20
162.132282
 30
0.0
 10
5.132244
 20
278.132291
 30
0.0
  0
LWPOLYLINE
  5
12c
100
AcDbEntity
  8
Layer_1
 62
7
100
AcDbPolyline
 90
2
 70
0
 10
5.234902
 20
279.698606
 30
0.0
 10
5.132244
 20
278.132291
 30
0.0
  0
LWPOLYLINE
  5
12d
100
AcDbEntity
  8
Layer_1
 62
7
100
AcDbPolyline
 90
2
 70
0
 10
5.541290
 20
281.238121
 30
0.0
 10
5.234902
 20
279.698606
 30
0.0
  0
LWPOLYLINE
  5
12e
100
AcDbEntity
  8
Layer_1
 62
7
100
AcDbPolyline
 90
2
 70
0
 10
6.045850
 20
282.724492
 30
0.0
 10
5.541290
 20
281.238121
 30
0.0
  0
LWPOLYLINE
  5
12f
100
AcDbEntity
  8
Layer_1
 62
7
100
AcDbPolyline
 90
2
 70
0
 10
6.740117
 20
284.132293
 30
0.0
 10
6.045850
 20
282.724492
 30
0.0
  0
LWPOLYLINE
  5
130
100
AcDbEntity
  8
Layer_1
 62
7
100
AcDbPolyline
 90
2
 70
0
 10
7.612183
 20
285.437429
 30
0.0
 10
6.740117
 20
284.132293
 30
0.0
  0
LWPOLYLINE
  5
131
100
AcDbEntity
  8
Layer_1
 62
7
100
AcDbPolyline
 90
2
 70
0
 10
8.646969
 20
286.617574
 30
0.0
 10
7.612183
 20
285.437429
 30
0.0
  0
LWPOLYLINE
  5
132
100
AcDbEntity
  8
Layer_1
 62
7
100
AcDbPolyline
 90
2
 70
0
 10
9.827275
 20
287.652531
 30
0.0
 10
8.646969
 20
286.617574
 30
0.0
  0
LWPOLYLINE
  5
133
100
AcDbEntity
  8
Layer_1
 62
7
100
AcDbPolyline
 90
2
 70
0
 10
11.132464
 20
288.524596
 30
0.0
 10
9.827275
 20
287.652531
 30
0.0
  0
LWPOLYLINE
  5
134
100
AcDbEntity
  8
Layer_1
 62
7
100
AcDbPolyline
 90
2
 70
0
 10
12.540048
 20
289.218846
 30
0.0
 10
11.132464
 20
288.524596
 30
0.0
  0
LWPOLYLINE
  5
135
100
AcDbEntity
  8
Layer_1
 62
7
100
AcDbPolyline
 90
2
 70
0
 10
14.026477
 20
289.723401
 30
0.0
 10
12.540048
 20
289.218846
 30
0.0
  0
LWPOLYLINE
  5
136
100
AcDbEntity
  8
Layer_1
 62
7
100
AcDbPolyline
 90
2
 70
0
 10
15.566087
 20
290.029630
 30
0.0
 10
14.026477
 20
289.723401
 30
0.0
  0
LWPOLYLINE
  5
137
100
AcDbEntity
  8
Layer_1
 62
7
100
AcDbPolyline
 90
2
 70
0
 10
17.132421
 20
290.132291
 30
0.0
 10
15.566087
 20
290.029630
 30
0.0
  0
LWPOLYLINE
  5
138
100
AcDbEntity
  8
Layer_1
 62
7
100
AcDbPolyline
 90
15
 70
0
 10
17.132421
 20
290.132291
 30
0.0
 10
178.132435
 20
290.132291
 30
0.0
 10
179.698769
 20
290.029630
 30
0.0
 10
181.238114
 20
289.723401
 30
0.0
 10
182.724544
 20
289.218846
 30
0.0
 10
184.132391
 20
288.524596
 30
0.0
 10
185.437581
 20
287.652531
 30
0.0
 10
186.617623
 20
286.617574
 30
0.0
 10
187.652673
 20
285.437429
 30
0.0
 10
188.524739
 20
284.132293
 30
0.0
 10
189.219006
 20
282.724492
 30
0.0
 10
189.723566
 20
281.238121
 30
0.0
 10
190.029689
 20
279.698606
 30
0.0
 10
190.132348
 20
278.132291
 30
0.0
 10
190.132348
 20
162.132282
 30
0.0
  0
LWPOLYLINE
  5
139
100
AcDbEntity
  8
Layer_1
 62
7
100
AcDbPolyline
 90
2
 70
0
 10
190.029689
 20
160.565975
 30
0.0
 10
190.132348
 20
162.132282
 30
0.0
  0
LWPOLYLINE
  5
13a
100
AcDbEntity
  8
Layer_1
 62
7
100
AcDbPolyline
 90
2
 70
0
 10
189.723566
 20
159.026470
 30
0.0
 10
190.029689
 20
160.565975
 30
0.0
  0
LWPOLYLINE
  5
13b
100
AcDbEntity
  8
Layer_1
 62
7
100
AcDbPolyline
 90
2
 70
0
 10
189.219006
 20
157.540094
 30
0.0
 10
189.723566
 20
159.026470
 30
0.0
  0
LWPOLYLINE
  5
13c
100
AcDbEntity
  8
Layer_1
 62
7
100
AcDbPolyline
 90
2
 70
0
 10
188.524739
 20
156.132299
 30
0.0
 10
189.219006
 20
157.540094
 30
0.0
  0
LWPOLYLINE
  5
13d
100
AcDbEntity
  8
Layer_1
 62
7
100
AcDbPolyline
 90
2
 70
0
 10
187.652673
 20
154.827162
 30
0.0
 10
188.524739
 20
156.132299
 30
0.0
  0
LWPOLYLINE
  5
13e
100
AcDbEntity
  8
Layer_1
 62
7
100
AcDbPolyline
 90
2
 70
0
 10
186.617623
 20
153.647015
 30
0.0
 10
187.652673
 20
154.827162
 30
0.0
  0
LWPOLYLINE
  5
13f
100
AcDbEntity
  8
Layer_1
 62
7
100
AcDbPolyline
 90
2
 70
0
 10
185.437581
 20
152.612044
 30
0.0
 10
186.617623
 20
153.647015
 30
0.0
  0
LWPOLYLINE
  5
140
100
AcDbEntity
  8
Layer_1
 62
7
100
AcDbPolyline
 90
2
 70
0
 10
184.132391
 20
151.739977
 30
0.0
 10
185.437581
 20
152.612044
 30
0.0
  0
LWPOLYLINE
  5
141
100
AcDbEntity
  8
Layer_1
 62
7
100
AcDbPolyline
 90
2
 70
0
 10
182.724544
 20
151.045737
 30
0.0
 10
184.132391
 20
151.739977
 30
0.0
  0
LWPOLYLINE
  5
142
100
AcDbEntity
  8
Layer_1
 62
7
100
AcDbPolyline
 90
2
 70
0
 10
181.238114
 20
150.541177
 30
0.0
 10
182.724544
 20
151.045737
 30
0.0
  0
LWPOLYLINE
  5
143
100
AcDbEntity
  8
Layer_1
 62
7
100
AcDbPolyline
 90
2
 70
0
 10
179.698769
 20
150.234948
 30
0.0
 10
181.238114
 20
150.541177
 30
0.0
  0
LWPOLYLINE
  5
144
100
AcDbEntity
  8
Layer_1
 62
7
100
AcDbPolyline
 90
2
 70
0
 10
178.132435
 20
150.132290
 30
0.0
 10
179.698769
 20
150.234948
 30
0.0
  0
LWPOLYLINE
  5
145
100
AcDbEntity
  8
Layer_1
 62
7
100
AcDbPolyline
 90
24
 70
1
 10
17.132421
 20
281.132293
 30
0.0
 10
16.355869
 20
281.030069
 30
0.0
 10
15.632233
 20
280.730367
 30
0.0
 10
15.010991
 20
280.253612
 30
0.0
 10
14.534212
 20
279.632291
 30
0.0
 10
14.234704
 20
278.908748
 30
0.0
 10
14.132310
 20
278.132291
 30
0.0
 10
14.234704
 20
277.355835
 30
0.0
 10
14.534212
 20
276.632292
 30
0.0
 10
15.010991
 20
276.010971
 30
0.0
 10
15.632233
 20
275.534215
 30
0.0
 10
16.355869
 20
275.234514
 30
0.0
 10
17.132421
 20
275.132292
 30
0.0
 10
17.908708
 20
275.234514
 30
0.0
 10
18.632344
 20
275.534215
 30
0.0
 10
19.253585
 20
276.010971
 30
0.0
 10
19.730364
 20
276.632292
 30
0.0
 10
20.030137
 20
277.355835
 30
0.0
 10
20.132266
 20
278.132291
 30
0.0
 10
20.030137
 20
278.908748
 30
0.0
 10
19.730364
 20
279.632291
 30
0.0
 10
19.253585
 20
280.253612
 30
0.0
 10
18.632344
 20
280.730367
 30
0.0
 10
17.908708
 20
281.030069
 30
0.0
  0
LWPOLYLINE
  5
146
100
AcDbEntity
  8
Layer_1
 62
7
100
AcDbPolyline
 90
24
 70
1
 10
18.632344
 20
164.730358
 30
0.0
 10
17.908708
 20
165.030078
 30
0.0
 10
17.132421
 20
165.132286
 30
0.0
 10
16.355869
 20
165.030078
 30
0.0
 10
15.632233
 20
164.730358
 30
0.0
 10
15.010991
 20
164.253605
 30
0.0
 10
14.534212
 20
163.632284
 30
0.0
 10
14.234704
 20
162.908754
 30
0.0
 10
14.132310
 20
162.132282
 30
0.0
 10
14.234704
 20
161.355835
 30
0.0
 10
14.534212
 20
160.632306
 30
0.0
 10
15.010991
 20
160.010985
 30
0.0
 10
15.632233
 20
159.534206
 30
0.0
 10
16.355869
 20
159.234512
 30
0.0
 10
17.132421
 20
159.132303
 30
0.0
 10
17.908708
 20
159.234512
 30
0.0
 10
18.632344
 20
159.534206
 30
0.0
 10
19.253585
 20
160.010985
 30
0.0
 10
19.730364
 20
160.632306
 30
0.0
 10
20.030137
 20
161.355835
 30
0.0
 10
20.132266
 20
162.132282
 30
0.0
 10
20.030137
 20
162.908754
 30
0.0
 10
19.730364
 20
163.632284
 30
0.0
 10
19.253585
 20
164.253605
 30
0.0
  0
LWPOLYLINE
  5
147
100
AcDbEntity
  8
Layer_1
 62
7
100
AcDbPolyline
 90
24
 70
1
 10
181.132281
 20
162.132282
 30
0.0
 10
181.030152
 20
162.908754
 30
0.0
 10
180.730379
 20
163.632284
 30
0.0
 10
180.253600
 20
164.253605
 30
0.0
 10
179.632358
 20
164.730358
 30
0.0
 10
178.908723
 20
165.030078
 30
0.0
 10
178.132435
 20
165.132286
 30
0.0
 10
177.355883
 20
165.030078
 30
0.0
 10
176.632248
 20
164.730358
 30
0.0
 10
176.011006
 20
164.253605
 30
0.0
 10
175.534227
 20
163.632284
 30
0.0
 10
175.234454
 20
162.908754
 30
0.0
 10
175.132325
 20
162.132282
 30
0.0
 10
175.234454
 20
161.355835
 30
0.0
 10
175.534227
 20
160.632306
 30
0.0
 10
176.011006
 20
160.010985
 30
0.0
 10
176.632248
 20
159.534206
 30
0.0
 10
177.355883
 20
159.234512
 30
0.0
 10
178.132435
 20
159.132303
 30
0.0
 10
178.908723
 20
159.234512
 30
0.0
 10
179.632358
 20
159.534206
 30
0.0
 10
180.253600
 20
160.010985
 30
0.0
 10
180.730379
 20
160.632306
 30
0.0
 10
181.030152
 20
161.355835
 30
0.0
  0
LWPOLYLINE
  5
148
100
AcDbEntity
  8
Layer_1
 62
7
100
AcDbPolyline
 90
24
 70
1
 10
175.234454
 20
277.355835
 30
0.0
 10
175.534227
 20
276.632292
 30
0.0
 10
176.011006
 20
276.010971
 30
0.0
 10
176.632248
 20
275.534215
 30
0.0
 10
177.355883
 20
275.234514
 30
0.0
 10
178.132435
 20
275.132292
 30
0.0
 10
178.908723
 20
275.234514
 30
0.0
 10
179.632358
 20
275.534215
 30
0.0
 10
180.253600
 20
276.010971
 30
0.0
 10
180.730379
 20
276.632292
 30
0.0
 10
181.030152
 20
277.355835
 30
0.0
 10
181.132281
 20
278.132291
 30
0.0
 10
181.030152
 20
278.908748
 30
0.0
 10
180.730379
 20
279.632291
 30
0.0
 10
180.253600
 20
280.253612
 30
0.0
 10
179.632358
 20
280.730367
 30
0.0
 10
178.908723
 20
281.030069
 30
0.0
 10
178.132435
 20
281.132293
 30
0.0
 10
177.355883
 20
281.030069
 30
0.0
 10
176.632248
 20
280.730367
 30
0.0
 10
176.011006
 20
280.253612
 30
0.0
 10
175.534227
 20
279.632291
 30
0.0
 10
175.234454
 20
278.908748
 30
0.0
 10
175.132325
 20
278.132291
 30
0.0
  0
LWPOLYLINE
  5
149
100
AcDbEntity
  8
Layer_1
 62
7
100
AcDbPolyline
 90
2
 70
0
 10
121.089592
 20
150.784937
 30
0.0
 10
121.132455
 20
150.132290
 30
0.0
  0
LWPOLYLINE
  5
14a
100
AcDbEntity
  8
Layer_1
 62
7
100
AcDbPolyline
 90
2
 70
0
 10
120.962063
 20
151.426393
 30
0.0
 10
121.089592
 20
150.784937
 30
0.0
  0
LWPOLYLINE
  5
14b
100
AcDbEntity
  8
Layer_1
 62
7
100
AcDbPolyline
 90
2
 70
0
 10
120.751719
 20
152.045704
 30
0.0
 10
120.962063
 20
151.426393
 30
0.0
  0
LWPOLYLINE
  5
14c
100
AcDbEntity
  8
Layer_1
 62
7
100
AcDbPolyline
 90
2
 70
0
 10
120.462530
 20
152.632285
 30
0.0
 10
120.751719
 20
152.045704
 30
0.0
  0
LWPOLYLINE
  5
14d
100
AcDbEntity
  8
Layer_1
 62
7
100
AcDbPolyline
 90
2
 70
0
 10
120.098992
 20
153.176109
 30
0.0
 10
120.462530
 20
152.632285
 30
0.0
  0
LWPOLYLINE
  5
14e
100
AcDbEntity
  8
Layer_1
 62
7
100
AcDbPolyline
 90
2
 70
0
 10
119.667986
 20
153.667837
 30
0.0
 10
120.098992
 20
153.176109
 30
0.0
  0
LWPOLYLINE
  5
14f
100
AcDbEntity
  8
Layer_1
 62
7
100
AcDbPolyline
 90
2
 70
0
 10
119.176126
 20
154.099055
 30
0.0
 10
119.667986
 20
153.667837
 30
0.0
  0
LWPOLYLINE
  5
150
100
AcDbEntity
  8
Layer_1
 62
7
100
AcDbPolyline
 90
2
 70
0
 10
118.632407
 20
154.462408
 30
0.0
 10
119.176126
 20
154.099055
 30
0.0
  0
LWPOLYLINE
  5
151
100
AcDbEntity
  8
Layer_1
 62
7
100
AcDbPolyline
 90
2
 70
0
 10
118.045826
 20
154.751703
 30
0.0
 10
118.632407
 20
154.462408
 30
0.0
  0
LWPOLYLINE
  5
152
100
AcDbEntity
  8
Layer_1
 62
7
100
AcDbPolyline
 90
2
 70
0
 10
117.426436
 20
154.961915
 30
0.0
 10
118.045826
 20
154.751703
 30
0.0
  0
LWPOLYLINE
  5
153
100
AcDbEntity
  8
Layer_1
 62
7
100
AcDbPolyline
 90
2
 70
0
 10
116.785086
 20
155.089523
 30
0.0
 10
117.426436
 20
154.961915
 30
0.0
  0
LWPOLYLINE
  5
154
100
AcDbEntity
  8
Layer_1
 62
7
100
AcDbPolyline
 90
2
 70
0
 10
116.132359
 20
155.132306
 30
0.0
 10
116.785086
 20
155.089523
 30
0.0
  0
LWPOLYLINE
  5
155
100
AcDbEntity
  8
Layer_1
 62
7
100
AcDbPolyline
 90
14
 70
0
 10
34.132429
 20
155.132306
 30
0.0
 10
33.479702
 20
155.089523
 30
0.0
 10
32.838352
 20
154.961915
 30
0.0
 10
32.218962
 20
154.751703
 30
0.0
 10
31.632381
 20
154.462408
 30
0.0
 10
31.088662
 20
154.099055
 30
0.0
 10
30.596802
 20
153.667837
 30
0.0
 10
30.165531
 20
153.176109
 30
0.0
 10
29.802258
 20
152.632285
 30
0.0
 10
29.513068
 20
152.045704
 30
0.0
 10
29.302725
 20
151.426393
 30
0.0
 10
29.175195
 20
150.784937
 30
0.0
 10
29.132333
 20
150.132290
 30
0.0
 10
17.132421
 20
150.132290
 30
0.0
  0
LWPOLYLINE
  5
156
100
AcDbEntity
  8
Layer_1
 62
7
100
AcDbPolyline
 90
2
 70
0
 10
37.144181
 20
246.212289
 30
0.0
 10
44.132356
 20
247.132293
 30
0.0
  0
LWPOLYLINE
  5
157
100
AcDbEntity
  8
Layer_1
 62
7
100
AcDbPolyline
 90
2
 70
0
 10
30.632256
 20
243.514979
 30
0.0
 10
37.144181
 20
246.212289
 30
0.0
  0
LWPOLYLINE
  5
158
100
AcDbEntity
  8
Layer_1
 62
7
100
AcDbPolyline
 90
2
 70
0
 10
25.040552
 20
239.224175
 30
0.0
 10
30.632256
 20
243.514979
 30
0.0
  0
LWPOLYLINE
  5
159
100
AcDbEntity
  8
Layer_1
 62
7
100
AcDbPolyline
 90
2
 70
0
 10
20.749804
 20
233.632294
 30
0.0
 10
25.040552
 20
239.224175
 30
0.0
  0
LWPOLYLINE
  5
15a
100
AcDbEntity
  8
Layer_1
 62
7
100
AcDbPolyline
 90
2
 70
0
 10
18.052377
 20
227.120406
 30
0.0
 10
20.749804
 20
233.632294
 30
0.0
  0
LWPOLYLINE
  5
15b
100
AcDbEntity
  8
Layer_1
 62
7
100
AcDbPolyline
 90
2
 70
0
 10
17.132421
 20
220.132292
 30
0.0
 10
18.052377
 20
227.120406
 30
0.0
  0
LWPOLYLINE
  5
15c
100
AcDbEntity
  8
Layer_1
 62
7
100
AcDbPolyline
 90
2
 70
0
 10
18.052377
 20
213.144178
 30
0.0
 10
17.132421
 20
220.132292
 30
0.0
  0
LWPOLYLINE
  5
15d
100
AcDbEntity
  8
Layer_1
 62
7
100
AcDbPolyline
 90
2
 70
0
 10
20.749804
 20
206.632292
 30
0.0
 10
18.052377
 20
213.144178
 30
0.0
  0
LWPOLYLINE
  5
15e
100
AcDbEntity
  8
Layer_1
 62
7
100
AcDbPolyline
 90
2
 70
0
 10
25.040552
 20
201.040411
 30
0.0
 10
20.749804
 20
206.632292
 30
0.0
  0
LWPOLYLINE
  5
15f
100
AcDbEntity
  8
Layer_1
 62
7
100
AcDbPolyline
 90
2
 70
0
 10
30.632256
 20
196.749608
 30
0.0
 10
25.040552
 20
201.040411
 30
0.0
  0
LWPOLYLINE
  5
160
100
AcDbEntity
  8
Layer_1
 62
7
100
AcDbPolyline
 90
2
 70
0
 10
37.144181
 20
194.052297
 30
0.0
 10
30.632256
 20
196.749608
 30
0.0
  0
LWPOLYLINE
  5
161
100
AcDbEntity
  8
Layer_1
 62
7
100
AcDbPolyline
 90
2
 70
0
 10
44.132356
 20
193.132293
 30
0.0
 10
37.144181
 20
194.052297
 30
0.0
  0
LWPOLYLINE
  5
162
100
AcDbEntity
  8
Layer_1
 62
7
100
AcDbPolyline
 90
2
 70
0
 10
51.120531
 20
194.052297
 30
0.0
 10
44.132356
 20
193.132293
 30
0.0
  0
LWPOLYLINE
  5
163
100
AcDbEntity
  8
Layer_1
 62
7
100
AcDbPolyline
 90
2
 70
0
 10
57.632456
 20
196.749608
 30
0.0
 10
51.120531
 20
194.052297
 30
0.0
  0
LWPOLYLINE
  5
164
100
AcDbEntity
  8
Layer_1
 62
7
100
AcDbPolyline
 90
2
 70
0
 10
63.224160
 20
201.040411
 30
0.0
 10
57.632456
 20
196.749608
 30
0.0
  0
LWPOLYLINE
  5
165
100
AcDbEntity
  8
Layer_1
 62
7
100
AcDbPolyline
 90
2
 70
0
 10
67.515172
 20
206.632292
 30
0.0
 10
63.224160
 20
201.040411
 30
0.0
  0
LWPOLYLINE
  5
166
100
AcDbEntity
  8
Layer_1
 62
7
100
AcDbPolyline
 90
2
 70
0
 10
70.212335
 20
213.144178
 30
0.0
 10
67.515172
 20
206.632292
 30
0.0
  0
LWPOLYLINE
  5
167
100
AcDbEntity
  8
Layer_1
 62
7
100
AcDbPolyline
 90
2
 70
0
 10
71.132291
 20
220.132292
 30
0.0
 10
70.212335
 20
213.144178
 30
0.0
  0
LWPOLYLINE
  5
168
100
AcDbEntity
  8
Layer_1
 62
7
100
AcDbPolyline
 90
2
 70
0
 10
70.212335
 20
227.120406
 30
0.0
 10
71.132291
 20
220.132292
 30
0.0
  0
LWPOLYLINE
  5
169
100
AcDbEntity
  8
Layer_1
 62
7
100
AcDbPolyline
 90
2
 70
0
 10
67.515172
 20
233.632294
 30
0.0
 10
70.212335
 20
227.120406
 30
0.0
  0
LWPOLYLINE
  5
16a
100
AcDbEntity
  8
Layer_1
 62
7
100
AcDbPolyline
 90
2
 70
0
 10
63.224160
 20
239.224175
 30
0.0
 10
67.515172
 20
233.632294
 30
0.0
  0
LWPOLYLINE
  5
16b
100
AcDbEntity
  8
Layer_1
 62
7
100
AcDbPolyline
 90
2
 70
0
 10
57.632456
 20
243.514979
 30
0.0
 10
63.224160
 20
239.224175
 30
0.0
  0
LWPOLYLINE
  5
16c
100
AcDbEntity
  8
Layer_1
 62
7
100
AcDbPolyline
 90
2
 70
0
 10
51.120531
 20
246.212289
 30
0.0
 10
57.632456
 20
243.514979
 30
0.0
  0
LWPOLYLINE
  5
16d
100
AcDbEntity
  8
Layer_1
 62
7
100
AcDbPolyline
 90
2
 70
0
 10
44.132356
 20
247.132293
 30
0.0
 10
51.120531
 20
246.212289
 30
0.0
  0
LWPOLYLINE
  5
16e
100
AcDbEntity
  8
Layer_1
 62
7
100
AcDbPolyline
 90
2
 70
0
 10
178.132435
 20
220.132292
 30
0.0
 10
177.212479
 20
213.144178
 30
0.0
  0
LWPOLYLINE
  5
16f
100
AcDbEntity
  8
Layer_1
 62
7
100
AcDbPolyline
 90
2
 70
0
 10
177.212479
 20
227.120406
 30
0.0
 10
178.132435
 20
220.132292
 30
0.0
  0
LWPOLYLINE
  5
170
100
AcDbEntity
  8
Layer_1
 62
7
100
AcDbPolyline
 90
2
 70
0
 10
174.515052
 20
233.632294
 30
0.0
 10
177.212479
 20
227.120406
 30
0.0
  0
LWPOLYLINE
  5
171
100
AcDbEntity
  8
Layer_1
 62
7
100
AcDbPolyline
 90
2
 70
0
 10
170.224304
 20
239.224175
 30
0.0
 10
174.515052
 20
233.632294
 30
0.0
  0
LWPOLYLINE
  5
172
100
AcDbEntity
  8
Layer_1
 62
7
100
AcDbPolyline
 90
2
 70
0
 10
164.632335
 20
243.514979
 30
0.0
 10
170.224304
 20
239.224175
 30
0.0
  0
LWPOLYLINE
  5
173
100
AcDbEntity
  8
Layer_1
 62
7
100
AcDbPolyline
 90
2
 70
0
 10
158.120411
 20
246.212289
 30
0.0
 10
164.632335
 20
243.514979
 30
0.0
  0
LWPOLYLINE
  5
174
100
AcDbEntity
  8
Layer_1
 62
7
100
AcDbPolyline
 90
2
 70
0
 10
151.132236
 20
247.132293
 30
0.0
 10
158.120411
 20
246.212289
 30
0.0
  0
LWPOLYLINE
  5
175
100
AcDbEntity
  8
Layer_1
 62
7
100
AcDbPolyline
 90
2
 70
0
 10
144.144325
 20
246.212289
 30
0.0
 10
151.132236
 20
247.132293
 30
0.0
  0
LWPOLYLINE
  5
176
100
AcDbEntity
  8
Layer_1
 62
7
100
AcDbPolyline
 90
2
 70
0
 10
137.632400
 20
243.514979
 30
0.0
 10
144.144325
 20
246.212289
 30
0.0
  0
LWPOLYLINE
  5
177
100
AcDbEntity
  8
Layer_1
 62
7
100
AcDbPolyline
 90
2
 70
0
 10
132.040432
 20
239.224175
 30
0.0
 10
137.632400
 20
243.514979
 30
0.0
  0
LWPOLYLINE
  5
178
100
AcDbEntity
  8
Layer_1
 62
7
100
AcDbPolyline
 90
2
 70
0
 10
127.749684
 20
233.632294
 30
0.0
 10
132.040432
 20
239.224175
 30
0.0
  0
LWPOLYLINE
  5
179
100
AcDbEntity
  8
Layer_1
 62
7
100
AcDbPolyline
 90
2
 70
0
 10
125.052257
 20
227.120406
 30
0.0
 10
127.749684
 20
233.632294
 30
0.0
  0
LWPOLYLINE
  5
17a
100
AcDbEntity
  8
Layer_1
 62
7
100
AcDbPolyline
 90
2
 70
0
 10
124.132301
 20
220.132292
 30
0.0
 10
125.052257
 20
227.120406
 30
0.0
  0
LWPOLYLINE
  5
17b
100
AcDbEntity
  8
Layer_1
 62
7
100
AcDbPolyline
 90
2
 70
0
 10
125.052257
 20
213.144178
 30
0.0
 10
124.132301
 20
220.132292
 30
0.0
  0
LWPOLYLINE
  5
17c
100
AcDbEntity
  8
Layer_1
 62
7
100
AcDbPolyline
 90
2
 70
0
 10
127.749684
 20
206.632292
 30
0.0
 10
125.052257
 20
213.144178
 30
0.0
  0
LWPOLYLINE
  5
17d
100
AcDbEntity
  8
Layer_1
 62
7
100
AcDbPolyline
 90
2
 70
0
 10
132.040432
 20
201.040411
 30
0.0
 10
127.749684
 20
206.632292
 30
0.0
  0
LWPOLYLINE
  5
17e
100
AcDbEntity
  8
Layer_1
 62
7
100
AcDbPolyline
 90
2
 70
0
 10
137.632400
 20
196.749608
 30
0.0
 10
132.040432
 20
201.040411
 30
0.0
  0
LWPOLYLINE
  5
17f
100
AcDbEntity
  8
Layer_1
 62
7
100
AcDbPolyline
 90
2
 70
0
 10
144.144325
 20
194.052297
 30
0.0
 10
137.632400
 20
196.749608
 30
0.0
  0
LWPOLYLINE
  5
180
100
AcDbEntity
  8
Layer_1
 62
7
100
AcDbPolyline
 90
2
 70
0
 10
151.132236
 20
193.132293
 30
0.0
 10
144.144325
 20
194.052297
 30
0.0
  0
LWPOLYLINE
  5
181
100
AcDbEntity
  8
Layer_1
 62
7
100
AcDbPolyline
 90
2
 70
0
 10
158.120411
 20
194.052297
 30
0.0
 10
151.132236
 20
193.132293
 30
0.0
  0
LWPOLYLINE
  5
182
100
AcDbEntity
  8
Layer_1
 62
7
100
AcDbPolyline
 90
2
 70
0
 10
164.632335
 20
196.749608
 30
0.0
 10
158.120411
 20
194.052297
 30
0.0
  0
LWPOLYLINE
  5
183
100
AcDbEntity
  8
Layer_1
 62
7
100
AcDbPolyline
 90
2
 70
0
 10
170.224304
 20
201.040411
 30
0.0
 10
164.632335
 20
196.749608
 30
0.0
  0
LWPOLYLINE
  5
184
100
AcDbEntity
  8
Layer_1
 62
7
100
AcDbPolyline
 90
2
 70
0
 10
174.515052
 20
206.632292
 30
0.0
 10
170.224304
 20
201.040411
 30
0.0
  0
LWPOLYLINE
  5
185
100
AcDbEntity
  8
Layer_1
 62
7
100
AcDbPolyline
 90
2
 70
0
 10
177.212479
 20
213.144178
 30
0.0
 10
174.515052
 20
206.632292
 30
0.0
  0
LWPOLYLINE
  5
186
100
AcDbEntity
  8
Layer_1
 62
7
100
AcDbPolyline
 90
2
 70
0
 10
34.132429
 20
155.132306
 30
0.0
 10
116.132359
 20
155.132306
 30
0.0
  0
LWPOLYLINE
  5
187
100
AcDbEntity
  8
Layer_1
 62
7
100
AcDbPolyline
 90
2
 70
0
 10
153.132486
 20
217.917880
 30
0.0
 10
153.132486
 20
200.395598
 30
0.0
  0
LWPOLYLINE
  5
188
100
AcDbEntity
  8
Layer_1
 62
7
100
AcDbPolyline
 90
2
 70
0
 10
157.861648
 20
245.246364
 30
0.0
 10
164.132273
 20
242.648952
 30
0.0
  0
LWPOLYLINE
  5
189
100
AcDbEntity
  8
Layer_1
 62
7
100
AcDbPolyline
 90
2
 70
0
 10
169.517073
 20
201.747515
 30
0.0
 10
164.132273
 20
197.615631
 30
0.0
  0
LWPOLYLINE
  5
18a
100
AcDbEntity
  8
Layer_1
 62
7
100
AcDbPolyline
 90
2
 70
0
 10
170.450787
 20
214.955912
 30
0.0
 10
170.869094
 20
218.132293
 30
0.0
  0
LWPOLYLINE
  5
18b
100
AcDbEntity
  8
Layer_1
 62
7
100
AcDbPolyline
 90
2
 70
0
 10
151.132236
 20
246.132292
 30
0.0
 10
157.861648
 20
245.246364
 30
0.0
  0
LWPOLYLINE
  5
18c
100
AcDbEntity
  8
Layer_1
 62
7
100
AcDbPolyline
 90
3
 70
0
 10
176.246485
 20
213.402998
 30
0.0
 10
173.649071
 20
207.132294
 30
0.0
 10
169.517073
 20
201.747515
 30
0.0
  0
LWPOLYLINE
  5
18d
100
AcDbEntity
  8
Layer_1
 62
7
100
AcDbPolyline
 90
3
 70
0
 10
128.615665
 20
207.132294
 30
0.0
 10
126.018251
 20
213.402998
 30
0.0
 10
125.132426
 20
220.132292
 30
0.0
  0
LWPOLYLINE
  5
18e
100
AcDbEntity
  8
Layer_1
 62
7
100
AcDbPolyline
 90
2
 70
0
 10
148.917938
 20
218.132293
 30
0.0
 10
149.011071
 20
218.010974
 30
0.0
  0
LWPOLYLINE
  5
18f
100
AcDbEntity
  8
Layer_1
 62
7
100
AcDbPolyline
 90
2
 70
0
 10
148.917938
 20
218.132293
 30
0.0
 10
131.395642
 20
218.132293
 30
0.0
  0
LWPOLYLINE
  5
190
100
AcDbEntity
  8
Layer_1
 62
7
100
AcDbPolyline
 90
2
 70
0
 10
176.246485
 20
226.861588
 30
0.0
 10
177.132310
 20
220.132292
 30
0.0
  0
LWPOLYLINE
  5
191
100
AcDbEntity
  8
Layer_1
 62
7
100
AcDbPolyline
 90
2
 70
0
 10
153.346798
 20
218.132293
 30
0.0
 10
170.869094
 20
218.132293
 30
0.0
  0
LWPOLYLINE
  5
192
100
AcDbEntity
  8
Layer_1
 62
7
100
AcDbPolyline
 90
2
 70
0
 10
144.403088
 20
245.246364
 30
0.0
 10
151.132236
 20
246.132292
 30
0.0
  0
LWPOLYLINE
  5
193
100
AcDbEntity
  8
Layer_1
 62
7
100
AcDbPolyline
 90
2
 70
0
 10
177.132310
 20
220.132292
 30
0.0
 10
176.246485
 20
213.402998
 30
0.0
  0
LWPOLYLINE
  5
194
100
AcDbEntity
  8
Layer_1
 62
7
100
AcDbPolyline
 90
2
 70
0
 10
173.649071
 20
233.132292
 30
0.0
 10
176.246485
 20
226.861588
 30
0.0
  0
LWPOLYLINE
  5
195
100
AcDbEntity
  8
Layer_1
 62
7
100
AcDbPolyline
 90
2
 70
0
 10
131.813948
 20
214.955912
 30
0.0
 10
133.811817
 20
210.132293
 30
0.0
  0
LWPOLYLINE
  5
196
100
AcDbEntity
  8
Layer_1
 62
7
100
AcDbPolyline
 90
3
 70
0
 10
126.018251
 20
226.861588
 30
0.0
 10
128.615665
 20
233.132292
 30
0.0
 10
132.747663
 20
238.517068
 30
0.0
  0
LWPOLYLINE
  5
197
100
AcDbEntity
  8
Layer_1
 62
7
100
AcDbPolyline
 90
2
 70
0
 10
125.132426
 20
220.132292
 30
0.0
 10
126.018251
 20
226.861588
 30
0.0
  0
LWPOLYLINE
  5
198
100
AcDbEntity
  8
Layer_1
 62
7
100
AcDbPolyline
 90
2
 70
0
 10
153.253665
 20
218.010974
 30
0.0
 10
153.346798
 20
218.132293
 30
0.0
  0
LWPOLYLINE
  5
199
100
AcDbEntity
  8
Layer_1
 62
7
100
AcDbPolyline
 90
2
 70
0
 10
153.132486
 20
217.917880
 30
0.0
 10
153.253665
 20
218.010974
 30
0.0
  0
LWPOLYLINE
  5
19a
100
AcDbEntity
  8
Layer_1
 62
7
100
AcDbPolyline
 90
2
 70
0
 10
153.132486
 20
222.346706
 30
0.0
 10
153.132486
 20
239.868988
 30
0.0
  0
LWPOLYLINE
  5
19b
100
AcDbEntity
  8
Layer_1
 62
7
100
AcDbPolyline
 90
2
 70
0
 10
153.253665
 20
222.253612
 30
0.0
 10
153.132486
 20
222.346706
 30
0.0
  0
LWPOLYLINE
  5
19c
100
AcDbEntity
  8
Layer_1
 62
7
100
AcDbPolyline
 90
2
 70
0
 10
153.346798
 20
222.132293
 30
0.0
 10
153.253665
 20
222.253612
 30
0.0
  0
LWPOLYLINE
  5
19d
100
AcDbEntity
  8
Layer_1
 62
7
100
AcDbPolyline
 90
5
 70
0
 10
153.346798
 20
222.132293
 30
0.0
 10
170.869094
 20
222.132293
 30
0.0
 10
170.450787
 20
225.308674
 30
0.0
 10
168.452919
 20
230.132293
 30
0.0
 10
165.274479
 20
234.274430
 30
0.0
  0
LWPOLYLINE
  5
19e
100
AcDbEntity
  8
Layer_1
 62
7
100
AcDbPolyline
 90
6
 70
0
 10
153.132486
 20
200.395598
 30
0.0
 10
156.308808
 20
200.813777
 30
0.0
 10
161.132427
 20
202.811786
 30
0.0
 10
165.274479
 20
205.990157
 30
0.0
 10
168.452919
 20
210.132293
 30
0.0
 10
170.450787
 20
214.955912
 30
0.0
  0
LWPOLYLINE
  5
19f
100
AcDbEntity
  8
Layer_1
 62
7
100
AcDbPolyline
 90
2
 70
0
 10
156.308808
 20
239.450809
 30
0.0
 10
153.132486
 20
239.868988
 30
0.0
  0
LWPOLYLINE
  5
1a0
100
AcDbEntity
  8
Layer_1
 62
7
100
AcDbPolyline
 90
3
 70
0
 10
164.132273
 20
242.648952
 30
0.0
 10
169.517073
 20
238.517068
 30
0.0
 10
173.649071
 20
233.132292
 30
0.0
  0
LWPOLYLINE
  5
1a1
100
AcDbEntity
  8
Layer_1
 62
7
100
AcDbPolyline
 90
7
 70
0
 10
164.132273
 20
197.615631
 30
0.0
 10
157.861648
 20
195.018222
 30
0.0
 10
151.132236
 20
194.132294
 30
0.0
 10
144.403088
 20
195.018222
 30
0.0
 10
138.132463
 20
197.615631
 30
0.0
 10
132.747663
 20
201.747515
 30
0.0
 10
128.615665
 20
207.132294
 30
0.0
  0
LWPOLYLINE
  5
1a2
100
AcDbEntity
  8
Layer_1
 62
7
100
AcDbPolyline
 90
3
 70
0
 10
132.747663
 20
238.517068
 30
0.0
 10
138.132463
 20
242.648952
 30
0.0
 10
144.403088
 20
245.246364
 30
0.0
  0
LWPOLYLINE
  5
1a3
100
AcDbEntity
  8
Layer_1
 62
7
100
AcDbPolyline
 90
8
 70
0
 10
149.132250
 20
222.346706
 30
0.0
 10
149.132250
 20
239.868988
 30
0.0
 10
145.955927
 20
239.450809
 30
0.0
 10
141.132309
 20
237.452800
 30
0.0
 10
136.990257
 20
234.274430
 30
0.0
 10
133.811817
 20
230.132293
 30
0.0
 10
131.813948
 20
225.308674
 30
0.0
 10
131.395642
 20
222.132293
 30
0.0
  0
LWPOLYLINE
  5
1a4
100
AcDbEntity
  8
Layer_1
 62
7
100
AcDbPolyline
 90
2
 70
0
 10
148.917938
 20
222.132293
 30
0.0
 10
131.395642
 20
222.132293
 30
0.0
  0
LWPOLYLINE
  5
1a5
100
AcDbEntity
  8
Layer_1
 62
7
100
AcDbPolyline
 90
2
 70
0
 10
149.011071
 20
222.253612
 30
0.0
 10
148.917938
 20
222.132293
 30
0.0
  0
LWPOLYLINE
  5
1a6
100
AcDbEntity
  8
Layer_1
 62
7
100
AcDbPolyline
 90
2
 70
0
 10
149.132250
 20
222.346706
 30
0.0
 10
149.011071
 20
222.253612
 30
0.0
  0
LWPOLYLINE
  5
1a7
100
AcDbEntity
  8
Layer_1
 62
7
100
AcDbPolyline
 90
2
 70
0
 10
149.132250
 20
217.917880
 30
0.0
 10
149.132250
 20
200.395598
 30
0.0
  0
LWPOLYLINE
  5
1a8
100
AcDbEntity
  8
Layer_1
 62
7
100
AcDbPolyline
 90
2
 70
0
 10
149.011071
 20
218.010974
 30
0.0
 10
149.132250
 20
217.917880
 30
0.0
  0
LWPOLYLINE
  5
1a9
100
AcDbEntity
  8
Layer_1
 62
7
100
AcDbPolyline
 90
2
 70
0
 10
131.395642
 20
218.132293
 30
0.0
 10
131.813948
 20
214.955912
 30
0.0
  0
LWPOLYLINE
  5
1aa
100
AcDbEntity
  8
Layer_1
 62
7
100
AcDbPolyline
 90
5
 70
0
 10
133.811817
 20
210.132293
 30
0.0
 10
136.990257
 20
205.990157
 30
0.0
 10
141.132309
 20
202.811786
 30
0.0
 10
145.955927
 20
200.813777
 30
0.0
 10
149.132250
 20
200.395598
 30
0.0
  0
LWPOLYLINE
  5
1ab
100
AcDbEntity
  8
Layer_1
 62
7
100
AcDbPolyline
 90
3
 70
0
 10
165.274479
 20
234.274430
 30
0.0
 10
161.132427
 20
237.452800
 30
0.0
 10
156.308808
 20
239.450809
 30
0.0
  0
LWPOLYLINE
  5
1ac
100
AcDbEntity
  8
Layer_1
 62
7
100
AcDbPolyline
 90
24
 70
1
 10
37.402943
 20
245.246364
 30
0.0
 10
44.132356
 20
246.132292
 30
0.0
 10
50.861768
 20
245.246364
 30
0.0
 10
57.132393
 20
242.648952
 30
0.0
 10
62.517193
 20
238.517068
 30
0.0
 10
66.648926
 20
233.132292
 30
0.0
 10
69.246341
 20
226.861588
 30
0.0
 10
70.132430
 20
220.132292
 30
0.0
 10
69.246341
 20
213.402998
 30
0.0
 10
66.648926
 20
207.132294
 30
0.0
 10
62.517193
 20
201.747515
 30
0.0
 10
57.132393
 20
197.615631
 30
0.0
 10
50.861768
 20
195.018222
 30
0.0
 10
44.132356
 20
194.132294
 30
0.0
 10
37.402943
 20
195.018222
 30
0.0
 10
31.132318
 20
197.615631
 30
0.0
 10
25.747518
 20
201.747515
 30
0.0
 10
21.615785
 20
207.132294
 30
0.0
 10
19.018371
 20
213.402998
 30
0.0
 10
18.132281
 20
220.132292
 30
0.0
 10
19.018371
 20
226.861588
 30
0.0
 10
21.615785
 20
233.132292
 30
0.0
 10
25.747518
 20
238.517068
 30
0.0
 10
31.132318
 20
242.648952
 30
0.0
  0
LWPOLYLINE
  5
1ad
100
AcDbEntity
  8
Layer_1
 62
7
100
AcDbPolyline
 90
8
 70
0
 10
42.132370
 20
222.346706
 30
0.0
 10
42.132370
 20
239.868988
 30
0.0
 10
38.956047
 20
239.450809
 30
0.0
 10
34.132429
 20
237.452800
 30
0.0
 10
29.990112
 20
234.274430
 30
0.0
 10
26.811937
 20
230.132293
 30
0.0
 10
24.813804
 20
225.308674
 30
0.0
 10
24.395762
 20
222.132293
 30
0.0
  0
LWPOLYLINE
  5
1ae
100
AcDbEntity
  8
Layer_1
 62
7
100
AcDbPolyline
 90
2
 70
0
 10
41.918058
 20
222.132293
 30
0.0
 10
24.395762
 20
222.132293
 30
0.0
  0
LWPOLYLINE
  5
1af
100
AcDbEntity
  8
Layer_1
 62
7
100
AcDbPolyline
 90
2
 70
0
 10
42.010927
 20
222.253612
 30
0.0
 10
41.918058
 20
222.132293
 30
0.0
  0
LWPOLYLINE
  5
1b0
100
AcDbEntity
  8
Layer_1
 62
7
100
AcDbPolyline
 90
2
 70
0
 10
42.132370
 20
222.346706
 30
0.0
 10
42.010927
 20
222.253612
 30
0.0
  0
LWPOLYLINE
  5
1b1
100
AcDbEntity
  8
Layer_1
 62
7
100
AcDbPolyline
 90
2
 70
0
 10
42.132370
 20
217.917880
 30
0.0
 10
42.132370
 20
200.395598
 30
0.0
  0
LWPOLYLINE
  5
1b2
100
AcDbEntity
  8
Layer_1
 62
7
100
AcDbPolyline
 90
2
 70
0
 10
42.010927
 20
218.010974
 30
0.0
 10
42.132370
 20
217.917880
 30
0.0
  0
LWPOLYLINE
  5
1b3
100
AcDbEntity
  8
Layer_1
 62
7
100
AcDbPolyline
 90
2
 70
0
 10
41.918058
 20
218.132293
 30
0.0
 10
42.010927
 20
218.010974
 30
0.0
  0
LWPOLYLINE
  5
1b4
100
AcDbEntity
  8
Layer_1
 62
7
100
AcDbPolyline
 90
8
 70
0
 10
41.918058
 20
218.132293
 30
0.0
 10
24.395762
 20
218.132293
 30
0.0
 10
24.813804
 20
214.955912
 30
0.0
 10
26.811937
 20
210.132293
 30
0.0
 10
29.990112
 20
205.990157
 30
0.0
 10
34.132429
 20
202.811786
 30
0.0
 10
38.956047
 20
200.813777
 30
0.0
 10
42.132370
 20
200.395598
 30
0.0
  0
LWPOLYLINE
  5
1b5
100
AcDbEntity
  8
Layer_1
 62
7
100
AcDbPolyline
 90
2
 70
0
 10
63.450908
 20
214.955912
 30
0.0
 10
63.868949
 20
218.132293
 30
0.0
  0
LWPOLYLINE
  5
1b6
100
AcDbEntity
  8
Layer_1
 62
7
100
AcDbPolyline
 90
2
 70
0
 10
46.346654
 20
218.132293
 30
0.0
 10
63.868949
 20
218.132293
 30
0.0
  0
LWPOLYLINE
  5
1b7
100
AcDbEntity
  8
Layer_1
 62
7
100
AcDbPolyline
 90
2
 70
0
 10
46.253785
 20
218.010974
 30
0.0
 10
46.346654
 20
218.132293
 30
0.0
  0
LWPOLYLINE
  5
1b8
100
AcDbEntity
  8
Layer_1
 62
7
100
AcDbPolyline
 90
2
 70
0
 10
46.132341
 20
217.917880
 30
0.0
 10
46.253785
 20
218.010974
 30
0.0
  0
LWPOLYLINE
  5
1b9
100
AcDbEntity
  8
Layer_1
 62
7
100
AcDbPolyline
 90
7
 70
0
 10
46.132341
 20
217.917880
 30
0.0
 10
46.132341
 20
200.395598
 30
0.0
 10
49.308664
 20
200.813777
 30
0.0
 10
54.132283
 20
202.811786
 30
0.0
 10
58.274599
 20
205.990157
 30
0.0
 10
61.452774
 20
210.132293
 30
0.0
 10
63.450908
 20
214.955912
 30
0.0
  0
LWPOLYLINE
  5
1ba
100
AcDbEntity
  8
Layer_1
 62
7
100
AcDbPolyline
 90
2
 70
0
 10
49.308664
 20
239.450809
 30
0.0
 10
46.132341
 20
239.868988
 30
0.0
  0
LWPOLYLINE
  5
1bb
100
AcDbEntity
  8
Layer_1
 62
7
100
AcDbPolyline
 90
2
 70
0
 10
46.132341
 20
222.346706
 30
0.0
 10
46.132341
 20
239.868988
 30
0.0
  0
LWPOLYLINE
  5
1bc
100
AcDbEntity
  8
Layer_1
 62
7
100
AcDbPolyline
 90
2
 70
0
 10
46.253785
 20
222.253612
 30
0.0
 10
46.132341
 20
222.346706
 30
0.0
  0
LWPOLYLINE
  5
1bd
100
AcDbEntity
  8
Layer_1
 62
7
100
AcDbPolyline
 90
2
 70
0
 10
46.346654
 20
222.132293
 30
0.0
 10
46.253785
 20
222.253612
 30
0.0
  0
LWPOLYLINE
  5
1be
100
AcDbEntity
  8
Layer_1
 62
7
100
AcDbPolyline
 90
7
 70
0
 10
46.346654
 20
222.132293
 30
0.0
 10
63.868949
 20
222.132293
 30
0.0
 10
63.450908
 20
225.308674
 30
0.0
 10
61.452774
 20
230.132293
 30
0.0
 10
58.274599
 20
234.274430
 30
0.0
 10
54.132283
 20
237.452800
 30
0.0
 10
49.308664
 20
239.450809
 30
0.0
  0
LWPOLYLINE
  5
1bf
100
AcDbEntity
  8
Layer_1
 62
7
100
AcDbPolyline
 90
2
 70
0
 10
373.132435
 20
150.132290
 30
0.0
 10
316.132455
 20
150.132290
 30
0.0
  0
LWPOLYLINE
  5
1c0
100
AcDbEntity
  8
Layer_1
 62
7
100
AcDbPolyline
 90
14
 70
0
 10
212.132421
 20
150.132290
 30
0.0
 10
210.566087
 20
150.234948
 30
0.0
 10
209.026477
 20
150.541177
 30
0.0
 10
207.540048
 20
151.045737
 30
0.0
 10
206.132464
 20
151.739977
 30
0.0
 10
204.827275
 20
152.612044
 30
0.0
 10
203.646969
 20
153.647015
 30
0.0
 10
202.612183
 20
154.827162
 30
0.0
 10
201.740117
 20
156.132299
 30
0.0
 10
201.045850
 20
157.540094
 30
0.0
 10
200.541290
 20
159.026470
 30
0.0
 10
200.234902
 20
160.565975
 30
0.0
 10
200.132244
 20
162.132282
 30
0.0
 10
200.132244
 20
278.132291
 30
0.0
  0
LWPOLYLINE
  5
1c1
100
AcDbEntity
  8
Layer_1
 62
7
100
AcDbPolyline
 90
2
 70
0
 10
200.234902
 20
279.698606
 30
0.0
 10
200.132244
 20
278.132291
 30
0.0
  0
LWPOLYLINE
  5
1c2
100
AcDbEntity
  8
Layer_1
 62
7
100
AcDbPolyline
 90
2
 70
0
 10
200.541290
 20
281.238121
 30
0.0
 10
200.234902
 20
279.698606
 30
0.0
  0
LWPOLYLINE
  5
1c3
100
AcDbEntity
  8
Layer_1
 62
7
100
AcDbPolyline
 90
2
 70
0
 10
201.045850
 20
282.724492
 30
0.0
 10
200.541290
 20
281.238121
 30
0.0
  0
LWPOLYLINE
  5
1c4
100
AcDbEntity
  8
Layer_1
 62
7
100
AcDbPolyline
 90
2
 70
0
 10
201.740117
 20
284.132293
 30
0.0
 10
201.045850
 20
282.724492
 30
0.0
  0
LWPOLYLINE
  5
1c5
100
AcDbEntity
  8
Layer_1
 62
7
100
AcDbPolyline
 90
2
 70
0
 10
202.612183
 20
285.437429
 30
0.0
 10
201.740117
 20
284.132293
 30
0.0
  0
LWPOLYLINE
  5
1c6
100
AcDbEntity
  8
Layer_1
 62
7
100
AcDbPolyline
 90
2
 70
0
 10
203.646969
 20
286.617574
 30
0.0
 10
202.612183
 20
285.437429
 30
0.0
  0
LWPOLYLINE
  5
1c7
100
AcDbEntity
  8
Layer_1
 62
7
100
AcDbPolyline
 90
2
 70
0
 10
204.827275
 20
287.652531
 30
0.0
 10
203.646969
 20
286.617574
 30
0.0
  0
LWPOLYLINE
  5
1c8
100
AcDbEntity
  8
Layer_1
 62
7
100
AcDbPolyline
 90
2
 70
0
 10
206.132464
 20
288.524596
 30
0.0
 10
204.827275
 20
287.652531
 30
0.0
  0
LWPOLYLINE
  5
1c9
100
AcDbEntity
  8
Layer_1
 62
7
100
AcDbPolyline
 90
2
 70
0
 10
207.540048
 20
289.218846
 30
0.0
 10
206.132464
 20
288.524596
 30
0.0
  0
LWPOLYLINE
  5
1ca
100
AcDbEntity
  8
Layer_1
 62
7
100
AcDbPolyline
 90
2
 70
0
 10
209.026477
 20
289.723401
 30
0.0
 10
207.540048
 20
289.218846
 30
0.0
  0
LWPOLYLINE
  5
1cb
100
AcDbEntity
  8
Layer_1
 62
7
100
AcDbPolyline
 90
2
 70
0
 10
210.566087
 20
290.029630
 30
0.0
 10
209.026477
 20
289.723401
 30
0.0
  0
LWPOLYLINE
  5
1cc
100
AcDbEntity
  8
Layer_1
 62
7
100
AcDbPolyline
 90
2
 70
0
 10
212.132421
 20
290.132291
 30
0.0
 10
210.566087
 20
290.029630
 30
0.0
  0
LWPOLYLINE
  5
1cd
100
AcDbEntity
  8
Layer_1
 62
7
100
AcDbPolyline
 90
15
 70
0
 10
212.132421
 20
290.132291
 30
0.0
 10
373.132435
 20
290.132291
 30
0.0
 10
374.698769
 20
290.029630
 30
0.0
 10
376.238114
 20
289.723401
 30
0.0
 10
377.724544
 20
289.218846
 30
0.0
 10
379.132391
 20
288.524596
 30
0.0
 10
380.437581
 20
287.652531
 30
0.0
 10
381.617623
 20
286.617574
 30
0.0
 10
382.652673
 20
285.437429
 30
0.0
 10
383.524739
 20
284.132293
 30
0.0
 10
384.219006
 20
282.724492
 30
0.0
 10
384.723566
 20
281.238121
 30
0.0
 10
385.029689
 20
279.698606
 30
0.0
 10
385.132348
 20
278.132291
 30
0.0
 10
385.132348
 20
162.132282
 30
0.0
  0
LWPOLYLINE
  5
1ce
100
AcDbEntity
  8
Layer_1
 62
7
100
AcDbPolyline
 90
2
 70
0
 10
385.029689
 20
160.565975
 30
0.0
 10
385.132348
 20
162.132282
 30
0.0
  0
LWPOLYLINE
  5
1cf
100
AcDbEntity
  8
Layer_1
 62
7
100
AcDbPolyline
 90
2
 70
0
 10
384.723566
 20
159.026470
 30
0.0
 10
385.029689
 20
160.565975
 30
0.0
  0
LWPOLYLINE
  5
1d0
100
AcDbEntity
  8
Layer_1
 62
7
100
AcDbPolyline
 90
2
 70
0
 10
384.219006
 20
157.540094
 30
0.0
 10
384.723566
 20
159.026470
 30
0.0
  0
LWPOLYLINE
  5
1d1
100
AcDbEntity
  8
Layer_1
 62
7
100
AcDbPolyline
 90
2
 70
0
 10
383.524739
 20
156.132299
 30
0.0
 10
384.219006
 20
157.540094
 30
0.0
  0
LWPOLYLINE
  5
1d2
100
AcDbEntity
  8
Layer_1
 62
7
100
AcDbPolyline
 90
2
 70
0
 10
382.652673
 20
154.827162
 30
0.0
 10
383.524739
 20
156.132299
 30
0.0
  0
LWPOLYLINE
  5
1d3
100
AcDbEntity
  8
Layer_1
 62
7
100
AcDbPolyline
 90
2
 70
0
 10
381.617623
 20
153.647015
 30
0.0
 10
382.652673
 20
154.827162
 30
0.0
  0
LWPOLYLINE
  5
1d4
100
AcDbEntity
  8
Layer_1
 62
7
100
AcDbPolyline
 90
2
 70
0
 10
380.437581
 20
152.612044
 30
0.0
 10
381.617623
 20
153.647015
 30
0.0
  0
LWPOLYLINE
  5
1d5
100
AcDbEntity
  8
Layer_1
 62
7
100
AcDbPolyline
 90
2
 70
0
 10
379.132391
 20
151.739977
 30
0.0
 10
380.437581
 20
152.612044
 30
0.0
  0
LWPOLYLINE
  5
1d6
100
AcDbEntity
  8
Layer_1
 62
7
100
AcDbPolyline
 90
2
 70
0
 10
377.724544
 20
151.045737
 30
0.0
 10
379.132391
 20
151.739977
 30
0.0
  0
LWPOLYLINE
  5
1d7
100
AcDbEntity
  8
Layer_1
 62
7
100
AcDbPolyline
 90
2
 70
0
 10
376.238114
 20
150.541177
 30
0.0
 10
377.724544
 20
151.045737
 30
0.0
  0
LWPOLYLINE
  5
1d8
100
AcDbEntity
  8
Layer_1
 62
7
100
AcDbPolyline
 90
2
 70
0
 10
374.698769
 20
150.234948
 30
0.0
 10
376.238114
 20
150.541177
 30
0.0
  0
LWPOLYLINE
  5
1d9
100
AcDbEntity
  8
Layer_1
 62
7
100
AcDbPolyline
 90
2
 70
0
 10
373.132435
 20
150.132290
 30
0.0
 10
374.698769
 20
150.234948
 30
0.0
  0
LWPOLYLINE
  5
1da
100
AcDbEntity
  8
Layer_1
 62
7
100
AcDbPolyline
 90
24
 70
1
 10
212.132421
 20
281.132293
 30
0.0
 10
211.355869
 20
281.030069
 30
0.0
 10
210.632233
 20
280.730367
 30
0.0
 10
210.010991
 20
280.253612
 30
0.0
 10
209.534212
 20
279.632291
 30
0.0
 10
209.234704
 20
278.908748
 30
0.0
 10
209.132310
 20
278.132291
 30
0.0
 10
209.234704
 20
277.355835
 30
0.0
 10
209.534212
 20
276.632292
 30
0.0
 10
210.010991
 20
276.010971
 30
0.0
 10
210.632233
 20
275.534215
 30
0.0
 10
211.355869
 20
275.234514
 30
0.0
 10
212.132421
 20
275.132292
 30
0.0
 10
212.908708
 20
275.234514
 30
0.0
 10
213.632344
 20
275.534215
 30
0.0
 10
214.253585
 20
276.010971
 30
0.0
 10
214.730364
 20
276.632292
 30
0.0
 10
215.030137
 20
277.355835
 30
0.0
 10
215.132266
 20
278.132291
 30
0.0
 10
215.030137
 20
278.908748
 30
0.0
 10
214.730364
 20
279.632291
 30
0.0
 10
214.253585
 20
280.253612
 30
0.0
 10
213.632344
 20
280.730367
 30
0.0
 10
212.908708
 20
281.030069
 30
0.0
  0
LWPOLYLINE
  5
1db
100
AcDbEntity
  8
Layer_1
 62
7
100
AcDbPolyline
 90
24
 70
1
 10
213.632344
 20
164.730358
 30
0.0
 10
212.908708
 20
165.030078
 30
0.0
 10
212.132421
 20
165.132286
 30
0.0
 10
211.355869
 20
165.030078
 30
0.0
 10
210.632233
 20
164.730358
 30
0.0
 10
210.010991
 20
164.253605
 30
0.0
 10
209.534212
 20
163.632284
 30
0.0
 10
209.234704
 20
162.908754
 30
0.0
 10
209.132310
 20
162.132282
 30
0.0
 10
209.234704
 20
161.355835
 30
0.0
 10
209.534212
 20
160.632306
 30
0.0
 10
210.010991
 20
160.010985
 30
0.0
 10
210.632233
 20
159.534206
 30
0.0
 10
211.355869
 20
159.234512
 30
0.0
 10
212.132421
 20
159.132303
 30
0.0
 10
212.908708
 20
159.234512
 30
0.0
 10
213.632344
 20
159.534206
 30
0.0
 10
214.253585
 20
160.010985
 30
0.0
 10
214.730364
 20
160.632306
 30
0.0
 10
215.030137
 20
161.355835
 30
0.0
 10
215.132266
 20
162.132282
 30
0.0
 10
215.030137
 20
162.908754
 30
0.0
 10
214.730364
 20
163.632284
 30
0.0
 10
214.253585
 20
164.253605
 30
0.0
  0
LWPOLYLINE
  5
1dc
100
AcDbEntity
  8
Layer_1
 62
7
100
AcDbPolyline
 90
24
 70
1
 10
376.132281
 20
162.132282
 30
0.0
 10
376.030152
 20
162.908754
 30
0.0
 10
375.730379
 20
163.632284
 30
0.0
 10
375.253600
 20
164.253605
 30
0.0
 10
374.632358
 20
164.730358
 30
0.0
 10
373.908723
 20
165.030078
 30
0.0
 10
373.132435
 20
165.132286
 30
0.0
 10
372.355883
 20
165.030078
 30
0.0
 10
371.632248
 20
164.730358
 30
0.0
 10
371.011006
 20
164.253605
 30
0.0
 10
370.534227
 20
163.632284
 30
0.0
 10
370.234454
 20
162.908754
 30
0.0
 10
370.132325
 20
162.132282
 30
0.0
 10
370.234454
 20
161.355835
 30
0.0
 10
370.534227
 20
160.632306
 30
0.0
 10
371.011006
 20
160.010985
 30
0.0
 10
371.632248
 20
159.534206
 30
0.0
 10
372.355883
 20
159.234512
 30
0.0
 10
373.132435
 20
159.132303
 30
0.0
 10
373.908723
 20
159.234512
 30
0.0
 10
374.632358
 20
159.534206
 30
0.0
 10
375.253600
 20
160.010985
 30
0.0
 10
375.730379
 20
160.632306
 30
0.0
 10
376.030152
 20
161.355835
 30
0.0
  0
LWPOLYLINE
  5
1dd
100
AcDbEntity
  8
Layer_1
 62
7
100
AcDbPolyline
 90
24
 70
1
 10
370.234454
 20
277.355835
 30
0.0
 10
370.534227
 20
276.632292
 30
0.0
 10
371.011006
 20
276.010971
 30
0.0
 10
371.632248
 20
275.534215
 30
0.0
 10
372.355883
 20
275.234514
 30
0.0
 10
373.132435
 20
275.132292
 30
0.0
 10
373.908723
 20
275.234514
 30
0.0
 10
374.632358
 20
275.534215
 30
0.0
 10
375.253600
 20
276.010971
 30
0.0
 10
375.730379
 20
276.632292
 30
0.0
 10
376.030152
 20
277.355835
 30
0.0
 10
376.132281
 20
278.132291
 30
0.0
 10
376.030152
 20
278.908748
 30
0.0
 10
375.730379
 20
279.632291
 30
0.0
 10
375.253600
 20
280.253612
 30
0.0
 10
374.632358
 20
280.730367
 30
0.0
 10
373.908723
 20
281.030069
 30
0.0
 10
373.132435
 20
281.132293
 30
0.0
 10
372.355883
 20
281.030069
 30
0.0
 10
371.632248
 20
280.730367
 30
0.0
 10
371.011006
 20
280.253612
 30
0.0
 10
370.534227
 20
279.632291
 30
0.0
 10
370.234454
 20
278.908748
 30
0.0
 10
370.132325
 20
278.132291
 30
0.0
  0
LWPOLYLINE
  5
1de
100
AcDbEntity
  8
Layer_1
 62
7
100
AcDbPolyline
 90
2
 70
0
 10
316.089592
 20
150.784937
 30
0.0
 10
316.132455
 20
150.132290
 30
0.0
  0
LWPOLYLINE
  5
1df
100
AcDbEntity
  8
Layer_1
 62
7
100
AcDbPolyline
 90
2
 70
0
 10
315.962063
 20
151.426393
 30
0.0
 10
316.089592
 20
150.784937
 30
0.0
  0
LWPOLYLINE
  5
1e0
100
AcDbEntity
  8
Layer_1
 62
7
100
AcDbPolyline
 90
2
 70
0
 10
315.751719
 20
152.045704
 30
0.0
 10
315.962063
 20
151.426393
 30
0.0
  0
LWPOLYLINE
  5
1e1
100
AcDbEntity
  8
Layer_1
 62
7
100
AcDbPolyline
 90
2
 70
0
 10
315.462530
 20
152.632285
 30
0.0
 10
315.751719
 20
152.045704
 30
0.0
  0
LWPOLYLINE
  5
1e2
100
AcDbEntity
  8
Layer_1
 62
7
100
AcDbPolyline
 90
2
 70
0
 10
315.098992
 20
153.176109
 30
0.0
 10
315.462530
 20
152.632285
 30
0.0
  0
LWPOLYLINE
  5
1e3
100
AcDbEntity
  8
Layer_1
 62
7
100
AcDbPolyline
 90
2
 70
0
 10
314.667986
 20
153.667837
 30
0.0
 10
315.098992
 20
153.176109
 30
0.0
  0
LWPOLYLINE
  5
1e4
100
AcDbEntity
  8
Layer_1
 62
7
100
AcDbPolyline
 90
2
 70
0
 10
314.176126
 20
154.099055
 30
0.0
 10
314.667986
 20
153.667837
 30
0.0
  0
LWPOLYLINE
  5
1e5
100
AcDbEntity
  8
Layer_1
 62
7
100
AcDbPolyline
 90
2
 70
0
 10
313.632407
 20
154.462408
 30
0.0
 10
314.176126
 20
154.099055
 30
0.0
  0
LWPOLYLINE
  5
1e6
100
AcDbEntity
  8
Layer_1
 62
7
100
AcDbPolyline
 90
2
 70
0
 10
313.045826
 20
154.751703
 30
0.0
 10
313.632407
 20
154.462408
 30
0.0
  0
LWPOLYLINE
  5
1e7
100
AcDbEntity
  8
Layer_1
 62
7
100
AcDbPolyline
 90
2
 70
0
 10
312.426436
 20
154.961915
 30
0.0
 10
313.045826
 20
154.751703
 30
0.0
  0
LWPOLYLINE
  5
1e8
100
AcDbEntity
  8
Layer_1
 62
7
100
AcDbPolyline
 90
2
 70
0
 10
311.785086
 20
155.089523
 30
0.0
 10
312.426436
 20
154.961915
 30
0.0
  0
LWPOLYLINE
  5
1e9
100
AcDbEntity
  8
Layer_1
 62
7
100
AcDbPolyline
 90
2
 70
0
 10
311.132359
 20
155.132306
 30
0.0
 10
311.785086
 20
155.089523
 30
0.0
  0
LWPOLYLINE
  5
1ea
100
AcDbEntity
  8
Layer_1
 62
7
100
AcDbPolyline
 90
14
 70
0
 10
229.132429
 20
155.132306
 30
0.0
 10
228.479702
 20
155.089523
 30
0.0
 10
227.838352
 20
154.961915
 30
0.0
 10
227.218962
 20
154.751703
 30
0.0
 10
226.632381
 20
154.462408
 30
0.0
 10
226.088662
 20
154.099055
 30
0.0
 10
225.596802
 20
153.667837
 30
0.0
 10
225.165531
 20
153.176109
 30
0.0
 10
224.802258
 20
152.632285
 30
0.0
 10
224.513068
 20
152.045704
 30
0.0
 10
224.302725
 20
151.426393
 30
0.0
 10
224.175195
 20
150.784937
 30
0.0
 10
224.132333
 20
150.132290
 30
0.0
 10
212.132421
 20
150.132290
 30
0.0
  0
LWPOLYLINE
  5
1eb
100
AcDbEntity
  8
Layer_1
 62
7
100
AcDbPolyline
 90
2
 70
0
 10
232.144181
 20
246.212289
 30
0.0
 10
239.132356
 20
247.132293
 30
0.0
  0
LWPOLYLINE
  5
1ec
100
AcDbEntity
  8
Layer_1
 62
7
100
AcDbPolyline
 90
2
 70
0
 10
225.632256
 20
243.514979
 30
0.0
 10
232.144181
 20
246.212289
 30
0.0
  0
LWPOLYLINE
  5
1ed
100
AcDbEntity
  8
Layer_1
 62
7
100
AcDbPolyline
 90
2
 70
0
 10
220.040552
 20
239.224175
 30
0.0
 10
225.632256
 20
243.514979
 30
0.0
  0
LWPOLYLINE
  5
1ee
100
AcDbEntity
  8
Layer_1
 62
7
100
AcDbPolyline
 90
2
 70
0
 10
215.749804
 20
233.632294
 30
0.0
 10
220.040552
 20
239.224175
 30
0.0
  0
LWPOLYLINE
  5
1ef
100
AcDbEntity
  8
Layer_1
 62
7
100
AcDbPolyline
 90
2
 70
0
 10
213.052377
 20
227.120406
 30
0.0
 10
215.749804
 20
233.632294
 30
0.0
  0
LWPOLYLINE
  5
1f0
100
AcDbEntity
  8
Layer_1
 62
7
100
AcDbPolyline
 90
2
 70
0
 10
212.132421
 20
220.132292
 30
0.0
 10
213.052377
 20
227.120406
 30
0.0
  0
LWPOLYLINE
  5
1f1
100
AcDbEntity
  8
Layer_1
 62
7
100
AcDbPolyline
 90
2
 70
0
 10
213.052377
 20
213.144178
 30
0.0
 10
212.132421
 20
220.132292
 30
0.0
  0
LWPOLYLINE
  5
1f2
100
AcDbEntity
  8
Layer_1
 62
7
100
AcDbPolyline
 90
2
 70
0
 10
215.749804
 20
206.632292
 30
0.0
 10
213.052377
 20
213.144178
 30
0.0
  0
LWPOLYLINE
  5
1f3
100
AcDbEntity
  8
Layer_1
 62
7
100
AcDbPolyline
 90
2
 70
0
 10
220.040552
 20
201.040411
 30
0.0
 10
215.749804
 20
206.632292
 30
0.0
  0
LWPOLYLINE
  5
1f4
100
AcDbEntity
  8
Layer_1
 62
7
100
AcDbPolyline
 90
2
 70
0
 10
225.632256
 20
196.749608
 30
0.0
 10
220.040552
 20
201.040411
 30
0.0
  0
LWPOLYLINE
  5
1f5
100
AcDbEntity
  8
Layer_1
 62
7
100
AcDbPolyline
 90
2
 70
0
 10
232.144181
 20
194.052297
 30
0.0
 10
225.632256
 20
196.749608
 30
0.0
  0
LWPOLYLINE
  5
1f6
100
AcDbEntity
  8
Layer_1
 62
7
100
AcDbPolyline
 90
2
 70
0
 10
239.132356
 20
193.132293
 30
0.0
 10
232.144181
 20
194.052297
 30
0.0
  0
LWPOLYLINE
  5
1f7
100
AcDbEntity
  8
Layer_1
 62
7
100
AcDbPolyline
 90
2
 70
0
 10
246.120531
 20
194.052297
 30
0.0
 10
239.132356
 20
193.132293
 30
0.0
  0
LWPOLYLINE
  5
1f8
100
AcDbEntity
  8
Layer_1
 62
7
100
AcDbPolyline
 90
2
 70
0
 10
252.632456
 20
196.749608
 30
0.0
 10
246.120531
 20
194.052297
 30
0.0
  0
LWPOLYLINE
  5
1f9
100
AcDbEntity
  8
Layer_1
 62
7
100
AcDbPolyline
 90
2
 70
0
 10
258.224160
 20
201.040411
 30
0.0
 10
252.632456
 20
196.749608
 30
0.0
  0
LWPOLYLINE
  5
1fa
100
AcDbEntity
  8
Layer_1
 62
7
100
AcDbPolyline
 90
2
 70
0
 10
262.515172
 20
206.632292
 30
0.0
 10
258.224160
 20
201.040411
 30
0.0
  0
LWPOLYLINE
  5
1fb
100
AcDbEntity
  8
Layer_1
 62
7
100
AcDbPolyline
 90
2
 70
0
 10
265.212335
 20
213.144178
 30
0.0
 10
262.515172
 20
206.632292
 30
0.0
  0
LWPOLYLINE
  5
1fc
100
AcDbEntity
  8
Layer_1
 62
7
100
AcDbPolyline
 90
2
 70
0
 10
266.132291
 20
220.132292
 30
0.0
 10
265.212335
 20
213.144178
 30
0.0
  0
LWPOLYLINE
  5
1fd
100
AcDbEntity
  8
Layer_1
 62
7
100
AcDbPolyline
 90
2
 70
0
 10
265.212335
 20
227.120406
 30
0.0
 10
266.132291
 20
220.132292
 30
0.0
  0
LWPOLYLINE
  5
1fe
100
AcDbEntity
  8
Layer_1
 62
7
100
AcDbPolyline
 90
2
 70
0
 10
262.515172
 20
233.632294
 30
0.0
 10
265.212335
 20
227.120406
 30
0.0
  0
LWPOLYLINE
  5
1ff
100
AcDbEntity
  8
Layer_1
 62
7
100
AcDbPolyline
 90
2
 70
0
 10
258.224160
 20
239.224175
 30
0.0
 10
262.515172
 20
233.632294
 30
0.0
  0
LWPOLYLINE
  5
200
100
AcDbEntity
  8
Layer_1
 62
7
100
AcDbPolyline
 90
2
 70
0
 10
252.632456
 20
243.514979
 30
0.0
 10
258.224160
 20
239.224175
 30
0.0
  0
LWPOLYLINE
  5
201
100
AcDbEntity
  8
Layer_1
 62
7
100
AcDbPolyline
 90
2
 70
0
 10
246.120531
 20
246.212289
 30
0.0
 10
252.632456
 20
243.514979
 30
0.0
  0
LWPOLYLINE
  5
202
100
AcDbEntity
  8
Layer_1
 62
7
100
AcDbPolyline
 90
2
 70
0
 10
239.132356
 20
247.132293
 30
0.0
 10
246.120531
 20
246.212289
 30
0.0
  0
LWPOLYLINE
  5
203
100
AcDbEntity
  8
Layer_1
 62
7
100
AcDbPolyline
 90
2
 70
0
 10
373.132435
 20
220.132292
 30
0.0
 10
372.212479
 20
213.144178
 30
0.0
  0
LWPOLYLINE
  5
204
100
AcDbEntity
  8
Layer_1
 62
7
100
AcDbPolyline
 90
2
 70
0
 10
372.212479
 20
227.120406
 30
0.0
 10
373.132435
 20
220.132292
 30
0.0
  0
LWPOLYLINE
  5
205
100
AcDbEntity
  8
Layer_1
 62
7
100
AcDbPolyline
 90
2
 70
0
 10
369.515052
 20
233.632294
 30
0.0
 10
372.212479
 20
227.120406
 30
0.0
  0
LWPOLYLINE
  5
206
100
AcDbEntity
  8
Layer_1
 62
7
100
AcDbPolyline
 90
2
 70
0
 10
365.224304
 20
239.224175
 30
0.0
 10
369.515052
 20
233.632294
 30
0.0
  0
LWPOLYLINE
  5
207
100
AcDbEntity
  8
Layer_1
 62
7
100
AcDbPolyline
 90
2
 70
0
 10
359.632335
 20
243.514979
 30
0.0
 10
365.224304
 20
239.224175
 30
0.0
  0
LWPOLYLINE
  5
208
100
AcDbEntity
  8
Layer_1
 62
7
100
AcDbPolyline
 90
2
 70
0
 10
353.120411
 20
246.212289
 30
0.0
 10
359.632335
 20
243.514979
 30
0.0
  0
LWPOLYLINE
  5
209
100
AcDbEntity
  8
Layer_1
 62
7
100
AcDbPolyline
 90
2
 70
0
 10
346.132236
 20
247.132293
 30
0.0
 10
353.120411
 20
246.212289
 30
0.0
  0
LWPOLYLINE
  5
20a
100
AcDbEntity
  8
Layer_1
 62
7
100
AcDbPolyline
 90
2
 70
0
 10
339.144325
 20
246.212289
 30
0.0
 10
346.132236
 20
247.132293
 30
0.0
  0
LWPOLYLINE
  5
20b
100
AcDbEntity
  8
Layer_1
 62
7
100
AcDbPolyline
 90
2
 70
0
 10
332.632400
 20
243.514979
 30
0.0
 10
339.144325
 20
246.212289
 30
0.0
  0
LWPOLYLINE
  5
20c
100
AcDbEntity
  8
Layer_1
 62
7
100
AcDbPolyline
 90
2
 70
0
 10
327.040432
 20
239.224175
 30
0.0
 10
332.632400
 20
243.514979
 30
0.0
  0
LWPOLYLINE
  5
20d
100
AcDbEntity
  8
Layer_1
 62
7
100
AcDbPolyline
 90
2
 70
0
 10
322.749684
 20
233.632294
 30
0.0
 10
327.040432
 20
239.224175
 30
0.0
  0
LWPOLYLINE
  5
20e
100
AcDbEntity
  8
Layer_1
 62
7
100
AcDbPolyline
 90
2
 70
0
 10
320.052257
 20
227.120406
 30
0.0
 10
322.749684
 20
233.632294
 30
0.0
  0
LWPOLYLINE
  5
20f
100
AcDbEntity
  8
Layer_1
 62
7
100
AcDbPolyline
 90
2
 70
0
 10
319.132301
 20
220.132292
 30
0.0
 10
320.052257
 20
227.120406
 30
0.0
  0
LWPOLYLINE
  5
210
100
AcDbEntity
  8
Layer_1
 62
7
100
AcDbPolyline
 90
2
 70
0
 10
320.052257
 20
213.144178
 30
0.0
 10
319.132301
 20
220.132292
 30
0.0
  0
LWPOLYLINE
  5
211
100
AcDbEntity
  8
Layer_1
 62
7
100
AcDbPolyline
 90
2
 70
0
 10
322.749684
 20
206.632292
 30
0.0
 10
320.052257
 20
213.144178
 30
0.0
  0
LWPOLYLINE
  5
212
100
AcDbEntity
  8
Layer_1
 62
7
100
AcDbPolyline
 90
2
 70
0
 10
327.040432
 20
201.040411
 30
0.0
 10
322.749684
 20
206.632292
 30
0.0
  0
LWPOLYLINE
  5
213
100
AcDbEntity
  8
Layer_1
 62
7
100
AcDbPolyline
 90
2
 70
0
 10
332.632400
 20
196.749608
 30
0.0
 10
327.040432
 20
201.040411
 30
0.0
  0
LWPOLYLINE
  5
214
100
AcDbEntity
  8
Layer_1
 62
7
100
AcDbPolyline
 90
2
 70
0
 10
339.144325
 20
194.052297
 30
0.0
 10
332.632400
 20
196.749608
 30
0.0
  0
LWPOLYLINE
  5
215
100
AcDbEntity
  8
Layer_1
 62
7
100
AcDbPolyline
 90
2
 70
0
 10
346.132236
 20
193.132293
 30
0.0
 10
339.144325
 20
194.052297
 30
0.0
  0
LWPOLYLINE
  5
216
100
AcDbEntity
  8
Layer_1
 62
7
100
AcDbPolyline
 90
2
 70
0
 10
353.120411
 20
194.052297
 30
0.0
 10
346.132236
 20
193.132293
 30
0.0
  0
LWPOLYLINE
  5
217
100
AcDbEntity
  8
Layer_1
 62
7
100
AcDbPolyline
 90
2
 70
0
 10
359.632335
 20
196.749608
 30
0.0
 10
353.120411
 20
194.052297
 30
0.0
  0
LWPOLYLINE
  5
218
100
AcDbEntity
  8
Layer_1
 62
7
100
AcDbPolyline
 90
2
 70
0
 10
365.224304
 20
201.040411
 30
0.0
 10
359.632335
 20
196.749608
 30
0.0
  0
LWPOLYLINE
  5
219
100
AcDbEntity
  8
Layer_1
 62
7
100
AcDbPolyline
 90
2
 70
0
 10
369.515052
 20
206.632292
 30
0.0
 10
365.224304
 20
201.040411
 30
0.0
  0
LWPOLYLINE
  5
21a
100
AcDbEntity
  8
Layer_1
 62
7
100
AcDbPolyline
 90
2
 70
0
 10
372.212479
 20
213.144178
 30
0.0
 10
369.515052
 20
206.632292
 30
0.0
  0
LWPOLYLINE
  5
21b
100
AcDbEntity
  8
Layer_1
 62
7
100
AcDbPolyline
 90
2
 70
0
 10
229.132429
 20
155.132306
 30
0.0
 10
311.132359
 20
155.132306
 30
0.0
  0
LWPOLYLINE
  5
21c
100
AcDbEntity
  8
Layer_1
 62
7
100
AcDbPolyline
 90
2
 70
0
 10
348.132486
 20
217.917880
 30
0.0
 10
348.132486
 20
200.395598
 30
0.0
  0
LWPOLYLINE
  5
21d
100
AcDbEntity
  8
Layer_1
 62
7
100
AcDbPolyline
 90
2
 70
0
 10
352.861648
 20
245.246364
 30
0.0
 10
359.132273
 20
242.648952
 30
0.0
  0
LWPOLYLINE
  5
21e
100
AcDbEntity
  8
Layer_1
 62
7
100
AcDbPolyline
 90
2
 70
0
 10
364.517073
 20
201.747515
 30
0.0
 10
359.132273
 20
197.615631
 30
0.0
  0
LWPOLYLINE
  5
21f
100
AcDbEntity
  8
Layer_1
 62
7
100
AcDbPolyline
 90
2
 70
0
 10
365.450787
 20
214.955912
 30
0.0
 10
365.869094
 20
218.132293
 30
0.0
  0
LWPOLYLINE
  5
220
100
AcDbEntity
  8
Layer_1
 62
7
100
AcDbPolyline
 90
2
 70
0
 10
346.132236
 20
246.132292
 30
0.0
 10
352.861648
 20
245.246364
 30
0.0
  0
LWPOLYLINE
  5
221
100
AcDbEntity
  8
Layer_1
 62
7
100
AcDbPolyline
 90
3
 70
0
 10
371.246485
 20
213.402998
 30
0.0
 10
368.649071
 20
207.132294
 30
0.0
 10
364.517073
 20
201.747515
 30
0.0
  0
LWPOLYLINE
  5
222
100
AcDbEntity
  8
Layer_1
 62
7
100
AcDbPolyline
 90
3
 70
0
 10
323.615665
 20
207.132294
 30
0.0
 10
321.018251
 20
213.402998
 30
0.0
 10
320.132426
 20
220.132292
 30
0.0
  0
LWPOLYLINE
  5
223
100
AcDbEntity
  8
Layer_1
 62
7
100
AcDbPolyline
 90
2
 70
0
 10
343.917938
 20
218.132293
 30
0.0
 10
344.011071
 20
218.010974
 30
0.0
  0
LWPOLYLINE
  5
224
100
AcDbEntity
  8
Layer_1
 62
7
100
AcDbPolyline
 90
2
 70
0
 10
343.917938
 20
218.132293
 30
0.0
 10
326.395642
 20
218.132293
 30
0.0
  0
LWPOLYLINE
  5
225
100
AcDbEntity
  8
Layer_1
 62
7
100
AcDbPolyline
 90
2
 70
0
 10
371.246485
 20
226.861588
 30
0.0
 10
372.132310
 20
220.132292
 30
0.0
  0
LWPOLYLINE
  5
226
100
AcDbEntity
  8
Layer_1
 62
7
100
AcDbPolyline
 90
2
 70
0
 10
348.346798
 20
218.132293
 30
0.0
 10
365.869094
 20
218.132293
 30
0.0
  0
LWPOLYLINE
  5
227
100
AcDbEntity
  8
Layer_1
 62
7
100
AcDbPolyline
 90
2
 70
0
 10
339.403088
 20
245.246364
 30
0.0
 10
346.132236
 20
246.132292
 30
0.0
  0
LWPOLYLINE
  5
228
100
AcDbEntity
  8
Layer_1
 62
7
100
AcDbPolyline
 90
2
 70
0
 10
372.132310
 20
220.132292
 30
0.0
 10
371.246485
 20
213.402998
 30
0.0
  0
LWPOLYLINE
  5
229
100
AcDbEntity
  8
Layer_1
 62
7
100
AcDbPolyline
 90
2
 70
0
 10
368.649071
 20
233.132292
 30
0.0
 10
371.246485
 20
226.861588
 30
0.0
  0
LWPOLYLINE
  5
22a
100
AcDbEntity
  8
Layer_1
 62
7
100
AcDbPolyline
 90
2
 70
0
 10
326.813948
 20
214.955912
 30
0.0
 10
328.811817
 20
210.132293
 30
0.0
  0
LWPOLYLINE
  5
22b
100
AcDbEntity
  8
Layer_1
 62
7
100
AcDbPolyline
 90
3
 70
0
 10
321.018251
 20
226.861588
 30
0.0
 10
323.615665
 20
233.132292
 30
0.0
 10
327.747663
 20
238.517068
 30
0.0
  0
LWPOLYLINE
  5
22c
100
AcDbEntity
  8
Layer_1
 62
7
100
AcDbPolyline
 90
2
 70
0
 10
320.132426
 20
220.132292
 30
0.0
 10
321.018251
 20
226.861588
 30
0.0
  0
LWPOLYLINE
  5
22d
100
AcDbEntity
  8
Layer_1
 62
7
100
AcDbPolyline
 90
2
 70
0
 10
348.253665
 20
218.010974
 30
0.0
 10
348.346798
 20
218.132293
 30
0.0
  0
LWPOLYLINE
  5
22e
100
AcDbEntity
  8
Layer_1
 62
7
100
AcDbPolyline
 90
2
 70
0
 10
348.132486
 20
217.917880
 30
0.0
 10
348.253665
 20
218.010974
 30
0.0
  0
LWPOLYLINE
  5
22f
100
AcDbEntity
  8
Layer_1
 62
7
100
AcDbPolyline
 90
2
 70
0
 10
348.132486
 20
222.346706
 30
0.0
 10
348.132486
 20
239.868988
 30
0.0
  0
LWPOLYLINE
  5
230
100
AcDbEntity
  8
Layer_1
 62
7
100
AcDbPolyline
 90
2
 70
0
 10
348.253665
 20
222.253612
 30
0.0
 10
348.132486
 20
222.346706
 30
0.0
  0
LWPOLYLINE
  5
231
100
AcDbEntity
  8
Layer_1
 62
7
100
AcDbPolyline
 90
2
 70
0
 10
348.346798
 20
222.132293
 30
0.0
 10
348.253665
 20
222.253612
 30
0.0
  0
LWPOLYLINE
  5
232
100
AcDbEntity
  8
Layer_1
 62
7
100
AcDbPolyline
 90
5
 70
0
 10
348.346798
 20
222.132293
 30
0.0
 10
365.869094
 20
222.132293
 30
0.0
 10
365.450787
 20
225.308674
 30
0.0
 10
363.452919
 20
230.132293
 30
0.0
 10
360.274479
 20
234.274430
 30
0.0
  0
LWPOLYLINE
  5
233
100
AcDbEntity
  8
Layer_1
 62
7
100
AcDbPolyline
 90
6
 70
0
 10
348.132486
 20
200.395598
 30
0.0
 10
351.308808
 20
200.813777
 30
0.0
 10
356.132427
 20
202.811786
 30
0.0
 10
360.274479
 20
205.990157
 30
0.0
 10
363.452919
 20
210.132293
 30
0.0
 10
365.450787
 20
214.955912
 30
0.0
  0
LWPOLYLINE
  5
234
100
AcDbEntity
  8
Layer_1
 62
7
100
AcDbPolyline
 90
2
 70
0
 10
351.308808
 20
239.450809
 30
0.0
 10
348.132486
 20
239.868988
 30
0.0
  0
LWPOLYLINE
  5
235
100
AcDbEntity
  8
Layer_1
 62
7
100
AcDbPolyline
 90
3
 70
0
 10
359.132273
 20
242.648952
 30
0.0
 10
364.517073
 20
238.517068
 30
0.0
 10
368.649071
 20
233.132292
 30
0.0
  0
LWPOLYLINE
  5
236
100
AcDbEntity
  8
Layer_1
 62
7
100
AcDbPolyline
 90
7
 70
0
 10
359.132273
 20
197.615631
 30
0.0
 10
352.861648
 20
195.018222
 30
0.0
 10
346.132236
 20
194.132294
 30
0.0
 10
339.403088
 20
195.018222
 30
0.0
 10
333.132463
 20
197.615631
 30
0.0
 10
327.747663
 20
201.747515
 30
0.0
 10
323.615665
 20
207.132294
 30
0.0
  0
LWPOLYLINE
  5
237
100
AcDbEntity
  8
Layer_1
 62
7
100
AcDbPolyline
 90
3
 70
0
 10
327.747663
 20
238.517068
 30
0.0
 10
333.132463
 20
242.648952
 30
0.0
 10
339.403088
 20
245.246364
 30
0.0
  0
LWPOLYLINE
  5
238
100
AcDbEntity
  8
Layer_1
 62
7
100
AcDbPolyline
 90
8
 70
0
 10
344.132250
 20
222.346706
 30
0.0
 10
344.132250
 20
239.868988
 30
0.0
 10
340.955927
 20
239.450809
 30
0.0
 10
336.132309
 20
237.452800
 30
0.0
 10
331.990257
 20
234.274430
 30
0.0
 10
328.811817
 20
230.132293
 30
0.0
 10
326.813948
 20
225.308674
 30
0.0
 10
326.395642
 20
222.132293
 30
0.0
  0
LWPOLYLINE
  5
239
100
AcDbEntity
  8
Layer_1
 62
7
100
AcDbPolyline
 90
2
 70
0
 10
343.917938
 20
222.132293
 30
0.0
 10
326.395642
 20
222.132293
 30
0.0
  0
LWPOLYLINE
  5
23a
100
AcDbEntity
  8
Layer_1
 62
7
100
AcDbPolyline
 90
2
 70
0
 10
344.011071
 20
222.253612
 30
0.0
 10
343.917938
 20
222.132293
 30
0.0
  0
LWPOLYLINE
  5
23b
100
AcDbEntity
  8
Layer_1
 62
7
100
AcDbPolyline
 90
2
 70
0
 10
344.132250
 20
222.346706
 30
0.0
 10
344.011071
 20
222.253612
 30
0.0
  0
LWPOLYLINE
  5
23c
100
AcDbEntity
  8
Layer_1
 62
7
100
AcDbPolyline
 90
2
 70
0
 10
344.132250
 20
217.917880
 30
0.0
 10
344.132250
 20
200.395598
 30
0.0
  0
LWPOLYLINE
  5
23d
100
AcDbEntity
  8
Layer_1
 62
7
100
AcDbPolyline
 90
2
 70
0
 10
344.011071
 20
218.010974
 30
0.0
 10
344.132250
 20
217.917880
 30
0.0
  0
LWPOLYLINE
  5
23e
100
AcDbEntity
  8
Layer_1
 62
7
100
AcDbPolyline
 90
2
 70
0
 10
326.395642
 20
218.132293
 30
0.0
 10
326.813948
 20
214.955912
 30
0.0
  0
LWPOLYLINE
  5
23f
100
AcDbEntity
  8
Layer_1
 62
7
100
AcDbPolyline
 90
5
 70
0
 10
328.811817
 20
210.132293
 30
0.0
 10
331.990257
 20
205.990157
 30
0.0
 10
336.132309
 20
202.811786
 30
0.0
 10
340.955927
 20
200.813777
 30
0.0
 10
344.132250
 20
200.395598
 30
0.0
  0
LWPOLYLINE
  5
240
100
AcDbEntity
  8
Layer_1
 62
7
100
AcDbPolyline
 90
3
 70
0
 10
360.274479
 20
234.274430
 30
0.0
 10
356.132427
 20
237.452800
 30
0.0
 10
351.308808
 20
239.450809
 30
0.0
  0
LWPOLYLINE
  5
241
100
AcDbEntity
  8
Layer_1
 62
7
100
AcDbPolyline
 90
24
 70
1
 10
232.402943
 20
245.246364
 30
0.0
 10
239.132356
 20
246.132292
 30
0.0
 10
245.861768
 20
245.246364
 30
0.0
 10
252.132393
 20
242.648952
 30
0.0
 10
257.517193
 20
238.517068
 30
0.0
 10
261.648926
 20
233.132292
 30
0.0
 10
264.246341
 20
226.861588
 30
0.0
 10
265.132430
 20
220.132292
 30
0.0
 10
264.246341
 20
213.402998
 30
0.0
 10
261.648926
 20
207.132294
 30
0.0
 10
257.517193
 20
201.747515
 30
0.0
 10
252.132393
 20
197.615631
 30
0.0
 10
245.861768
 20
195.018222
 30
0.0
 10
239.132356
 20
194.132294
 30
0.0
 10
232.402943
 20
195.018222
 30
0.0
 10
226.132318
 20
197.615631
 30
0.0
 10
220.747518
 20
201.747515
 30
0.0
 10
216.615785
 20
207.132294
 30
0.0
 10
214.018371
 20
213.402998
 30
0.0
 10
213.132281
 20
220.132292
 30
0.0
 10
214.018371
 20
226.861588
 30
0.0
 10
216.615785
 20
233.132292
 30
0.0
 10
220.747518
 20
238.517068
 30
0.0
 10
226.132318
 20
242.648952
 30
0.0
  0
LWPOLYLINE
  5
242
100
AcDbEntity
  8
Layer_1
 62
7
100
AcDbPolyline
 90
8
 70
0
 10
237.132370
 20
222.346706
 30
0.0
 10
237.132370
 20
239.868988
 30
0.0
 10
233.956047
 20
239.450809
 30
0.0
 10
229.132429
 20
237.452800
 30
0.0
 10
224.990112
 20
234.274430
 30
0.0
 10
221.811937
 20
230.132293
 30
0.0
 10
219.813804
 20
225.308674
 30
0.0
 10
219.395762
 20
222.132293
 30
0.0
  0
LWPOLYLINE
  5
243
100
AcDbEntity
  8
Layer_1
 62
7
100
AcDbPolyline
 90
2
 70
0
 10
236.918058
 20
222.132293
 30
0.0
 10
219.395762
 20
222.132293
 30
0.0
  0
LWPOLYLINE
  5
244
100
AcDbEntity
  8
Layer_1
 62
7
100
AcDbPolyline
 90
2
 70
0
 10
237.010927
 20
222.253612
 30
0.0
 10
236.918058
 20
222.132293
 30
0.0
  0
LWPOLYLINE
  5
245
100
AcDbEntity
  8
Layer_1
 62
7
100
AcDbPolyline
 90
2
 70
0
 10
237.132370
 20
222.346706
 30
0.0
 10
237.010927
 20
222.253612
 30
0.0
  0
LWPOLYLINE
  5
246
100
AcDbEntity
  8
Layer_1
 62
7
100
AcDbPolyline
 90
2
 70
0
 10
237.132370
 20
217.917880
 30
0.0
 10
237.132370
 20
200.395598
 30
0.0
  0
LWPOLYLINE
  5
247
100
AcDbEntity
  8
Layer_1
 62
7
100
AcDbPolyline
 90
2
 70
0
 10
237.010927
 20
218.010974
 30
0.0
 10
237.132370
 20
217.917880
 30
0.0
  0
LWPOLYLINE
  5
248
100
AcDbEntity
  8
Layer_1
 62
7
100
AcDbPolyline
 90
2
 70
0
 10
236.918058
 20
218.132293
 30
0.0
 10
237.010927
 20
218.010974
 30
0.0
  0
LWPOLYLINE
  5
249
100
AcDbEntity
  8
Layer_1
 62
7
100
AcDbPolyline
 90
8
 70
0
 10
236.918058
 20
218.132293
 30
0.0
 10
219.395762
 20
218.132293
 30
0.0
 10
219.813804
 20
214.955912
 30
0.0
 10
221.811937
 20
210.132293
 30
0.0
 10
224.990112
 20
205.990157
 30
0.0
 10
229.132429
 20
202.811786
 30
0.0
 10
233.956047
 20
200.813777
 30
0.0
 10
237.132370
 20
200.395598
 30
0.0
  0
LWPOLYLINE
  5
24a
100
AcDbEntity
  8
Layer_1
 62
7
100
AcDbPolyline
 90
2
 70
0
 10
258.450908
 20
214.955912
 30
0.0
 10
258.868949
 20
218.132293
 30
0.0
  0
LWPOLYLINE
  5
24b
100
AcDbEntity
  8
Layer_1
 62
7
100
AcDbPolyline
 90
2
 70
0
 10
241.346654
 20
218.132293
 30
0.0
 10
258.868949
 20
218.132293
 30
0.0
  0
LWPOLYLINE
  5
24c
100
AcDbEntity
  8
Layer_1
 62
7
100
AcDbPolyline
 90
2
 70
0
 10
241.253785
 20
218.010974
 30
0.0
 10
241.346654
 20
218.132293
 30
0.0
  0
LWPOLYLINE
  5
24d
100
AcDbEntity
  8
Layer_1
 62
7
100
AcDbPolyline
 90
2
 70
0
 10
241.132341
 20
217.917880
 30
0.0
 10
241.253785
 20
218.010974
 30
0.0
  0
LWPOLYLINE
  5
24e
100
AcDbEntity
  8
Layer_1
 62
7
100
AcDbPolyline
 90
7
 70
0
 10
241.132341
 20
217.917880
 30
0.0
 10
241.132341
 20
200.395598
 30
0.0
 10
244.308664
 20
200.813777
 30
0.0
 10
249.132283
 20
202.811786
 30
0.0
 10
253.274599
 20
205.990157
 30
0.0
 10
256.452774
 20
210.132293
 30
0.0
 10
258.450908
 20
214.955912
 30
0.0
  0
LWPOLYLINE
  5
24f
100
AcDbEntity
  8
Layer_1
 62
7
100
AcDbPolyline
 90
2
 70
0
 10
244.308664
 20
239.450809
 30
0.0
 10
241.132341
 20
239.868988
 30
0.0
  0
LWPOLYLINE
  5
250
100
AcDbEntity
  8
Layer_1
 62
7
100
AcDbPolyline
 90
2
 70
0
 10
241.132341
 20
222.346706
 30
0.0
 10
241.132341
 20
239.868988
 30
0.0
  0
LWPOLYLINE
  5
251
100
AcDbEntity
  8
Layer_1
 62
7
100
AcDbPolyline
 90
2
 70
0
 10
241.253785
 20
222.253612
 30
0.0
 10
241.132341
 20
222.346706
 30
0.0
  0
LWPOLYLINE
  5
252
100
AcDbEntity
  8
Layer_1
 62
7
100
AcDbPolyline
 90
2
 70
0
 10
241.346654
 20
222.132293
 30
0.0
 10
241.253785
 20
222.253612
 30
0.0
  0
LWPOLYLINE
  5
253
100
AcDbEntity
  8
Layer_1
 62
7
100
AcDbPolyline
 90
7
 70
0
 10
241.346654
 20
222.132293
 30
0.0
 10
258.868949
 20
222.132293
 30
0.0
 10
258.450908
 20
225.308674
 30
0.0
 10
256.452774
 20
230.132293
 30
0.0
 10
253.274599
 20
234.274430
 30
0.0
 10
249.132283
 20
237.452800
 30
0.0
 10
244.308664
 20
239.450809
 30
0.0
  0
LWPOLYLINE
  5
254
100
AcDbEntity
  8
Layer_1
 62
7
100
AcDbPolyline
 90
2
 70
0
 10
17.132261
 20
295.132290
 30
0.0
 10
178.132170
 20
295.132290
 30
0.0
  0
LWPOLYLINE
  5
255
100
AcDbEntity
  8
Layer_1
 62
7
100
AcDbPolyline
 90
2
 70
0
 10
5.132269
 20
423.132291
 30
0.0
 10
5.132269
 20
307.132282
 30
0.0
  0
LWPOLYLINE
  5
256
100
AcDbEntity
  8
Layer_1
 62
7
100
AcDbPolyline
 90
2
 70
0
 10
178.132170
 20
435.132291
 30
0.0
 10
17.132261
 20
435.132291
 30
0.0
  0
LWPOLYLINE
  5
257
100
AcDbEntity
  8
Layer_1
 62
7
100
AcDbPolyline
 90
2
 70
0
 10
190.132347
 20
307.132282
 30
0.0
 10
190.132347
 20
423.132291
 30
0.0
  0
LWPOLYLINE
  5
258
100
AcDbEntity
  8
Layer_1
 62
7
100
AcDbPolyline
 90
13
 70
0
 10
17.132261
 20
295.132290
 30
0.0
 10
15.565954
 20
295.234948
 30
0.0
 10
14.026423
 20
295.541177
 30
0.0
 10
12.540073
 20
296.045737
 30
0.0
 10
11.132252
 20
296.739977
 30
0.0
 10
9.827115
 20
297.612044
 30
0.0
 10
8.646968
 20
298.647015
 30
0.0
 10
7.612023
 20
299.827162
 30
0.0
 10
6.739957
 20
301.132299
 30
0.0
 10
6.045717
 20
302.540094
 30
0.0
 10
5.541156
 20
304.026470
 30
0.0
 10
5.234927
 20
305.565975
 30
0.0
 10
5.132269
 20
307.132282
 30
0.0
  0
LWPOLYLINE
  5
259
100
AcDbEntity
  8
Layer_1
 62
7
100
AcDbPolyline
 90
13
 70
0
 10
17.132261
 20
435.132291
 30
0.0
 10
15.565954
 20
435.029630
 30
0.0
 10
14.026423
 20
434.723401
 30
0.0
 10
12.540073
 20
434.218846
 30
0.0
 10
11.132252
 20
433.524596
 30
0.0
 10
9.827115
 20
432.652531
 30
0.0
 10
8.646968
 20
431.617574
 30
0.0
 10
7.612023
 20
430.437429
 30
0.0
 10
6.739957
 20
429.132293
 30
0.0
 10
6.045717
 20
427.724492
 30
0.0
 10
5.541156
 20
426.238121
 30
0.0
 10
5.234927
 20
424.698606
 30
0.0
 10
5.132269
 20
423.132291
 30
0.0
  0
LWPOLYLINE
  5
25a
100
AcDbEntity
  8
Layer_1
 62
7
100
AcDbPolyline
 90
13
 70
0
 10
178.132170
 20
435.132291
 30
0.0
 10
179.698503
 20
435.029630
 30
0.0
 10
181.238113
 20
434.723401
 30
0.0
 10
182.724543
 20
434.218846
 30
0.0
 10
184.132390
 20
433.524596
 30
0.0
 10
185.437315
 20
432.652531
 30
0.0
 10
186.617622
 20
431.617574
 30
0.0
 10
187.652407
 20
430.437429
 30
0.0
 10
188.524474
 20
429.132293
 30
0.0
 10
189.218740
 20
427.724492
 30
0.0
 10
189.723301
 20
426.238121
 30
0.0
 10
190.029688
 20
424.698606
 30
0.0
 10
190.132347
 20
423.132291
 30
0.0
  0
LWPOLYLINE
  5
25b
100
AcDbEntity
  8
Layer_1
 62
7
100
AcDbPolyline
 90
13
 70
0
 10
178.132170
 20
295.132290
 30
0.0
 10
179.698503
 20
295.234948
 30
0.0
 10
181.238113
 20
295.541177
 30
0.0
 10
182.724543
 20
296.045737
 30
0.0
 10
184.132390
 20
296.739977
 30
0.0
 10
185.437315
 20
297.612044
 30
0.0
 10
186.617622
 20
298.647015
 30
0.0
 10
187.652407
 20
299.827162
 30
0.0
 10
188.524474
 20
301.132299
 30
0.0
 10
189.218740
 20
302.540094
 30
0.0
 10
189.723301
 20
304.026470
 30
0.0
 10
190.029688
 20
305.565975
 30
0.0
 10
190.132347
 20
307.132282
 30
0.0
  0
LWPOLYLINE
  5
25c
100
AcDbEntity
  8
Layer_1
 62
7
100
AcDbPolyline
 90
24
 70
1
 10
178.132170
 20
426.132293
 30
0.0
 10
178.908722
 20
426.030069
 30
0.0
 10
179.632357
 20
425.730367
 30
0.0
 10
180.253599
 20
425.253612
 30
0.0
 10
180.730378
 20
424.632291
 30
0.0
 10
181.030151
 20
423.908748
 30
0.0
 10
181.132280
 20
423.132291
 30
0.0
 10
181.030151
 20
422.355835
 30
0.0
 10
180.730378
 20
421.632292
 30
0.0
 10
180.253599
 20
421.010971
 30
0.0
 10
179.632357
 20
420.534215
 30
0.0
 10
178.908722
 20
420.234514
 30
0.0
 10
178.132170
 20
420.132292
 30
0.0
 10
177.355882
 20
420.234514
 30
0.0
 10
176.632247
 20
420.534215
 30
0.0
 10
176.011005
 20
421.010971
 30
0.0
 10
175.534226
 20
421.632292
 30
0.0
 10
175.234453
 20
422.355835
 30
0.0
 10
175.132324
 20
423.132291
 30
0.0
 10
175.234453
 20
423.908748
 30
0.0
 10
175.534226
 20
424.632291
 30
0.0
 10
176.011005
 20
425.253612
 30
0.0
 10
176.632247
 20
425.730367
 30
0.0
 10
177.355882
 20
426.030069
 30
0.0
  0
LWPOLYLINE
  5
25d
100
AcDbEntity
  8
Layer_1
 62
7
100
AcDbPolyline
 90
24
 70
1
 10
176.632247
 20
309.730358
 30
0.0
 10
177.355882
 20
310.030078
 30
0.0
 10
178.132170
 20
310.132286
 30
0.0
 10
178.908722
 20
310.030078
 30
0.0
 10
179.632357
 20
309.730358
 30
0.0
 10
180.253599
 20
309.253605
 30
0.0
 10
180.730378
 20
308.632284
 30
0.0
 10
181.030151
 20
307.908754
 30
0.0
 10
181.132280
 20
307.132282
 30
0.0
 10
181.030151
 20
306.355835
 30
0.0
 10
180.730378
 20
305.632306
 30
0.0
 10
180.253599
 20
305.010985
 30
0.0
 10
179.632357
 20
304.534206
 30
0.0
 10
178.908722
 20
304.234512
 30
0.0
 10
178.132170
 20
304.132303
 30
0.0
 10
177.355882
 20
304.234512
 30
0.0
 10
176.632247
 20
304.534206
 30
0.0
 10
176.011005
 20
305.010985
 30
0.0
 10
175.534226
 20
305.632306
 30
0.0
 10
175.234453
 20
306.355835
 30
0.0
 10
175.132324
 20
307.132282
 30
0.0
 10
175.234453
 20
307.908754
 30
0.0
 10
175.534226
 20
308.632284
 30
0.0
 10
176.011005
 20
309.253605
 30
0.0
  0
LWPOLYLINE
  5
25e
100
AcDbEntity
  8
Layer_1
 62
7
100
AcDbPolyline
 90
24
 70
1
 10
14.132256
 20
307.132282
 30
0.0
 10
14.234491
 20
307.908754
 30
0.0
 10
14.534185
 20
308.632284
 30
0.0
 10
15.010938
 20
309.253605
 30
0.0
 10
15.632259
 20
309.730358
 30
0.0
 10
16.355815
 20
310.030078
 30
0.0
 10
17.132261
 20
310.132286
 30
0.0
 10
17.908707
 20
310.030078
 30
0.0
 10
18.632263
 20
309.730358
 30
0.0
 10
19.253584
 20
309.253605
 30
0.0
 10
19.730337
 20
308.632284
 30
0.0
 10
20.030030
 20
307.908754
 30
0.0
 10
20.132265
 20
307.132282
 30
0.0
 10
20.030030
 20
306.355835
 30
0.0
 10
19.730337
 20
305.632306
 30
0.0
 10
19.253584
 20
305.010985
 30
0.0
 10
18.632263
 20
304.534206
 30
0.0
 10
17.908707
 20
304.234512
 30
0.0
 10
17.132261
 20
304.132303
 30
0.0
 10
16.355815
 20
304.234512
 30
0.0
 10
15.632259
 20
304.534206
 30
0.0
 10
15.010938
 20
305.010985
 30
0.0
 10
14.534185
 20
305.632306
 30
0.0
 10
14.234491
 20
306.355835
 30
0.0
  0
LWPOLYLINE
  5
25f
100
AcDbEntity
  8
Layer_1
 62
7
100
AcDbPolyline
 90
24
 70
1
 10
20.030030
 20
422.355835
 30
0.0
 10
19.730337
 20
421.632292
 30
0.0
 10
19.253584
 20
421.010971
 30
0.0
 10
18.632263
 20
420.534215
 30
0.0
 10
17.908707
 20
420.234514
 30
0.0
 10
17.132261
 20
420.132292
 30
0.0
 10
16.355815
 20
420.234514
 30
0.0
 10
15.632259
 20
420.534215
 30
0.0
 10
15.010938
 20
421.010971
 30
0.0
 10
14.534185
 20
421.632292
 30
0.0
 10
14.234491
 20
422.355835
 30
0.0
 10
14.132256
 20
423.132291
 30
0.0
 10
14.234491
 20
423.908748
 30
0.0
 10
14.534185
 20
424.632291
 30
0.0
 10
15.010938
 20
425.253612
 30
0.0
 10
15.632259
 20
425.730367
 30
0.0
 10
16.355815
 20
426.030069
 30
0.0
 10
17.132261
 20
426.132293
 30
0.0
 10
17.908707
 20
426.030069
 30
0.0
 10
18.632263
 20
425.730367
 30
0.0
 10
19.253584
 20
425.253612
 30
0.0
 10
19.730337
 20
424.632291
 30
0.0
 10
20.030030
 20
423.908748
 30
0.0
 10
20.132265
 20
423.132291
 30
0.0
  0
LWPOLYLINE
  5
260
100
AcDbEntity
  8
Layer_1
 62
7
100
AcDbPolyline
 90
2
 70
0
 10
212.132261
 20
295.132290
 30
0.0
 10
373.132170
 20
295.132290
 30
0.0
  0
LWPOLYLINE
  5
261
100
AcDbEntity
  8
Layer_1
 62
7
100
AcDbPolyline
 90
2
 70
0
 10
200.132269
 20
423.132291
 30
0.0
 10
200.132269
 20
307.132282
 30
0.0
  0
LWPOLYLINE
  5
262
100
AcDbEntity
  8
Layer_1
 62
7
100
AcDbPolyline
 90
2
 70
0
 10
373.132170
 20
435.132291
 30
0.0
 10
212.132261
 20
435.132291
 30
0.0
  0
LWPOLYLINE
  5
263
100
AcDbEntity
  8
Layer_1
 62
7
100
AcDbPolyline
 90
2
 70
0
 10
385.132347
 20
307.132282
 30
0.0
 10
385.132347
 20
423.132291
 30
0.0
  0
LWPOLYLINE
  5
264
100
AcDbEntity
  8
Layer_1
 62
7
100
AcDbPolyline
 90
13
 70
0
 10
212.132261
 20
295.132290
 30
0.0
 10
210.565954
 20
295.234948
 30
0.0
 10
209.026423
 20
295.541177
 30
0.0
 10
207.540073
 20
296.045737
 30
0.0
 10
206.132252
 20
296.739977
 30
0.0
 10
204.827115
 20
297.612044
 30
0.0
 10
203.646968
 20
298.647015
 30
0.0
 10
202.612023
 20
299.827162
 30
0.0
 10
201.739957
 20
301.132299
 30
0.0
 10
201.045717
 20
302.540094
 30
0.0
 10
200.541156
 20
304.026470
 30
0.0
 10
200.234927
 20
305.565975
 30
0.0
 10
200.132269
 20
307.132282
 30
0.0
  0
LWPOLYLINE
  5
265
100
AcDbEntity
  8
Layer_1
 62
7
100
AcDbPolyline
 90
13
 70
0
 10
212.132261
 20
435.132291
 30
0.0
 10
210.565954
 20
435.029630
 30
0.0
 10
209.026423
 20
434.723401
 30
0.0
 10
207.540073
 20
434.218846
 30
0.0
 10
206.132252
 20
433.524596
 30
0.0
 10
204.827115
 20
432.652531
 30
0.0
 10
203.646968
 20
431.617574
 30
0.0
 10
202.612023
 20
430.437429
 30
0.0
 10
201.739957
 20
429.132293
 30
0.0
 10
201.045717
 20
427.724492
 30
0.0
 10
200.541156
 20
426.238121
 30
0.0
 10
200.234927
 20
424.698606
 30
0.0
 10
200.132269
 20
423.132291
 30
0.0
  0
LWPOLYLINE
  5
266
100
AcDbEntity
  8
Layer_1
 62
7
100
AcDbPolyline
 90
13
 70
0
 10
373.132170
 20
435.132291
 30
0.0
 10
374.698503
 20
435.029630
 30
0.0
 10
376.238113
 20
434.723401
 30
0.0
 10
377.724543
 20
434.218846
 30
0.0
 10
379.132390
 20
433.524596
 30
0.0
 10
380.437315
 20
432.652531
 30
0.0
 10
381.617622
 20
431.617574
 30
0.0
 10
382.652407
 20
430.437429
 30
0.0
 10
383.524474
 20
429.132293
 30
0.0
 10
384.218740
 20
427.724492
 30
0.0
 10
384.723301
 20
426.238121
 30
0.0
 10
385.029688
 20
424.698606
 30
0.0
 10
385.132347
 20
423.132291
 30
0.0
  0
LWPOLYLINE
  5
267
100
AcDbEntity
  8
Layer_1
 62
7
100
AcDbPolyline
 90
13
 70
0
 10
373.132170
 20
295.132290
 30
0.0
 10
374.698503
 20
295.234948
 30
0.0
 10
376.238113
 20
295.541177
 30
0.0
 10
377.724543
 20
296.045737
 30
0.0
 10
379.132390
 20
296.739977
 30
0.0
 10
380.437315
 20
297.612044
 30
0.0
 10
381.617622
 20
298.647015
 30
0.0
 10
382.652407
 20
299.827162
 30
0.0
 10
383.524474
 20
301.132299
 30
0.0
 10
384.218740
 20
302.540094
 30
0.0
 10
384.723301
 20
304.026470
 30
0.0
 10
385.029688
 20
305.565975
 30
0.0
 10
385.132347
 20
307.132282
 30
0.0
  0
LWPOLYLINE
  5
268
100
AcDbEntity
  8
Layer_1
 62
7
100
AcDbPolyline
 90
24
 70
1
 10
373.132170
 20
426.132293
 30
0.0
 10
373.908722
 20
426.030069
 30
0.0
 10
374.632357
 20
425.730367
 30
0.0
 10
375.253599
 20
425.253612
 30
0.0
 10
375.730378
 20
424.632291
 30
0.0
 10
376.030151
 20
423.908748
 30
0.0
 10
376.132280
 20
423.132291
 30
0.0
 10
376.030151
 20
422.355835
 30
0.0
 10
375.730378
 20
421.632292
 30
0.0
 10
375.253599
 20
421.010971
 30
0.0
 10
374.632357
 20
420.534215
 30
0.0
 10
373.908722
 20
420.234514
 30
0.0
 10
373.132170
 20
420.132292
 30
0.0
 10
372.355882
 20
420.234514
 30
0.0
 10
371.632247
 20
420.534215
 30
0.0
 10
371.011005
 20
421.010971
 30
0.0
 10
370.534226
 20
421.632292
 30
0.0
 10
370.234453
 20
422.355835
 30
0.0
 10
370.132324
 20
423.132291
 30
0.0
 10
370.234453
 20
423.908748
 30
0.0
 10
370.534226
 20
424.632291
 30
0.0
 10
371.011005
 20
425.253612
 30
0.0
 10
371.632247
 20
425.730367
 30
0.0
 10
372.355882
 20
426.030069
 30
0.0
  0
LWPOLYLINE
  5
269
100
AcDbEntity
  8
Layer_1
 62
7
100
AcDbPolyline
 90
24
 70
1
 10
371.632247
 20
309.730358
 30
0.0
 10
372.355882
 20
310.030078
 30
0.0
 10
373.132170
 20
310.132286
 30
0.0
 10
373.908722
 20
310.030078
 30
0.0
 10
374.632357
 20
309.730358
 30
0.0
 10
375.253599
 20
309.253605
 30
0.0
 10
375.730378
 20
308.632284
 30
0.0
 10
376.030151
 20
307.908754
 30
0.0
 10
376.132280
 20
307.132282
 30
0.0
 10
376.030151
 20
306.355835
 30
0.0
 10
375.730378
 20
305.632306
 30
0.0
 10
375.253599
 20
305.010985
 30
0.0
 10
374.632357
 20
304.534206
 30
0.0
 10
373.908722
 20
304.234512
 30
0.0
 10
373.132170
 20
304.132303
 30
0.0
 10
372.355882
 20
304.234512
 30
0.0
 10
371.632247
 20
304.534206
 30
0.0
 10
371.011005
 20
305.010985
 30
0.0
 10
370.534226
 20
305.632306
 30
0.0
 10
370.234453
 20
306.355835
 30
0.0
 10
370.132324
 20
307.132282
 30
0.0
 10
370.234453
 20
307.908754
 30
0.0
 10
370.534226
 20
308.632284
 30
0.0
 10
371.011005
 20
309.253605
 30
0.0
  0
LWPOLYLINE
  5
26a
100
AcDbEntity
  8
Layer_1
 62
7
100
AcDbPolyline
 90
24
 70
1
 10
209.132256
 20
307.132282
 30
0.0
 10
209.234491
 20
307.908754
 30
0.0
 10
209.534185
 20
308.632284
 30
0.0
 10
210.010938
 20
309.253605
 30
0.0
 10
210.632259
 20
309.730358
 30
0.0
 10
211.355815
 20
310.030078
 30
0.0
 10
212.132261
 20
310.132286
 30
0.0
 10
212.908707
 20
310.030078
 30
0.0
 10
213.632263
 20
309.730358
 30
0.0
 10
214.253584
 20
309.253605
 30
0.0
 10
214.730337
 20
308.632284
 30
0.0
 10
215.030030
 20
307.908754
 30
0.0
 10
215.132265
 20
307.132282
 30
0.0
 10
215.030030
 20
306.355835
 30
0.0
 10
214.730337
 20
305.632306
 30
0.0
 10
214.253584
 20
305.010985
 30
0.0
 10
213.632263
 20
304.534206
 30
0.0
 10
212.908707
 20
304.234512
 30
0.0
 10
212.132261
 20
304.132303
 30
0.0
 10
211.355815
 20
304.234512
 30
0.0
 10
210.632259
 20
304.534206
 30
0.0
 10
210.010938
 20
305.010985
 30
0.0
 10
209.534185
 20
305.632306
 30
0.0
 10
209.234491
 20
306.355835
 30
0.0
  0
LWPOLYLINE
  5
26b
100
AcDbEntity
  8
Layer_1
 62
7
100
AcDbPolyline
 90
24
 70
1
 10
215.030030
 20
422.355835
 30
0.0
 10
214.730337
 20
421.632292
 30
0.0
 10
214.253584
 20
421.010971
 30
0.0
 10
213.632263
 20
420.534215
 30
0.0
 10
212.908707
 20
420.234514
 30
0.0
 10
212.132261
 20
420.132292
 30
0.0
 10
211.355815
 20
420.234514
 30
0.0
 10
210.632259
 20
420.534215
 30
0.0
 10
210.010938
 20
421.010971
 30
0.0
 10
209.534185
 20
421.632292
 30
0.0
 10
209.234491
 20
422.355835
 30
0.0
 10
209.132256
 20
423.132291
 30
0.0
 10
209.234491
 20
423.908748
 30
0.0
 10
209.534185
 20
424.632291
 30
0.0
 10
210.010938
 20
425.253612
 30
0.0
 10
210.632259
 20
425.730367
 30
0.0
 10
211.355815
 20
426.030069
 30
0.0
 10
212.132261
 20
426.132293
 30
0.0
 10
212.908707
 20
426.030069
 30
0.0
 10
213.632263
 20
425.730367
 30
0.0
 10
214.253584
 20
425.253612
 30
0.0
 10
214.730337
 20
424.632291
 30
0.0
 10
215.030030
 20
423.908748
 30
0.0
 10
215.132265
 20
423.132291
 30
0.0
  0
ENDSEC
  0
SECTION
  2
OBJECTS
  0
DICTIONARY
  5
C
330
0
100
AcDbDictionary
  3
ACAD_GROUP
350
D
  3
ACAD_MLINESTYLE
350
17
  0
DICTIONARY
  5
D
330
C
100
AcDbDictionary
  0
DICTIONARY
  5
1A
330
C
100
AcDbDictionary
  0
DICTIONARY
  5
17
330
C
100
AcDbDictionary
  3
STANDARD
350
18
  0
DICTIONARY
  5
19
330
C
100
AcDbDictionary
  0
ENDSEC
  0
EOF
