<?xml version="1.0" encoding="UTF-8" standalone="no"?>
<!-- Created with Inkscape (http://www.inkscape.org/) -->

<svg
   xmlns:dc="http://purl.org/dc/elements/1.1/"
   xmlns:cc="http://creativecommons.org/ns#"
   xmlns:rdf="http://www.w3.org/1999/02/22-rdf-syntax-ns#"
   xmlns:svg="http://www.w3.org/2000/svg"
   xmlns="http://www.w3.org/2000/svg"
   xmlns:sodipodi="http://sodipodi.sourceforge.net/DTD/sodipodi-0.dtd"
   xmlns:inkscape="http://www.inkscape.org/namespaces/inkscape"
   width="210mm"
   height="297mm"
   viewBox="0 0 210 297"
   version="1.1"
   id="svg8928"
   inkscape:version="0.92.2 5c3e80d, 2017-08-06"
   sodipodi:docname="bird.svg">
  <defs
     id="defs8922">
    <style
       id="style2486"
       type="text/css" />
  </defs>
  <sodipodi:namedview
     id="base"
     pagecolor="#ffffff"
     bordercolor="#666666"
     borderopacity="1.0"
     inkscape:pageopacity="0.0"
     inkscape:pageshadow="2"
     inkscape:zoom="1"
     inkscape:cx="149.02384"
     inkscape:cy="470.08179"
     inkscape:document-units="mm"
     inkscape:current-layer="g9807"
     showgrid="false"
     inkscape:window-width="1680"
     inkscape:window-height="962"
     inkscape:window-x="256"
     inkscape:window-y="119"
     inkscape:window-maximized="0" />
  <metadata
     id="metadata8925">
    <rdf:RDF>
      <cc:Work
         rdf:about="">
        <dc:format>image/svg+xml</dc:format>
        <dc:type
           rdf:resource="http://purl.org/dc/dcmitype/StillImage" />
        <dc:title></dc:title>
      </cc:Work>
    </rdf:RDF>
  </metadata>
  <g
     inkscape:label="Layer 1"
     inkscape:groupmode="layer"
     id="layer1">
    <g
       style="fill-rule:evenodd"
       id="g9807"
       transform="matrix(0.66287878,0,0,0.66287878,26.460056,19.950696)">
      <g
         id="Layer_x0020_1"
         transform="matrix(1.1025,0,0,1.1025,59.400475,-14.370858)">
        <path
           style="fill:none;stroke:#1f1a17;stroke-width:0.2;stroke-linecap:round;stroke-linejoin:round"
           id="path2498"
           d="m -20.5156,192.701 c 0.4701,-1.1153 1.1873,-2.9266 1.6053,-4.3561 0.4179,-1.4295 0.5373,-2.4779 0.5895,-3.2785 0.0526,-0.8009 0.0372,-1.3551 0.2835,-2.0734 0.2467,-0.7187 0.7543,-1.6019 1.247,-2.9713 0.4926,-1.3698 0.9706,-3.2266 1.1944,-4.364 0.2242,-1.1377 0.1942,-1.5571 0.0301,-1.7441 -0.1641,-0.1874 -0.463,-0.142 -0.7615,-0.0973 0.1194,-0.4491 0.2388,-0.8985 0.2613,-1.2425 0.0225,-0.3443 -0.0526,-0.5843 -0.3807,-0.4344 -0.3286,0.1498 -0.911,0.689 -1.4783,1.3848 -0.5674,0.6961 -1.1198,1.5496 -1.5527,2.3055 -0.433,0.7559 -0.7469,1.4149 -1.0604,2.0735 0.4329,-1.2125 0.8663,-2.4253 1.232,-3.4283 0.3657,-1.0029 0.6646,-1.7963 0.7393,-2.2976 0.0748,-0.5017 -0.0751,-0.7116 -0.5302,-0.4945 -0.4554,0.217 -1.2169,0.861 -1.9112,1.7516 -0.6943,0.8907 -1.3214,2.0284 -1.7543,2.8144 -0.433,0.7859 -0.6721,1.2203 -0.911,1.6544 0.2389,-1.033 0.478,-2.066 0.7465,-3.0539 0.2689,-0.9879 0.5674,-1.9315 0.5599,-2.4178 -0.0075,-0.4863 -0.3211,-0.5167 -0.8434,-0.1051 -0.5227,0.4119 -1.2545,1.2654 -1.9187,2.1857 -0.6643,0.9207 -1.2621,1.909 -1.7397,2.8669 -0.4776,0.9579 -0.8362,1.8865 -1.1944,2.8143 0.1194,-1.0326 0.2391,-2.066 0.306,-2.8965 0.0672,-0.8306 0.0826,-1.46 -0.0443,-1.7667 -0.1269,-0.3068 -0.3962,-0.2918 -0.9632,0.1723 -0.5673,0.4641 -1.4336,1.3773 -2.0081,2.2755 -0.5749,0.8982 -0.8591,1.7813 -1.1426,2.6645 -0.433,-0.0147 -0.8659,-0.03 -1.4032,0.2471 -0.5377,0.2771 -1.1798,0.8459 -1.6349,1.422 -0.4555,0.5763 -0.7247,1.1606 -0.9932,1.7441 -0.5674,0.1945 -1.1347,0.3894 -1.5527,0.831 -0.4183,0.4416 -0.6871,1.1302 -0.956,1.8189 -0.4479,0.1494 -0.8959,0.2996 -1.4558,0.6886 -0.5598,0.389 -1.2319,1.018 -1.7918,1.4596 -0.5599,0.4415 -1.0078,0.6961 -1.4629,0.7558 -0.4555,0.0601 -0.9189,-0.0747 -1.404,-0.1047 -0.4851,-0.0301 -0.9928,0.045 -1.3285,0.2395 -0.336,0.1945 -0.5005,0.5092 -0.6646,0.8235 -0.6271,-0.1198 -1.2541,-0.2396 -1.7543,-0.1649 -0.5002,0.0748 -0.8734,0.3447 -1.2466,0.614 -0.3883,-0.0447 -0.7766,-0.0901 -1.1945,0.0672 -0.4183,0.1573 -0.8662,0.5167 -1.3142,0.876 -0.448,0.0447 -0.8959,0.0897 -1.2617,0.2242 -0.3657,0.1348 -0.6496,0.3597 -0.9331,0.5842 -0.4029,-0.0597 -0.8065,-0.1201 -1.2616,0.0147 -0.4555,0.1348 -0.9631,0.4641 -1.4708,0.7934 -0.4626,-0.0146 -0.926,-0.03 -1.2692,0.1198 -0.3432,0.1498 -0.5677,0.4641 -0.7915,0.7784 -0.4927,0 -0.9853,0 -1.3732,0.172 -0.3883,0.1723 -0.6725,0.5166 -0.956,0.861 -0.612,0.0597 -1.2245,0.1201 -1.6499,0.3368 -0.4254,0.217 -0.6643,0.5918 -0.9031,0.9657 -0.5227,0.0447 -1.0453,0.0902 -1.4482,0.3068 -0.4033,0.2171 -0.6872,0.6064 -0.9707,0.9955 -0.6421,0.0747 -1.2842,0.1498 -1.6274,0.4265 -0.3435,0.2771 -0.3886,0.7563 -0.4333,1.2354 -0.4329,0.1047 -0.8659,0.2095 -1.1494,0.5088 -0.2838,0.2992 -0.4183,0.7938 -0.5527,1.2875 -0.3732,0.0297 -0.7465,0.0601 -1.0375,0.3068 -0.291,0.2471 -0.5005,0.7112 -0.7093,1.1753 -0.5227,0.2245 -1.0454,0.4491 -1.3067,0.7934 -0.2613,0.3443 -0.2613,0.8085 -0.2613,1.2726 -0.3432,-0.0447 -0.6868,-0.0902 -0.9778,0.2166 -0.291,0.3072 -0.5302,0.9658 -0.769,1.6244 -0.2986,-0.8381 -0.5974,-1.6766 -1.3289,-2.8815 -0.7315,-1.205 -1.8966,-2.7772 -2.725,-3.8398 -0.8287,-1.063 -1.3213,-1.6169 -1.7317,-1.9984 -0.4108,-0.3819 -0.7394,-0.5918 -1.0751,-0.5993 -0.336,-0.007 -0.68,0.1874 -0.9635,0.2246 -0.2835,0.0375 -0.5076,-0.0823 -0.8583,-0.2918 -0.3508,-0.2095 -0.8288,-0.5091 -1.3289,-0.6961 -0.5002,-0.187 -1.0229,-0.2621 -1.3811,-0.1127 -0.3582,0.1498 -0.5527,0.5246 -0.7465,0.8986 -0.4329,-0.0597 -0.8662,-0.1198 -1.2395,-0.0451 -0.3732,0.0751 -0.6867,0.2846 -0.7464,0.7262 -0.0597,0.4416 0.1344,1.1156 0.2313,1.7367 0.0972,0.6214 0.0972,1.1903 0.0972,1.7591 -0.2835,0 -0.5677,0 -0.8734,0.187 -0.306,0.187 -0.6349,0.5618 -0.7093,1.1303 -0.0747,0.5688 0.1044,1.3322 0.7912,2.3648 0.6868,1.033 1.8816,2.336 2.904,3.3535 1.0229,1.018 1.8741,1.7521 2.725,2.4854 -0.4927,-0.2395 -0.9853,-0.4791 -1.3657,-0.4791 -0.3807,0 -0.65,0.2396 -0.9184,0.4791 -0.5674,-0.2395 -1.1351,-0.4791 -1.5531,-0.4494 -0.4179,0.03 -0.6871,0.3296 -0.9556,0.6289 -0.5373,-0.1048 -1.075,-0.2095 -1.4629,-0.0826 -0.3883,0.1273 -0.6275,0.487 -0.8663,0.846 -0.5824,-0.0447 -1.1648,-0.0901 -1.5004,0.0672 -0.3361,0.1573 -0.4259,0.5167 -0.5152,0.876 -0.4927,-0.0747 -0.9857,-0.1498 -1.3961,0.0823 -0.4104,0.232 -0.7393,0.7712 -1.0675,1.31 -0.4777,-0.0446 -0.956,-0.0901 -1.3067,0.1119 -0.3507,0.2024 -0.5749,0.6515 -0.7987,1.1006 -0.6421,0.0297 -1.2842,0.0601 -1.6499,0.3293 -0.3658,0.2692 -0.4559,0.7788 -0.5452,1.2876 -0.5524,0.0146 -1.1047,0.03 -1.3882,0.2842 -0.2839,0.2542 -0.2989,0.7488 -0.3139,1.2425 -0.4777,0.0748 -0.9557,0.1499 -1.2166,0.4266 -0.2614,0.2771 -0.3064,0.7562 -0.3215,1.1081 -0.015,0.3518 4e-4,0.5764 0.0151,0.8009 -0.418,0.0146 -0.8363,0.03 -1.1273,0.2392 -0.291,0.2095 -0.4554,0.6143 -0.6195,1.0183 -0.418,0.0898 -0.8363,0.1795 -1.06,0.4487 -0.2238,0.2696 -0.2543,0.7187 -0.2839,1.1678 -0.4927,0.2396 -0.9857,0.4791 -1.2095,0.8456 -0.2242,0.3669 -0.1791,0.8614 -0.1344,1.3552 -0.3879,0.0747 -0.7765,0.1498 -1.1272,0.404 -0.3507,0.2546 -0.6643,0.689 -0.9778,1.1231 -0.7465,0.2843 -1.4934,0.5689 -2.0382,0.8531 -0.5448,0.2843 -0.8888,0.5689 -1.232,0.8531 -0.5523,-0.0747 -1.1051,-0.1498 -1.6424,-0.0901 -0.5373,0.0601 -1.0604,0.255 -1.4483,0.5167 -0.3882,0.2621 -0.6421,0.5918 -0.8959,0.9211 -0.8062,-0.015 -1.6127,-0.0301 -2.3066,0.0969 -0.6943,0.1273 -1.2771,0.3972 -1.6053,0.7187 -0.3285,0.3218 -0.4032,0.6965 -0.478,1.0705 -1.1347,-0.1198 -2.2694,-0.2396 -3.1503,-0.2846 -0.881,-0.0451 -1.508,-0.0147 -2.0303,0.0822 -0.5227,0.0972 -0.941,0.2625 -1.3961,0.4419 -0.4555,0.1795 -0.9485,0.3744 -0.8813,0.6136 0.0672,0.2396 0.6943,0.5242 1.8587,0.7634 1.1648,0.2395 2.8673,0.4344 4.5694,0.6289 -2.1201,-0.0447 -4.2409,-0.0901 -5.8829,0.007 -1.6424,0.0976 -2.8075,0.3372 -3.6881,0.6064 -0.8809,0.2696 -1.4783,0.5692 -1.6499,0.8159 -0.1716,0.2471 0.0823,0.442 0.9406,0.6064 0.8584,0.1645 2.3221,0.2997 3.2548,0.4116 0.9331,0.1123 1.3367,0.2024 1.7397,0.2921 -1.1348,0.0747 -2.2695,0.1498 -3.6281,0.374 -1.3589,0.2246 -2.9416,0.5993 -3.7924,0.8835 -0.8513,0.2843 -0.9711,0.4792 -0.6876,0.6211 0.2839,0.1423 0.9711,0.2324 1.71,0.3222 0.739,0.0897 1.5305,0.1795 2.3217,0.2692 -1.2091,0.1198 -2.4189,0.2396 -3.2623,0.389 -0.8433,0.1498 -1.3217,0.3297 -1.3217,0.5467 0,0.2171 0.4784,0.4717 1.0979,0.6136 0.6196,0.1423 1.3811,0.1727 2.1426,0.2024 -0.3582,0.1795 -0.7168,0.3593 -0.739,0.5538 -0.0225,0.1945 0.291,0.4044 1.2688,0.7634 0.9782,0.3594 2.6206,0.8685 4.1286,1.1528 1.5079,0.2842 2.8819,0.3447 4.1285,0.6586 1.2466,0.3143 2.3667,0.8835 3.9866,1.3698 1.6199,0.4862 3.7406,0.891 6.0623,0.9808 2.3217,0.0897 4.845,-0.1348 7.0623,-0.5614 2.2173,-0.4266 4.1285,-1.0559 5.7409,-1.4148 1.6127,-0.3594 2.9266,-0.4491 5.0169,-0.7334 2.0904,-0.2846 4.9573,-0.7637 6.6519,-1.4224 1.6946,-0.6586 2.2176,-1.497 3.0385,-2.8368 0.8212,-1.3398 1.9413,-3.1812 3.0159,-4.6332 1.0751,-1.452 2.1058,-2.5154 3.3449,-3.4733 1.2391,-0.9579 2.6874,-1.8114 4.1357,-2.4324 1.4483,-0.6211 2.8969,-1.0109 3.9569,-1.1378 1.06,-0.1273 1.7322,0.007 2.4336,0.3068 0.7018,0.2993 1.4336,0.7637 2.2544,1.3548 0.8212,0.591 1.7326,1.3101 2.419,1.9161 0.6867,0.6061 1.1501,1.1006 1.6574,1.4295 0.5077,0.3293 1.0604,0.4945 1.5827,0.8535 0.5227,0.3593 1.0157,0.9132 1.4336,1.392 0.4179,0.4791 0.7619,0.8839 0.9857,1.108 0.2238,0.2246 0.3285,0.2696 0.4029,0.1348 0.0747,-0.1348 0.1194,-0.4491 0.0747,-0.9503 -0.0447,-0.5017 -0.1795,-1.1903 -0.2839,-1.7964 -0.1043,-0.6064 -0.1791,-1.1306 -0.1791,-1.6544 0,-0.5238 0.0748,-1.048 0.0526,-1.5643 -0.0225,-0.5163 -0.1419,-1.0259 -0.3958,-1.5497 -0.2538,-0.5238 -0.6421,-1.063 -0.9256,-1.7663 -0.2838,-0.7037 -0.4633,-1.5722 -0.493,-2.4178 -0.03,-0.8456 0.0898,-1.6694 0.5524,-2.657 0.463,-0.9879 1.2695,-2.141 2.5011,-3.2037 1.2316,-1.0626 2.8894,-2.0363 4.7256,-2.9266 1.8365,-0.8906 3.8526,-1.6994 5.8382,-2.1782 1.9859,-0.4787 3.9419,-0.6289 5.4423,-0.7112 1.5005,-0.0822 2.5459,-0.0972 3.3892,-0.202 0.8438,-0.1047 1.4859,-0.2996 2.419,-1.033 0.9331,-0.7333 2.1579,-2.0062 3.2776,-3.3756 1.1198,-1.3698 2.1351,-2.8369 3.1129,-4.1691 0.9781,-1.3323 1.9187,-2.5305 2.9938,-3.7054 1.075,-1.1749 2.2845,-2.328 3.2547,-3.4729 0.9707,-1.1453 1.7029,-2.283 2.1805,-3.0614 0.4776,-0.7784 0.7018,-1.1978 1.1719,-2.313 z"
           inkscape:connector-curvature="0" />
        <path
           style="fill:#0a0b0c;stroke:#0a0b0c;stroke-width:0.18000001;stroke-linecap:round;stroke-linejoin:round"
           id="path2500"
           d="m -20.5156,192.701 c 0.4701,-1.1153 1.1873,-2.9266 1.6053,-4.3561 0.4179,-1.4295 0.5373,-2.4779 0.5895,-3.2785 0.0526,-0.8009 0.0372,-1.3551 0.2835,-2.0734 0.2467,-0.7187 0.7543,-1.6019 1.247,-2.9713 0.4926,-1.3698 0.9706,-3.2266 1.1944,-4.364 0.2242,-1.1377 0.1942,-1.5571 0.0301,-1.7441 -0.1641,-0.1874 -0.463,-0.142 -0.7615,-0.0973 0.1194,-0.4491 0.2388,-0.8985 0.2613,-1.2425 0.0225,-0.3443 -0.0526,-0.5843 -0.3807,-0.4344 -0.3286,0.1498 -0.911,0.689 -1.4783,1.3848 -0.5674,0.6961 -1.1198,1.5496 -1.5527,2.3055 -0.433,0.7559 -0.7469,1.4149 -1.0604,2.0735 l 1.232,-3.4283 c 0.3657,-1.0029 0.6646,-1.7963 0.7393,-2.2976 0.0748,-0.5017 -0.0751,-0.7116 -0.5302,-0.4945 -0.4554,0.217 -1.2169,0.861 -1.9112,1.7516 -0.6943,0.8907 -1.3214,2.0284 -1.7543,2.8144 l -0.911,1.6544 c 0.2389,-1.033 0.478,-2.066 0.7465,-3.0539 0.2689,-0.9879 0.5674,-1.9315 0.5599,-2.4178 -0.0075,-0.4863 -0.3211,-0.5167 -0.8434,-0.1051 -0.5227,0.4119 -1.2545,1.2654 -1.9187,2.1857 -0.6643,0.9207 -1.2621,1.909 -1.7397,2.8669 -0.4776,0.9579 -0.8362,1.8865 -1.1944,2.8143 0.1194,-1.0326 0.2391,-2.066 0.306,-2.8965 0.0672,-0.8306 0.0826,-1.46 -0.0443,-1.7667 -0.1269,-0.3068 -0.3962,-0.2918 -0.9632,0.1723 -0.5673,0.4641 -1.4336,1.3773 -2.0081,2.2755 -0.5749,0.8982 -0.8591,1.7813 -1.1426,2.6645 -0.433,-0.0147 -0.8659,-0.03 -1.4032,0.2471 -0.5377,0.2771 -1.1798,0.8459 -1.6349,1.422 -0.4555,0.5763 -0.7247,1.1606 -0.9932,1.7441 -0.5674,0.1945 -1.1347,0.3894 -1.5527,0.831 -0.4183,0.4416 -0.6871,1.1302 -0.956,1.8189 -0.4479,0.1494 -0.8959,0.2996 -1.4558,0.6886 -0.5598,0.389 -1.2319,1.018 -1.7918,1.4596 -0.5599,0.4415 -1.0078,0.6961 -1.4629,0.7558 -0.4555,0.0601 -0.9189,-0.0747 -1.404,-0.1047 -0.4851,-0.0301 -0.9928,0.045 -1.3285,0.2395 -0.336,0.1945 -0.5005,0.5092 -0.6646,0.8235 -0.6271,-0.1198 -1.2541,-0.2396 -1.7543,-0.1649 -0.5002,0.0748 -0.8734,0.3447 -1.2466,0.614 -0.3883,-0.0447 -0.7766,-0.0901 -1.1945,0.0672 -0.4183,0.1573 -0.8662,0.5167 -1.3142,0.876 -0.448,0.0447 -0.8959,0.0897 -1.2617,0.2242 -0.3657,0.1348 -0.6496,0.3597 -0.9331,0.5842 -0.4029,-0.0597 -0.8065,-0.1201 -1.2616,0.0147 -0.4555,0.1348 -0.9631,0.4641 -1.4708,0.7934 -0.4626,-0.0146 -0.926,-0.03 -1.2692,0.1198 -0.3432,0.1498 -0.5677,0.4641 -0.7915,0.7784 -0.4927,0 -0.9853,0 -1.3732,0.172 -0.3883,0.1723 -0.6725,0.5166 -0.956,0.861 -0.612,0.0597 -1.2245,0.1201 -1.6499,0.3368 -0.4254,0.217 -0.6643,0.5918 -0.9031,0.9657 -0.5227,0.0447 -1.0453,0.0902 -1.4482,0.3068 -0.4033,0.2171 -0.6872,0.6064 -0.9707,0.9955 -0.6421,0.0747 -1.2842,0.1498 -1.6274,0.4265 -0.3435,0.2771 -0.3886,0.7563 -0.4333,1.2354 -0.4329,0.1047 -0.8659,0.2095 -1.1494,0.5088 -0.2838,0.2992 -0.4183,0.7938 -0.5527,1.2875 -0.3732,0.0297 -0.7465,0.0601 -1.0375,0.3068 -0.291,0.2471 -0.5005,0.7112 -0.7093,1.1753 -0.5227,0.2245 -1.0454,0.4491 -1.3067,0.7934 -0.2613,0.3443 -0.2613,0.8085 -0.2613,1.2726 -0.3432,-0.0447 -0.6868,-0.0902 -0.9778,0.2166 -0.291,0.3072 -0.5302,0.9658 -0.769,1.6244 -0.2986,-0.8381 -0.5974,-1.6766 -1.3289,-2.8815 -0.7315,-1.205 -1.8966,-2.7772 -2.725,-3.8398 -0.8287,-1.063 -1.3213,-1.6169 -1.7317,-1.9984 -0.4108,-0.3819 -0.7394,-0.5918 -1.0751,-0.5993 -0.336,-0.007 -0.68,0.1874 -0.9635,0.2246 -0.2835,0.0375 -0.5076,-0.0823 -0.8583,-0.2918 -0.3508,-0.2095 -0.8288,-0.5091 -1.3289,-0.6961 -0.5002,-0.187 -1.0229,-0.2621 -1.3811,-0.1127 -0.3582,0.1498 -0.5527,0.5246 -0.7465,0.8986 -0.4329,-0.0597 -0.8662,-0.1198 -1.2395,-0.0451 -0.3732,0.0751 -0.6867,0.2846 -0.7464,0.7262 -0.0597,0.4416 0.1344,1.1156 0.2313,1.7367 0.0972,0.6214 0.0972,1.1903 0.0972,1.7591 -0.2835,0 -0.5677,0 -0.8734,0.187 -0.306,0.187 -0.6349,0.5618 -0.7093,1.1303 -0.0747,0.5688 0.1044,1.3322 0.7912,2.3648 0.6868,1.033 1.8816,2.336 2.904,3.3535 1.0229,1.018 1.8741,1.7521 2.725,2.4854 -0.4927,-0.2395 -0.9853,-0.4791 -1.3657,-0.4791 -0.3807,0 -0.65,0.2396 -0.9184,0.4791 -0.5674,-0.2395 -1.1351,-0.4791 -1.5531,-0.4494 -0.4179,0.03 -0.6871,0.3296 -0.9556,0.6289 -0.5373,-0.1048 -1.075,-0.2095 -1.4629,-0.0826 -0.3883,0.1273 -0.6275,0.487 -0.8663,0.846 -0.5824,-0.0447 -1.1648,-0.0901 -1.5004,0.0672 -0.3361,0.1573 -0.4259,0.5167 -0.5152,0.876 -0.4927,-0.0747 -0.9857,-0.1498 -1.3961,0.0823 -0.4104,0.232 -0.7393,0.7712 -1.0675,1.31 -0.4777,-0.0446 -0.956,-0.0901 -1.3067,0.1119 -0.3507,0.2024 -0.5749,0.6515 -0.7987,1.1006 -0.6421,0.0297 -1.2842,0.0601 -1.6499,0.3293 -0.3658,0.2692 -0.4559,0.7788 -0.5452,1.2876 -0.5524,0.0146 -1.1047,0.03 -1.3882,0.2842 -0.2839,0.2542 -0.2989,0.7488 -0.3139,1.2425 -0.4777,0.0748 -0.9557,0.1499 -1.2166,0.4266 -0.2614,0.2771 -0.3064,0.7562 -0.3215,1.1081 -0.015,0.3518 4e-4,0.5764 0.0151,0.8009 -0.418,0.0146 -0.8363,0.03 -1.1273,0.2392 -0.291,0.2095 -0.4554,0.6143 -0.6195,1.0183 -0.418,0.0898 -0.8363,0.1795 -1.06,0.4487 -0.2238,0.2696 -0.2543,0.7187 -0.2839,1.1678 -0.4927,0.2396 -0.9857,0.4791 -1.2095,0.8456 -0.2242,0.3669 -0.1791,0.8614 -0.1344,1.3552 -0.3879,0.0747 -0.7765,0.1498 -1.1272,0.404 -0.3507,0.2546 -0.6643,0.689 -0.9778,1.1231 -0.7465,0.2843 -1.4934,0.5689 -2.0382,0.8531 -0.5448,0.2843 -0.8888,0.5689 -1.232,0.8531 -0.5523,-0.0747 -1.1051,-0.1498 -1.6424,-0.0901 -0.5373,0.0601 -1.0604,0.255 -1.4483,0.5167 -0.3882,0.2621 -0.6421,0.5918 -0.8959,0.9211 -0.8062,-0.015 -1.6127,-0.0301 -2.3066,0.0969 -0.6943,0.1273 -1.2771,0.3972 -1.6053,0.7187 -0.3285,0.3218 -0.4032,0.6965 -0.478,1.0705 -1.1347,-0.1198 -2.2694,-0.2396 -3.1503,-0.2846 -0.881,-0.0451 -1.508,-0.0147 -2.0303,0.0822 -0.5227,0.0972 -0.941,0.2625 -1.3961,0.4419 -0.4555,0.1795 -0.9485,0.3744 -0.8813,0.6136 0.0672,0.2396 0.6943,0.5242 1.8587,0.7634 1.1648,0.2395 2.8673,0.4344 4.5694,0.6289 -2.1201,-0.0447 -4.2409,-0.0901 -5.8829,0.007 -1.6424,0.0976 -2.8075,0.3372 -3.6881,0.6064 -0.8809,0.2696 -1.4783,0.5692 -1.6499,0.8159 -0.1716,0.2471 0.0823,0.442 0.9406,0.6064 0.8584,0.1645 2.3221,0.2997 3.2548,0.4116 0.9331,0.1123 1.3367,0.2024 1.7397,0.2921 -1.1348,0.0747 -2.2695,0.1498 -3.6281,0.374 -1.3589,0.2246 -2.9416,0.5993 -3.7924,0.8835 -0.8513,0.2843 -0.9711,0.4792 -0.6876,0.6211 0.2839,0.1423 0.9711,0.2324 1.71,0.3222 l 2.3217,0.2692 c -1.2091,0.1198 -2.4189,0.2396 -3.2623,0.389 -0.8433,0.1498 -1.3217,0.3297 -1.3217,0.5467 0,0.2171 0.4784,0.4717 1.0979,0.6136 0.6196,0.1423 1.3811,0.1727 2.1426,0.2024 -0.3582,0.1795 -0.7168,0.3593 -0.739,0.5538 -0.0225,0.1945 0.291,0.4044 1.2688,0.7634 0.9782,0.3594 2.6206,0.8685 4.1286,1.1528 1.5079,0.2842 2.8819,0.3447 4.1285,0.6586 1.2466,0.3143 2.3667,0.8835 3.9866,1.3698 1.6199,0.4862 3.7406,0.891 6.0623,0.9808 2.3217,0.0897 4.845,-0.1348 7.0623,-0.5614 2.2173,-0.4266 4.1285,-1.0559 5.7409,-1.4148 1.6127,-0.3594 2.9266,-0.4491 5.0169,-0.7334 2.0904,-0.2846 4.9573,-0.7637 6.6519,-1.4224 1.6946,-0.6586 2.2176,-1.497 3.0385,-2.8368 0.8212,-1.3398 1.9413,-3.1812 3.0159,-4.6332 1.0751,-1.452 2.1058,-2.5154 3.3449,-3.4733 1.2391,-0.9579 2.6874,-1.8114 4.1357,-2.4324 1.4483,-0.6211 2.8969,-1.0109 3.9569,-1.1378 1.06,-0.1273 1.7322,0.007 2.4336,0.3068 0.7018,0.2993 1.4336,0.7637 2.2544,1.3548 0.8212,0.591 1.7326,1.3101 2.419,1.9161 0.6867,0.6061 1.1501,1.1006 1.6574,1.4295 0.5077,0.3293 1.0604,0.4945 1.5827,0.8535 0.5227,0.3593 1.0157,0.9132 1.4336,1.392 0.4179,0.4791 0.7619,0.8839 0.9857,1.108 0.2238,0.2246 0.3285,0.2696 0.4029,0.1348 0.0747,-0.1348 0.1194,-0.4491 0.0747,-0.9503 -0.0447,-0.5017 -0.1795,-1.1903 -0.2839,-1.7964 -0.1043,-0.6064 -0.1791,-1.1306 -0.1791,-1.6544 0,-0.5238 0.0748,-1.048 0.0526,-1.5643 -0.0225,-0.5163 -0.1419,-1.0259 -0.3958,-1.5497 -0.2538,-0.5238 -0.6421,-1.063 -0.9256,-1.7663 -0.2838,-0.7037 -0.4633,-1.5722 -0.493,-2.4178 -0.03,-0.8456 0.0898,-1.6694 0.5524,-2.657 0.463,-0.9879 1.2695,-2.141 2.5011,-3.2037 1.2316,-1.0626 2.8894,-2.0363 4.7256,-2.9266 1.8365,-0.8906 3.8526,-1.6994 5.8382,-2.1782 1.9859,-0.4787 3.9419,-0.6289 5.4423,-0.7112 1.5005,-0.0822 2.5459,-0.0972 3.3892,-0.202 0.8438,-0.1047 1.4859,-0.2996 2.419,-1.033 0.9331,-0.7333 2.1579,-2.0062 3.2776,-3.3756 1.1198,-1.3698 2.1351,-2.8369 3.1129,-4.1691 0.9781,-1.3323 1.9187,-2.5305 2.9938,-3.7054 1.075,-1.1749 2.2845,-2.328 3.2547,-3.4729 0.9707,-1.1453 1.7029,-2.283 2.1805,-3.0614 0.4776,-0.7784 0.7018,-1.1978 1.1719,-2.313 z"
           inkscape:connector-curvature="0" />
        <path
           style="fill:none;stroke:#1f1a17;stroke-width:0.2;stroke-linecap:round;stroke-linejoin:round"
           id="path2532"
           d="m 590.952,126.982 c 0.1672,0.4724 0.3665,1.1024 0.5495,1.6551 0.1832,0.5526 0.3504,1.0284 0.4918,1.5199 0.1414,0.4917 0.2571,0.9995 0.3952,1.3723 0.1382,0.3727 0.2989,0.6106 0.3568,0.7454 0.0578,0.135 0.0128,0.1673 -0.1414,0.103 -0.1543,-0.0643 -0.4179,-0.225 -0.6171,-0.4243 -0.1992,-0.1992 -0.3342,-0.437 -0.4852,-0.8322 -0.151,-0.3953 -0.3182,-0.9481 -0.5013,-1.565 -0.1832,-0.617 -0.3825,-1.2984 -0.5431,-1.8318 -0.1607,-0.5334 -0.2828,-0.9191 -0.3535,-1.1954 -0.0707,-0.2763 -0.09,-0.4435 -0.0739,-0.556 0.016,-0.1124 0.0675,-0.1703 0.1542,-0.1767 0.0868,-0.007 0.209,0.0386 0.3374,0.2185 0.1286,0.1799 0.2636,0.4949 0.4306,0.9672 z"
           inkscape:connector-curvature="0" />
      </g>
    </g>
  </g>
</svg>
