<?xml version="1.0" encoding="UTF-8" standalone="no"?>
<!-- Created with Inkscape (http://www.inkscape.org/) -->

<svg
   xmlns:dc="http://purl.org/dc/elements/1.1/"
   xmlns:cc="http://creativecommons.org/ns#"
   xmlns:rdf="http://www.w3.org/1999/02/22-rdf-syntax-ns#"
   xmlns:svg="http://www.w3.org/2000/svg"
   xmlns="http://www.w3.org/2000/svg"
   xmlns:sodipodi="http://sodipodi.sourceforge.net/DTD/sodipodi-0.dtd"
   xmlns:inkscape="http://www.inkscape.org/namespaces/inkscape"
   width="210mm"
   height="297mm"
   viewBox="0 0 210 297"
   version="1.1"
   id="svg7378"
   inkscape:version="0.92.2 5c3e80d, 2017-08-06"
   sodipodi:docname="cogwheel.svg">
  <defs
     id="defs7372" />
  <sodipodi:namedview
     id="base"
     pagecolor="#ffffff"
     bordercolor="#666666"
     borderopacity="1.0"
     inkscape:pageopacity="0.0"
     inkscape:pageshadow="2"
     inkscape:zoom="0.2628418"
     inkscape:cx="787.77709"
     inkscape:cy="239.05098"
     inkscape:document-units="mm"
     inkscape:current-layer="layer1"
     showgrid="false"
     inkscape:window-width="1680"
     inkscape:window-height="962"
     inkscape:window-x="0"
     inkscape:window-y="1"
     inkscape:window-maximized="1" />
  <metadata
     id="metadata7375">
    <rdf:RDF>
      <cc:Work
         rdf:about="">
        <dc:format>image/svg+xml</dc:format>
        <dc:type
           rdf:resource="http://purl.org/dc/dcmitype/StillImage" />
        <dc:title></dc:title>
      </cc:Work>
    </rdf:RDF>
  </metadata>
  <g
     inkscape:label="Layer 1"
     inkscape:groupmode="layer"
     id="layer1">
    <path
       style="fill:#000000;stroke-width:0.03126093"
       d="m 19.584508,296.94882 c -0.06877,-0.0332 -0.157114,-0.0951 -0.196311,-0.13775 -0.04896,-0.0532 -0.27052,-0.67604 -0.707687,-1.98934 -0.350033,-1.05153 -0.659439,-1.947 -0.68757,-1.98994 -0.118792,-0.18129 -0.24157,-0.22421 -1.348654,-0.47136 -1.108751,-0.24752 -1.210612,-0.25866 -1.426873,-0.15603 -0.06872,0.0326 -0.669254,0.61895 -1.530481,1.49431 -0.85177,0.86575 -1.457547,1.45743 -1.518028,1.4827 -0.236069,0.0986 -0.236212,0.0986 -1.868893,-0.81926 -0.8424819,-0.47361 -1.562956,-0.89581 -1.6010527,-0.93822 -0.038096,-0.0424 -0.084972,-0.13545 -0.1041672,-0.20674 -0.032207,-0.1196 -0.012717,-0.2165 0.2524013,-1.25481 0.6433033,-2.51946 0.7179657,-2.82304 0.7164096,-2.91295 -0.00393,-0.22745 -0.092702,-0.34492 -0.8846775,-1.17072 -0.8183638,-0.85332 -0.8876928,-0.90814 -1.1485844,-0.90814 -0.069771,0 -0.9733184,0.19074 -2.007883,0.42386 -1.0345639,0.23311 -1.9392433,0.4242 -2.0103989,0.42462 -0.139654,8.3e-4 -0.2762974,-0.0563 -0.3625717,-0.15164 -0.066215,-0.0732 -1.582672,-3.00939 -1.6405403,-3.17648 -0.054889,-0.15848 -0.00624,-0.34494 0.1266147,-0.48523 0.054424,-0.0575 0.7416941,-0.70314 1.5272649,-1.43481 0.7855708,-0.73168 1.4444347,-1.36925 1.4641424,-1.41682 0.097643,-0.23573 0.093757,-0.28842 -0.098477,-1.33481 -0.112706,-0.6135 -0.2107422,-1.06331 -0.2474153,-1.13519 -0.033407,-0.0655 -0.1065893,-0.15378 -0.1626262,-0.19621 C 4.0599967,278.4436 3.2085446,278.1163 2.1211083,277.72008 1.0786075,277.34024 0.17477644,277.0082 0.11259328,276.98222 0.00776567,276.93842 -4.3168541e-4,276.92533 1.6108565e-5,276.80254 0.00172931,276.33458 0.13487311,274.89812 0.26583703,273.93476 c 0.12926608,-0.95088 0.1316232,-0.96062 0.2644929,-1.09349 0.064148,-0.0641 0.15032069,-0.12502 0.19149532,-0.13526 0.0411735,-0.0102 0.94000785,-0.17437 1.99740885,-0.36471 1.0574009,-0.19035 1.9795927,-0.367 2.0493151,-0.39255 0.2510903,-0.092 0.3265064,-0.21117 0.7020169,-1.10905 0.1905005,-0.4555 0.3540471,-0.88445 0.3634366,-0.95323 0.00977,-0.0716 -0.00154,-0.17865 -0.026468,-0.25044 -0.025358,-0.073 -0.5447768,-0.78448 -1.2438765,-1.70372 -0.7477281,-0.98319 -1.2165605,-1.62684 -1.243362,-1.707 -0.032826,-0.0982 -0.035154,-0.15746 -0.00982,-0.25009 0.023833,-0.0871 0.3638335,-0.53104 1.2044582,-1.57254 0.6441888,-0.79812 1.2141106,-1.47827 1.2664907,-1.51143 0.2173658,-0.13763 0.2348853,-0.13211 2.2897075,0.72105 2.0320764,0.84373 2.0609394,0.85302 2.3158494,0.74542 0.05533,-0.0234 0.379169,-0.23579 0.719651,-0.47209 0.664691,-0.46129 0.767991,-0.56608 0.794203,-0.80565 0.01245,-0.11378 -0.06035,-1.12435 -0.253707,-3.52163 -0.0233,-0.2889 -0.03046,-0.56032 -0.01642,-0.62257 0.01369,-0.0607 0.07157,-0.15669 0.128619,-0.2133 0.09215,-0.0914 0.305998,-0.17107 1.916783,-0.71383 1.172754,-0.39517 1.857246,-0.61074 1.938177,-0.6104 0.263628,10e-4 0.275022,0.0147 1.543053,1.84388 1.158724,1.6715 1.184258,1.70536 1.350302,1.79052 l 0.169244,0.0868 0.750787,-0.0208 c 0.784412,-0.0217 0.84413,-0.0323 0.975255,-0.17332 0.03749,-0.0403 0.498378,-0.87515 1.024198,-1.85518 1.011981,-1.88614 1.060181,-1.96064 1.293808,-1.99951 0.08354,-0.0139 0.344017,0.0359 0.95875,0.18346 0.464225,0.1114 1.322338,0.31679 1.906917,0.45642 0.584579,0.13963 1.097772,0.27653 1.140426,0.30421 0.114485,0.0743 0.183419,0.16649 0.216512,0.28953 0.01619,0.0602 0.0603,1.00973 0.09803,2.11011 0.06249,1.8227 0.07403,2.01358 0.129685,2.14552 0.0336,0.0796 0.09875,0.18065 0.144784,0.22446 0.04603,0.0438 0.321774,0.21377 0.612755,0.37771 0.56077,0.31592 0.714616,0.36696 0.919874,0.30521 0.06276,-0.0189 0.901892,-0.4726 1.864729,-1.00827 1.5099,-0.84002 1.772477,-0.97603 1.909618,-0.98911 0.108178,-0.0103 0.188969,3.5e-4 0.252739,0.0333 0.104117,0.0538 2.774016,2.7559 2.866523,2.90106 0.04535,0.0711 0.05516,0.13156 0.04392,0.2704 -0.0137,0.16921 -0.07004,0.27214 -1.053528,1.92488 -0.921497,1.54857 -1.040929,1.76433 -1.055669,1.90715 -0.02054,0.19902 5.91e-4,0.25196 0.374062,0.93927 0.305807,0.56271 0.403963,0.67443 0.64511,0.73429 0.06183,0.0154 0.935355,0.0793 1.941176,0.14217 1.00582,0.0628 1.930066,0.12617 2.053874,0.14072 0.24573,0.0289 0.386373,0.10425 0.45993,0.2465 0.07232,0.13984 0.868229,3.85423 0.848488,3.95973 -0.04725,0.25245 -0.01454,0.23238 -1.98622,1.21914 -1.70335,0.85247 -1.852867,0.93365 -1.939197,1.05282 -0.05145,0.071 -0.106528,0.17972 -0.122402,0.24154 -0.01588,0.0618 -0.04652,0.43784 -0.0681,0.83558 l -0.03924,0.72317 0.09164,0.18278 c 0.0906,0.1807 0.110063,0.19636 1.713383,1.3779 0.891962,0.65731 1.649523,1.22026 1.683477,1.25098 0.0963,0.0872 0.154793,0.22411 0.155823,0.36484 0.0012,0.16604 -1.243138,3.57916 -1.354167,3.71433 -0.163909,0.19955 -0.115613,0.20033 -2.329263,-0.0378 -2.248633,-0.24188 -2.167297,-0.24124 -2.401715,-0.0188 -0.127,0.1205 -0.913387,1.17338 -1.052561,1.40926 -0.03475,0.0589 -0.0706,0.18171 -0.07966,0.27291 -0.01569,0.15791 0.01886,0.25837 0.723531,2.10401 0.663997,1.73911 0.738634,1.95324 0.726683,2.08489 -0.0073,0.0807 -0.03634,0.18184 -0.06447,0.22478 -0.02813,0.0429 -0.547251,0.45435 -1.153597,0.91425 -0.606347,0.45991 -1.267465,0.96217 -1.469151,1.11616 -0.320693,0.24483 -0.385412,0.28167 -0.515806,0.29354 -0.115565,0.0105 -0.178265,-0.003 -0.278757,-0.0592 -0.07131,-0.04 -0.799927,-0.61442 -1.619147,-1.27637 -1.54078,-1.24498 -1.6693,-1.33341 -1.895071,-1.30381 -0.103459,0.0136 -1.789139,0.63636 -1.97064,0.72808 -0.11273,0.057 -0.264866,0.23724 -0.305541,0.36204 -0.01869,0.0574 -0.217269,0.97503 -0.441282,2.03929 -0.279802,1.32929 -0.427136,1.9671 -0.470677,2.03756 -0.105906,0.17136 -0.260367,0.22047 -0.920698,0.29276 -0.990738,0.10846 -1.626083,0.15737 -2.282049,0.17568 -0.574453,0.016 -0.635371,0.0126 -0.750262,-0.0428 z m 1.125393,-8.27305 c 1.053837,-0.0385 2.327511,-0.3025 3.422729,-0.70942 0.573276,-0.213 1.644642,-0.74628 2.151222,-1.07079 2.040886,-1.30738 3.574697,-3.11078 4.524601,-5.31986 0.292565,-0.68038 0.595804,-1.68729 0.73295,-2.43375 0.147182,-0.80109 0.170596,-1.09195 0.171312,-2.12798 7.09e-4,-1.04533 -0.02637,-1.38071 -0.175502,-2.17264 -0.892089,-4.73723 -4.634907,-8.47438 -9.358048,-9.34388 -0.811162,-0.14933 -1.086333,-0.17196 -2.110112,-0.17355 -1.001132,-0.002 -1.254487,0.0164 -2.000701,0.14146 -1.639778,0.2749 -3.252475,0.92552 -4.626618,1.86655 -4.1195097,2.8211 -5.992505,7.86317 -4.7172444,12.69874 0.654145,2.4804 2.1762794,4.73512 4.2633214,6.3152 1.87542,1.41987 4.156552,2.24131 6.502915,2.34173 0.275095,0.0118 0.563477,0.0175 0.640848,0.0128 0.07737,-0.005 0.337618,-0.0158 0.578327,-0.0246 z"
       id="path8833"
       inkscape:connector-curvature="0" />
  </g>
</svg>
