<?xml version="1.0" encoding="UTF-8" standalone="no"?>
<!-- Created with Inkscape (http://www.inkscape.org/) -->

<svg
   xmlns:dc="http://purl.org/dc/elements/1.1/"
   xmlns:cc="http://creativecommons.org/ns#"
   xmlns:rdf="http://www.w3.org/1999/02/22-rdf-syntax-ns#"
   xmlns:svg="http://www.w3.org/2000/svg"
   xmlns="http://www.w3.org/2000/svg"
   xmlns:sodipodi="http://sodipodi.sourceforge.net/DTD/sodipodi-0.dtd"
   xmlns:inkscape="http://www.inkscape.org/namespaces/inkscape"
   width="210mm"
   height="297mm"
   viewBox="0 0 210 297"
   version="1.1"
   id="svg8928"
   inkscape:version="0.92.2 5c3e80d, 2017-08-06"
   sodipodi:docname="dog.svg">
  <defs
     id="defs8922" />
  <sodipodi:namedview
     id="base"
     pagecolor="#ffffff"
     bordercolor="#666666"
     borderopacity="1.0"
     inkscape:pageopacity="0.0"
     inkscape:pageshadow="2"
     inkscape:zoom="1.0513672"
     inkscape:cx="292.5209"
     inkscape:cy="560"
     inkscape:document-units="mm"
     inkscape:current-layer="layer1"
     showgrid="false"
     inkscape:window-width="1680"
     inkscape:window-height="962"
     inkscape:window-x="0"
     inkscape:window-y="1"
     inkscape:window-maximized="1" />
  <metadata
     id="metadata8925">
    <rdf:RDF>
      <cc:Work
         rdf:about="">
        <dc:format>image/svg+xml</dc:format>
        <dc:type
           rdf:resource="http://purl.org/dc/dcmitype/StillImage" />
        <dc:title></dc:title>
      </cc:Work>
    </rdf:RDF>
  </metadata>
  <g
     inkscape:label="Layer 1"
     inkscape:groupmode="layer"
     id="layer1">
    <path
       id="path9408"
       d="m 388.06639,157.32046 c -2.56646,2.69875 -18.01813,19.60563 -39.66105,18.78542 -4.6302,-0.18521 -9.18104,-1.61396 -13.70541,-2.93688 -5.08,-1.50812 -9.41917,-3.25437 -14.23459,-5.52979 -4.23333,-2.03729 -8.06979,-4.18042 -12.59416,-5.47687 -2.14313,-0.635 -6.56167,-2.16959 -8.59896,-3.14855 -0.34396,-0.1852 -0.42333,-0.13229 -0.39688,-0.0794 -3.01625,-1.50813 -6.56166,-2.69875 -10.68916,-3.54542 -4.73604,-0.9525 -9.10167,-1.905 -14.04938,-2.19604 -11.45646,-0.76729 -23.23041,-1.16417 -34.71333,-0.34396 -4.18042,0.3175 -36.98875,-0.50271 -41.67188,-0.50271 -4.52437,0 -32.7025,-2.7252 -42.17458,-4.39208 -5.15937,-0.87312 -24.71208,-6.11187 -29.58041,-7.75229 -11.21834,-3.75708 -16.82751,-8.96938 -19.1823,-9.78958 -1.95791,-0.71438 -4.81541,-1.21709 -6.24416,-2.72521 -1.296458,-1.32292 -9.048748,-19.31458 -9.630838,-21.06083 -2.83104,-8.493133 -20.954995,-47.916046 -32.332075,-51.646676 -3.862917,-1.27 -6.588125,-1.74625 -10.980208,-1.74625 -9.710209,-0.0265 -18.335625,2.98979 -27.14625,7.32896 -1.852084,0.89958 -3.4925,2.16958 -5.265209,3.30729 -4.180416,2.67229 -4.021666,7.88458 -6.9320829,9.49854 -1.852083,1.05834 -35.4806251,18.732503 -37.0152081,21.563543 -1.825625,3.3073 2.143125,7.461253 5.503333,8.757713 4.392083,1.69334 5.3975,5.63563 8.969375,5.82084 2.725208,0.13229 2.883958,1.79916 6.7997921,1.29645 3.148541,-0.39687 30.5593749,-1.50812 35.1366659,-1.16416 3.148542,0.23812 9.286875,0 10.980209,3.54541 0.687916,1.53459 0.899583,4.10105 1.005416,5.82083 0.185209,2.19605 0.343959,4.23334 0.343959,6.50875 0,4.70959 1.27,9.04875 2.460625,13.41438 1.217083,4.55083 3.598333,9.02229 4.074583,13.70542 0.873125,9.18104 -2.407708,25.05604 0.79375,36.14208 8.546042,29.31583 35.083745,42.8625 38.946665,44.68812 1.82562,0.87313 3.67771,1.69334 5.47687,2.59292 2.19604,1.11125 3.04271,1.5875 3.04271,1.5875 0,0 -0.21167,11.03313 -2.46062,14.9225 -0.84667,1.48167 -1.42875,3.59833 -2.72521,4.73604 -1.71979,1.50813 -3.67771,0.50271 -5.31813,-0.0265 -2.03729,-0.60854 -3.20146,0.66146 -4.86832,1.85209 -1.64042,1.16416 -3.33375,1.48166 -4.97417,2.67229 -0.87312,0.635 -1.5875,1.40229 -2.06375,2.24896 -0.87312,0.0265 -1.693335,0.18521 -2.778125,0.84666 -0.899587,0.55563 -3.889378,2.88396 -2.27542,3.78355 0.9525,-1.21709 2.91042,-1.00542 4.550835,-0.87313 0.50271,1.05833 1.69334,1.85208 3.70417,2.03729 1.48167,0.10584 1.905,-0.44979 3.09563,-0.76729 1.48165,-0.39687 1.19062,0 2.19603,0.97896 1.79916,1.74625 5.74146,1.05833 5.68854,0.87312 0,0 4.97417,0.21167 5.74146,0.29105 1.11125,0.10583 2.35479,-0.0265 3.33375,-0.21167 2.24895,-0.42333 3.14854,-0.79375 4.1275,-2.46063 1.719788,0.0794 4.947708,-0.34395 5.847288,-0.21166 1.29646,0.21166 1.82562,-0.29104 2.80458,-1.00542 1.50813,-1.11125 3.57188,-1.82562 4.1275,-3.65125 0.66146,-2.14312 1.19063,-4.1275 1.19063,-6.45583 0,-2.16959 0.0265,-4.49792 0.79375,-6.45584 0.34395,-0.89958 1.00541,-1.61395 1.27,-2.59291 0.23812,-1.05834 0.23812,-2.19604 0.42333,-3.30729 0.10583,-0.55563 0.18521,-1.11125 0.23813,-1.69334 3.01624,0.34396 6.98499,0.50271 11.64166,0.0265 17.59479,-1.71979 46.27563,-11.43 52.59917,-14.04937 9.2075,-3.86292 18.99708,-6.35 28.23104,-9.2075 10.42458,-3.25438 21.32542,-3.01625 32.35854,-3.01625 7.22313,0 14.23459,0.5027 21.24604,1.16416 2.93688,0.29104 4.65667,1.61396 6.82625,3.57188 1.48167,1.32291 4.70959,3.46604 6.11188,4.60375 2.09021,1.69333 7.64646,1.61396 10.60979,1.64041 2.16958,0.0265 13.0175,1.29646 13.0175,1.29646 0,0 0.76729,5.50334 0.76729,7.46125 0,4.445 -1.27,8.96938 -2.16958,13.14979 -0.21167,0.87313 -0.39688,1.74625 -1.16417,2.38125 -1.27,1.05834 -1.42875,0.0794 -2.67229,0.0794 -1.42875,0 -3.59833,1.50812 -4.65667,2.46062 -0.635,0.60855 -1.42875,1.5875 -1.64041,2.46063 -0.1323,0.52917 0.13229,1.16417 0.0265,1.64042 -0.10583,0.42333 -0.60854,0.9525 -0.635,1.29645 0,0.0265 0,0.0265 0,0.0794 -1.48166,1.05833 -3.09562,2.69875 -3.14854,3.4925 3.36021,-0.23813 3.36021,-0.23813 5.08,-0.89958 0.635,0.23812 1.32292,0.34395 2.01084,0.42333 1.21708,0.10583 1.93145,-0.29104 3.01625,-0.44979 1.27,-0.21167 1.27,-0.10584 2.46062,0.44979 1.95792,0.97896 4.1275,1.05833 6.29708,0.50271 1.85209,-0.44979 3.91584,-0.97896 5.10646,-2.48709 1.27,-1.5875 1.53459,-3.43958 1.71979,-5.3975 0.21167,-2.35479 0.34396,-4.55083 0.7673,-6.82625 0.39687,-2.06375 2.80458,-16.40416 4.18041,-19.71145 l 1.93146,0.29104 c 0,-0.0265 3.78354,-0.76729 4.94771,-0.55563 1.40229,0.23813 4.02167,1.61396 4.02167,3.09563 0.0794,5.42396 4.7625,18.89125 3.33375,21.98687 -0.87313,1.93146 -4.94771,5.08 -6.77334,6.24417 -1.74625,1.11125 -1.71979,2.59292 -2.30187,4.55083 -0.21167,0 -0.50271,0.10584 -0.74084,0.0794 -0.0264,0.52916 -0.0794,0.97896 -0.0794,1.42875 -0.66146,0.21166 -1.32292,0.50271 -1.95792,0.89958 -2.14312,1.48167 -1.37583,2.19604 1.16417,2.01083 0.60854,-0.0264 1.16417,-0.10583 1.74625,-0.1852 0.3175,0.29104 0.68792,0.52916 1.21708,0.74083 0.97896,0.34396 1.79917,0.42333 2.77813,0.29104 0.39687,-0.0794 0.89958,-0.66146 1.37583,-0.60854 0.21167,0.0265 0.44979,0.29104 0.71438,0.52917 -0.55563,0.66145 -1.0848,1.40229 -1.50813,2.16958 0.89958,0.23812 2.51354,-0.3175 3.96875,-1.08479 3.36021,0.71437 8.22854,0.10583 10.58333,-1.50813 0.4498,-0.3175 0.84667,-0.29104 1.11125,-0.87312 0.21167,-0.42334 -0.0794,-1.37584 -0.0265,-1.42875 0.44979,-0.97896 1.64041,-1.40229 2.48708,-2.06375 2.38125,-1.85209 0.42333,-2.46063 -0.635,-4.445 -0.89958,-1.74625 -0.79375,-4.55084 -0.79375,-6.50875 -0.0265,-2.30188 -1.64042,-13.73188 0.60854,-20.53167 0.66146,-2.01083 1.71979,-3.78354 1.50813,-6.11187 -0.18521,-2.14313 0.1852,-4.445 0.34395,-6.56167 0.18521,-2.19604 -0.0794,-3.88938 -2.01083,-5.15938 -1.48167,-0.97895 -3.41312,-1.16416 -5.08,-1.79916 -1.79917,-0.66146 -6.11187,0.87312 -10.13354,-5.74146 -2.24896,-3.67771 -4.70958,-7.11729 -6.29708,-11.13896 -1.5875,-3.99521 -2.09021,-8.59896 -2.83105,-12.85875 -0.21166,-1.37583 -0.71437,-4.1275 -1.95791,-7.46125 8.86354,2.83104 23.94479,7.09083 34.29,6.11188 23.20396,-2.16959 32.78187,-15.18709 34.26354,-16.8275 2.64583,-3.09563 4.7625,-4.97417 4.33917,-8.96938 z"
       inkscape:connector-curvature="0"
       style="fill:#000000;stroke-width:0.26458332" />
  </g>
</svg>
