<?xml version="1.0" encoding="UTF-8" standalone="no"?>
<!-- Created with Inkscape (http://www.inkscape.org/) -->

<svg
   xmlns:dc="http://purl.org/dc/elements/1.1/"
   xmlns:cc="http://creativecommons.org/ns#"
   xmlns:rdf="http://www.w3.org/1999/02/22-rdf-syntax-ns#"
   xmlns:svg="http://www.w3.org/2000/svg"
   xmlns="http://www.w3.org/2000/svg"
   xmlns:sodipodi="http://sodipodi.sourceforge.net/DTD/sodipodi-0.dtd"
   xmlns:inkscape="http://www.inkscape.org/namespaces/inkscape"
   width="210mm"
   height="297mm"
   viewBox="0 0 210 297"
   version="1.1"
   id="svg8928"
   inkscape:version="0.92.2 5c3e80d, 2017-08-06"
   sodipodi:docname="pingu.svg">
  <defs
     id="defs8922">
    <style
       id="style2486"
       type="text/css" />
  </defs>
  <sodipodi:namedview
     id="base"
     pagecolor="#ffffff"
     bordercolor="#666666"
     borderopacity="1.0"
     inkscape:pageopacity="0.0"
     inkscape:pageshadow="2"
     inkscape:zoom="1.4142136"
     inkscape:cx="1215.7592"
     inkscape:cy="-209.92177"
     inkscape:document-units="mm"
     inkscape:current-layer="g9807"
     showgrid="false"
     inkscape:window-width="1680"
     inkscape:window-height="962"
     inkscape:window-x="256"
     inkscape:window-y="119"
     inkscape:window-maximized="0" />
  <metadata
     id="metadata8925">
    <rdf:RDF>
      <cc:Work
         rdf:about="">
        <dc:format>image/svg+xml</dc:format>
        <dc:type
           rdf:resource="http://purl.org/dc/dcmitype/StillImage" />
        <dc:title></dc:title>
      </cc:Work>
    </rdf:RDF>
  </metadata>
  <g
     inkscape:label="Layer 1"
     inkscape:groupmode="layer"
     id="layer1">
    <g
       style="fill-rule:evenodd"
       id="g9807"
       transform="matrix(0.66287878,0,0,0.66287878,26.460056,19.950696)">
      <path
         style="fill:#000000;stroke-width:0.39914286"
         d="m 385.36983,579.54322 c -3.17586,-0.29141 -4.191,-0.57355 -4.191,-1.16484 0,-0.60176 -0.95157,-0.5155 -3.11617,0.2825 -1.26435,0.46612 -0.74789,-0.29534 0.71255,-1.05056 0.99606,-0.51508 1.08487,-0.70147 0.71182,-1.49395 -0.38412,-0.81602 -0.66655,-0.89451 -2.85971,-0.79479 l -2.43349,0.11064 1.59657,-1.00667 c 0.87812,-0.55367 1.7935,-1.00759 2.03418,-1.00872 0.39276,-0.002 2.22109,-0.7614 3.71475,-1.54326 0.69023,-0.36131 1.36913,-2.05107 0.82407,-2.05107 -0.33207,0 -0.51656,0.47281 -0.46723,1.19743 0.007,0.10976 -0.95914,0.20907 -2.14802,0.22069 -1.18888,0.0116 -2.1616,-0.0287 -2.1616,-0.0895 0,-0.3078 2.46746,-1.32858 3.21149,-1.32858 0.47095,0 1.33304,-0.33566 1.91575,-0.74592 1.79754,-1.26555 2.8393,-1.42064 9.64104,-1.43523 4.4557,-0.01 6.84406,-0.17158 7.38414,-0.50093 0.43906,-0.26773 0.57182,-0.49225 0.29501,-0.49892 -1.11778,-0.027 -4.22758,-1.81285 -6.12087,-3.51509 -4.12812,-3.71153 -6.87394,-8.83498 -9.14496,-17.06366 -1.88737,-6.83856 -2.43261,-8.18154 -6.88286,-16.95282 -3.85231,-7.59277 -4.76653,-10.26872 -5.86368,-17.16314 -2.57081,-16.15479 -2.57165,-26.51425 -0.004,-51.88858 2.12924,-21.04366 3.34042,-24.80213 9.02672,-28.01129 l 2.15111,-1.21401 -1.65371,-1.79407 c -0.91683,-0.99464 -2.43458,-3.46504 -3.4061,-5.54406 -0.96381,-2.0625 -1.99259,-3.74999 -2.28618,-3.74999 -0.29359,0 -0.83324,-0.33088 -1.19922,-0.73527 -1.6617,-1.83617 -5.35752,-3.85932 -10.01671,-5.48332 -2.73644,-0.9538 -5.87693,-2.19105 -6.97888,-2.74946 -1.10195,-0.5584 -2.95038,-1.21299 -4.10763,-1.45466 -1.15725,-0.24167 -2.25634,-0.58144 -2.44242,-0.75506 -0.56682,-0.52885 5.08921,-1.59548 8.39998,-1.58409 1.71289,0.006 5.62895,0.44954 8.70235,0.98587 5.53083,0.96518 5.64313,0.96872 10.97643,0.34614 3.07902,-0.35943 6.97082,-0.54919 9.08056,-0.44277 4.82734,0.24351 8.29858,1.84574 10.56297,4.8756 1.56104,2.08874 1.83833,3.01692 3.10492,10.39329 1.05519,6.14524 1.9843,8.26553 5.85392,13.35907 9.21661,12.13174 11.46969,17.58115 15.84602,38.32637 3.04486,14.43376 3.23194,15.96863 4.05205,33.24825 0.8315,17.5182 1.45141,22.79214 3.82116,32.50721 2.51184,10.29766 6.43917,19.72056 10.35716,24.84997 0.5869,0.76835 1.06347,1.68069 1.05904,2.02742 -0.0196,1.54772 5.97258,8.74944 7.28001,8.74944 0.22204,0 0.3071,0.25174 0.18903,0.55942 -0.11806,0.30769 -0.8758,0.65633 -1.68382,0.77476 -0.80803,0.11843 -2.60082,0.40427 -3.98393,0.63519 -3.16727,0.5288 -5.39425,0.0686 -8.75575,-1.80928 -4.28045,-2.39129 -10.46996,-7.7211 -9.00004,-7.74996 0.17239,-0.003 -0.84897,-0.66487 -2.26968,-1.46997 -2.64133,-1.49679 -5.9606,-2.49795 -8.31866,-2.50907 -1.14361,-0.005 -1.30541,0.11512 -1.19741,0.89184 0.108,0.77669 -0.0774,0.91481 -1.37191,1.02195 -1.46911,0.12159 -1.49705,0.15479 -1.51093,1.79614 -0.0154,1.81544 -0.38448,2.63971 -2.10968,4.71099 -0.61927,0.74351 -1.5188,1.98049 -1.99893,2.74884 -1.20538,1.92895 -3.67254,3.08081 -7.17213,3.34853 -4.17139,0.31911 -13.78706,0.55573 -15.64726,0.38505 z"
         id="path10635"
         inkscape:connector-curvature="0"
         sodipodi:nodetypes="cscsccccccsccsscccccssscccccscccscccsccsscccccsccscccccscccscc" />
    </g>
  </g>
</svg>
