<?xml version="1.0" encoding="UTF-8" standalone="no"?>
<!-- Created with Inkscape (http://www.inkscape.org/) -->

<svg
   xmlns:dc="http://purl.org/dc/elements/1.1/"
   xmlns:cc="http://creativecommons.org/ns#"
   xmlns:rdf="http://www.w3.org/1999/02/22-rdf-syntax-ns#"
   xmlns:svg="http://www.w3.org/2000/svg"
   xmlns="http://www.w3.org/2000/svg"
   xmlns:sodipodi="http://sodipodi.sourceforge.net/DTD/sodipodi-0.dtd"
   xmlns:inkscape="http://www.inkscape.org/namespaces/inkscape"
   width="210mm"
   height="297mm"
   viewBox="0 0 210 297"
   version="1.1"
   id="svg8928"
   inkscape:version="0.92.2 5c3e80d, 2017-08-06"
   sodipodi:docname="propeller.svg">
  <defs
     id="defs8922">
    <style
       id="style2486"
       type="text/css" />
  </defs>
  <sodipodi:namedview
     id="base"
     pagecolor="#ffffff"
     bordercolor="#666666"
     borderopacity="1.0"
     inkscape:pageopacity="0.0"
     inkscape:pageshadow="2"
     inkscape:zoom="0.35355339"
     inkscape:cx="750.4831"
     inkscape:cy="70.60238"
     inkscape:document-units="mm"
     inkscape:current-layer="g9807"
     showgrid="false"
     inkscape:window-width="1680"
     inkscape:window-height="962"
     inkscape:window-x="256"
     inkscape:window-y="119"
     inkscape:window-maximized="0" />
  <metadata
     id="metadata8925">
    <rdf:RDF>
      <cc:Work
         rdf:about="">
        <dc:format>image/svg+xml</dc:format>
        <dc:type
           rdf:resource="http://purl.org/dc/dcmitype/StillImage" />
        <dc:title></dc:title>
      </cc:Work>
    </rdf:RDF>
  </metadata>
  <g
     inkscape:label="Layer 1"
     inkscape:groupmode="layer"
     id="layer1">
    <g
       style="fill-rule:evenodd"
       id="g9807"
       transform="matrix(0.66287878,0,0,0.66287878,26.460056,19.950696)">
      <path
         style="fill:#000000;stroke-width:0.38317713"
         d="m 135.46689,154.91868 c 0,-1.12965 1.88202,-3.17571 7.85499,-8.53966 8.5216,-7.65271 13.58687,-12.04757 19.0632,-16.54009 1.91585,-1.57167 2.58645,-2.36594 2.58645,-3.06342 0,-0.74322 -0.19734,-0.94162 -0.93658,-0.94162 -0.51512,0 -1.36805,-0.38797 -1.8954,-0.86215 l -0.95882,-0.86215 -0.26071,-18.3925 c -0.256,-18.060015 -0.24677,-18.409595 0.51036,-19.338015 0.65201,-0.79952 0.86384,-0.86852 1.3719,-0.44688 0.6147,0.51016 1.37376,2.82093 2.15662,6.56529 0.24234,1.15911 1.10742,5.29742 1.9224,9.196245 0.81499,3.89883 2.20099,10.96844 3.08001,15.71026 0.87901,4.74182 1.68153,8.75659 1.78336,8.92171 0.10183,0.16512 0.55531,-0.17974 1.00774,-0.76635 2.00524,-2.59998 2.87349,-2.60802 7.35461,-0.0681 3.48067,1.97286 6.92164,3.89616 15.32709,8.56694 2.52897,1.4053 4.95334,3.00903 5.52206,3.39202 0.14655,0.0987 0.40325,0.21297 0.66846,0.38232 0.40763,0.19711 6.372,3.20924 6.9333,3.97284 0.68812,0.93614 0.58707,2.09957 -0.17945,2.09957 -1.1933,0.0696 -1.65545,-0.0637 -1.75992,-0.0617 -1.08231,0 -33.42532,-10.86196 -36.20046,-12.15744 -0.69246,-0.32324 -1.33144,-0.51531 -1.41995,-0.42681 -0.0885,0.0885 0.0916,0.89396 0.40031,1.78989 0.81304,2.35985 0.40493,3.374 -1.96878,4.89244 -1.12099,0.71709 -2.12061,1.3038 -2.22138,1.3038 -0.10078,0 -1.96268,1.09212 -4.13757,2.42693 -2.17488,1.33482 -6.54078,3.95033 -9.70199,5.81226 -3.16121,1.86192 -7.40161,4.39082 -9.42311,5.61978 -2.70872,1.64675 -4.04411,2.23447 -5.07709,2.23447 -0.77091,0 -1.40165,-0.18894 -1.40165,-0.41985 z m 34.4093,-25.71283 c 0.2529,-0.2529 0.45982,-0.90813 0.45982,-1.45608 0,-1.22181 -0.64252,-1.91588 -1.77357,-1.91588 -1.094,0 -2.05821,0.9642 -2.05821,2.05821 0,1.13105 0.69408,1.77356 1.91589,1.77356 0.54794,0 1.20318,-0.20692 1.45607,-0.45981 z"
         id="path11571"
         inkscape:connector-curvature="0"
         sodipodi:nodetypes="cssssccscccccscscsccccccccsccssccssssss" />
    </g>
  </g>
</svg>
